<svg xmlns="http://www.w3.org/2000/svg" version="1.1" style="font-family: 'Helvetica Neue', Helvetica, Arial, sans-serif; font-size: 18px; background-color: white; text-rendering: optimizeLegibility; -webkit-font-smoothing: antialiased;" width="850" height="600"><g class="ChartTab"><g class="HeaderView"><g opacity="0.8" transform="translate(778, 15) scale(0.27)"><a xmlns:xlink="http://www.w3.org/1999/xlink" xlink:href="https://ourworldindata.org" target="_blank"><g><rect x="0" y="0" fill="#1B2543" width="211.2" height="130.1"/><rect x="0" y="112.2" fill="#E63912" width="211.2" height="17.9"/><g><rect x="1.2" y="12.3" fill="none" width="210.2" height="99.2"/><path fill="#FFFFFF" d="M37.8,32.2c0,12.7-7.7,19.4-17.1,19.4c-9.7,0-16.6-7.5-16.6-18.7c0-11.7,7.3-19.3,17.1-19.3 C31.3,13.7,37.8,21.3,37.8,32.2z M9.2,32.8c0,7.9,4.3,14.9,11.8,14.9c7.5,0,11.8-6.9,11.8-15.3c0-7.3-3.8-14.9-11.8-14.9 C13.1,17.5,9.2,24.8,9.2,32.8z"/><path fill="#FFFFFF" d="M62.7,43.8c0,2.7,0.1,5.1,0.2,7.2h-4.3l-0.3-4.3h-0.1c-1.3,2.1-4,4.9-8.8,4.9c-4.2,0-9.1-2.3-9.1-11.6 V24.6h4.8v14.6c0,5,1.5,8.4,5.9,8.4c3.2,0,5.5-2.2,6.3-4.4c0.3-0.7,0.4-1.6,0.4-2.5V24.6h4.8V43.8z"/><path fill="#FFFFFF" d="M67.3,32.8c0-3.1-0.1-5.8-0.2-8.2h4.2l0.2,5.2h0.2c1.2-3.5,4.1-5.8,7.3-5.8c0.5,0,0.9,0.1,1.4,0.2v4.5 c-0.5-0.1-1-0.2-1.6-0.2c-3.4,0-5.8,2.6-6.5,6.2c-0.1,0.7-0.2,1.4-0.2,2.2V51h-4.8V32.8z"/><path fill="#FFFFFF" d="M95.4,51l-9.4-36.8h5l4.4,18.6c1.1,4.6,2.1,9.2,2.7,12.7h0.1c0.6-3.7,1.8-8,3-12.8l4.9-18.5h5l4.5,18.7 c1,4.4,2,8.7,2.6,12.6h0.1c0.8-4,1.8-8.1,3-12.7l4.9-18.5h4.9L120.6,51h-5L111,31.9c-1.1-4.7-1.9-8.3-2.4-12h-0.1 c-0.7,3.7-1.5,7.3-2.8,12L100.4,51H95.4z"/><path fill="#FFFFFF" d="M154.9,37.6c0,9.8-6.8,14-13.2,14c-7.2,0-12.7-5.2-12.7-13.6c0-8.8,5.8-14,13.1-14 C149.8,24,154.9,29.5,154.9,37.6z M133.9,37.9c0,5.8,3.3,10.1,8,10.1c4.6,0,8-4.3,8-10.3c0-4.5-2.2-10.1-7.9-10.1 C136.3,27.6,133.9,32.8,133.9,37.9z"/><path fill="#FFFFFF" d="M158.2,32.8c0-3.1-0.1-5.8-0.2-8.2h4.2l0.2,5.2h0.2c1.2-3.5,4.1-5.8,7.3-5.8c0.5,0,0.9,0.1,1.4,0.2v4.5 c-0.5-0.1-1-0.2-1.6-0.2c-3.4,0-5.8,2.6-6.5,6.2c-0.1,0.7-0.2,1.4-0.2,2.2V51h-4.8V32.8z"/><path fill="#FFFFFF" d="M173.5,12.3h4.8V51h-4.8V12.3z"/><path fill="#FFFFFF" d="M206.5,12.3v31.9c0,2.3,0.1,5,0.2,6.8h-4.3l-0.2-4.6H202c-1.5,2.9-4.7,5.2-9,5.2 c-6.4,0-11.3-5.4-11.3-13.4c-0.1-8.8,5.4-14.2,11.9-14.2c4,0,6.8,1.9,8,4h0.1V12.3H206.5z M201.7,35.4c0-0.6-0.1-1.4-0.2-2 c-0.7-3.1-3.3-5.6-6.9-5.6c-5,0-7.9,4.4-7.9,10.2c0,5.3,2.6,9.8,7.8,9.8c3.2,0,6.2-2.1,7.1-5.7c0.2-0.7,0.2-1.3,0.2-2.1V35.4z"/><path fill="#FFFFFF" d="M42.8,64c0.1,1.6-1.1,2.9-3.1,2.9c-1.7,0-2.9-1.3-2.9-2.9c0-1.7,1.3-3,3-3C41.7,61,42.8,62.3,42.8,64z M37.4,97.8V71.4h4.8v26.4H37.4z"/><path fill="#FFFFFF" d="M47.5,78.6c0-2.7-0.1-5-0.2-7.1h4.3l0.3,4.4h0.1c1.3-2.5,4.4-5,8.8-5c3.7,0,9.4,2.2,9.4,11.2v15.8h-4.8 V82.6c0-4.3-1.6-7.8-6.1-7.8c-3.2,0-5.6,2.2-6.5,4.9c-0.2,0.6-0.3,1.4-0.3,2.2v15.9h-4.8V78.6z"/><path fill="#FFFFFF" d="M84,61.6c2.9-0.4,6.3-0.8,10.1-0.8c6.8,0,11.7,1.6,14.9,4.6c3.3,3,5.2,7.3,5.2,13.2c0,6-1.9,10.9-5.3,14.3 c-3.4,3.4-9.1,5.3-16.3,5.3c-3.4,0-6.2-0.2-8.6-0.4V61.6z M88.8,94.1c1.2,0.2,3,0.3,4.8,0.3c10.2,0,15.7-5.7,15.7-15.6 c0.1-8.7-4.9-14.2-14.9-14.2c-2.5,0-4.3,0.2-5.6,0.5V94.1z"/><path fill="#FFFFFF" d="M132.1,97.8l-0.4-3.3h-0.2c-1.5,2.1-4.3,3.9-8.1,3.9c-5.4,0-8.1-3.8-8.1-7.6c0-6.4,5.7-9.9,15.9-9.8v-0.5 c0-2.2-0.6-6.1-6-6.1c-2.5,0-5,0.8-6.9,2l-1.1-3.2c2.2-1.4,5.4-2.3,8.7-2.3c8.1,0,10.1,5.5,10.1,10.8v9.9c0,2.3,0.1,4.5,0.4,6.3 H132.1z M131.4,84.4c-5.3-0.1-11.2,0.8-11.2,5.9c0,3.1,2.1,4.6,4.5,4.6c3.4,0,5.6-2.2,6.4-4.4c0.2-0.5,0.3-1,0.3-1.5V84.4z"/><path fill="#FFFFFF" d="M146.6,63.9v7.6h6.9v3.7h-6.9v14.2c0,3.3,0.9,5.1,3.6,5.1c1.3,0,2.2-0.2,2.8-0.3l0.2,3.6 c-0.9,0.4-2.4,0.7-4.3,0.7c-2.2,0-4-0.7-5.2-2c-1.4-1.4-1.9-3.8-1.9-6.9V75.1h-4.1v-3.7h4.1v-6.3L146.6,63.9z"/><path fill="#FFFFFF" d="M171.4,97.8l-0.4-3.3h-0.2c-1.5,2.1-4.3,3.9-8.1,3.9c-5.4,0-8.1-3.8-8.1-7.6c0-6.4,5.7-9.9,15.9-9.8v-0.5 c0-2.2-0.6-6.1-6-6.1c-2.5,0-5,0.8-6.9,2l-1.1-3.2c2.2-1.4,5.4-2.3,8.7-2.3c8.1,0,10.1,5.5,10.1,10.8v9.9c0,2.3,0.1,4.5,0.4,6.3 H171.4z M170.7,84.4c-5.3-0.1-11.2,0.8-11.2,5.9c0,3.1,2.1,4.6,4.5,4.6c3.4,0,5.6-2.2,6.4-4.4c0.2-0.5,0.3-1,0.3-1.5V84.4z"/></g></g></a></g><a href="https://ourworldindata.org/grapher/child-mortality-mdgs" target="_blank"><text font-size="25.20" x="15.0" y="35.2" fill="#555"><tspan x="15" y="35.160000000000004">MDG4.A: Child mortality rate (per 1,000 live births)</tspan></text></a><text font-size="14.40" x="15.0" y="53.7" fill="#666"><tspan x="15" y="53.72">Millennium Development Goal (MDG) 4.A was to reduce global child mortality (children under 5 years old) rates by</tspan><tspan x="15" y="69.56">two-thirds from 1990 to 2015. The global target was therefore a reduction to 30 deaths per 1,000 live births by 2015.</tspan><tspan x="15" y="85.4">This target was missed.</tspan></text></g><g class="LineChart"><defs><clipPath id="boundsClip-119"><rect x="28.144000000000005" y="0" width="830" height="897.8"></rect></clipPath></defs><g class="AxisBoxView"><g class="HorizontalAxis"><text x="38.1" y="556.5" fill="#666" text-anchor="middle" font-size="16.2">1990</text><text x="172.7" y="556.5" fill="#666" text-anchor="middle" font-size="16.2">1995</text><text x="307.3" y="556.5" fill="#666" text-anchor="middle" font-size="16.2">2000</text><text x="441.8" y="556.5" fill="#666" text-anchor="middle" font-size="16.2">2005</text><text x="576.4" y="556.5" fill="#666" text-anchor="middle" font-size="16.2">2010</text><text x="710.9" y="556.5" fill="#666" text-anchor="middle" font-size="16.2">2015</text><text x="764.8" y="556.5" fill="#666" text-anchor="middle" font-size="16.2">2017</text></g><g class="VerticalAxis"><text x="33.14" y="535.3" fill="#666" dominant-baseline="middle" text-anchor="end" font-size="16.2">0</text><text x="33.14" y="443.5" fill="#666" dominant-baseline="middle" text-anchor="end" font-size="16.2">20</text><text x="33.14" y="351.7" fill="#666" dominant-baseline="middle" text-anchor="end" font-size="16.2">40</text><text x="33.14" y="260" fill="#666" dominant-baseline="middle" text-anchor="end" font-size="16.2">60</text><text x="33.14" y="168.2" fill="#666" dominant-baseline="middle" text-anchor="end" font-size="16.2">80</text></g><g class="AxisGridLines"><line x1="38.14" y1="535.3" x2="764.76" y2="535.3" stroke="#ccc"></line><line x1="38.14" y1="443.5" x2="764.76" y2="443.5" stroke="#ddd" stroke-dasharray="3,2"></line><line x1="38.14" y1="351.7" x2="764.76" y2="351.7" stroke="#ddd" stroke-dasharray="3,2"></line><line x1="38.14" y1="260" x2="764.76" y2="260" stroke="#ddd" stroke-dasharray="3,2"></line><line x1="38.14" y1="168.2" x2="764.76" y2="168.2" stroke="#ddd" stroke-dasharray="3,2"></line></g></g><g clip-path="url(#boundsClip-119)"><g class="ComparisonLine"><defs><clipPath id="axisBounds-120"><rect x="38.144000000000005" y="107.60000000000001" width="726.621" height="427.7"></rect></clipPath></defs><path d="M38.1,397.6L45.4,397.6L52.7,397.6L59.9,397.6L67.2,397.6L74.5,397.6L81.7,397.6L89,397.6L96.3,397.6L103.5,397.6L110.8,397.6L118.1,397.6L125.3,397.6L132.6,397.6L139.9,397.6L147.1,397.6L154.4,397.6L161.7,397.6L168.9,397.6L176.2,397.6L183.5,397.6L190.7,397.6L198,397.6L205.3,397.6L212.5,397.6L219.8,397.6L227.1,397.6L234.3,397.6L241.6,397.6L248.9,397.6L256.1,397.6L263.4,397.6L270.7,397.6L277.9,397.6L285.2,397.6L292.5,397.6L299.7,397.6L307,397.6L314.3,397.6L321.5,397.6L328.8,397.6L336.1,397.6L343.3,397.6L350.6,397.6L357.9,397.6L365.1,397.6L372.4,397.6L379.7,397.6L386.9,397.6L394.2,397.6L401.5,397.6L408.7,397.6L416,397.6L423.3,397.6L430.5,397.6L437.8,397.6L445.1,397.6L452.3,397.6L459.6,397.6L466.9,397.6L474.1,397.6L481.4,397.6L488.6,397.6L495.9,397.6L503.2,397.6L510.4,397.6L517.7,397.6L525,397.6L532.2,397.6L539.5,397.6L546.8,397.6L554,397.6L561.3,397.6L568.6,397.6L575.8,397.6L583.1,397.6L590.4,397.6L597.6,397.6L604.9,397.6L612.2,397.6L619.4,397.6L626.7,397.6L634,397.6L641.2,397.6L648.5,397.6L655.8,397.6L663,397.6L670.3,397.6L677.6,397.6L684.8,397.6L692.1,397.6L699.4,397.6L706.6,397.6L713.9,397.6L721.2,397.6L728.4,397.6L735.7,397.6L743,397.6L750.2,397.6L757.5,397.6" clip-path="url(#axisBounds-120)" fill="none" stroke="#ccc"></path><text x="165.9" y="394.6" fill="#999" transform="rotate(0,401.5,394.6)" clip-path="url(#axisBounds-120)">Global target: reduce child mortality by two-thirds (to 30 per 1,000)</text></g><g class="HeightedLegend clickable"><g class="legendMark"><rect x="764.765" y="349.15" width="70.235" height="13.5" fill="#fff" opacity="0"></rect><text font-size="13.50" x="769.8" y="359.9" fill="#3360a9"><tspan x="769.765" y="359.95">World</tspan></text></g></g><g class="Lines"><rect x="38" y="108" width="727" height="428" fill="rgba(255,255,255,0)" opacity="0"></rect><g class="key-World_0"><path stroke="#3360a9" stroke-linecap="round" d="M38 108L65 113L92 119L119 124L146 129L173 136L200 143L227 151L253 160L280 171L307 182L334 193L361 206L388 219L415 230L442 244L469 256L496 268L523 278L550 290L576 299L603 310L630 319L657 328L684 336L711 343L738 349L765 356" fill="none" stroke-width="1.5"></path><g fill="#3360a9"><circle cx="38" cy="108" r="2"></circle><circle cx="65" cy="113" r="2"></circle><circle cx="92" cy="119" r="2"></circle><circle cx="119" cy="124" r="2"></circle><circle cx="146" cy="129" r="2"></circle><circle cx="173" cy="136" r="2"></circle><circle cx="200" cy="143" r="2"></circle><circle cx="227" cy="151" r="2"></circle><circle cx="253" cy="160" r="2"></circle><circle cx="280" cy="171" r="2"></circle><circle cx="307" cy="182" r="2"></circle><circle cx="334" cy="193" r="2"></circle><circle cx="361" cy="206" r="2"></circle><circle cx="388" cy="219" r="2"></circle><circle cx="415" cy="230" r="2"></circle><circle cx="442" cy="244" r="2"></circle><circle cx="469" cy="256" r="2"></circle><circle cx="496" cy="268" r="2"></circle><circle cx="523" cy="278" r="2"></circle><circle cx="550" cy="290" r="2"></circle><circle cx="576" cy="299" r="2"></circle><circle cx="603" cy="310" r="2"></circle><circle cx="630" cy="319" r="2"></circle><circle cx="657" cy="328" r="2"></circle><circle cx="684" cy="336" r="2"></circle><circle cx="711" cy="343" r="2"></circle><circle cx="738" cy="349" r="2"></circle><circle cx="765" cy="356" r="2"></circle></g></g></g></g></g><g style="fill: #777;" class="SourcesFooter"><g style="fill: #777;" class="clickable"><text font-size="12.60" x="15.0" y="581.6"><tspan x="15" y="581.58">Source: World Bank</tspan></text></g><text font-size="12.60" x="775.4" y="581.6"><tspan x="775.402" y="581.58"><a style="fill: #777;" class="cclogo" href="http://creativecommons.org/licenses/by-sa/4.0/deed.en_US" target="_blank">CC BY-SA</a></tspan></text></g></g></svg>