<svg xmlns="http://www.w3.org/2000/svg" version="1.1" style="font-family: 'Helvetica Neue', Helvetica, Arial, sans-serif; font-size: 18px; background-color: white; text-rendering: optimizeLegibility; -webkit-font-smoothing: antialiased;" width="850" height="600"><g class="ChartTab"><g class="HeaderView"><g opacity="0.8" transform="translate(778, 15) scale(0.27)"><a xmlns:xlink="http://www.w3.org/1999/xlink" xlink:href="https://ourworldindata.org" target="_blank"><g><rect x="0" y="0" fill="#1B2543" width="211.2" height="130.1"/><rect x="0" y="112.2" fill="#E63912" width="211.2" height="17.9"/><g><rect x="1.2" y="12.3" fill="none" width="210.2" height="99.2"/><path fill="#FFFFFF" d="M37.8,32.2c0,12.7-7.7,19.4-17.1,19.4c-9.7,0-16.6-7.5-16.6-18.7c0-11.7,7.3-19.3,17.1-19.3 C31.3,13.7,37.8,21.3,37.8,32.2z M9.2,32.8c0,7.9,4.3,14.9,11.8,14.9c7.5,0,11.8-6.9,11.8-15.3c0-7.3-3.8-14.9-11.8-14.9 C13.1,17.5,9.2,24.8,9.2,32.8z"/><path fill="#FFFFFF" d="M62.7,43.8c0,2.7,0.1,5.1,0.2,7.2h-4.3l-0.3-4.3h-0.1c-1.3,2.1-4,4.9-8.8,4.9c-4.2,0-9.1-2.3-9.1-11.6 V24.6h4.8v14.6c0,5,1.5,8.4,5.9,8.4c3.2,0,5.5-2.2,6.3-4.4c0.3-0.7,0.4-1.6,0.4-2.5V24.6h4.8V43.8z"/><path fill="#FFFFFF" d="M67.3,32.8c0-3.1-0.1-5.8-0.2-8.2h4.2l0.2,5.2h0.2c1.2-3.5,4.1-5.8,7.3-5.8c0.5,0,0.9,0.1,1.4,0.2v4.5 c-0.5-0.1-1-0.2-1.6-0.2c-3.4,0-5.8,2.6-6.5,6.2c-0.1,0.7-0.2,1.4-0.2,2.2V51h-4.8V32.8z"/><path fill="#FFFFFF" d="M95.4,51l-9.4-36.8h5l4.4,18.6c1.1,4.6,2.1,9.2,2.7,12.7h0.1c0.6-3.7,1.8-8,3-12.8l4.9-18.5h5l4.5,18.7 c1,4.4,2,8.7,2.6,12.6h0.1c0.8-4,1.8-8.1,3-12.7l4.9-18.5h4.9L120.6,51h-5L111,31.9c-1.1-4.7-1.9-8.3-2.4-12h-0.1 c-0.7,3.7-1.5,7.3-2.8,12L100.4,51H95.4z"/><path fill="#FFFFFF" d="M154.9,37.6c0,9.8-6.8,14-13.2,14c-7.2,0-12.7-5.2-12.7-13.6c0-8.8,5.8-14,13.1-14 C149.8,24,154.9,29.5,154.9,37.6z M133.9,37.9c0,5.8,3.3,10.1,8,10.1c4.6,0,8-4.3,8-10.3c0-4.5-2.2-10.1-7.9-10.1 C136.3,27.6,133.9,32.8,133.9,37.9z"/><path fill="#FFFFFF" d="M158.2,32.8c0-3.1-0.1-5.8-0.2-8.2h4.2l0.2,5.2h0.2c1.2-3.5,4.1-5.8,7.3-5.8c0.5,0,0.9,0.1,1.4,0.2v4.5 c-0.5-0.1-1-0.2-1.6-0.2c-3.4,0-5.8,2.6-6.5,6.2c-0.1,0.7-0.2,1.4-0.2,2.2V51h-4.8V32.8z"/><path fill="#FFFFFF" d="M173.5,12.3h4.8V51h-4.8V12.3z"/><path fill="#FFFFFF" d="M206.5,12.3v31.9c0,2.3,0.1,5,0.2,6.8h-4.3l-0.2-4.6H202c-1.5,2.9-4.7,5.2-9,5.2 c-6.4,0-11.3-5.4-11.3-13.4c-0.1-8.8,5.4-14.2,11.9-14.2c4,0,6.8,1.9,8,4h0.1V12.3H206.5z M201.7,35.4c0-0.6-0.1-1.4-0.2-2 c-0.7-3.1-3.3-5.6-6.9-5.6c-5,0-7.9,4.4-7.9,10.2c0,5.3,2.6,9.8,7.8,9.8c3.2,0,6.2-2.1,7.1-5.7c0.2-0.7,0.2-1.3,0.2-2.1V35.4z"/><path fill="#FFFFFF" d="M42.8,64c0.1,1.6-1.1,2.9-3.1,2.9c-1.7,0-2.9-1.3-2.9-2.9c0-1.7,1.3-3,3-3C41.7,61,42.8,62.3,42.8,64z M37.4,97.8V71.4h4.8v26.4H37.4z"/><path fill="#FFFFFF" d="M47.5,78.6c0-2.7-0.1-5-0.2-7.1h4.3l0.3,4.4h0.1c1.3-2.5,4.4-5,8.8-5c3.7,0,9.4,2.2,9.4,11.2v15.8h-4.8 V82.6c0-4.3-1.6-7.8-6.1-7.8c-3.2,0-5.6,2.2-6.5,4.9c-0.2,0.6-0.3,1.4-0.3,2.2v15.9h-4.8V78.6z"/><path fill="#FFFFFF" d="M84,61.6c2.9-0.4,6.3-0.8,10.1-0.8c6.8,0,11.7,1.6,14.9,4.6c3.3,3,5.2,7.3,5.2,13.2c0,6-1.9,10.9-5.3,14.3 c-3.4,3.4-9.1,5.3-16.3,5.3c-3.4,0-6.2-0.2-8.6-0.4V61.6z M88.8,94.1c1.2,0.2,3,0.3,4.8,0.3c10.2,0,15.7-5.7,15.7-15.6 c0.1-8.7-4.9-14.2-14.9-14.2c-2.5,0-4.3,0.2-5.6,0.5V94.1z"/><path fill="#FFFFFF" d="M132.1,97.8l-0.4-3.3h-0.2c-1.5,2.1-4.3,3.9-8.1,3.9c-5.4,0-8.1-3.8-8.1-7.6c0-6.4,5.7-9.9,15.9-9.8v-0.5 c0-2.2-0.6-6.1-6-6.1c-2.5,0-5,0.8-6.9,2l-1.1-3.2c2.2-1.4,5.4-2.3,8.7-2.3c8.1,0,10.1,5.5,10.1,10.8v9.9c0,2.3,0.1,4.5,0.4,6.3 H132.1z M131.4,84.4c-5.3-0.1-11.2,0.8-11.2,5.9c0,3.1,2.1,4.6,4.5,4.6c3.4,0,5.6-2.2,6.4-4.4c0.2-0.5,0.3-1,0.3-1.5V84.4z"/><path fill="#FFFFFF" d="M146.6,63.9v7.6h6.9v3.7h-6.9v14.2c0,3.3,0.9,5.1,3.6,5.1c1.3,0,2.2-0.2,2.8-0.3l0.2,3.6 c-0.9,0.4-2.4,0.7-4.3,0.7c-2.2,0-4-0.7-5.2-2c-1.4-1.4-1.9-3.8-1.9-6.9V75.1h-4.1v-3.7h4.1v-6.3L146.6,63.9z"/><path fill="#FFFFFF" d="M171.4,97.8l-0.4-3.3h-0.2c-1.5,2.1-4.3,3.9-8.1,3.9c-5.4,0-8.1-3.8-8.1-7.6c0-6.4,5.7-9.9,15.9-9.8v-0.5 c0-2.2-0.6-6.1-6-6.1c-2.5,0-5,0.8-6.9,2l-1.1-3.2c2.2-1.4,5.4-2.3,8.7-2.3c8.1,0,10.1,5.5,10.1,10.8v9.9c0,2.3,0.1,4.5,0.4,6.3 H171.4z M170.7,84.4c-5.3-0.1-11.2,0.8-11.2,5.9c0,3.1,2.1,4.6,4.5,4.6c3.4,0,5.6-2.2,6.4-4.4c0.2-0.5,0.3-1,0.3-1.5V84.4z"/></g></g></a></g><a href="https://ourworldindata.org/grapher/death-rate-from-pm25-vs-pm25-concentration" target="_blank"><text font-size="24.30" x="15.0" y="34.4" fill="#555"><tspan x="15" y="34.44">Death rate from particular matter air pollution vs PM2.5 concentration</tspan></text></a><text font-size="14.40" x="15.0" y="52.8" fill="#666"><tspan x="15" y="52.81999999999999">Age-standardized death rate from particular matter (PM2.5) exposure per 100,000 people versus the average mean</tspan><tspan x="15" y="68.66">annual exposure to particulate matter smaller than 2.5 microns (PM2.5), measured in micrograms per cubic meter.</tspan></text></g><g><g class="AxisBoxView"><g class="HorizontalAxis"><text font-size="12.60" x="244.7" y="554.0"><tspan x="244.733" y="553.98">PM2.5 air pollution, mean annual exposure</tspan></text><text x="125.7" y="533.9" fill="#666" text-anchor="middle" font-size="16.2">20 µg/m³</text><text x="263.7" y="533.9" fill="#666" text-anchor="middle" font-size="16.2">60 µg/m³</text><text x="401.6" y="533.9" fill="#666" text-anchor="middle" font-size="16.2">100 µg/m³</text><text x="539.5" y="533.9" fill="#666" text-anchor="middle" font-size="16.2">140 µg/m³</text><text x="677.5" y="533.9" fill="#666" text-anchor="middle" font-size="16.2">180 µg/m³</text></g><g class="VerticalAxis"><text font-size="12.60" x="-498.2" y="25.1" transform="rotate(-90)"><tspan x="-498.17099999999994" y="25.080000000000002">Deaths from ambient particulate matter pollution (per 100,000)</tspan></text><text x="64.82" y="512.7" fill="#666" dominant-baseline="middle" text-anchor="end" font-size="16.2">0</text><text x="64.82" y="436.8" fill="#666" dominant-baseline="middle" text-anchor="end" font-size="16.2">20</text><text x="64.82" y="360.9" fill="#666" dominant-baseline="middle" text-anchor="end" font-size="16.2">40</text><text x="64.82" y="285" fill="#666" dominant-baseline="middle" text-anchor="end" font-size="16.2">60</text><text x="64.82" y="209.1" fill="#666" dominant-baseline="middle" text-anchor="end" font-size="16.2">80</text><text x="64.82" y="133.2" fill="#666" dominant-baseline="middle" text-anchor="end" font-size="16.2">100</text></g><g class="AxisGridLines"><line x1="69.82" y1="512.7" x2="715.00" y2="512.7" stroke="#ccc"></line><line x1="69.82" y1="436.8" x2="715.00" y2="436.8" stroke="#ddd" stroke-dasharray="3,2"></line><line x1="69.82" y1="360.9" x2="715.00" y2="360.9" stroke="#ddd" stroke-dasharray="3,2"></line><line x1="69.82" y1="285" x2="715.00" y2="285" stroke="#ddd" stroke-dasharray="3,2"></line><line x1="69.82" y1="209.1" x2="715.00" y2="209.1" stroke="#ddd" stroke-dasharray="3,2"></line><line x1="69.82" y1="133.2" x2="715.00" y2="133.2" stroke="#ddd" stroke-dasharray="3,2"></line></g><g class="AxisGridLines"><line x1="125.7" y1="512.70" x2="125.7" y2="91.20" stroke="#ddd" stroke-dasharray="3,2"></line><line x1="194.7" y1="512.70" x2="194.7" y2="91.20" stroke="#ddd" stroke-dasharray="3,2"></line><line x1="263.7" y1="512.70" x2="263.7" y2="91.20" stroke="#ddd" stroke-dasharray="3,2"></line><line x1="332.6" y1="512.70" x2="332.6" y2="91.20" stroke="#ddd" stroke-dasharray="3,2"></line><line x1="401.6" y1="512.70" x2="401.6" y2="91.20" stroke="#ddd" stroke-dasharray="3,2"></line><line x1="470.6" y1="512.70" x2="470.6" y2="91.20" stroke="#ddd" stroke-dasharray="3,2"></line><line x1="539.5" y1="512.70" x2="539.5" y2="91.20" stroke="#ddd" stroke-dasharray="3,2"></line><line x1="608.5" y1="512.70" x2="608.5" y2="91.20" stroke="#ddd" stroke-dasharray="3,2"></line><line x1="677.5" y1="512.70" x2="677.5" y2="91.20" stroke="#ddd" stroke-dasharray="3,2"></line></g></g><g clip-path="url(#scatterBounds-205)" font-family="Arial Narrow, Arial, sans-serif" class="PointsWithLabels clickable"><rect x="69.816" y="91.2" width="645.184" height="421.49999999999994" fill="rgba(255,255,255,0)"></rect><defs><clipPath id="scatterBounds-205"><rect x="59.816" y="81.2" width="665.184" height="441.49999999999994"></rect></clipPath></defs><g class="key-Qatar_0"><circle cx="565.00" cy="272.00" r="16.96" fill="#d14e5b" opacity="0.8" stroke="#333" stroke-width="0.7"></circle></g><g class="key-Luxembourg_0"><circle cx="112.00" cy="456.00" r="13.81" fill="#ffd336" opacity="0.8" stroke="#333" stroke-width="0.7"></circle></g><g class="key-Singapore_0"><circle cx="142.00" cy="432.00" r="12.09" fill="#d14e5b" opacity="0.8" stroke="#333" stroke-width="0.7"></circle></g><g class="key-Brunei_0"><circle cx="78.00" cy="427.00" r="11.75" fill="#d14e5b" opacity="0.8" stroke="#333" stroke-width="0.7"></circle></g><g class="key-United-Arab-Emirates_0"><circle cx="411.00" cy="227.00" r="11.40" fill="#d14e5b" opacity="0.8" stroke="#333" stroke-width="0.7"></circle></g><g class="key-Norway_0"><circle cx="84.00" cy="475.00" r="11.39" fill="#ffd336" opacity="0.8" stroke="#333" stroke-width="0.7"></circle></g><g class="key-Kuwait_0"><circle cx="432.00" cy="379.00" r="11.36" fill="#d14e5b" opacity="0.8" stroke="#333" stroke-width="0.7"></circle></g><g class="key-Switzerland_0"><circle cx="93.00" cy="470.00" r="10.88" fill="#ffd336" opacity="0.8" stroke="#fff" stroke-width="0.7"></circle></g><g class="key-Bermuda_0"><circle cx="92.00" cy="452.00" r="10.79" fill="#4d824b" opacity="0.8" stroke="#fff" stroke-width="0.7"></circle></g><g class="key-United-States_0"><circle cx="88.00" cy="451.00" r="10.30" fill="#4d824b" opacity="0.8" stroke="#fff" stroke-width="0.7"></circle></g><g class="key-Ireland_0"><circle cx="88.00" cy="458.00" r="9.96" fill="#ffd336" opacity="0.8" stroke="#fff" stroke-width="0.7"></circle></g><g class="key-Saudi-Arabia_0"><circle cx="687.00" cy="257.00" r="9.88" fill="#d14e5b" opacity="0.8" stroke="#333" stroke-width="0.7"></circle></g><g class="key-Austria_0"><circle cx="108.00" cy="449.00" r="9.85" fill="#ffd336" opacity="0.8" stroke="#fff" stroke-width="0.7"></circle></g><g class="key-Netherlands_0"><circle cx="109.00" cy="447.00" r="9.80" fill="#ffd336" opacity="0.8" stroke="#fff" stroke-width="0.7"></circle></g><g class="key-Germany_0"><circle cx="103.00" cy="443.00" r="9.67" fill="#ffd336" opacity="0.8" stroke="#fff" stroke-width="0.7"></circle></g><g class="key-Denmark_0"><circle cx="92.00" cy="446.00" r="9.57" fill="#ffd336" opacity="0.8" stroke="#fff" stroke-width="0.7"></circle></g><g class="key-Sweden_0"><circle cx="74.00" cy="480.00" r="9.53" fill="#ffd336" opacity="0.8" stroke="#fff" stroke-width="0.7"></circle></g><g class="key-Belgium_0"><circle cx="112.00" cy="443.00" r="9.44" fill="#ffd336" opacity="0.8" stroke="#fff" stroke-width="0.7"></circle></g><g class="key-Australia_0"><circle cx="77.00" cy="472.00" r="9.38" fill="#a652ba" opacity="0.8" stroke="#fff" stroke-width="0.7"></circle></g><g class="key-Iceland_0"><circle cx="82.00" cy="477.00" r="9.35" fill="#ffd336" opacity="0.8" stroke="#fff" stroke-width="0.7"></circle></g><g class="key-Canada_0"><circle cx="82.00" cy="472.00" r="9.30" fill="#4d824b" opacity="0.8" stroke="#fff" stroke-width="0.7"></circle></g><g class="key-Bahrain_0"><circle cx="329.00" cy="273.00" r="9.22" fill="#d14e5b" opacity="0.8" stroke="#333" stroke-width="0.7"></circle></g><g class="key-Finland_0"><circle cx="78.00" cy="482.00" r="9.09" fill="#ffd336" opacity="0.8" stroke="#fff" stroke-width="0.7"></circle></g><g class="key-United-Kingdom_0"><circle cx="96.00" cy="450.00" r="9.07" fill="#ffd336" opacity="0.8" stroke="#fff" stroke-width="0.7"></circle></g><g class="key-Equatorial-Guinea_0"><circle cx="294.00" cy="370.00" r="9.06" fill="#5675c1" opacity="0.8" stroke="#333" stroke-width="0.7"></circle></g><g class="key-France_0"><circle cx="97.00" cy="468.00" r="8.98" fill="#ffd336" opacity="0.8" stroke="#fff" stroke-width="0.7"></circle></g><g class="key-Oman_0"><circle cx="320.00" cy="298.00" r="8.88" fill="#d14e5b" opacity="0.8" stroke="#333" stroke-width="0.7"></circle></g><g class="key-Italy_0"><circle cx="110.00" cy="449.00" r="8.58" fill="#ffd336" opacity="0.8" stroke="#fff" stroke-width="0.7"></circle></g><g class="key-Japan_0"><circle cx="102.00" cy="471.00" r="8.52" fill="#d14e5b" opacity="0.8" stroke="#fff" stroke-width="0.7"></circle></g><g class="key-South-Korea_0"><circle cx="155.00" cy="429.00" r="8.50" fill="#d14e5b" opacity="0.8" stroke="#fff" stroke-width="0.7"></circle></g><g class="key-New-Zealand_0"><circle cx="75.00" cy="478.00" r="8.45" fill="#a652ba" opacity="0.8" stroke="#fff" stroke-width="0.7"></circle></g><g class="key-Spain_0"><circle cx="91.00" cy="463.00" r="8.35" fill="#ffd336" opacity="0.8" stroke="#fff" stroke-width="0.7"></circle></g><g class="key-Israel_0"><circle cx="121.00" cy="433.00" r="8.28" fill="#d14e5b" opacity="0.8" stroke="#fff" stroke-width="0.7"></circle></g><g class="key-Czech-Republic_0"><circle cx="123.00" cy="400.00" r="8.11" fill="#ffd336" opacity="0.8" stroke="#333" stroke-width="0.7"></circle></g><g class="key-Malta_0"><circle cx="99.00" cy="429.00" r="8.08" fill="#ffd336" opacity="0.8" stroke="#fff" stroke-width="0.7"></circle></g><g class="key-Trinidad-and-Tobago_0"><circle cx="114.00" cy="325.00" r="8.03" fill="#4d824b" opacity="0.8" stroke="#333" stroke-width="0.7"></circle></g><g class="key-Slovenia_0"><circle cx="118.00" cy="445.00" r="7.94" fill="#ffd336" opacity="0.8" stroke="#fff" stroke-width="0.7"></circle></g><g class="key-Slovakia_0"><circle cx="126.00" cy="378.00" r="7.70" fill="#ffd336" opacity="0.8" stroke="#333" stroke-width="0.7"></circle></g><g class="key-Cyprus_0"><circle cx="118.00" cy="417.00" r="7.70" fill="#ffd336" opacity="0.8" stroke="#fff" stroke-width="0.7"></circle></g><g class="key-Estonia_0"><circle cx="77.00" cy="468.00" r="7.69" fill="#ffd336" opacity="0.8" stroke="#fff" stroke-width="0.7"></circle></g><g class="key-Portugal_0"><circle cx="89.00" cy="461.00" r="7.69" fill="#ffd336" opacity="0.8" stroke="#fff" stroke-width="0.7"></circle></g><g class="key-Lithuania_0"><circle cx="114.00" cy="387.00" r="7.65" fill="#ffd336" opacity="0.8" stroke="#fff" stroke-width="0.7"></circle></g><g class="key-Greece_0"><circle cx="96.00" cy="419.00" r="7.36" fill="#ffd336" opacity="0.8" stroke="#fff" stroke-width="0.7"></circle></g><g class="key-Seychelles_0"><circle cx="108.00" cy="367.00" r="7.34" fill="#5675c1" opacity="0.8" stroke="#fff" stroke-width="0.7"></circle></g><g class="key-Hungary_0"><circle cx="141.00" cy="390.00" r="7.33" fill="#ffd336" opacity="0.8" stroke="#fff" stroke-width="0.7"></circle></g><g class="key-Poland_0"><circle cx="144.00" cy="390.00" r="7.25" fill="#ffd336" opacity="0.8" stroke="#fff" stroke-width="0.7"></circle></g><g class="key-Latvia_0"><circle cx="107.00" cy="396.00" r="7.04" fill="#ffd336" opacity="0.8" stroke="#fff" stroke-width="0.7"></circle></g><g class="key-Kazakhstan_0"><circle cx="124.00" cy="372.00" r="7.01" fill="#d14e5b" opacity="0.8" stroke="#fff" stroke-width="0.7"></circle></g><g class="key-Malaysia_0"><circle cx="117.00" cy="328.00" r="6.97" fill="#d14e5b" opacity="0.8" stroke="#fff" stroke-width="0.7"></circle></g><g class="key-Croatia_0"><circle cx="125.00" cy="399.00" r="6.76" fill="#ffd336" opacity="0.8" stroke="#fff" stroke-width="0.7"></circle></g><g class="key-Chile_0"><circle cx="132.00" cy="433.00" r="6.74" fill="#69c487" opacity="0.8" stroke="#fff" stroke-width="0.7"></circle></g><g class="key-Antigua-and-Barbuda_0"><circle cx="110.00" cy="391.00" r="6.66" fill="#4d824b" opacity="0.8" stroke="#fff" stroke-width="0.7"></circle></g><g class="key-Turkmenistan_0"><circle cx="185.00" cy="254.00" r="6.65" fill="#d14e5b" opacity="0.8" stroke="#333" stroke-width="0.7"></circle></g><g class="key-Romania_0"><circle cx="122.00" cy="396.00" r="6.63" fill="#ffd336" opacity="0.8" stroke="#fff" stroke-width="0.7"></circle></g><g class="key-Uruguay_0"><circle cx="96.00" cy="443.00" r="6.57" fill="#69c487" opacity="0.8" stroke="#fff" stroke-width="0.7"></circle></g><g class="key-Belarus_0"><circle cx="124.00" cy="318.00" r="6.55" fill="#ffd336" opacity="0.8" stroke="#fff" stroke-width="0.7"></circle></g><g class="key-Argentina_0"><circle cx="105.00" cy="402.00" r="6.54" fill="#69c487" opacity="0.8" stroke="#fff" stroke-width="0.7"></circle></g><g class="key-Panama_0"><circle cx="104.00" cy="454.00" r="6.46" fill="#4d824b" opacity="0.8" stroke="#fff" stroke-width="0.7"></circle></g><g class="key-Turkey_0"><circle cx="184.00" cy="339.00" r="6.39" fill="#d14e5b" opacity="0.8" stroke="#333" stroke-width="0.7"></circle></g><g class="key-Mauritius_0"><circle cx="106.00" cy="341.00" r="6.19" fill="#5675c1" opacity="0.8" stroke="#333" stroke-width="0.7"></circle></g><g class="key-Bulgaria_0"><circle cx="145.00" cy="357.00" r="6.11" fill="#ffd336" opacity="0.8" stroke="#333" stroke-width="0.7"></circle></g><g class="key-Botswana_0"><circle cx="135.00" cy="388.00" r="5.90" fill="#5675c1" opacity="0.8" stroke="#fff" stroke-width="0.7"></circle></g><g class="key-Azerbaijan_0"><circle cx="169.00" cy="287.00" r="5.85" fill="#d14e5b" opacity="0.8" stroke="#333" stroke-width="0.7"></circle></g><g class="key-Mexico_0"><circle cx="121.00" cy="397.00" r="5.85" fill="#4d824b" opacity="0.8" stroke="#fff" stroke-width="0.7"></circle></g><g class="key-Suriname_0"><circle cx="131.00" cy="369.00" r="5.81" fill="#69c487" opacity="0.8" stroke="#fff" stroke-width="0.7"></circle></g><g class="key-Iran_0"><circle cx="224.00" cy="343.00" r="5.79" fill="#d14e5b" opacity="0.8" stroke="#333" stroke-width="0.7"></circle></g><g class="key-Brazil_0"><circle cx="100.00" cy="423.00" r="5.68" fill="#69c487" opacity="0.8" stroke="#fff" stroke-width="0.7"></circle></g><g class="key-Montenegro_0"><circle cx="127.00" cy="395.00" r="5.62" fill="#ffd336" opacity="0.8" stroke="#fff" stroke-width="0.7"></circle></g><g class="key-Maldives_0"><circle cx="149.00" cy="456.00" r="5.59" fill="#d14e5b" opacity="0.8" stroke="#fff" stroke-width="0.7"></circle></g><g class="key-Barbados_0"><circle cx="119.00" cy="376.00" r="5.56" fill="#4d824b" opacity="0.8" stroke="#fff" stroke-width="0.7"></circle></g><g class="key-Costa-Rica_0"><circle cx="120.00" cy="451.00" r="5.56" fill="#4d824b" opacity="0.8" stroke="#fff" stroke-width="0.7"></circle></g><g class="key-Gabon_0"><circle cx="218.00" cy="285.00" r="5.55" fill="#5675c1" opacity="0.8" stroke="#fff" stroke-width="0.7"></circle></g><g class="key-Venezuela_0"><circle cx="146.00" cy="377.00" r="5.55" fill="#69c487" opacity="0.8" stroke="#fff" stroke-width="0.7"></circle></g><g class="key-Lebanon_0"><circle cx="168.00" cy="329.00" r="5.52" fill="#d14e5b" opacity="0.8" stroke="#fff" stroke-width="0.7"></circle></g><g class="key-Thailand_0"><circle cx="137.00" cy="418.00" r="5.52" fill="#d14e5b" opacity="0.8" stroke="#fff" stroke-width="0.7"></circle></g><g class="key-Serbia_0"><circle cx="122.00" cy="355.00" r="5.42" fill="#ffd336" opacity="0.8" stroke="#fff" stroke-width="0.7"></circle></g><g class="key-Macedonia_0"><circle cx="168.00" cy="372.00" r="5.37" fill="#ffd336" opacity="0.8" stroke="#fff" stroke-width="0.7"></circle></g><g class="key-Algeria_0"><circle cx="184.00" cy="351.00" r="5.31" fill="#5675c1" opacity="0.8" stroke="#fff" stroke-width="0.7"></circle></g><g class="key-Colombia_0"><circle cx="115.00" cy="447.00" r="5.27" fill="#69c487" opacity="0.8" stroke="#fff" stroke-width="0.7"></circle></g><g class="key-Dominican-Republic_0"><circle cx="136.00" cy="415.00" r="5.25" fill="#4d824b" opacity="0.8" stroke="#fff" stroke-width="0.7"></circle></g><g class="key-China_0"><circle cx="251.00" cy="312.00" r="5.24" fill="#d14e5b" opacity="0.8" stroke="#333" stroke-width="0.7"></circle></g><g class="key-South-Africa_0"><circle cx="179.00" cy="328.00" r="5.18" fill="#5675c1" opacity="0.8" stroke="#fff" stroke-width="0.7"></circle></g><g class="key-Iraq_0"><circle cx="306.00" cy="341.00" r="5.17" fill="#d14e5b" opacity="0.8" stroke="#333" stroke-width="0.7"></circle></g><g class="key-Mongolia_0"><circle cx="157.00" cy="331.00" r="5.06" fill="#d14e5b" opacity="0.8" stroke="#fff" stroke-width="0.7"></circle></g><g class="key-Grenada_0"><circle cx="118.00" cy="339.00" r="4.99" fill="#4d824b" opacity="0.8" stroke="#fff" stroke-width="0.7"></circle></g><g class="key-Peru_0"><circle cx="146.00" cy="442.00" r="4.96" fill="#69c487" opacity="0.8" stroke="#fff" stroke-width="0.7"></circle></g><g class="key-Ecuador_0"><circle cx="102.00" cy="421.00" r="4.95" fill="#69c487" opacity="0.8" stroke="#fff" stroke-width="0.7"></circle></g><g class="key-Namibia_0"><circle cx="145.00" cy="395.00" r="4.94" fill="#5675c1" opacity="0.8" stroke="#fff" stroke-width="0.7"></circle></g><g class="key-Albania_0"><circle cx="107.00" cy="430.00" r="4.89" fill="#ffd336" opacity="0.8" stroke="#fff" stroke-width="0.7"></circle></g><g class="key-Jordan_0"><circle cx="185.00" cy="365.00" r="4.85" fill="#d14e5b" opacity="0.8" stroke="#fff" stroke-width="0.7"></circle></g><g class="key-Tunisia_0"><circle cx="180.00" cy="324.00" r="4.83" fill="#5675c1" opacity="0.8" stroke="#fff" stroke-width="0.7"></circle></g><g class="key-Sri-Lanka_0"><circle cx="145.00" cy="415.00" r="4.83" fill="#d14e5b" opacity="0.8" stroke="#fff" stroke-width="0.7"></circle></g><g class="key-Ukraine_0"><circle cx="123.00" cy="268.00" r="4.83" fill="#ffd336" opacity="0.8" stroke="#333" stroke-width="0.7"></circle></g><g class="key-Dominica_0"><circle cx="114.00" cy="393.00" r="4.80" fill="#4d824b" opacity="0.8" stroke="#fff" stroke-width="0.7"></circle></g><g class="key-Saint-Lucia_0"><circle cx="116.00" cy="383.00" r="4.77" fill="#4d824b" opacity="0.8" stroke="#fff" stroke-width="0.7"></circle></g><g class="key-Bosnia-and-Herzegovina_0"><circle cx="193.00" cy="377.00" r="4.76" fill="#ffd336" opacity="0.8" stroke="#333" stroke-width="0.7"></circle></g><g class="key-Egypt_0"><circle cx="487.00" cy="91.00" r="4.74" fill="#5675c1" opacity="0.8" stroke="#333" stroke-width="0.7"></circle></g><g class="key-Indonesia_0"><circle cx="114.00" cy="411.00" r="4.70" fill="#d14e5b" opacity="0.8" stroke="#333" stroke-width="0.7"></circle></g><g class="key-Saint-Vincent-and-the-Grenadines_0"><circle cx="114.00" cy="365.00" r="4.68" fill="#4d824b" opacity="0.8" stroke="#fff" stroke-width="0.7"></circle></g><g class="key-Georgia_0"><circle cx="128.00" cy="376.00" r="4.62" fill="#d14e5b" opacity="0.8" stroke="#fff" stroke-width="0.7"></circle></g><g class="key-Armenia_0"><circle cx="150.00" cy="316.00" r="4.45" fill="#d14e5b" opacity="0.8" stroke="#fff" stroke-width="0.7"></circle></g><g class="key-Belize_0"><circle cx="127.00" cy="391.00" r="4.41" fill="#4d824b" opacity="0.8" stroke="#fff" stroke-width="0.7"></circle></g><g class="key-Paraguay_0"><circle cx="136.00" cy="455.00" r="4.39" fill="#69c487" opacity="0.8" stroke="#fff" stroke-width="0.7"></circle></g><g class="key-Uzbekistan_0"><circle cx="216.00" cy="196.00" r="4.37" fill="#d14e5b" opacity="0.8" stroke="#333" stroke-width="0.7"></circle></g><g class="key-Angola_0"><circle cx="180.00" cy="399.00" r="4.31" fill="#5675c1" opacity="0.8" stroke="#fff" stroke-width="0.7"></circle></g><g class="key-Fiji_0"><circle cx="82.00" cy="343.00" r="4.30" fill="#a652ba" opacity="0.8" stroke="#333" stroke-width="0.7"></circle></g><g class="key-El-Salvador_0"><circle cx="172.00" cy="398.00" r="4.29" fill="#4d824b" opacity="0.8" stroke="#fff" stroke-width="0.7"></circle></g><g class="key-Jamaica_0"><circle cx="108.00" cy="394.00" r="4.19" fill="#4d824b" opacity="0.8" stroke="#fff" stroke-width="0.7"></circle></g><g class="key-Morocco_0"><circle cx="143.00" cy="271.00" r="4.13" fill="#5675c1" opacity="0.8" stroke="#fff" stroke-width="0.7"></circle></g><g class="key-Bhutan_0"><circle cx="249.00" cy="356.00" r="4.06" fill="#d14e5b" opacity="0.8" stroke="#333" stroke-width="0.7"></circle></g><g class="key-Guatemala_0"><circle cx="155.00" cy="425.00" r="4.05" fill="#4d824b" opacity="0.8" stroke="#fff" stroke-width="0.7"></circle></g><g class="key-Philippines_0"><circle cx="136.00" cy="370.00" r="4.00" fill="#d14e5b" opacity="0.8" stroke="#fff" stroke-width="0.7"></circle></g><g class="key-Cape-Verde_0"><circle cx="280.00" cy="413.00" r="3.91" fill="#5675c1" opacity="0.8" stroke="#333" stroke-width="0.7"></circle></g><g class="key-Bolivia_0"><circle cx="133.00" cy="389.00" r="3.84" fill="#69c487" opacity="0.8" stroke="#fff" stroke-width="0.7"></circle></g><g class="key-Laos_0"><circle cx="153.00" cy="408.00" r="3.72" fill="#d14e5b" opacity="0.8" stroke="#fff" stroke-width="0.7"></circle></g><g class="key-Nigeria_0"><circle cx="453.00" cy="375.00" r="3.71" fill="#5675c1" opacity="0.8" stroke="#fff" stroke-width="0.7"></circle></g><g class="key-Vietnam_0"><circle cx="147.00" cy="386.00" r="3.67" fill="#d14e5b" opacity="0.8" stroke="#fff" stroke-width="0.7"></circle></g><g class="key-Myanmar_0"><circle cx="225.00" cy="358.00" r="3.67" fill="#d14e5b" opacity="0.8" stroke="#fff" stroke-width="0.7"></circle></g><g class="key-India_0"><circle cx="317.00" cy="249.00" r="3.63" fill="#d14e5b" opacity="0.8" stroke="#333" stroke-width="0.7"></circle></g><g class="key-Moldova_0"><circle cx="125.00" cy="349.00" r="3.52" fill="#ffd336" opacity="0.8" stroke="#fff" stroke-width="0.7"></circle></g><g class="key-Pakistan_0"><circle cx="315.00" cy="285.00" r="3.47" fill="#d14e5b" opacity="0.8" stroke="#fff" stroke-width="0.7"></circle></g><g class="key-Nicaragua_0"><circle cx="136.00" cy="469.00" r="3.42" fill="#4d824b" opacity="0.8" stroke="#333" stroke-width="0.7"></circle></g><g class="key-Congo_0"><circle cx="252.00" cy="325.00" r="3.41" fill="#5675c1" opacity="0.8" stroke="#333" stroke-width="0.7"></circle></g><g class="key-Honduras_0"><circle cx="159.00" cy="451.00" r="3.41" fill="#4d824b" opacity="0.8" stroke="#fff" stroke-width="0.7"></circle></g><g class="key-Palestine_0"><circle cx="122.00" cy="312.00" r="3.36" fill="#d14e5b" opacity="0.8" stroke="#fff" stroke-width="0.7"></circle></g><g class="key-Zambia_0"><circle cx="161.00" cy="429.00" r="3.20" fill="#5675c1" opacity="0.8" stroke="#fff" stroke-width="0.7"></circle></g><g class="key-Ghana_0"><circle cx="236.00" cy="378.00" r="3.15" fill="#5675c1" opacity="0.8" stroke="#fff" stroke-width="0.7"></circle></g><g class="key-Mauritania_0"><circle cx="474.00" cy="381.00" r="3.10" fill="#5675c1" opacity="0.8" stroke="#333" stroke-width="0.7"></circle></g><g class="key-Kyrgyzstan_0"><circle cx="118.00" cy="364.00" r="3.09" fill="#d14e5b" opacity="0.8" stroke="#fff" stroke-width="0.7"></circle></g><g class="key-Yemen_0"><circle cx="304.00" cy="293.00" r="3.08" fill="#d14e5b" opacity="0.8" stroke="#fff" stroke-width="0.7"></circle></g><g class="key-Cote-d__0027Ivoire_0"><circle cx="247.00" cy="424.00" r="3.08" fill="#5675c1" opacity="0.8" stroke="#333" stroke-width="0.7"></circle></g><g class="key-Sao-Tome-and-Principe_0"><circle cx="109.00" cy="393.00" r="3.05" fill="#5675c1" opacity="0.8" stroke="#fff" stroke-width="0.7"></circle></g><g class="key-Djibouti_0"><circle cx="301.00" cy="335.00" r="3.03" fill="#5675c1" opacity="0.8" stroke="#fff" stroke-width="0.7"></circle></g><g class="key-Cambodia_0"><circle cx="147.00" cy="428.00" r="2.97" fill="#d14e5b" opacity="0.8" stroke="#fff" stroke-width="0.7"></circle></g><g class="key-Bangladesh_0"><circle cx="402.00" cy="348.00" r="2.93" fill="#d14e5b" opacity="0.8" stroke="#333" stroke-width="0.7"></circle></g><g class="key-Kenya_0"><circle cx="112.00" cy="427.00" r="2.89" fill="#5675c1" opacity="0.8" stroke="#fff" stroke-width="0.7"></circle></g><g class="key-Tajikistan_0"><circle cx="266.00" cy="309.00" r="2.88" fill="#d14e5b" opacity="0.8" stroke="#fff" stroke-width="0.7"></circle></g><g class="key-Cameroon_0"><circle cx="521.00" cy="300.00" r="2.86" fill="#5675c1" opacity="0.8" stroke="#333" stroke-width="0.7"></circle></g><g class="key-Lesotho_0"><circle cx="148.00" cy="321.00" r="2.77" fill="#5675c1" opacity="0.8" stroke="#fff" stroke-width="0.7"></circle></g><g class="key-Senegal_0"><circle cx="248.00" cy="417.00" r="2.71" fill="#5675c1" opacity="0.8" stroke="#fff" stroke-width="0.7"></circle></g><g class="key-Tanzania_0"><circle cx="133.00" cy="451.00" r="2.69" fill="#5675c1" opacity="0.8" stroke="#fff" stroke-width="0.7"></circle></g><g class="key-Nepal_0"><circle cx="325.00" cy="276.00" r="2.68" fill="#d14e5b" opacity="0.8" stroke="#fff" stroke-width="0.7"></circle></g><g class="key-Chad_0"><circle cx="372.00" cy="390.00" r="2.62" fill="#5675c1" opacity="0.8" stroke="#333" stroke-width="0.7"></circle></g><g class="key-Benin_0"><circle cx="368.00" cy="425.00" r="2.59" fill="#5675c1" opacity="0.8" stroke="#333" stroke-width="0.7"></circle></g><g class="key-Zimbabwe_0"><circle cx="140.00" cy="415.00" r="2.57" fill="#5675c1" opacity="0.8" stroke="#fff" stroke-width="0.7"></circle></g><g class="key-Uganda_0"><circle cx="307.00" cy="426.00" r="2.55" fill="#5675c1" opacity="0.8" stroke="#fff" stroke-width="0.7"></circle></g><g class="key-Rwanda_0"><circle cx="237.00" cy="432.00" r="2.45" fill="#5675c1" opacity="0.8" stroke="#fff" stroke-width="0.7"></circle></g><g class="key-Burkina-Faso_0"><circle cx="418.00" cy="427.00" r="2.45" fill="#5675c1" opacity="0.8" stroke="#333" stroke-width="0.7"></circle></g><g class="key-Haiti_0"><circle cx="138.00" cy="454.00" r="2.44" fill="#4d824b" opacity="0.8" stroke="#fff" stroke-width="0.7"></circle></g><g class="key-Comoros_0"><circle cx="122.00" cy="452.00" r="2.40" fill="#5675c1" opacity="0.8" stroke="#fff" stroke-width="0.7"></circle></g><g class="key-Mali_0"><circle cx="362.00" cy="457.00" r="2.39" fill="#5675c1" opacity="0.8" stroke="#333" stroke-width="0.7"></circle></g><g class="key-Guinea_0"><circle cx="210.00" cy="440.00" r="2.39" fill="#5675c1" opacity="0.8" stroke="#333" stroke-width="0.7"></circle></g><g class="key-Sierra-Leone_0"><circle cx="196.00" cy="447.00" r="2.39" fill="#5675c1" opacity="0.8" stroke="#fff" stroke-width="0.7"></circle></g><g class="key-Togo_0"><circle cx="333.00" cy="417.00" r="2.37" fill="#5675c1" opacity="0.8" stroke="#fff" stroke-width="0.7"></circle></g><g class="key-Ethiopia_0"><circle cx="225.00" cy="449.00" r="2.35" fill="#5675c1" opacity="0.8" stroke="#fff" stroke-width="0.7"></circle></g><g class="key-Guinea__002dBissau_0"><circle cx="253.00" cy="420.00" r="2.32" fill="#5675c1" opacity="0.8" stroke="#fff" stroke-width="0.7"></circle></g><g class="key-Madagascar_0"><circle cx="130.00" cy="450.00" r="2.31" fill="#5675c1" opacity="0.8" stroke="#fff" stroke-width="0.7"></circle></g><g class="key-Mozambique_0"><circle cx="128.00" cy="460.00" r="2.27" fill="#5675c1" opacity="0.8" stroke="#fff" stroke-width="0.7"></circle></g><g class="key-Malawi_0"><circle cx="153.00" cy="462.00" r="2.18" fill="#5675c1" opacity="0.8" stroke="#fff" stroke-width="0.7"></circle></g><g class="key-Niger_0"><circle cx="715.00" cy="413.00" r="2.14" fill="#5675c1" opacity="0.8" stroke="#333" stroke-width="0.7"></circle></g><g class="key-Liberia_0"><circle cx="114.00" cy="475.00" r="2.13" fill="#5675c1" opacity="0.8" stroke="#fff" stroke-width="0.7"></circle></g><g class="key-Burundi_0"><circle cx="216.00" cy="429.00" r="2.10" fill="#5675c1" opacity="0.8" stroke="#fff" stroke-width="0.7"></circle></g><g class="key-Central-African-Republic_0"><circle cx="282.00" cy="342.00" r="2.02" fill="#5675c1" opacity="0.8" stroke="#fff" stroke-width="0.7"></circle></g><g class="key-World_0"><circle cx="226.00" cy="362.00" r="1.70" fill="#000" opacity="0.8" stroke="#fff" stroke-width="0.7"></circle></g><g class="key-Vanuatu_0"><circle cx="87.00" cy="440.00" r="1.70" fill="#a652ba" opacity="0.8" stroke="#fff" stroke-width="0.7"></circle></g><g class="key-Kiribati_0"><circle cx="70.00" cy="452.00" r="1.70" fill="#a652ba" opacity="0.8" stroke="#333" stroke-width="0.7"></circle></g><g class="key-Samoa_0"><circle cx="70.00" cy="449.00" r="1.70" fill="#a652ba" opacity="0.8" stroke="#fff" stroke-width="0.7"></circle></g><g class="key-Northern-Mariana-Islands_0"><circle cx="96.00" cy="421.00" r="1.70" fill="#a652ba" opacity="0.8" stroke="#fff" stroke-width="0.7"></circle></g><g class="key-Sub__002dSaharan-Africa_0"><circle cx="279.00" cy="400.00" r="1.70" fill="#000" opacity="0.8" stroke="#fff" stroke-width="0.7"></circle></g><g class="key-American-Samoa_0"><circle cx="69.00" cy="363.00" r="1.70" fill="#a652ba" opacity="0.8" stroke="#fff" stroke-width="0.7"></circle></g><g class="key-Marshall-Islands_0"><circle cx="93.00" cy="363.00" r="1.70" fill="#a652ba" opacity="0.8" stroke="#fff" stroke-width="0.7"></circle></g><g class="key-Puerto-Rico_0"><circle cx="126.00" cy="453.00" r="1.70" fill="#4d824b" opacity="0.8" stroke="#fff" stroke-width="0.7"></circle></g><g class="key-Greenland_0"><circle cx="71.00" cy="397.00" r="1.70" fill="#4d824b" opacity="0.8" stroke="#fff" stroke-width="0.7"></circle></g><g class="key-North-Korea_0"><circle cx="180.00" cy="359.00" r="1.70" fill="#d14e5b" opacity="0.8" stroke="#fff" stroke-width="0.7"></circle></g><g class="key-South-Asia_0"><circle cx="322.00" cy="262.00" r="1.70" fill="#000" opacity="0.8" stroke="#fff" stroke-width="0.7"></circle></g><g class="key-Solomon-Islands_0"><circle cx="85.00" cy="440.00" r="1.70" fill="#a652ba" opacity="0.8" stroke="#fff" stroke-width="0.7"></circle></g><g class="key-Andorra_0"><circle cx="94.00" cy="458.00" r="1.70" fill="#ffd336" opacity="0.8" stroke="#fff" stroke-width="0.7"></circle></g><g class="key-Guam_0"><circle cx="86.00" cy="369.00" r="1.70" fill="#a652ba" opacity="0.8" stroke="#333" stroke-width="0.7"></circle></g><g class="key-Guyana_0"><circle cx="124.00" cy="324.00" r="1.70" fill="#69c487" opacity="0.8" stroke="#fff" stroke-width="0.7"></circle></g><g class="key-Somalia_0"><circle cx="138.00" cy="448.00" r="1.70" fill="#5675c1" opacity="0.8" stroke="#fff" stroke-width="0.7"></circle></g><g class="key-South-Sudan_0"><circle cx="222.00" cy="415.00" r="1.70" fill="#5675c1" opacity="0.8" stroke="#fff" stroke-width="0.7"></circle></g><g class="key-Tonga_0"><circle cx="70.00" cy="417.00" r="1.70" fill="#a652ba" opacity="0.8" stroke="#fff" stroke-width="0.7"></circle></g><g class="key-Afghanistan_0"><circle cx="270.00" cy="333.00" r="1.70" fill="#d14e5b" opacity="0.8" stroke="#fff" stroke-width="0.7"></circle></g><g class="key-Libya_0"><circle cx="278.00" cy="254.00" r="1.70" fill="#5675c1" opacity="0.8" stroke="#333" stroke-width="0.7"></circle></g><g class="key-Papua-New-Guinea_0"><circle cx="104.00" cy="409.00" r="1.70" fill="#a652ba" opacity="0.8" stroke="#fff" stroke-width="0.7"></circle></g><g class="key-Eritrea_0"><circle cx="229.00" cy="371.00" r="1.70" fill="#5675c1" opacity="0.8" stroke="#fff" stroke-width="0.7"></circle></g><g class="key-Sudan_0"><circle cx="319.00" cy="353.00" r="1.70" fill="#5675c1" opacity="0.8" stroke="#fff" stroke-width="0.7"></circle></g><g class="key-Cuba_0"><circle cx="114.00" cy="395.00" r="1.70" fill="#4d824b" opacity="0.8" stroke="#fff" stroke-width="0.7"></circle></g><g class="key-North-America_0"><circle cx="87.00" cy="453.00" r="1.70" fill="#000" opacity="0.8" stroke="#fff" stroke-width="0.7"></circle></g><g fill="#333" class="backgroundLabels"><text x="565.00" y="254.04" font-size="13.98">Qatar</text><text x="112.00" y="441.19" font-size="12.96">Luxembourg</text><text x="142.00" y="418.91" font-size="12.50">Singapore</text><text x="78.00" y="414.25" font-size="12.41">Brunei</text><text x="411.00" y="214.60" font-size="12.33">United Arab Emirates</text><text x="84.00" y="462.61" font-size="12.33">Norway</text><text x="432.00" y="366.64" font-size="12.32">Kuwait</text><text x="618.06" y="246.12" font-size="11.99">Saudi Arabia</text><text x="329.00" y="262.78" font-size="11.86">Bahrain</text><text x="294.00" y="359.94" font-size="11.83">Equatorial Guinea</text><text x="320.00" y="288.12" font-size="11.79">Oman</text><text x="123.00" y="390.89" font-size="11.66">Czech Republic</text><text x="114.00" y="315.97" font-size="11.64">Trinidad and Tobago</text><text x="126.00" y="369.30" font-size="11.59">Slovakia</text><text x="185.00" y="246.35" font-size="11.43">Turkmenistan</text><text x="184.00" y="331.61" font-size="11.39">Turkey</text><text x="106.00" y="333.81" font-size="11.37">Mauritius</text><text x="145.00" y="349.89" font-size="11.36">Bulgaria</text><text x="169.00" y="280.15" font-size="11.33">Azerbaijan</text><text x="224.00" y="336.21" font-size="11.32">Iran</text><text x="251.00" y="305.76" font-size="11.25">China</text><text x="306.00" y="334.83" font-size="11.25">Iraq</text><text x="123.00" y="262.17" font-size="11.21">Ukraine</text><text x="193.00" y="371.24" font-size="11.20">Bosnia and Herzegovina</text><text x="487.00" y="102.40" font-size="11.20">Egypt</text><text x="114.00" y="405.30" font-size="11.20">Indonesia</text><text x="216.00" y="190.63" font-size="11.17">Uzbekistan</text><text x="82.00" y="337.70" font-size="11.16">Fiji</text><text x="249.00" y="350.94" font-size="11.14">Bhutan</text><text x="280.00" y="408.09" font-size="11.13">Cape Verde</text><text x="317.00" y="244.37" font-size="11.10">India</text><text x="136.00" y="464.58" font-size="11.09">Nicaragua</text><text x="252.00" y="320.59" font-size="11.09">Congo</text><text x="474.00" y="376.90" font-size="11.07">Mauritania</text><text x="247.00" y="419.92" font-size="11.07">Cote d'Ivoire</text><text x="402.00" y="344.07" font-size="11.06">Bangladesh</text><text x="521.00" y="296.14" font-size="11.05">Cameroon</text><text x="372.00" y="386.38" font-size="11.04">Chad</text><text x="368.00" y="421.41" font-size="11.04">Benin</text><text x="418.00" y="423.55" font-size="11.03">Burkina Faso</text><text x="362.00" y="453.61" font-size="11.03">Mali</text><text x="210.00" y="436.61" font-size="11.03">Guinea</text><text x="688.68" y="409.86" font-size="11.01">Niger</text><text x="70.00" y="449.30" font-size="11.00">Kiribati</text><text x="86.00" y="366.30" font-size="11.00">Guam</text><text x="278.00" y="251.30" font-size="11.00">Libya</text></g></g><g style="cursor: pointer;" class="ScatterColorLegend clickable"><g class="legendMark"><rect x="735" y="88.7" width="43.256" height="17.6" fill="#fff" opacity="0"></rect>,<rect x="735" y="94.2" width="6" height="6" fill="#5675c1"></rect>,<text font-size="12.60" x="746.0" y="101.3"><tspan x="746" y="101.28">Africa</tspan></text></g><g class="legendMark"><rect x="735" y="106.30000000000001" width="35.57" height="17.6" fill="#fff" opacity="0"></rect>,<rect x="735" y="111.80000000000001" width="6" height="6" fill="#d14e5b"></rect>,<text font-size="12.60" x="746.0" y="118.9"><tspan x="746" y="118.88000000000001">Asia</tspan></text></g><g class="legendMark"><rect x="735" y="123.9" width="51.824" height="17.6" fill="#fff" opacity="0"></rect>,<rect x="735" y="129.4" width="6" height="6" fill="#ffd336"></rect>,<text font-size="12.60" x="746.0" y="136.5"><tspan x="746" y="136.48">Europe</tspan></text></g><g class="legendMark"><rect x="735" y="141.5" width="91.64" height="17.6" fill="#fff" opacity="0"></rect>,<rect x="735" y="147" width="6" height="6" fill="#4d824b"></rect>,<text font-size="12.60" x="746.0" y="154.1"><tspan x="746" y="154.07999999999998">North America</tspan></text></g><g class="legendMark"><rect x="735" y="159.10000000000002" width="58.124" height="17.6" fill="#fff" opacity="0"></rect>,<rect x="735" y="164.60000000000002" width="6" height="6" fill="#a652ba"></rect>,<text font-size="12.60" x="746.0" y="171.7"><tspan x="746" y="171.68">Oceania</tspan></text></g><g class="legendMark"><rect x="735" y="176.7" width="93.908" height="17.6" fill="#fff" opacity="0"></rect>,<rect x="735" y="182.2" width="6" height="6" fill="#69c487"></rect>,<text font-size="12.60" x="746.0" y="189.3"><tspan x="746" y="189.27999999999997">South America</tspan></text></g></g></g><g style="fill: #777;" class="SourcesFooter"><g style="fill: #777;" class="clickable"><text font-size="12.60" x="15.0" y="581.6"><tspan x="15" y="581.58">Source: IHME, Global Burden of Disease</tspan></text></g><text font-size="12.60" x="576.7" y="581.6"><tspan x="576.7" y="581.58"><a target='_blank' style='fill: #777;' href='https://ourworldindata.org/air-pollution/'>OurWorldInData.org/air-pollution/</a> • <a style="fill: #777;" class="cclogo" href="http://creativecommons.org/licenses/by-sa/4.0/deed.en_US" target="_blank">CC BY-SA</a></tspan></text></g></g></svg>