<svg xmlns="http://www.w3.org/2000/svg" version="1.1" style="font-family: 'Helvetica Neue', Helvetica, Arial, sans-serif; font-size: 18px; background-color: white; text-rendering: optimizeLegibility; -webkit-font-smoothing: antialiased;" width="850" height="600"><g class="ChartTab"><g class="HeaderView"><g opacity="0.8" transform="translate(778, 15) scale(0.27)"><a xmlns:xlink="http://www.w3.org/1999/xlink" xlink:href="https://ourworldindata.org" target="_blank"><g><rect x="0" y="0" fill="#1B2543" width="211.2" height="130.1"/><rect x="0" y="112.2" fill="#E63912" width="211.2" height="17.9"/><g><rect x="1.2" y="12.3" fill="none" width="210.2" height="99.2"/><path fill="#FFFFFF" d="M37.8,32.2c0,12.7-7.7,19.4-17.1,19.4c-9.7,0-16.6-7.5-16.6-18.7c0-11.7,7.3-19.3,17.1-19.3 C31.3,13.7,37.8,21.3,37.8,32.2z M9.2,32.8c0,7.9,4.3,14.9,11.8,14.9c7.5,0,11.8-6.9,11.8-15.3c0-7.3-3.8-14.9-11.8-14.9 C13.1,17.5,9.2,24.8,9.2,32.8z"/><path fill="#FFFFFF" d="M62.7,43.8c0,2.7,0.1,5.1,0.2,7.2h-4.3l-0.3-4.3h-0.1c-1.3,2.1-4,4.9-8.8,4.9c-4.2,0-9.1-2.3-9.1-11.6 V24.6h4.8v14.6c0,5,1.5,8.4,5.9,8.4c3.2,0,5.5-2.2,6.3-4.4c0.3-0.7,0.4-1.6,0.4-2.5V24.6h4.8V43.8z"/><path fill="#FFFFFF" d="M67.3,32.8c0-3.1-0.1-5.8-0.2-8.2h4.2l0.2,5.2h0.2c1.2-3.5,4.1-5.8,7.3-5.8c0.5,0,0.9,0.1,1.4,0.2v4.5 c-0.5-0.1-1-0.2-1.6-0.2c-3.4,0-5.8,2.6-6.5,6.2c-0.1,0.7-0.2,1.4-0.2,2.2V51h-4.8V32.8z"/><path fill="#FFFFFF" d="M95.4,51l-9.4-36.8h5l4.4,18.6c1.1,4.6,2.1,9.2,2.7,12.7h0.1c0.6-3.7,1.8-8,3-12.8l4.9-18.5h5l4.5,18.7 c1,4.4,2,8.7,2.6,12.6h0.1c0.8-4,1.8-8.1,3-12.7l4.9-18.5h4.9L120.6,51h-5L111,31.9c-1.1-4.7-1.9-8.3-2.4-12h-0.1 c-0.7,3.7-1.5,7.3-2.8,12L100.4,51H95.4z"/><path fill="#FFFFFF" d="M154.9,37.6c0,9.8-6.8,14-13.2,14c-7.2,0-12.7-5.2-12.7-13.6c0-8.8,5.8-14,13.1-14 C149.8,24,154.9,29.5,154.9,37.6z M133.9,37.9c0,5.8,3.3,10.1,8,10.1c4.6,0,8-4.3,8-10.3c0-4.5-2.2-10.1-7.9-10.1 C136.3,27.6,133.9,32.8,133.9,37.9z"/><path fill="#FFFFFF" d="M158.2,32.8c0-3.1-0.1-5.8-0.2-8.2h4.2l0.2,5.2h0.2c1.2-3.5,4.1-5.8,7.3-5.8c0.5,0,0.9,0.1,1.4,0.2v4.5 c-0.5-0.1-1-0.2-1.6-0.2c-3.4,0-5.8,2.6-6.5,6.2c-0.1,0.7-0.2,1.4-0.2,2.2V51h-4.8V32.8z"/><path fill="#FFFFFF" d="M173.5,12.3h4.8V51h-4.8V12.3z"/><path fill="#FFFFFF" d="M206.5,12.3v31.9c0,2.3,0.1,5,0.2,6.8h-4.3l-0.2-4.6H202c-1.5,2.9-4.7,5.2-9,5.2 c-6.4,0-11.3-5.4-11.3-13.4c-0.1-8.8,5.4-14.2,11.9-14.2c4,0,6.8,1.9,8,4h0.1V12.3H206.5z M201.7,35.4c0-0.6-0.1-1.4-0.2-2 c-0.7-3.1-3.3-5.6-6.9-5.6c-5,0-7.9,4.4-7.9,10.2c0,5.3,2.6,9.8,7.8,9.8c3.2,0,6.2-2.1,7.1-5.7c0.2-0.7,0.2-1.3,0.2-2.1V35.4z"/><path fill="#FFFFFF" d="M42.8,64c0.1,1.6-1.1,2.9-3.1,2.9c-1.7,0-2.9-1.3-2.9-2.9c0-1.7,1.3-3,3-3C41.7,61,42.8,62.3,42.8,64z M37.4,97.8V71.4h4.8v26.4H37.4z"/><path fill="#FFFFFF" d="M47.5,78.6c0-2.7-0.1-5-0.2-7.1h4.3l0.3,4.4h0.1c1.3-2.5,4.4-5,8.8-5c3.7,0,9.4,2.2,9.4,11.2v15.8h-4.8 V82.6c0-4.3-1.6-7.8-6.1-7.8c-3.2,0-5.6,2.2-6.5,4.9c-0.2,0.6-0.3,1.4-0.3,2.2v15.9h-4.8V78.6z"/><path fill="#FFFFFF" d="M84,61.6c2.9-0.4,6.3-0.8,10.1-0.8c6.8,0,11.7,1.6,14.9,4.6c3.3,3,5.2,7.3,5.2,13.2c0,6-1.9,10.9-5.3,14.3 c-3.4,3.4-9.1,5.3-16.3,5.3c-3.4,0-6.2-0.2-8.6-0.4V61.6z M88.8,94.1c1.2,0.2,3,0.3,4.8,0.3c10.2,0,15.7-5.7,15.7-15.6 c0.1-8.7-4.9-14.2-14.9-14.2c-2.5,0-4.3,0.2-5.6,0.5V94.1z"/><path fill="#FFFFFF" d="M132.1,97.8l-0.4-3.3h-0.2c-1.5,2.1-4.3,3.9-8.1,3.9c-5.4,0-8.1-3.8-8.1-7.6c0-6.4,5.7-9.9,15.9-9.8v-0.5 c0-2.2-0.6-6.1-6-6.1c-2.5,0-5,0.8-6.9,2l-1.1-3.2c2.2-1.4,5.4-2.3,8.7-2.3c8.1,0,10.1,5.5,10.1,10.8v9.9c0,2.3,0.1,4.5,0.4,6.3 H132.1z M131.4,84.4c-5.3-0.1-11.2,0.8-11.2,5.9c0,3.1,2.1,4.6,4.5,4.6c3.4,0,5.6-2.2,6.4-4.4c0.2-0.5,0.3-1,0.3-1.5V84.4z"/><path fill="#FFFFFF" d="M146.6,63.9v7.6h6.9v3.7h-6.9v14.2c0,3.3,0.9,5.1,3.6,5.1c1.3,0,2.2-0.2,2.8-0.3l0.2,3.6 c-0.9,0.4-2.4,0.7-4.3,0.7c-2.2,0-4-0.7-5.2-2c-1.4-1.4-1.9-3.8-1.9-6.9V75.1h-4.1v-3.7h4.1v-6.3L146.6,63.9z"/><path fill="#FFFFFF" d="M171.4,97.8l-0.4-3.3h-0.2c-1.5,2.1-4.3,3.9-8.1,3.9c-5.4,0-8.1-3.8-8.1-7.6c0-6.4,5.7-9.9,15.9-9.8v-0.5 c0-2.2-0.6-6.1-6-6.1c-2.5,0-5,0.8-6.9,2l-1.1-3.2c2.2-1.4,5.4-2.3,8.7-2.3c8.1,0,10.1,5.5,10.1,10.8v9.9c0,2.3,0.1,4.5,0.4,6.3 H171.4z M170.7,84.4c-5.3-0.1-11.2,0.8-11.2,5.9c0,3.1,2.1,4.6,4.5,4.6c3.4,0,5.6-2.2,6.4-4.4c0.2-0.5,0.3-1,0.3-1.5V84.4z"/></g></g></a></g><a href="https://ourworldindata.org/grapher/homicide-rate-ihme-vs-world-bank" target="_blank"><text font-size="25.20" x="15.0" y="35.2" fill="#555"><tspan x="15" y="35.160000000000004">Homicide rate, IHME vs World Bank, 2014</tspan></text></a></g><g><g class="AxisBoxView"><g class="HorizontalAxis"><text font-size="12.60" x="251.9" y="554.0"><tspan x="251.91500000000002" y="553.98">Homicide rate (World Bank) per 100,000</tspan></text><text x="69.8" y="533.9" fill="#666" text-anchor="middle" font-size="16.2">0</text><text x="166.3" y="533.9" fill="#666" text-anchor="middle" font-size="16.2">10</text><text x="262.8" y="533.9" fill="#666" text-anchor="middle" font-size="16.2">20</text><text x="359.3" y="533.9" fill="#666" text-anchor="middle" font-size="16.2">30</text><text x="455.7" y="533.9" fill="#666" text-anchor="middle" font-size="16.2">40</text><text x="552.2" y="533.9" fill="#666" text-anchor="middle" font-size="16.2">50</text><text x="648.7" y="533.9" fill="#666" text-anchor="middle" font-size="16.2">60</text></g><g class="VerticalAxis"><text font-size="12.60" x="-409.5" y="25.1" transform="rotate(-90)"><tspan x="-409.451" y="25.080000000000002">Homicide rate (IHME) per 100,000</tspan></text><text x="64.82" y="512.7" fill="#666" dominant-baseline="middle" text-anchor="end" font-size="16.2">0</text><text x="64.82" y="428.7" fill="#666" dominant-baseline="middle" text-anchor="end" font-size="16.2">20</text><text x="64.82" y="344.7" fill="#666" dominant-baseline="middle" text-anchor="end" font-size="16.2">40</text><text x="64.82" y="260.7" fill="#666" dominant-baseline="middle" text-anchor="end" font-size="16.2">60</text><text x="64.82" y="176.7" fill="#666" dominant-baseline="middle" text-anchor="end" font-size="16.2">80</text><text x="64.82" y="92.7" fill="#666" dominant-baseline="middle" text-anchor="end" font-size="16.2">100</text></g><g class="AxisGridLines"><line x1="69.82" y1="512.7" x2="715.00" y2="512.7" stroke="#ccc"></line><line x1="69.82" y1="428.7" x2="715.00" y2="428.7" stroke="#ddd" stroke-dasharray="3,2"></line><line x1="69.82" y1="344.7" x2="715.00" y2="344.7" stroke="#ddd" stroke-dasharray="3,2"></line><line x1="69.82" y1="260.7" x2="715.00" y2="260.7" stroke="#ddd" stroke-dasharray="3,2"></line><line x1="69.82" y1="176.7" x2="715.00" y2="176.7" stroke="#ddd" stroke-dasharray="3,2"></line><line x1="69.82" y1="92.7" x2="715.00" y2="92.7" stroke="#ddd" stroke-dasharray="3,2"></line></g><g class="AxisGridLines"><line x1="69.8" y1="512.70" x2="69.8" y2="70.00" stroke="#ccc"></line><line x1="166.3" y1="512.70" x2="166.3" y2="70.00" stroke="#ddd" stroke-dasharray="3,2"></line><line x1="262.8" y1="512.70" x2="262.8" y2="70.00" stroke="#ddd" stroke-dasharray="3,2"></line><line x1="359.3" y1="512.70" x2="359.3" y2="70.00" stroke="#ddd" stroke-dasharray="3,2"></line><line x1="455.7" y1="512.70" x2="455.7" y2="70.00" stroke="#ddd" stroke-dasharray="3,2"></line><line x1="552.2" y1="512.70" x2="552.2" y2="70.00" stroke="#ddd" stroke-dasharray="3,2"></line><line x1="648.7" y1="512.70" x2="648.7" y2="70.00" stroke="#ddd" stroke-dasharray="3,2"></line></g></g><g class="ComparisonLine"><defs><clipPath id="axisBounds-425"><rect x="69.816" y="70" width="645.184" height="442.7"></rect></clipPath></defs><path d="M69.8,512.7L76.3,509.9L82.7,507.1L89.2,504.3L95.6,501.5L102.1,498.7L108.5,495.8L115,493L121.4,490.2L127.9,487.4L134.3,484.6L140.8,481.8L147.2,479L153.7,476.2L160.1,473.4L166.6,470.6L173,467.8L179.5,465L185.9,462.1L192.4,459.3L198.9,456.5L205.3,453.7L211.8,450.9L218.2,448.1L224.7,445.3L231.1,442.5L237.6,439.7L244,436.9L250.5,434.1L256.9,431.3L263.4,428.4L269.8,425.6L276.3,422.8L282.7,420L289.2,417.2L295.6,414.4L302.1,411.6L308.5,408.8L315,406L321.4,403.2L327.9,400.4L334.3,397.5L340.8,394.7L347.2,391.9L353.7,389.1L360.1,386.3L366.6,383.5L373.1,380.7L379.5,377.9L386,375.1L392.4,372.3L398.9,369.5L405.3,366.7L411.8,363.8L418.2,361L424.7,358.2L431.1,355.4L437.6,352.6L444,349.8L450.5,347L456.9,344.2L463.4,341.4L469.8,338.6L476.3,335.8L482.7,332.9L489.2,330.1L495.6,327.3L502.1,324.5L508.5,321.7L515,318.9L521.4,316.1L527.9,313.3L534.3,310.5L540.8,307.7L547.3,304.9L553.7,302.1L560.2,299.2L566.6,296.4L573.1,293.6L579.5,290.8L586,288L592.4,285.2L598.9,282.4L605.3,279.6L611.8,276.8L618.2,274L624.7,271.2L631.1,268.4L637.6,265.5L644,262.7L650.5,259.9L656.9,257.1L663.4,254.3L669.8,251.5L676.3,248.7L682.7,245.9L689.2,243.1L695.6,240.3L702.1,237.5L708.5,234.6" clip-path="url(#axisBounds-425)" fill="none" stroke="#ccc"></path></g><g clip-path="url(#scatterBounds-426)" font-family="Arial Narrow, Arial, sans-serif" class="PointsWithLabels clickable"><rect x="69.816" y="70" width="645.184" height="442.7" fill="rgba(255,255,255,0)"></rect><defs><clipPath id="scatterBounds-426"><rect x="59.816" y="60" width="665.184" height="462.7"></rect></clipPath></defs><g class="key-Denmark_0"><circle cx="82.00" cy="509.00" r="1.78" fill="#ffd336" opacity="0.8" stroke="#333" stroke-width="0.7"></circle></g><g class="key-Slovakia_0"><circle cx="82.00" cy="502.00" r="1.78" fill="#ffd336" opacity="0.8" stroke="#fff" stroke-width="0.7"></circle></g><g class="key-Serbia_0"><circle cx="82.00" cy="501.00" r="1.78" fill="#ffd336" opacity="0.8" stroke="#fff" stroke-width="0.7"></circle></g><g class="key-Belarus_0"><circle cx="104.00" cy="481.00" r="1.78" fill="#ffd336" opacity="0.8" stroke="#333" stroke-width="0.7"></circle></g><g class="key-South-Asia_0"><circle cx="105.00" cy="499.00" r="1.78" fill="#000" opacity="0.8" stroke="#fff" stroke-width="0.7"></circle></g><g class="key-Mauritius_0"><circle cx="84.00" cy="501.00" r="1.78" fill="#5675c1" opacity="0.8" stroke="#fff" stroke-width="0.7"></circle></g><g class="key-Belize_0"><circle cx="407.00" cy="402.00" r="1.78" fill="#4d824b" opacity="0.8" stroke="#333" stroke-width="0.7"></circle></g><g class="key-Ireland_0"><circle cx="80.00" cy="509.00" r="1.78" fill="#ffd336" opacity="0.8" stroke="#fff" stroke-width="0.7"></circle></g><g class="key-Estonia_0"><circle cx="99.00" cy="492.00" r="1.78" fill="#ffd336" opacity="0.8" stroke="#fff" stroke-width="0.7"></circle></g><g class="key-Israel_0"><circle cx="84.00" cy="503.00" r="1.78" fill="#d14e5b" opacity="0.8" stroke="#fff" stroke-width="0.7"></circle></g><g class="key-Kazakhstan_0"><circle cx="119.00" cy="476.00" r="1.78" fill="#d14e5b" opacity="0.8" stroke="#fff" stroke-width="0.7"></circle></g><g class="key-Uganda_0"><circle cx="180.00" cy="494.00" r="1.78" fill="#5675c1" opacity="0.8" stroke="#333" stroke-width="0.7"></circle></g><g class="key-Tanzania_0"><circle cx="141.00" cy="488.00" r="1.78" fill="#5675c1" opacity="0.8" stroke="#fff" stroke-width="0.7"></circle></g><g class="key-Venezuela_0"><circle cx="667.00" cy="305.00" r="1.78" fill="#69c487" opacity="0.8" stroke="#333" stroke-width="0.7"></circle></g><g class="key-Brazil_0"><circle cx="339.00" cy="383.00" r="1.78" fill="#69c487" opacity="0.8" stroke="#333" stroke-width="0.7"></circle></g><g class="key-Bangladesh_0"><circle cx="97.00" cy="505.00" r="1.78" fill="#d14e5b" opacity="0.8" stroke="#fff" stroke-width="0.7"></circle></g><g class="key-Dominican-Republic_0"><circle cx="237.00" cy="417.00" r="1.78" fill="#4d824b" opacity="0.8" stroke="#333" stroke-width="0.7"></circle></g><g class="key-Luxembourg_0"><circle cx="76.00" cy="508.00" r="1.78" fill="#ffd336" opacity="0.8" stroke="#fff" stroke-width="0.7"></circle></g><g class="key-Poland_0"><circle cx="76.00" cy="505.00" r="1.78" fill="#ffd336" opacity="0.8" stroke="#fff" stroke-width="0.7"></circle></g><g class="key-Chile_0"><circle cx="104.00" cy="493.00" r="1.78" fill="#69c487" opacity="0.8" stroke="#333" stroke-width="0.7"></circle></g><g class="key-Argentina_0"><circle cx="142.00" cy="485.00" r="1.78" fill="#69c487" opacity="0.8" stroke="#fff" stroke-width="0.7"></circle></g><g class="key-Japan_0"><circle cx="72.00" cy="510.00" r="1.78" fill="#d14e5b" opacity="0.8" stroke="#fff" stroke-width="0.7"></circle></g><g class="key-Ecuador_0"><circle cx="149.00" cy="452.00" r="1.78" fill="#69c487" opacity="0.8" stroke="#333" stroke-width="0.7"></circle></g><g class="key-Uruguay_0"><circle cx="145.00" cy="485.00" r="1.78" fill="#69c487" opacity="0.8" stroke="#fff" stroke-width="0.7"></circle></g><g class="key-Burundi_0"><circle cx="124.00" cy="510.00" r="1.78" fill="#5675c1" opacity="0.8" stroke="#fff" stroke-width="0.7"></circle></g><g class="key-Germany_0"><circle cx="78.00" cy="509.00" r="1.78" fill="#ffd336" opacity="0.8" stroke="#fff" stroke-width="0.7"></circle></g><g class="key-Slovenia_0"><circle cx="77.00" cy="508.00" r="1.78" fill="#ffd336" opacity="0.8" stroke="#fff" stroke-width="0.7"></circle></g><g class="key-Fiji_0"><circle cx="91.00" cy="495.00" r="1.78" fill="#a652ba" opacity="0.8" stroke="#fff" stroke-width="0.7"></circle></g><g class="key-Peru_0"><circle cx="134.00" cy="497.00" r="1.78" fill="#69c487" opacity="0.8" stroke="#333" stroke-width="0.7"></circle></g><g class="key-Cape-Verde_0"><circle cx="188.00" cy="456.00" r="1.78" fill="#5675c1" opacity="0.8" stroke="#fff" stroke-width="0.7"></circle></g><g class="key-Colombia_0"><circle cx="339.00" cy="391.00" r="1.78" fill="#69c487" opacity="0.8" stroke="#fff" stroke-width="0.7"></circle></g><g class="key-United-Kingdom_0"><circle cx="78.00" cy="510.00" r="1.78" fill="#ffd336" opacity="0.8" stroke="#fff" stroke-width="0.7"></circle></g><g class="key-Guatemala_0"><circle cx="372.00" cy="370.00" r="1.78" fill="#4d824b" opacity="0.8" stroke="#333" stroke-width="0.7"></circle></g><g class="key-Pakistan_0"><circle cx="138.00" cy="492.00" r="1.78" fill="#d14e5b" opacity="0.8" stroke="#fff" stroke-width="0.7"></circle></g><g class="key-Nicaragua_0"><circle cx="154.00" cy="477.00" r="1.78" fill="#4d824b" opacity="0.8" stroke="#333" stroke-width="0.7"></circle></g><g class="key-Honduras_0"><circle cx="715.00" cy="108.00" r="1.78" fill="#4d824b" opacity="0.8" stroke="#333" stroke-width="0.7"></circle></g><g class="key-Puerto-Rico_0"><circle cx="253.00" cy="425.00" r="1.78" fill="#4d824b" opacity="0.8" stroke="#fff" stroke-width="0.7"></circle></g><g class="key-Romania_0"><circle cx="84.00" cy="503.00" r="1.78" fill="#ffd336" opacity="0.8" stroke="#fff" stroke-width="0.7"></circle></g><g class="key-Kenya_0"><circle cx="118.00" cy="472.00" r="1.78" fill="#5675c1" opacity="0.8" stroke="#fff" stroke-width="0.7"></circle></g><g class="key-Greece_0"><circle cx="79.00" cy="507.00" r="1.78" fill="#ffd336" opacity="0.8" stroke="#fff" stroke-width="0.7"></circle></g><g class="key-Mexico_0"><circle cx="225.00" cy="423.00" r="1.78" fill="#4d824b" opacity="0.8" stroke="#fff" stroke-width="0.7"></circle></g><g class="key-Panama_0"><circle cx="210.00" cy="430.00" r="1.78" fill="#4d824b" opacity="0.8" stroke="#333" stroke-width="0.7"></circle></g><g class="key-Bolivia_0"><circle cx="155.00" cy="486.00" r="1.78" fill="#69c487" opacity="0.8" stroke="#fff" stroke-width="0.7"></circle></g><g class="key-Burkina-Faso_0"><circle cx="77.00" cy="469.00" r="1.78" fill="#5675c1" opacity="0.8" stroke="#333" stroke-width="0.7"></circle></g><g class="key-Indonesia_0"><circle cx="74.00" cy="508.00" r="1.78" fill="#d14e5b" opacity="0.8" stroke="#fff" stroke-width="0.7"></circle></g><g class="key-World_0"><circle cx="120.00" cy="490.00" r="1.78" fill="#000" opacity="0.8" stroke="#fff" stroke-width="0.7"></circle></g><g class="key-Italy_0"><circle cx="77.00" cy="509.00" r="1.78" fill="#ffd336" opacity="0.8" stroke="#fff" stroke-width="0.7"></circle></g><g class="key-Belgium_0"><circle cx="87.00" cy="506.00" r="1.78" fill="#ffd336" opacity="0.8" stroke="#fff" stroke-width="0.7"></circle></g><g class="key-Guyana_0"><circle cx="258.00" cy="436.00" r="1.78" fill="#69c487" opacity="0.8" stroke="#333" stroke-width="0.7"></circle></g><g class="key-Sub__002dSaharan-Africa_0"><circle cx="161.00" cy="483.00" r="1.78" fill="#000" opacity="0.8" stroke="#fff" stroke-width="0.7"></circle></g><g class="key-France_0"><circle cx="81.00" cy="509.00" r="1.78" fill="#ffd336" opacity="0.8" stroke="#fff" stroke-width="0.7"></circle></g><g class="key-Finland_0"><circle cx="85.00" cy="505.00" r="1.78" fill="#ffd336" opacity="0.8" stroke="#fff" stroke-width="0.7"></circle></g><g class="key-Saint-Lucia_0"><circle cx="255.00" cy="434.00" r="1.78" fill="#4d824b" opacity="0.8" stroke="#fff" stroke-width="0.7"></circle></g><g class="key-South-Korea_0"><circle cx="76.00" cy="506.00" r="1.78" fill="#d14e5b" opacity="0.8" stroke="#fff" stroke-width="0.7"></circle></g><g class="key-American-Samoa_0"><circle cx="122.00" cy="491.00" r="1.78" fill="#a652ba" opacity="0.8" stroke="#fff" stroke-width="0.7"></circle></g><g class="key-Trinidad-and-Tobago_0"><circle cx="358.00" cy="406.00" r="1.78" fill="#4d824b" opacity="0.8" stroke="#fff" stroke-width="0.7"></circle></g><g class="key-China_0"><circle cx="76.00" cy="508.00" r="1.78" fill="#d14e5b" opacity="0.8" stroke="#fff" stroke-width="0.7"></circle></g><g class="key-Switzerland_0"><circle cx="74.00" cy="509.00" r="1.78" fill="#ffd336" opacity="0.8" stroke="#fff" stroke-width="0.7"></circle></g><g class="key-Sri-Lanka_0"><circle cx="95.00" cy="497.00" r="1.78" fill="#d14e5b" opacity="0.8" stroke="#fff" stroke-width="0.7"></circle></g><g class="key-Andorra_0"><circle cx="69.00" cy="509.00" r="1.78" fill="#ffd336" opacity="0.8" stroke="#fff" stroke-width="0.7"></circle></g><g class="key-Cuba_0"><circle cx="120.00" cy="487.00" r="1.78" fill="#4d824b" opacity="0.8" stroke="#fff" stroke-width="0.7"></circle></g><g class="key-Bulgaria_0"><circle cx="85.00" cy="502.00" r="1.78" fill="#ffd336" opacity="0.8" stroke="#fff" stroke-width="0.7"></circle></g><g class="key-Croatia_0"><circle cx="78.00" cy="507.00" r="1.78" fill="#ffd336" opacity="0.8" stroke="#fff" stroke-width="0.7"></circle></g><g class="key-Costa-Rica_0"><circle cx="166.00" cy="470.00" r="1.78" fill="#4d824b" opacity="0.8" stroke="#fff" stroke-width="0.7"></circle></g><g class="key-El-Salvador_0"><circle cx="672.00" cy="70.00" r="1.78" fill="#4d824b" opacity="0.8" stroke="#333" stroke-width="0.7"></circle></g><g class="key-Nepal_0"><circle cx="88.00" cy="505.00" r="1.78" fill="#d14e5b" opacity="0.8" stroke="#fff" stroke-width="0.7"></circle></g><g class="key-Palestine_0"><circle cx="77.00" cy="483.00" r="1.78" fill="#d14e5b" opacity="0.8" stroke="#fff" stroke-width="0.7"></circle></g><g class="key-Spain_0"><circle cx="76.00" cy="509.00" r="1.78" fill="#ffd336" opacity="0.8" stroke="#fff" stroke-width="0.7"></circle></g><g class="key-Barbados_0"><circle cx="154.00" cy="466.00" r="1.78" fill="#4d824b" opacity="0.8" stroke="#fff" stroke-width="0.7"></circle></g><g class="key-Kyrgyzstan_0"><circle cx="105.00" cy="492.00" r="1.78" fill="#d14e5b" opacity="0.8" stroke="#fff" stroke-width="0.7"></circle></g><g class="key-Iceland_0"><circle cx="75.00" cy="509.00" r="1.78" fill="#ffd336" opacity="0.8" stroke="#fff" stroke-width="0.7"></circle></g><g class="key-Rwanda_0"><circle cx="106.00" cy="499.00" r="1.78" fill="#5675c1" opacity="0.8" stroke="#fff" stroke-width="0.7"></circle></g><g class="key-Oman_0"><circle cx="76.00" cy="510.00" r="1.78" fill="#d14e5b" opacity="0.8" stroke="#fff" stroke-width="0.7"></circle></g><g class="key-Jamaica_0"><circle cx="408.00" cy="364.00" r="1.78" fill="#4d824b" opacity="0.8" stroke="#fff" stroke-width="0.7"></circle></g><g class="key-Cyprus_0"><circle cx="79.00" cy="505.00" r="1.78" fill="#ffd336" opacity="0.8" stroke="#fff" stroke-width="0.7"></circle></g><g class="key-Seychelles_0"><circle cx="235.00" cy="486.00" r="1.78" fill="#5675c1" opacity="0.8" stroke="#333" stroke-width="0.7"></circle></g><g class="key-Mongolia_0"><circle cx="140.00" cy="475.00" r="1.78" fill="#d14e5b" opacity="0.8" stroke="#fff" stroke-width="0.7"></circle></g><g class="key-Portugal_0"><circle cx="78.00" cy="506.00" r="1.78" fill="#ffd336" opacity="0.8" stroke="#fff" stroke-width="0.7"></circle></g><g class="key-Thailand_0"><circle cx="107.00" cy="487.00" r="1.78" fill="#d14e5b" opacity="0.8" stroke="#fff" stroke-width="0.7"></circle></g><g class="key-Montenegro_0"><circle cx="100.00" cy="497.00" r="1.78" fill="#ffd336" opacity="0.8" stroke="#fff" stroke-width="0.7"></circle></g><g class="key-Macedonia_0"><circle cx="85.00" cy="505.00" r="1.78" fill="#ffd336" opacity="0.8" stroke="#fff" stroke-width="0.7"></circle></g><g class="key-Zambia_0"><circle cx="120.00" cy="487.00" r="1.78" fill="#5675c1" opacity="0.8" stroke="#fff" stroke-width="0.7"></circle></g><g class="key-Malta_0"><circle cx="83.00" cy="507.00" r="1.78" fill="#ffd336" opacity="0.8" stroke="#fff" stroke-width="0.7"></circle></g><g class="key-Bahrain_0"><circle cx="74.00" cy="506.00" r="1.78" fill="#d14e5b" opacity="0.8" stroke="#fff" stroke-width="0.7"></circle></g><g class="key-Norway_0"><circle cx="75.00" cy="509.00" r="1.78" fill="#ffd336" opacity="0.8" stroke="#fff" stroke-width="0.7"></circle></g><g class="key-Lebanon_0"><circle cx="111.00" cy="487.00" r="1.78" fill="#d14e5b" opacity="0.8" stroke="#fff" stroke-width="0.7"></circle></g><g class="key-Netherlands_0"><circle cx="76.00" cy="509.00" r="1.78" fill="#ffd336" opacity="0.8" stroke="#fff" stroke-width="0.7"></circle></g><g class="key-Algeria_0"><circle cx="84.00" cy="507.00" r="1.78" fill="#5675c1" opacity="0.8" stroke="#fff" stroke-width="0.7"></circle></g><g class="key-North-America_0"><circle cx="104.00" cy="490.00" r="1.78" fill="#000" opacity="0.8" stroke="#fff" stroke-width="0.7"></circle></g><g class="key-Armenia_0"><circle cx="93.00" cy="496.00" r="1.78" fill="#d14e5b" opacity="0.8" stroke="#fff" stroke-width="0.7"></circle></g><g class="key-Jordan_0"><circle cx="89.00" cy="501.00" r="1.78" fill="#d14e5b" opacity="0.8" stroke="#fff" stroke-width="0.7"></circle></g><g class="key-Georgia_0"><circle cx="95.00" cy="497.00" r="1.78" fill="#d14e5b" opacity="0.8" stroke="#fff" stroke-width="0.7"></circle></g><g class="key-Moldova_0"><circle cx="100.00" cy="485.00" r="1.78" fill="#ffd336" opacity="0.8" stroke="#fff" stroke-width="0.7"></circle></g><g class="key-Greenland_0"><circle cx="138.00" cy="475.00" r="1.78" fill="#4d824b" opacity="0.8" stroke="#fff" stroke-width="0.7"></circle></g><g class="key-Morocco_0"><circle cx="79.00" cy="507.00" r="1.78" fill="#5675c1" opacity="0.8" stroke="#fff" stroke-width="0.7"></circle></g><g class="key-New-Zealand_0"><circle cx="79.00" cy="507.00" r="1.78" fill="#a652ba" opacity="0.8" stroke="#fff" stroke-width="0.7"></circle></g><g class="key-United-Arab-Emirates_0"><circle cx="76.00" cy="507.00" r="1.78" fill="#d14e5b" opacity="0.8" stroke="#fff" stroke-width="0.7"></circle></g><g class="key-Iran_0"><circle cx="93.00" cy="501.00" r="1.78" fill="#d14e5b" opacity="0.8" stroke="#fff" stroke-width="0.7"></circle></g><g class="key-Czech-Republic_0"><circle cx="77.00" cy="507.00" r="1.78" fill="#ffd336" opacity="0.8" stroke="#fff" stroke-width="0.7"></circle></g><g class="key-Australia_0"><circle cx="79.00" cy="507.00" r="1.78" fill="#a652ba" opacity="0.8" stroke="#fff" stroke-width="0.7"></circle></g><g class="key-Myanmar_0"><circle cx="92.00" cy="505.00" r="1.78" fill="#d14e5b" opacity="0.8" stroke="#fff" stroke-width="0.7"></circle></g><g class="key-Qatar_0"><circle cx="73.00" cy="509.00" r="1.78" fill="#d14e5b" opacity="0.8" stroke="#fff" stroke-width="0.7"></circle></g><g class="key-Hungary_0"><circle cx="84.00" cy="505.00" r="1.78" fill="#ffd336" opacity="0.8" stroke="#fff" stroke-width="0.7"></circle></g><g class="key-Austria_0"><circle cx="74.00" cy="509.00" r="1.78" fill="#ffd336" opacity="0.8" stroke="#fff" stroke-width="0.7"></circle></g><g class="key-Ukraine_0"><circle cx="131.00" cy="477.00" r="1.78" fill="#ffd336" opacity="0.8" stroke="#fff" stroke-width="0.7"></circle></g><g class="key-Bosnia-and-Herzegovina_0"><circle cx="83.00" cy="502.00" r="1.78" fill="#ffd336" opacity="0.8" stroke="#fff" stroke-width="0.7"></circle></g><g class="key-Albania_0"><circle cx="108.00" cy="502.00" r="1.78" fill="#ffd336" opacity="0.8" stroke="#fff" stroke-width="0.7"></circle></g><g class="key-Sweden_0"><circle cx="78.00" cy="507.00" r="1.78" fill="#ffd336" opacity="0.8" stroke="#fff" stroke-width="0.7"></circle></g><g class="key-Canada_0"><circle cx="83.00" cy="505.00" r="1.78" fill="#4d824b" opacity="0.8" stroke="#fff" stroke-width="0.7"></circle></g><g class="key-United-States_0"><circle cx="112.00" cy="489.00" r="1.78" fill="#4d824b" opacity="0.8" stroke="#fff" stroke-width="0.7"></circle></g><g class="key-Paraguay_0"><circle cx="154.00" cy="462.00" r="1.78" fill="#69c487" opacity="0.8" stroke="#fff" stroke-width="0.7"></circle></g><g class="key-Latvia_0"><circle cx="100.00" cy="482.00" r="1.78" fill="#ffd336" opacity="0.8" stroke="#fff" stroke-width="0.7"></circle></g><g class="key-India_0"><circle cx="105.00" cy="499.00" r="1.78" fill="#d14e5b" opacity="0.8" stroke="#fff" stroke-width="0.7"></circle></g><g class="key-Grenada_0"><circle cx="142.00" cy="491.00" r="1.78" fill="#4d824b" opacity="0.8" stroke="#fff" stroke-width="0.7"></circle></g><g class="key-Philippines_0"><circle cx="163.00" cy="451.00" r="1.78" fill="#d14e5b" opacity="0.8" stroke="#fff" stroke-width="0.7"></circle></g><g class="key-Lithuania_0"><circle cx="121.00" cy="486.00" r="1.78" fill="#ffd336" opacity="0.8" stroke="#fff" stroke-width="0.7"></circle></g><g class="key-Azerbaijan_0"><circle cx="93.00" cy="497.00" r="1.78" fill="#d14e5b" opacity="0.8" stroke="#fff" stroke-width="0.7"></circle></g><g class="key-Bermuda_0"><circle cx="131.00" cy="499.00" r="1.78" fill="#4d824b" opacity="0.8" stroke="#fff" stroke-width="0.7"></circle></g><g class="key-South-Africa_0"><circle cx="384.00" cy="395.00" r="1.78" fill="#5675c1" opacity="0.8" stroke="#fff" stroke-width="0.7"></circle></g><g class="key-Singapore_0"><circle cx="72.00" cy="510.00" r="1.78" fill="#d14e5b" opacity="0.8" stroke="#fff" stroke-width="0.7"></circle></g><g fill="#333" class="backgroundLabels"><text x="82.00" y="506.22" font-size="11.00">Denmark</text><text x="104.00" y="478.22" font-size="11.00">Belarus</text><text x="407.00" y="399.22" font-size="11.00">Belize</text><text x="180.00" y="491.22" font-size="11.00">Uganda</text><text x="614.75" y="302.22" font-size="11.00">Venezuela</text><text x="339.00" y="380.22" font-size="11.00">Brazil</text><text x="237.00" y="414.22" font-size="11.00">Dominican Republic</text><text x="104.00" y="490.22" font-size="11.00">Chile</text><text x="149.00" y="449.22" font-size="11.00">Ecuador</text><text x="134.00" y="494.22" font-size="11.00">Peru</text><text x="372.00" y="367.22" font-size="11.00">Guatemala</text><text x="154.00" y="474.22" font-size="11.00">Nicaragua</text><text x="667.15" y="105.22" font-size="11.00">Honduras</text><text x="210.00" y="427.22" font-size="11.00">Panama</text><text x="77.00" y="466.22" font-size="11.00">Burkina Faso</text><text x="258.00" y="433.22" font-size="11.00">Guyana</text><text x="615.57" y="81.00" font-size="11.00">El Salvador</text><text x="235.00" y="483.22" font-size="11.00">Seychelles</text></g></g><g style="cursor: pointer;" class="ScatterColorLegend clickable"><g class="legendMark"><rect x="735" y="67.5" width="43.256" height="17.6" fill="#fff" opacity="0"></rect>,<rect x="735" y="73" width="6" height="6" fill="#5675c1"></rect>,<text font-size="12.60" x="746.0" y="80.1"><tspan x="746" y="80.08">Africa</tspan></text></g><g class="legendMark"><rect x="735" y="85.1" width="35.57" height="17.6" fill="#fff" opacity="0"></rect>,<rect x="735" y="90.6" width="6" height="6" fill="#d14e5b"></rect>,<text font-size="12.60" x="746.0" y="97.7"><tspan x="746" y="97.67999999999999">Asia</tspan></text></g><g class="legendMark"><rect x="735" y="102.7" width="51.824" height="17.6" fill="#fff" opacity="0"></rect>,<rect x="735" y="108.2" width="6" height="6" fill="#ffd336"></rect>,<text font-size="12.60" x="746.0" y="115.3"><tspan x="746" y="115.28">Europe</tspan></text></g><g class="legendMark"><rect x="735" y="120.30000000000001" width="91.64" height="17.6" fill="#fff" opacity="0"></rect>,<rect x="735" y="125.80000000000001" width="6" height="6" fill="#4d824b"></rect>,<text font-size="12.60" x="746.0" y="132.9"><tspan x="746" y="132.88">North America</tspan></text></g><g class="legendMark"><rect x="735" y="137.9" width="58.124" height="17.6" fill="#fff" opacity="0"></rect>,<rect x="735" y="143.4" width="6" height="6" fill="#a652ba"></rect>,<text font-size="12.60" x="746.0" y="150.5"><tspan x="746" y="150.48">Oceania</tspan></text></g><g class="legendMark"><rect x="735" y="155.5" width="93.908" height="17.6" fill="#fff" opacity="0"></rect>,<rect x="735" y="161" width="6" height="6" fill="#69c487"></rect>,<text font-size="12.60" x="746.0" y="168.1"><tspan x="746" y="168.07999999999998">South America</tspan></text></g></g></g><g style="fill: #777;" class="SourcesFooter"><g style="fill: #777;" class="clickable"><text font-size="12.60" x="15.0" y="581.6"><tspan x="15" y="581.58">Source: IHME, World Bank – WDI</tspan></text></g><text font-size="12.60" x="775.4" y="581.6"><tspan x="775.402" y="581.58"><a style="fill: #777;" class="cclogo" href="http://creativecommons.org/licenses/by-sa/4.0/deed.en_US" target="_blank">CC BY-SA</a></tspan></text></g></g></svg>