<svg xmlns="http://www.w3.org/2000/svg" version="1.1" style="font-family: 'Helvetica Neue', Helvetica, Arial, sans-serif; font-size: 18px; background-color: white; text-rendering: optimizeLegibility; -webkit-font-smoothing: antialiased;" width="850" height="600"><g class="ChartTab"><g class="HeaderView"><g opacity="0.8" transform="translate(778, 15) scale(0.27)"><a xmlns:xlink="http://www.w3.org/1999/xlink" xlink:href="https://ourworldindata.org" target="_blank"><g><rect x="0" y="0" fill="#1B2543" width="211.2" height="130.1"/><rect x="0" y="112.2" fill="#E63912" width="211.2" height="17.9"/><g><rect x="1.2" y="12.3" fill="none" width="210.2" height="99.2"/><path fill="#FFFFFF" d="M37.8,32.2c0,12.7-7.7,19.4-17.1,19.4c-9.7,0-16.6-7.5-16.6-18.7c0-11.7,7.3-19.3,17.1-19.3 C31.3,13.7,37.8,21.3,37.8,32.2z M9.2,32.8c0,7.9,4.3,14.9,11.8,14.9c7.5,0,11.8-6.9,11.8-15.3c0-7.3-3.8-14.9-11.8-14.9 C13.1,17.5,9.2,24.8,9.2,32.8z"/><path fill="#FFFFFF" d="M62.7,43.8c0,2.7,0.1,5.1,0.2,7.2h-4.3l-0.3-4.3h-0.1c-1.3,2.1-4,4.9-8.8,4.9c-4.2,0-9.1-2.3-9.1-11.6 V24.6h4.8v14.6c0,5,1.5,8.4,5.9,8.4c3.2,0,5.5-2.2,6.3-4.4c0.3-0.7,0.4-1.6,0.4-2.5V24.6h4.8V43.8z"/><path fill="#FFFFFF" d="M67.3,32.8c0-3.1-0.1-5.8-0.2-8.2h4.2l0.2,5.2h0.2c1.2-3.5,4.1-5.8,7.3-5.8c0.5,0,0.9,0.1,1.4,0.2v4.5 c-0.5-0.1-1-0.2-1.6-0.2c-3.4,0-5.8,2.6-6.5,6.2c-0.1,0.7-0.2,1.4-0.2,2.2V51h-4.8V32.8z"/><path fill="#FFFFFF" d="M95.4,51l-9.4-36.8h5l4.4,18.6c1.1,4.6,2.1,9.2,2.7,12.7h0.1c0.6-3.7,1.8-8,3-12.8l4.9-18.5h5l4.5,18.7 c1,4.4,2,8.7,2.6,12.6h0.1c0.8-4,1.8-8.1,3-12.7l4.9-18.5h4.9L120.6,51h-5L111,31.9c-1.1-4.7-1.9-8.3-2.4-12h-0.1 c-0.7,3.7-1.5,7.3-2.8,12L100.4,51H95.4z"/><path fill="#FFFFFF" d="M154.9,37.6c0,9.8-6.8,14-13.2,14c-7.2,0-12.7-5.2-12.7-13.6c0-8.8,5.8-14,13.1-14 C149.8,24,154.9,29.5,154.9,37.6z M133.9,37.9c0,5.8,3.3,10.1,8,10.1c4.6,0,8-4.3,8-10.3c0-4.5-2.2-10.1-7.9-10.1 C136.3,27.6,133.9,32.8,133.9,37.9z"/><path fill="#FFFFFF" d="M158.2,32.8c0-3.1-0.1-5.8-0.2-8.2h4.2l0.2,5.2h0.2c1.2-3.5,4.1-5.8,7.3-5.8c0.5,0,0.9,0.1,1.4,0.2v4.5 c-0.5-0.1-1-0.2-1.6-0.2c-3.4,0-5.8,2.6-6.5,6.2c-0.1,0.7-0.2,1.4-0.2,2.2V51h-4.8V32.8z"/><path fill="#FFFFFF" d="M173.5,12.3h4.8V51h-4.8V12.3z"/><path fill="#FFFFFF" d="M206.5,12.3v31.9c0,2.3,0.1,5,0.2,6.8h-4.3l-0.2-4.6H202c-1.5,2.9-4.7,5.2-9,5.2 c-6.4,0-11.3-5.4-11.3-13.4c-0.1-8.8,5.4-14.2,11.9-14.2c4,0,6.8,1.9,8,4h0.1V12.3H206.5z M201.7,35.4c0-0.6-0.1-1.4-0.2-2 c-0.7-3.1-3.3-5.6-6.9-5.6c-5,0-7.9,4.4-7.9,10.2c0,5.3,2.6,9.8,7.8,9.8c3.2,0,6.2-2.1,7.1-5.7c0.2-0.7,0.2-1.3,0.2-2.1V35.4z"/><path fill="#FFFFFF" d="M42.8,64c0.1,1.6-1.1,2.9-3.1,2.9c-1.7,0-2.9-1.3-2.9-2.9c0-1.7,1.3-3,3-3C41.7,61,42.8,62.3,42.8,64z M37.4,97.8V71.4h4.8v26.4H37.4z"/><path fill="#FFFFFF" d="M47.5,78.6c0-2.7-0.1-5-0.2-7.1h4.3l0.3,4.4h0.1c1.3-2.5,4.4-5,8.8-5c3.7,0,9.4,2.2,9.4,11.2v15.8h-4.8 V82.6c0-4.3-1.6-7.8-6.1-7.8c-3.2,0-5.6,2.2-6.5,4.9c-0.2,0.6-0.3,1.4-0.3,2.2v15.9h-4.8V78.6z"/><path fill="#FFFFFF" d="M84,61.6c2.9-0.4,6.3-0.8,10.1-0.8c6.8,0,11.7,1.6,14.9,4.6c3.3,3,5.2,7.3,5.2,13.2c0,6-1.9,10.9-5.3,14.3 c-3.4,3.4-9.1,5.3-16.3,5.3c-3.4,0-6.2-0.2-8.6-0.4V61.6z M88.8,94.1c1.2,0.2,3,0.3,4.8,0.3c10.2,0,15.7-5.7,15.7-15.6 c0.1-8.7-4.9-14.2-14.9-14.2c-2.5,0-4.3,0.2-5.6,0.5V94.1z"/><path fill="#FFFFFF" d="M132.1,97.8l-0.4-3.3h-0.2c-1.5,2.1-4.3,3.9-8.1,3.9c-5.4,0-8.1-3.8-8.1-7.6c0-6.4,5.7-9.9,15.9-9.8v-0.5 c0-2.2-0.6-6.1-6-6.1c-2.5,0-5,0.8-6.9,2l-1.1-3.2c2.2-1.4,5.4-2.3,8.7-2.3c8.1,0,10.1,5.5,10.1,10.8v9.9c0,2.3,0.1,4.5,0.4,6.3 H132.1z M131.4,84.4c-5.3-0.1-11.2,0.8-11.2,5.9c0,3.1,2.1,4.6,4.5,4.6c3.4,0,5.6-2.2,6.4-4.4c0.2-0.5,0.3-1,0.3-1.5V84.4z"/><path fill="#FFFFFF" d="M146.6,63.9v7.6h6.9v3.7h-6.9v14.2c0,3.3,0.9,5.1,3.6,5.1c1.3,0,2.2-0.2,2.8-0.3l0.2,3.6 c-0.9,0.4-2.4,0.7-4.3,0.7c-2.2,0-4-0.7-5.2-2c-1.4-1.4-1.9-3.8-1.9-6.9V75.1h-4.1v-3.7h4.1v-6.3L146.6,63.9z"/><path fill="#FFFFFF" d="M171.4,97.8l-0.4-3.3h-0.2c-1.5,2.1-4.3,3.9-8.1,3.9c-5.4,0-8.1-3.8-8.1-7.6c0-6.4,5.7-9.9,15.9-9.8v-0.5 c0-2.2-0.6-6.1-6-6.1c-2.5,0-5,0.8-6.9,2l-1.1-3.2c2.2-1.4,5.4-2.3,8.7-2.3c8.1,0,10.1,5.5,10.1,10.8v9.9c0,2.3,0.1,4.5,0.4,6.3 H171.4z M170.7,84.4c-5.3-0.1-11.2,0.8-11.2,5.9c0,3.1,2.1,4.6,4.5,4.6c3.4,0,5.6-2.2,6.4-4.4c0.2-0.5,0.3-1,0.3-1.5V84.4z"/></g></g></a></g><a href="https://ourworldindata.org/grapher/literacy-rate" target="_blank"><text font-size="25.20" x="15.0" y="35.2" fill="#555"><tspan x="15" y="35.160000000000004">Literacy rates</tspan></text></a><text font-size="14.40" x="15.0" y="53.7" fill="#666"><tspan x="15" y="53.72">The literacy rate illustrates the total share of men and women in the population, aged 15 and over, who are literate</tspan><tspan x="15" y="69.56">(i.e. who can read and write). However, there is no commonly agreed definition of what this constitutes, differing</tspan><tspan x="15" y="85.4">country-to-country.</tspan></text></g><g class="LineChart"><defs><clipPath id="boundsClip-497"><rect x="51.634" y="0" width="830" height="897.8"></rect></clipPath></defs><g class="AxisBoxView"><g class="HorizontalAxis"><text x="61.6" y="556.5" fill="#666" text-anchor="middle" font-size="16.2">1979</text><text x="171.3" y="556.5" fill="#666" text-anchor="middle" font-size="16.2">1985</text><text x="262.6" y="556.5" fill="#666" text-anchor="middle" font-size="16.2">1990</text><text x="354" y="556.5" fill="#666" text-anchor="middle" font-size="16.2">1995</text><text x="445.3" y="556.5" fill="#666" text-anchor="middle" font-size="16.2">2000</text><text x="536.7" y="556.5" fill="#666" text-anchor="middle" font-size="16.2">2005</text><text x="628" y="556.5" fill="#666" text-anchor="middle" font-size="16.2">2010</text><text x="737.6" y="556.5" fill="#666" text-anchor="middle" font-size="16.2">2016</text></g><g class="VerticalAxis"><text x="56.63" y="535.3" fill="#666" dominant-baseline="middle" text-anchor="end" font-size="16.2">0%</text><text x="56.63" y="449.8" fill="#666" dominant-baseline="middle" text-anchor="end" font-size="16.2">20%</text><text x="56.63" y="364.2" fill="#666" dominant-baseline="middle" text-anchor="end" font-size="16.2">40%</text><text x="56.63" y="278.7" fill="#666" dominant-baseline="middle" text-anchor="end" font-size="16.2">60%</text><text x="56.63" y="193.1" fill="#666" dominant-baseline="middle" text-anchor="end" font-size="16.2">80%</text><text x="56.63" y="107.6" fill="#666" dominant-baseline="middle" text-anchor="end" font-size="16.2">100%</text></g><g class="AxisGridLines"><line x1="61.63" y1="535.3" x2="737.63" y2="535.3" stroke="#ccc"></line><line x1="61.63" y1="449.8" x2="737.63" y2="449.8" stroke="#ddd" stroke-dasharray="3,2"></line><line x1="61.63" y1="364.2" x2="737.63" y2="364.2" stroke="#ddd" stroke-dasharray="3,2"></line><line x1="61.63" y1="278.7" x2="737.63" y2="278.7" stroke="#ddd" stroke-dasharray="3,2"></line><line x1="61.63" y1="193.1" x2="737.63" y2="193.1" stroke="#ddd" stroke-dasharray="3,2"></line><line x1="61.63" y1="107.6" x2="737.63" y2="107.6" stroke="#ddd" stroke-dasharray="3,2"></line></g></g><g clip-path="url(#boundsClip-497)"><g class="HeightedLegend clickable"><g class="legendMark"><g class="indicator"><line x1="742.63" y1="112.5" x2="763.7014285714286" y2="112.5" stroke="#666" stroke-width="0.5"></line><line x1="763.7014285714286" y1="112.5" x2="763.7014285714286" y2="112.5" stroke="#666" stroke-width="0.5"></line><line x1="763.7014285714286" y1="112.5" x2="767.63" y2="112.5" stroke="#666" stroke-width="0.5"></line></g><rect x="737.63" y="105.75" width="59.84" height="13.5" fill="#fff" opacity="0"></rect><text font-size="13.50" x="772.6" y="116.5" fill="#ffd53e"><tspan x="772.63" y="116.55">Italy</tspan></text></g><g class="legendMark"><g class="indicator"><line x1="742.63" y1="115.1" x2="760.8442857142857" y2="115.1" stroke="#666" stroke-width="0.5"></line><line x1="760.8442857142857" y1="115.1" x2="760.8442857142857" y2="128" stroke="#666" stroke-width="0.5"></line><line x1="760.8442857142857" y1="128" x2="767.63" y2="128" stroke="#666" stroke-width="0.5"></line></g><rect x="737.63" y="121.25" width="69.695" height="13.5" fill="#fff" opacity="0"></rect><text font-size="13.50" x="772.6" y="132.1" fill="#9ecc8a"><tspan x="772.63" y="132.05">Spain</tspan></text></g><g class="legendMark"><g class="indicator"><line x1="742.63" y1="116.6" x2="757.9871428571429" y2="116.6" stroke="#666" stroke-width="0.5"></line><line x1="757.9871428571429" y1="116.6" x2="757.9871428571429" y2="143.5" stroke="#666" stroke-width="0.5"></line><line x1="757.9871428571429" y1="143.5" x2="767.63" y2="143.5" stroke="#666" stroke-width="0.5"></line></g><rect x="737.63" y="136.75" width="76.445" height="13.5" fill="#fff" opacity="0"></rect><text font-size="13.50" x="772.6" y="147.6" fill="#e6332e"><tspan x="772.63" y="147.55">Jordan</tspan></text></g><g class="legendMark"><g class="indicator"><line x1="742.63" y1="127.4" x2="755.13" y2="127.4" stroke="#666" stroke-width="0.5"></line><line x1="755.13" y1="127.4" x2="755.13" y2="159" stroke="#666" stroke-width="0.5"></line><line x1="755.13" y1="159" x2="767.63" y2="159" stroke="#666" stroke-width="0.5"></line></g><rect x="737.63" y="152.25" width="93.86000000000001" height="13.5" fill="#fff" opacity="0"></rect><text font-size="13.50" x="772.6" y="163.1" fill="#2a939b"><tspan x="772.63" y="163.05">Indonesia</tspan></text></g><g class="legendMark"><g class="indicator"><line x1="742.63" y1="131.8" x2="752.2728571428571" y2="131.8" stroke="#666" stroke-width="0.5"></line><line x1="752.2728571428571" y1="131.8" x2="752.2728571428571" y2="174.5" stroke="#666" stroke-width="0.5"></line><line x1="752.2728571428571" y1="174.5" x2="767.63" y2="174.5" stroke="#666" stroke-width="0.5"></line></g><rect x="737.63" y="167.75" width="85.49000000000001" height="13.5" fill="#fff" opacity="0"></rect><text font-size="13.50" x="772.6" y="178.6" fill="#a652ba"><tspan x="772.63" y="178.55">Ecuador</tspan></text></g><g class="legendMark"><g class="indicator"><line x1="742.63" y1="143" x2="749.4157142857143" y2="143" stroke="#666" stroke-width="0.5"></line><line x1="749.4157142857143" y1="143" x2="749.4157142857143" y2="190" stroke="#666" stroke-width="0.5"></line><line x1="749.4157142857143" y1="190" x2="767.63" y2="190" stroke="#666" stroke-width="0.5"></line></g><rect x="737.63" y="183.25" width="68.75" height="13.5" fill="#fff" opacity="0"></rect><text font-size="13.50" x="772.6" y="194.1" fill="#f6a324"><tspan x="772.63" y="194.05">Brazil</tspan></text></g><g class="legendMark"><g class="indicator"><line x1="742.63" y1="156" x2="746.5585714285714" y2="156" stroke="#666" stroke-width="0.5"></line><line x1="746.5585714285714" y1="156" x2="746.5585714285714" y2="205.5" stroke="#666" stroke-width="0.5"></line><line x1="746.5585714285714" y1="205.5" x2="767.63" y2="205.5" stroke="#666" stroke-width="0.5"></line></g><rect x="737.63" y="198.75" width="97.37" height="13.5" fill="#fff" opacity="0"></rect><text font-size="13.50" x="772.6" y="209.6" fill="#34983f"><tspan x="772.63" y="209.55">Zimbabwe</tspan></text></g><g class="legendMark"><g class="indicator"><line x1="742.63" y1="238.9" x2="755.13" y2="238.9" stroke="#666" stroke-width="0.5"></line><line x1="755.13" y1="238.9" x2="755.13" y2="238.9" stroke="#666" stroke-width="0.5"></line><line x1="755.13" y1="238.9" x2="767.63" y2="238.9" stroke="#666" stroke-width="0.5"></line></g><rect x="737.63" y="232.15" width="64.43" height="13.5" fill="#fff" opacity="0"></rect><text font-size="13.50" x="772.6" y="243.0" fill="#ca2628"><tspan x="772.63" y="242.95000000000002">India</tspan></text></g><g class="legendMark"><g class="indicator"><line x1="742.63" y1="368.5" x2="755.13" y2="368.5" stroke="#666" stroke-width="0.5"></line><line x1="755.13" y1="368.5" x2="755.13" y2="368.5" stroke="#666" stroke-width="0.5"></line><line x1="755.13" y1="368.5" x2="767.63" y2="368.5" stroke="#666" stroke-width="0.5"></line></g><rect x="737.63" y="361.75" width="84.005" height="13.5" fill="#fff" opacity="0"></rect><text font-size="13.50" x="772.6" y="372.6" fill="#3360a9"><tspan x="772.63" y="372.55">Ethiopia</tspan></text></g></g><g class="Lines"><rect x="62" y="108" width="676" height="428" fill="rgba(255,255,255,0)" opacity="0"></rect><g class="key-Spain_0"><path stroke="#9ecc8a" stroke-linecap="round" d="M98 138L281 123L518 120L537 117L573 116L592 118L610 118L628 117L646 117L665 117L683 116L701 116L719 116L738 115" fill="none" stroke-width="1.5"></path><g fill="#9ecc8a"><circle cx="98" cy="138" r="2"></circle><circle cx="281" cy="123" r="2"></circle><circle cx="518" cy="120" r="2"></circle><circle cx="537" cy="117" r="2"></circle><circle cx="573" cy="116" r="2"></circle><circle cx="592" cy="118" r="2"></circle><circle cx="610" cy="118" r="2"></circle><circle cx="628" cy="117" r="2"></circle><circle cx="646" cy="117" r="2"></circle><circle cx="665" cy="117" r="2"></circle><circle cx="683" cy="116" r="2"></circle><circle cx="701" cy="116" r="2"></circle><circle cx="719" cy="116" r="2"></circle><circle cx="738" cy="115" r="2"></circle></g></g><g class="key-Brazil_0"><path stroke="#f6a324" stroke-linecap="round" d="M80 216L445 166L518 156L555 152L573 150L592 150L610 149L628 149L646 144L665 145L683 144L701 143" fill="none" stroke-width="1.5"></path><g fill="#f6a324"><circle cx="80" cy="216" r="2"></circle><circle cx="445" cy="166" r="2"></circle><circle cx="518" cy="156" r="2"></circle><circle cx="555" cy="152" r="2"></circle><circle cx="573" cy="150" r="2"></circle><circle cx="592" cy="150" r="2"></circle><circle cx="610" cy="149" r="2"></circle><circle cx="628" cy="149" r="2"></circle><circle cx="646" cy="144" r="2"></circle><circle cx="665" cy="145" r="2"></circle><circle cx="683" cy="144" r="2"></circle><circle cx="701" cy="143" r="2"></circle></g></g><g class="key-Ethiopia_0"><path stroke="#3360a9" stroke-linecap="round" d="M336 420L518 382L537 408L573 369" fill="none" stroke-width="1.5"></path><g fill="#3360a9"><circle cx="336" cy="420" r="2"></circle><circle cx="518" cy="382" r="2"></circle><circle cx="537" cy="408" r="2"></circle><circle cx="573" cy="369" r="2"></circle></g></g><g class="key-Jordan_0"><path stroke="#e6332e" stroke-linecap="round" d="M62 250L500 151L537 146L573 141L628 140L646 125L665 117" fill="none" stroke-width="1.5"></path><g fill="#e6332e"><circle cx="62" cy="250" r="2"></circle><circle cx="500" cy="151" r="2"></circle><circle cx="537" cy="146" r="2"></circle><circle cx="573" cy="141" r="2"></circle><circle cx="628" cy="140" r="2"></circle><circle cx="646" cy="125" r="2"></circle><circle cx="665" cy="117" r="2"></circle></g></g><g class="key-Italy_0"><path stroke="#ffd53e" stroke-linecap="round" d="M98 123L464 114L646 113" fill="none" stroke-width="1.5"></path><g fill="#ffd53e"><circle cx="98" cy="123" r="2"></circle><circle cx="464" cy="114" r="2"></circle><circle cx="646" cy="113" r="2"></circle></g></g><g class="key-India_0"><path stroke="#ca2628" stroke-linecap="round" d="M98 361L281 329L464 274L555 267L646 239" fill="none" stroke-width="1.5"></path><g fill="#ca2628"><circle cx="98" cy="361" r="2"></circle><circle cx="281" cy="329" r="2"></circle><circle cx="464" cy="274" r="2"></circle><circle cx="555" cy="267" r="2"></circle><circle cx="646" cy="239" r="2"></circle></g></g><g class="key-Zimbabwe_0"><path stroke="#34983f" stroke-linecap="round" d="M116 203L299 178L646 178L701 156" fill="none" stroke-width="1.5"></path><g fill="#34983f"><circle cx="116" cy="203" r="2"></circle><circle cx="299" cy="178" r="2"></circle><circle cx="646" cy="178" r="2"></circle><circle cx="701" cy="156" r="2"></circle></g></g><g class="key-Indonesia_0"><path stroke="#2a939b" stroke-linecap="round" d="M80 247L263 187L518 149L555 142L592 141L610 139L646 138L701 129L719 128L738 127" fill="none" stroke-width="1.5"></path><g fill="#2a939b"><circle cx="80" cy="247" r="2"></circle><circle cx="263" cy="187" r="2"></circle><circle cx="518" cy="149" r="2"></circle><circle cx="555" cy="142" r="2"></circle><circle cx="592" cy="141" r="2"></circle><circle cx="610" cy="139" r="2"></circle><circle cx="646" cy="138" r="2"></circle><circle cx="701" cy="129" r="2"></circle><circle cx="719" cy="128" r="2"></circle><circle cx="738" cy="127" r="2"></circle></g></g><g class="key-Ecuador_0"><path stroke="#a652ba" stroke-linecap="round" d="M116 178L263 158L464 146L573 175L610 175L628 142L646 144L665 142L683 136L701 132L719 131L738 132" fill="none" stroke-width="1.5"></path><g fill="#a652ba"><circle cx="116" cy="178" r="2"></circle><circle cx="263" cy="158" r="2"></circle><circle cx="464" cy="146" r="2"></circle><circle cx="573" cy="175" r="2"></circle><circle cx="610" cy="175" r="2"></circle><circle cx="628" cy="142" r="2"></circle><circle cx="646" cy="144" r="2"></circle><circle cx="665" cy="142" r="2"></circle><circle cx="683" cy="136" r="2"></circle><circle cx="701" cy="132" r="2"></circle><circle cx="719" cy="131" r="2"></circle><circle cx="738" cy="132" r="2"></circle></g></g></g></g></g><g style="fill: #777;" class="SourcesFooter"><g style="fill: #777;" class="clickable"><text font-size="12.60" x="15.0" y="581.6"><tspan x="15" y="581.58">Source: World Bank</tspan></text></g><text font-size="12.60" x="775.4" y="581.6"><tspan x="775.402" y="581.58"><a style="fill: #777;" class="cclogo" href="http://creativecommons.org/licenses/by-sa/4.0/deed.en_US" target="_blank">CC BY-SA</a></tspan></text></g></g></svg>