<svg xmlns="http://www.w3.org/2000/svg" version="1.1" style="font-family: 'Helvetica Neue', Helvetica, Arial, sans-serif; font-size: 18px; background-color: white; text-rendering: optimizeLegibility; -webkit-font-smoothing: antialiased;" width="850" height="600"><g class="ChartTab"><g class="HeaderView"><g opacity="0.8" transform="translate(778, 15) scale(0.27)"><a xmlns:xlink="http://www.w3.org/1999/xlink" xlink:href="https://ourworldindata.org" target="_blank"><g><rect x="0" y="0" fill="#1B2543" width="211.2" height="130.1"/><rect x="0" y="112.2" fill="#E63912" width="211.2" height="17.9"/><g><rect x="1.2" y="12.3" fill="none" width="210.2" height="99.2"/><path fill="#FFFFFF" d="M37.8,32.2c0,12.7-7.7,19.4-17.1,19.4c-9.7,0-16.6-7.5-16.6-18.7c0-11.7,7.3-19.3,17.1-19.3 C31.3,13.7,37.8,21.3,37.8,32.2z M9.2,32.8c0,7.9,4.3,14.9,11.8,14.9c7.5,0,11.8-6.9,11.8-15.3c0-7.3-3.8-14.9-11.8-14.9 C13.1,17.5,9.2,24.8,9.2,32.8z"/><path fill="#FFFFFF" d="M62.7,43.8c0,2.7,0.1,5.1,0.2,7.2h-4.3l-0.3-4.3h-0.1c-1.3,2.1-4,4.9-8.8,4.9c-4.2,0-9.1-2.3-9.1-11.6 V24.6h4.8v14.6c0,5,1.5,8.4,5.9,8.4c3.2,0,5.5-2.2,6.3-4.4c0.3-0.7,0.4-1.6,0.4-2.5V24.6h4.8V43.8z"/><path fill="#FFFFFF" d="M67.3,32.8c0-3.1-0.1-5.8-0.2-8.2h4.2l0.2,5.2h0.2c1.2-3.5,4.1-5.8,7.3-5.8c0.5,0,0.9,0.1,1.4,0.2v4.5 c-0.5-0.1-1-0.2-1.6-0.2c-3.4,0-5.8,2.6-6.5,6.2c-0.1,0.7-0.2,1.4-0.2,2.2V51h-4.8V32.8z"/><path fill="#FFFFFF" d="M95.4,51l-9.4-36.8h5l4.4,18.6c1.1,4.6,2.1,9.2,2.7,12.7h0.1c0.6-3.7,1.8-8,3-12.8l4.9-18.5h5l4.5,18.7 c1,4.4,2,8.7,2.6,12.6h0.1c0.8-4,1.8-8.1,3-12.7l4.9-18.5h4.9L120.6,51h-5L111,31.9c-1.1-4.7-1.9-8.3-2.4-12h-0.1 c-0.7,3.7-1.5,7.3-2.8,12L100.4,51H95.4z"/><path fill="#FFFFFF" d="M154.9,37.6c0,9.8-6.8,14-13.2,14c-7.2,0-12.7-5.2-12.7-13.6c0-8.8,5.8-14,13.1-14 C149.8,24,154.9,29.5,154.9,37.6z M133.9,37.9c0,5.8,3.3,10.1,8,10.1c4.6,0,8-4.3,8-10.3c0-4.5-2.2-10.1-7.9-10.1 C136.3,27.6,133.9,32.8,133.9,37.9z"/><path fill="#FFFFFF" d="M158.2,32.8c0-3.1-0.1-5.8-0.2-8.2h4.2l0.2,5.2h0.2c1.2-3.5,4.1-5.8,7.3-5.8c0.5,0,0.9,0.1,1.4,0.2v4.5 c-0.5-0.1-1-0.2-1.6-0.2c-3.4,0-5.8,2.6-6.5,6.2c-0.1,0.7-0.2,1.4-0.2,2.2V51h-4.8V32.8z"/><path fill="#FFFFFF" d="M173.5,12.3h4.8V51h-4.8V12.3z"/><path fill="#FFFFFF" d="M206.5,12.3v31.9c0,2.3,0.1,5,0.2,6.8h-4.3l-0.2-4.6H202c-1.5,2.9-4.7,5.2-9,5.2 c-6.4,0-11.3-5.4-11.3-13.4c-0.1-8.8,5.4-14.2,11.9-14.2c4,0,6.8,1.9,8,4h0.1V12.3H206.5z M201.7,35.4c0-0.6-0.1-1.4-0.2-2 c-0.7-3.1-3.3-5.6-6.9-5.6c-5,0-7.9,4.4-7.9,10.2c0,5.3,2.6,9.8,7.8,9.8c3.2,0,6.2-2.1,7.1-5.7c0.2-0.7,0.2-1.3,0.2-2.1V35.4z"/><path fill="#FFFFFF" d="M42.8,64c0.1,1.6-1.1,2.9-3.1,2.9c-1.7,0-2.9-1.3-2.9-2.9c0-1.7,1.3-3,3-3C41.7,61,42.8,62.3,42.8,64z M37.4,97.8V71.4h4.8v26.4H37.4z"/><path fill="#FFFFFF" d="M47.5,78.6c0-2.7-0.1-5-0.2-7.1h4.3l0.3,4.4h0.1c1.3-2.5,4.4-5,8.8-5c3.7,0,9.4,2.2,9.4,11.2v15.8h-4.8 V82.6c0-4.3-1.6-7.8-6.1-7.8c-3.2,0-5.6,2.2-6.5,4.9c-0.2,0.6-0.3,1.4-0.3,2.2v15.9h-4.8V78.6z"/><path fill="#FFFFFF" d="M84,61.6c2.9-0.4,6.3-0.8,10.1-0.8c6.8,0,11.7,1.6,14.9,4.6c3.3,3,5.2,7.3,5.2,13.2c0,6-1.9,10.9-5.3,14.3 c-3.4,3.4-9.1,5.3-16.3,5.3c-3.4,0-6.2-0.2-8.6-0.4V61.6z M88.8,94.1c1.2,0.2,3,0.3,4.8,0.3c10.2,0,15.7-5.7,15.7-15.6 c0.1-8.7-4.9-14.2-14.9-14.2c-2.5,0-4.3,0.2-5.6,0.5V94.1z"/><path fill="#FFFFFF" d="M132.1,97.8l-0.4-3.3h-0.2c-1.5,2.1-4.3,3.9-8.1,3.9c-5.4,0-8.1-3.8-8.1-7.6c0-6.4,5.7-9.9,15.9-9.8v-0.5 c0-2.2-0.6-6.1-6-6.1c-2.5,0-5,0.8-6.9,2l-1.1-3.2c2.2-1.4,5.4-2.3,8.7-2.3c8.1,0,10.1,5.5,10.1,10.8v9.9c0,2.3,0.1,4.5,0.4,6.3 H132.1z M131.4,84.4c-5.3-0.1-11.2,0.8-11.2,5.9c0,3.1,2.1,4.6,4.5,4.6c3.4,0,5.6-2.2,6.4-4.4c0.2-0.5,0.3-1,0.3-1.5V84.4z"/><path fill="#FFFFFF" d="M146.6,63.9v7.6h6.9v3.7h-6.9v14.2c0,3.3,0.9,5.1,3.6,5.1c1.3,0,2.2-0.2,2.8-0.3l0.2,3.6 c-0.9,0.4-2.4,0.7-4.3,0.7c-2.2,0-4-0.7-5.2-2c-1.4-1.4-1.9-3.8-1.9-6.9V75.1h-4.1v-3.7h4.1v-6.3L146.6,63.9z"/><path fill="#FFFFFF" d="M171.4,97.8l-0.4-3.3h-0.2c-1.5,2.1-4.3,3.9-8.1,3.9c-5.4,0-8.1-3.8-8.1-7.6c0-6.4,5.7-9.9,15.9-9.8v-0.5 c0-2.2-0.6-6.1-6-6.1c-2.5,0-5,0.8-6.9,2l-1.1-3.2c2.2-1.4,5.4-2.3,8.7-2.3c8.1,0,10.1,5.5,10.1,10.8v9.9c0,2.3,0.1,4.5,0.4,6.3 H171.4z M170.7,84.4c-5.3-0.1-11.2,0.8-11.2,5.9c0,3.1,2.1,4.6,4.5,4.6c3.4,0,5.6-2.2,6.4-4.4c0.2-0.5,0.3-1,0.3-1.5V84.4z"/></g></g></a></g><a href="https://ourworldindata.org/grapher/literacy-rate-adult-male-dhs-surveys-vs-unesco" target="_blank"><text font-size="21.60" x="15.0" y="32.3" fill="#555"><tspan x="15" y="32.279999999999994">Literacy rates, adult male, one-sentence test (DHS) vs self-reports</tspan><tspan x="15" y="53.87999999999999">(UNESCO), 2015</tspan></text></a><text font-size="14.40" x="15.0" y="72.7" fill="#666"><tspan x="15" y="72.72">DHS literacy rates are defined as the percentage of survey respondents, aged 15 and above, who can read a whole or part of a</tspan><tspan x="15" y="88.56">sentence showed. UNESCO literacy rates correspond to the percentage of people, aged 15 and above, who say they can read</tspan><tspan x="15" y="104.4">and write with understanding a short simple statement about their everyday life. </tspan></text></g><g><g class="AxisBoxView"><g class="HorizontalAxis"><text font-size="12.60" x="172.1" y="554.0"><tspan x="172.094" y="553.98">Literacy rate, adult male (% of males ages 15 and above) - UNESCO</tspan></text><text x="132.7" y="533.9" fill="#666" text-anchor="middle" font-size="16.2">30%</text><text x="217.9" y="533.9" fill="#666" text-anchor="middle" font-size="16.2">40%</text><text x="303.1" y="533.9" fill="#666" text-anchor="middle" font-size="16.2">50%</text><text x="388.3" y="533.9" fill="#666" text-anchor="middle" font-size="16.2">60%</text><text x="473.5" y="533.9" fill="#666" text-anchor="middle" font-size="16.2">70%</text><text x="558.6" y="533.9" fill="#666" text-anchor="middle" font-size="16.2">80%</text><text x="643.8" y="533.9" fill="#666" text-anchor="middle" font-size="16.2">90%</text></g><g class="VerticalAxis"><text font-size="12.60" x="-520.3" y="25.1" transform="rotate(-90)"><tspan x="-520.3439999999999" y="25.080000000000002">Literacy rate, adult male (% of total respondents) - DHS surveys</tspan></text><text x="70.16" y="512.7" fill="#666" dominant-baseline="middle" text-anchor="end" font-size="16.2">0%</text><text x="70.16" y="434.3" fill="#666" dominant-baseline="middle" text-anchor="end" font-size="16.2">20%</text><text x="70.16" y="355.8" fill="#666" dominant-baseline="middle" text-anchor="end" font-size="16.2">40%</text><text x="70.16" y="277.4" fill="#666" dominant-baseline="middle" text-anchor="end" font-size="16.2">60%</text><text x="70.16" y="198.9" fill="#666" dominant-baseline="middle" text-anchor="end" font-size="16.2">80%</text></g><g class="AxisGridLines"><line x1="75.16" y1="512.7" x2="715.00" y2="512.7" stroke="#ccc"></line><line x1="75.16" y1="434.3" x2="715.00" y2="434.3" stroke="#ddd" stroke-dasharray="3,2"></line><line x1="75.16" y1="355.8" x2="715.00" y2="355.8" stroke="#ddd" stroke-dasharray="3,2"></line><line x1="75.16" y1="277.4" x2="715.00" y2="277.4" stroke="#ddd" stroke-dasharray="3,2"></line><line x1="75.16" y1="198.9" x2="715.00" y2="198.9" stroke="#ddd" stroke-dasharray="3,2"></line></g><g class="AxisGridLines"><line x1="132.7" y1="512.70" x2="132.7" y2="126.60" stroke="#ddd" stroke-dasharray="3,2"></line><line x1="217.9" y1="512.70" x2="217.9" y2="126.60" stroke="#ddd" stroke-dasharray="3,2"></line><line x1="303.1" y1="512.70" x2="303.1" y2="126.60" stroke="#ddd" stroke-dasharray="3,2"></line><line x1="388.3" y1="512.70" x2="388.3" y2="126.60" stroke="#ddd" stroke-dasharray="3,2"></line><line x1="473.5" y1="512.70" x2="473.5" y2="126.60" stroke="#ddd" stroke-dasharray="3,2"></line><line x1="558.6" y1="512.70" x2="558.6" y2="126.60" stroke="#ddd" stroke-dasharray="3,2"></line><line x1="643.8" y1="512.70" x2="643.8" y2="126.60" stroke="#ddd" stroke-dasharray="3,2"></line></g></g><g class="ComparisonLine"><defs><clipPath id="axisBounds-503"><rect x="75.162" y="126.6" width="639.838" height="386.09999999999997"></rect></clipPath></defs><path d="M75.2,421.5L81.6,418.6L88,415.6L94.4,412.7L100.8,409.7L107.2,406.8L113.6,403.8L120,400.9L126.3,398L132.7,395L139.1,392.1L145.5,389.1L151.9,386.2L158.3,383.2L164.7,380.3L171.1,377.3L177.5,374.4L183.9,371.4L190.3,368.5L196.7,365.5L203.1,362.6L209.5,359.7L215.9,356.7L222.3,353.8L228.7,350.8L235.1,347.9L241.5,344.9L247.9,342L254.3,339L260.7,336.1L267.1,333.1L273.5,330.2L279.9,327.3L286.3,324.3L292.7,321.4L299.1,318.4L305.5,315.5L311.9,312.5L318.3,309.6L324.7,306.6L331.1,303.7L337.5,300.7L343.9,297.8L350.3,294.9L356.7,291.9L363.1,289L369.5,286L375.9,283.1L382.3,280.1L388.7,277.2L395.1,274.2L401.5,271.3L407.9,268.3L414.3,265.4L420.7,262.4L427.1,259.5L433.5,256.6L439.9,253.6L446.3,250.7L452.7,247.7L459.1,244.8L465.5,241.8L471.9,238.9L478.3,235.9L484.7,233L491.1,230L497.5,227.1L503.9,224.2L510.3,221.2L516.7,218.3L523,215.3L529.4,212.4L535.8,209.4L542.2,206.5L548.6,203.5L555,200.6L561.4,197.6L567.8,194.7L574.2,191.7L580.6,188.8L587,185.9L593.4,182.9L599.8,180L606.2,177L612.6,174.1L619,171.1L625.4,168.2L631.8,165.2L638.2,162.3L644.6,159.3L651,156.4L657.4,153.5L663.8,150.5L670.2,147.6L676.6,144.6L683,141.7L689.4,138.7L695.8,135.8L702.2,132.8L708.6,129.9" clip-path="url(#axisBounds-503)" fill="none" stroke="#ccc"></path></g><g clip-path="url(#scatterBounds-504)" font-family="Arial Narrow, Arial, sans-serif" class="PointsWithLabels clickable"><rect x="75.162" y="126.6" width="639.838" height="386.09999999999997" fill="rgba(255,255,255,0)"></rect><defs><clipPath id="scatterBounds-504"><rect x="65.162" y="116.6" width="659.838" height="406.09999999999997"></rect></clipPath></defs><g class="key-India_0"><circle cx="549.00" cy="181.00" r="17.84" fill="#d14e5b" opacity="0.8" stroke="#333" stroke-width="0.7"></circle></g><g class="key-Indonesia_0"><circle cx="704.00" cy="145.00" r="8.02" fill="#d14e5b" opacity="0.8" stroke="#333" stroke-width="0.7"></circle></g><g class="key-Pakistan_0"><circle cx="465.00" cy="240.00" r="6.96" fill="#d14e5b" opacity="0.8" stroke="#333" stroke-width="0.7"></circle></g><g class="key-Nigeria_0"><circle cx="398.00" cy="212.00" r="6.74" fill="#5675c1" opacity="0.8" stroke="#333" stroke-width="0.7"></circle></g><g class="key-Bangladesh_0"><circle cx="521.00" cy="265.00" r="6.43" fill="#d14e5b" opacity="0.8" stroke="#333" stroke-width="0.7"></circle></g><g class="key-Ethiopia_0"><circle cx="295.00" cy="235.00" r="5.00" fill="#5675c1" opacity="0.8" stroke="#333" stroke-width="0.7"></circle></g><g class="key-Democratic-Republic-of-Congo_0"><circle cx="631.00" cy="170.00" r="4.56" fill="#5675c1" opacity="0.8" stroke="#fff" stroke-width="0.7"></circle></g><g class="key-Tanzania_0"><circle cx="586.00" cy="185.00" r="3.91" fill="#5675c1" opacity="0.8" stroke="#333" stroke-width="0.7"></circle></g><g class="key-Myanmar_0"><circle cx="558.00" cy="160.00" r="3.91" fill="#d14e5b" opacity="0.8" stroke="#fff" stroke-width="0.7"></circle></g><g class="key-Kenya_0"><circle cx="590.00" cy="163.00" r="3.74" fill="#5675c1" opacity="0.8" stroke="#333" stroke-width="0.7"></circle></g><g class="key-Uganda_0"><circle cx="551.00" cy="203.00" r="3.50" fill="#5675c1" opacity="0.8" stroke="#333" stroke-width="0.7"></circle></g><g class="key-Afghanistan_0"><circle cx="264.00" cy="315.00" r="3.42" fill="#d14e5b" opacity="0.8" stroke="#333" stroke-width="0.7"></circle></g><g class="key-Nepal_0"><circle cx="488.00" cy="161.00" r="3.31" fill="#d14e5b" opacity="0.8" stroke="#333" stroke-width="0.7"></circle></g><g class="key-Ghana_0"><circle cx="544.00" cy="235.00" r="3.10" fill="#5675c1" opacity="0.8" stroke="#333" stroke-width="0.7"></circle></g><g class="key-Mozambique_0"><circle cx="450.00" cy="230.00" r="3.06" fill="#5675c1" opacity="0.8" stroke="#fff" stroke-width="0.7"></circle></g><g class="key-Madagascar_0"><circle cx="516.00" cy="212.00" r="2.95" fill="#5675c1" opacity="0.8" stroke="#fff" stroke-width="0.7"></circle></g><g class="key-Cote-d__0027Ivoire_0"><circle cx="309.00" cy="294.00" r="2.89" fill="#5675c1" opacity="0.8" stroke="#333" stroke-width="0.7"></circle></g><g class="key-Cameroon_0"><circle cx="544.00" cy="185.00" r="2.88" fill="#5675c1" opacity="0.8" stroke="#fff" stroke-width="0.7"></circle></g><g class="key-Angola_0"><circle cx="558.00" cy="191.00" r="2.88" fill="#5675c1" opacity="0.8" stroke="#fff" stroke-width="0.7"></circle></g><g class="key-Burkina-Faso_0"><circle cx="255.00" cy="364.00" r="2.76" fill="#5675c1" opacity="0.8" stroke="#333" stroke-width="0.7"></circle></g><g class="key-Niger_0"><circle cx="75.00" cy="347.00" r="2.72" fill="#5675c1" opacity="0.8" stroke="#333" stroke-width="0.7"></circle></g><g class="key-Mali_0"><circle cx="261.00" cy="365.00" r="2.70" fill="#5675c1" opacity="0.8" stroke="#fff" stroke-width="0.7"></circle></g><g class="key-Malawi_0"><circle cx="471.00" cy="183.00" r="2.68" fill="#5675c1" opacity="0.8" stroke="#333" stroke-width="0.7"></circle></g><g class="key-Guatemala_0"><circle cx="616.00" cy="157.00" r="2.64" fill="#4d824b" opacity="0.8" stroke="#fff" stroke-width="0.7"></circle></g><g class="key-Cambodia_0"><circle cx="582.00" cy="176.00" r="2.60" fill="#d14e5b" opacity="0.8" stroke="#fff" stroke-width="0.7"></circle></g><g class="key-Zambia_0"><circle cx="632.00" cy="185.00" r="2.59" fill="#5675c1" opacity="0.8" stroke="#333" stroke-width="0.7"></circle></g><g class="key-Senegal_0"><circle cx="327.00" cy="303.00" r="2.54" fill="#5675c1" opacity="0.8" stroke="#fff" stroke-width="0.7"></circle></g><g class="key-Zimbabwe_0"><circle cx="636.00" cy="144.00" r="2.54" fill="#5675c1" opacity="0.8" stroke="#fff" stroke-width="0.7"></circle></g><g class="key-Chad_0"><circle cx="208.00" cy="329.00" r="2.48" fill="#5675c1" opacity="0.8" stroke="#333" stroke-width="0.7"></circle></g><g class="key-Rwanda_0"><circle cx="494.00" cy="191.00" r="2.45" fill="#5675c1" opacity="0.8" stroke="#fff" stroke-width="0.7"></circle></g><g class="key-Guinea_0"><circle cx="248.00" cy="308.00" r="2.41" fill="#5675c1" opacity="0.8" stroke="#fff" stroke-width="0.7"></circle></g><g class="key-Bolivia_0"><circle cx="699.00" cy="132.00" r="2.39" fill="#69c487" opacity="0.8" stroke="#fff" stroke-width="0.7"></circle></g><g class="key-Haiti_0"><circle cx="331.00" cy="227.00" r="2.39" fill="#4d824b" opacity="0.8" stroke="#fff" stroke-width="0.7"></circle></g><g class="key-Dominican-Republic_0"><circle cx="657.00" cy="175.00" r="2.39" fill="#4d824b" opacity="0.8" stroke="#fff" stroke-width="0.7"></circle></g><g class="key-Benin_0"><circle cx="260.00" cy="300.00" r="2.35" fill="#5675c1" opacity="0.8" stroke="#333" stroke-width="0.7"></circle></g><g class="key-Burundi_0"><circle cx="470.00" cy="208.00" r="2.31" fill="#5675c1" opacity="0.8" stroke="#333" stroke-width="0.7"></circle></g><g class="key-Honduras_0"><circle cx="626.00" cy="170.00" r="2.27" fill="#4d824b" opacity="0.8" stroke="#333" stroke-width="0.7"></circle></g><g class="key-Togo_0"><circle cx="535.00" cy="213.00" r="2.18" fill="#5675c1" opacity="0.8" stroke="#333" stroke-width="0.7"></circle></g><g class="key-Sierra-Leone_0"><circle cx="229.00" cy="306.00" r="2.17" fill="#5675c1" opacity="0.8" stroke="#fff" stroke-width="0.7"></circle></g><g class="key-Liberia_0"><circle cx="394.00" cy="248.00" r="2.06" fill="#5675c1" opacity="0.8" stroke="#333" stroke-width="0.7"></circle></g><g class="key-Congo_0"><circle cx="613.00" cy="166.00" r="2.05" fill="#5675c1" opacity="0.8" stroke="#fff" stroke-width="0.7"></circle></g><g class="key-Albania_0"><circle cx="715.00" cy="126.00" r="1.99" fill="#ffd336" opacity="0.8" stroke="#fff" stroke-width="0.7"></circle></g><g class="key-Namibia_0"><circle cx="632.00" cy="168.00" r="1.93" fill="#5675c1" opacity="0.8" stroke="#fff" stroke-width="0.7"></circle></g><g class="key-Lesotho_0"><circle cx="454.00" cy="192.00" r="1.92" fill="#5675c1" opacity="0.8" stroke="#fff" stroke-width="0.7"></circle></g><g class="key-Gambia_0"><circle cx="315.00" cy="260.00" r="1.90" fill="#5675c1" opacity="0.8" stroke="#333" stroke-width="0.7"></circle></g><g class="key-Gabon_0"><circle cx="600.00" cy="161.00" r="1.88" fill="#5675c1" opacity="0.8" stroke="#fff" stroke-width="0.7"></circle></g><g class="key-Eswatini_0"><circle cx="591.00" cy="158.00" r="1.86" fill="#5675c1" opacity="0.8" stroke="#fff" stroke-width="0.7"></circle></g><g class="key-Comoros_0"><circle cx="358.00" cy="207.00" r="1.83" fill="#5675c1" opacity="0.8" stroke="#fff" stroke-width="0.7"></circle></g><g class="key-Guyana_0"><circle cx="612.00" cy="149.00" r="1.83" fill="#69c487" opacity="0.8" stroke="#333" stroke-width="0.7"></circle></g><g class="key-Sao-Tome-and-Principe_0"><circle cx="686.00" cy="150.00" r="1.79" fill="#5675c1" opacity="0.8" stroke="#fff" stroke-width="0.7"></circle></g><g class="key-Timor_0"><circle cx="418.00" cy="206.00" r="1.77" fill="#d14e5b" opacity="0.8" stroke="#fff" stroke-width="0.7"></circle></g><g fill="#333" class="backgroundLabels"><text x="549.00" y="162.16" font-size="14.30">India</text><text x="653.25" y="138.24" font-size="11.64">Indonesia</text><text x="465.00" y="232.04" font-size="11.47">Pakistan</text><text x="398.00" y="204.26" font-size="11.44">Nigeria</text><text x="521.00" y="257.57" font-size="11.40">Bangladesh</text><text x="295.00" y="229.00" font-size="11.23">Ethiopia</text><text x="586.00" y="180.09" font-size="11.13">Tanzania</text><text x="590.00" y="158.26" font-size="11.11">Kenya</text><text x="551.00" y="198.50" font-size="11.09">Uganda</text><text x="264.00" y="310.58" font-size="11.09">Afghanistan</text><text x="488.00" y="156.69" font-size="11.08">Nepal</text><text x="544.00" y="230.90" font-size="11.07">Ghana</text><text x="309.00" y="290.11" font-size="11.05">Cote d'Ivoire</text><text x="255.00" y="360.24" font-size="11.05">Burkina Faso</text><text x="75.00" y="343.28" font-size="11.04">Niger</text><text x="471.00" y="179.32" font-size="11.04">Malawi</text><text x="632.00" y="181.41" font-size="11.04">Zambia</text><text x="208.00" y="325.52" font-size="11.03">Chad</text><text x="260.00" y="296.65" font-size="11.02">Benin</text><text x="470.00" y="204.69" font-size="11.02">Burundi</text><text x="626.00" y="166.73" font-size="11.02">Honduras</text><text x="535.00" y="209.82" font-size="11.02">Togo</text><text x="394.00" y="244.94" font-size="11.01">Liberia</text><text x="315.00" y="257.10" font-size="11.00">Gambia</text><text x="612.00" y="146.17" font-size="11.00">Guyana</text></g></g><g style="cursor: pointer;" class="ScatterColorLegend clickable"><g class="legendMark"><rect x="735" y="124.1" width="43.256" height="17.6" fill="#fff" opacity="0"></rect>,<rect x="735" y="129.6" width="6" height="6" fill="#5675c1"></rect>,<text font-size="12.60" x="746.0" y="136.7"><tspan x="746" y="136.67999999999998">Africa</tspan></text></g><g class="legendMark"><rect x="735" y="141.7" width="35.57" height="17.6" fill="#fff" opacity="0"></rect>,<rect x="735" y="147.2" width="6" height="6" fill="#d14e5b"></rect>,<text font-size="12.60" x="746.0" y="154.3"><tspan x="746" y="154.27999999999997">Asia</tspan></text></g><g class="legendMark"><rect x="735" y="159.3" width="51.824" height="17.6" fill="#fff" opacity="0"></rect>,<rect x="735" y="164.8" width="6" height="6" fill="#ffd336"></rect>,<text font-size="12.60" x="746.0" y="171.9"><tspan x="746" y="171.88">Europe</tspan></text></g><g class="legendMark"><rect x="735" y="176.9" width="91.64" height="17.6" fill="#fff" opacity="0"></rect>,<rect x="735" y="182.4" width="6" height="6" fill="#4d824b"></rect>,<text font-size="12.60" x="746.0" y="189.5"><tspan x="746" y="189.48">North America</tspan></text></g><g class="legendMark"><rect x="735" y="194.5" width="93.908" height="17.6" fill="#fff" opacity="0"></rect>,<rect x="735" y="200" width="6" height="6" fill="#69c487"></rect>,<text font-size="12.60" x="746.0" y="207.1"><tspan x="746" y="207.07999999999998">South America</tspan></text></g></g></g><g style="fill: #777;" class="SourcesFooter"><g style="fill: #777;" class="clickable"><text font-size="12.60" x="15.0" y="581.6"><tspan x="15" y="581.58">Source: DHS Surveys, World Bank</tspan></text></g><text font-size="12.60" x="775.4" y="581.6"><tspan x="775.402" y="581.58"><a style="fill: #777;" class="cclogo" href="http://creativecommons.org/licenses/by-sa/4.0/deed.en_US" target="_blank">CC BY-SA</a></tspan></text></g></g></svg>