<svg xmlns="http://www.w3.org/2000/svg" version="1.1" style="font-family: 'Helvetica Neue', Helvetica, Arial, sans-serif; font-size: 18px; background-color: white; text-rendering: optimizeLegibility; -webkit-font-smoothing: antialiased;" width="850" height="600"><g class="ChartTab"><g class="HeaderView"><g opacity="0.8" transform="translate(778, 15) scale(0.27)"><a xmlns:xlink="http://www.w3.org/1999/xlink" xlink:href="https://ourworldindata.org" target="_blank"><g><rect x="0" y="0" fill="#1B2543" width="211.2" height="130.1"/><rect x="0" y="112.2" fill="#E63912" width="211.2" height="17.9"/><g><rect x="1.2" y="12.3" fill="none" width="210.2" height="99.2"/><path fill="#FFFFFF" d="M37.8,32.2c0,12.7-7.7,19.4-17.1,19.4c-9.7,0-16.6-7.5-16.6-18.7c0-11.7,7.3-19.3,17.1-19.3 C31.3,13.7,37.8,21.3,37.8,32.2z M9.2,32.8c0,7.9,4.3,14.9,11.8,14.9c7.5,0,11.8-6.9,11.8-15.3c0-7.3-3.8-14.9-11.8-14.9 C13.1,17.5,9.2,24.8,9.2,32.8z"/><path fill="#FFFFFF" d="M62.7,43.8c0,2.7,0.1,5.1,0.2,7.2h-4.3l-0.3-4.3h-0.1c-1.3,2.1-4,4.9-8.8,4.9c-4.2,0-9.1-2.3-9.1-11.6 V24.6h4.8v14.6c0,5,1.5,8.4,5.9,8.4c3.2,0,5.5-2.2,6.3-4.4c0.3-0.7,0.4-1.6,0.4-2.5V24.6h4.8V43.8z"/><path fill="#FFFFFF" d="M67.3,32.8c0-3.1-0.1-5.8-0.2-8.2h4.2l0.2,5.2h0.2c1.2-3.5,4.1-5.8,7.3-5.8c0.5,0,0.9,0.1,1.4,0.2v4.5 c-0.5-0.1-1-0.2-1.6-0.2c-3.4,0-5.8,2.6-6.5,6.2c-0.1,0.7-0.2,1.4-0.2,2.2V51h-4.8V32.8z"/><path fill="#FFFFFF" d="M95.4,51l-9.4-36.8h5l4.4,18.6c1.1,4.6,2.1,9.2,2.7,12.7h0.1c0.6-3.7,1.8-8,3-12.8l4.9-18.5h5l4.5,18.7 c1,4.4,2,8.7,2.6,12.6h0.1c0.8-4,1.8-8.1,3-12.7l4.9-18.5h4.9L120.6,51h-5L111,31.9c-1.1-4.7-1.9-8.3-2.4-12h-0.1 c-0.7,3.7-1.5,7.3-2.8,12L100.4,51H95.4z"/><path fill="#FFFFFF" d="M154.9,37.6c0,9.8-6.8,14-13.2,14c-7.2,0-12.7-5.2-12.7-13.6c0-8.8,5.8-14,13.1-14 C149.8,24,154.9,29.5,154.9,37.6z M133.9,37.9c0,5.8,3.3,10.1,8,10.1c4.6,0,8-4.3,8-10.3c0-4.5-2.2-10.1-7.9-10.1 C136.3,27.6,133.9,32.8,133.9,37.9z"/><path fill="#FFFFFF" d="M158.2,32.8c0-3.1-0.1-5.8-0.2-8.2h4.2l0.2,5.2h0.2c1.2-3.5,4.1-5.8,7.3-5.8c0.5,0,0.9,0.1,1.4,0.2v4.5 c-0.5-0.1-1-0.2-1.6-0.2c-3.4,0-5.8,2.6-6.5,6.2c-0.1,0.7-0.2,1.4-0.2,2.2V51h-4.8V32.8z"/><path fill="#FFFFFF" d="M173.5,12.3h4.8V51h-4.8V12.3z"/><path fill="#FFFFFF" d="M206.5,12.3v31.9c0,2.3,0.1,5,0.2,6.8h-4.3l-0.2-4.6H202c-1.5,2.9-4.7,5.2-9,5.2 c-6.4,0-11.3-5.4-11.3-13.4c-0.1-8.8,5.4-14.2,11.9-14.2c4,0,6.8,1.9,8,4h0.1V12.3H206.5z M201.7,35.4c0-0.6-0.1-1.4-0.2-2 c-0.7-3.1-3.3-5.6-6.9-5.6c-5,0-7.9,4.4-7.9,10.2c0,5.3,2.6,9.8,7.8,9.8c3.2,0,6.2-2.1,7.1-5.7c0.2-0.7,0.2-1.3,0.2-2.1V35.4z"/><path fill="#FFFFFF" d="M42.8,64c0.1,1.6-1.1,2.9-3.1,2.9c-1.7,0-2.9-1.3-2.9-2.9c0-1.7,1.3-3,3-3C41.7,61,42.8,62.3,42.8,64z M37.4,97.8V71.4h4.8v26.4H37.4z"/><path fill="#FFFFFF" d="M47.5,78.6c0-2.7-0.1-5-0.2-7.1h4.3l0.3,4.4h0.1c1.3-2.5,4.4-5,8.8-5c3.7,0,9.4,2.2,9.4,11.2v15.8h-4.8 V82.6c0-4.3-1.6-7.8-6.1-7.8c-3.2,0-5.6,2.2-6.5,4.9c-0.2,0.6-0.3,1.4-0.3,2.2v15.9h-4.8V78.6z"/><path fill="#FFFFFF" d="M84,61.6c2.9-0.4,6.3-0.8,10.1-0.8c6.8,0,11.7,1.6,14.9,4.6c3.3,3,5.2,7.3,5.2,13.2c0,6-1.9,10.9-5.3,14.3 c-3.4,3.4-9.1,5.3-16.3,5.3c-3.4,0-6.2-0.2-8.6-0.4V61.6z M88.8,94.1c1.2,0.2,3,0.3,4.8,0.3c10.2,0,15.7-5.7,15.7-15.6 c0.1-8.7-4.9-14.2-14.9-14.2c-2.5,0-4.3,0.2-5.6,0.5V94.1z"/><path fill="#FFFFFF" d="M132.1,97.8l-0.4-3.3h-0.2c-1.5,2.1-4.3,3.9-8.1,3.9c-5.4,0-8.1-3.8-8.1-7.6c0-6.4,5.7-9.9,15.9-9.8v-0.5 c0-2.2-0.6-6.1-6-6.1c-2.5,0-5,0.8-6.9,2l-1.1-3.2c2.2-1.4,5.4-2.3,8.7-2.3c8.1,0,10.1,5.5,10.1,10.8v9.9c0,2.3,0.1,4.5,0.4,6.3 H132.1z M131.4,84.4c-5.3-0.1-11.2,0.8-11.2,5.9c0,3.1,2.1,4.6,4.5,4.6c3.4,0,5.6-2.2,6.4-4.4c0.2-0.5,0.3-1,0.3-1.5V84.4z"/><path fill="#FFFFFF" d="M146.6,63.9v7.6h6.9v3.7h-6.9v14.2c0,3.3,0.9,5.1,3.6,5.1c1.3,0,2.2-0.2,2.8-0.3l0.2,3.6 c-0.9,0.4-2.4,0.7-4.3,0.7c-2.2,0-4-0.7-5.2-2c-1.4-1.4-1.9-3.8-1.9-6.9V75.1h-4.1v-3.7h4.1v-6.3L146.6,63.9z"/><path fill="#FFFFFF" d="M171.4,97.8l-0.4-3.3h-0.2c-1.5,2.1-4.3,3.9-8.1,3.9c-5.4,0-8.1-3.8-8.1-7.6c0-6.4,5.7-9.9,15.9-9.8v-0.5 c0-2.2-0.6-6.1-6-6.1c-2.5,0-5,0.8-6.9,2l-1.1-3.2c2.2-1.4,5.4-2.3,8.7-2.3c8.1,0,10.1,5.5,10.1,10.8v9.9c0,2.3,0.1,4.5,0.4,6.3 H171.4z M170.7,84.4c-5.3-0.1-11.2,0.8-11.2,5.9c0,3.1,2.1,4.6,4.5,4.6c3.4,0,5.6-2.2,6.4-4.4c0.2-0.5,0.3-1,0.3-1.5V84.4z"/></g></g></a></g><a href="https://ourworldindata.org/grapher/number-of-under-five-deaths" target="_blank"><text font-size="25.20" x="15.0" y="35.2" fill="#555"><tspan x="15" y="35.160000000000004">Number of under-five deaths</tspan></text></a><text font-size="14.40" x="15.0" y="53.7" fill="#666"><tspan x="15" y="53.72">Number of children dying before reaching age five.</tspan></text></g><g class="LineChart"><defs><clipPath id="boundsClip-609"><rect x="78.526" y="0" width="830" height="959.8"></rect></clipPath></defs><g class="AxisBoxView"><g class="HorizontalAxis"><text x="88.5" y="556.5" fill="#666" text-anchor="middle" font-size="16.2">1960</text><text x="202.4" y="556.5" fill="#666" text-anchor="middle" font-size="16.2">1970</text><text x="316.3" y="556.5" fill="#666" text-anchor="middle" font-size="16.2">1980</text><text x="430.2" y="556.5" fill="#666" text-anchor="middle" font-size="16.2">1990</text><text x="544" y="556.5" fill="#666" text-anchor="middle" font-size="16.2">2000</text><text x="657.9" y="556.5" fill="#666" text-anchor="middle" font-size="16.2">2010</text><text x="737.6" y="556.5" fill="#666" text-anchor="middle" font-size="16.2">2017</text></g><g class="VerticalAxis"><text x="83.53" y="535.3" fill="#666" dominant-baseline="middle" text-anchor="end" font-size="16.2">0</text><text x="83.53" y="462.4" fill="#666" dominant-baseline="middle" text-anchor="end" font-size="16.2">2 million</text><text x="83.53" y="389.5" fill="#666" dominant-baseline="middle" text-anchor="end" font-size="16.2">4 million</text><text x="83.53" y="316.6" fill="#666" dominant-baseline="middle" text-anchor="end" font-size="16.2">6 million</text><text x="83.53" y="243.6" fill="#666" dominant-baseline="middle" text-anchor="end" font-size="16.2">8 million</text><text x="83.53" y="170.7" fill="#666" dominant-baseline="middle" text-anchor="end" font-size="16.2">10 million</text><text x="83.53" y="97.8" fill="#666" dominant-baseline="middle" text-anchor="end" font-size="16.2">12 million</text></g><g class="AxisGridLines"><line x1="88.53" y1="535.3" x2="737.63" y2="535.3" stroke="#ccc"></line><line x1="88.53" y1="462.4" x2="737.63" y2="462.4" stroke="#ddd" stroke-dasharray="3,2"></line><line x1="88.53" y1="389.5" x2="737.63" y2="389.5" stroke="#ddd" stroke-dasharray="3,2"></line><line x1="88.53" y1="316.6" x2="737.63" y2="316.6" stroke="#ddd" stroke-dasharray="3,2"></line><line x1="88.53" y1="243.6" x2="737.63" y2="243.6" stroke="#ddd" stroke-dasharray="3,2"></line><line x1="88.53" y1="170.7" x2="737.63" y2="170.7" stroke="#ddd" stroke-dasharray="3,2"></line><line x1="88.53" y1="97.8" x2="737.63" y2="97.8" stroke="#ddd" stroke-dasharray="3,2"></line></g></g><g clip-path="url(#boundsClip-609)"><g class="HeightedLegend clickable"><g class="legendMark"><g class="indicator"><line x1="742.63" y1="535.2" x2="765.13" y2="535.2" stroke="#666" stroke-width="0.5"></line><line x1="765.13" y1="535.2" x2="765.13" y2="528.55" stroke="#666" stroke-width="0.5"></line><line x1="765.13" y1="528.55" x2="767.63" y2="528.55" stroke="#666" stroke-width="0.5"></line></g><rect x="737.63" y="521.8" width="94.535" height="13.5" fill="#fff" opacity="0"></rect><text font-size="13.50" x="772.6" y="532.6" fill="#3360a9"><tspan x="772.63" y="532.5999999999999">Botswana</tspan></text></g><g class="legendMark"><g class="indicator"><line x1="742.63" y1="534.6" x2="761.7966666666666" y2="534.6" stroke="#666" stroke-width="0.5"></line><line x1="761.7966666666666" y1="534.6" x2="761.7966666666666" y2="513.05" stroke="#666" stroke-width="0.5"></line><line x1="761.7966666666666" y1="513.05" x2="767.63" y2="513.05" stroke="#666" stroke-width="0.5"></line></g><rect x="737.63" y="506.29999999999995" width="62" height="13.5" fill="#fff" opacity="0"></rect><text font-size="13.50" x="772.6" y="517.1" fill="#ca2628"><tspan x="772.63" y="517.0999999999999">Haiti</tspan></text></g><g class="legendMark"><g class="indicator"><line x1="742.63" y1="534.3" x2="758.4633333333334" y2="534.3" stroke="#666" stroke-width="0.5"></line><line x1="758.4633333333334" y1="534.3" x2="758.4633333333334" y2="497.54999999999995" stroke="#666" stroke-width="0.5"></line><line x1="758.4633333333334" y1="497.54999999999995" x2="767.63" y2="497.54999999999995" stroke="#666" stroke-width="0.5"></line></g><rect x="737.63" y="490.79999999999995" width="97.37" height="13.5" fill="#fff" opacity="0"></rect><text font-size="13.50" x="772.6" y="501.6" fill="#34983f"><tspan x="772.63" y="501.59999999999997">Zimbabwe</tspan></text></g><g class="legendMark"><g class="indicator"><line x1="742.63" y1="533.7" x2="755.13" y2="533.7" stroke="#666" stroke-width="0.5"></line><line x1="755.13" y1="533.7" x2="755.13" y2="482.04999999999995" stroke="#666" stroke-width="0.5"></line><line x1="755.13" y1="482.04999999999995" x2="767.63" y2="482.04999999999995" stroke="#666" stroke-width="0.5"></line></g><rect x="737.63" y="475.29999999999995" width="68.75" height="13.5" fill="#fff" opacity="0"></rect><text font-size="13.50" x="772.6" y="486.1" fill="#f6a324"><tspan x="772.63" y="486.09999999999997">Brazil</tspan></text></g><g class="legendMark"><g class="indicator"><line x1="742.63" y1="529.6" x2="751.7966666666666" y2="529.6" stroke="#666" stroke-width="0.5"></line><line x1="751.7966666666666" y1="529.6" x2="751.7966666666666" y2="466.54999999999995" stroke="#666" stroke-width="0.5"></line><line x1="751.7966666666666" y1="466.54999999999995" x2="767.63" y2="466.54999999999995" stroke="#666" stroke-width="0.5"></line></g><rect x="737.63" y="459.79999999999995" width="70.37" height="13.5" fill="#fff" opacity="0"></rect><text font-size="13.50" x="772.6" y="470.6" fill="#a652ba"><tspan x="772.63" y="470.59999999999997">China</tspan></text></g><g class="legendMark"><g class="indicator"><line x1="742.63" y1="499.2" x2="748.4633333333334" y2="499.2" stroke="#666" stroke-width="0.5"></line><line x1="748.4633333333334" y1="499.2" x2="748.4633333333334" y2="451.04999999999995" stroke="#666" stroke-width="0.5"></line><line x1="748.4633333333334" y1="451.04999999999995" x2="767.63" y2="451.04999999999995" stroke="#666" stroke-width="0.5"></line></g><rect x="737.63" y="444.29999999999995" width="64.43" height="13.5" fill="#fff" opacity="0"></rect><text font-size="13.50" x="772.6" y="455.1" fill="#2a939b"><tspan x="772.63" y="455.09999999999997">India</tspan></text></g><g class="legendMark"><g class="indicator"><line x1="742.63" y1="337.8" x2="755.13" y2="337.8" stroke="#666" stroke-width="0.5"></line><line x1="755.13" y1="337.8" x2="755.13" y2="337.8" stroke="#666" stroke-width="0.5"></line><line x1="755.13" y1="337.8" x2="767.63" y2="337.8" stroke="#666" stroke-width="0.5"></line></g><rect x="737.63" y="331.05" width="70.235" height="13.5" fill="#fff" opacity="0"></rect><text font-size="13.50" x="772.6" y="341.9" fill="#e6332e"><tspan x="772.63" y="341.85">World</tspan></text></g></g><g class="Lines"><rect x="89" y="77" width="649" height="459" fill="rgba(255,255,255,0)" opacity="0"></rect><g class="key-World_0"><path stroke="#e6332e" stroke-linecap="round" d="M430 77L442 85L453 95L464 105L476 114L487 125L499 135L510 145L521 155L533 166L544 177L555 188L567 200L578 211L590 220L601 232L612 242L624 253L635 262L647 272L658 280L669 291L681 300L692 309L704 317L715 324L726 331L738 338" fill="none" stroke-width="1.5"></path><g fill="#e6332e"><circle cx="430" cy="77" r="2"></circle><circle cx="442" cy="85" r="2"></circle><circle cx="453" cy="95" r="2"></circle><circle cx="464" cy="105" r="2"></circle><circle cx="476" cy="114" r="2"></circle><circle cx="487" cy="125" r="2"></circle><circle cx="499" cy="135" r="2"></circle><circle cx="510" cy="145" r="2"></circle><circle cx="521" cy="155" r="2"></circle><circle cx="533" cy="166" r="2"></circle><circle cx="544" cy="177" r="2"></circle><circle cx="555" cy="188" r="2"></circle><circle cx="567" cy="200" r="2"></circle><circle cx="578" cy="211" r="2"></circle><circle cx="590" cy="220" r="2"></circle><circle cx="601" cy="232" r="2"></circle><circle cx="612" cy="242" r="2"></circle><circle cx="624" cy="253" r="2"></circle><circle cx="635" cy="262" r="2"></circle><circle cx="647" cy="272" r="2"></circle><circle cx="658" cy="280" r="2"></circle><circle cx="669" cy="291" r="2"></circle><circle cx="681" cy="300" r="2"></circle><circle cx="692" cy="309" r="2"></circle><circle cx="704" cy="317" r="2"></circle><circle cx="715" cy="324" r="2"></circle><circle cx="726" cy="331" r="2"></circle><circle cx="738" cy="338" r="2"></circle></g></g><g class="key-India_0"><path stroke="#2a939b" stroke-linecap="round" d="M89 374L100 375L111 375L123 375L134 374L146 374L157 374L168 374L180 373L191 373L202 373L214 373L225 373L237 374L248 375L259 376L271 378L282 380L294 383L305 385L316 387L328 389L339 391L350 393L362 395L373 397L385 399L396 402L407 405L419 408L430 411L442 415L453 418L464 421L476 424L487 427L499 430L510 433L521 436L533 440L544 443L555 447L567 450L578 454L590 457L601 461L612 464L624 468L635 472L647 475L658 479L669 483L681 486L692 489L704 492L715 495L726 497L738 499" fill="none" stroke-width="1.5"></path><g fill="#2a939b"><circle cx="89" cy="374" r="2"></circle><circle cx="100" cy="375" r="2"></circle><circle cx="111" cy="375" r="2"></circle><circle cx="123" cy="375" r="2"></circle><circle cx="134" cy="374" r="2"></circle><circle cx="146" cy="374" r="2"></circle><circle cx="157" cy="374" r="2"></circle><circle cx="168" cy="374" r="2"></circle><circle cx="180" cy="373" r="2"></circle><circle cx="191" cy="373" r="2"></circle><circle cx="202" cy="373" r="2"></circle><circle cx="214" cy="373" r="2"></circle><circle cx="225" cy="373" r="2"></circle><circle cx="237" cy="374" r="2"></circle><circle cx="248" cy="375" r="2"></circle><circle cx="259" cy="376" r="2"></circle><circle cx="271" cy="378" r="2"></circle><circle cx="282" cy="380" r="2"></circle><circle cx="294" cy="383" r="2"></circle><circle cx="305" cy="385" r="2"></circle><circle cx="316" cy="387" r="2"></circle><circle cx="328" cy="389" r="2"></circle><circle cx="339" cy="391" r="2"></circle><circle cx="350" cy="393" r="2"></circle><circle cx="362" cy="395" r="2"></circle><circle cx="373" cy="397" r="2"></circle><circle cx="385" cy="399" r="2"></circle><circle cx="396" cy="402" r="2"></circle><circle cx="407" cy="405" r="2"></circle><circle cx="419" cy="408" r="2"></circle><circle cx="430" cy="411" r="2"></circle><circle cx="442" cy="415" r="2"></circle><circle cx="453" cy="418" r="2"></circle><circle cx="464" cy="421" r="2"></circle><circle cx="476" cy="424" r="2"></circle><circle cx="487" cy="427" r="2"></circle><circle cx="499" cy="430" r="2"></circle><circle cx="510" cy="433" r="2"></circle><circle cx="521" cy="436" r="2"></circle><circle cx="533" cy="440" r="2"></circle><circle cx="544" cy="443" r="2"></circle><circle cx="555" cy="447" r="2"></circle><circle cx="567" cy="450" r="2"></circle><circle cx="578" cy="454" r="2"></circle><circle cx="590" cy="457" r="2"></circle><circle cx="601" cy="461" r="2"></circle><circle cx="612" cy="464" r="2"></circle><circle cx="624" cy="468" r="2"></circle><circle cx="635" cy="472" r="2"></circle><circle cx="647" cy="475" r="2"></circle><circle cx="658" cy="479" r="2"></circle><circle cx="669" cy="483" r="2"></circle><circle cx="681" cy="486" r="2"></circle><circle cx="692" cy="489" r="2"></circle><circle cx="704" cy="492" r="2"></circle><circle cx="715" cy="495" r="2"></circle><circle cx="726" cy="497" r="2"></circle><circle cx="738" cy="499" r="2"></circle></g></g><g class="key-China_0"><path stroke="#a652ba" stroke-linecap="round" d="M248 449L259 458L271 466L282 473L294 479L305 484L316 487L328 489L339 490L350 490L362 489L373 487L385 486L396 484L407 483L419 483L430 484L442 487L453 490L464 493L476 497L487 501L499 504L510 507L521 509L533 511L544 513L555 515L567 517L578 518L590 520L601 521L612 522L624 523L635 524L647 525L658 526L669 526L681 527L692 527L704 528L715 529L726 529L738 530" fill="none" stroke-width="1.5"></path><g fill="#a652ba"><circle cx="248" cy="449" r="2"></circle><circle cx="259" cy="458" r="2"></circle><circle cx="271" cy="466" r="2"></circle><circle cx="282" cy="473" r="2"></circle><circle cx="294" cy="479" r="2"></circle><circle cx="305" cy="484" r="2"></circle><circle cx="316" cy="487" r="2"></circle><circle cx="328" cy="489" r="2"></circle><circle cx="339" cy="490" r="2"></circle><circle cx="350" cy="490" r="2"></circle><circle cx="362" cy="489" r="2"></circle><circle cx="373" cy="487" r="2"></circle><circle cx="385" cy="486" r="2"></circle><circle cx="396" cy="484" r="2"></circle><circle cx="407" cy="483" r="2"></circle><circle cx="419" cy="483" r="2"></circle><circle cx="430" cy="484" r="2"></circle><circle cx="442" cy="487" r="2"></circle><circle cx="453" cy="490" r="2"></circle><circle cx="464" cy="493" r="2"></circle><circle cx="476" cy="497" r="2"></circle><circle cx="487" cy="501" r="2"></circle><circle cx="499" cy="504" r="2"></circle><circle cx="510" cy="507" r="2"></circle><circle cx="521" cy="509" r="2"></circle><circle cx="533" cy="511" r="2"></circle><circle cx="544" cy="513" r="2"></circle><circle cx="555" cy="515" r="2"></circle><circle cx="567" cy="517" r="2"></circle><circle cx="578" cy="518" r="2"></circle><circle cx="590" cy="520" r="2"></circle><circle cx="601" cy="521" r="2"></circle><circle cx="612" cy="522" r="2"></circle><circle cx="624" cy="523" r="2"></circle><circle cx="635" cy="524" r="2"></circle><circle cx="647" cy="525" r="2"></circle><circle cx="658" cy="526" r="2"></circle><circle cx="669" cy="526" r="2"></circle><circle cx="681" cy="527" r="2"></circle><circle cx="692" cy="527" r="2"></circle><circle cx="704" cy="528" r="2"></circle><circle cx="715" cy="529" r="2"></circle><circle cx="726" cy="529" r="2"></circle><circle cx="738" cy="530" r="2"></circle></g></g><g class="key-Brazil_0"><path stroke="#f6a324" stroke-linecap="round" d="M89 517L100 517L111 517L123 518L134 518L146 518L157 518L168 518L180 519L191 519L202 519L214 520L225 520L237 520L248 521L259 521L271 521L282 521L294 521L305 522L316 522L328 522L339 523L350 523L362 524L373 524L385 525L396 525L407 526L419 526L430 527L442 527L453 528L464 528L476 529L487 529L499 529L510 530L521 530L533 531L544 531L555 531L567 532L578 532L590 532L601 532L612 533L624 533L635 533L647 533L658 533L669 533L681 533L692 534L704 534L715 534L726 534L738 534" fill="none" stroke-width="1.5"></path><g fill="#f6a324"><circle cx="89" cy="517" r="2"></circle><circle cx="100" cy="517" r="2"></circle><circle cx="111" cy="517" r="2"></circle><circle cx="123" cy="518" r="2"></circle><circle cx="134" cy="518" r="2"></circle><circle cx="146" cy="518" r="2"></circle><circle cx="157" cy="518" r="2"></circle><circle cx="168" cy="518" r="2"></circle><circle cx="180" cy="519" r="2"></circle><circle cx="191" cy="519" r="2"></circle><circle cx="202" cy="519" r="2"></circle><circle cx="214" cy="520" r="2"></circle><circle cx="225" cy="520" r="2"></circle><circle cx="237" cy="520" r="2"></circle><circle cx="248" cy="521" r="2"></circle><circle cx="259" cy="521" r="2"></circle><circle cx="271" cy="521" r="2"></circle><circle cx="282" cy="521" r="2"></circle><circle cx="294" cy="521" r="2"></circle><circle cx="305" cy="522" r="2"></circle><circle cx="316" cy="522" r="2"></circle><circle cx="328" cy="522" r="2"></circle><circle cx="339" cy="523" r="2"></circle><circle cx="350" cy="523" r="2"></circle><circle cx="362" cy="524" r="2"></circle><circle cx="373" cy="524" r="2"></circle><circle cx="385" cy="525" r="2"></circle><circle cx="396" cy="525" r="2"></circle><circle cx="407" cy="526" r="2"></circle><circle cx="419" cy="526" r="2"></circle><circle cx="430" cy="527" r="2"></circle><circle cx="442" cy="527" r="2"></circle><circle cx="453" cy="528" r="2"></circle><circle cx="464" cy="528" r="2"></circle><circle cx="476" cy="529" r="2"></circle><circle cx="487" cy="529" r="2"></circle><circle cx="499" cy="529" r="2"></circle><circle cx="510" cy="530" r="2"></circle><circle cx="521" cy="530" r="2"></circle><circle cx="533" cy="531" r="2"></circle><circle cx="544" cy="531" r="2"></circle><circle cx="555" cy="531" r="2"></circle><circle cx="567" cy="532" r="2"></circle><circle cx="578" cy="532" r="2"></circle><circle cx="590" cy="532" r="2"></circle><circle cx="601" cy="532" r="2"></circle><circle cx="612" cy="533" r="2"></circle><circle cx="624" cy="533" r="2"></circle><circle cx="635" cy="533" r="2"></circle><circle cx="647" cy="533" r="2"></circle><circle cx="658" cy="533" r="2"></circle><circle cx="669" cy="533" r="2"></circle><circle cx="681" cy="533" r="2"></circle><circle cx="692" cy="534" r="2"></circle><circle cx="704" cy="534" r="2"></circle><circle cx="715" cy="534" r="2"></circle><circle cx="726" cy="534" r="2"></circle><circle cx="738" cy="534" r="2"></circle></g></g><g class="key-Haiti_0"><path stroke="#ca2628" stroke-linecap="round" d="M100 534L111 534L123 534L134 534L146 534L157 534L168 534L180 534L191 534L202 534L214 534L225 534L237 534L248 534L259 534L271 534L282 534L294 534L305 534L316 534L328 534L339 534L350 534L362 534L373 534L385 534L396 534L407 534L419 534L430 534L442 534L453 534L464 534L476 534L487 534L499 534L510 534L521 534L533 534L544 534L555 534L567 534L578 534L590 534L601 534L612 534L624 535L635 535L647 535L658 533L669 535L681 535L692 535L704 535L715 535L726 535L738 535" fill="none" stroke-width="1.5"></path><g fill="#ca2628"><circle cx="100" cy="534" r="2"></circle><circle cx="111" cy="534" r="2"></circle><circle cx="123" cy="534" r="2"></circle><circle cx="134" cy="534" r="2"></circle><circle cx="146" cy="534" r="2"></circle><circle cx="157" cy="534" r="2"></circle><circle cx="168" cy="534" r="2"></circle><circle cx="180" cy="534" r="2"></circle><circle cx="191" cy="534" r="2"></circle><circle cx="202" cy="534" r="2"></circle><circle cx="214" cy="534" r="2"></circle><circle cx="225" cy="534" r="2"></circle><circle cx="237" cy="534" r="2"></circle><circle cx="248" cy="534" r="2"></circle><circle cx="259" cy="534" r="2"></circle><circle cx="271" cy="534" r="2"></circle><circle cx="282" cy="534" r="2"></circle><circle cx="294" cy="534" r="2"></circle><circle cx="305" cy="534" r="2"></circle><circle cx="316" cy="534" r="2"></circle><circle cx="328" cy="534" r="2"></circle><circle cx="339" cy="534" r="2"></circle><circle cx="350" cy="534" r="2"></circle><circle cx="362" cy="534" r="2"></circle><circle cx="373" cy="534" r="2"></circle><circle cx="385" cy="534" r="2"></circle><circle cx="396" cy="534" r="2"></circle><circle cx="407" cy="534" r="2"></circle><circle cx="419" cy="534" r="2"></circle><circle cx="430" cy="534" r="2"></circle><circle cx="442" cy="534" r="2"></circle><circle cx="453" cy="534" r="2"></circle><circle cx="464" cy="534" r="2"></circle><circle cx="476" cy="534" r="2"></circle><circle cx="487" cy="534" r="2"></circle><circle cx="499" cy="534" r="2"></circle><circle cx="510" cy="534" r="2"></circle><circle cx="521" cy="534" r="2"></circle><circle cx="533" cy="534" r="2"></circle><circle cx="544" cy="534" r="2"></circle><circle cx="555" cy="534" r="2"></circle><circle cx="567" cy="534" r="2"></circle><circle cx="578" cy="534" r="2"></circle><circle cx="590" cy="534" r="2"></circle><circle cx="601" cy="534" r="2"></circle><circle cx="612" cy="534" r="2"></circle><circle cx="624" cy="535" r="2"></circle><circle cx="635" cy="535" r="2"></circle><circle cx="647" cy="535" r="2"></circle><circle cx="658" cy="533" r="2"></circle><circle cx="669" cy="535" r="2"></circle><circle cx="681" cy="535" r="2"></circle><circle cx="692" cy="535" r="2"></circle><circle cx="704" cy="535" r="2"></circle><circle cx="715" cy="535" r="2"></circle><circle cx="726" cy="535" r="2"></circle><circle cx="738" cy="535" r="2"></circle></g></g><g class="key-Botswana_0"><path stroke="#3360a9" stroke-linecap="round" d="M89 535L100 535L111 535L123 535L134 535L146 535L157 535L168 535L180 535L191 535L202 535L214 535L225 535L237 535L248 535L259 535L271 535L282 535L294 535L305 535L316 535L328 535L339 535L350 535L362 535L373 535L385 535L396 535L407 535L419 535L430 535L442 535L453 535L464 535L476 535L487 535L499 535L510 535L521 535L533 535L544 535L555 535L567 535L578 535L590 535L601 535L612 535L624 535L635 535L647 535L658 535L669 535L681 535L692 535L704 535L715 535L726 535L738 535" fill="none" stroke-width="1.5"></path><g fill="#3360a9"><circle cx="89" cy="535" r="2"></circle><circle cx="100" cy="535" r="2"></circle><circle cx="111" cy="535" r="2"></circle><circle cx="123" cy="535" r="2"></circle><circle cx="134" cy="535" r="2"></circle><circle cx="146" cy="535" r="2"></circle><circle cx="157" cy="535" r="2"></circle><circle cx="168" cy="535" r="2"></circle><circle cx="180" cy="535" r="2"></circle><circle cx="191" cy="535" r="2"></circle><circle cx="202" cy="535" r="2"></circle><circle cx="214" cy="535" r="2"></circle><circle cx="225" cy="535" r="2"></circle><circle cx="237" cy="535" r="2"></circle><circle cx="248" cy="535" r="2"></circle><circle cx="259" cy="535" r="2"></circle><circle cx="271" cy="535" r="2"></circle><circle cx="282" cy="535" r="2"></circle><circle cx="294" cy="535" r="2"></circle><circle cx="305" cy="535" r="2"></circle><circle cx="316" cy="535" r="2"></circle><circle cx="328" cy="535" r="2"></circle><circle cx="339" cy="535" r="2"></circle><circle cx="350" cy="535" r="2"></circle><circle cx="362" cy="535" r="2"></circle><circle cx="373" cy="535" r="2"></circle><circle cx="385" cy="535" r="2"></circle><circle cx="396" cy="535" r="2"></circle><circle cx="407" cy="535" r="2"></circle><circle cx="419" cy="535" r="2"></circle><circle cx="430" cy="535" r="2"></circle><circle cx="442" cy="535" r="2"></circle><circle cx="453" cy="535" r="2"></circle><circle cx="464" cy="535" r="2"></circle><circle cx="476" cy="535" r="2"></circle><circle cx="487" cy="535" r="2"></circle><circle cx="499" cy="535" r="2"></circle><circle cx="510" cy="535" r="2"></circle><circle cx="521" cy="535" r="2"></circle><circle cx="533" cy="535" r="2"></circle><circle cx="544" cy="535" r="2"></circle><circle cx="555" cy="535" r="2"></circle><circle cx="567" cy="535" r="2"></circle><circle cx="578" cy="535" r="2"></circle><circle cx="590" cy="535" r="2"></circle><circle cx="601" cy="535" r="2"></circle><circle cx="612" cy="535" r="2"></circle><circle cx="624" cy="535" r="2"></circle><circle cx="635" cy="535" r="2"></circle><circle cx="647" cy="535" r="2"></circle><circle cx="658" cy="535" r="2"></circle><circle cx="669" cy="535" r="2"></circle><circle cx="681" cy="535" r="2"></circle><circle cx="692" cy="535" r="2"></circle><circle cx="704" cy="535" r="2"></circle><circle cx="715" cy="535" r="2"></circle><circle cx="726" cy="535" r="2"></circle><circle cx="738" cy="535" r="2"></circle></g></g><g class="key-Zimbabwe_0"><path stroke="#34983f" stroke-linecap="round" d="M89 534L100 534L111 534L123 534L134 534L146 534L157 534L168 534L180 534L191 534L202 534L214 534L225 534L237 534L248 534L259 534L271 534L282 534L294 534L305 534L316 534L328 534L339 534L350 534L362 534L373 534L385 534L396 534L407 534L419 534L430 534L442 534L453 534L464 534L476 534L487 534L499 534L510 534L521 534L533 534L544 534L555 534L567 534L578 534L590 534L601 534L612 534L624 534L635 534L647 534L658 534L669 534L681 534L692 534L704 534L715 534L726 534L738 534" fill="none" stroke-width="1.5"></path><g fill="#34983f"><circle cx="89" cy="534" r="2"></circle><circle cx="100" cy="534" r="2"></circle><circle cx="111" cy="534" r="2"></circle><circle cx="123" cy="534" r="2"></circle><circle cx="134" cy="534" r="2"></circle><circle cx="146" cy="534" r="2"></circle><circle cx="157" cy="534" r="2"></circle><circle cx="168" cy="534" r="2"></circle><circle cx="180" cy="534" r="2"></circle><circle cx="191" cy="534" r="2"></circle><circle cx="202" cy="534" r="2"></circle><circle cx="214" cy="534" r="2"></circle><circle cx="225" cy="534" r="2"></circle><circle cx="237" cy="534" r="2"></circle><circle cx="248" cy="534" r="2"></circle><circle cx="259" cy="534" r="2"></circle><circle cx="271" cy="534" r="2"></circle><circle cx="282" cy="534" r="2"></circle><circle cx="294" cy="534" r="2"></circle><circle cx="305" cy="534" r="2"></circle><circle cx="316" cy="534" r="2"></circle><circle cx="328" cy="534" r="2"></circle><circle cx="339" cy="534" r="2"></circle><circle cx="350" cy="534" r="2"></circle><circle cx="362" cy="534" r="2"></circle><circle cx="373" cy="534" r="2"></circle><circle cx="385" cy="534" r="2"></circle><circle cx="396" cy="534" r="2"></circle><circle cx="407" cy="534" r="2"></circle><circle cx="419" cy="534" r="2"></circle><circle cx="430" cy="534" r="2"></circle><circle cx="442" cy="534" r="2"></circle><circle cx="453" cy="534" r="2"></circle><circle cx="464" cy="534" r="2"></circle><circle cx="476" cy="534" r="2"></circle><circle cx="487" cy="534" r="2"></circle><circle cx="499" cy="534" r="2"></circle><circle cx="510" cy="534" r="2"></circle><circle cx="521" cy="534" r="2"></circle><circle cx="533" cy="534" r="2"></circle><circle cx="544" cy="534" r="2"></circle><circle cx="555" cy="534" r="2"></circle><circle cx="567" cy="534" r="2"></circle><circle cx="578" cy="534" r="2"></circle><circle cx="590" cy="534" r="2"></circle><circle cx="601" cy="534" r="2"></circle><circle cx="612" cy="534" r="2"></circle><circle cx="624" cy="534" r="2"></circle><circle cx="635" cy="534" r="2"></circle><circle cx="647" cy="534" r="2"></circle><circle cx="658" cy="534" r="2"></circle><circle cx="669" cy="534" r="2"></circle><circle cx="681" cy="534" r="2"></circle><circle cx="692" cy="534" r="2"></circle><circle cx="704" cy="534" r="2"></circle><circle cx="715" cy="534" r="2"></circle><circle cx="726" cy="534" r="2"></circle><circle cx="738" cy="534" r="2"></circle></g></g></g></g></g><g style="fill: #777;" class="SourcesFooter"><g style="fill: #777;" class="clickable"><text font-size="12.60" x="15.0" y="581.6"><tspan x="15" y="581.58">Source: World Bank</tspan></text></g><text font-size="12.60" x="775.4" y="581.6"><tspan x="775.402" y="581.58"><a style="fill: #777;" class="cclogo" href="http://creativecommons.org/licenses/by-sa/4.0/deed.en_US" target="_blank">CC BY-SA</a></tspan></text></g></g></svg>