<svg xmlns="http://www.w3.org/2000/svg" version="1.1" style="font-family: 'Helvetica Neue', Helvetica, Arial, sans-serif; font-size: 18px; background-color: white; text-rendering: optimizeLegibility; -webkit-font-smoothing: antialiased;" width="850" height="600"><g class="ChartTab"><g class="HeaderView"><g opacity="0.8" transform="translate(778, 15) scale(0.27)"><a xmlns:xlink="http://www.w3.org/1999/xlink" xlink:href="https://ourworldindata.org" target="_blank"><g><rect x="0" y="0" fill="#1B2543" width="211.2" height="130.1"/><rect x="0" y="112.2" fill="#E63912" width="211.2" height="17.9"/><g><rect x="1.2" y="12.3" fill="none" width="210.2" height="99.2"/><path fill="#FFFFFF" d="M37.8,32.2c0,12.7-7.7,19.4-17.1,19.4c-9.7,0-16.6-7.5-16.6-18.7c0-11.7,7.3-19.3,17.1-19.3 C31.3,13.7,37.8,21.3,37.8,32.2z M9.2,32.8c0,7.9,4.3,14.9,11.8,14.9c7.5,0,11.8-6.9,11.8-15.3c0-7.3-3.8-14.9-11.8-14.9 C13.1,17.5,9.2,24.8,9.2,32.8z"/><path fill="#FFFFFF" d="M62.7,43.8c0,2.7,0.1,5.1,0.2,7.2h-4.3l-0.3-4.3h-0.1c-1.3,2.1-4,4.9-8.8,4.9c-4.2,0-9.1-2.3-9.1-11.6 V24.6h4.8v14.6c0,5,1.5,8.4,5.9,8.4c3.2,0,5.5-2.2,6.3-4.4c0.3-0.7,0.4-1.6,0.4-2.5V24.6h4.8V43.8z"/><path fill="#FFFFFF" d="M67.3,32.8c0-3.1-0.1-5.8-0.2-8.2h4.2l0.2,5.2h0.2c1.2-3.5,4.1-5.8,7.3-5.8c0.5,0,0.9,0.1,1.4,0.2v4.5 c-0.5-0.1-1-0.2-1.6-0.2c-3.4,0-5.8,2.6-6.5,6.2c-0.1,0.7-0.2,1.4-0.2,2.2V51h-4.8V32.8z"/><path fill="#FFFFFF" d="M95.4,51l-9.4-36.8h5l4.4,18.6c1.1,4.6,2.1,9.2,2.7,12.7h0.1c0.6-3.7,1.8-8,3-12.8l4.9-18.5h5l4.5,18.7 c1,4.4,2,8.7,2.6,12.6h0.1c0.8-4,1.8-8.1,3-12.7l4.9-18.5h4.9L120.6,51h-5L111,31.9c-1.1-4.7-1.9-8.3-2.4-12h-0.1 c-0.7,3.7-1.5,7.3-2.8,12L100.4,51H95.4z"/><path fill="#FFFFFF" d="M154.9,37.6c0,9.8-6.8,14-13.2,14c-7.2,0-12.7-5.2-12.7-13.6c0-8.8,5.8-14,13.1-14 C149.8,24,154.9,29.5,154.9,37.6z M133.9,37.9c0,5.8,3.3,10.1,8,10.1c4.6,0,8-4.3,8-10.3c0-4.5-2.2-10.1-7.9-10.1 C136.3,27.6,133.9,32.8,133.9,37.9z"/><path fill="#FFFFFF" d="M158.2,32.8c0-3.1-0.1-5.8-0.2-8.2h4.2l0.2,5.2h0.2c1.2-3.5,4.1-5.8,7.3-5.8c0.5,0,0.9,0.1,1.4,0.2v4.5 c-0.5-0.1-1-0.2-1.6-0.2c-3.4,0-5.8,2.6-6.5,6.2c-0.1,0.7-0.2,1.4-0.2,2.2V51h-4.8V32.8z"/><path fill="#FFFFFF" d="M173.5,12.3h4.8V51h-4.8V12.3z"/><path fill="#FFFFFF" d="M206.5,12.3v31.9c0,2.3,0.1,5,0.2,6.8h-4.3l-0.2-4.6H202c-1.5,2.9-4.7,5.2-9,5.2 c-6.4,0-11.3-5.4-11.3-13.4c-0.1-8.8,5.4-14.2,11.9-14.2c4,0,6.8,1.9,8,4h0.1V12.3H206.5z M201.7,35.4c0-0.6-0.1-1.4-0.2-2 c-0.7-3.1-3.3-5.6-6.9-5.6c-5,0-7.9,4.4-7.9,10.2c0,5.3,2.6,9.8,7.8,9.8c3.2,0,6.2-2.1,7.1-5.7c0.2-0.7,0.2-1.3,0.2-2.1V35.4z"/><path fill="#FFFFFF" d="M42.8,64c0.1,1.6-1.1,2.9-3.1,2.9c-1.7,0-2.9-1.3-2.9-2.9c0-1.7,1.3-3,3-3C41.7,61,42.8,62.3,42.8,64z M37.4,97.8V71.4h4.8v26.4H37.4z"/><path fill="#FFFFFF" d="M47.5,78.6c0-2.7-0.1-5-0.2-7.1h4.3l0.3,4.4h0.1c1.3-2.5,4.4-5,8.8-5c3.7,0,9.4,2.2,9.4,11.2v15.8h-4.8 V82.6c0-4.3-1.6-7.8-6.1-7.8c-3.2,0-5.6,2.2-6.5,4.9c-0.2,0.6-0.3,1.4-0.3,2.2v15.9h-4.8V78.6z"/><path fill="#FFFFFF" d="M84,61.6c2.9-0.4,6.3-0.8,10.1-0.8c6.8,0,11.7,1.6,14.9,4.6c3.3,3,5.2,7.3,5.2,13.2c0,6-1.9,10.9-5.3,14.3 c-3.4,3.4-9.1,5.3-16.3,5.3c-3.4,0-6.2-0.2-8.6-0.4V61.6z M88.8,94.1c1.2,0.2,3,0.3,4.8,0.3c10.2,0,15.7-5.7,15.7-15.6 c0.1-8.7-4.9-14.2-14.9-14.2c-2.5,0-4.3,0.2-5.6,0.5V94.1z"/><path fill="#FFFFFF" d="M132.1,97.8l-0.4-3.3h-0.2c-1.5,2.1-4.3,3.9-8.1,3.9c-5.4,0-8.1-3.8-8.1-7.6c0-6.4,5.7-9.9,15.9-9.8v-0.5 c0-2.2-0.6-6.1-6-6.1c-2.5,0-5,0.8-6.9,2l-1.1-3.2c2.2-1.4,5.4-2.3,8.7-2.3c8.1,0,10.1,5.5,10.1,10.8v9.9c0,2.3,0.1,4.5,0.4,6.3 H132.1z M131.4,84.4c-5.3-0.1-11.2,0.8-11.2,5.9c0,3.1,2.1,4.6,4.5,4.6c3.4,0,5.6-2.2,6.4-4.4c0.2-0.5,0.3-1,0.3-1.5V84.4z"/><path fill="#FFFFFF" d="M146.6,63.9v7.6h6.9v3.7h-6.9v14.2c0,3.3,0.9,5.1,3.6,5.1c1.3,0,2.2-0.2,2.8-0.3l0.2,3.6 c-0.9,0.4-2.4,0.7-4.3,0.7c-2.2,0-4-0.7-5.2-2c-1.4-1.4-1.9-3.8-1.9-6.9V75.1h-4.1v-3.7h4.1v-6.3L146.6,63.9z"/><path fill="#FFFFFF" d="M171.4,97.8l-0.4-3.3h-0.2c-1.5,2.1-4.3,3.9-8.1,3.9c-5.4,0-8.1-3.8-8.1-7.6c0-6.4,5.7-9.9,15.9-9.8v-0.5 c0-2.2-0.6-6.1-6-6.1c-2.5,0-5,0.8-6.9,2l-1.1-3.2c2.2-1.4,5.4-2.3,8.7-2.3c8.1,0,10.1,5.5,10.1,10.8v9.9c0,2.3,0.1,4.5,0.4,6.3 H171.4z M170.7,84.4c-5.3-0.1-11.2,0.8-11.2,5.9c0,3.1,2.1,4.6,4.5,4.6c3.4,0,5.6-2.2,6.4-4.4c0.2-0.5,0.3-1,0.3-1.5V84.4z"/></g></g></a></g><a href="https://ourworldindata.org/grapher/number-of-child-deaths-slope-chart" target="_blank"><text font-size="25.20" x="15.0" y="35.2" fill="#555"><tspan x="15" y="35.160000000000004">Number of child deaths, 1960 vs 2015</tspan></text></a></g><g><g class="LabelledSlopes"><rect x="15" y="70" width="700" height="501.5" fill="rgba(0,0,0,0)" opacity="0"></rect><g class="gridlines"><line x1="281.039" y1="517.8694186916188" x2="448.96099999999996" y2="517.8694186916188" stroke="#eee" stroke-dasharray="3,2"></line><line x1="281.039" y1="438.52544104129123" x2="448.96099999999996" y2="438.52544104129123" stroke="#eee" stroke-dasharray="3,2"></line><line x1="281.039" y1="359.1814633909637" x2="448.96099999999996" y2="359.1814633909637" stroke="#eee" stroke-dasharray="3,2"></line><line x1="281.039" y1="279.8374857406362" x2="448.96099999999996" y2="279.8374857406362" stroke="#eee" stroke-dasharray="3,2"></line><line x1="281.039" y1="200.4935080903088" x2="448.96099999999996" y2="200.4935080903088" stroke="#eee" stroke-dasharray="3,2"></line><line x1="281.039" y1="121.14953043998128" x2="448.96099999999996" y2="121.14953043998128" stroke="#eee" stroke-dasharray="3,2"></line></g><g font-size="0.8em" class="axis"><text x="15" y="517.8694186916188" fill="#666" dominant-baseline="middle" text-anchor="start">10</text><text x="15" y="438.52544104129123" fill="#666" dominant-baseline="middle" text-anchor="start">100</text><text x="15" y="359.1814633909637" fill="#666" dominant-baseline="middle" text-anchor="start">1,000</text><text x="15" y="279.8374857406362" fill="#666" dominant-baseline="middle" text-anchor="start">10,000</text><text x="15" y="200.4935080903088" fill="#666" dominant-baseline="middle" text-anchor="start">100,000</text><text x="15" y="121.14953043998128" fill="#666" dominant-baseline="middle" text-anchor="start">1 million</text></g><g font-size="0.8em" class="axis"><text x="715" y="517.8694186916188" fill="#666" dominant-baseline="middle" text-anchor="end">10</text><text x="715" y="438.52544104129123" fill="#666" dominant-baseline="middle" text-anchor="end">100</text><text x="715" y="359.1814633909637" fill="#666" dominant-baseline="middle" text-anchor="end">1,000</text><text x="715" y="279.8374857406362" fill="#666" dominant-baseline="middle" text-anchor="end">10,000</text><text x="715" y="200.4935080903088" fill="#666" dominant-baseline="middle" text-anchor="end">100,000</text><text x="715" y="121.14953043998128" fill="#666" dominant-baseline="middle" text-anchor="end">1 million</text></g><line x1="281.039" y1="521.5" x2="281.039" y2="70" stroke="#333"></line><line x1="448.96099999999996" y1="521.5" x2="448.96099999999996" y2="70" stroke="#333"></line><text x="281.039" y="545.9" text-anchor="middle" fill="#666" font-size="18">1960</text><text x="448.96099999999996" y="545.9" text-anchor="middle" fill="#666" font-size="18">2017</text><g class="slopes"><g class="slope"><circle cx="281.039" cy="235.58069949790485" r="2" fill="#ff7f0e" opacity="0.5"></circle><line x1="281.039" y1="235.58069949790485" x2="448.96099999999996" y2="292.2019425870459" stroke="#ff7f0e" stroke-width="1" opacity="0.5"></line><circle cx="448.96099999999996" cy="292.2019425870459" r="2" fill="#ff7f0e" opacity="0.5"></circle></g><g class="slope"><text font-size="11.70" x="249.4" y="426.5" text-anchor="end" fill="#333"><tspan x="249.38299999999998" y="426.49198339882605">Seychelles</tspan></text><text x="273.039" y="426.49198339882605" text-anchor="end" font-size="11.700000000000001" fill="#333">157</text><circle cx="281.039" cy="422.98198339882606" r="2" fill="#5675c1" opacity="0.5"></circle><line x1="281.039" y1="422.98198339882606" x2="448.96099999999996" y2="492.30325817174634" stroke="#5675c1" stroke-width="1.0002713434547965" opacity="0.5"></line><circle cx="448.96099999999996" cy="492.30325817174634" r="2" fill="#5675c1" opacity="0.5"></circle></g><g class="slope"><circle cx="281.039" cy="386.0145901113196" r="2" fill="#a652ba" opacity="0.5"></circle><line x1="281.039" y1="386.0145901113196" x2="448.96099999999996" y2="416.772666776652" stroke="#a652ba" stroke-width="1.0006022390071714" opacity="0.5"></line><circle cx="448.96099999999996" cy="416.772666776652" r="2" fill="#a652ba" opacity="0.5"></circle></g><g class="slope"><circle cx="281.039" cy="322.0326458977258" r="2" fill="#d14e5b" opacity="0.5"></circle><line x1="281.039" y1="322.0326458977258" x2="448.96099999999996" y2="426.93106144435086" stroke="#d14e5b" stroke-width="1.0006501103985657" opacity="0.5"></line><circle cx="448.96099999999996" cy="426.93106144435086" r="2" fill="#d14e5b" opacity="0.5"></circle></g><g class="slope"><text font-size="11.70" x="239.6" y="319.3" text-anchor="end" fill="#333"><tspan x="239.555" y="319.346178858621">Uruguay</tspan></text><text x="273.039" y="319.346178858621" text-anchor="end" font-size="11.700000000000001" fill="#333">3,518</text><circle cx="281.039" cy="315.836178858621" r="2" fill="#69c487" opacity="0.5"></circle><line x1="281.039" y1="315.836178858621" x2="448.96099999999996" y2="391.2764021259084" stroke="#69c487" stroke-width="1.001191887123261" opacity="0.5"></line><circle cx="448.96099999999996" cy="391.2764021259084" r="2" fill="#69c487" opacity="0.5"></circle></g><g class="slope"><circle cx="281.039" cy="334.1777705474074" r="2" fill="#4d824b" opacity="0.5"></circle><line x1="281.039" y1="334.1777705474074" x2="448.96099999999996" y2="384.54491527020207" stroke="#4d824b" stroke-width="1.0013002424682" opacity="0.5"></line><circle cx="448.96099999999996" cy="384.54491527020207" r="2" fill="#4d824b" opacity="0.5"></circle></g><g class="slope"><text font-size="11.70" x="249.4" y="441.4" text-anchor="end" fill="#333"><tspan x="249.38299999999998" y="441.35306920522464">Iceland</tspan></text><text x="273.039" y="441.35306920522464" text-anchor="end" font-size="11.700000000000001" fill="#333">102</text><circle cx="281.039" cy="437.84306920522465" r="2" fill="#ffd336" opacity="0.5"></circle><line x1="281.039" y1="437.84306920522465" x2="448.96099999999996" y2="521.5" stroke="#ffd336" stroke-width="1.0013311887547147" opacity="0.5"></line><circle cx="448.96099999999996" cy="521.5" r="2" fill="#ffd336" opacity="0.5"></circle><text x="456.96099999999996" y="525.01" dominant-baseline="middle" font-size="11.700000000000001" fill="#333">9</text><text font-size="11.70" x="467.5" y="525.0" fill="#333"><tspan x="467.513" y="525.01">Iceland</tspan></text></g><g class="slope"><circle cx="281.039" cy="310.7208123457067" r="2" fill="#4d824b" opacity="0.5"></circle><line x1="281.039" y1="310.7208123457067" x2="448.96099999999996" y2="351.0267579566757" stroke="#4d824b" stroke-width="1.0017085687500686" opacity="0.5"></line><circle cx="448.96099999999996" cy="351.0267579566757" r="2" fill="#4d824b" opacity="0.5"></circle></g><g class="slope"><text font-size="11.70" x="249.4" y="380.9" text-anchor="end" fill="#333"><tspan x="249.38299999999998" y="380.872976257847">Barbados</tspan></text><text x="273.039" y="380.872976257847" text-anchor="end" font-size="11.700000000000001" fill="#333">590</text><circle cx="281.039" cy="377.362976257847" r="2" fill="#4d824b" opacity="0.5"></circle><line x1="281.039" y1="377.362976257847" x2="448.96099999999996" y2="468.4183409237052" stroke="#4d824b" stroke-width="1.0017711331262364" opacity="0.5"></line><circle cx="448.96099999999996" cy="468.4183409237052" r="2" fill="#4d824b" opacity="0.5"></circle><text x="456.96099999999996" y="471.9283409237052" dominant-baseline="middle" font-size="11.700000000000001" fill="#333">42</text><text font-size="11.70" x="474.1" y="471.9" fill="#333"><tspan x="474.06499999999994" y="471.9283409237052">Barbados</tspan></text></g><g class="slope"><circle cx="281.039" cy="317.3581330978428" r="2" fill="#5675c1" opacity="0.5"></circle><line x1="281.039" y1="317.3581330978428" x2="448.96099999999996" y2="334.06121544151915" stroke="#5675c1" stroke-width="1.0018636902618834" opacity="0.5"></line><circle cx="448.96099999999996" cy="334.06121544151915" r="2" fill="#5675c1" opacity="0.5"></circle></g><g class="slope"><circle cx="281.039" cy="249.27174214303483" r="2" fill="#4d824b" opacity="0.5"></circle><line x1="281.039" y1="249.27174214303483" x2="448.96099999999996" y2="295.2374809433467" stroke="#4d824b" stroke-width="1.0019287034688469" opacity="0.5"></line><circle cx="448.96099999999996" cy="295.2374809433467" r="2" fill="#4d824b" opacity="0.5"></circle></g><g class="slope"><circle cx="281.039" cy="341.2635309715482" r="2" fill="#a652ba" opacity="0.5"></circle><line x1="281.039" y1="341.2635309715482" x2="448.96099999999996" y2="397.9105790882089" stroke="#a652ba" stroke-width="1.002167085227713" opacity="0.5"></line><circle cx="448.96099999999996" cy="397.9105790882089" r="2" fill="#a652ba" opacity="0.5"></circle></g><g class="slope"><circle cx="281.039" cy="349.01940310423413" r="2" fill="#a652ba" opacity="0.5"></circle><line x1="281.039" y1="349.01940310423413" x2="448.96099999999996" y2="387.4713462591278" stroke="#a652ba" stroke-width="1.0025745663378909" opacity="0.5"></line><circle cx="448.96099999999996" cy="387.4713462591278" r="2" fill="#a652ba" opacity="0.5"></circle></g><g class="slope"><circle cx="281.039" cy="311.2054947707052" r="2" fill="#5675c1" opacity="0.5"></circle><line x1="281.039" y1="311.2054947707052" x2="448.96099999999996" y2="335.53860490212185" stroke="#5675c1" stroke-width="1.002622177676457" opacity="0.5"></line><circle cx="448.96099999999996" cy="335.53860490212185" r="2" fill="#5675c1" opacity="0.5"></circle></g><g class="slope"><text font-size="11.70" x="249.4" y="402.4" text-anchor="end" fill="#333"><tspan x="249.38299999999998" y="402.3882803258592">Malta</tspan></text><text x="273.039" y="402.3882803258592" text-anchor="end" font-size="11.700000000000001" fill="#333">316</text><circle cx="281.039" cy="398.87828032585924" r="2" fill="#ffd336" opacity="0.5"></circle><line x1="281.039" y1="398.87828032585924" x2="448.96099999999996" y2="483.6433018290269" stroke="#ffd336" stroke-width="1.0029054618902657" opacity="0.5"></line><circle cx="448.96099999999996" cy="483.6433018290269" r="2" fill="#ffd336" opacity="0.5"></circle><text x="456.96099999999996" y="487.1533018290269" dominant-baseline="middle" font-size="11.700000000000001" fill="#333">27</text><text font-size="11.70" x="474.1" y="487.2" fill="#333"><tspan x="474.06499999999994" y="487.1533018290269">Malta</tspan></text></g><g class="slope"><circle cx="281.039" cy="332.32697892679175" r="2" fill="#69c487" opacity="0.5"></circle><line x1="281.039" y1="332.32697892679175" x2="448.96099999999996" y2="383.4127016613049" stroke="#69c487" stroke-width="1.0035981125972544" opacity="0.5"></line><circle cx="448.96099999999996" cy="383.4127016613049" r="2" fill="#69c487" opacity="0.5"></circle></g><g class="slope"><circle cx="281.039" cy="265.2622502618897" r="2" fill="#4d824b" opacity="0.5"></circle><line x1="281.039" y1="265.2622502618897" x2="448.96099999999996" y2="335.40007747267987" stroke="#4d824b" stroke-width="1.0043341921264948" opacity="0.5"></line><circle cx="448.96099999999996" cy="335.40007747267987" r="2" fill="#4d824b" opacity="0.5"></circle></g><g class="slope"><circle cx="281.039" cy="293.89033979326473" r="2" fill="#d14e5b" opacity="0.5"></circle><line x1="281.039" y1="293.89033979326473" x2="448.96099999999996" y2="310.0932852608569" stroke="#d14e5b" stroke-width="1.0047026002992876" opacity="0.5"></line><circle cx="448.96099999999996" cy="310.0932852608569" r="2" fill="#d14e5b" opacity="0.5"></circle></g><g class="slope"><circle cx="281.039" cy="260.6465508296818" r="2" fill="#4d824b" opacity="0.5"></circle><line x1="281.039" y1="260.6465508296818" x2="448.96099999999996" y2="334.2779896728232" stroke="#4d824b" stroke-width="1.0047543291409615" opacity="0.5"></line><circle cx="448.96099999999996" cy="334.2779896728232" r="2" fill="#4d824b" opacity="0.5"></circle></g><g class="slope"><circle cx="281.039" cy="250.96171508052777" r="2" fill="#4d824b" opacity="0.5"></circle><line x1="281.039" y1="250.96171508052777" x2="448.96099999999996" y2="340.9170050827248" stroke="#4d824b" stroke-width="1.00537440343791" opacity="0.5"></line><circle cx="448.96099999999996" cy="340.9170050827248" r="2" fill="#4d824b" opacity="0.5"></circle></g><g class="slope"><circle cx="281.039" cy="294.328313118526" r="2" fill="#5675c1" opacity="0.5"></circle><line x1="281.039" y1="294.328313118526" x2="448.96099999999996" y2="302.27826146651853" stroke="#5675c1" stroke-width="1.0059890166254735" opacity="0.5"></line><circle cx="448.96099999999996" cy="302.27826146651853" r="2" fill="#5675c1" opacity="0.5"></circle></g><g class="slope"><circle cx="281.039" cy="240.7443487126851" r="2" fill="#d14e5b" opacity="0.5"></circle><line x1="281.039" y1="240.7443487126851" x2="448.96099999999996" y2="309.99393300077884" stroke="#d14e5b" stroke-width="1.0062195751284349" opacity="0.5"></line><circle cx="448.96099999999996" cy="309.99393300077884" r="2" fill="#d14e5b" opacity="0.5"></circle></g><g class="slope"><circle cx="281.039" cy="263.08634223353255" r="2" fill="#5675c1" opacity="0.5"></circle><line x1="281.039" y1="263.08634223353255" x2="448.96099999999996" y2="274.2686742092572" stroke="#5675c1" stroke-width="1.0067947903125785" opacity="0.5"></line><circle cx="448.96099999999996" cy="274.2686742092572" r="2" fill="#5675c1" opacity="0.5"></circle></g><g class="slope"><circle cx="281.039" cy="279.6484824404099" r="2" fill="#5675c1" opacity="0.5"></circle><line x1="281.039" y1="279.6484824404099" x2="448.96099999999996" y2="275.1475570131628" stroke="#5675c1" stroke-width="1.008293409746293" opacity="0.5"></line><circle cx="448.96099999999996" cy="275.1475570131628" r="2" fill="#5675c1" opacity="0.5"></circle></g><g class="slope"><circle cx="281.039" cy="331.37601255830657" r="2" fill="#ffd336" opacity="0.5"></circle><line x1="281.039" y1="331.37601255830657" x2="448.96099999999996" y2="428.1842414267405" stroke="#ffd336" stroke-width="1.0086684059240583" opacity="0.5"></line><circle cx="448.96099999999996" cy="428.1842414267405" r="2" fill="#ffd336" opacity="0.5"></circle></g><g class="slope"><circle cx="281.039" cy="301.8839934162659" r="2" fill="#4d824b" opacity="0.5"></circle><line x1="281.039" y1="301.8839934162659" x2="448.96099999999996" y2="370.1205081494316" stroke="#4d824b" stroke-width="1.0086900769930462" opacity="0.5"></line><circle cx="448.96099999999996" cy="370.1205081494316" r="2" fill="#4d824b" opacity="0.5"></circle></g><g class="slope"><circle cx="281.039" cy="257.18380402659864" r="2" fill="#5675c1" opacity="0.5"></circle><line x1="281.039" y1="257.18380402659864" x2="448.96099999999996" y2="258.28507975715627" stroke="#5675c1" stroke-width="1.0096649500314632" opacity="0.5"></line><circle cx="448.96099999999996" cy="258.28507975715627" r="2" fill="#5675c1" opacity="0.5"></circle></g><g class="slope"><circle cx="281.039" cy="299.885002500272" r="2" fill="#a652ba" opacity="0.5"></circle><line x1="281.039" y1="299.885002500272" x2="448.96099999999996" y2="355.772126192" stroke="#a652ba" stroke-width="1.0097519593734492" opacity="0.5"></line><circle cx="448.96099999999996" cy="355.772126192" r="2" fill="#a652ba" opacity="0.5"></circle></g><g class="slope"><circle cx="281.039" cy="237.67492958390847" r="2" fill="#69c487" opacity="0.5"></circle><line x1="281.039" y1="237.67492958390847" x2="448.96099999999996" y2="305.23692577109955" stroke="#69c487" stroke-width="1.0108355128228401" opacity="0.5"></line><circle cx="448.96099999999996" cy="305.23692577109955" r="2" fill="#69c487" opacity="0.5"></circle></g><g class="slope"><text font-size="11.70" x="239.6" y="350.5" text-anchor="end" fill="#333"><tspan x="239.55499999999998" y="350.4630072029553">Norway</tspan></text><text x="273.039" y="350.4630072029553" text-anchor="end" font-size="11.700000000000001" fill="#333">1,426</text><circle cx="281.039" cy="346.9530072029553" r="2" fill="#ffd336" opacity="0.5"></circle><line x1="281.039" y1="346.9530072029553" x2="448.96099999999996" y2="422.3297496994543" stroke="#ffd336" stroke-width="1.0108355128228401" opacity="0.5"></line><circle cx="448.96099999999996" cy="422.3297496994543" r="2" fill="#ffd336" opacity="0.5"></circle><text x="456.96099999999996" y="425.8397496994543" dominant-baseline="middle" font-size="11.700000000000001" fill="#333">160</text><text font-size="11.70" x="480.6" y="425.8" fill="#333"><tspan x="480.61699999999996" y="425.8397496994543">Norway</tspan></text></g><g class="slope"><circle cx="281.039" cy="238.87450035984466" r="2" fill="#5675c1" opacity="0.5"></circle><line x1="281.039" y1="238.87450035984466" x2="448.96099999999996" y2="232.90033170895663" stroke="#5675c1" stroke-width="1.0137948923327476" opacity="0.5"></line><circle cx="448.96099999999996" cy="232.90033170895663" r="2" fill="#5675c1" opacity="0.5"></circle></g><g class="slope"><circle cx="281.039" cy="336.3461293636543" r="2" fill="#ffd336" opacity="0.5"></circle><line x1="281.039" y1="336.3461293636543" x2="448.96099999999996" y2="406.1340583576174" stroke="#ffd336" stroke-width="1.0151697266204038" opacity="0.5"></line><circle cx="448.96099999999996" cy="406.1340583576174" r="2" fill="#ffd336" opacity="0.5"></circle></g><g class="slope"><circle cx="281.039" cy="243.45332782811056" r="2" fill="#69c487" opacity="0.5"></circle><line x1="281.039" y1="243.45332782811056" x2="448.96099999999996" y2="258.6408807735911" stroke="#69c487" stroke-width="1.0155598058621846" opacity="0.5"></line><circle cx="448.96099999999996" cy="258.6408807735911" r="2" fill="#69c487" opacity="0.5"></circle></g><g class="slope"><circle cx="281.039" cy="242.63828923627818" r="2" fill="#5675c1" opacity="0.5"></circle><line x1="281.039" y1="242.63828923627818" x2="448.96099999999996" y2="234.19612860892516" stroke="#5675c1" stroke-width="1.0161882668628313" opacity="0.5"></line><circle cx="448.96099999999996" cy="234.19612860892516" r="2" fill="#5675c1" opacity="0.5"></circle></g><g class="slope"><text font-size="11.70" x="233.0" y="266.5" text-anchor="end" fill="#333"><tspan x="233.003" y="266.52224895919835">Papua New Guinea</tspan></text><text x="273.039" y="266.52224895919835" text-anchor="end" font-size="11.700000000000001" fill="#333">16,295</text><circle cx="281.039" cy="263.01224895919836" r="2" fill="#a652ba" opacity="0.5"></circle><line x1="281.039" y1="263.01224895919836" x2="448.96099999999996" y2="273.9912866241519" stroke="#a652ba" stroke-width="1.016359338281421" opacity="0.5"></line><circle cx="448.96099999999996" cy="273.9912866241519" r="2" fill="#a652ba" opacity="0.5"></circle></g><g class="slope"><circle cx="281.039" cy="220.14624056182635" r="2" fill="#d14e5b" opacity="0.5"></circle><line x1="281.039" y1="220.14624056182635" x2="448.96099999999996" y2="234.44720630357966" stroke="#d14e5b" stroke-width="1.0216710473167492" opacity="0.5"></line><circle cx="448.96099999999996" cy="234.44720630357966" r="2" fill="#d14e5b" opacity="0.5"></circle></g><g class="slope"><circle cx="281.039" cy="192.22910141387524" r="2" fill="#4d824b" opacity="0.5"></circle><line x1="281.039" y1="192.22910141387524" x2="448.96099999999996" y2="245.78152908687412" stroke="#4d824b" stroke-width="1.0216710473167492" opacity="0.5"></line><circle cx="448.96099999999996" cy="245.78152908687412" r="2" fill="#4d824b" opacity="0.5"></circle></g><g class="slope"><circle cx="281.039" cy="228.11561032133278" r="2" fill="#5675c1" opacity="0.5"></circle><line x1="281.039" y1="228.11561032133278" x2="448.96099999999996" y2="248.66818856796397" stroke="#5675c1" stroke-width="1.0218852875047628" opacity="0.5"></line><circle cx="448.96099999999996" cy="248.66818856796397" r="2" fill="#5675c1" opacity="0.5"></circle></g><g class="slope"><circle cx="281.039" cy="247.3184658349693" r="2" fill="#5675c1" opacity="0.5"></circle><line x1="281.039" y1="247.3184658349693" x2="448.96099999999996" y2="246.0441705578619" stroke="#5675c1" stroke-width="1.02353072843087" opacity="0.5"></line><circle cx="448.96099999999996" cy="246.0441705578619" r="2" fill="#5675c1" opacity="0.5"></circle></g><g class="slope"><circle cx="281.039" cy="327.3464246363116" r="2" fill="#ffd336" opacity="0.5"></circle><line x1="281.039" y1="327.3464246363116" x2="448.96099999999996" y2="393.72258945937506" stroke="#ffd336" stroke-width="1.026005261114313" opacity="0.5"></line><circle cx="448.96099999999996" cy="393.72258945937506" r="2" fill="#ffd336" opacity="0.5"></circle></g><g class="slope"><circle cx="281.039" cy="201.97995689056484" r="2" fill="#69c487" opacity="0.5"></circle><line x1="281.039" y1="201.97995689056484" x2="448.96099999999996" y2="277.05494446067655" stroke="#69c487" stroke-width="1.02613528752824" opacity="0.5"></line><circle cx="448.96099999999996" cy="277.05494446067655" r="2" fill="#69c487" opacity="0.5"></circle></g><g class="slope"><circle cx="281.039" cy="236.88228101449374" r="2" fill="#d14e5b" opacity="0.5"></circle><line x1="281.039" y1="236.88228101449374" x2="448.96099999999996" y2="323.8131048871962" stroke="#d14e5b" stroke-width="1.0262869850111547" opacity="0.5"></line><circle cx="448.96099999999996" cy="323.8131048871962" r="2" fill="#d14e5b" opacity="0.5"></circle></g><g class="slope"><circle cx="281.039" cy="145.23183979642914" r="2" fill="#69c487" opacity="0.5"></circle><line x1="281.039" y1="145.23183979642914" x2="448.96099999999996" y2="229.35351662687106" stroke="#69c487" stroke-width="1.0270888145637038" opacity="0.5"></line><circle cx="448.96099999999996" cy="229.35351662687106" r="2" fill="#69c487" opacity="0.5"></circle></g><g class="slope"><circle cx="281.039" cy="199.7517294268452" r="2" fill="#69c487" opacity="0.5"></circle><line x1="281.039" y1="199.7517294268452" x2="448.96099999999996" y2="282.96257067674424" stroke="#69c487" stroke-width="1.0281723680130948" opacity="0.5"></line><circle cx="448.96099999999996" cy="282.96257067674424" r="2" fill="#69c487" opacity="0.5"></circle></g><g class="slope"><circle cx="281.039" cy="332.916847650058" r="2" fill="#ffd336" opacity="0.5"></circle><line x1="281.039" y1="332.916847650058" x2="448.96099999999996" y2="408.79141665096836" stroke="#ffd336" stroke-width="1.0296829065347526" opacity="0.5"></line><circle cx="448.96099999999996" cy="408.79141665096836" r="2" fill="#ffd336" opacity="0.5"></circle></g><g class="slope"><text font-size="11.70" x="239.6" y="336.9" text-anchor="end" fill="#333"><tspan x="239.55499999999998" y="336.92895674631774">Sweden</tspan></text><text x="273.039" y="336.92895674631774" text-anchor="end" font-size="11.700000000000001" fill="#333">2,112</text><circle cx="281.039" cy="333.41895674631775" r="2" fill="#ffd336" opacity="0.5"></circle><line x1="281.039" y1="333.41895674631775" x2="448.96099999999996" y2="396.15368561768184" stroke="#ffd336" stroke-width="1.029762157634041" opacity="0.5"></line><circle cx="448.96099999999996" cy="396.15368561768184" r="2" fill="#ffd336" opacity="0.5"></circle></g><g class="slope"><text font-size="11.70" x="239.6" y="292.7" text-anchor="end" fill="#333"><tspan x="239.55499999999998" y="292.72721692594484">Greece</tspan></text><text x="273.039" y="292.72721692594484" text-anchor="end" font-size="11.700000000000001" fill="#333">7,617</text><circle cx="281.039" cy="289.21721692594485" r="2" fill="#ffd336" opacity="0.5"></circle><line x1="281.039" y1="289.21721692594485" x2="448.96099999999996" y2="383.9034740702657" stroke="#ffd336" stroke-width="1.0325065818106585" opacity="0.5"></line><circle cx="448.96099999999996" cy="383.9034740702657" r="2" fill="#ffd336" opacity="0.5"></circle><text x="456.96099999999996" y="387.4134740702657" dominant-baseline="middle" font-size="11.700000000000001" fill="#333">488</text><text font-size="11.70" x="480.6" y="387.4" fill="#333"><tspan x="480.61699999999996" y="387.4134740702657">Greece</tspan></text></g><g class="slope"><circle cx="281.039" cy="286.696855292349" r="2" fill="#ffd336" opacity="0.5"></circle><line x1="281.039" y1="286.696855292349" x2="448.96099999999996" y2="390.9283319778667" stroke="#ffd336" stroke-width="1.0325065818106585" opacity="0.5"></line><circle cx="448.96099999999996" cy="390.9283319778667" r="2" fill="#ffd336" opacity="0.5"></circle></g><g class="slope"><circle cx="281.039" cy="210.47609110058363" r="2" fill="#5675c1" opacity="0.5"></circle><line x1="281.039" y1="210.47609110058363" x2="448.96099999999996" y2="219.13065489421308" stroke="#5675c1" stroke-width="1.0360914317136922" opacity="0.5"></line><circle cx="448.96099999999996" cy="219.13065489421308" r="2" fill="#5675c1" opacity="0.5"></circle></g><g class="slope"><circle cx="281.039" cy="192.187105591611" r="2" fill="#5675c1" opacity="0.5"></circle><line x1="281.039" y1="192.187105591611" x2="448.96099999999996" y2="252.26345721277374" stroke="#5675c1" stroke-width="1.0379243490576129" opacity="0.5"></line><circle cx="448.96099999999996" cy="252.26345721277374" r="2" fill="#5675c1" opacity="0.5"></circle></g><g class="slope"><circle cx="281.039" cy="219.20589797598348" r="2" fill="#5675c1" opacity="0.5"></circle><line x1="281.039" y1="219.20589797598348" x2="448.96099999999996" y2="212.46603674517945" stroke="#5675c1" stroke-width="1.0403093368839984" opacity="0.5"></line><circle cx="448.96099999999996" cy="212.46603674517945" r="2" fill="#5675c1" opacity="0.5"></circle></g><g class="slope"><circle cx="281.039" cy="195.53307674186084" r="2" fill="#d14e5b" opacity="0.5"></circle><line x1="281.039" y1="195.53307674186084" x2="448.96099999999996" y2="214.2122600211879" stroke="#d14e5b" stroke-width="1.0410534130376952" opacity="0.5"></line><circle cx="448.96099999999996" cy="214.2122600211879" r="2" fill="#d14e5b" opacity="0.5"></circle></g><g class="slope"><circle cx="281.039" cy="303.3727051839737" r="2" fill="#ffd336" opacity="0.5"></circle><line x1="281.039" y1="303.3727051839737" x2="448.96099999999996" y2="371.17789981154397" stroke="#ffd336" stroke-width="1.0411750094057857" opacity="0.5"></line><circle cx="448.96099999999996" cy="371.17789981154397" r="2" fill="#ffd336" opacity="0.5"></circle><text x="456.96099999999996" y="374.68789981154396" dominant-baseline="middle" font-size="11.700000000000001" fill="#333">706</text><text font-size="11.70" x="480.6" y="374.7" fill="#333"><tspan x="480.61699999999996" y="374.68789981154396">Netherlands</tspan></text></g><g class="slope"><circle cx="281.039" cy="301.4683544330776" r="2" fill="#ffd336" opacity="0.5"></circle><line x1="281.039" y1="301.4683544330776" x2="448.96099999999996" y2="384.0449882390396" stroke="#ffd336" stroke-width="1.0433421163045675" opacity="0.5"></line><circle cx="448.96099999999996" cy="384.0449882390396" r="2" fill="#ffd336" opacity="0.5"></circle></g><g class="slope"><circle cx="281.039" cy="249.71167618959197" r="2" fill="#ffd336" opacity="0.5"></circle><line x1="281.039" y1="249.71167618959197" x2="448.96099999999996" y2="400.78379690597296" stroke="#ffd336" stroke-width="1.0433421163045675" opacity="0.5"></line><circle cx="448.96099999999996" cy="400.78379690597296" r="2" fill="#ffd336" opacity="0.5"></circle></g><g class="slope"><circle cx="281.039" cy="217.52403335377232" r="2" fill="#5675c1" opacity="0.5"></circle><line x1="281.039" y1="217.52403335377232" x2="448.96099999999996" y2="229.74025122319068" stroke="#5675c1" stroke-width="1.0436895902247183" opacity="0.5"></line><circle cx="448.96099999999996" cy="229.74025122319068" r="2" fill="#5675c1" opacity="0.5"></circle></g><g class="slope"><circle cx="281.039" cy="212.19591241399104" r="2" fill="#5675c1" opacity="0.5"></circle><line x1="281.039" y1="212.19591241399104" x2="448.96099999999996" y2="206.1066663823596" stroke="#5675c1" stroke-width="1.0455394976867254" opacity="0.5"></line><circle cx="448.96099999999996" cy="206.1066663823596" r="2" fill="#5675c1" opacity="0.5"></circle></g><g class="slope"><text font-size="11.70" x="239.6" y="304.5" text-anchor="end" fill="#333"><tspan x="239.555" y="304.45939867588925">Austria</tspan></text><text x="273.039" y="304.45939867588925" text-anchor="end" font-size="11.700000000000001" fill="#333">5,419</text><circle cx="281.039" cy="300.94939867588926" r="2" fill="#ffd336" opacity="0.5"></circle><line x1="281.039" y1="300.94939867588926" x2="448.96099999999996" y2="400.55407171069777" stroke="#ffd336" stroke-width="1.0541776507984766" opacity="0.5"></line><circle cx="448.96099999999996" cy="400.55407171069777" r="2" fill="#ffd336" opacity="0.5"></circle><text x="456.96099999999996" y="404.06407171069776" dominant-baseline="middle" font-size="11.700000000000001" fill="#333">301</text><text font-size="11.70" x="480.6" y="404.1" fill="#333"><tspan x="480.61699999999996" y="404.06407171069776">Austria</tspan></text></g><g class="slope"><circle cx="281.039" cy="209.46936786743942" r="2" fill="#5675c1" opacity="0.5"></circle><line x1="281.039" y1="209.46936786743942" x2="448.96099999999996" y2="213.33884196787164" stroke="#5675c1" stroke-width="1.0557813099035753" opacity="0.5"></line><circle cx="448.96099999999996" cy="213.33884196787164" r="2" fill="#5675c1" opacity="0.5"></circle></g><g class="slope"><circle cx="281.039" cy="196.03290223430577" r="2" fill="#5675c1" opacity="0.5"></circle><line x1="281.039" y1="196.03290223430577" x2="448.96099999999996" y2="196.03169126800157" stroke="#5675c1" stroke-width="1.065441578984137" opacity="0.5"></line><circle cx="448.96099999999996" cy="196.03169126800157" r="2" fill="#5675c1" opacity="0.5"></circle></g><g class="slope"><circle cx="281.039" cy="218.797303062886" r="2" fill="#5675c1" opacity="0.5"></circle><line x1="281.039" y1="218.797303062886" x2="448.96099999999996" y2="207.40547825010725" stroke="#5675c1" stroke-width="1.0758440388353936" opacity="0.5"></line><circle cx="448.96099999999996" cy="207.40547825010725" r="2" fill="#5675c1" opacity="0.5"></circle></g><g class="slope"><circle cx="281.039" cy="188.6541145392457" r="2" fill="#d14e5b" opacity="0.5"></circle><line x1="281.039" y1="188.6541145392457" x2="448.96099999999996" y2="257.37898697532466" stroke="#d14e5b" stroke-width="1.0841053970706538" opacity="0.5"></line><circle cx="448.96099999999996" cy="257.37898697532466" r="2" fill="#d14e5b" opacity="0.5"></circle></g><g class="slope"><circle cx="281.039" cy="154.32715826477965" r="2" fill="#5675c1" opacity="0.5"></circle><line x1="281.039" y1="154.32715826477965" x2="448.96099999999996" y2="220.93477143125602" stroke="#5675c1" stroke-width="1.0975197887741133" opacity="0.5"></line><circle cx="448.96099999999996" cy="220.93477143125602" r="2" fill="#5675c1" opacity="0.5"></circle><text x="456.96099999999996" y="224.44477143125602" dominant-baseline="middle" font-size="11.700000000000001" fill="#333">55,255</text><text font-size="11.70" x="497.0" y="224.4" fill="#333"><tspan x="496.99699999999996" y="224.44477143125602">Egypt</tspan></text></g><g class="slope"><circle cx="281.039" cy="169.14560341488834" r="2" fill="#4d824b" opacity="0.5"></circle><line x1="281.039" y1="169.14560341488834" x2="448.96099999999996" y2="240.88091993835292" stroke="#4d824b" stroke-width="1.0975197887741133" opacity="0.5"></line><circle cx="448.96099999999996" cy="240.88091993835292" r="2" fill="#4d824b" opacity="0.5"></circle><text x="456.96099999999996" y="244.3909199383529" dominant-baseline="middle" font-size="11.700000000000001" fill="#333">30,973</text><text font-size="11.70" x="497.0" y="244.4" fill="#333"><tspan x="496.99699999999996" y="244.3909199383529">Mexico</tspan></text></g><g class="slope"><text font-size="11.70" x="226.5" y="187.0" text-anchor="end" fill="#333"><tspan x="226.45100000000002" y="187.00635474942334">Thailand</tspan></text><text x="273.039" y="187.00635474942334" text-anchor="end" font-size="11.700000000000001" fill="#333">163,765</text><circle cx="281.039" cy="183.49635474942335" r="2" fill="#d14e5b" opacity="0.5"></circle><line x1="281.039" y1="183.49635474942335" x2="448.96099999999996" y2="293.41184690808547" stroke="#d14e5b" stroke-width="1.1010955151571031" opacity="0.5"></line><circle cx="448.96099999999996" cy="293.41184690808547" r="2" fill="#d14e5b" opacity="0.5"></circle><text x="456.96099999999996" y="296.92184690808546" dominant-baseline="middle" font-size="11.700000000000001" fill="#333">6,744</text><text font-size="11.70" x="490.4" y="296.9" fill="#333"><tspan x="490.44499999999994" y="296.92184690808546">Thailand</tspan></text></g><g class="slope"><circle cx="281.039" cy="249.89472582057192" r="2" fill="#ffd336" opacity="0.5"></circle><line x1="281.039" y1="249.89472582057192" x2="448.96099999999996" y2="316.1411682019876" stroke="#ffd336" stroke-width="1.156044829380098" opacity="0.5"></line><circle cx="448.96099999999996" cy="316.1411682019876" r="2" fill="#ffd336" opacity="0.5"></circle></g><g class="slope"><text font-size="11.70" x="226.5" y="164.9" text-anchor="end" fill="#333"><tspan x="226.451" y="164.9487339755678">Turkey</tspan></text><text x="273.039" y="164.9487339755678" text-anchor="end" font-size="11.700000000000001" fill="#333">310,614</text><circle cx="281.039" cy="161.4387339755678" r="2" fill="#d14e5b" opacity="0.5"></circle><line x1="281.039" y1="161.4387339755678" x2="448.96099999999996" y2="265.9139807310663" stroke="#d14e5b" stroke-width="1.1820369578266043" opacity="0.5"></line><circle cx="448.96099999999996" cy="265.9139807310663" r="2" fill="#d14e5b" opacity="0.5"></circle><text x="456.96099999999996" y="269.4239807310663" dominant-baseline="middle" font-size="11.700000000000001" fill="#333">14,979</text><text font-size="11.70" x="497.0" y="269.4" fill="#333"><tspan x="496.99699999999996" y="269.4239807310663">Turkey</tspan></text></g><g class="slope"><circle cx="281.039" cy="241.9222575982231" r="2" fill="#ffd336" opacity="0.5"></circle><line x1="281.039" y1="241.9222575982231" x2="448.96099999999996" y2="351.7968157379746" stroke="#ffd336" stroke-width="1.1900552533520972" opacity="0.5"></line><circle cx="448.96099999999996" cy="351.7968157379746" r="2" fill="#ffd336" opacity="0.5"></circle></g><g class="slope"><text font-size="11.70" x="226.5" y="199.1" text-anchor="end" fill="#333"><tspan x="226.45100000000002" y="199.1264275028684">South Korea</tspan></text><text x="273.039" y="199.1264275028684" text-anchor="end" font-size="11.700000000000001" fill="#333">115,204</text><circle cx="281.039" cy="195.61642750286842" r="2" fill="#d14e5b" opacity="0.5"></circle><line x1="281.039" y1="195.61642750286842" x2="448.96099999999996" y2="345.6024437287165" stroke="#d14e5b" stroke-width="1.2035996714694837" opacity="0.5"></line><circle cx="448.96099999999996" cy="345.6024437287165" r="2" fill="#d14e5b" opacity="0.5"></circle></g><g class="slope"><circle cx="281.039" cy="146.02000444110894" r="2" fill="#d14e5b" opacity="0.5"></circle><line x1="281.039" y1="146.02000444110894" x2="448.96099999999996" y2="152.41168876745968" stroke="#d14e5b" stroke-width="1.2335513642728921" opacity="0.5"></line><circle cx="448.96099999999996" cy="152.41168876745968" r="2" fill="#d14e5b" opacity="0.5"></circle><text x="456.96099999999996" y="155.92168876745967" dominant-baseline="middle" font-size="11.700000000000001" fill="#333">403,638</text><text font-size="11.70" x="503.5" y="155.9" fill="#333"><tspan x="503.549" y="155.92168876745967">Pakistan</tspan></text></g><g class="slope"><text font-size="11.70" x="226.5" y="131.2" text-anchor="end" fill="#333"><tspan x="226.451" y="131.15962587628724">Indonesia</tspan></text><text x="273.039" y="131.15962587628724" text-anchor="end" font-size="11.700000000000001" fill="#333">828,089</text><circle cx="281.039" cy="127.64962587628725" r="2" fill="#d14e5b" opacity="0.5"></circle><line x1="281.039" y1="127.64962587628725" x2="448.96099999999996" y2="192.7456146122537" stroke="#d14e5b" stroke-width="1.2687858135634613" opacity="0.5"></line><circle cx="448.96099999999996" cy="192.7456146122537" r="2" fill="#d14e5b" opacity="0.5"></circle></g><g class="slope"><text font-size="11.70" x="233.0" y="230.8" text-anchor="end" fill="#333"><tspan x="233.003" y="230.7938695691032">Italy</tspan></text><text x="273.039" y="230.7938695691032" text-anchor="end" font-size="11.700000000000001" fill="#333">45,957</text><circle cx="281.039" cy="227.28386956910322" r="2" fill="#ffd336" opacity="0.5"></circle><line x1="281.039" y1="227.28386956910322" x2="448.96099999999996" y2="342.0090597270543" stroke="#ffd336" stroke-width="1.288225195866914" opacity="0.5"></line><circle cx="448.96099999999996" cy="342.0090597270543" r="2" fill="#ffd336" opacity="0.5"></circle><text x="456.96099999999996" y="345.5190597270543" dominant-baseline="middle" font-size="11.700000000000001" fill="#333">1,646</text><text font-size="11.70" x="490.4" y="345.5" fill="#333"><tspan x="490.44499999999994" y="345.5190597270543">Italy</tspan></text></g><g class="slope"><text font-size="11.70" x="226.5" y="143.7" text-anchor="end" fill="#333"><tspan x="226.451" y="143.70351852804333">Bangladesh</tspan></text><text x="273.039" y="143.70351852804333" text-anchor="end" font-size="11.700000000000001" fill="#333">575,416</text><circle cx="281.039" cy="140.19351852804334" r="2" fill="#d14e5b" opacity="0.5"></circle><line x1="281.039" y1="140.19351852804334" x2="448.96099999999996" y2="200.6288514514788" stroke="#d14e5b" stroke-width="1.3421747369932249" opacity="0.5"></line><circle cx="448.96099999999996" cy="200.6288514514788" r="2" fill="#d14e5b" opacity="0.5"></circle><text x="456.96099999999996" y="204.13885145147879" dominant-baseline="middle" font-size="11.700000000000001" fill="#333">99,608</text><text font-size="11.70" x="497.0" y="204.1" fill="#333"><tspan x="496.99699999999996" y="204.13885145147879">Bangladesh</tspan></text></g><g class="slope"><text font-size="11.70" x="233.0" y="253.9" text-anchor="end" fill="#333"><tspan x="233.003" y="253.8629883436146">France</tspan></text><text x="273.039" y="253.8629883436146" text-anchor="end" font-size="11.700000000000001" fill="#333">23,529</text><circle cx="281.039" cy="250.35298834361458" r="2" fill="#ffd336" opacity="0.5"></circle><line x1="281.039" y1="250.35298834361458" x2="448.96099999999996" y2="318.7260095170726" stroke="#ffd336" stroke-width="1.4652995005663771" opacity="0.5"></line><circle cx="448.96099999999996" cy="318.7260095170726" r="2" fill="#ffd336" opacity="0.5"></circle></g><g class="slope"><text font-size="11.70" x="233.0" y="218.8" text-anchor="end" fill="#333"><tspan x="233.003" y="218.81962093380758">Japan</tspan></text><text x="273.039" y="218.81962093380758" text-anchor="end" font-size="11.700000000000001" fill="#333">65,053</text><circle cx="281.039" cy="215.3096209338076" r="2" fill="#d14e5b" opacity="0.5"></circle><line x1="281.039" y1="215.3096209338076" x2="448.96099999999996" y2="325.1216592594822" stroke="#d14e5b" stroke-width="1.5851188410000243" opacity="0.5"></line><circle cx="448.96099999999996" cy="325.1216592594822" r="2" fill="#d14e5b" opacity="0.5"></circle><text x="456.96099999999996" y="328.6316592594822" dominant-baseline="middle" font-size="11.700000000000001" fill="#333">2,687</text><text font-size="11.70" x="490.4" y="328.6" fill="#333"><tspan x="490.44499999999994" y="328.6316592594822">Japan</tspan></text></g><g class="slope"><text font-size="11.70" x="209.7" y="73.5" text-anchor="end" fill="#333"><tspan x="209.71999999999997" y="73.51">India</tspan></text><text x="273.039" y="73.51" text-anchor="end" font-size="11.700000000000001" fill="#333">4.41 million</text><circle cx="281.039" cy="70" r="2" fill="#d14e5b" opacity="0.5"></circle><line x1="281.039" y1="70" x2="448.96099999999996" y2="121.52485766391317" stroke="#d14e5b" stroke-width="4" opacity="0.5"></line><circle cx="448.96099999999996" cy="121.52485766391317" r="2" fill="#d14e5b" opacity="0.5"></circle><text x="456.96099999999996" y="125.03485766391317" dominant-baseline="middle" font-size="11.700000000000001" fill="#333">989,167</text><text font-size="11.70" x="503.5" y="125.0" fill="#333"><tspan x="503.549" y="125.03485766391317">India</tspan></text></g></g></g><g style="cursor: pointer;" class="ScatterColorLegend clickable"><g class="legendMark"><rect x="735" y="67.5" width="43.256" height="17.6" fill="#fff" opacity="0"></rect>,<rect x="735" y="73" width="6" height="6" fill="#5675c1"></rect>,<text font-size="12.60" x="746.0" y="80.1"><tspan x="746" y="80.08">Africa</tspan></text></g><g class="legendMark"><rect x="735" y="85.1" width="35.57" height="17.6" fill="#fff" opacity="0"></rect>,<rect x="735" y="90.6" width="6" height="6" fill="#d14e5b"></rect>,<text font-size="12.60" x="746.0" y="97.7"><tspan x="746" y="97.67999999999999">Asia</tspan></text></g><g class="legendMark"><rect x="735" y="102.7" width="51.824" height="17.6" fill="#fff" opacity="0"></rect>,<rect x="735" y="108.2" width="6" height="6" fill="#ffd336"></rect>,<text font-size="12.60" x="746.0" y="115.3"><tspan x="746" y="115.28">Europe</tspan></text></g><g class="legendMark"><rect x="735" y="120.30000000000001" width="91.64" height="17.6" fill="#fff" opacity="0"></rect>,<rect x="735" y="125.80000000000001" width="6" height="6" fill="#4d824b"></rect>,<text font-size="12.60" x="746.0" y="132.9"><tspan x="746" y="132.88">North America</tspan></text></g><g class="legendMark"><rect x="735" y="137.9" width="58.124" height="17.6" fill="#fff" opacity="0"></rect>,<rect x="735" y="143.4" width="6" height="6" fill="#a652ba"></rect>,<text font-size="12.60" x="746.0" y="150.5"><tspan x="746" y="150.48">Oceania</tspan></text></g><g class="legendMark"><rect x="735" y="155.5" width="93.908" height="17.6" fill="#fff" opacity="0"></rect>,<rect x="735" y="161" width="6" height="6" fill="#69c487"></rect>,<text font-size="12.60" x="746.0" y="168.1"><tspan x="746" y="168.07999999999998">South America</tspan></text></g></g></g><g style="fill: #777;" class="SourcesFooter"><g style="fill: #777;" class="clickable"><text font-size="12.60" x="15.0" y="581.6"><tspan x="15" y="581.58">Source: World Bank</tspan></text></g><text font-size="12.60" x="775.4" y="581.6"><tspan x="775.402" y="581.58"><a style="fill: #777;" class="cclogo" href="http://creativecommons.org/licenses/by-sa/4.0/deed.en_US" target="_blank">CC BY-SA</a></tspan></text></g></g></svg>