<svg xmlns="http://www.w3.org/2000/svg" version="1.1" style="font-family: 'Helvetica Neue', Helvetica, Arial, sans-serif; font-size: 18px; background-color: white; text-rendering: optimizeLegibility; -webkit-font-smoothing: antialiased;" width="850" height="600"><g class="ChartTab"><g class="HeaderView"><g opacity="0.8" transform="translate(778, 15) scale(0.27)"><a xmlns:xlink="http://www.w3.org/1999/xlink" xlink:href="https://ourworldindata.org" target="_blank"><g><rect x="0" y="0" fill="#1B2543" width="211.2" height="130.1"/><rect x="0" y="112.2" fill="#E63912" width="211.2" height="17.9"/><g><rect x="1.2" y="12.3" fill="none" width="210.2" height="99.2"/><path fill="#FFFFFF" d="M37.8,32.2c0,12.7-7.7,19.4-17.1,19.4c-9.7,0-16.6-7.5-16.6-18.7c0-11.7,7.3-19.3,17.1-19.3 C31.3,13.7,37.8,21.3,37.8,32.2z M9.2,32.8c0,7.9,4.3,14.9,11.8,14.9c7.5,0,11.8-6.9,11.8-15.3c0-7.3-3.8-14.9-11.8-14.9 C13.1,17.5,9.2,24.8,9.2,32.8z"/><path fill="#FFFFFF" d="M62.7,43.8c0,2.7,0.1,5.1,0.2,7.2h-4.3l-0.3-4.3h-0.1c-1.3,2.1-4,4.9-8.8,4.9c-4.2,0-9.1-2.3-9.1-11.6 V24.6h4.8v14.6c0,5,1.5,8.4,5.9,8.4c3.2,0,5.5-2.2,6.3-4.4c0.3-0.7,0.4-1.6,0.4-2.5V24.6h4.8V43.8z"/><path fill="#FFFFFF" d="M67.3,32.8c0-3.1-0.1-5.8-0.2-8.2h4.2l0.2,5.2h0.2c1.2-3.5,4.1-5.8,7.3-5.8c0.5,0,0.9,0.1,1.4,0.2v4.5 c-0.5-0.1-1-0.2-1.6-0.2c-3.4,0-5.8,2.6-6.5,6.2c-0.1,0.7-0.2,1.4-0.2,2.2V51h-4.8V32.8z"/><path fill="#FFFFFF" d="M95.4,51l-9.4-36.8h5l4.4,18.6c1.1,4.6,2.1,9.2,2.7,12.7h0.1c0.6-3.7,1.8-8,3-12.8l4.9-18.5h5l4.5,18.7 c1,4.4,2,8.7,2.6,12.6h0.1c0.8-4,1.8-8.1,3-12.7l4.9-18.5h4.9L120.6,51h-5L111,31.9c-1.1-4.7-1.9-8.3-2.4-12h-0.1 c-0.7,3.7-1.5,7.3-2.8,12L100.4,51H95.4z"/><path fill="#FFFFFF" d="M154.9,37.6c0,9.8-6.8,14-13.2,14c-7.2,0-12.7-5.2-12.7-13.6c0-8.8,5.8-14,13.1-14 C149.8,24,154.9,29.5,154.9,37.6z M133.9,37.9c0,5.8,3.3,10.1,8,10.1c4.6,0,8-4.3,8-10.3c0-4.5-2.2-10.1-7.9-10.1 C136.3,27.6,133.9,32.8,133.9,37.9z"/><path fill="#FFFFFF" d="M158.2,32.8c0-3.1-0.1-5.8-0.2-8.2h4.2l0.2,5.2h0.2c1.2-3.5,4.1-5.8,7.3-5.8c0.5,0,0.9,0.1,1.4,0.2v4.5 c-0.5-0.1-1-0.2-1.6-0.2c-3.4,0-5.8,2.6-6.5,6.2c-0.1,0.7-0.2,1.4-0.2,2.2V51h-4.8V32.8z"/><path fill="#FFFFFF" d="M173.5,12.3h4.8V51h-4.8V12.3z"/><path fill="#FFFFFF" d="M206.5,12.3v31.9c0,2.3,0.1,5,0.2,6.8h-4.3l-0.2-4.6H202c-1.5,2.9-4.7,5.2-9,5.2 c-6.4,0-11.3-5.4-11.3-13.4c-0.1-8.8,5.4-14.2,11.9-14.2c4,0,6.8,1.9,8,4h0.1V12.3H206.5z M201.7,35.4c0-0.6-0.1-1.4-0.2-2 c-0.7-3.1-3.3-5.6-6.9-5.6c-5,0-7.9,4.4-7.9,10.2c0,5.3,2.6,9.8,7.8,9.8c3.2,0,6.2-2.1,7.1-5.7c0.2-0.7,0.2-1.3,0.2-2.1V35.4z"/><path fill="#FFFFFF" d="M42.8,64c0.1,1.6-1.1,2.9-3.1,2.9c-1.7,0-2.9-1.3-2.9-2.9c0-1.7,1.3-3,3-3C41.7,61,42.8,62.3,42.8,64z M37.4,97.8V71.4h4.8v26.4H37.4z"/><path fill="#FFFFFF" d="M47.5,78.6c0-2.7-0.1-5-0.2-7.1h4.3l0.3,4.4h0.1c1.3-2.5,4.4-5,8.8-5c3.7,0,9.4,2.2,9.4,11.2v15.8h-4.8 V82.6c0-4.3-1.6-7.8-6.1-7.8c-3.2,0-5.6,2.2-6.5,4.9c-0.2,0.6-0.3,1.4-0.3,2.2v15.9h-4.8V78.6z"/><path fill="#FFFFFF" d="M84,61.6c2.9-0.4,6.3-0.8,10.1-0.8c6.8,0,11.7,1.6,14.9,4.6c3.3,3,5.2,7.3,5.2,13.2c0,6-1.9,10.9-5.3,14.3 c-3.4,3.4-9.1,5.3-16.3,5.3c-3.4,0-6.2-0.2-8.6-0.4V61.6z M88.8,94.1c1.2,0.2,3,0.3,4.8,0.3c10.2,0,15.7-5.7,15.7-15.6 c0.1-8.7-4.9-14.2-14.9-14.2c-2.5,0-4.3,0.2-5.6,0.5V94.1z"/><path fill="#FFFFFF" d="M132.1,97.8l-0.4-3.3h-0.2c-1.5,2.1-4.3,3.9-8.1,3.9c-5.4,0-8.1-3.8-8.1-7.6c0-6.4,5.7-9.9,15.9-9.8v-0.5 c0-2.2-0.6-6.1-6-6.1c-2.5,0-5,0.8-6.9,2l-1.1-3.2c2.2-1.4,5.4-2.3,8.7-2.3c8.1,0,10.1,5.5,10.1,10.8v9.9c0,2.3,0.1,4.5,0.4,6.3 H132.1z M131.4,84.4c-5.3-0.1-11.2,0.8-11.2,5.9c0,3.1,2.1,4.6,4.5,4.6c3.4,0,5.6-2.2,6.4-4.4c0.2-0.5,0.3-1,0.3-1.5V84.4z"/><path fill="#FFFFFF" d="M146.6,63.9v7.6h6.9v3.7h-6.9v14.2c0,3.3,0.9,5.1,3.6,5.1c1.3,0,2.2-0.2,2.8-0.3l0.2,3.6 c-0.9,0.4-2.4,0.7-4.3,0.7c-2.2,0-4-0.7-5.2-2c-1.4-1.4-1.9-3.8-1.9-6.9V75.1h-4.1v-3.7h4.1v-6.3L146.6,63.9z"/><path fill="#FFFFFF" d="M171.4,97.8l-0.4-3.3h-0.2c-1.5,2.1-4.3,3.9-8.1,3.9c-5.4,0-8.1-3.8-8.1-7.6c0-6.4,5.7-9.9,15.9-9.8v-0.5 c0-2.2-0.6-6.1-6-6.1c-2.5,0-5,0.8-6.9,2l-1.1-3.2c2.2-1.4,5.4-2.3,8.7-2.3c8.1,0,10.1,5.5,10.1,10.8v9.9c0,2.3,0.1,4.5,0.4,6.3 H171.4z M170.7,84.4c-5.3-0.1-11.2,0.8-11.2,5.9c0,3.1,2.1,4.6,4.5,4.6c3.4,0,5.6-2.2,6.4-4.4c0.2-0.5,0.3-1,0.3-1.5V84.4z"/></g></g></a></g><a href="https://ourworldindata.org/grapher/percentage-of-children-underweight-low-weight-for-age" target="_blank"><text font-size="25.20" x="15.0" y="35.2" fill="#555"><tspan x="15" y="35.160000000000004">Percentage of children underweight (low weight for age)</tspan></text></a><text font-size="14.40" x="15.0" y="53.7" fill="#666"><tspan x="15" y="53.72">Share of children aged under five who are defined as underweight (low weight for age), measured as the percentage</tspan><tspan x="15" y="69.56">of the total under-5 population.</tspan></text></g><g class="LineChart"><defs><clipPath id="boundsClip-649"><rect x="42.562" y="0" width="830" height="928.8"></rect></clipPath></defs><g class="AxisBoxView"><g class="HorizontalAxis"><text x="52.6" y="556.5" fill="#666" text-anchor="middle" font-size="16.2">1986</text><text x="139.8" y="556.5" fill="#666" text-anchor="middle" font-size="16.2">1990</text><text x="248.7" y="556.5" fill="#666" text-anchor="middle" font-size="16.2">1995</text><text x="357.7" y="556.5" fill="#666" text-anchor="middle" font-size="16.2">2000</text><text x="466.7" y="556.5" fill="#666" text-anchor="middle" font-size="16.2">2005</text><text x="575.7" y="556.5" fill="#666" text-anchor="middle" font-size="16.2">2010</text><text x="684.7" y="556.5" fill="#666" text-anchor="middle" font-size="16.2">2015</text><text x="728.3" y="556.5" fill="#666" text-anchor="middle" font-size="16.2">2017</text></g><g class="VerticalAxis"><text x="47.56" y="535.3" fill="#666" dominant-baseline="middle" text-anchor="end" font-size="16.2">0%</text><text x="47.56" y="469" fill="#666" dominant-baseline="middle" text-anchor="end" font-size="16.2">10%</text><text x="47.56" y="402.6" fill="#666" dominant-baseline="middle" text-anchor="end" font-size="16.2">20%</text><text x="47.56" y="336.3" fill="#666" dominant-baseline="middle" text-anchor="end" font-size="16.2">30%</text><text x="47.56" y="269.9" fill="#666" dominant-baseline="middle" text-anchor="end" font-size="16.2">40%</text><text x="47.56" y="203.6" fill="#666" dominant-baseline="middle" text-anchor="end" font-size="16.2">50%</text><text x="47.56" y="137.2" fill="#666" dominant-baseline="middle" text-anchor="end" font-size="16.2">60%</text></g><g class="AxisGridLines"><line x1="52.56" y1="535.3" x2="728.32" y2="535.3" stroke="#ccc"></line><line x1="52.56" y1="469" x2="728.32" y2="469" stroke="#ddd" stroke-dasharray="3,2"></line><line x1="52.56" y1="402.6" x2="728.32" y2="402.6" stroke="#ddd" stroke-dasharray="3,2"></line><line x1="52.56" y1="336.3" x2="728.32" y2="336.3" stroke="#ddd" stroke-dasharray="3,2"></line><line x1="52.56" y1="269.9" x2="728.32" y2="269.9" stroke="#ddd" stroke-dasharray="3,2"></line><line x1="52.56" y1="203.6" x2="728.32" y2="203.6" stroke="#ddd" stroke-dasharray="3,2"></line><line x1="52.56" y1="137.2" x2="728.32" y2="137.2" stroke="#ddd" stroke-dasharray="3,2"></line></g></g><g clip-path="url(#boundsClip-649)"><g class="HeightedLegend clickable"><g class="legendMark"><g class="indicator"><line x1="733.315" y1="298.4" x2="745.815" y2="298.4" stroke="#666" stroke-width="0.5"></line><line x1="745.815" y1="298.4" x2="745.815" y2="298.4" stroke="#666" stroke-width="0.5"></line><line x1="745.815" y1="298.4" x2="758.315" y2="298.4" stroke="#666" stroke-width="0.5"></line></g><rect x="728.315" y="291.65" width="64.43" height="13.5" fill="#fff" opacity="0"></rect><text font-size="13.50" x="763.3" y="302.4" fill="#2a939b"><tspan x="763.315" y="302.45">India</tspan></text></g><g class="legendMark"><g class="indicator"><line x1="733.315" y1="316.4" x2="755.815" y2="316.4" stroke="#666" stroke-width="0.5"></line><line x1="755.815" y1="316.4" x2="755.815" y2="316.4" stroke="#666" stroke-width="0.5"></line><line x1="755.815" y1="316.4" x2="758.315" y2="316.4" stroke="#666" stroke-width="0.5"></line></g><rect x="728.315" y="309.65" width="74.285" height="13.5" fill="#fff" opacity="0"></rect><text font-size="13.50" x="763.3" y="320.4" fill="#a652ba"><tspan x="763.315" y="320.45">Sudan</tspan></text></g><g class="legendMark"><g class="indicator"><line x1="733.315" y1="319" x2="745.815" y2="319" stroke="#666" stroke-width="0.5"></line><line x1="745.815" y1="319" x2="745.815" y2="331.9" stroke="#666" stroke-width="0.5"></line><line x1="745.815" y1="331.9" x2="758.315" y2="331.9" stroke="#666" stroke-width="0.5"></line></g><rect x="728.315" y="325.15" width="106.685" height="13.5" fill="#fff" opacity="0"></rect><text font-size="13.50" x="763.3" y="335.9" fill="#f6a324"><tspan x="763.315" y="335.95">Bangladesh</tspan></text></g><g class="legendMark"><g class="indicator"><line x1="733.315" y1="445.7" x2="752.4816666666667" y2="445.7" stroke="#666" stroke-width="0.5"></line><line x1="752.4816666666667" y1="445.7" x2="752.4816666666667" y2="445.7" stroke="#666" stroke-width="0.5"></line><line x1="752.4816666666667" y1="445.7" x2="758.315" y2="445.7" stroke="#666" stroke-width="0.5"></line></g><rect x="728.315" y="438.95" width="70.235" height="13.5" fill="#fff" opacity="0"></rect><text font-size="13.50" x="763.3" y="449.8" fill="#34983f"><tspan x="763.315" y="449.75">World</tspan></text></g><g class="legendMark"><g class="indicator"><line x1="733.315" y1="445.7" x2="745.815" y2="445.7" stroke="#666" stroke-width="0.5"></line><line x1="745.815" y1="445.7" x2="745.815" y2="461.2" stroke="#666" stroke-width="0.5"></line><line x1="745.815" y1="461.2" x2="758.315" y2="461.2" stroke="#666" stroke-width="0.5"></line></g><rect x="728.315" y="454.45" width="84.815" height="13.5" fill="#fff" opacity="0"></rect><text font-size="13.50" x="763.3" y="465.3" fill="#ca2628"><tspan x="763.315" y="465.25">Senegal</tspan></text></g><g class="legendMark"><g class="indicator"><line x1="733.315" y1="462.3" x2="739.1483333333334" y2="462.3" stroke="#666" stroke-width="0.5"></line><line x1="739.1483333333334" y1="462.3" x2="739.1483333333334" y2="476.7" stroke="#666" stroke-width="0.5"></line><line x1="739.1483333333334" y1="476.7" x2="758.315" y2="476.7" stroke="#666" stroke-width="0.5"></line></g><rect x="728.315" y="469.95" width="73.475" height="13.5" fill="#fff" opacity="0"></rect><text font-size="13.50" x="763.3" y="480.8" fill="#3360a9"><tspan x="763.315" y="480.75">Kenya</tspan></text></g></g><g class="Lines"><rect x="53" y="92" width="676" height="443" fill="rgba(255,255,255,0)" opacity="0"></rect><g class="key-World_0"><path stroke="#34983f" stroke-linecap="round" d="M140 370L249 385L358 397L467 412L576 427L598 430L619 433L641 436L663 438L685 441L707 444L728 446" fill="none" stroke-width="1.5"></path><g fill="#34983f"><circle cx="140" cy="370" r="2"></circle><circle cx="249" cy="385" r="2"></circle><circle cx="358" cy="397" r="2"></circle><circle cx="467" cy="412" r="2"></circle><circle cx="576" cy="427" r="2"></circle><circle cx="598" cy="430" r="2"></circle><circle cx="619" cy="433" r="2"></circle><circle cx="641" cy="436" r="2"></circle><circle cx="663" cy="438" r="2"></circle><circle cx="685" cy="441" r="2"></circle><circle cx="707" cy="444" r="2"></circle><circle cx="728" cy="446" r="2"></circle></g></g><g class="key-India_0"><path stroke="#2a939b" stroke-linecap="round" d="M118 167L183 185L205 196L292 281L336 228L489 247L663 340L685 298" fill="none" stroke-width="1.5"></path><g fill="#2a939b"><circle cx="118" cy="167" r="2"></circle><circle cx="183" cy="185" r="2"></circle><circle cx="205" cy="196" r="2"></circle><circle cx="292" cy="281" r="2"></circle><circle cx="336" cy="228" r="2"></circle><circle cx="489" cy="247" r="2"></circle><circle cx="663" cy="340" r="2"></circle><circle cx="685" cy="298" r="2"></circle></g></g><g class="key-Kenya_0"><path stroke="#3360a9" stroke-linecap="round" d="M205 402L227 404L314 419L358 419L423 426L467 413L554 427L663 462" fill="none" stroke-width="1.5"></path><g fill="#3360a9"><circle cx="205" cy="402" r="2"></circle><circle cx="227" cy="404" r="2"></circle><circle cx="314" cy="419" r="2"></circle><circle cx="358" cy="419" r="2"></circle><circle cx="423" cy="426" r="2"></circle><circle cx="467" cy="413" r="2"></circle><circle cx="554" cy="427" r="2"></circle><circle cx="663" cy="462" r="2"></circle></g></g><g class="key-Senegal_0"><path stroke="#ca2628" stroke-linecap="round" d="M53 423L183 400L205 390L271 405L358 401L467 439L598 408L619 440L641 424L663 450L685 433L707 446" fill="none" stroke-width="1.5"></path><g fill="#ca2628"><circle cx="53" cy="423" r="2"></circle><circle cx="183" cy="400" r="2"></circle><circle cx="205" cy="390" r="2"></circle><circle cx="271" cy="405" r="2"></circle><circle cx="358" cy="401" r="2"></circle><circle cx="467" cy="439" r="2"></circle><circle cx="598" cy="408" r="2"></circle><circle cx="619" cy="440" r="2"></circle><circle cx="641" cy="424" r="2"></circle><circle cx="663" cy="450" r="2"></circle><circle cx="685" cy="433" r="2"></circle><circle cx="707" cy="446" r="2"></circle></g></g><g class="key-Sudan_0"><path stroke="#a652ba" stroke-linecap="round" d="M489 356L576 338L663 316" fill="none" stroke-width="1.5"></path><g fill="#a652ba"><circle cx="489" cy="356" r="2"></circle><circle cx="576" cy="338" r="2"></circle><circle cx="663" cy="316" r="2"></circle></g></g><g class="key-Bangladesh_0"><path stroke="#f6a324" stroke-linecap="round" d="M53 92L140 127L162 129L183 133L205 163L227 151L249 169L271 177L292 187L314 199L336 207L358 255L380 249L401 263L423 277L445 252L467 288L489 284L510 261L598 291L619 324L641 302L663 319" fill="none" stroke-width="1.5"></path><g fill="#f6a324"><circle cx="53" cy="92" r="2"></circle><circle cx="140" cy="127" r="2"></circle><circle cx="162" cy="129" r="2"></circle><circle cx="183" cy="133" r="2"></circle><circle cx="205" cy="163" r="2"></circle><circle cx="227" cy="151" r="2"></circle><circle cx="249" cy="169" r="2"></circle><circle cx="271" cy="177" r="2"></circle><circle cx="292" cy="187" r="2"></circle><circle cx="314" cy="199" r="2"></circle><circle cx="336" cy="207" r="2"></circle><circle cx="358" cy="255" r="2"></circle><circle cx="380" cy="249" r="2"></circle><circle cx="401" cy="263" r="2"></circle><circle cx="423" cy="277" r="2"></circle><circle cx="445" cy="252" r="2"></circle><circle cx="467" cy="288" r="2"></circle><circle cx="489" cy="284" r="2"></circle><circle cx="510" cy="261" r="2"></circle><circle cx="598" cy="291" r="2"></circle><circle cx="619" cy="324" r="2"></circle><circle cx="641" cy="302" r="2"></circle><circle cx="663" cy="319" r="2"></circle></g></g></g></g></g><g style="fill: #777;" class="SourcesFooter"><g style="fill: #777;" class="clickable"><text font-size="12.60" x="15.0" y="581.6"><tspan x="15" y="581.58">Source: World Bank</tspan></text></g><text font-size="12.60" x="775.4" y="581.6"><tspan x="775.402" y="581.58"><a style="fill: #777;" class="cclogo" href="http://creativecommons.org/licenses/by-sa/4.0/deed.en_US" target="_blank">CC BY-SA</a></tspan></text></g></g></svg>