<svg xmlns="http://www.w3.org/2000/svg" version="1.1" style="font-family: 'Helvetica Neue', Helvetica, Arial, sans-serif; font-size: 18px; background-color: white; text-rendering: optimizeLegibility; -webkit-font-smoothing: antialiased;" width="850" height="600"><g class="ChartTab"><g class="HeaderView"><g opacity="0.8" transform="translate(778, 15) scale(0.27)"><a xmlns:xlink="http://www.w3.org/1999/xlink" xlink:href="https://ourworldindata.org" target="_blank"><g><rect x="0" y="0" fill="#1B2543" width="211.2" height="130.1"/><rect x="0" y="112.2" fill="#E63912" width="211.2" height="17.9"/><g><rect x="1.2" y="12.3" fill="none" width="210.2" height="99.2"/><path fill="#FFFFFF" d="M37.8,32.2c0,12.7-7.7,19.4-17.1,19.4c-9.7,0-16.6-7.5-16.6-18.7c0-11.7,7.3-19.3,17.1-19.3 C31.3,13.7,37.8,21.3,37.8,32.2z M9.2,32.8c0,7.9,4.3,14.9,11.8,14.9c7.5,0,11.8-6.9,11.8-15.3c0-7.3-3.8-14.9-11.8-14.9 C13.1,17.5,9.2,24.8,9.2,32.8z"/><path fill="#FFFFFF" d="M62.7,43.8c0,2.7,0.1,5.1,0.2,7.2h-4.3l-0.3-4.3h-0.1c-1.3,2.1-4,4.9-8.8,4.9c-4.2,0-9.1-2.3-9.1-11.6 V24.6h4.8v14.6c0,5,1.5,8.4,5.9,8.4c3.2,0,5.5-2.2,6.3-4.4c0.3-0.7,0.4-1.6,0.4-2.5V24.6h4.8V43.8z"/><path fill="#FFFFFF" d="M67.3,32.8c0-3.1-0.1-5.8-0.2-8.2h4.2l0.2,5.2h0.2c1.2-3.5,4.1-5.8,7.3-5.8c0.5,0,0.9,0.1,1.4,0.2v4.5 c-0.5-0.1-1-0.2-1.6-0.2c-3.4,0-5.8,2.6-6.5,6.2c-0.1,0.7-0.2,1.4-0.2,2.2V51h-4.8V32.8z"/><path fill="#FFFFFF" d="M95.4,51l-9.4-36.8h5l4.4,18.6c1.1,4.6,2.1,9.2,2.7,12.7h0.1c0.6-3.7,1.8-8,3-12.8l4.9-18.5h5l4.5,18.7 c1,4.4,2,8.7,2.6,12.6h0.1c0.8-4,1.8-8.1,3-12.7l4.9-18.5h4.9L120.6,51h-5L111,31.9c-1.1-4.7-1.9-8.3-2.4-12h-0.1 c-0.7,3.7-1.5,7.3-2.8,12L100.4,51H95.4z"/><path fill="#FFFFFF" d="M154.9,37.6c0,9.8-6.8,14-13.2,14c-7.2,0-12.7-5.2-12.7-13.6c0-8.8,5.8-14,13.1-14 C149.8,24,154.9,29.5,154.9,37.6z M133.9,37.9c0,5.8,3.3,10.1,8,10.1c4.6,0,8-4.3,8-10.3c0-4.5-2.2-10.1-7.9-10.1 C136.3,27.6,133.9,32.8,133.9,37.9z"/><path fill="#FFFFFF" d="M158.2,32.8c0-3.1-0.1-5.8-0.2-8.2h4.2l0.2,5.2h0.2c1.2-3.5,4.1-5.8,7.3-5.8c0.5,0,0.9,0.1,1.4,0.2v4.5 c-0.5-0.1-1-0.2-1.6-0.2c-3.4,0-5.8,2.6-6.5,6.2c-0.1,0.7-0.2,1.4-0.2,2.2V51h-4.8V32.8z"/><path fill="#FFFFFF" d="M173.5,12.3h4.8V51h-4.8V12.3z"/><path fill="#FFFFFF" d="M206.5,12.3v31.9c0,2.3,0.1,5,0.2,6.8h-4.3l-0.2-4.6H202c-1.5,2.9-4.7,5.2-9,5.2 c-6.4,0-11.3-5.4-11.3-13.4c-0.1-8.8,5.4-14.2,11.9-14.2c4,0,6.8,1.9,8,4h0.1V12.3H206.5z M201.7,35.4c0-0.6-0.1-1.4-0.2-2 c-0.7-3.1-3.3-5.6-6.9-5.6c-5,0-7.9,4.4-7.9,10.2c0,5.3,2.6,9.8,7.8,9.8c3.2,0,6.2-2.1,7.1-5.7c0.2-0.7,0.2-1.3,0.2-2.1V35.4z"/><path fill="#FFFFFF" d="M42.8,64c0.1,1.6-1.1,2.9-3.1,2.9c-1.7,0-2.9-1.3-2.9-2.9c0-1.7,1.3-3,3-3C41.7,61,42.8,62.3,42.8,64z M37.4,97.8V71.4h4.8v26.4H37.4z"/><path fill="#FFFFFF" d="M47.5,78.6c0-2.7-0.1-5-0.2-7.1h4.3l0.3,4.4h0.1c1.3-2.5,4.4-5,8.8-5c3.7,0,9.4,2.2,9.4,11.2v15.8h-4.8 V82.6c0-4.3-1.6-7.8-6.1-7.8c-3.2,0-5.6,2.2-6.5,4.9c-0.2,0.6-0.3,1.4-0.3,2.2v15.9h-4.8V78.6z"/><path fill="#FFFFFF" d="M84,61.6c2.9-0.4,6.3-0.8,10.1-0.8c6.8,0,11.7,1.6,14.9,4.6c3.3,3,5.2,7.3,5.2,13.2c0,6-1.9,10.9-5.3,14.3 c-3.4,3.4-9.1,5.3-16.3,5.3c-3.4,0-6.2-0.2-8.6-0.4V61.6z M88.8,94.1c1.2,0.2,3,0.3,4.8,0.3c10.2,0,15.7-5.7,15.7-15.6 c0.1-8.7-4.9-14.2-14.9-14.2c-2.5,0-4.3,0.2-5.6,0.5V94.1z"/><path fill="#FFFFFF" d="M132.1,97.8l-0.4-3.3h-0.2c-1.5,2.1-4.3,3.9-8.1,3.9c-5.4,0-8.1-3.8-8.1-7.6c0-6.4,5.7-9.9,15.9-9.8v-0.5 c0-2.2-0.6-6.1-6-6.1c-2.5,0-5,0.8-6.9,2l-1.1-3.2c2.2-1.4,5.4-2.3,8.7-2.3c8.1,0,10.1,5.5,10.1,10.8v9.9c0,2.3,0.1,4.5,0.4,6.3 H132.1z M131.4,84.4c-5.3-0.1-11.2,0.8-11.2,5.9c0,3.1,2.1,4.6,4.5,4.6c3.4,0,5.6-2.2,6.4-4.4c0.2-0.5,0.3-1,0.3-1.5V84.4z"/><path fill="#FFFFFF" d="M146.6,63.9v7.6h6.9v3.7h-6.9v14.2c0,3.3,0.9,5.1,3.6,5.1c1.3,0,2.2-0.2,2.8-0.3l0.2,3.6 c-0.9,0.4-2.4,0.7-4.3,0.7c-2.2,0-4-0.7-5.2-2c-1.4-1.4-1.9-3.8-1.9-6.9V75.1h-4.1v-3.7h4.1v-6.3L146.6,63.9z"/><path fill="#FFFFFF" d="M171.4,97.8l-0.4-3.3h-0.2c-1.5,2.1-4.3,3.9-8.1,3.9c-5.4,0-8.1-3.8-8.1-7.6c0-6.4,5.7-9.9,15.9-9.8v-0.5 c0-2.2-0.6-6.1-6-6.1c-2.5,0-5,0.8-6.9,2l-1.1-3.2c2.2-1.4,5.4-2.3,8.7-2.3c8.1,0,10.1,5.5,10.1,10.8v9.9c0,2.3,0.1,4.5,0.4,6.3 H171.4z M170.7,84.4c-5.3-0.1-11.2,0.8-11.2,5.9c0,3.1,2.1,4.6,4.5,4.6c3.4,0,5.6-2.2,6.4-4.4c0.2-0.5,0.3-1,0.3-1.5V84.4z"/></g></g></a></g><a href="https://ourworldindata.org/grapher/poverty-headcount-ratio-at-190-by-exports-share-in-gdp" target="_blank"><text font-size="25.20" x="15.0" y="35.2" fill="#555"><tspan x="15" y="35.160000000000004">Poverty Headcount ratio at $1.90 by exports' share in GDP</tspan></text></a></g><g><g class="AxisBoxView"><g class="HorizontalAxis"><text font-size="12.60" x="246.2" y="554.0"><tspan x="246.245" y="553.98">Exports of goods and services (% of GDP)</tspan></text><text x="166.2" y="533.9" fill="#666" text-anchor="middle" font-size="16.2">20%</text><text x="268.3" y="533.9" fill="#666" text-anchor="middle" font-size="16.2">40%</text><text x="370.3" y="533.9" fill="#666" text-anchor="middle" font-size="16.2">60%</text><text x="472.4" y="533.9" fill="#666" text-anchor="middle" font-size="16.2">80%</text><text x="574.4" y="533.9" fill="#666" text-anchor="middle" font-size="16.2">100%</text><text x="676.5" y="533.9" fill="#666" text-anchor="middle" font-size="16.2">120%</text></g><g class="VerticalAxis"><text font-size="12.60" x="-529.3" y="25.1" transform="rotate(-90)"><tspan x="-529.277" y="25.080000000000002">Poverty headcount ratio at $1.90 a day (2011 PPP) by country, income group</tspan><tspan x="-529.277" y="38.940000000000005">and region (World Bank (WDI) (2017))</tspan></text><text x="69.44" y="512.7" fill="#666" dominant-baseline="middle" text-anchor="end" font-size="16.2">0</text><text x="69.44" y="418.6" fill="#666" dominant-baseline="middle" text-anchor="end" font-size="16.2">20</text><text x="69.44" y="324.4" fill="#666" dominant-baseline="middle" text-anchor="end" font-size="16.2">40</text><text x="69.44" y="230.3" fill="#666" dominant-baseline="middle" text-anchor="end" font-size="16.2">60</text><text x="69.44" y="136.1" fill="#666" dominant-baseline="middle" text-anchor="end" font-size="16.2">80</text></g><g class="AxisGridLines"><line x1="74.44" y1="512.7" x2="715.00" y2="512.7" stroke="#ccc"></line><line x1="74.44" y1="418.6" x2="715.00" y2="418.6" stroke="#ddd" stroke-dasharray="3,2"></line><line x1="74.44" y1="324.4" x2="715.00" y2="324.4" stroke="#ddd" stroke-dasharray="3,2"></line><line x1="74.44" y1="230.3" x2="715.00" y2="230.3" stroke="#ddd" stroke-dasharray="3,2"></line><line x1="74.44" y1="136.1" x2="715.00" y2="136.1" stroke="#ddd" stroke-dasharray="3,2"></line></g><g class="AxisGridLines"><line x1="166.2" y1="512.70" x2="166.2" y2="70.00" stroke="#ddd" stroke-dasharray="3,2"></line><line x1="268.3" y1="512.70" x2="268.3" y2="70.00" stroke="#ddd" stroke-dasharray="3,2"></line><line x1="370.3" y1="512.70" x2="370.3" y2="70.00" stroke="#ddd" stroke-dasharray="3,2"></line><line x1="472.4" y1="512.70" x2="472.4" y2="70.00" stroke="#ddd" stroke-dasharray="3,2"></line><line x1="574.4" y1="512.70" x2="574.4" y2="70.00" stroke="#ddd" stroke-dasharray="3,2"></line><line x1="676.5" y1="512.70" x2="676.5" y2="70.00" stroke="#ddd" stroke-dasharray="3,2"></line></g></g><g clip-path="url(#scatterBounds-691)" font-family="Arial Narrow, Arial, sans-serif" class="PointsWithLabels clickable"><rect x="74.444" y="70" width="640.556" height="442.7" fill="rgba(255,255,255,0)"></rect><defs><clipPath id="scatterBounds-691"><rect x="64.444" y="60" width="660.556" height="462.7"></rect></clipPath></defs><g class="key-China_0"><circle cx="102.00" cy="97.00" r="1.96" fill="#e2e2e2" stroke="#ccc" opacity="0.6"></circle><polyline stroke-linecap="round" stroke="#ccc" points="102.00,97.00 112.00,156.00 127.00,226.00 133.00,199.00 149.00,244.00 155.00,314.00 156.00,321.00 179.00,362.00 236.00,424.00 230.00,443.00 198.00,460.00 199.00,475.00 193.00,482.00" fill="none" stroke-width="1.41" opacity="0.6"></polyline><polygon points="190.89,487.89 193.00,479.89 195.11,484.11" transform="rotate(-139.39870653964985, 193.00, 482.00)" cx="193" cy="482" r="2.1127330000465703" fill="#e2e2e2" stroke="#ccc" stroke-width="0.2" opacity="0.6"></polygon></g><g class="key-Indonesia_0"><circle cx="203.00" cy="181.00" r="1.40" fill="#e2e2e2" stroke="#ccc" opacity="0.6"></circle><polyline stroke-linecap="round" stroke="#ccc" points="203.00,181.00 189.00,182.00 203.00,243.00 200.00,244.00 196.00,296.00 334.00,205.00 245.00,324.00 273.00,325.00 263.00,343.00 231.00,402.00 219.00,403.00 228.00,398.00 238.00,410.00 222.00,381.00 214.00,405.00 216.00,411.00 187.00,425.00 188.00,437.00 198.00,448.00 189.00,457.00" fill="none" stroke-width="0.78" opacity="0.6"></polyline><polygon points="187.52,463.52 189.00,455.52 190.48,458.48" transform="rotate(-135.00000114727274, 189.00, 457.00)" cx="189" cy="457" r="1.4837609859272922" fill="#e2e2e2" stroke="#ccc" stroke-width="0.2" opacity="0.6"></polygon></g><g class="key-Brazil_0"><circle cx="112.00" cy="398.00" r="1.35" fill="#e2e2e2" stroke="#ccc" opacity="0.6"></circle><polyline stroke-linecap="round" stroke="#ccc" points="112.00,398.00 103.00,400.00 122.00,368.00 133.00,372.00 126.00,394.00 109.00,466.00 112.00,427.00 119.00,407.00 109.00,416.00 106.00,415.00 119.00,415.00 117.00,418.00 102.00,451.00 98.00,446.00 99.00,446.00 100.00,452.00 113.00,449.00 127.00,448.00 136.00,454.00 141.00,452.00 148.00,460.00 142.00,467.00 137.00,475.00 132.00,476.00 133.00,483.00 119.00,483.00 122.00,486.00 123.00,491.00" fill="none" stroke-width="0.74" opacity="0.6"></polyline><polygon points="121.56,497.56 123.00,489.56 124.44,492.44" transform="rotate(168.69006895956142, 123.00, 491.00)" cx="123" cy="491" r="1.438175516803321" fill="#e2e2e2" stroke="#ccc" stroke-width="0.2" opacity="0.6"></polygon></g><g class="key-Pakistan_0"><circle cx="131.00" cy="220.00" r="1.32" fill="#e2e2e2" stroke="#ccc" opacity="0.6"></circle><polyline stroke-linecap="round" stroke="#ccc" points="131.00,220.00 143.00,235.00 150.00,437.00 148.00,402.00 139.00,377.00 144.00,427.00 144.00,435.00 131.00,450.00 133.00,473.00 135.00,475.00" fill="none" stroke-width="0.72" opacity="0.6"></polyline><polygon points="133.58,481.58 135.00,473.58 136.42,476.42" transform="rotate(135.00000114727274, 135.00, 475.00)" cx="135" cy="475" r="1.415238326726109" fill="#e2e2e2" stroke="#ccc" stroke-width="0.2" opacity="0.6"></polygon></g><g class="key-Nigeria_0"><circle cx="152.00" cy="299.00" r="1.30" fill="#e2e2e2" stroke="#ccc" opacity="0.6"></circle><polyline stroke-linecap="round" stroke="#ccc" points="152.00,299.00 255.00,244.00 228.00,213.00 267.00,261.00 221.00,261.00" fill="none" stroke-width="0.69" opacity="0.6"></polyline><polygon points="219.61,267.61 221.00,259.61 222.39,262.39" transform="rotate(-90.0000007648485, 221.00, 261.00)" cx="221" cy="261" r="1.3902138153399486" fill="#e2e2e2" stroke="#ccc" stroke-width="0.2" opacity="0.6"></polygon></g><g class="key-Russia_0"><circle cx="259.00" cy="501.00" r="1.38" fill="#e2e2e2" stroke="#ccc" opacity="0.6"></circle><polyline stroke-linecap="round" stroke="#ccc" points="259.00,501.00 197.00,495.00 190.00,507.00 223.00,504.00 284.00,496.00 289.00,502.00 252.00,506.00 244.00,509.00 244.00,507.00 239.00,508.00 243.00,509.00 236.00,510.00 218.00,511.00 223.00,512.00 206.00,512.00 213.00,512.00 206.00,512.00 201.00,512.00" fill="none" stroke-width="0.68" opacity="0.6"></polyline><polygon points="199.62,518.62 201.00,510.62 202.38,513.38" transform="rotate(-90.0000007648485, 201.00, 512.00)" cx="201" cy="512" r="1.3762904565611975" fill="#e2e2e2" stroke="#ccc" stroke-width="0.2" opacity="0.6"></polygon></g><g class="key-Mexico_0"><circle cx="152.00" cy="475.00" r="1.28" fill="#e2e2e2" stroke="#ccc" opacity="0.6"></circle><polyline stroke-linecap="round" stroke="#ccc" points="152.00,475.00 161.00,479.00 141.00,466.00 132.00,466.00 196.00,446.00 189.00,445.00 193.00,460.00 179.00,471.00 209.00,490.00 203.00,497.00 205.00,494.00 215.00,494.00 228.00,500.00" fill="none" stroke-width="0.64" opacity="0.6"></polyline><polygon points="226.66,506.66 228.00,498.66 229.34,501.34" transform="rotate(114.77514154422742, 228.00, 500.00)" cx="228" cy="500" r="1.3428486660488066" fill="#e2e2e2" stroke="#ccc" stroke-width="0.2" opacity="0.6"></polygon></g><g class="key-Philippines_0"><circle cx="186.00" cy="380.00" r="1.25" fill="#e2e2e2" stroke="#ccc" opacity="0.6"></circle><polyline stroke-linecap="round" stroke="#ccc" points="186.00,380.00 209.00,394.00 215.00,387.00 236.00,395.00 314.00,429.00 326.00,426.00 304.00,433.00 301.00,435.00 228.00,456.00 221.00,451.00" fill="none" stroke-width="0.62" opacity="0.6"></polyline><polygon points="219.68,457.68 221.00,449.68 222.32,452.32" transform="rotate(-54.46232267086368, 221.00, 451.00)" cx="221" cy="451" r="1.3157964358181646" fill="#e2e2e2" stroke="#ccc" stroke-width="0.2" opacity="0.6"></polygon></g><g class="key-Turkey_0"><circle cx="143.00" cy="505.00" r="1.24" fill="#e2e2e2" stroke="#ccc" opacity="0.6"></circle><polyline stroke-linecap="round" stroke="#ccc" points="143.00,505.00 173.00,500.00 189.00,504.00 177.00,495.00 180.00,502.00 171.00,500.00 174.00,503.00 172.00,506.00 180.00,509.00 179.00,508.00 168.00,509.00 177.00,511.00 184.00,511.00" fill="none" stroke-width="0.58" opacity="0.6"></polyline><polygon points="182.72,517.72 184.00,509.72 185.28,512.28" transform="rotate(90.0000007648485, 184.00, 511.00)" cx="184" cy="511" r="1.2825564227972852" fill="#e2e2e2" stroke="#ccc" stroke-width="0.2" opacity="0.6"></polygon></g><g class="key-Iran_0"><circle cx="83.00" cy="477.00" r="1.24" fill="#e2e2e2" stroke="#ccc" opacity="0.6"></circle><polyline stroke-linecap="round" stroke="#ccc" points="83.00,477.00 131.00,484.00 208.00,497.00 128.00,500.00 218.00,500.00 180.00,511.00" fill="none" stroke-width="0.58" opacity="0.6"></polyline><polygon points="178.72,517.72 180.00,509.72 181.28,512.28" transform="rotate(-106.14433968233169, 180.00, 511.00)" cx="180" cy="511" r="1.280349781471458" fill="#e2e2e2" stroke="#ccc" stroke-width="0.2" opacity="0.6"></polygon></g><g class="key-Thailand_0"><circle cx="185.00" cy="420.00" r="1.24" fill="#e2e2e2" stroke="#ccc" opacity="0.6"></circle><polyline stroke-linecap="round" stroke="#ccc" points="185.00,420.00 232.00,445.00 238.00,468.00 252.00,481.00 259.00,497.00 263.00,502.00 359.00,505.00 352.00,500.00 395.00,500.00 373.00,507.00 400.00,509.00 414.00,509.00 415.00,511.00 428.00,512.00 393.00,511.00 403.00,512.00 425.00,512.00 420.00,512.00" fill="none" stroke-width="0.58" opacity="0.6"></polyline><polygon points="418.72,518.72 420.00,510.72 421.28,513.28" transform="rotate(-90.0000007648485, 420.00, 512.00)" cx="420" cy="512" r="1.275058803669667" fill="#e2e2e2" stroke="#ccc" stroke-width="0.2" opacity="0.6"></polygon></g><g class="key-Democratic-Republic-of-Congo_0"><circle cx="180.00" cy="70.00" r="1.25" fill="#e2e2e2" stroke="#ccc" opacity="0.6"></circle><polyline stroke-linecap="round" stroke="#ccc" points="180.00,70.00 221.00,149.00" fill="none" stroke-width="0.57" opacity="0.6"></polyline><polygon points="219.73,155.73 221.00,147.73 222.27,150.27" transform="rotate(152.5712600749213, 221.00, 149.00)" cx="221" cy="149" r="1.2745368840911095" fill="#e2e2e2" stroke="#ccc" stroke-width="0.2" opacity="0.6"></polygon></g><g class="key-South-Africa_0"><circle cx="175.00" cy="374.00" r="1.22" fill="#e2e2e2" stroke="#ccc" opacity="0.6"></circle><polyline stroke-linecap="round" stroke="#ccc" points="175.00,374.00 187.00,353.00 202.00,359.00 213.00,393.00 245.00,433.00 219.00,434.00" fill="none" stroke-width="0.54" opacity="0.6"></polyline><polygon points="217.76,440.76 219.00,432.76 220.24,435.24" transform="rotate(-92.20259894533268, 219.00, 434.00)" cx="219" cy="434" r="1.2409558364560602" fill="#e2e2e2" stroke="#ccc" stroke-width="0.2" opacity="0.6"></polygon></g><g class="key-Colombia_0"><circle cx="147.00" cy="449.00" r="1.20" fill="#e2e2e2" stroke="#ccc" opacity="0.6"></circle><polyline stroke-linecap="round" stroke="#ccc" points="147.00,449.00 156.00,457.00 173.00,459.00 154.00,474.00 141.00,439.00 157.00,421.00 145.00,436.00 142.00,414.00 139.00,443.00 148.00,452.00 149.00,457.00 150.00,463.00 155.00,462.00 146.00,469.00 145.00,474.00 159.00,481.00 157.00,479.00" fill="none" stroke-width="0.54" opacity="0.6"></polyline><polygon points="155.76,485.76 157.00,477.76 158.24,480.24" transform="rotate(-45.000000382424254, 157.00, 479.00)" cx="157" cy="479" r="1.235425361368826" fill="#e2e2e2" stroke="#ccc" stroke-width="0.2" opacity="0.6"></polygon></g><g class="key-Tanzania_0"><circle cx="116.00" cy="181.00" r="1.19" fill="#e2e2e2" stroke="#ccc" opacity="0.6"></circle><polyline stroke-linecap="round" stroke="#ccc" points="116.00,181.00 132.00,113.00 160.00,264.00 170.00,293.00" fill="none" stroke-width="0.53" opacity="0.6"></polyline><polygon points="168.77,299.77 170.00,291.77 171.23,294.23" transform="rotate(160.9743953304427, 170.00, 293.00)" cx="170" cy="293" r="1.232848985288353" fill="#e2e2e2" stroke="#ccc" stroke-width="0.2" opacity="0.6"></polygon></g><g class="key-Ukraine_0"><circle cx="186.00" cy="498.00" r="1.24" fill="#e2e2e2" stroke="#ccc" opacity="0.6"></circle><polyline stroke-linecap="round" stroke="#ccc" points="186.00,498.00 196.00,506.00 304.00,487.00 297.00,487.00 338.00,473.00 345.00,504.00 358.00,509.00 376.00,510.00 326.00,511.00 302.00,512.00 293.00,512.00 303.00,512.00 300.00,512.00 304.00,512.00 318.00,512.00 244.00,512.00" fill="none" stroke-width="0.53" opacity="0.6"></polyline><polygon points="242.77,518.77 244.00,510.77 245.23,513.23" transform="rotate(-90.0000007648485, 244.00, 512.00)" cx="244" cy="512" r="1.2303499615034457" fill="#e2e2e2" stroke="#ccc" stroke-width="0.2" opacity="0.6"></polygon></g><g class="key-Argentina_0"><circle cx="105.00" cy="512.00" r="1.20" fill="#e2e2e2" stroke="#ccc" opacity="0.6"></circle><polyline stroke-linecap="round" stroke="#ccc" points="105.00,512.00 104.00,512.00 103.00,507.00 97.00,503.00 99.00,501.00 102.00,502.00 113.00,493.00 117.00,490.00 118.00,493.00 117.00,491.00 114.00,490.00 120.00,485.00 123.00,468.00 209.00,446.00 196.00,466.00 185.00,479.00 182.00,487.00 181.00,493.00 179.00,496.00 176.00,498.00 164.00,498.00 160.00,503.00 158.00,505.00 147.00,505.00" fill="none" stroke-width="0.52" opacity="0.6"></polyline><polygon points="145.78,511.78 147.00,503.78 148.22,506.22" transform="rotate(-90.0000007648485, 147.00, 505.00)" cx="147" cy="505" r="1.2227118739487934" fill="#e2e2e2" stroke="#ccc" stroke-width="0.2" opacity="0.6"></polygon></g><g class="key-Poland_0"><circle cx="170.00" cy="512.00" r="1.22" fill="#e2e2e2" stroke="#ccc" opacity="0.6"></circle><polyline stroke-linecap="round" stroke="#ccc" points="170.00,512.00 176.00,500.00 196.00,512.00 187.00,512.00 203.00,512.00 203.00,512.00 210.00,512.00 234.00,512.00 239.00,512.00 240.00,512.00 257.00,509.00 261.00,512.00 257.00,512.00 253.00,512.00 268.00,510.00 281.00,512.00 290.00,512.00" fill="none" stroke-width="0.52" opacity="0.6"></polyline><polygon points="288.78,518.78 290.00,510.78 291.22,513.22" transform="rotate(90.0000007648485, 290.00, 512.00)" cx="290" cy="512" r="1.216940548507114" fill="#e2e2e2" stroke="#ccc" stroke-width="0.2" opacity="0.6"></polygon></g><g class="key-Uganda_0"><circle cx="104.00" cy="102.00" r="1.17" fill="#e2e2e2" stroke="#ccc" opacity="0.6"></circle><polyline stroke-linecap="round" stroke="#ccc" points="104.00,102.00 108.00,192.00 125.00,232.00 126.00,210.00 121.00,219.00 136.00,262.00 152.00,317.00 167.00,349.00" fill="none" stroke-width="0.51" opacity="0.6"></polyline><polygon points="165.79,355.79 167.00,347.79 168.21,350.21" transform="rotate(154.8851664301186, 167.00, 349.00)" cx="167" cy="349" r="1.211238303137428" fill="#e2e2e2" stroke="#ccc" stroke-width="0.2" opacity="0.6"></polygon></g><g class="key-Sudan_0"><circle cx="145.00" cy="442.00" r="1.21" fill="#e2e2e2" opacity="0.8" stroke="#fff" stroke-width="0.7"></circle></g><g class="key-Morocco_0"><circle cx="195.00" cy="460.00" r="1.18" fill="#e2e2e2" stroke="#ccc" opacity="0.6"></circle><polyline stroke-linecap="round" stroke="#ccc" points="195.00,460.00 189.00,499.00 183.00,477.00 200.00,483.00 231.00,498.00" fill="none" stroke-width="0.50" opacity="0.6"></polyline><polygon points="229.80,504.80 231.00,496.80 232.20,499.20" transform="rotate(115.82099295847276, 231.00, 498.00)" cx="231" cy="498" r="1.2004173295472493" fill="#e2e2e2" stroke="#ccc" stroke-width="0.2" opacity="0.6"></polygon></g><g class="key-Nepal_0"><circle cx="118.00" cy="160.00" r="1.17" fill="#e2e2e2" stroke="#ccc" opacity="0.6"></circle><polyline stroke-linecap="round" stroke="#ccc" points="118.00,160.00 191.00,221.00 144.00,295.00 113.00,442.00" fill="none" stroke-width="0.50" opacity="0.6"></polyline><polygon points="111.80,448.80 113.00,440.80 114.20,443.20" transform="rotate(-168.09170136717893, 113.00, 442.00)" cx="113" cy="442" r="1.198732241976687" fill="#e2e2e2" stroke="#ccc" stroke-width="0.2" opacity="0.6"></polygon></g><g class="key-Peru_0"><circle cx="197.00" cy="434.00" r="1.17" fill="#e2e2e2" stroke="#ccc" opacity="0.6"></circle><polyline stroke-linecap="round" stroke="#ccc" points="197.00,434.00 129.00,438.00 138.00,428.00 134.00,433.00 142.00,429.00 149.00,434.00 148.00,429.00 152.00,440.00 161.00,455.00 181.00,455.00 201.00,446.00 220.00,454.00 225.00,465.00 215.00,475.00 199.00,483.00 206.00,490.00 219.00,492.00 204.00,493.00" fill="none" stroke-width="0.50" opacity="0.6"></polyline><polygon points="202.80,499.80 204.00,491.80 205.20,494.20" transform="rotate(-93.81407563155207, 204.00, 493.00)" cx="204" cy="493" r="1.1982177113664916" fill="#e2e2e2" stroke="#ccc" stroke-width="0.2" opacity="0.6"></polygon></g><g class="key-Malaysia_0"><circle cx="342.00" cy="499.00" r="1.16" fill="#e2e2e2" stroke="#ccc" opacity="0.6"></circle><polyline stroke-linecap="round" stroke="#ccc" points="342.00,499.00 385.00,503.00 428.00,505.00 451.00,506.00 544.00,504.00 540.00,510.00 652.00,511.00 605.00,510.00 530.00,511.00" fill="none" stroke-width="0.49" opacity="0.6"></polyline><polygon points="528.81,517.81 530.00,509.81 531.19,512.19" transform="rotate(-90.76389923227035, 530.00, 511.00)" cx="530" cy="511" r="1.194098661208661" fill="#e2e2e2" stroke="#ccc" stroke-width="0.2" opacity="0.6"></polygon></g><g class="key-Venezuela_0"><circle cx="201.00" cy="506.00" r="1.16" fill="#e2e2e2" stroke="#ccc" opacity="0.6"></circle><polyline stroke-linecap="round" stroke="#ccc" points="201.00,506.00 173.00,508.00 238.00,475.00 198.00,492.00 202.00,472.00 170.00,458.00 181.00,464.00 180.00,467.00 219.00,437.00 236.00,418.00 248.00,430.00 266.00,432.00 250.00,469.00" fill="none" stroke-width="0.49" opacity="0.6"></polyline><polygon points="248.81,475.81 250.00,467.81 251.19,470.19" transform="rotate(-156.61478027374827, 250.00, 469.00)" cx="250" cy="469" r="1.1921746437745495" fill="#e2e2e2" stroke="#ccc" stroke-width="0.2" opacity="0.6"></polygon></g><g class="key-Uzbekistan_0"><circle cx="179.00" cy="298.00" r="1.18" fill="#e2e2e2" stroke="#ccc" opacity="0.6"></circle><polyline stroke-linecap="round" stroke="#ccc" points="179.00,298.00 189.00,192.00 221.00,204.00 254.00,198.00" fill="none" stroke-width="0.49" opacity="0.6"></polyline><polygon points="252.81,204.81 254.00,196.81 255.19,199.19" transform="rotate(79.69515420850863, 254.00, 198.00)" cx="254" cy="198" r="1.1882727264238155" fill="#e2e2e2" stroke="#ccc" stroke-width="0.2" opacity="0.6"></polygon></g><g class="key-Mozambique_0"><circle cx="131.00" cy="110.00" r="1.17" fill="#e2e2e2" stroke="#ccc" opacity="0.6"></circle><polyline stroke-linecap="round" stroke="#ccc" points="131.00,110.00 188.00,134.00 213.00,189.00" fill="none" stroke-width="0.48" opacity="0.6"></polyline><polygon points="211.82,195.82 213.00,187.82 214.18,190.18" transform="rotate(155.556046541548, 213.00, 189.00)" cx="213" cy="189" r="1.180521555814145" fill="#e2e2e2" stroke="#ccc" stroke-width="0.2" opacity="0.6"></polygon></g><g class="key-Madagascar_0"><circle cx="142.00" cy="186.00" r="1.15" fill="#e2e2e2" stroke="#ccc" opacity="0.6"></circle><polyline stroke-linecap="round" stroke="#ccc" points="142.00,186.00 175.00,202.00 189.00,210.00 212.00,189.00 208.00,164.00 191.00,127.00 209.00,146.00" fill="none" stroke-width="0.48" opacity="0.6"></polyline><polygon points="207.82,152.82 209.00,144.82 210.18,147.18" transform="rotate(136.54815885940744, 209.00, 146.00)" cx="209" cy="146" r="1.1795043916813857" fill="#e2e2e2" stroke="#ccc" stroke-width="0.2" opacity="0.6"></polygon></g><g class="key-Ghana_0"><circle cx="164.00" cy="324.00" r="1.16" fill="#e2e2e2" stroke="#ccc" opacity="0.6"></circle><polyline stroke-linecap="round" stroke="#ccc" points="164.00,324.00 157.00,325.00 150.00,289.00 237.00,353.00 250.00,394.00" fill="none" stroke-width="0.48" opacity="0.6"></polyline><polygon points="248.82,400.82 250.00,392.82 251.18,395.18" transform="rotate(162.4075768180094, 250.00, 394.00)" cx="250" cy="394" r="1.178774637705092" fill="#e2e2e2" stroke="#ccc" stroke-width="0.2" opacity="0.6"></polygon></g><g class="key-Romania_0"><circle cx="206.00" cy="509.00" r="1.18" fill="#e2e2e2" stroke="#ccc" opacity="0.6"></circle><polyline stroke-linecap="round" stroke="#ccc" points="206.00,509.00 191.00,462.00 180.00,502.00 205.00,482.00 231.00,477.00 232.00,487.00 243.00,487.00 240.00,494.00 246.00,499.00 232.00,502.00 227.00,501.00 198.00,489.00 199.00,495.00 230.00,490.00 255.00,483.00" fill="none" stroke-width="0.48" opacity="0.6"></polyline><polygon points="253.82,489.82 255.00,481.82 256.18,484.18" transform="rotate(74.35775417470701, 255.00, 483.00)" cx="255" cy="483" r="1.1781344996108225" fill="#e2e2e2" stroke="#ccc" stroke-width="0.2" opacity="0.6"></polygon></g><g class="key-Sri-Lanka_0"><circle cx="196.00" cy="450.00" r="1.16" fill="#e2e2e2" stroke="#ccc" opacity="0.6"></circle><polyline stroke-linecap="round" stroke="#ccc" points="196.00,450.00 218.00,471.00 245.00,471.00 242.00,473.00 217.00,495.00 173.00,501.00 165.00,503.00" fill="none" stroke-width="0.48" opacity="0.6"></polyline><polygon points="163.82,509.82 165.00,501.82 166.18,504.18" transform="rotate(-104.03624435205943, 165.00, 503.00)" cx="165" cy="503" r="1.1777172265017324" fill="#e2e2e2" stroke="#ccc" stroke-width="0.2" opacity="0.6"></polygon></g><g class="key-Cote-d__0027Ivoire_0"><circle cx="302.00" cy="480.00" r="1.15" fill="#e2e2e2" stroke="#ccc" opacity="0.6"></circle><polyline stroke-linecap="round" stroke="#ccc" points="302.00,480.00 265.00,498.00 234.00,481.00 219.00,462.00 227.00,408.00 277.00,422.00 275.00,391.00 306.00,404.00 304.00,376.00" fill="none" stroke-width="0.47" opacity="0.6"></polyline><polygon points="302.83,382.83 304.00,374.83 305.17,377.17" transform="rotate(-4.085616814695664, 304.00, 376.00)" cx="304" cy="376" r="1.1719244458028468" fill="#e2e2e2" stroke="#ccc" stroke-width="0.2" opacity="0.6"></polygon></g><g class="key-Cameroon_0"><circle cx="182.00" cy="286.00" r="1.16" fill="#e2e2e2" stroke="#ccc" opacity="0.6"></circle><polyline stroke-linecap="round" stroke="#ccc" points="182.00,286.00 196.00,403.00 211.00,374.00" fill="none" stroke-width="0.47" opacity="0.6"></polyline><polygon points="209.83,380.83 211.00,372.83 212.17,375.17" transform="rotate(27.349876012497795, 211.00, 374.00)" cx="211" cy="374" r="1.1702385560071904" fill="#e2e2e2" stroke="#ccc" stroke-width="0.2" opacity="0.6"></polygon></g><g class="key-Angola_0"><circle cx="521.00" cy="360.00" r="1.16" fill="#e2e2e2" stroke="#ccc" opacity="0.6"></circle><polyline stroke-linecap="round" stroke="#ccc" points="521.00,360.00 453.00,370.00" fill="none" stroke-width="0.47" opacity="0.6"></polyline><polygon points="451.83,376.83 453.00,368.83 454.17,371.17" transform="rotate(-98.36588695997705, 453.00, 370.00)" cx="453" cy="370" r="1.1694065182704816" fill="#e2e2e2" stroke="#ccc" stroke-width="0.2" opacity="0.6"></polygon></g><g class="key-Chile_0"><circle cx="208.00" cy="472.00" r="1.15" fill="#e2e2e2" stroke="#ccc" opacity="0.6"></circle><polyline stroke-linecap="round" stroke="#ccc" points="208.00,472.00 230.00,475.00 212.00,491.00 204.00,489.00 200.00,496.00 194.00,496.00 220.00,496.00 246.00,499.00 287.00,504.00 253.00,504.00 256.00,506.00" fill="none" stroke-width="0.47" opacity="0.6"></polyline><polygon points="254.83,512.83 256.00,504.83 257.17,507.17" transform="rotate(123.69006857713717, 256.00, 506.00)" cx="256" cy="506" r="1.1673399997196197" fill="#e2e2e2" stroke="#ccc" stroke-width="0.2" opacity="0.6"></polygon></g><g class="key-Kazakhstan_0"><circle cx="257.00" cy="482.00" r="1.16" fill="#e2e2e2" stroke="#ccc" opacity="0.6"></circle><polyline stroke-linecap="round" stroke="#ccc" points="257.00,482.00 244.00,482.00 298.00,463.00 303.00,480.00 311.00,491.00 332.00,498.00 335.00,511.00 324.00,509.00 315.00,510.00 355.00,512.00 277.00,511.00 289.00,512.00 301.00,512.00 289.00,512.00" fill="none" stroke-width="0.46" opacity="0.6"></polyline><polygon points="287.84,518.84 289.00,510.84 290.16,513.16" transform="rotate(-90.0000007648485, 289.00, 512.00)" cx="289" cy="512" r="1.1649190786664076" fill="#e2e2e2" stroke="#ccc" stroke-width="0.2" opacity="0.6"></polygon></g><g class="key-Niger_0"><circle cx="149.00" cy="144.00" r="1.14" fill="#e2e2e2" stroke="#ccc" opacity="0.6"></circle><polyline stroke-linecap="round" stroke="#ccc" points="149.00,144.00 148.00,129.00 148.00,160.00 153.00,173.00 170.00,275.00" fill="none" stroke-width="0.46" opacity="0.6"></polyline><polygon points="168.84,281.84 170.00,273.84 171.16,276.16" transform="rotate(170.5376792412576, 170.00, 275.00)" cx="170" cy="275" r="1.1640593889999054" fill="#e2e2e2" stroke="#ccc" stroke-width="0.2" opacity="0.6"></polygon></g><g class="key-Burkina-Faso_0"><circle cx="136.00" cy="121.00" r="1.15" fill="#e2e2e2" stroke="#ccc" opacity="0.6"></circle><polyline stroke-linecap="round" stroke="#ccc" points="136.00,121.00 129.00,128.00 108.00,243.00 129.00,252.00" fill="none" stroke-width="0.46" opacity="0.6"></polyline><polygon points="127.84,258.84 129.00,250.84 130.16,253.16" transform="rotate(113.19859147564566, 129.00, 252.00)" cx="129" cy="252" r="1.1638259653792775" fill="#e2e2e2" stroke="#ccc" stroke-width="0.2" opacity="0.6"></polygon></g><g class="key-Mali_0"><circle cx="163.00" cy="113.00" r="1.14" fill="#e2e2e2" stroke="#ccc" opacity="0.6"></circle><polyline stroke-linecap="round" stroke="#ccc" points="163.00,113.00 198.00,240.00 209.00,274.00 175.00,280.00" fill="none" stroke-width="0.46" opacity="0.6"></polyline><polygon points="173.84,286.84 175.00,278.84 176.16,281.16" transform="rotate(-100.00798065134083, 175.00, 280.00)" cx="175" cy="280" r="1.1608282842026934" fill="#e2e2e2" stroke="#ccc" stroke-width="0.2" opacity="0.6"></polygon></g><g class="key-Malawi_0"><circle cx="173.00" cy="213.00" r="1.15" fill="#e2e2e2" stroke="#ccc" opacity="0.6"></circle><polyline stroke-linecap="round" stroke="#ccc" points="173.00,213.00 160.00,166.00 180.00,178.00" fill="none" stroke-width="0.46" opacity="0.6"></polyline><polygon points="178.84,184.84 180.00,176.84 181.16,179.16" transform="rotate(120.96375756006182, 180.00, 178.00)" cx="180" cy="178" r="1.1608030224212365" fill="#e2e2e2" stroke="#ccc" stroke-width="0.2" opacity="0.6"></polygon></g><g class="key-Ecuador_0"><circle cx="142.00" cy="403.00" r="1.14" fill="#e2e2e2" stroke="#ccc" opacity="0.6"></circle><polyline stroke-linecap="round" stroke="#ccc" points="142.00,403.00 167.00,432.00 172.00,447.00 155.00,439.00 198.00,410.00 228.00,380.00 179.00,433.00 189.00,441.00 205.00,448.00 219.00,468.00 227.00,465.00 238.00,470.00 193.00,470.00 206.00,479.00 223.00,485.00 218.00,485.00" fill="none" stroke-width="0.46" opacity="0.6"></polyline><polygon points="216.84,491.84 218.00,483.84 219.16,486.16" transform="rotate(-90.0000007648485, 218.00, 485.00)" cx="218" cy="485" r="1.160702031383719" fill="#e2e2e2" stroke="#ccc" stroke-width="0.2" opacity="0.6"></polygon></g><g class="key-Guatemala_0"><circle cx="146.00" cy="272.00" r="1.14" fill="#e2e2e2" stroke="#ccc" opacity="0.6"></circle><polyline stroke-linecap="round" stroke="#ccc" points="146.00,272.00 152.00,333.00 156.00,449.00 167.00,465.00 191.00,458.00 200.00,458.00" fill="none" stroke-width="0.46" opacity="0.6"></polyline><polygon points="198.84,464.84 200.00,456.84 201.16,459.16" transform="rotate(90.0000007648485, 200.00, 458.00)" cx="200" cy="458" r="1.1603983690514705" fill="#e2e2e2" stroke="#ccc" stroke-width="0.2" opacity="0.6"></polygon></g><g class="key-Cambodia_0"><circle cx="195.00" cy="371.00" r="1.15" fill="#e2e2e2" stroke="#ccc" opacity="0.6"></circle><polyline stroke-linecap="round" stroke="#ccc" points="195.00,371.00 388.00,425.00 397.00,433.00 398.00,465.00 315.00,489.00 340.00,491.00 340.00,496.00 359.00,502.00" fill="none" stroke-width="0.46" opacity="0.6"></polyline><polygon points="357.84,508.84 359.00,500.84 360.16,503.16" transform="rotate(107.5255692875092, 359.00, 502.00)" cx="359" cy="502" r="1.1596088343074176" fill="#e2e2e2" stroke="#ccc" stroke-width="0.2" opacity="0.6"></polygon></g><g class="key-Zambia_0"><circle cx="209.00" cy="316.00" r="1.14" fill="#e2e2e2" stroke="#ccc" opacity="0.6"></circle><polyline stroke-linecap="round" stroke="#ccc" points="209.00,316.00 189.00,314.00 202.00,280.00 235.00,245.00 230.00,228.00 253.00,209.00" fill="none" stroke-width="0.46" opacity="0.6"></polyline><polygon points="251.84,215.84 253.00,207.84 254.16,210.16" transform="rotate(50.44033245966342, 253.00, 209.00)" cx="253" cy="209" r="1.1556162980314304" fill="#e2e2e2" stroke="#ccc" stroke-width="0.2" opacity="0.6"></polygon></g><g class="key-Zimbabwe_0"><circle cx="271.00" cy="412.00" r="1.15" fill="#e2e2e2" opacity="0.8" stroke="#fff" stroke-width="0.7"></circle></g><g class="key-Chad_0"><circle cx="189.00" cy="216.00" r="1.14" fill="#e2e2e2" stroke="#ccc" opacity="0.6"></circle><polyline stroke-linecap="round" stroke="#ccc" points="189.00,216.00 262.00,331.00" fill="none" stroke-width="0.45" opacity="0.6"></polyline><polygon points="260.85,337.85 262.00,329.85 263.15,332.15" transform="rotate(147.59333121039796, 262.00, 331.00)" cx="262" cy="331" r="1.150999746515864" fill="#e2e2e2" stroke="#ccc" stroke-width="0.2" opacity="0.6"></polygon></g><g class="key-Rwanda_0"><circle cx="128.00" cy="218.00" r="1.13" fill="#e2e2e2" stroke="#ccc" opacity="0.6"></circle><polyline stroke-linecap="round" stroke="#ccc" points="128.00,218.00 96.00,150.00 122.00,192.00 125.00,229.00" fill="none" stroke-width="0.45" opacity="0.6"></polyline><polygon points="123.85,235.85 125.00,227.85 126.15,230.15" transform="rotate(175.36453806340074, 125.00, 229.00)" cx="125" cy="229" r="1.1482718434862962" fill="#e2e2e2" stroke="#ccc" stroke-width="0.2" opacity="0.6"></polygon></g><g class="key-Czech-Republic_0"><circle cx="268.00" cy="512.00" r="1.15" fill="#e2e2e2" stroke="#ccc" opacity="0.6"></circle><polyline stroke-linecap="round" stroke="#ccc" points="268.00,512.00 259.00,512.00 356.00,512.00 381.00,512.00 396.00,512.00 403.00,512.00 386.00,512.00 363.00,512.00 401.00,512.00 428.00,512.00 452.00,512.00" fill="none" stroke-width="0.45" opacity="0.6"></polyline><polygon points="450.85,518.85 452.00,510.85 453.15,513.15" transform="rotate(90.0000007648485, 452.00, 512.00)" cx="452" cy="512" r="1.148093615837867" fill="#e2e2e2" stroke="#ccc" stroke-width="0.2" opacity="0.6"></polygon></g><g class="key-Tunisia_0"><circle cx="228.00" cy="447.00" r="1.14" fill="#e2e2e2" stroke="#ccc" opacity="0.6"></circle><polyline stroke-linecap="round" stroke="#ccc" points="228.00,447.00 286.00,466.00 293.00,461.00 266.00,487.00 293.00,498.00 321.00,503.00" fill="none" stroke-width="0.45" opacity="0.6"></polyline><polygon points="319.85,509.85 321.00,501.85 322.15,504.15" transform="rotate(100.12467250628899, 321.00, 503.00)" cx="321" cy="503" r="1.1478342838606201" fill="#e2e2e2" stroke="#ccc" stroke-width="0.2" opacity="0.6"></polygon></g><g class="key-Guinea_0"><circle cx="218.00" cy="78.00" r="1.13" fill="#e2e2e2" stroke="#ccc" opacity="0.6"></circle><polyline stroke-linecap="round" stroke="#ccc" points="218.00,78.00 180.00,284.00 199.00,222.00 184.00,231.00 233.00,346.00" fill="none" stroke-width="0.45" opacity="0.6"></polyline><polygon points="231.85,352.85 233.00,344.85 234.15,347.15" transform="rotate(156.92177992753014, 233.00, 346.00)" cx="233" cy="346" r="1.1478335977772505" fill="#e2e2e2" stroke="#ccc" stroke-width="0.2" opacity="0.6"></polygon></g><g class="key-Haiti_0"><circle cx="127.00" cy="251.00" r="1.14" fill="#e2e2e2" stroke="#ccc" opacity="0.6"></circle><polyline stroke-linecap="round" stroke="#ccc" points="127.00,251.00 150.00,258.00" fill="none" stroke-width="0.45" opacity="0.6"></polyline><polygon points="148.85,264.85 150.00,256.85 151.15,259.15" transform="rotate(106.92751397285092, 150.00, 258.00)" cx="150" cy="258" r="1.147142633023675" fill="#e2e2e2" stroke="#ccc" stroke-width="0.2" opacity="0.6"></polygon></g><g class="key-Bolivia_0"><circle cx="180.00" cy="472.00" r="1.14" fill="#e2e2e2" stroke="#ccc" opacity="0.6"></circle><polyline stroke-linecap="round" stroke="#ccc" points="180.00,472.00 166.00,441.00 171.00,422.00 150.00,393.00 157.00,373.00 166.00,401.00 174.00,395.00 223.00,448.00 245.00,416.00 277.00,428.00 277.00,447.00 293.00,456.00 246.00,456.00 289.00,475.00 304.00,470.00" fill="none" stroke-width="0.45" opacity="0.6"></polyline><polygon points="302.85,476.85 304.00,468.85 305.15,471.15" transform="rotate(71.56505178526047, 304.00, 470.00)" cx="304" cy="470" r="1.1471192378163977" fill="#e2e2e2" stroke="#ccc" stroke-width="0.2" opacity="0.6"></polygon></g><g class="key-Dominican-Republic_0"><circle cx="188.00" cy="332.00" r="1.14" fill="#e2e2e2" stroke="#ccc" opacity="0.6"></circle><polyline stroke-linecap="round" stroke="#ccc" points="188.00,332.00 235.00,340.00 252.00,487.00 242.00,489.00 243.00,488.00 245.00,487.00 226.00,493.00 220.00,485.00 279.00,480.00 274.00,472.00 208.00,485.00 208.00,491.00 200.00,492.00 186.00,495.00 171.00,497.00 179.00,500.00 187.00,499.00 189.00,500.00" fill="none" stroke-width="0.45" opacity="0.6"></polyline><polygon points="187.85,506.85 189.00,498.85 190.15,501.15" transform="rotate(116.56505216768471, 189.00, 500.00)" cx="189" cy="500" r="1.1469199630964364" fill="#e2e2e2" stroke="#ccc" stroke-width="0.2" opacity="0.6"></polygon></g><g class="key-Hungary_0"><circle cx="182.00" cy="511.00" r="1.15" fill="#e2e2e2" stroke="#ccc" opacity="0.6"></circle><polyline stroke-linecap="round" stroke="#ccc" points="182.00,511.00 333.00,512.00 347.00,512.00 404.00,512.00 394.00,512.00 360.00,512.00 351.00,512.00 367.00,512.00 383.00,511.00 461.00,512.00 468.00,512.00 443.00,512.00 481.00,512.00 506.00,512.00 505.00,511.00" fill="none" stroke-width="0.45" opacity="0.6"></polyline><polygon points="503.85,517.85 505.00,509.85 506.15,512.15" transform="rotate(-45.000000382424254, 505.00, 511.00)" cx="505" cy="511" r="1.1461977879744383" fill="#e2e2e2" stroke="#ccc" stroke-width="0.2" opacity="0.6"></polygon></g><g class="key-Serbia_0"><circle cx="169.00" cy="511.00" r="1.15" fill="#e2e2e2" stroke="#ccc" opacity="0.6"></circle><polyline stroke-linecap="round" stroke="#ccc" points="169.00,511.00 176.00,510.00 187.00,508.00 202.00,507.00 218.00,510.00 208.00,511.00 212.00,512.00 201.00,512.00 232.00,512.00" fill="none" stroke-width="0.45" opacity="0.6"></polyline><polygon points="230.85,518.85 232.00,510.85 233.15,513.15" transform="rotate(90.0000007648485, 232.00, 512.00)" cx="232" cy="512" r="1.1459083298287758" fill="#e2e2e2" stroke="#ccc" stroke-width="0.2" opacity="0.6"></polygon></g><g class="key-Belarus_0"><circle cx="409.00" cy="512.00" r="1.15" fill="#e2e2e2" stroke="#ccc" opacity="0.6"></circle><polyline stroke-linecap="round" stroke="#ccc" points="409.00,512.00 317.00,509.00 365.00,459.00 366.00,464.00 417.00,479.00 404.00,497.00 388.00,503.00 396.00,506.00 410.00,511.00 369.00,511.00 370.00,512.00 375.00,512.00 375.00,512.00 322.00,512.00 326.00,512.00 464.00,512.00 466.00,512.00" fill="none" stroke-width="0.44" opacity="0.6"></polyline><polygon points="464.86,518.86 466.00,510.86 467.14,513.14" transform="rotate(90.0000007648485, 466.00, 512.00)" cx="466" cy="512" r="1.1448846112696138" fill="#e2e2e2" stroke="#ccc" stroke-width="0.2" opacity="0.6"></polygon></g><g class="key-Benin_0"><circle cx="161.00" cy="282.00" r="1.14" fill="#e2e2e2" stroke="#ccc" opacity="0.6"></circle><polyline stroke-linecap="round" stroke="#ccc" points="161.00,282.00 173.00,262.00" fill="none" stroke-width="0.44" opacity="0.6"></polyline><polygon points="171.86,268.86 173.00,260.86 174.14,263.14" transform="rotate(30.963756795213342, 173.00, 262.00)" cx="173" cy="262" r="1.1435421219699935" fill="#e2e2e2" stroke="#ccc" stroke-width="0.2" opacity="0.6"></polygon></g><g class="key-Azerbaijan_0"><circle cx="206.00" cy="478.00" r="1.14" fill="#e2e2e2" stroke="#ccc" opacity="0.6"></circle><polyline stroke-linecap="round" stroke="#ccc" points="206.00,478.00 273.00,499.00 282.00,512.00 278.00,512.00 313.00,512.00 385.00,512.00 399.00,510.00" fill="none" stroke-width="0.44" opacity="0.6"></polyline><polygon points="397.86,516.86 399.00,508.86 400.14,511.14" transform="rotate(81.86989834160035, 399.00, 510.00)" cx="399" cy="510" r="1.1430481621045043" fill="#e2e2e2" stroke="#ccc" stroke-width="0.2" opacity="0.6"></polygon></g><g class="key-Honduras_0"><circle cx="199.00" cy="393.00" r="1.13" fill="#e2e2e2" stroke="#ccc" opacity="0.6"></circle><polyline stroke-linecap="round" stroke="#ccc" points="199.00,393.00 222.00,331.00 254.00,304.00 240.00,355.00 228.00,377.00 241.00,401.00 267.00,387.00 287.00,382.00 303.00,369.00 299.00,412.00 301.00,390.00 273.00,388.00 326.00,426.00 333.00,375.00 340.00,383.00 362.00,388.00 365.00,381.00 350.00,400.00 337.00,430.00 326.00,436.00 265.00,446.00 297.00,439.00 325.00,424.00 323.00,412.00" fill="none" stroke-width="0.44" opacity="0.6"></polyline><polygon points="321.86,418.86 323.00,410.86 324.14,413.14" transform="rotate(-9.462322288439422, 323.00, 412.00)" cx="323" cy="412" r="1.1397447530061513" fill="#e2e2e2" stroke="#ccc" stroke-width="0.2" opacity="0.6"></polygon></g><g class="key-Burundi_0"><circle cx="108.00" cy="130.00" r="1.13" fill="#e2e2e2" stroke="#ccc" opacity="0.6"></circle><polyline stroke-linecap="round" stroke="#ccc" points="108.00,130.00 105.00,116.00 101.00,147.00" fill="none" stroke-width="0.44" opacity="0.6"></polyline><polygon points="99.86,153.86 101.00,145.86 102.14,148.14" transform="rotate(-172.64762210732178, 101.00, 147.00)" cx="101" cy="147" r="1.1383193624920178" fill="#e2e2e2" stroke="#ccc" stroke-width="0.2" opacity="0.6"></polygon></g><g class="key-Bulgaria_0"><circle cx="301.00" cy="512.00" r="1.14" fill="#e2e2e2" stroke="#ccc" opacity="0.6"></circle><polyline stroke-linecap="round" stroke="#ccc" points="301.00,512.00 304.00,512.00 294.00,511.00 329.00,506.00 319.00,510.00 243.00,503.00 241.00,508.00 305.00,487.00 331.00,510.00 332.00,507.00 280.00,507.00 320.00,503.00 365.00,502.00 374.00,503.00" fill="none" stroke-width="0.44" opacity="0.6"></polyline><polygon points="372.86,509.86 374.00,501.86 375.14,504.14" transform="rotate(96.34019256463937, 374.00, 503.00)" cx="374" cy="503" r="1.1380687409839754" fill="#e2e2e2" stroke="#ccc" stroke-width="0.2" opacity="0.6"></polygon></g><g class="key-Tajikistan_0"><circle cx="401.00" cy="256.00" r="1.13" fill="#e2e2e2" stroke="#ccc" opacity="0.6"></circle><polyline stroke-linecap="round" stroke="#ccc" points="401.00,256.00 387.00,367.00 361.00,440.00 169.00,464.00 141.00,490.00 151.00,397.00" fill="none" stroke-width="0.44" opacity="0.6"></polyline><polygon points="149.86,403.86 151.00,395.86 152.14,398.14" transform="rotate(6.137256001418364, 151.00, 397.00)" cx="151" cy="397" r="1.1370181967182473" fill="#e2e2e2" stroke="#ccc" stroke-width="0.2" opacity="0.6"></polygon></g><g class="key-Paraguay_0"><circle cx="379.00" cy="454.00" r="1.13" fill="#e2e2e2" stroke="#ccc" opacity="0.6"></circle><polyline stroke-linecap="round" stroke="#ccc" points="379.00,454.00 311.00,463.00 295.00,464.00 294.00,470.00 338.00,450.00 345.00,470.00 341.00,481.00 361.00,480.00 363.00,465.00 353.00,472.00 339.00,489.00 327.00,482.00 345.00,484.00 332.00,487.00 318.00,495.00" fill="none" stroke-width="0.44" opacity="0.6"></polyline><polygon points="316.86,501.86 318.00,493.86 319.14,496.14" transform="rotate(-119.74488231457215, 318.00, 495.00)" cx="318" cy="495" r="1.1357038749729884" fill="#e2e2e2" stroke="#ccc" stroke-width="0.2" opacity="0.6"></polygon></g><g class="key-Laos_0"><circle cx="151.00" cy="405.00" r="1.13" fill="#e2e2e2" stroke="#ccc" opacity="0.6"></circle><polyline stroke-linecap="round" stroke="#ccc" points="151.00,405.00 186.00,368.00 210.00,389.00 235.00,420.00 257.00,434.00" fill="none" stroke-width="0.43" opacity="0.6"></polyline><polygon points="255.87,440.87 257.00,432.87 258.13,435.13" transform="rotate(122.47119333164747, 257.00, 434.00)" cx="257" cy="434" r="1.1346688728572605" fill="#e2e2e2" stroke="#ccc" stroke-width="0.2" opacity="0.6"></polygon></g><g class="key-El-Salvador_0"><circle cx="131.00" cy="423.00" r="1.13" fill="#e2e2e2" stroke="#ccc" opacity="0.6"></circle><polyline stroke-linecap="round" stroke="#ccc" points="131.00,423.00 152.00,415.00 174.00,419.00 172.00,409.00 188.00,418.00 188.00,436.00 201.00,457.00 191.00,452.00 194.00,451.00 196.00,438.00 196.00,465.00 193.00,467.00 196.00,482.00 194.00,491.00 200.00,480.00 186.00,482.00 201.00,478.00 212.00,491.00 209.00,493.00" fill="none" stroke-width="0.43" opacity="0.6"></polyline><polygon points="207.87,499.87 209.00,491.87 210.13,494.13" transform="rotate(-123.69006857713717, 209.00, 493.00)" cx="209" cy="493" r="1.1342991685932864" fill="#e2e2e2" stroke="#ccc" stroke-width="0.2" opacity="0.6"></polygon></g><g class="key-Togo_0"><circle cx="259.00" cy="251.00" r="1.13" fill="#e2e2e2" stroke="#ccc" opacity="0.6"></circle><polyline stroke-linecap="round" stroke="#ccc" points="259.00,251.00 265.00,257.00" fill="none" stroke-width="0.43" opacity="0.6"></polyline><polygon points="263.87,263.87 265.00,255.87 266.13,258.13" transform="rotate(135.00000114727274, 265.00, 257.00)" cx="265" cy="257" r="1.133930097020775" fill="#e2e2e2" stroke="#ccc" stroke-width="0.2" opacity="0.6"></polygon></g><g class="key-Sierra-Leone_0"><circle cx="186.00" cy="204.00" r="1.13" fill="#e2e2e2" stroke="#ccc" opacity="0.6"></circle><polyline stroke-linecap="round" stroke="#ccc" points="186.00,204.00 135.00,237.00 147.00,266.00" fill="none" stroke-width="0.43" opacity="0.6"></polyline><polygon points="145.87,272.87 147.00,264.87 148.13,267.13" transform="rotate(157.52056694155655, 147.00, 266.00)" cx="147" cy="266" r="1.1333971389083235" fill="#e2e2e2" stroke="#ccc" stroke-width="0.2" opacity="0.6"></polygon></g><g class="key-Nicaragua_0"><circle cx="168.00" cy="408.00" r="1.13" fill="#e2e2e2" stroke="#ccc" opacity="0.6"></circle><polyline stroke-linecap="round" stroke="#ccc" points="168.00,408.00 162.00,438.00 161.00,416.00 188.00,439.00 237.00,461.00" fill="none" stroke-width="0.43" opacity="0.6"></polyline><polygon points="235.87,467.87 237.00,459.87 238.13,462.13" transform="rotate(114.1791081170194, 237.00, 461.00)" cx="237" cy="461" r="1.1324185019773174" fill="#e2e2e2" stroke="#ccc" stroke-width="0.2" opacity="0.6"></polygon></g><g class="key-Slovakia_0"><circle cx="403.00" cy="512.00" r="1.13" fill="#e2e2e2" stroke="#ccc" opacity="0.6"></circle><polyline stroke-linecap="round" stroke="#ccc" points="403.00,512.00 331.00,510.00 414.00,512.00 431.00,511.00 477.00,512.00 489.00,511.00 472.00,511.00 409.00,512.00 453.00,510.00 498.00,511.00 530.00,511.00" fill="none" stroke-width="0.43" opacity="0.6"></polyline><polygon points="528.87,517.87 530.00,509.87 531.13,512.13" transform="rotate(90.0000007648485, 530.00, 511.00)" cx="530" cy="511" r="1.1316300332836235" fill="#e2e2e2" stroke="#ccc" stroke-width="0.2" opacity="0.6"></polygon></g><g class="key-Kyrgyzstan_0"><circle cx="235.00" cy="304.00" r="1.13" fill="#e2e2e2" stroke="#ccc" opacity="0.6"></circle><polyline stroke-linecap="round" stroke="#ccc" points="235.00,304.00 250.00,368.00 277.00,314.00 251.00,341.00 266.00,351.00 261.00,380.00 281.00,448.00 259.00,440.00 277.00,466.00 334.00,465.00 337.00,493.00 343.00,502.00 327.00,493.00 342.00,504.00 290.00,499.00" fill="none" stroke-width="0.43" opacity="0.6"></polyline><polygon points="288.87,505.87 290.00,497.87 291.13,500.13" transform="rotate(-84.50767616104555, 290.00, 499.00)" cx="290" cy="499" r="1.131519059481884" fill="#e2e2e2" stroke="#ccc" stroke-width="0.2" opacity="0.6"></polygon></g><g class="key-Papua-New-Guinea_0"><circle cx="367.00" cy="262.00" r="1.13" fill="#e2e2e2" opacity="0.8" stroke="#999" stroke-width="0.7"></circle></g><g class="key-Costa-Rica_0"><circle cx="285.00" cy="345.00" r="1.12" fill="#e2e2e2" stroke="#ccc" opacity="0.6"></circle><polyline stroke-linecap="round" stroke="#ccc" points="285.00,345.00 202.00,454.00 218.00,456.00 218.00,466.00 235.00,457.00 245.00,467.00 248.00,475.00 248.00,481.00 259.00,480.00 269.00,475.00 277.00,482.00 289.00,488.00 282.00,482.00 284.00,482.00 271.00,481.00 265.00,482.00 272.00,483.00 280.00,486.00 287.00,492.00 286.00,492.00 272.00,501.00 263.00,499.00 242.00,497.00 233.00,505.00 231.00,504.00 228.00,504.00" fill="none" stroke-width="0.43" opacity="0.6"></polyline><polygon points="226.87,510.87 228.00,502.87 229.13,505.13" transform="rotate(-90.0000007648485, 228.00, 504.00)" cx="228" cy="504" r="1.1292465829978462" fill="#e2e2e2" stroke="#ccc" stroke-width="0.2" opacity="0.6"></polygon></g><g class="key-Turkmenistan_0"><circle cx="496.00" cy="132.00" r="1.13" fill="#e2e2e2" stroke="#ccc" opacity="0.6"></circle><polyline stroke-linecap="round" stroke="#ccc" points="496.00,132.00 230.00,313.00" fill="none" stroke-width="0.43" opacity="0.6"></polyline><polygon points="228.87,319.87 230.00,311.87 231.13,314.13" transform="rotate(-124.23337434407594, 230.00, 313.00)" cx="230" cy="313" r="1.1278431148474717" fill="#e2e2e2" stroke="#ccc" stroke-width="0.2" opacity="0.6"></polygon></g><g class="key-Croatia_0"><circle cx="214.00" cy="512.00" r="1.13" fill="#e2e2e2" stroke="#ccc" opacity="0.6"></circle><polyline stroke-linecap="round" stroke="#ccc" points="214.00,512.00 219.00,511.00 250.00,512.00 261.00,512.00 265.00,512.00 260.00,512.00 240.00,512.00 256.00,512.00 269.00,508.00 276.00,508.00" fill="none" stroke-width="0.43" opacity="0.6"></polyline><polygon points="274.87,514.87 276.00,506.87 277.13,509.13" transform="rotate(90.0000007648485, 276.00, 508.00)" cx="276" cy="508" r="1.127815071234454" fill="#e2e2e2" stroke="#ccc" stroke-width="0.2" opacity="0.6"></polygon></g><g class="key-Georgia_0"><circle cx="132.00" cy="484.00" r="1.13" fill="#e2e2e2" stroke="#ccc" opacity="0.6"></circle><polyline stroke-linecap="round" stroke="#ccc" points="132.00,484.00 143.00,429.00 148.00,438.00 161.00,419.00 181.00,413.00 189.00,414.00 213.00,433.00 226.00,430.00 225.00,433.00 236.00,436.00 231.00,447.00 223.00,436.00 210.00,439.00 215.00,440.00 242.00,420.00 249.00,429.00 258.00,439.00" fill="none" stroke-width="0.43" opacity="0.6"></polyline><polygon points="256.87,445.87 258.00,437.87 259.13,440.13" transform="rotate(138.01278867705972, 258.00, 439.00)" cx="258" cy="439" r="1.127520651067507" fill="#e2e2e2" stroke="#ccc" stroke-width="0.2" opacity="0.6"></polygon></g><g class="key-Central-African-Republic_0"><circle cx="150.00" cy="116.00" r="1.12" fill="#e2e2e2" stroke="#ccc" opacity="0.6"></circle><polyline stroke-linecap="round" stroke="#ccc" points="150.00,116.00 157.00,207.00 120.00,200.00" fill="none" stroke-width="0.43" opacity="0.6"></polyline><polygon points="118.87,206.87 120.00,198.87 121.13,201.13" transform="rotate(-79.28687765101395, 120.00, 200.00)" cx="120" cy="200" r="1.1272846544830581" fill="#e2e2e2" stroke="#ccc" stroke-width="0.2" opacity="0.6"></polygon></g><g class="key-Congo_0"><circle cx="493.00" cy="276.00" r="1.12" fill="#e2e2e2" stroke="#ccc" opacity="0.6"></circle><polyline stroke-linecap="round" stroke="#ccc" points="493.00,276.00 509.00,338.00" fill="none" stroke-width="0.43" opacity="0.6"></polyline><polygon points="507.87,344.87 509.00,336.87 510.13,339.13" transform="rotate(165.52970730665797, 509.00, 338.00)" cx="509" cy="338" r="1.1269347953412756" fill="#e2e2e2" stroke="#ccc" stroke-width="0.2" opacity="0.6"></polygon></g><g class="key-Bosnia-and-Herzegovina_0"><circle cx="209.00" cy="511.00" r="1.13" fill="#e2e2e2" stroke="#ccc" opacity="0.6"></circle><polyline stroke-linecap="round" stroke="#ccc" points="209.00,511.00 228.00,511.00 202.00,512.00 227.00,512.00" fill="none" stroke-width="0.43" opacity="0.6"></polyline><polygon points="225.87,518.87 227.00,510.87 228.13,513.13" transform="rotate(90.0000007648485, 227.00, 512.00)" cx="227" cy="512" r="1.1255448401794361" fill="#e2e2e2" stroke="#ccc" stroke-width="0.2" opacity="0.6"></polygon></g><g class="key-Panama_0"><circle cx="330.00" cy="400.00" r="1.12" fill="#e2e2e2" stroke="#ccc" opacity="0.6"></circle><polyline stroke-linecap="round" stroke="#ccc" points="330.00,400.00 392.00,409.00 405.00,436.00 457.00,442.00 409.00,441.00 354.00,449.00 380.00,443.00 381.00,435.00 358.00,456.00 341.00,458.00 358.00,462.00 393.00,464.00 401.00,461.00 428.00,474.00 462.00,486.00 420.00,496.00 421.00,491.00 463.00,494.00 447.00,491.00" fill="none" stroke-width="0.43" opacity="0.6"></polyline><polygon points="445.87,497.87 447.00,489.87 448.13,492.13" transform="rotate(-79.38034539844418, 447.00, 491.00)" cx="447" cy="491" r="1.1250850989043402" fill="#e2e2e2" stroke="#ccc" stroke-width="0.2" opacity="0.6"></polygon></g><g class="key-Moldova_0"><circle cx="343.00" cy="437.00" r="1.13" fill="#e2e2e2" stroke="#ccc" opacity="0.6"></circle><polyline stroke-linecap="round" stroke="#ccc" points="343.00,437.00 311.00,383.00 329.00,328.00 318.00,343.00 318.00,383.00 333.00,434.00 337.00,476.00 322.00,471.00 325.00,447.00 295.00,501.00 306.00,507.00 272.00,506.00 252.00,507.00 264.00,510.00 293.00,511.00 286.00,511.00" fill="none" stroke-width="0.42" opacity="0.6"></polyline><polygon points="284.88,517.88 286.00,509.88 287.12,512.12" transform="rotate(-90.0000007648485, 286.00, 511.00)" cx="286" cy="511" r="1.1247017969207755" fill="#e2e2e2" stroke="#ccc" stroke-width="0.2" opacity="0.6"></polygon></g><g class="key-Liberia_0"><circle cx="446.00" cy="189.00" r="1.12" fill="#e2e2e2" opacity="0.8" stroke="#999" stroke-width="0.7"></circle></g><g class="key-Uruguay_0"><circle cx="141.00" cy="512.00" r="1.12" fill="#e2e2e2" stroke="#ccc" opacity="0.6"></circle><polyline stroke-linecap="round" stroke="#ccc" points="141.00,512.00 184.00,510.00 168.00,510.00 161.00,509.00 164.00,508.00 153.00,509.00 148.00,508.00 149.00,510.00 149.00,509.00 169.00,507.00 204.00,506.00 228.00,505.00 219.00,505.00 218.00,508.00 212.00,509.00 218.00,511.00 202.00,511.00 198.00,511.00 199.00,511.00 196.00,510.00" fill="none" stroke-width="0.42" opacity="0.6"></polyline><polygon points="194.88,516.88 196.00,508.88 197.12,511.12" transform="rotate(-71.56505178526047, 196.00, 510.00)" cx="196" cy="510" r="1.1242367456356903" fill="#e2e2e2" stroke="#ccc" stroke-width="0.2" opacity="0.6"></polygon></g><g class="key-Mauritania_0"><circle cx="314.00" cy="324.00" r="1.12" fill="#e2e2e2" stroke="#ccc" opacity="0.6"></circle><polyline stroke-linecap="round" stroke="#ccc" points="314.00,324.00 227.00,319.00 331.00,415.00 217.00,420.00 195.00,445.00 298.00,461.00" fill="none" stroke-width="0.42" opacity="0.6"></polyline><polygon points="296.88,467.88 298.00,459.88 299.12,462.12" transform="rotate(98.82974550779554, 298.00, 461.00)" cx="298" cy="461" r="1.1238857315092974" fill="#e2e2e2" stroke="#ccc" stroke-width="0.2" opacity="0.6"></polygon></g><g class="key-Lithuania_0"><circle cx="278.00" cy="512.00" r="1.13" fill="#e2e2e2" stroke="#ccc" opacity="0.6"></circle><polyline stroke-linecap="round" stroke="#ccc" points="278.00,512.00 263.00,511.00 229.00,511.00 260.00,511.00 288.00,509.00 305.00,510.00 299.00,511.00 305.00,512.00 338.00,504.00 348.00,505.00 321.00,506.00 355.00,506.00 329.00,501.00 397.00,504.00 446.00,508.00 480.00,507.00" fill="none" stroke-width="0.42" opacity="0.6"></polyline><polygon points="478.88,513.88 480.00,505.88 481.12,508.12" transform="rotate(88.31531643263524, 480.00, 507.00)" cx="480" cy="507" r="1.1238754972195337" fill="#e2e2e2" stroke="#ccc" stroke-width="0.2" opacity="0.6"></polygon></g><g class="key-Albania_0"><circle cx="121.00" cy="507.00" r="1.12" fill="#e2e2e2" stroke="#ccc" opacity="0.6"></circle><polyline stroke-linecap="round" stroke="#ccc" points="121.00,507.00 164.00,501.00 180.00,507.00 193.00,511.00 211.00,507.00" fill="none" stroke-width="0.42" opacity="0.6"></polyline><polygon points="209.88,513.88 211.00,505.88 212.12,508.12" transform="rotate(77.47119294922321, 211.00, 507.00)" cx="211" cy="507" r="1.1236373807464362" fill="#e2e2e2" stroke="#ccc" stroke-width="0.2" opacity="0.6"></polygon></g><g class="key-Armenia_0"><circle cx="182.00" cy="428.00" r="1.12" fill="#e2e2e2" stroke="#ccc" opacity="0.6"></circle><polyline stroke-linecap="round" stroke="#ccc" points="182.00,428.00 170.00,433.00 194.00,421.00 214.00,441.00 228.00,459.00 215.00,475.00 211.00,491.00 183.00,497.00 162.00,495.00 141.00,505.00 143.00,505.00 170.00,500.00 185.00,500.00 204.00,504.00" fill="none" stroke-width="0.42" opacity="0.6"></polyline><polygon points="202.88,510.88 204.00,502.88 205.12,505.12" transform="rotate(101.88865890551006, 204.00, 504.00)" cx="204" cy="504" r="1.1232029983775016" fill="#e2e2e2" stroke="#ccc" stroke-width="0.2" opacity="0.6"></polygon></g><g class="key-Mongolia_0"><circle cx="271.00" cy="447.00" r="1.12" fill="#e2e2e2" stroke="#ccc" opacity="0.6"></circle><polyline stroke-linecap="round" stroke="#ccc" points="271.00,447.00 308.00,386.00 323.00,463.00 368.00,506.00 302.00,509.00 332.00,510.00 286.00,510.00" fill="none" stroke-width="0.42" opacity="0.6"></polyline><polygon points="284.88,516.88 286.00,508.88 287.12,511.12" transform="rotate(-90.0000007648485, 286.00, 510.00)" cx="286" cy="510" r="1.122225592214153" fill="#e2e2e2" stroke="#ccc" stroke-width="0.2" opacity="0.6"></polygon></g><g class="key-Jamaica_0"><circle cx="286.00" cy="478.00" r="1.12" fill="#e2e2e2" stroke="#ccc" opacity="0.6"></circle><polyline stroke-linecap="round" stroke="#ccc" points="286.00,478.00 309.00,491.00 289.00,466.00 295.00,496.00 263.00,500.00 231.00,499.00 255.00,504.00" fill="none" stroke-width="0.42" opacity="0.6"></polyline><polygon points="253.88,510.88 255.00,502.88 256.12,505.12" transform="rotate(101.7682897968798, 255.00, 504.00)" cx="255" cy="504" r="1.121559975437387" fill="#e2e2e2" stroke="#ccc" stroke-width="0.2" opacity="0.6"></polygon></g><g class="key-Namibia_0"><circle cx="304.00" cy="263.00" r="1.12" fill="#e2e2e2" stroke="#ccc" opacity="0.6"></circle><polyline stroke-linecap="round" stroke="#ccc" points="304.00,263.00 285.00,364.00 331.00,406.00" fill="none" stroke-width="0.42" opacity="0.6"></polyline><polygon points="329.88,412.88 331.00,404.88 332.12,407.12" transform="rotate(132.39743892265554, 331.00, 406.00)" cx="331" cy="406" r="1.1199746878754544" fill="#e2e2e2" stroke="#ccc" stroke-width="0.2" opacity="0.6"></polygon></g><g class="key-Latvia_0"><circle cx="240.00" cy="512.00" r="1.12" fill="#e2e2e2" stroke="#ccc" opacity="0.6"></circle><polyline stroke-linecap="round" stroke="#ccc" points="240.00,512.00 270.00,505.00 266.00,506.00 264.00,505.00 250.00,509.00 248.00,510.00 263.00,499.00 284.00,499.00 268.00,506.00 260.00,512.00 265.00,505.00 281.00,511.00 338.00,503.00 359.00,506.00 377.00,506.00" fill="none" stroke-width="0.42" opacity="0.6"></polyline><polygon points="375.88,512.88 377.00,504.88 378.12,507.12" transform="rotate(90.0000007648485, 377.00, 506.00)" cx="377" cy="506" r="1.119946356135866" fill="#e2e2e2" stroke="#ccc" stroke-width="0.2" opacity="0.6"></polygon></g><g class="key-Lesotho_0"><circle cx="265.00" cy="231.00" r="1.12" fill="#e2e2e2" opacity="0.8" stroke="#999" stroke-width="0.7"></circle></g><g class="key-Macedonia_0"><circle cx="274.00" cy="508.00" r="1.12" fill="#e2e2e2" stroke="#ccc" opacity="0.6"></circle><polyline stroke-linecap="round" stroke="#ccc" points="274.00,508.00 232.00,488.00 198.00,506.00 205.00,507.00 220.00,506.00 241.00,506.00 257.00,500.00 284.00,506.00" fill="none" stroke-width="0.42" opacity="0.6"></polyline><polygon points="282.88,512.88 284.00,504.88 285.12,507.12" transform="rotate(102.52880858047378, 284.00, 506.00)" cx="284" cy="506" r="1.1192571464037067" fill="#e2e2e2" stroke="#ccc" stroke-width="0.2" opacity="0.6"></polygon></g><g class="key-Slovenia_0"><circle cx="306.00" cy="512.00" r="1.12" fill="#e2e2e2" stroke="#ccc" opacity="0.6"></circle><polyline stroke-linecap="round" stroke="#ccc" points="306.00,512.00 330.00,512.00 323.00,512.00 344.00,512.00 368.00,512.00 394.00,512.00 409.00,512.00 401.00,512.00 356.00,512.00 392.00,512.00 423.00,512.00 437.00,512.00" fill="none" stroke-width="0.42" opacity="0.6"></polyline><polygon points="435.88,518.88 437.00,510.88 438.12,513.12" transform="rotate(90.0000007648485, 437.00, 512.00)" cx="437" cy="512" r="1.119209802203021" fill="#e2e2e2" stroke="#ccc" stroke-width="0.2" opacity="0.6"></polygon></g><g class="key-Botswana_0"><circle cx="402.00" cy="312.00" r="1.12" fill="#e2e2e2" stroke="#ccc" opacity="0.6"></circle><polyline stroke-linecap="round" stroke="#ccc" points="402.00,312.00 304.00,348.00 330.00,372.00 241.00,426.00" fill="none" stroke-width="0.42" opacity="0.6"></polyline><polygon points="239.88,432.88 241.00,424.88 242.12,427.12" transform="rotate(-121.24693044387175, 241.00, 426.00)" cx="241" cy="426" r="1.1189874655628944" fill="#e2e2e2" stroke="#ccc" stroke-width="0.2" opacity="0.6"></polygon></g><g class="key-Guinea__002dBissau_0"><circle cx="115.00" cy="310.00" r="1.12" fill="#e2e2e2" stroke="#ccc" opacity="0.6"></circle><polyline stroke-linecap="round" stroke="#ccc" points="115.00,310.00 109.00,211.00 155.00,259.00 140.00,196.00" fill="none" stroke-width="0.42" opacity="0.6"></polyline><polygon points="138.88,202.88 140.00,194.88 141.12,197.12" transform="rotate(-13.392497867564785, 140.00, 196.00)" cx="140" cy="196" r="1.1171993681147083" fill="#e2e2e2" stroke="#ccc" stroke-width="0.2" opacity="0.6"></polygon></g><g class="key-Gambia_0"><circle cx="193.00" cy="181.00" r="1.12" fill="#e2e2e2" stroke="#ccc" opacity="0.6"></circle><polyline stroke-linecap="round" stroke="#ccc" points="193.00,181.00 222.00,299.00" fill="none" stroke-width="0.42" opacity="0.6"></polyline><polygon points="220.88,305.88 222.00,297.88 223.12,300.12" transform="rotate(166.192482396155, 222.00, 299.00)" cx="222" cy="299" r="1.116822436635444" fill="#e2e2e2" stroke="#ccc" stroke-width="0.2" opacity="0.6"></polygon></g><g class="key-Gabon_0"><circle cx="370.00" cy="475.00" r="1.12" fill="#e2e2e2" opacity="0.8" stroke="#999" stroke-width="0.7"></circle></g><g class="key-Estonia_0"><circle cx="410.00" cy="510.00" r="1.12" fill="#e2e2e2" stroke="#ccc" opacity="0.6"></circle><polyline stroke-linecap="round" stroke="#ccc" points="410.00,510.00 443.00,512.00 378.00,506.00 377.00,507.00 361.00,506.00 357.00,507.00 378.00,506.00 400.00,508.00 388.00,508.00 386.00,510.00 405.00,510.00 374.00,509.00 447.00,508.00 505.00,507.00 502.00,508.00" fill="none" stroke-width="0.42" opacity="0.6"></polyline><polygon points="500.88,514.88 502.00,506.88 503.12,509.12" transform="rotate(-108.43494974443654, 502.00, 508.00)" cx="502" cy="508" r="1.1165195036876405" fill="#e2e2e2" stroke="#ccc" stroke-width="0.2" opacity="0.6"></polygon></g><g class="key-Mauritius_0"><circle cx="362.00" cy="510.00" r="1.12" fill="#e2e2e2" stroke="#ccc" opacity="0.6"></circle><polyline stroke-linecap="round" stroke="#ccc" points="362.00,510.00 338.00,510.00" fill="none" stroke-width="0.42" opacity="0.6"></polyline><polygon points="336.88,516.88 338.00,508.88 339.12,511.12" transform="rotate(-90.0000007648485, 338.00, 510.00)" cx="338" cy="510" r="1.1164185829355273" fill="#e2e2e2" stroke="#ccc" stroke-width="0.2" opacity="0.6"></polygon></g><g class="key-Eswatini_0"><circle cx="389.00" cy="128.00" r="1.11" fill="#e2e2e2" stroke="#ccc" opacity="0.6"></circle><polyline stroke-linecap="round" stroke="#ccc" points="389.00,128.00 415.00,284.00 329.00,314.00" fill="none" stroke-width="0.42" opacity="0.6"></polyline><polygon points="327.88,320.88 329.00,312.88 330.12,315.12" transform="rotate(-109.23067330393813, 329.00, 314.00)" cx="329" cy="314" r="1.1158514597065894" fill="#e2e2e2" stroke="#ccc" stroke-width="0.2" opacity="0.6"></polygon></g><g class="key-Fiji_0"><circle cx="377.00" cy="486.00" r="1.11" fill="#e2e2e2" stroke="#ccc" opacity="0.6"></circle><polyline stroke-linecap="round" stroke="#ccc" points="377.00,486.00 355.00,493.00" fill="none" stroke-width="0.41" opacity="0.6"></polyline><polygon points="353.89,499.89 355.00,491.89 356.11,494.11" transform="rotate(-107.65012513477498, 355.00, 493.00)" cx="355" cy="493" r="1.1145753905731246" fill="#e2e2e2" stroke="#ccc" stroke-width="0.2" opacity="0.6"></polygon></g><g class="key-Bhutan_0"><circle cx="194.00" cy="346.00" r="1.11" fill="#e2e2e2" stroke="#ccc" opacity="0.6"></circle><polyline stroke-linecap="round" stroke="#ccc" points="194.00,346.00 344.00,475.00 261.00,502.00" fill="none" stroke-width="0.41" opacity="0.6"></polyline><polygon points="259.89,508.89 261.00,500.89 262.11,503.11" transform="rotate(-108.01977019976336, 261.00, 502.00)" cx="261" cy="502" r="1.1142064429840284" fill="#e2e2e2" stroke="#ccc" stroke-width="0.2" opacity="0.6"></polygon></g><g class="key-Guyana_0"><circle cx="715.00" cy="356.00" r="1.11" fill="#e2e2e2" stroke="#ccc" opacity="0.6"></circle><polyline stroke-linecap="round" stroke="#ccc" points="715.00,356.00 553.00,446.00" fill="none" stroke-width="0.41" opacity="0.6"></polyline><polygon points="551.89,452.89 553.00,444.89 554.11,447.11" transform="rotate(-119.05460511084087, 553.00, 446.00)" cx="553" cy="446" r="1.1141271805677182" fill="#e2e2e2" stroke="#ccc" stroke-width="0.2" opacity="0.6"></polygon></g><g class="key-Montenegro_0"><circle cx="286.00" cy="511.00" r="1.11" fill="#e2e2e2" stroke="#ccc" opacity="0.6"></circle><polyline stroke-linecap="round" stroke="#ccc" points="286.00,511.00 271.00,512.00 283.00,511.00 265.00,511.00 239.00,512.00 253.00,512.00 280.00,511.00 287.00,506.00" fill="none" stroke-width="0.41" opacity="0.6"></polyline><polygon points="285.89,512.89 287.00,504.89 288.11,507.11" transform="rotate(54.46232267086368, 287.00, 506.00)" cx="287" cy="506" r="1.113739049264101" fill="#e2e2e2" stroke="#ccc" stroke-width="0.2" opacity="0.6"></polygon></g><g class="key-Comoros_0"><circle cx="143.00" cy="449.00" r="1.11" fill="#e2e2e2" opacity="0.8" stroke="#fff" stroke-width="0.7"></circle></g><g class="key-Cape-Verde_0"><circle cx="216.00" cy="437.00" r="1.11" fill="#e2e2e2" stroke="#ccc" opacity="0.6"></circle><polyline stroke-linecap="round" stroke="#ccc" points="216.00,437.00 248.00,474.00" fill="none" stroke-width="0.41" opacity="0.6"></polyline><polygon points="246.89,480.89 248.00,472.89 249.11,475.11" transform="rotate(139.14462492359937, 248.00, 474.00)" cx="248" cy="474" r="1.1131412301393053" fill="#e2e2e2" stroke="#ccc" stroke-width="0.2" opacity="0.6"></polygon></g><g class="key-Solomon-Islands_0"><circle cx="238.00" cy="298.00" r="1.11" fill="#e2e2e2" opacity="0.8" stroke="#999" stroke-width="0.7"></circle></g><g class="key-Suriname_0"><circle cx="203.00" cy="402.00" r="1.11" fill="#e2e2e2" opacity="0.8" stroke="#999" stroke-width="0.7"></circle></g><g class="key-Maldives_0"><circle cx="436.00" cy="478.00" r="1.11" fill="#e2e2e2" opacity="0.8" stroke="#999" stroke-width="0.7"></circle></g><g class="key-Belize_0"><circle cx="302.00" cy="465.00" r="1.11" fill="#e2e2e2" stroke="#ccc" opacity="0.6"></circle><polyline stroke-linecap="round" stroke="#ccc" points="302.00,465.00 318.00,466.00 308.00,454.00 319.00,453.00 333.00,435.00 332.00,442.00 345.00,447.00" fill="none" stroke-width="0.41" opacity="0.6"></polyline><polygon points="343.89,453.89 345.00,445.89 346.11,448.11" transform="rotate(111.03751196905375, 345.00, 447.00)" cx="345" cy="447" r="1.112182471681367" fill="#e2e2e2" stroke="#ccc" stroke-width="0.2" opacity="0.6"></polygon></g><g class="key-Vanuatu_0"><circle cx="302.00" cy="440.00" r="1.11" fill="#e2e2e2" opacity="0.8" stroke="#999" stroke-width="0.7"></circle></g><g class="key-Samoa_0"><circle cx="211.00" cy="508.00" r="1.11" fill="#e2e2e2" opacity="0.8" stroke="#fff" stroke-width="0.7"></circle></g><g class="key-Tonga_0"><circle cx="130.00" cy="499.00" r="1.11" fill="#e2e2e2" stroke="#ccc" opacity="0.6"></circle><polyline stroke-linecap="round" stroke="#ccc" points="130.00,499.00 132.00,507.00" fill="none" stroke-width="0.41" opacity="0.6"></polyline><polygon points="130.89,513.89 132.00,505.89 133.11,508.11" transform="rotate(165.96375794248607, 132.00, 507.00)" cx="132" cy="507" r="1.1116121042616767" fill="#e2e2e2" stroke="#ccc" stroke-width="0.2" opacity="0.6"></polygon></g><g class="key-Kiribati_0"><circle cx="120.00" cy="446.00" r="1.11" fill="#e2e2e2" opacity="0.8" stroke="#999" stroke-width="0.7"></circle></g><g class="key-Seychelles_0"><circle cx="183.00" cy="510.00" r="1.11" fill="#e2e2e2" stroke="#ccc" opacity="0.6"></circle><polyline stroke-linecap="round" stroke="#ccc" points="183.00,510.00 494.00,511.00" fill="none" stroke-width="0.41" opacity="0.6"></polyline><polygon points="492.89,517.89 494.00,509.89 495.11,512.11" transform="rotate(90.18423093378921, 494.00, 511.00)" cx="494" cy="511" r="1.1115340713721178" fill="#e2e2e2" stroke="#ccc" stroke-width="0.2" opacity="0.6"></polygon></g><g class="key-East-Asia-__0026-Pacific_0"><circle cx="162.00" cy="134.00" r="1.11" fill="#e2e2e2" stroke="#ccc" opacity="0.6"></circle><polyline stroke-linecap="round" stroke="#ccc" points="162.00,134.00 165.00,183.00 167.00,238.00 169.00,229.00 173.00,265.00 180.00,327.00 190.00,337.00 202.00,376.00 238.00,425.00 248.00,442.00 228.00,460.00 233.00,473.00 229.00,479.00" fill="none" stroke-width="0.41" opacity="0.6"></polyline><polygon points="227.89,485.89 229.00,477.89 230.11,480.11" transform="rotate(-146.30993371740837, 229.00, 479.00)" cx="229" cy="479" r="1.111191351501275" fill="#e2e2e2" stroke="#ccc" stroke-width="0.2" opacity="0.6"></polygon></g><g class="key-Fragile-and-conflict-affected-situations_0"><circle cx="164.00" cy="317.00" r="1.11" fill="#e2e2e2" stroke="#ccc" opacity="0.6"></circle><polyline stroke-linecap="round" stroke="#ccc" points="164.00,317.00 138.00,294.00 162.00,299.00 259.00,307.00 256.00,306.00 265.00,310.00 266.00,317.00 242.00,320.00 245.00,323.00 249.00,327.00" fill="none" stroke-width="0.41" opacity="0.6"></polyline><polygon points="247.89,333.89 249.00,325.89 250.11,328.11" transform="rotate(135.00000114727274, 249.00, 327.00)" cx="249" cy="327" r="1.111191351501275" fill="#e2e2e2" stroke="#ccc" stroke-width="0.2" opacity="0.6"></polygon></g><g class="key-High-income_0"><circle cx="172.00" cy="508.00" r="1.11" fill="#e2e2e2" stroke="#ccc" opacity="0.6"></circle><polyline stroke-linecap="round" stroke="#ccc" points="172.00,508.00 170.00,506.00 161.00,507.00 167.00,505.00 166.00,507.00 178.00,504.00 184.00,509.00 190.00,509.00 203.00,509.00 220.00,510.00 214.00,510.00 224.00,510.00 226.00,511.00" fill="none" stroke-width="0.41" opacity="0.6"></polyline><polygon points="224.89,517.89 226.00,509.89 227.11,512.11" transform="rotate(116.56505216768471, 226.00, 511.00)" cx="226" cy="511" r="1.111191351501275" fill="#e2e2e2" stroke="#ccc" stroke-width="0.2" opacity="0.6"></polygon></g><g class="key-IBRD-only_0"><circle cx="129.00" cy="264.00" r="1.11" fill="#e2e2e2" stroke="#ccc" opacity="0.6"></circle><polyline stroke-linecap="round" stroke="#ccc" points="129.00,264.00 139.00,289.00 142.00,323.00 153.00,322.00 168.00,334.00 171.00,364.00 187.00,370.00 203.00,391.00 231.00,418.00 226.00,433.00 207.00,447.00 211.00,460.00 208.00,466.00" fill="none" stroke-width="0.41" opacity="0.6"></polyline><polygon points="206.89,472.89 208.00,464.89 209.11,467.11" transform="rotate(-153.4349501268608, 208.00, 466.00)" cx="208" cy="466" r="1.111191351501275" fill="#e2e2e2" stroke="#ccc" stroke-width="0.2" opacity="0.6"></polygon></g><g class="key-IDA-__0026-IBRD-total_0"><circle cx="131.00" cy="267.00" r="1.11" fill="#e2e2e2" stroke="#ccc" opacity="0.6"></circle><polyline stroke-linecap="round" stroke="#ccc" points="131.00,267.00 139.00,286.00 143.00,312.00 154.00,312.00 168.00,322.00 173.00,349.00 187.00,353.00 202.00,369.00 229.00,397.00 225.00,412.00 205.00,425.00 210.00,436.00 206.00,443.00" fill="none" stroke-width="0.41" opacity="0.6"></polyline><polygon points="204.89,449.89 206.00,441.89 207.11,444.11" transform="rotate(-150.2551199799734, 206.00, 443.00)" cx="206" cy="443" r="1.111191351501275" fill="#e2e2e2" stroke="#ccc" stroke-width="0.2" opacity="0.6"></polygon></g><g class="key-IDA-total_0"><circle cx="154.00" cy="277.00" r="1.11" fill="#e2e2e2" stroke="#ccc" opacity="0.6"></circle><polyline stroke-linecap="round" stroke="#ccc" points="154.00,277.00 145.00,273.00 156.00,270.00 174.00,274.00 177.00,274.00 190.00,293.00 188.00,294.00 194.00,294.00 197.00,328.00 201.00,345.00 182.00,356.00 195.00,364.00 190.00,370.00" fill="none" stroke-width="0.41" opacity="0.6"></polyline><polygon points="188.89,376.89 190.00,368.89 191.11,371.11" transform="rotate(-140.19443009915148, 190.00, 370.00)" cx="190" cy="370" r="1.111191351501275" fill="#e2e2e2" stroke="#ccc" stroke-width="0.2" opacity="0.6"></polygon></g><g class="key-IDA-blend_0"><circle cx="167.00" cy="282.00" r="1.11" fill="#e2e2e2" stroke="#ccc" opacity="0.6"></circle><polyline stroke-linecap="round" stroke="#ccc" points="167.00,282.00 152.00,280.00 174.00,272.00 201.00,294.00 207.00,302.00 203.00,335.00 200.00,328.00 211.00,316.00 204.00,364.00 215.00,379.00 180.00,396.00 196.00,401.00 191.00,407.00" fill="none" stroke-width="0.41" opacity="0.6"></polyline><polygon points="189.89,413.89 191.00,405.89 192.11,408.11" transform="rotate(-140.19443009915148, 191.00, 407.00)" cx="191" cy="407" r="1.111191351501275" fill="#e2e2e2" stroke="#ccc" stroke-width="0.2" opacity="0.6"></polygon></g><g class="key-IDA-only_0"><circle cx="137.00" cy="268.00" r="1.11" fill="#e2e2e2" stroke="#ccc" opacity="0.6"></circle><polyline stroke-linecap="round" stroke="#ccc" points="137.00,268.00 137.00,268.00 146.00,261.00 148.00,255.00 178.00,265.00 177.00,271.00 181.00,280.00 191.00,306.00 189.00,324.00 184.00,332.00 195.00,340.00 189.00,347.00" fill="none" stroke-width="0.41" opacity="0.6"></polyline><polygon points="187.89,353.89 189.00,345.89 190.11,348.11" transform="rotate(-139.39870653964985, 189.00, 347.00)" cx="189" cy="347" r="1.111191351501275" fill="#e2e2e2" stroke="#ccc" stroke-width="0.2" opacity="0.6"></polygon></g><g class="key-Latin-America-__0026-Caribbean_0"><circle cx="133.00" cy="436.00" r="1.11" fill="#e2e2e2" stroke="#ccc" opacity="0.6"></circle><polyline stroke-linecap="round" stroke="#ccc" points="133.00,436.00 150.00,423.00 143.00,443.00 152.00,438.00 140.00,444.00 153.00,445.00 154.00,447.00 173.00,451.00 191.00,466.00 183.00,479.00 174.00,482.00 179.00,484.00 176.00,486.00" fill="none" stroke-width="0.41" opacity="0.6"></polyline><polygon points="174.89,492.89 176.00,484.89 177.11,487.11" transform="rotate(-123.69006857713717, 176.00, 486.00)" cx="176" cy="486" r="1.111191351501275" fill="#e2e2e2" stroke="#ccc" stroke-width="0.2" opacity="0.6"></polygon></g><g class="key-Low-income_0"><circle cx="159.00" cy="198.00" r="1.11" fill="#e2e2e2" stroke="#ccc" opacity="0.6"></circle><polyline stroke-linecap="round" stroke="#ccc" points="159.00,198.00 155.00,180.00 193.00,191.00 184.00,199.00 192.00,211.00 204.00,237.00 192.00,256.00 183.00,267.00 192.00,277.00 176.00,286.00" fill="none" stroke-width="0.41" opacity="0.6"></polyline><polygon points="174.89,292.89 176.00,284.89 177.11,287.11" transform="rotate(-119.35775455713126, 176.00, 286.00)" cx="176" cy="286" r="1.111191351501275" fill="#e2e2e2" stroke="#ccc" stroke-width="0.2" opacity="0.6"></polygon></g><g class="key-Lower-middle-income_0"><circle cx="147.00" cy="274.00" r="1.11" fill="#e2e2e2" stroke="#ccc" opacity="0.6"></circle><polyline stroke-linecap="round" stroke="#ccc" points="147.00,274.00 141.00,283.00 141.00,294.00 158.00,313.00 168.00,310.00 173.00,329.00 186.00,335.00 198.00,345.00 216.00,367.00 220.00,383.00 202.00,402.00 212.00,418.00 206.00,426.00" fill="none" stroke-width="0.41" opacity="0.6"></polyline><polygon points="204.89,432.89 206.00,424.89 207.11,427.11" transform="rotate(-143.13010357052093, 206.00, 426.00)" cx="206" cy="426" r="1.111191351501275" fill="#e2e2e2" stroke="#ccc" stroke-width="0.2" opacity="0.6"></polygon></g><g class="key-Low-__0026-middle-income_0"><circle cx="131.00" cy="268.00" r="1.11" fill="#e2e2e2" stroke="#ccc" opacity="0.6"></circle><polyline stroke-linecap="round" stroke="#ccc" points="131.00,268.00 139.00,288.00 143.00,313.00 153.00,313.00 169.00,323.00 173.00,350.00 188.00,355.00 201.00,371.00 228.00,399.00 224.00,413.00 203.00,426.00 209.00,437.00 205.00,443.00" fill="none" stroke-width="0.41" opacity="0.6"></polyline><polygon points="203.89,449.89 205.00,441.89 206.11,444.11" transform="rotate(-146.30993371740837, 205.00, 443.00)" cx="205" cy="443" r="1.111191351501275" fill="#e2e2e2" stroke="#ccc" stroke-width="0.2" opacity="0.6"></polygon></g><g class="key-Middle-income_0"><circle cx="131.00" cy="258.00" r="1.11" fill="#e2e2e2" stroke="#ccc" opacity="0.6"></circle><polyline stroke-linecap="round" stroke="#ccc" points="131.00,258.00 139.00,281.00 143.00,310.00 153.00,311.00 169.00,323.00 173.00,354.00 188.00,359.00 201.00,376.00 229.00,407.00 224.00,422.00 204.00,436.00 209.00,449.00 205.00,455.00" fill="none" stroke-width="0.41" opacity="0.6"></polyline><polygon points="203.89,461.89 205.00,453.89 206.11,456.11" transform="rotate(-146.30993371740837, 205.00, 455.00)" cx="205" cy="455" r="1.111191351501275" fill="#e2e2e2" stroke="#ccc" stroke-width="0.2" opacity="0.6"></polygon></g><g class="key-South-Asia_0"><circle cx="101.00" cy="255.00" r="1.11" fill="#e2e2e2" stroke="#ccc" opacity="0.6"></circle><polyline stroke-linecap="round" stroke="#ccc" points="101.00,255.00 101.00,266.00 99.00,285.00 107.00,302.00 121.00,301.00 124.00,323.00 141.00,331.00 163.00,354.00 180.00,374.00 172.00,397.00 181.00,419.00 180.00,430.00" fill="none" stroke-width="0.41" opacity="0.6"></polyline><polygon points="178.89,436.89 180.00,428.89 181.11,431.11" transform="rotate(-174.8055725778183, 180.00, 430.00)" cx="180" cy="430" r="1.111191351501275" fill="#e2e2e2" stroke="#ccc" stroke-width="0.2" opacity="0.6"></polygon></g><g class="key-Upper-middle-income_0"><circle cx="126.00" cy="246.00" r="1.11" fill="#e2e2e2" stroke="#ccc" opacity="0.6"></circle><polyline stroke-linecap="round" stroke="#ccc" points="126.00,246.00 138.00,279.00 143.00,325.00 152.00,309.00 170.00,336.00 172.00,378.00 189.00,382.00 202.00,408.00 233.00,447.00 225.00,464.00 204.00,474.00 208.00,483.00 205.00,487.00" fill="none" stroke-width="0.41" opacity="0.6"></polyline><polygon points="203.89,493.89 205.00,485.89 206.11,488.11" transform="rotate(-143.13010357052093, 205.00, 487.00)" cx="205" cy="487" r="1.111191351501275" fill="#e2e2e2" stroke="#ccc" stroke-width="0.2" opacity="0.6"></polygon></g><g class="key-World_0"><circle cx="161.00" cy="314.00" r="1.11" fill="#e2e2e2" stroke="#ccc" opacity="0.6"></circle><polyline stroke-linecap="round" stroke="#ccc" points="161.00,314.00 162.00,328.00 156.00,348.00 163.00,347.00 167.00,355.00 177.00,377.00 185.00,380.00 193.00,393.00 210.00,416.00 221.00,428.00 211.00,439.00 220.00,449.00 220.00,454.00" fill="none" stroke-width="0.41" opacity="0.6"></polyline><polygon points="218.89,460.89 220.00,452.89 221.11,455.11" transform="rotate(180.000001529697, 220.00, 454.00)" cx="220" cy="454" r="1.111191351501275" fill="#e2e2e2" stroke="#ccc" stroke-width="0.2" opacity="0.6"></polygon></g><g class="key-Middle-East-__0026-North-Africa_0"><circle cx="211.00" cy="473.00" r="1.11" fill="#e2e2e2" stroke="#ccc" opacity="0.6"></circle><polyline stroke-linecap="round" stroke="#ccc" points="211.00,473.00 191.00,472.00 211.00,484.00 210.00,486.00 220.00,490.00 236.00,494.00 313.00,498.00 325.00,502.00" fill="none" stroke-width="0.41" opacity="0.6"></polyline><polygon points="323.89,508.89 325.00,500.89 326.11,503.11" transform="rotate(108.43494974443654, 325.00, 502.00)" cx="325" cy="502" r="1.111191351501275" fill="#e2e2e2" stroke="#ccc" stroke-width="0.2" opacity="0.6"></polygon></g><g class="key-Europe-__0026-Central-Asia_0"><circle cx="191.00" cy="498.00" r="1.11" fill="#e2e2e2" stroke="#ccc" opacity="0.6"></circle><polyline stroke-linecap="round" stroke="#ccc" points="191.00,498.00 194.00,493.00 202.00,480.00 213.00,476.00 229.00,474.00 239.00,483.00 248.00,488.00 262.00,497.00 258.00,498.00 270.00,499.00 275.00,500.00" fill="none" stroke-width="0.41" opacity="0.6"></polyline><polygon points="273.89,506.89 275.00,498.89 276.11,501.11" transform="rotate(101.30993333498411, 275.00, 500.00)" cx="275" cy="500" r="1.111191351501275" fill="#e2e2e2" stroke="#ccc" stroke-width="0.2" opacity="0.6"></polygon></g><g class="key-Sub__002dSaharan-Africa_0"><circle cx="197.00" cy="257.00" r="1.11" fill="#e2e2e2" stroke="#ccc" opacity="0.6"></circle><polyline stroke-linecap="round" stroke="#ccc" points="197.00,257.00 201.00,237.00 204.00,241.00 205.00,243.00 239.00,251.00 238.00,277.00 258.00,291.00 224.00,297.00 238.00,305.00 230.00,312.00" fill="none" stroke-width="0.41" opacity="0.6"></polyline><polygon points="228.89,318.89 230.00,310.89 231.11,313.11" transform="rotate(-131.1859262805692, 230.00, 312.00)" cx="230" cy="312" r="1.111191351501275" fill="#e2e2e2" stroke="#ccc" stroke-width="0.2" opacity="0.6"></polygon></g><g class="key-Micronesia-__0028country__0029_0"><circle cx="149.00" cy="458.00" r="1.11" fill="#e2e2e2" opacity="0.8" stroke="#fff" stroke-width="0.7"></circle></g><g class="key-Timor_0"><circle cx="102.00" cy="304.00" r="1.11" fill="#e2e2e2" stroke="#ccc" opacity="0.6"></circle><polyline stroke-linecap="round" stroke="#ccc" points="102.00,304.00 74.00,292.00" fill="none" stroke-width="0.41" opacity="0.6"></polyline><polygon points="72.89,298.89 74.00,290.89 75.11,293.11" transform="rotate(-66.80141005405135, 74.00, 292.00)" cx="74" cy="292" r="1.111191351501275" fill="#e2e2e2" stroke="#ccc" stroke-width="0.2" opacity="0.6"></polygon></g><g class="key-Kosovo_0"><circle cx="128.00" cy="497.00" r="1.11" fill="#e2e2e2" stroke="#ccc" opacity="0.6"></circle><polyline stroke-linecap="round" stroke="#ccc" points="128.00,497.00 151.00,500.00 165.00,502.00 184.00,506.00 182.00,510.00" fill="none" stroke-width="0.41" opacity="0.6"></polyline><polygon points="180.89,516.89 182.00,508.89 183.11,511.11" transform="rotate(-153.4349501268608, 182.00, 510.00)" cx="182" cy="510" r="1.111191351501275" fill="#e2e2e2" stroke="#ccc" stroke-width="0.2" opacity="0.6"></polygon></g><g class="key-Palestine_0"><circle cx="134.00" cy="511.00" r="1.11" fill="#e2e2e2" stroke="#ccc" opacity="0.6"></circle><polyline stroke-linecap="round" stroke="#ccc" points="134.00,511.00 140.00,511.00 140.00,512.00 163.00,508.00 143.00,512.00" fill="none" stroke-width="0.41" opacity="0.6"></polyline><polygon points="141.89,518.89 143.00,510.89 144.11,513.11" transform="rotate(-101.30993333498411, 143.00, 512.00)" cx="143" cy="512" r="1.111191351501275" fill="#e2e2e2" stroke="#ccc" stroke-width="0.2" opacity="0.6"></polygon></g><g fill="#aaa" class="backgroundLabels"><text x="152.32" y="492.94" font-size="14.29">China</text><text x="134.91" y="466.33" font-size="11.59">Indonesia</text><text x="179.94" y="261.00" font-size="11.37">Nigeria</text><text x="161.28" y="512.00" font-size="11.35">Russia</text><text x="232.54" y="507.74" font-size="11.28">Mexico</text><text x="162.45" y="448.09" font-size="11.23">Philippines</text><text x="372.00" y="512.00" font-size="11.17">Thailand</text><text x="223.30" y="159.02" font-size="11.17">Democratic Republic of Congo</text><text x="171.63" y="303.28" font-size="11.11">Tanzania</text><text x="94.27" y="505.00" font-size="11.10">Argentina</text><text x="295.00" y="512.00" font-size="11.09">Poland</text><text x="169.12" y="359.07" font-size="11.09">Uganda</text><text x="82.96" y="452.43" font-size="11.07">Nepal</text><text x="195.45" y="479.12" font-size="11.07">Venezuela</text><text x="258.92" y="197.11" font-size="11.06">Uzbekistan</text><text x="251.51" y="404.29" font-size="11.05">Ghana</text><text x="259.81" y="481.65" font-size="11.05">Romania</text><text x="241.79" y="371.01" font-size="11.05">Cote d'Ivoire</text><text x="413.49" y="376.25" font-size="11.04">Angola</text><text x="170.82" y="285.45" font-size="11.04">Niger</text><text x="149.88" y="286.39" font-size="11.04">Mali</text><text x="184.29" y="186.09" font-size="11.04">Malawi</text><text x="264.68" y="340.74" font-size="11.03">Chad</text><text x="125.40" y="239.50" font-size="11.03">Rwanda</text><text x="154.78" y="264.97" font-size="11.02">Haiti</text><text x="308.74" y="468.42" font-size="11.02">Bolivia</text><text x="100.36" y="157.47" font-size="11.02">Burundi</text><text x="151.53" y="392.03" font-size="11.02">Tajikistan</text><text x="261.22" y="442.19" font-size="11.02">Laos</text><text x="268.54" y="266.04" font-size="11.01">Togo</text><text x="535.00" y="511.00" font-size="11.01">Slovakia</text><text x="367.00" y="258.93" font-size="11.01">Papua New Guinea</text><text x="159.03" y="321.32" font-size="11.01">Turkmenistan</text><text x="115.09" y="199.07" font-size="11.01">Central African Republic</text><text x="510.25" y="348.35" font-size="11.01">Congo</text><text x="400.91" y="490.08" font-size="11.01">Panama</text><text x="446.00" y="186.01" font-size="11.01">Liberia</text><text x="334.69" y="414.87" font-size="11.01">Namibia</text><text x="265.00" y="228.08" font-size="11.01">Lesotho</text><text x="223.19" y="309.36" font-size="11.00">Gambia</text><text x="370.00" y="472.13" font-size="11.00">Gabon</text><text x="283.24" y="321.15" font-size="11.00">Eswatini</text><text x="336.26" y="500.02" font-size="11.00">Fiji</text><text x="509.90" y="453.93" font-size="11.00">Guyana</text><text x="238.00" y="295.19" font-size="11.00">Solomon Islands</text><text x="203.00" y="399.19" font-size="11.00">Suriname</text><text x="436.00" y="475.20" font-size="11.00">Maldives</text><text x="349.67" y="454.30" font-size="11.00">Belize</text><text x="302.00" y="437.21" font-size="11.00">Vanuatu</text><text x="120.00" y="443.21" font-size="11.00">Kiribati</text><text x="144.45" y="379.34" font-size="11.00">IDA total</text><text x="139.29" y="416.34" font-size="11.00">IDA blend</text><text x="220.00" y="464.50" font-size="11.00">World</text><text x="69.40" y="290.03" font-size="11.00">Timor</text></g><g class="key-India_0"><defs><marker id="key-India_0-arrow-691" fill="#d14e5b" viewBox="0 -5 10 10" refX="5" refY="0" marker-width="4" marker-height="4" orient="auto"><path d="M0,-5L10,0L0,5"></path></marker><marker id="key-India_0-circle-691" viewBox="0 0 12 12" refX="4" refY="4" orient="auto" fill="#d14e5b"><circle cx="4" cy="4" r="4"></circle></marker></defs><circle cx="94.00" cy="259.00" r="2.65291025880449" fill="none" stroke="#d14e5b" opacity="0.6"></circle><polyline stroke-linecap="round" stroke="#d14e5b" points="94.00,259.00 93.00,302.00 114.00,296.00 156.00,332.00 169.00,366.00 189.00,412.00" fill="none" stroke-width="1.6529102588044902" opacity="0.6" marker-start="url(#key-India_0-circle-691)" marker-mid="url(#key-India_0-circle-691)" marker-end="url(#key-India_0-arrow-691)"></polyline></g><g class="key-Bangladesh_0"><defs><marker id="key-Bangladesh_0-arrow-691" fill="#d14e5b" viewBox="0 -5 10 10" refX="5" refY="0" marker-width="4" marker-height="4" orient="auto"><path d="M0,-5L10,0L0,5"></path></marker><marker id="key-Bangladesh_0-circle-691" viewBox="0 0 12 12" refX="4" refY="4" orient="auto" fill="#d14e5b"><circle cx="4" cy="4" r="4"></circle></marker></defs><circle cx="92.00" cy="331.00" r="2.1067434716982794" fill="none" stroke="#d14e5b" opacity="0.6"></circle><polyline stroke-linecap="round" stroke="#d14e5b" points="92.00,331.00 91.00,350.00 91.00,306.00 98.00,304.00 119.00,347.00 127.00,353.00 137.00,397.00 145.00,425.00" fill="none" stroke-width="1.1067434716982794" opacity="0.6" marker-start="url(#key-Bangladesh_0-circle-691)" marker-mid="url(#key-Bangladesh_0-circle-691)" marker-end="url(#key-Bangladesh_0-arrow-691)"></polyline></g><g class="key-Vietnam_0"><defs><marker id="key-Vietnam_0-arrow-691" fill="#d14e5b" viewBox="0 -5 10 10" refX="5" refY="0" marker-width="4" marker-height="4" orient="auto"><path d="M0,-5L10,0L0,5"></path></marker><marker id="key-Vietnam_0-circle-691" viewBox="0 0 12 12" refX="4" refY="4" orient="auto" fill="#d14e5b"><circle cx="4" cy="4" r="4"></circle></marker></defs><circle cx="241.00" cy="281.00" r="2.044782506016986" fill="none" stroke="#d14e5b" opacity="0.6"></circle><polyline stroke-linecap="round" stroke="#d14e5b" points="241.00,281.00 293.00,348.00 343.00,330.00 368.00,385.00 409.00,409.00 423.00,436.00 431.00,490.00 472.00,497.00" fill="none" stroke-width="1.0447825060169864" opacity="0.6" marker-start="url(#key-Vietnam_0-circle-691)" marker-mid="url(#key-Vietnam_0-circle-691)" marker-end="url(#key-Vietnam_0-arrow-691)"></polyline></g><g class="key-Kenya_0"><defs><marker id="key-Kenya_0-arrow-691" fill="#5675c1" viewBox="0 -5 10 10" refX="5" refY="0" marker-width="4" marker-height="4" orient="auto"><path d="M0,-5L10,0L0,5"></path></marker><marker id="key-Kenya_0-circle-691" viewBox="0 0 12 12" refX="4" refY="4" orient="auto" fill="#5675c1"><circle cx="4" cy="4" r="4"></circle></marker></defs><circle cx="198.00" cy="404.00" r="1.9689796655449938" fill="none" stroke="#5675c1" opacity="0.6"></circle><polyline stroke-linecap="round" stroke="#5675c1" points="198.00,404.00 253.00,424.00 179.00,411.00 209.00,354.00" fill="none" stroke-width="0.9689796655449939" opacity="0.6" marker-start="url(#key-Kenya_0-circle-691)" marker-mid="url(#key-Kenya_0-circle-691)" marker-end="url(#key-Kenya_0-arrow-691)"></polyline></g><g class="key-Senegal_0"><defs><marker id="key-Senegal_0-arrow-691" fill="#5675c1" viewBox="0 -5 10 10" refX="5" refY="0" marker-width="4" marker-height="4" orient="auto"><path d="M0,-5L10,0L0,5"></path></marker><marker id="key-Senegal_0-circle-691" viewBox="0 0 12 12" refX="4" refY="4" orient="auto" fill="#5675c1"><circle cx="4" cy="4" r="4"></circle></marker></defs><circle cx="182.00" cy="190.00" r="1.9237435391867033" fill="none" stroke="#5675c1" opacity="0.6"></circle><polyline stroke-linecap="round" stroke="#5675c1" points="182.00,190.00 226.00,241.00 210.00,280.00 202.00,332.00 198.00,333.00" fill="none" stroke-width="0.9237435391867033" opacity="0.6" marker-start="url(#key-Senegal_0-circle-691)" marker-mid="url(#key-Senegal_0-circle-691)" marker-end="url(#key-Senegal_0-arrow-691)"></polyline></g><text x="94.12" y="254.00" font-size="8" font-family="Arial Narrow, Arial, sans-serif" fill="#333">1983</text><text x="190.99" y="424.23" font-size="15.287811114658876" font-family="Arial Narrow, Arial, sans-serif" fill="#333">India</text><text x="92.26" y="326.01" font-size="8" font-family="Arial Narrow, Arial, sans-serif" fill="#333">1983</text><text x="222.01" y="277.05" font-size="8" font-family="Arial Narrow, Arial, sans-serif" fill="#333">1992</text><text x="476.93" y="503.96" font-size="12.237439187877596" font-family="Arial Narrow, Arial, sans-serif" fill="#333">Vietnam</text><text x="177.38" y="402.29" font-size="8" font-family="Arial Narrow, Arial, sans-serif" fill="#333">1992</text><text x="211.33" y="349.58" font-size="12.094116998935311" font-family="Arial Narrow, Arial, sans-serif" fill="#333">Kenya</text><text x="162.81" y="186.21" font-size="8" font-family="Arial Narrow, Arial, sans-serif" fill="#333">1991</text><text x="148.75" y="340.23" font-size="12.033608033178128" font-family="Arial Narrow, Arial, sans-serif" fill="#333">Senegal</text></g><g style="cursor: pointer;" class="ScatterColorLegend clickable"><g class="legendMark"><rect x="735" y="67.5" width="43.256" height="17.6" fill="#fff" opacity="0"></rect>,<rect x="735" y="73" width="6" height="6" fill="#5675c1"></rect>,<text font-size="12.60" x="746.0" y="80.1"><tspan x="746" y="80.08">Africa</tspan></text></g><g class="legendMark"><rect x="735" y="85.1" width="35.57" height="17.6" fill="#fff" opacity="0"></rect>,<rect x="735" y="90.6" width="6" height="6" fill="#d14e5b"></rect>,<text font-size="12.60" x="746.0" y="97.7"><tspan x="746" y="97.67999999999999">Asia</tspan></text></g><g fill="#ccc" class="legendMark"><rect x="735" y="102.7" width="51.824" height="17.6" fill="#fff" opacity="0"></rect>,<rect x="735" y="108.2" width="6" height="6"></rect>,<text font-size="12.60" x="746.0" y="115.3"><tspan x="746" y="115.28">Europe</tspan></text></g><g fill="#ccc" class="legendMark"><rect x="735" y="120.30000000000001" width="91.64" height="17.6" fill="#fff" opacity="0"></rect>,<rect x="735" y="125.80000000000001" width="6" height="6"></rect>,<text font-size="12.60" x="746.0" y="132.9"><tspan x="746" y="132.88">North America</tspan></text></g><g fill="#ccc" class="legendMark"><rect x="735" y="137.9" width="58.124" height="17.6" fill="#fff" opacity="0"></rect>,<rect x="735" y="143.4" width="6" height="6"></rect>,<text font-size="12.60" x="746.0" y="150.5"><tspan x="746" y="150.48">Oceania</tspan></text></g><g fill="#ccc" class="legendMark"><rect x="735" y="155.5" width="93.908" height="17.6" fill="#fff" opacity="0"></rect>,<rect x="735" y="161" width="6" height="6"></rect>,<text font-size="12.60" x="746.0" y="168.1"><tspan x="746" y="168.07999999999998">South America</tspan></text></g></g><line x1="735" y1="177.6" x2="830" y2="177.6" stroke="#ccc"></line><g class="clickable"><g class="ConnectedScatterLegend"><rect x="735" y="186.6" width="100" height="12.6" fill="#fff" opacity="0"></rect><text font-size="12.60" x="735.0" y="196.7" fill="#333"><tspan x="735" y="196.67999999999998">1981</tspan></text><text font-size="12.60" x="806.8" y="196.7" fill="#333"><tspan x="806.776" y="196.67999999999998">2012</tspan></text><line x1="768.224" y1="192.4" x2="801.776" y2="192.4" stroke="#666" stroke-width="1"></line><circle cx="768.224" cy="192.4" r="2" fill="#666" stroke="#ccc" stroke-width="0.2"></circle><circle cx="779.408" cy="192.4" r="2" fill="#666" stroke="#ccc" stroke-width="0.2"></circle><circle cx="790.592" cy="192.4" r="2" fill="#666" stroke="#ccc" stroke-width="0.2"></circle><polygon points="798.78,197.40 801.78,189.40 804.78,195.40" cx="801.776" cy="192.4" r="3" fill="#666" stroke="#ccc" stroke-width="0.2" transform="rotate(90, 801.776, 192.4)"></polygon></g></g></g><g style="fill: #777;" class="SourcesFooter"><g style="fill: #777;" class="clickable"><text font-size="12.60" x="15.0" y="581.6"><tspan x="15" y="581.58">Source: Poverty  - World Bank (WDI) (2017), World Bank</tspan></text></g><text font-size="12.60" x="775.4" y="581.6"><tspan x="775.402" y="581.58"><a style="fill: #777;" class="cclogo" href="http://creativecommons.org/licenses/by-sa/4.0/deed.en_US" target="_blank">CC BY-SA</a></tspan></text></g></g></svg>