<svg xmlns="http://www.w3.org/2000/svg" version="1.1" style="font-family: 'Helvetica Neue', Helvetica, Arial, sans-serif; font-size: 18px; background-color: white; text-rendering: optimizeLegibility; -webkit-font-smoothing: antialiased;" width="850" height="600"><g class="ChartTab"><g class="HeaderView"><g opacity="0.8" transform="translate(778, 15) scale(0.27)"><a xmlns:xlink="http://www.w3.org/1999/xlink" xlink:href="https://ourworldindata.org" target="_blank"><g><rect x="0" y="0" fill="#1B2543" width="211.2" height="130.1"/><rect x="0" y="112.2" fill="#E63912" width="211.2" height="17.9"/><g><rect x="1.2" y="12.3" fill="none" width="210.2" height="99.2"/><path fill="#FFFFFF" d="M37.8,32.2c0,12.7-7.7,19.4-17.1,19.4c-9.7,0-16.6-7.5-16.6-18.7c0-11.7,7.3-19.3,17.1-19.3 C31.3,13.7,37.8,21.3,37.8,32.2z M9.2,32.8c0,7.9,4.3,14.9,11.8,14.9c7.5,0,11.8-6.9,11.8-15.3c0-7.3-3.8-14.9-11.8-14.9 C13.1,17.5,9.2,24.8,9.2,32.8z"/><path fill="#FFFFFF" d="M62.7,43.8c0,2.7,0.1,5.1,0.2,7.2h-4.3l-0.3-4.3h-0.1c-1.3,2.1-4,4.9-8.8,4.9c-4.2,0-9.1-2.3-9.1-11.6 V24.6h4.8v14.6c0,5,1.5,8.4,5.9,8.4c3.2,0,5.5-2.2,6.3-4.4c0.3-0.7,0.4-1.6,0.4-2.5V24.6h4.8V43.8z"/><path fill="#FFFFFF" d="M67.3,32.8c0-3.1-0.1-5.8-0.2-8.2h4.2l0.2,5.2h0.2c1.2-3.5,4.1-5.8,7.3-5.8c0.5,0,0.9,0.1,1.4,0.2v4.5 c-0.5-0.1-1-0.2-1.6-0.2c-3.4,0-5.8,2.6-6.5,6.2c-0.1,0.7-0.2,1.4-0.2,2.2V51h-4.8V32.8z"/><path fill="#FFFFFF" d="M95.4,51l-9.4-36.8h5l4.4,18.6c1.1,4.6,2.1,9.2,2.7,12.7h0.1c0.6-3.7,1.8-8,3-12.8l4.9-18.5h5l4.5,18.7 c1,4.4,2,8.7,2.6,12.6h0.1c0.8-4,1.8-8.1,3-12.7l4.9-18.5h4.9L120.6,51h-5L111,31.9c-1.1-4.7-1.9-8.3-2.4-12h-0.1 c-0.7,3.7-1.5,7.3-2.8,12L100.4,51H95.4z"/><path fill="#FFFFFF" d="M154.9,37.6c0,9.8-6.8,14-13.2,14c-7.2,0-12.7-5.2-12.7-13.6c0-8.8,5.8-14,13.1-14 C149.8,24,154.9,29.5,154.9,37.6z M133.9,37.9c0,5.8,3.3,10.1,8,10.1c4.6,0,8-4.3,8-10.3c0-4.5-2.2-10.1-7.9-10.1 C136.3,27.6,133.9,32.8,133.9,37.9z"/><path fill="#FFFFFF" d="M158.2,32.8c0-3.1-0.1-5.8-0.2-8.2h4.2l0.2,5.2h0.2c1.2-3.5,4.1-5.8,7.3-5.8c0.5,0,0.9,0.1,1.4,0.2v4.5 c-0.5-0.1-1-0.2-1.6-0.2c-3.4,0-5.8,2.6-6.5,6.2c-0.1,0.7-0.2,1.4-0.2,2.2V51h-4.8V32.8z"/><path fill="#FFFFFF" d="M173.5,12.3h4.8V51h-4.8V12.3z"/><path fill="#FFFFFF" d="M206.5,12.3v31.9c0,2.3,0.1,5,0.2,6.8h-4.3l-0.2-4.6H202c-1.5,2.9-4.7,5.2-9,5.2 c-6.4,0-11.3-5.4-11.3-13.4c-0.1-8.8,5.4-14.2,11.9-14.2c4,0,6.8,1.9,8,4h0.1V12.3H206.5z M201.7,35.4c0-0.6-0.1-1.4-0.2-2 c-0.7-3.1-3.3-5.6-6.9-5.6c-5,0-7.9,4.4-7.9,10.2c0,5.3,2.6,9.8,7.8,9.8c3.2,0,6.2-2.1,7.1-5.7c0.2-0.7,0.2-1.3,0.2-2.1V35.4z"/><path fill="#FFFFFF" d="M42.8,64c0.1,1.6-1.1,2.9-3.1,2.9c-1.7,0-2.9-1.3-2.9-2.9c0-1.7,1.3-3,3-3C41.7,61,42.8,62.3,42.8,64z M37.4,97.8V71.4h4.8v26.4H37.4z"/><path fill="#FFFFFF" d="M47.5,78.6c0-2.7-0.1-5-0.2-7.1h4.3l0.3,4.4h0.1c1.3-2.5,4.4-5,8.8-5c3.7,0,9.4,2.2,9.4,11.2v15.8h-4.8 V82.6c0-4.3-1.6-7.8-6.1-7.8c-3.2,0-5.6,2.2-6.5,4.9c-0.2,0.6-0.3,1.4-0.3,2.2v15.9h-4.8V78.6z"/><path fill="#FFFFFF" d="M84,61.6c2.9-0.4,6.3-0.8,10.1-0.8c6.8,0,11.7,1.6,14.9,4.6c3.3,3,5.2,7.3,5.2,13.2c0,6-1.9,10.9-5.3,14.3 c-3.4,3.4-9.1,5.3-16.3,5.3c-3.4,0-6.2-0.2-8.6-0.4V61.6z M88.8,94.1c1.2,0.2,3,0.3,4.8,0.3c10.2,0,15.7-5.7,15.7-15.6 c0.1-8.7-4.9-14.2-14.9-14.2c-2.5,0-4.3,0.2-5.6,0.5V94.1z"/><path fill="#FFFFFF" d="M132.1,97.8l-0.4-3.3h-0.2c-1.5,2.1-4.3,3.9-8.1,3.9c-5.4,0-8.1-3.8-8.1-7.6c0-6.4,5.7-9.9,15.9-9.8v-0.5 c0-2.2-0.6-6.1-6-6.1c-2.5,0-5,0.8-6.9,2l-1.1-3.2c2.2-1.4,5.4-2.3,8.7-2.3c8.1,0,10.1,5.5,10.1,10.8v9.9c0,2.3,0.1,4.5,0.4,6.3 H132.1z M131.4,84.4c-5.3-0.1-11.2,0.8-11.2,5.9c0,3.1,2.1,4.6,4.5,4.6c3.4,0,5.6-2.2,6.4-4.4c0.2-0.5,0.3-1,0.3-1.5V84.4z"/><path fill="#FFFFFF" d="M146.6,63.9v7.6h6.9v3.7h-6.9v14.2c0,3.3,0.9,5.1,3.6,5.1c1.3,0,2.2-0.2,2.8-0.3l0.2,3.6 c-0.9,0.4-2.4,0.7-4.3,0.7c-2.2,0-4-0.7-5.2-2c-1.4-1.4-1.9-3.8-1.9-6.9V75.1h-4.1v-3.7h4.1v-6.3L146.6,63.9z"/><path fill="#FFFFFF" d="M171.4,97.8l-0.4-3.3h-0.2c-1.5,2.1-4.3,3.9-8.1,3.9c-5.4,0-8.1-3.8-8.1-7.6c0-6.4,5.7-9.9,15.9-9.8v-0.5 c0-2.2-0.6-6.1-6-6.1c-2.5,0-5,0.8-6.9,2l-1.1-3.2c2.2-1.4,5.4-2.3,8.7-2.3c8.1,0,10.1,5.5,10.1,10.8v9.9c0,2.3,0.1,4.5,0.4,6.3 H171.4z M170.7,84.4c-5.3-0.1-11.2,0.8-11.2,5.9c0,3.1,2.1,4.6,4.5,4.6c3.4,0,5.6-2.2,6.4-4.4c0.2-0.5,0.3-1,0.3-1.5V84.4z"/></g></g></a></g><a href="https://ourworldindata.org/grapher/prevalence-of-schizophrenia-by-age" target="_blank"><text font-size="25.20" x="15.0" y="35.2" fill="#555"><tspan x="15" y="35.160000000000004">Prevalence of schizophrenia by age, World</tspan></text></a><text font-size="14.40" x="15.0" y="53.7" fill="#666"><tspan x="15" y="53.72">Share of population within each age group suffering from schizophrenia. This is measured across both sexes. Figures</tspan><tspan x="15" y="69.56">attempt to provide a true estimate (going beyond reported diagnosis) of schizophrenia prevalence based on medical,</tspan><tspan x="15" y="85.4">epidemiological data, surveys and meta-regression modelling.</tspan></text></g><g class="LineChart"><defs><clipPath id="boundsClip-101"><rect x="47.098" y="0" width="830" height="897.8"></rect></clipPath></defs><g class="AxisBoxView"><g class="HorizontalAxis"><text x="57.1" y="556.5" fill="#666" text-anchor="middle" font-size="16.2">1990</text><text x="175" y="556.5" fill="#666" text-anchor="middle" font-size="16.2">1995</text><text x="292.9" y="556.5" fill="#666" text-anchor="middle" font-size="16.2">2000</text><text x="410.8" y="556.5" fill="#666" text-anchor="middle" font-size="16.2">2005</text><text x="528.7" y="556.5" fill="#666" text-anchor="middle" font-size="16.2">2010</text><text x="646.6" y="556.5" fill="#666" text-anchor="middle" font-size="16.2">2015</text><text x="693.8" y="556.5" fill="#666" text-anchor="middle" font-size="16.2">2017</text></g><g class="VerticalAxis"><text x="52.10" y="535.3" fill="#666" dominant-baseline="middle" text-anchor="end" font-size="16.2">0%</text><text x="52.10" y="442.3" fill="#666" dominant-baseline="middle" text-anchor="end" font-size="16.2">0.1%</text><text x="52.10" y="349.4" fill="#666" dominant-baseline="middle" text-anchor="end" font-size="16.2">0.2%</text><text x="52.10" y="256.4" fill="#666" dominant-baseline="middle" text-anchor="end" font-size="16.2">0.3%</text><text x="52.10" y="163.5" fill="#666" dominant-baseline="middle" text-anchor="end" font-size="16.2">0.4%</text></g><g class="AxisGridLines"><line x1="57.10" y1="535.3" x2="693.75" y2="535.3" stroke="#ccc"></line><line x1="57.10" y1="442.3" x2="693.75" y2="442.3" stroke="#ddd" stroke-dasharray="3,2"></line><line x1="57.10" y1="349.4" x2="693.75" y2="349.4" stroke="#ddd" stroke-dasharray="3,2"></line><line x1="57.10" y1="256.4" x2="693.75" y2="256.4" stroke="#ddd" stroke-dasharray="3,2"></line><line x1="57.10" y1="163.5" x2="693.75" y2="163.5" stroke="#ddd" stroke-dasharray="3,2"></line></g></g><g clip-path="url(#boundsClip-101)"><g class="HeightedLegend clickable"><g class="legendMark"><g class="indicator"><line x1="698.755" y1="532.5" x2="721.255" y2="532.5" stroke="#666" stroke-width="0.5"></line><line x1="721.255" y1="532.5" x2="721.255" y2="528.55" stroke="#666" stroke-width="0.5"></line><line x1="721.255" y1="528.55" x2="723.755" y2="528.55" stroke="#666" stroke-width="0.5"></line></g><rect x="693.755" y="521.8" width="120.86" height="13.5" fill="#fff" opacity="0"></rect><text font-size="13.50" x="728.8" y="532.6" fill="#3360a9"><tspan x="728.755" y="532.5999999999999">5-14 years old</tspan></text></g><g class="legendMark"><g class="indicator"><line x1="698.755" y1="529.7" x2="711.255" y2="529.7" stroke="#666" stroke-width="0.5"></line><line x1="711.255" y1="529.7" x2="711.255" y2="513.05" stroke="#666" stroke-width="0.5"></line><line x1="711.255" y1="513.05" x2="723.755" y2="513.05" stroke="#666" stroke-width="0.5"></line></g><rect x="693.755" y="506.29999999999995" width="128.42000000000002" height="13.5" fill="#fff" opacity="0"></rect><text font-size="13.50" x="728.8" y="517.1" fill="#ca2628"><tspan x="728.755" y="517.0999999999999">10-14 years old</tspan></text></g><g class="legendMark"><g class="indicator"><line x1="698.755" y1="488" x2="711.255" y2="488" stroke="#666" stroke-width="0.5"></line><line x1="711.255" y1="488" x2="711.255" y2="488" stroke="#666" stroke-width="0.5"></line><line x1="711.255" y1="488" x2="723.755" y2="488" stroke="#666" stroke-width="0.5"></line></g><rect x="693.755" y="481.25" width="128.42000000000002" height="13.5" fill="#fff" opacity="0"></rect><text font-size="13.50" x="728.8" y="492.1" fill="#34983f"><tspan x="728.755" y="492.05">15-19 years old</tspan></text></g><g class="legendMark"><g class="indicator"><line x1="698.755" y1="355.2" x2="721.255" y2="355.2" stroke="#666" stroke-width="0.5"></line><line x1="721.255" y1="355.2" x2="721.255" y2="355.2" stroke="#666" stroke-width="0.5"></line><line x1="721.255" y1="355.2" x2="723.755" y2="355.2" stroke="#666" stroke-width="0.5"></line></g><rect x="693.755" y="348.45" width="128.42000000000002" height="13.5" fill="#fff" opacity="0"></rect><text font-size="13.50" x="728.8" y="359.3" fill="#f6a324"><tspan x="728.755" y="359.25">20-24 years old</tspan></text></g><g class="legendMark"><g class="indicator"><line x1="698.755" y1="341.8" x2="711.255" y2="341.8" stroke="#666" stroke-width="0.5"></line><line x1="711.255" y1="341.8" x2="711.255" y2="339.7" stroke="#666" stroke-width="0.5"></line><line x1="711.255" y1="339.7" x2="723.755" y2="339.7" stroke="#666" stroke-width="0.5"></line></g><rect x="693.755" y="332.95" width="116.67500000000001" height="13.5" fill="#fff" opacity="0"></rect><text font-size="13.50" x="728.8" y="343.8" fill="#a652ba"><tspan x="728.755" y="343.75">70+ years old</tspan></text></g><g class="legendMark"><g class="indicator"><line x1="698.755" y1="299.1" x2="721.255" y2="299.1" stroke="#666" stroke-width="0.5"></line><line x1="721.255" y1="299.1" x2="721.255" y2="299.1" stroke="#666" stroke-width="0.5"></line><line x1="721.255" y1="299.1" x2="723.755" y2="299.1" stroke="#666" stroke-width="0.5"></line></g><rect x="693.755" y="292.35" width="141.245" height="13.5" fill="#fff" opacity="0"></rect><text font-size="13.50" x="728.8" y="303.2" fill="#2a939b"><tspan x="728.755" y="303.15000000000003">Age-standardized</tspan></text></g><g class="legendMark"><g class="indicator"><line x1="698.755" y1="285.8" x2="711.255" y2="285.8" stroke="#666" stroke-width="0.5"></line><line x1="711.255" y1="285.8" x2="711.255" y2="283.6" stroke="#666" stroke-width="0.5"></line><line x1="711.255" y1="283.6" x2="723.755" y2="283.6" stroke="#666" stroke-width="0.5"></line></g><rect x="693.755" y="276.85" width="83.195" height="13.5" fill="#fff" opacity="0"></rect><text font-size="13.50" x="728.8" y="287.7" fill="#e6332e"><tspan x="728.755" y="287.65000000000003">All ages</tspan></text></g><g class="legendMark"><g class="indicator"><line x1="698.755" y1="210.2" x2="721.255" y2="210.2" stroke="#666" stroke-width="0.5"></line><line x1="721.255" y1="210.2" x2="721.255" y2="210.2" stroke="#666" stroke-width="0.5"></line><line x1="721.255" y1="210.2" x2="723.755" y2="210.2" stroke="#666" stroke-width="0.5"></line></g><rect x="693.755" y="203.45" width="128.42000000000002" height="13.5" fill="#fff" opacity="0"></rect><text font-size="13.50" x="728.8" y="214.3" fill="#9ecc8a"><tspan x="728.755" y="214.25">15-49 years old</tspan></text></g><g class="legendMark"><g class="indicator"><line x1="698.755" y1="201" x2="711.255" y2="201" stroke="#666" stroke-width="0.5"></line><line x1="711.255" y1="201" x2="711.255" y2="194.7" stroke="#666" stroke-width="0.5"></line><line x1="711.255" y1="194.7" x2="723.755" y2="194.7" stroke="#666" stroke-width="0.5"></line></g><rect x="693.755" y="187.95" width="128.42000000000002" height="13.5" fill="#fff" opacity="0"></rect><text font-size="13.50" x="728.8" y="198.8" fill="#ffd53e"><tspan x="728.755" y="198.75">25-29 years old</tspan></text></g><g class="legendMark"><g class="indicator"><line x1="698.755" y1="151.7" x2="711.255" y2="151.7" stroke="#666" stroke-width="0.5"></line><line x1="711.255" y1="151.7" x2="711.255" y2="151.7" stroke="#666" stroke-width="0.5"></line><line x1="711.255" y1="151.7" x2="723.755" y2="151.7" stroke="#666" stroke-width="0.5"></line></g><rect x="693.755" y="144.95" width="128.42000000000002" height="13.5" fill="#fff" opacity="0"></rect><text font-size="13.50" x="728.8" y="155.8" fill="#b077b1"><tspan x="728.755" y="155.75">50-69 years old</tspan></text></g><g class="legendMark"><g class="indicator"><line x1="698.755" y1="118.8" x2="711.255" y2="118.8" stroke="#666" stroke-width="0.5"></line><line x1="711.255" y1="118.8" x2="711.255" y2="118.8" stroke="#666" stroke-width="0.5"></line><line x1="711.255" y1="118.8" x2="723.755" y2="118.8" stroke="#666" stroke-width="0.5"></line></g><rect x="693.755" y="112.05" width="128.42000000000002" height="13.5" fill="#fff" opacity="0"></rect><text font-size="13.50" x="728.8" y="122.8" fill="#7ec7ce"><tspan x="728.755" y="122.85">30-34 years old</tspan></text></g></g><g class="Lines"><rect x="57" y="108" width="637" height="428" fill="rgba(255,255,255,0)" opacity="0"></rect><g class="key-World_0"><path stroke="#34983f" stroke-linecap="round" d="M57 485L81 485L104 485L128 486L151 486L175 486L199 487L222 487L246 487L269 487L293 487L317 486L340 486L364 486L387 485L411 485L434 485L458 486L482 486L505 486L529 487L552 487L576 487L599 487L623 488L647 488L670 488L694 488" fill="none" stroke-width="1.5"></path><g fill="#34983f"><circle cx="57" cy="485" r="2"></circle><circle cx="81" cy="485" r="2"></circle><circle cx="104" cy="485" r="2"></circle><circle cx="128" cy="486" r="2"></circle><circle cx="151" cy="486" r="2"></circle><circle cx="175" cy="486" r="2"></circle><circle cx="199" cy="487" r="2"></circle><circle cx="222" cy="487" r="2"></circle><circle cx="246" cy="487" r="2"></circle><circle cx="269" cy="487" r="2"></circle><circle cx="293" cy="487" r="2"></circle><circle cx="317" cy="486" r="2"></circle><circle cx="340" cy="486" r="2"></circle><circle cx="364" cy="486" r="2"></circle><circle cx="387" cy="485" r="2"></circle><circle cx="411" cy="485" r="2"></circle><circle cx="434" cy="485" r="2"></circle><circle cx="458" cy="486" r="2"></circle><circle cx="482" cy="486" r="2"></circle><circle cx="505" cy="486" r="2"></circle><circle cx="529" cy="487" r="2"></circle><circle cx="552" cy="487" r="2"></circle><circle cx="576" cy="487" r="2"></circle><circle cx="599" cy="487" r="2"></circle><circle cx="623" cy="488" r="2"></circle><circle cx="647" cy="488" r="2"></circle><circle cx="670" cy="488" r="2"></circle><circle cx="694" cy="488" r="2"></circle></g></g><g class="key-World_1"><path stroke="#ca2628" stroke-linecap="round" d="M57 530L81 530L104 530L128 530L151 530L175 530L199 530L222 529L246 529L269 529L293 529L317 529L340 529L364 530L387 530L411 530L434 530L458 530L482 530L505 530L529 530L552 530L576 530L599 530L623 530L647 530L670 530L694 530" fill="none" stroke-width="1.5"></path><g fill="#ca2628"><circle cx="57" cy="530" r="2"></circle><circle cx="81" cy="530" r="2"></circle><circle cx="104" cy="530" r="2"></circle><circle cx="128" cy="530" r="2"></circle><circle cx="151" cy="530" r="2"></circle><circle cx="175" cy="530" r="2"></circle><circle cx="199" cy="530" r="2"></circle><circle cx="222" cy="529" r="2"></circle><circle cx="246" cy="529" r="2"></circle><circle cx="269" cy="529" r="2"></circle><circle cx="293" cy="529" r="2"></circle><circle cx="317" cy="529" r="2"></circle><circle cx="340" cy="529" r="2"></circle><circle cx="364" cy="530" r="2"></circle><circle cx="387" cy="530" r="2"></circle><circle cx="411" cy="530" r="2"></circle><circle cx="434" cy="530" r="2"></circle><circle cx="458" cy="530" r="2"></circle><circle cx="482" cy="530" r="2"></circle><circle cx="505" cy="530" r="2"></circle><circle cx="529" cy="530" r="2"></circle><circle cx="552" cy="530" r="2"></circle><circle cx="576" cy="530" r="2"></circle><circle cx="599" cy="530" r="2"></circle><circle cx="623" cy="530" r="2"></circle><circle cx="647" cy="530" r="2"></circle><circle cx="670" cy="530" r="2"></circle><circle cx="694" cy="530" r="2"></circle></g></g><g class="key-World_10"><path stroke="#e6332e" stroke-linecap="round" d="M57 319L81 317L104 316L128 314L151 313L175 312L199 310L222 309L246 308L269 306L293 305L317 304L340 302L364 301L387 300L411 298L434 297L458 296L482 294L505 293L529 292L552 291L576 290L599 289L623 288L647 287L670 286L694 286" fill="none" stroke-width="1.5"></path><g fill="#e6332e"><circle cx="57" cy="319" r="2"></circle><circle cx="81" cy="317" r="2"></circle><circle cx="104" cy="316" r="2"></circle><circle cx="128" cy="314" r="2"></circle><circle cx="151" cy="313" r="2"></circle><circle cx="175" cy="312" r="2"></circle><circle cx="199" cy="310" r="2"></circle><circle cx="222" cy="309" r="2"></circle><circle cx="246" cy="308" r="2"></circle><circle cx="269" cy="306" r="2"></circle><circle cx="293" cy="305" r="2"></circle><circle cx="317" cy="304" r="2"></circle><circle cx="340" cy="302" r="2"></circle><circle cx="364" cy="301" r="2"></circle><circle cx="387" cy="300" r="2"></circle><circle cx="411" cy="298" r="2"></circle><circle cx="434" cy="297" r="2"></circle><circle cx="458" cy="296" r="2"></circle><circle cx="482" cy="294" r="2"></circle><circle cx="505" cy="293" r="2"></circle><circle cx="529" cy="292" r="2"></circle><circle cx="552" cy="291" r="2"></circle><circle cx="576" cy="290" r="2"></circle><circle cx="599" cy="289" r="2"></circle><circle cx="623" cy="288" r="2"></circle><circle cx="647" cy="287" r="2"></circle><circle cx="670" cy="286" r="2"></circle><circle cx="694" cy="286" r="2"></circle></g></g><g class="key-World_2"><path stroke="#ffd53e" stroke-linecap="round" d="M57 193L81 191L104 190L128 189L151 189L175 190L199 190L222 191L246 193L269 194L293 195L317 197L340 198L364 200L387 201L411 202L434 203L458 203L482 203L505 203L529 202L552 200L576 199L599 198L623 197L647 198L670 199L694 201" fill="none" stroke-width="1.5"></path><g fill="#ffd53e"><circle cx="57" cy="193" r="2"></circle><circle cx="81" cy="191" r="2"></circle><circle cx="104" cy="190" r="2"></circle><circle cx="128" cy="189" r="2"></circle><circle cx="151" cy="189" r="2"></circle><circle cx="175" cy="190" r="2"></circle><circle cx="199" cy="190" r="2"></circle><circle cx="222" cy="191" r="2"></circle><circle cx="246" cy="193" r="2"></circle><circle cx="269" cy="194" r="2"></circle><circle cx="293" cy="195" r="2"></circle><circle cx="317" cy="197" r="2"></circle><circle cx="340" cy="198" r="2"></circle><circle cx="364" cy="200" r="2"></circle><circle cx="387" cy="201" r="2"></circle><circle cx="411" cy="202" r="2"></circle><circle cx="434" cy="203" r="2"></circle><circle cx="458" cy="203" r="2"></circle><circle cx="482" cy="203" r="2"></circle><circle cx="505" cy="203" r="2"></circle><circle cx="529" cy="202" r="2"></circle><circle cx="552" cy="200" r="2"></circle><circle cx="576" cy="199" r="2"></circle><circle cx="599" cy="198" r="2"></circle><circle cx="623" cy="197" r="2"></circle><circle cx="647" cy="198" r="2"></circle><circle cx="670" cy="199" r="2"></circle><circle cx="694" cy="201" r="2"></circle></g></g><g class="key-World_3"><path stroke="#3360a9" stroke-linecap="round" d="M57 533L81 533L104 533L128 533L151 533L175 533L199 533L222 532L246 532L269 532L293 532L317 532L340 532L364 532L387 532L411 532L434 532L458 533L482 533L505 533L529 533L552 533L576 533L599 533L623 533L647 533L670 533L694 533" fill="none" stroke-width="1.5"></path><g fill="#3360a9"><circle cx="57" cy="533" r="2"></circle><circle cx="81" cy="533" r="2"></circle><circle cx="104" cy="533" r="2"></circle><circle cx="128" cy="533" r="2"></circle><circle cx="151" cy="533" r="2"></circle><circle cx="175" cy="533" r="2"></circle><circle cx="199" cy="533" r="2"></circle><circle cx="222" cy="532" r="2"></circle><circle cx="246" cy="532" r="2"></circle><circle cx="269" cy="532" r="2"></circle><circle cx="293" cy="532" r="2"></circle><circle cx="317" cy="532" r="2"></circle><circle cx="340" cy="532" r="2"></circle><circle cx="364" cy="532" r="2"></circle><circle cx="387" cy="532" r="2"></circle><circle cx="411" cy="532" r="2"></circle><circle cx="434" cy="532" r="2"></circle><circle cx="458" cy="533" r="2"></circle><circle cx="482" cy="533" r="2"></circle><circle cx="505" cy="533" r="2"></circle><circle cx="529" cy="533" r="2"></circle><circle cx="552" cy="533" r="2"></circle><circle cx="576" cy="533" r="2"></circle><circle cx="599" cy="533" r="2"></circle><circle cx="623" cy="533" r="2"></circle><circle cx="647" cy="533" r="2"></circle><circle cx="670" cy="533" r="2"></circle><circle cx="694" cy="533" r="2"></circle></g></g><g class="key-World_4"><path stroke="#b077b1" stroke-linecap="round" d="M57 161L81 162L104 162L128 163L151 163L175 163L199 163L222 162L246 161L269 160L293 159L317 159L340 158L364 157L387 156L411 156L434 155L458 154L482 154L505 154L529 154L552 154L576 154L599 153L623 153L647 153L670 152L694 152" fill="none" stroke-width="1.5"></path><g fill="#b077b1"><circle cx="57" cy="161" r="2"></circle><circle cx="81" cy="162" r="2"></circle><circle cx="104" cy="162" r="2"></circle><circle cx="128" cy="163" r="2"></circle><circle cx="151" cy="163" r="2"></circle><circle cx="175" cy="163" r="2"></circle><circle cx="199" cy="163" r="2"></circle><circle cx="222" cy="162" r="2"></circle><circle cx="246" cy="161" r="2"></circle><circle cx="269" cy="160" r="2"></circle><circle cx="293" cy="159" r="2"></circle><circle cx="317" cy="159" r="2"></circle><circle cx="340" cy="158" r="2"></circle><circle cx="364" cy="157" r="2"></circle><circle cx="387" cy="156" r="2"></circle><circle cx="411" cy="156" r="2"></circle><circle cx="434" cy="155" r="2"></circle><circle cx="458" cy="154" r="2"></circle><circle cx="482" cy="154" r="2"></circle><circle cx="505" cy="154" r="2"></circle><circle cx="529" cy="154" r="2"></circle><circle cx="552" cy="154" r="2"></circle><circle cx="576" cy="154" r="2"></circle><circle cx="599" cy="153" r="2"></circle><circle cx="623" cy="153" r="2"></circle><circle cx="647" cy="153" r="2"></circle><circle cx="670" cy="152" r="2"></circle><circle cx="694" cy="152" r="2"></circle></g></g><g class="key-World_5"><path stroke="#2a939b" stroke-linecap="round" d="M57 300L81 300L104 300L128 300L151 300L175 300L199 300L222 300L246 300L269 300L293 300L317 299L340 299L364 299L387 299L411 299L434 299L458 299L482 299L505 299L529 299L552 299L576 299L599 299L623 299L647 299L670 299L694 299" fill="none" stroke-width="1.5"></path><g fill="#2a939b"><circle cx="57" cy="300" r="2"></circle><circle cx="81" cy="300" r="2"></circle><circle cx="104" cy="300" r="2"></circle><circle cx="128" cy="300" r="2"></circle><circle cx="151" cy="300" r="2"></circle><circle cx="175" cy="300" r="2"></circle><circle cx="199" cy="300" r="2"></circle><circle cx="222" cy="300" r="2"></circle><circle cx="246" cy="300" r="2"></circle><circle cx="269" cy="300" r="2"></circle><circle cx="293" cy="300" r="2"></circle><circle cx="317" cy="299" r="2"></circle><circle cx="340" cy="299" r="2"></circle><circle cx="364" cy="299" r="2"></circle><circle cx="387" cy="299" r="2"></circle><circle cx="411" cy="299" r="2"></circle><circle cx="434" cy="299" r="2"></circle><circle cx="458" cy="299" r="2"></circle><circle cx="482" cy="299" r="2"></circle><circle cx="505" cy="299" r="2"></circle><circle cx="529" cy="299" r="2"></circle><circle cx="552" cy="299" r="2"></circle><circle cx="576" cy="299" r="2"></circle><circle cx="599" cy="299" r="2"></circle><circle cx="623" cy="299" r="2"></circle><circle cx="647" cy="299" r="2"></circle><circle cx="670" cy="299" r="2"></circle><circle cx="694" cy="299" r="2"></circle></g></g><g class="key-World_6"><path stroke="#9ecc8a" stroke-linecap="round" d="M57 226L81 225L104 223L128 221L151 219L175 218L199 217L222 216L246 216L269 216L293 216L317 216L340 216L364 217L387 217L411 217L434 216L458 216L482 215L505 213L529 212L552 212L576 211L599 210L623 210L647 210L670 210L694 210" fill="none" stroke-width="1.5"></path><g fill="#9ecc8a"><circle cx="57" cy="226" r="2"></circle><circle cx="81" cy="225" r="2"></circle><circle cx="104" cy="223" r="2"></circle><circle cx="128" cy="221" r="2"></circle><circle cx="151" cy="219" r="2"></circle><circle cx="175" cy="218" r="2"></circle><circle cx="199" cy="217" r="2"></circle><circle cx="222" cy="216" r="2"></circle><circle cx="246" cy="216" r="2"></circle><circle cx="269" cy="216" r="2"></circle><circle cx="293" cy="216" r="2"></circle><circle cx="317" cy="216" r="2"></circle><circle cx="340" cy="216" r="2"></circle><circle cx="364" cy="217" r="2"></circle><circle cx="387" cy="217" r="2"></circle><circle cx="411" cy="217" r="2"></circle><circle cx="434" cy="216" r="2"></circle><circle cx="458" cy="216" r="2"></circle><circle cx="482" cy="215" r="2"></circle><circle cx="505" cy="213" r="2"></circle><circle cx="529" cy="212" r="2"></circle><circle cx="552" cy="212" r="2"></circle><circle cx="576" cy="211" r="2"></circle><circle cx="599" cy="210" r="2"></circle><circle cx="623" cy="210" r="2"></circle><circle cx="647" cy="210" r="2"></circle><circle cx="670" cy="210" r="2"></circle><circle cx="694" cy="210" r="2"></circle></g></g><g class="key-World_7"><path stroke="#a652ba" stroke-linecap="round" d="M57 344L81 344L104 344L128 344L151 343L175 343L199 343L222 343L246 343L269 343L293 343L317 343L340 343L364 343L387 343L411 344L434 344L458 344L482 344L505 344L529 344L552 344L576 344L599 344L623 344L647 344L670 343L694 342" fill="none" stroke-width="1.5"></path><g fill="#a652ba"><circle cx="57" cy="344" r="2"></circle><circle cx="81" cy="344" r="2"></circle><circle cx="104" cy="344" r="2"></circle><circle cx="128" cy="344" r="2"></circle><circle cx="151" cy="343" r="2"></circle><circle cx="175" cy="343" r="2"></circle><circle cx="199" cy="343" r="2"></circle><circle cx="222" cy="343" r="2"></circle><circle cx="246" cy="343" r="2"></circle><circle cx="269" cy="343" r="2"></circle><circle cx="293" cy="343" r="2"></circle><circle cx="317" cy="343" r="2"></circle><circle cx="340" cy="343" r="2"></circle><circle cx="364" cy="343" r="2"></circle><circle cx="387" cy="343" r="2"></circle><circle cx="411" cy="344" r="2"></circle><circle cx="434" cy="344" r="2"></circle><circle cx="458" cy="344" r="2"></circle><circle cx="482" cy="344" r="2"></circle><circle cx="505" cy="344" r="2"></circle><circle cx="529" cy="344" r="2"></circle><circle cx="552" cy="344" r="2"></circle><circle cx="576" cy="344" r="2"></circle><circle cx="599" cy="344" r="2"></circle><circle cx="623" cy="344" r="2"></circle><circle cx="647" cy="344" r="2"></circle><circle cx="670" cy="343" r="2"></circle><circle cx="694" cy="342" r="2"></circle></g></g><g class="key-World_8"><path stroke="#f6a324" stroke-linecap="round" d="M57 344L81 344L104 345L128 345L151 346L175 347L199 348L222 349L246 350L269 351L293 352L317 352L340 352L364 352L387 352L411 351L434 350L458 349L482 348L505 348L529 348L552 348L576 349L599 350L623 352L647 353L670 354L694 355" fill="none" stroke-width="1.5"></path><g fill="#f6a324"><circle cx="57" cy="344" r="2"></circle><circle cx="81" cy="344" r="2"></circle><circle cx="104" cy="345" r="2"></circle><circle cx="128" cy="345" r="2"></circle><circle cx="151" cy="346" r="2"></circle><circle cx="175" cy="347" r="2"></circle><circle cx="199" cy="348" r="2"></circle><circle cx="222" cy="349" r="2"></circle><circle cx="246" cy="350" r="2"></circle><circle cx="269" cy="351" r="2"></circle><circle cx="293" cy="352" r="2"></circle><circle cx="317" cy="352" r="2"></circle><circle cx="340" cy="352" r="2"></circle><circle cx="364" cy="352" r="2"></circle><circle cx="387" cy="352" r="2"></circle><circle cx="411" cy="351" r="2"></circle><circle cx="434" cy="350" r="2"></circle><circle cx="458" cy="349" r="2"></circle><circle cx="482" cy="348" r="2"></circle><circle cx="505" cy="348" r="2"></circle><circle cx="529" cy="348" r="2"></circle><circle cx="552" cy="348" r="2"></circle><circle cx="576" cy="349" r="2"></circle><circle cx="599" cy="350" r="2"></circle><circle cx="623" cy="352" r="2"></circle><circle cx="647" cy="353" r="2"></circle><circle cx="670" cy="354" r="2"></circle><circle cx="694" cy="355" r="2"></circle></g></g><g class="key-World_9"><path stroke="#7ec7ce" stroke-linecap="round" d="M57 114L81 115L104 116L128 114L151 113L175 111L199 109L222 108L246 108L269 108L293 108L317 109L340 109L364 110L387 111L411 112L434 114L458 115L482 116L505 118L529 119L552 120L576 120L599 121L623 121L647 121L670 120L694 119" fill="none" stroke-width="1.5"></path><g fill="#7ec7ce"><circle cx="57" cy="114" r="2"></circle><circle cx="81" cy="115" r="2"></circle><circle cx="104" cy="116" r="2"></circle><circle cx="128" cy="114" r="2"></circle><circle cx="151" cy="113" r="2"></circle><circle cx="175" cy="111" r="2"></circle><circle cx="199" cy="109" r="2"></circle><circle cx="222" cy="108" r="2"></circle><circle cx="246" cy="108" r="2"></circle><circle cx="269" cy="108" r="2"></circle><circle cx="293" cy="108" r="2"></circle><circle cx="317" cy="109" r="2"></circle><circle cx="340" cy="109" r="2"></circle><circle cx="364" cy="110" r="2"></circle><circle cx="387" cy="111" r="2"></circle><circle cx="411" cy="112" r="2"></circle><circle cx="434" cy="114" r="2"></circle><circle cx="458" cy="115" r="2"></circle><circle cx="482" cy="116" r="2"></circle><circle cx="505" cy="118" r="2"></circle><circle cx="529" cy="119" r="2"></circle><circle cx="552" cy="120" r="2"></circle><circle cx="576" cy="120" r="2"></circle><circle cx="599" cy="121" r="2"></circle><circle cx="623" cy="121" r="2"></circle><circle cx="647" cy="121" r="2"></circle><circle cx="670" cy="120" r="2"></circle><circle cx="694" cy="119" r="2"></circle></g></g></g></g></g><g style="fill: #777;" class="SourcesFooter"><g style="fill: #777;" class="clickable"><text font-size="12.60" x="15.0" y="581.6"><tspan x="15" y="581.58">Source: IHME, Global Burden of Disease</tspan></text></g><text font-size="12.60" x="775.4" y="581.6"><tspan x="775.402" y="581.58"><a style="fill: #777;" class="cclogo" href="http://creativecommons.org/licenses/by-sa/4.0/deed.en_US" target="_blank">CC BY-SA</a></tspan></text></g></g></svg>