<svg xmlns="http://www.w3.org/2000/svg" version="1.1" style="font-family: 'Helvetica Neue', Helvetica, Arial, sans-serif; font-size: 18px; background-color: white; text-rendering: optimizeLegibility; -webkit-font-smoothing: antialiased;" width="850" height="600"><g class="ChartTab"><g class="HeaderView"><g opacity="0.8" transform="translate(778, 15) scale(0.27)"><a xmlns:xlink="http://www.w3.org/1999/xlink" xlink:href="https://ourworldindata.org" target="_blank"><g><rect x="0" y="0" fill="#1B2543" width="211.2" height="130.1"/><rect x="0" y="112.2" fill="#E63912" width="211.2" height="17.9"/><g><rect x="1.2" y="12.3" fill="none" width="210.2" height="99.2"/><path fill="#FFFFFF" d="M37.8,32.2c0,12.7-7.7,19.4-17.1,19.4c-9.7,0-16.6-7.5-16.6-18.7c0-11.7,7.3-19.3,17.1-19.3 C31.3,13.7,37.8,21.3,37.8,32.2z M9.2,32.8c0,7.9,4.3,14.9,11.8,14.9c7.5,0,11.8-6.9,11.8-15.3c0-7.3-3.8-14.9-11.8-14.9 C13.1,17.5,9.2,24.8,9.2,32.8z"/><path fill="#FFFFFF" d="M62.7,43.8c0,2.7,0.1,5.1,0.2,7.2h-4.3l-0.3-4.3h-0.1c-1.3,2.1-4,4.9-8.8,4.9c-4.2,0-9.1-2.3-9.1-11.6 V24.6h4.8v14.6c0,5,1.5,8.4,5.9,8.4c3.2,0,5.5-2.2,6.3-4.4c0.3-0.7,0.4-1.6,0.4-2.5V24.6h4.8V43.8z"/><path fill="#FFFFFF" d="M67.3,32.8c0-3.1-0.1-5.8-0.2-8.2h4.2l0.2,5.2h0.2c1.2-3.5,4.1-5.8,7.3-5.8c0.5,0,0.9,0.1,1.4,0.2v4.5 c-0.5-0.1-1-0.2-1.6-0.2c-3.4,0-5.8,2.6-6.5,6.2c-0.1,0.7-0.2,1.4-0.2,2.2V51h-4.8V32.8z"/><path fill="#FFFFFF" d="M95.4,51l-9.4-36.8h5l4.4,18.6c1.1,4.6,2.1,9.2,2.7,12.7h0.1c0.6-3.7,1.8-8,3-12.8l4.9-18.5h5l4.5,18.7 c1,4.4,2,8.7,2.6,12.6h0.1c0.8-4,1.8-8.1,3-12.7l4.9-18.5h4.9L120.6,51h-5L111,31.9c-1.1-4.7-1.9-8.3-2.4-12h-0.1 c-0.7,3.7-1.5,7.3-2.8,12L100.4,51H95.4z"/><path fill="#FFFFFF" d="M154.9,37.6c0,9.8-6.8,14-13.2,14c-7.2,0-12.7-5.2-12.7-13.6c0-8.8,5.8-14,13.1-14 C149.8,24,154.9,29.5,154.9,37.6z M133.9,37.9c0,5.8,3.3,10.1,8,10.1c4.6,0,8-4.3,8-10.3c0-4.5-2.2-10.1-7.9-10.1 C136.3,27.6,133.9,32.8,133.9,37.9z"/><path fill="#FFFFFF" d="M158.2,32.8c0-3.1-0.1-5.8-0.2-8.2h4.2l0.2,5.2h0.2c1.2-3.5,4.1-5.8,7.3-5.8c0.5,0,0.9,0.1,1.4,0.2v4.5 c-0.5-0.1-1-0.2-1.6-0.2c-3.4,0-5.8,2.6-6.5,6.2c-0.1,0.7-0.2,1.4-0.2,2.2V51h-4.8V32.8z"/><path fill="#FFFFFF" d="M173.5,12.3h4.8V51h-4.8V12.3z"/><path fill="#FFFFFF" d="M206.5,12.3v31.9c0,2.3,0.1,5,0.2,6.8h-4.3l-0.2-4.6H202c-1.5,2.9-4.7,5.2-9,5.2 c-6.4,0-11.3-5.4-11.3-13.4c-0.1-8.8,5.4-14.2,11.9-14.2c4,0,6.8,1.9,8,4h0.1V12.3H206.5z M201.7,35.4c0-0.6-0.1-1.4-0.2-2 c-0.7-3.1-3.3-5.6-6.9-5.6c-5,0-7.9,4.4-7.9,10.2c0,5.3,2.6,9.8,7.8,9.8c3.2,0,6.2-2.1,7.1-5.7c0.2-0.7,0.2-1.3,0.2-2.1V35.4z"/><path fill="#FFFFFF" d="M42.8,64c0.1,1.6-1.1,2.9-3.1,2.9c-1.7,0-2.9-1.3-2.9-2.9c0-1.7,1.3-3,3-3C41.7,61,42.8,62.3,42.8,64z M37.4,97.8V71.4h4.8v26.4H37.4z"/><path fill="#FFFFFF" d="M47.5,78.6c0-2.7-0.1-5-0.2-7.1h4.3l0.3,4.4h0.1c1.3-2.5,4.4-5,8.8-5c3.7,0,9.4,2.2,9.4,11.2v15.8h-4.8 V82.6c0-4.3-1.6-7.8-6.1-7.8c-3.2,0-5.6,2.2-6.5,4.9c-0.2,0.6-0.3,1.4-0.3,2.2v15.9h-4.8V78.6z"/><path fill="#FFFFFF" d="M84,61.6c2.9-0.4,6.3-0.8,10.1-0.8c6.8,0,11.7,1.6,14.9,4.6c3.3,3,5.2,7.3,5.2,13.2c0,6-1.9,10.9-5.3,14.3 c-3.4,3.4-9.1,5.3-16.3,5.3c-3.4,0-6.2-0.2-8.6-0.4V61.6z M88.8,94.1c1.2,0.2,3,0.3,4.8,0.3c10.2,0,15.7-5.7,15.7-15.6 c0.1-8.7-4.9-14.2-14.9-14.2c-2.5,0-4.3,0.2-5.6,0.5V94.1z"/><path fill="#FFFFFF" d="M132.1,97.8l-0.4-3.3h-0.2c-1.5,2.1-4.3,3.9-8.1,3.9c-5.4,0-8.1-3.8-8.1-7.6c0-6.4,5.7-9.9,15.9-9.8v-0.5 c0-2.2-0.6-6.1-6-6.1c-2.5,0-5,0.8-6.9,2l-1.1-3.2c2.2-1.4,5.4-2.3,8.7-2.3c8.1,0,10.1,5.5,10.1,10.8v9.9c0,2.3,0.1,4.5,0.4,6.3 H132.1z M131.4,84.4c-5.3-0.1-11.2,0.8-11.2,5.9c0,3.1,2.1,4.6,4.5,4.6c3.4,0,5.6-2.2,6.4-4.4c0.2-0.5,0.3-1,0.3-1.5V84.4z"/><path fill="#FFFFFF" d="M146.6,63.9v7.6h6.9v3.7h-6.9v14.2c0,3.3,0.9,5.1,3.6,5.1c1.3,0,2.2-0.2,2.8-0.3l0.2,3.6 c-0.9,0.4-2.4,0.7-4.3,0.7c-2.2,0-4-0.7-5.2-2c-1.4-1.4-1.9-3.8-1.9-6.9V75.1h-4.1v-3.7h4.1v-6.3L146.6,63.9z"/><path fill="#FFFFFF" d="M171.4,97.8l-0.4-3.3h-0.2c-1.5,2.1-4.3,3.9-8.1,3.9c-5.4,0-8.1-3.8-8.1-7.6c0-6.4,5.7-9.9,15.9-9.8v-0.5 c0-2.2-0.6-6.1-6-6.1c-2.5,0-5,0.8-6.9,2l-1.1-3.2c2.2-1.4,5.4-2.3,8.7-2.3c8.1,0,10.1,5.5,10.1,10.8v9.9c0,2.3,0.1,4.5,0.4,6.3 H171.4z M170.7,84.4c-5.3-0.1-11.2,0.8-11.2,5.9c0,3.1,2.1,4.6,4.5,4.6c3.4,0,5.6-2.2,6.4-4.4c0.2-0.5,0.3-1,0.3-1.5V84.4z"/></g></g></a></g><a href="https://ourworldindata.org/grapher/prevalence-of-alcohol-use-disorders-by-age" target="_blank"><text font-size="25.20" x="15.0" y="35.2" fill="#555"><tspan x="15" y="35.160000000000004">Prevalence of alcohol use disorders by age, World</tspan></text></a><text font-size="14.40" x="15.0" y="53.7" fill="#666"><tspan x="15" y="53.72">Share of the population within particular age categories suffering from alcohol use disorders. Alcohol dependence is</tspan><tspan x="15" y="69.56">defined by the International Classification of Diseases as the presence of three or more indicators of dependence for</tspan><tspan x="15" y="85.4">at least a month within the previous year.</tspan></text></g><g class="LineChart"><defs><clipPath id="boundsClip-9"><rect x="47.098" y="0" width="830" height="897.8"></rect></clipPath></defs><g class="AxisBoxView"><g class="HorizontalAxis"><text x="57.1" y="556.5" fill="#666" text-anchor="middle" font-size="16.2">1990</text><text x="175" y="556.5" fill="#666" text-anchor="middle" font-size="16.2">1995</text><text x="292.9" y="556.5" fill="#666" text-anchor="middle" font-size="16.2">2000</text><text x="410.8" y="556.5" fill="#666" text-anchor="middle" font-size="16.2">2005</text><text x="528.7" y="556.5" fill="#666" text-anchor="middle" font-size="16.2">2010</text><text x="646.6" y="556.5" fill="#666" text-anchor="middle" font-size="16.2">2015</text><text x="693.8" y="556.5" fill="#666" text-anchor="middle" font-size="16.2">2017</text></g><g class="VerticalAxis"><text x="52.10" y="535.3" fill="#666" dominant-baseline="middle" text-anchor="end" font-size="16.2">0%</text><text x="52.10" y="458.1" fill="#666" dominant-baseline="middle" text-anchor="end" font-size="16.2">0.5%</text><text x="52.10" y="380.9" fill="#666" dominant-baseline="middle" text-anchor="end" font-size="16.2">1%</text><text x="52.10" y="303.8" fill="#666" dominant-baseline="middle" text-anchor="end" font-size="16.2">1.5%</text><text x="52.10" y="226.6" fill="#666" dominant-baseline="middle" text-anchor="end" font-size="16.2">2%</text><text x="52.10" y="149.4" fill="#666" dominant-baseline="middle" text-anchor="end" font-size="16.2">2.5%</text></g><g class="AxisGridLines"><line x1="57.10" y1="535.3" x2="693.75" y2="535.3" stroke="#ccc"></line><line x1="57.10" y1="458.1" x2="693.75" y2="458.1" stroke="#ddd" stroke-dasharray="3,2"></line><line x1="57.10" y1="380.9" x2="693.75" y2="380.9" stroke="#ddd" stroke-dasharray="3,2"></line><line x1="57.10" y1="303.8" x2="693.75" y2="303.8" stroke="#ddd" stroke-dasharray="3,2"></line><line x1="57.10" y1="226.6" x2="693.75" y2="226.6" stroke="#ddd" stroke-dasharray="3,2"></line><line x1="57.10" y1="149.4" x2="693.75" y2="149.4" stroke="#ddd" stroke-dasharray="3,2"></line></g></g><g clip-path="url(#boundsClip-9)"><g class="HeightedLegend clickable"><g class="legendMark"><g class="indicator"><line x1="698.755" y1="528.5" x2="721.255" y2="528.5" stroke="#666" stroke-width="0.5"></line><line x1="721.255" y1="528.5" x2="721.255" y2="528.5" stroke="#666" stroke-width="0.5"></line><line x1="721.255" y1="528.5" x2="723.755" y2="528.5" stroke="#666" stroke-width="0.5"></line></g><rect x="693.755" y="521.75" width="120.86" height="13.5" fill="#fff" opacity="0"></rect><text font-size="13.50" x="728.8" y="532.5" fill="#3360a9"><tspan x="728.755" y="532.55">5-14 years old</tspan></text></g><g class="legendMark"><g class="indicator"><line x1="698.755" y1="522.2" x2="711.255" y2="522.2" stroke="#666" stroke-width="0.5"></line><line x1="711.255" y1="522.2" x2="711.255" y2="513" stroke="#666" stroke-width="0.5"></line><line x1="711.255" y1="513" x2="723.755" y2="513" stroke="#666" stroke-width="0.5"></line></g><rect x="693.755" y="506.25" width="128.42000000000002" height="13.5" fill="#fff" opacity="0"></rect><text font-size="13.50" x="728.8" y="517.0" fill="#ca2628"><tspan x="728.755" y="517.05">10-14 years old</tspan></text></g><g class="legendMark"><g class="indicator"><line x1="698.755" y1="410.3" x2="721.255" y2="410.3" stroke="#666" stroke-width="0.5"></line><line x1="721.255" y1="410.3" x2="721.255" y2="410.3" stroke="#666" stroke-width="0.5"></line><line x1="721.255" y1="410.3" x2="723.755" y2="410.3" stroke="#666" stroke-width="0.5"></line></g><rect x="693.755" y="403.55" width="116.67500000000001" height="13.5" fill="#fff" opacity="0"></rect><text font-size="13.50" x="728.8" y="414.4" fill="#34983f"><tspan x="728.755" y="414.35">70+ years old</tspan></text></g><g class="legendMark"><g class="indicator"><line x1="698.755" y1="409.1" x2="711.255" y2="409.1" stroke="#666" stroke-width="0.5"></line><line x1="711.255" y1="409.1" x2="711.255" y2="394.8" stroke="#666" stroke-width="0.5"></line><line x1="711.255" y1="394.8" x2="723.755" y2="394.8" stroke="#666" stroke-width="0.5"></line></g><rect x="693.755" y="388.05" width="128.42000000000002" height="13.5" fill="#fff" opacity="0"></rect><text font-size="13.50" x="728.8" y="398.9" fill="#f6a324"><tspan x="728.755" y="398.85">15-19 years old</tspan></text></g><g class="legendMark"><g class="indicator"><line x1="698.755" y1="319.7" x2="721.255" y2="319.7" stroke="#666" stroke-width="0.5"></line><line x1="721.255" y1="319.7" x2="721.255" y2="319.7" stroke="#666" stroke-width="0.5"></line><line x1="721.255" y1="319.7" x2="723.755" y2="319.7" stroke="#666" stroke-width="0.5"></line></g><rect x="693.755" y="312.95" width="141.245" height="13.5" fill="#fff" opacity="0"></rect><text font-size="13.50" x="728.8" y="323.8" fill="#a652ba"><tspan x="728.755" y="323.75">Age-standardized</tspan></text></g><g class="legendMark"><g class="indicator"><line x1="698.755" y1="310.3" x2="711.255" y2="310.3" stroke="#666" stroke-width="0.5"></line><line x1="711.255" y1="310.3" x2="711.255" y2="304.2" stroke="#666" stroke-width="0.5"></line><line x1="711.255" y1="304.2" x2="723.755" y2="304.2" stroke="#666" stroke-width="0.5"></line></g><rect x="693.755" y="297.45" width="83.195" height="13.5" fill="#fff" opacity="0"></rect><text font-size="13.50" x="728.8" y="308.3" fill="#2a939b"><tspan x="728.755" y="308.25">All ages</tspan></text></g><g class="legendMark"><g class="indicator"><line x1="698.755" y1="272.2" x2="711.255" y2="272.2" stroke="#666" stroke-width="0.5"></line><line x1="711.255" y1="272.2" x2="711.255" y2="272.2" stroke="#666" stroke-width="0.5"></line><line x1="711.255" y1="272.2" x2="723.755" y2="272.2" stroke="#666" stroke-width="0.5"></line></g><rect x="693.755" y="265.45" width="128.42000000000002" height="13.5" fill="#fff" opacity="0"></rect><text font-size="13.50" x="728.8" y="276.3" fill="#e6332e"><tspan x="728.755" y="276.25">50-69 years old</tspan></text></g><g class="legendMark"><g class="indicator"><line x1="698.755" y1="211" x2="721.255" y2="211" stroke="#666" stroke-width="0.5"></line><line x1="721.255" y1="211" x2="721.255" y2="211" stroke="#666" stroke-width="0.5"></line><line x1="721.255" y1="211" x2="723.755" y2="211" stroke="#666" stroke-width="0.5"></line></g><rect x="693.755" y="204.25" width="128.42000000000002" height="13.5" fill="#fff" opacity="0"></rect><text font-size="13.50" x="728.8" y="215.1" fill="#9ecc8a"><tspan x="728.755" y="215.05">20-24 years old</tspan></text></g><g class="legendMark"><g class="indicator"><line x1="698.755" y1="209.5" x2="711.255" y2="209.5" stroke="#666" stroke-width="0.5"></line><line x1="711.255" y1="209.5" x2="711.255" y2="195.5" stroke="#666" stroke-width="0.5"></line><line x1="711.255" y1="195.5" x2="723.755" y2="195.5" stroke="#666" stroke-width="0.5"></line></g><rect x="693.755" y="188.75" width="128.42000000000002" height="13.5" fill="#fff" opacity="0"></rect><text font-size="13.50" x="728.8" y="199.6" fill="#ffd53e"><tspan x="728.755" y="199.55">15-49 years old</tspan></text></g><g class="legendMark"><g class="indicator"><line x1="698.755" y1="146" x2="721.255" y2="146" stroke="#666" stroke-width="0.5"></line><line x1="721.255" y1="146" x2="721.255" y2="146" stroke="#666" stroke-width="0.5"></line><line x1="721.255" y1="146" x2="723.755" y2="146" stroke="#666" stroke-width="0.5"></line></g><rect x="693.755" y="139.25" width="128.42000000000002" height="13.5" fill="#fff" opacity="0"></rect><text font-size="13.50" x="728.8" y="150.1" fill="#b077b1"><tspan x="728.755" y="150.05">25-29 years old</tspan></text></g><g class="legendMark"><g class="indicator"><line x1="698.755" y1="135.5" x2="711.255" y2="135.5" stroke="#666" stroke-width="0.5"></line><line x1="711.255" y1="135.5" x2="711.255" y2="130.5" stroke="#666" stroke-width="0.5"></line><line x1="711.255" y1="130.5" x2="723.755" y2="130.5" stroke="#666" stroke-width="0.5"></line></g><rect x="693.755" y="123.75" width="128.42000000000002" height="13.5" fill="#fff" opacity="0"></rect><text font-size="13.50" x="728.8" y="134.6" fill="#7ec7ce"><tspan x="728.755" y="134.55">30-34 years old</tspan></text></g></g><g class="Lines"><rect x="57" y="108" width="637" height="428" fill="rgba(255,255,255,0)" opacity="0"></rect><g class="key-World_0"><path stroke="#ca2628" stroke-linecap="round" d="M57 523L81 523L104 522L128 522L151 522L175 522L199 522L222 522L246 522L269 522L293 522L317 522L340 522L364 522L387 522L411 522L434 522L458 522L482 522L505 522L529 522L552 522L576 522L599 522L623 522L647 522L670 522L694 522" fill="none" stroke-width="1.5"></path><g fill="#ca2628"><circle cx="57" cy="523" r="2"></circle><circle cx="81" cy="523" r="2"></circle><circle cx="104" cy="522" r="2"></circle><circle cx="128" cy="522" r="2"></circle><circle cx="151" cy="522" r="2"></circle><circle cx="175" cy="522" r="2"></circle><circle cx="199" cy="522" r="2"></circle><circle cx="222" cy="522" r="2"></circle><circle cx="246" cy="522" r="2"></circle><circle cx="269" cy="522" r="2"></circle><circle cx="293" cy="522" r="2"></circle><circle cx="317" cy="522" r="2"></circle><circle cx="340" cy="522" r="2"></circle><circle cx="364" cy="522" r="2"></circle><circle cx="387" cy="522" r="2"></circle><circle cx="411" cy="522" r="2"></circle><circle cx="434" cy="522" r="2"></circle><circle cx="458" cy="522" r="2"></circle><circle cx="482" cy="522" r="2"></circle><circle cx="505" cy="522" r="2"></circle><circle cx="529" cy="522" r="2"></circle><circle cx="552" cy="522" r="2"></circle><circle cx="576" cy="522" r="2"></circle><circle cx="599" cy="522" r="2"></circle><circle cx="623" cy="522" r="2"></circle><circle cx="647" cy="522" r="2"></circle><circle cx="670" cy="522" r="2"></circle><circle cx="694" cy="522" r="2"></circle></g></g><g class="key-World_1"><path stroke="#f6a324" stroke-linecap="round" d="M57 411L81 411L104 410L128 409L151 408L175 407L199 406L222 405L246 403L269 402L293 402L317 403L340 404L364 404L387 405L411 405L434 405L458 405L482 406L505 406L529 406L552 406L576 407L599 407L623 408L647 408L670 409L694 409" fill="none" stroke-width="1.5"></path><g fill="#f6a324"><circle cx="57" cy="411" r="2"></circle><circle cx="81" cy="411" r="2"></circle><circle cx="104" cy="410" r="2"></circle><circle cx="128" cy="409" r="2"></circle><circle cx="151" cy="408" r="2"></circle><circle cx="175" cy="407" r="2"></circle><circle cx="199" cy="406" r="2"></circle><circle cx="222" cy="405" r="2"></circle><circle cx="246" cy="403" r="2"></circle><circle cx="269" cy="402" r="2"></circle><circle cx="293" cy="402" r="2"></circle><circle cx="317" cy="403" r="2"></circle><circle cx="340" cy="404" r="2"></circle><circle cx="364" cy="404" r="2"></circle><circle cx="387" cy="405" r="2"></circle><circle cx="411" cy="405" r="2"></circle><circle cx="434" cy="405" r="2"></circle><circle cx="458" cy="405" r="2"></circle><circle cx="482" cy="406" r="2"></circle><circle cx="505" cy="406" r="2"></circle><circle cx="529" cy="406" r="2"></circle><circle cx="552" cy="406" r="2"></circle><circle cx="576" cy="407" r="2"></circle><circle cx="599" cy="407" r="2"></circle><circle cx="623" cy="408" r="2"></circle><circle cx="647" cy="408" r="2"></circle><circle cx="670" cy="409" r="2"></circle><circle cx="694" cy="409" r="2"></circle></g></g><g class="key-World_10"><path stroke="#a652ba" stroke-linecap="round" d="M57 313L81 312L104 312L128 311L151 310L175 310L199 309L222 308L246 306L269 305L293 305L317 305L340 306L364 308L387 309L411 310L434 310L458 311L482 311L505 312L529 313L552 313L576 314L599 315L623 316L647 317L670 318L694 320" fill="none" stroke-width="1.5"></path><g fill="#a652ba"><circle cx="57" cy="313" r="2"></circle><circle cx="81" cy="312" r="2"></circle><circle cx="104" cy="312" r="2"></circle><circle cx="128" cy="311" r="2"></circle><circle cx="151" cy="310" r="2"></circle><circle cx="175" cy="310" r="2"></circle><circle cx="199" cy="309" r="2"></circle><circle cx="222" cy="308" r="2"></circle><circle cx="246" cy="306" r="2"></circle><circle cx="269" cy="305" r="2"></circle><circle cx="293" cy="305" r="2"></circle><circle cx="317" cy="305" r="2"></circle><circle cx="340" cy="306" r="2"></circle><circle cx="364" cy="308" r="2"></circle><circle cx="387" cy="309" r="2"></circle><circle cx="411" cy="310" r="2"></circle><circle cx="434" cy="310" r="2"></circle><circle cx="458" cy="311" r="2"></circle><circle cx="482" cy="311" r="2"></circle><circle cx="505" cy="312" r="2"></circle><circle cx="529" cy="313" r="2"></circle><circle cx="552" cy="313" r="2"></circle><circle cx="576" cy="314" r="2"></circle><circle cx="599" cy="315" r="2"></circle><circle cx="623" cy="316" r="2"></circle><circle cx="647" cy="317" r="2"></circle><circle cx="670" cy="318" r="2"></circle><circle cx="694" cy="320" r="2"></circle></g></g><g class="key-World_2"><path stroke="#2a939b" stroke-linecap="round" d="M57 323L81 321L104 320L128 318L151 317L175 316L199 314L222 312L246 309L269 307L293 305L317 305L340 305L364 306L387 306L411 306L434 305L458 305L482 305L505 305L529 305L552 305L576 306L599 306L623 307L647 308L670 309L694 310" fill="none" stroke-width="1.5"></path><g fill="#2a939b"><circle cx="57" cy="323" r="2"></circle><circle cx="81" cy="321" r="2"></circle><circle cx="104" cy="320" r="2"></circle><circle cx="128" cy="318" r="2"></circle><circle cx="151" cy="317" r="2"></circle><circle cx="175" cy="316" r="2"></circle><circle cx="199" cy="314" r="2"></circle><circle cx="222" cy="312" r="2"></circle><circle cx="246" cy="309" r="2"></circle><circle cx="269" cy="307" r="2"></circle><circle cx="293" cy="305" r="2"></circle><circle cx="317" cy="305" r="2"></circle><circle cx="340" cy="305" r="2"></circle><circle cx="364" cy="306" r="2"></circle><circle cx="387" cy="306" r="2"></circle><circle cx="411" cy="306" r="2"></circle><circle cx="434" cy="305" r="2"></circle><circle cx="458" cy="305" r="2"></circle><circle cx="482" cy="305" r="2"></circle><circle cx="505" cy="305" r="2"></circle><circle cx="529" cy="305" r="2"></circle><circle cx="552" cy="305" r="2"></circle><circle cx="576" cy="306" r="2"></circle><circle cx="599" cy="306" r="2"></circle><circle cx="623" cy="307" r="2"></circle><circle cx="647" cy="308" r="2"></circle><circle cx="670" cy="309" r="2"></circle><circle cx="694" cy="310" r="2"></circle></g></g><g class="key-World_3"><path stroke="#b077b1" stroke-linecap="round" d="M57 128L81 134L104 140L128 144L151 146L175 145L199 142L222 137L246 131L269 126L293 123L317 123L340 123L364 124L387 124L411 124L434 123L458 124L482 125L505 127L529 129L552 132L576 135L599 138L623 141L647 143L670 145L694 146" fill="none" stroke-width="1.5"></path><g fill="#b077b1"><circle cx="57" cy="128" r="2"></circle><circle cx="81" cy="134" r="2"></circle><circle cx="104" cy="140" r="2"></circle><circle cx="128" cy="144" r="2"></circle><circle cx="151" cy="146" r="2"></circle><circle cx="175" cy="145" r="2"></circle><circle cx="199" cy="142" r="2"></circle><circle cx="222" cy="137" r="2"></circle><circle cx="246" cy="131" r="2"></circle><circle cx="269" cy="126" r="2"></circle><circle cx="293" cy="123" r="2"></circle><circle cx="317" cy="123" r="2"></circle><circle cx="340" cy="123" r="2"></circle><circle cx="364" cy="124" r="2"></circle><circle cx="387" cy="124" r="2"></circle><circle cx="411" cy="124" r="2"></circle><circle cx="434" cy="123" r="2"></circle><circle cx="458" cy="124" r="2"></circle><circle cx="482" cy="125" r="2"></circle><circle cx="505" cy="127" r="2"></circle><circle cx="529" cy="129" r="2"></circle><circle cx="552" cy="132" r="2"></circle><circle cx="576" cy="135" r="2"></circle><circle cx="599" cy="138" r="2"></circle><circle cx="623" cy="141" r="2"></circle><circle cx="647" cy="143" r="2"></circle><circle cx="670" cy="145" r="2"></circle><circle cx="694" cy="146" r="2"></circle></g></g><g class="key-World_4"><path stroke="#7ec7ce" stroke-linecap="round" d="M57 108L81 108L104 110L128 114L151 118L175 123L199 125L222 125L246 123L269 120L293 119L317 119L340 121L364 123L387 125L411 125L434 124L458 124L482 125L505 125L529 126L552 127L576 127L599 128L623 130L647 131L670 133L694 136" fill="none" stroke-width="1.5"></path><g fill="#7ec7ce"><circle cx="57" cy="108" r="2"></circle><circle cx="81" cy="108" r="2"></circle><circle cx="104" cy="110" r="2"></circle><circle cx="128" cy="114" r="2"></circle><circle cx="151" cy="118" r="2"></circle><circle cx="175" cy="123" r="2"></circle><circle cx="199" cy="125" r="2"></circle><circle cx="222" cy="125" r="2"></circle><circle cx="246" cy="123" r="2"></circle><circle cx="269" cy="120" r="2"></circle><circle cx="293" cy="119" r="2"></circle><circle cx="317" cy="119" r="2"></circle><circle cx="340" cy="121" r="2"></circle><circle cx="364" cy="123" r="2"></circle><circle cx="387" cy="125" r="2"></circle><circle cx="411" cy="125" r="2"></circle><circle cx="434" cy="124" r="2"></circle><circle cx="458" cy="124" r="2"></circle><circle cx="482" cy="125" r="2"></circle><circle cx="505" cy="125" r="2"></circle><circle cx="529" cy="126" r="2"></circle><circle cx="552" cy="127" r="2"></circle><circle cx="576" cy="127" r="2"></circle><circle cx="599" cy="128" r="2"></circle><circle cx="623" cy="130" r="2"></circle><circle cx="647" cy="131" r="2"></circle><circle cx="670" cy="133" r="2"></circle><circle cx="694" cy="136" r="2"></circle></g></g><g class="key-World_5"><path stroke="#9ecc8a" stroke-linecap="round" d="M57 212L81 212L104 211L128 211L151 210L175 209L199 206L222 202L246 196L269 191L293 189L317 188L340 188L364 189L387 191L411 193L434 195L458 197L482 200L505 202L529 203L552 204L576 205L599 206L623 207L647 208L670 209L694 211" fill="none" stroke-width="1.5"></path><g fill="#9ecc8a"><circle cx="57" cy="212" r="2"></circle><circle cx="81" cy="212" r="2"></circle><circle cx="104" cy="211" r="2"></circle><circle cx="128" cy="211" r="2"></circle><circle cx="151" cy="210" r="2"></circle><circle cx="175" cy="209" r="2"></circle><circle cx="199" cy="206" r="2"></circle><circle cx="222" cy="202" r="2"></circle><circle cx="246" cy="196" r="2"></circle><circle cx="269" cy="191" r="2"></circle><circle cx="293" cy="189" r="2"></circle><circle cx="317" cy="188" r="2"></circle><circle cx="340" cy="188" r="2"></circle><circle cx="364" cy="189" r="2"></circle><circle cx="387" cy="191" r="2"></circle><circle cx="411" cy="193" r="2"></circle><circle cx="434" cy="195" r="2"></circle><circle cx="458" cy="197" r="2"></circle><circle cx="482" cy="200" r="2"></circle><circle cx="505" cy="202" r="2"></circle><circle cx="529" cy="203" r="2"></circle><circle cx="552" cy="204" r="2"></circle><circle cx="576" cy="205" r="2"></circle><circle cx="599" cy="206" r="2"></circle><circle cx="623" cy="207" r="2"></circle><circle cx="647" cy="208" r="2"></circle><circle cx="670" cy="209" r="2"></circle><circle cx="694" cy="211" r="2"></circle></g></g><g class="key-World_6"><path stroke="#34983f" stroke-linecap="round" d="M57 421L81 419L104 417L128 415L151 413L175 412L199 411L222 410L246 409L269 409L293 408L317 408L340 408L364 408L387 409L411 409L434 409L458 408L482 407L505 406L529 406L552 406L576 406L599 408L623 409L647 410L670 410L694 410" fill="none" stroke-width="1.5"></path><g fill="#34983f"><circle cx="57" cy="421" r="2"></circle><circle cx="81" cy="419" r="2"></circle><circle cx="104" cy="417" r="2"></circle><circle cx="128" cy="415" r="2"></circle><circle cx="151" cy="413" r="2"></circle><circle cx="175" cy="412" r="2"></circle><circle cx="199" cy="411" r="2"></circle><circle cx="222" cy="410" r="2"></circle><circle cx="246" cy="409" r="2"></circle><circle cx="269" cy="409" r="2"></circle><circle cx="293" cy="408" r="2"></circle><circle cx="317" cy="408" r="2"></circle><circle cx="340" cy="408" r="2"></circle><circle cx="364" cy="408" r="2"></circle><circle cx="387" cy="409" r="2"></circle><circle cx="411" cy="409" r="2"></circle><circle cx="434" cy="409" r="2"></circle><circle cx="458" cy="408" r="2"></circle><circle cx="482" cy="407" r="2"></circle><circle cx="505" cy="406" r="2"></circle><circle cx="529" cy="406" r="2"></circle><circle cx="552" cy="406" r="2"></circle><circle cx="576" cy="406" r="2"></circle><circle cx="599" cy="408" r="2"></circle><circle cx="623" cy="409" r="2"></circle><circle cx="647" cy="410" r="2"></circle><circle cx="670" cy="410" r="2"></circle><circle cx="694" cy="410" r="2"></circle></g></g><g class="key-World_7"><path stroke="#ffd53e" stroke-linecap="round" d="M57 204L81 204L104 203L128 202L151 201L175 200L199 197L222 194L246 191L269 188L293 188L317 189L340 192L364 195L387 197L411 198L434 199L458 199L482 200L505 201L529 202L552 203L576 204L599 204L623 206L647 207L670 208L694 210" fill="none" stroke-width="1.5"></path><g fill="#ffd53e"><circle cx="57" cy="204" r="2"></circle><circle cx="81" cy="204" r="2"></circle><circle cx="104" cy="203" r="2"></circle><circle cx="128" cy="202" r="2"></circle><circle cx="151" cy="201" r="2"></circle><circle cx="175" cy="200" r="2"></circle><circle cx="199" cy="197" r="2"></circle><circle cx="222" cy="194" r="2"></circle><circle cx="246" cy="191" r="2"></circle><circle cx="269" cy="188" r="2"></circle><circle cx="293" cy="188" r="2"></circle><circle cx="317" cy="189" r="2"></circle><circle cx="340" cy="192" r="2"></circle><circle cx="364" cy="195" r="2"></circle><circle cx="387" cy="197" r="2"></circle><circle cx="411" cy="198" r="2"></circle><circle cx="434" cy="199" r="2"></circle><circle cx="458" cy="199" r="2"></circle><circle cx="482" cy="200" r="2"></circle><circle cx="505" cy="201" r="2"></circle><circle cx="529" cy="202" r="2"></circle><circle cx="552" cy="203" r="2"></circle><circle cx="576" cy="204" r="2"></circle><circle cx="599" cy="204" r="2"></circle><circle cx="623" cy="206" r="2"></circle><circle cx="647" cy="207" r="2"></circle><circle cx="670" cy="208" r="2"></circle><circle cx="694" cy="210" r="2"></circle></g></g><g class="key-World_8"><path stroke="#3360a9" stroke-linecap="round" d="M57 529L81 529L104 529L128 529L151 529L175 529L199 529L222 528L246 528L269 528L293 528L317 528L340 528L364 528L387 528L411 528L434 528L458 528L482 528L505 528L529 529L552 529L576 529L599 529L623 529L647 529L670 529L694 529" fill="none" stroke-width="1.5"></path><g fill="#3360a9"><circle cx="57" cy="529" r="2"></circle><circle cx="81" cy="529" r="2"></circle><circle cx="104" cy="529" r="2"></circle><circle cx="128" cy="529" r="2"></circle><circle cx="151" cy="529" r="2"></circle><circle cx="175" cy="529" r="2"></circle><circle cx="199" cy="529" r="2"></circle><circle cx="222" cy="528" r="2"></circle><circle cx="246" cy="528" r="2"></circle><circle cx="269" cy="528" r="2"></circle><circle cx="293" cy="528" r="2"></circle><circle cx="317" cy="528" r="2"></circle><circle cx="340" cy="528" r="2"></circle><circle cx="364" cy="528" r="2"></circle><circle cx="387" cy="528" r="2"></circle><circle cx="411" cy="528" r="2"></circle><circle cx="434" cy="528" r="2"></circle><circle cx="458" cy="528" r="2"></circle><circle cx="482" cy="528" r="2"></circle><circle cx="505" cy="528" r="2"></circle><circle cx="529" cy="529" r="2"></circle><circle cx="552" cy="529" r="2"></circle><circle cx="576" cy="529" r="2"></circle><circle cx="599" cy="529" r="2"></circle><circle cx="623" cy="529" r="2"></circle><circle cx="647" cy="529" r="2"></circle><circle cx="670" cy="529" r="2"></circle><circle cx="694" cy="529" r="2"></circle></g></g><g class="key-World_9"><path stroke="#e6332e" stroke-linecap="round" d="M57 264L81 258L104 254L128 251L151 251L175 253L199 254L222 255L246 256L269 256L293 256L317 257L340 257L364 258L387 259L411 259L434 259L458 258L482 258L505 258L529 258L552 258L576 260L599 261L623 263L647 265L670 269L694 272" fill="none" stroke-width="1.5"></path><g fill="#e6332e"><circle cx="57" cy="264" r="2"></circle><circle cx="81" cy="258" r="2"></circle><circle cx="104" cy="254" r="2"></circle><circle cx="128" cy="251" r="2"></circle><circle cx="151" cy="251" r="2"></circle><circle cx="175" cy="253" r="2"></circle><circle cx="199" cy="254" r="2"></circle><circle cx="222" cy="255" r="2"></circle><circle cx="246" cy="256" r="2"></circle><circle cx="269" cy="256" r="2"></circle><circle cx="293" cy="256" r="2"></circle><circle cx="317" cy="257" r="2"></circle><circle cx="340" cy="257" r="2"></circle><circle cx="364" cy="258" r="2"></circle><circle cx="387" cy="259" r="2"></circle><circle cx="411" cy="259" r="2"></circle><circle cx="434" cy="259" r="2"></circle><circle cx="458" cy="258" r="2"></circle><circle cx="482" cy="258" r="2"></circle><circle cx="505" cy="258" r="2"></circle><circle cx="529" cy="258" r="2"></circle><circle cx="552" cy="258" r="2"></circle><circle cx="576" cy="260" r="2"></circle><circle cx="599" cy="261" r="2"></circle><circle cx="623" cy="263" r="2"></circle><circle cx="647" cy="265" r="2"></circle><circle cx="670" cy="269" r="2"></circle><circle cx="694" cy="272" r="2"></circle></g></g></g></g></g><g style="fill: #777;" class="SourcesFooter"><g style="fill: #777;" class="clickable"><text font-size="12.60" x="15.0" y="581.6"><tspan x="15" y="581.58">Source: IHME, Global Burden of Disease</tspan></text></g><text font-size="12.60" x="775.4" y="581.6"><tspan x="775.402" y="581.58"><a style="fill: #777;" class="cclogo" href="http://creativecommons.org/licenses/by-sa/4.0/deed.en_US" target="_blank">CC BY-SA</a></tspan></text></g></g></svg>