<svg xmlns="http://www.w3.org/2000/svg" version="1.1" style="font-family: 'Helvetica Neue', Helvetica, Arial, sans-serif; font-size: 18px; background-color: white; text-rendering: optimizeLegibility; -webkit-font-smoothing: antialiased;" width="850" height="600"><g class="ChartTab"><g class="HeaderView"><g opacity="0.8" transform="translate(778, 15) scale(0.27)"><a xmlns:xlink="http://www.w3.org/1999/xlink" xlink:href="https://ourworldindata.org" target="_blank"><g><rect x="0" y="0" fill="#1B2543" width="211.2" height="130.1"/><rect x="0" y="112.2" fill="#E63912" width="211.2" height="17.9"/><g><rect x="1.2" y="12.3" fill="none" width="210.2" height="99.2"/><path fill="#FFFFFF" d="M37.8,32.2c0,12.7-7.7,19.4-17.1,19.4c-9.7,0-16.6-7.5-16.6-18.7c0-11.7,7.3-19.3,17.1-19.3 C31.3,13.7,37.8,21.3,37.8,32.2z M9.2,32.8c0,7.9,4.3,14.9,11.8,14.9c7.5,0,11.8-6.9,11.8-15.3c0-7.3-3.8-14.9-11.8-14.9 C13.1,17.5,9.2,24.8,9.2,32.8z"/><path fill="#FFFFFF" d="M62.7,43.8c0,2.7,0.1,5.1,0.2,7.2h-4.3l-0.3-4.3h-0.1c-1.3,2.1-4,4.9-8.8,4.9c-4.2,0-9.1-2.3-9.1-11.6 V24.6h4.8v14.6c0,5,1.5,8.4,5.9,8.4c3.2,0,5.5-2.2,6.3-4.4c0.3-0.7,0.4-1.6,0.4-2.5V24.6h4.8V43.8z"/><path fill="#FFFFFF" d="M67.3,32.8c0-3.1-0.1-5.8-0.2-8.2h4.2l0.2,5.2h0.2c1.2-3.5,4.1-5.8,7.3-5.8c0.5,0,0.9,0.1,1.4,0.2v4.5 c-0.5-0.1-1-0.2-1.6-0.2c-3.4,0-5.8,2.6-6.5,6.2c-0.1,0.7-0.2,1.4-0.2,2.2V51h-4.8V32.8z"/><path fill="#FFFFFF" d="M95.4,51l-9.4-36.8h5l4.4,18.6c1.1,4.6,2.1,9.2,2.7,12.7h0.1c0.6-3.7,1.8-8,3-12.8l4.9-18.5h5l4.5,18.7 c1,4.4,2,8.7,2.6,12.6h0.1c0.8-4,1.8-8.1,3-12.7l4.9-18.5h4.9L120.6,51h-5L111,31.9c-1.1-4.7-1.9-8.3-2.4-12h-0.1 c-0.7,3.7-1.5,7.3-2.8,12L100.4,51H95.4z"/><path fill="#FFFFFF" d="M154.9,37.6c0,9.8-6.8,14-13.2,14c-7.2,0-12.7-5.2-12.7-13.6c0-8.8,5.8-14,13.1-14 C149.8,24,154.9,29.5,154.9,37.6z M133.9,37.9c0,5.8,3.3,10.1,8,10.1c4.6,0,8-4.3,8-10.3c0-4.5-2.2-10.1-7.9-10.1 C136.3,27.6,133.9,32.8,133.9,37.9z"/><path fill="#FFFFFF" d="M158.2,32.8c0-3.1-0.1-5.8-0.2-8.2h4.2l0.2,5.2h0.2c1.2-3.5,4.1-5.8,7.3-5.8c0.5,0,0.9,0.1,1.4,0.2v4.5 c-0.5-0.1-1-0.2-1.6-0.2c-3.4,0-5.8,2.6-6.5,6.2c-0.1,0.7-0.2,1.4-0.2,2.2V51h-4.8V32.8z"/><path fill="#FFFFFF" d="M173.5,12.3h4.8V51h-4.8V12.3z"/><path fill="#FFFFFF" d="M206.5,12.3v31.9c0,2.3,0.1,5,0.2,6.8h-4.3l-0.2-4.6H202c-1.5,2.9-4.7,5.2-9,5.2 c-6.4,0-11.3-5.4-11.3-13.4c-0.1-8.8,5.4-14.2,11.9-14.2c4,0,6.8,1.9,8,4h0.1V12.3H206.5z M201.7,35.4c0-0.6-0.1-1.4-0.2-2 c-0.7-3.1-3.3-5.6-6.9-5.6c-5,0-7.9,4.4-7.9,10.2c0,5.3,2.6,9.8,7.8,9.8c3.2,0,6.2-2.1,7.1-5.7c0.2-0.7,0.2-1.3,0.2-2.1V35.4z"/><path fill="#FFFFFF" d="M42.8,64c0.1,1.6-1.1,2.9-3.1,2.9c-1.7,0-2.9-1.3-2.9-2.9c0-1.7,1.3-3,3-3C41.7,61,42.8,62.3,42.8,64z M37.4,97.8V71.4h4.8v26.4H37.4z"/><path fill="#FFFFFF" d="M47.5,78.6c0-2.7-0.1-5-0.2-7.1h4.3l0.3,4.4h0.1c1.3-2.5,4.4-5,8.8-5c3.7,0,9.4,2.2,9.4,11.2v15.8h-4.8 V82.6c0-4.3-1.6-7.8-6.1-7.8c-3.2,0-5.6,2.2-6.5,4.9c-0.2,0.6-0.3,1.4-0.3,2.2v15.9h-4.8V78.6z"/><path fill="#FFFFFF" d="M84,61.6c2.9-0.4,6.3-0.8,10.1-0.8c6.8,0,11.7,1.6,14.9,4.6c3.3,3,5.2,7.3,5.2,13.2c0,6-1.9,10.9-5.3,14.3 c-3.4,3.4-9.1,5.3-16.3,5.3c-3.4,0-6.2-0.2-8.6-0.4V61.6z M88.8,94.1c1.2,0.2,3,0.3,4.8,0.3c10.2,0,15.7-5.7,15.7-15.6 c0.1-8.7-4.9-14.2-14.9-14.2c-2.5,0-4.3,0.2-5.6,0.5V94.1z"/><path fill="#FFFFFF" d="M132.1,97.8l-0.4-3.3h-0.2c-1.5,2.1-4.3,3.9-8.1,3.9c-5.4,0-8.1-3.8-8.1-7.6c0-6.4,5.7-9.9,15.9-9.8v-0.5 c0-2.2-0.6-6.1-6-6.1c-2.5,0-5,0.8-6.9,2l-1.1-3.2c2.2-1.4,5.4-2.3,8.7-2.3c8.1,0,10.1,5.5,10.1,10.8v9.9c0,2.3,0.1,4.5,0.4,6.3 H132.1z M131.4,84.4c-5.3-0.1-11.2,0.8-11.2,5.9c0,3.1,2.1,4.6,4.5,4.6c3.4,0,5.6-2.2,6.4-4.4c0.2-0.5,0.3-1,0.3-1.5V84.4z"/><path fill="#FFFFFF" d="M146.6,63.9v7.6h6.9v3.7h-6.9v14.2c0,3.3,0.9,5.1,3.6,5.1c1.3,0,2.2-0.2,2.8-0.3l0.2,3.6 c-0.9,0.4-2.4,0.7-4.3,0.7c-2.2,0-4-0.7-5.2-2c-1.4-1.4-1.9-3.8-1.9-6.9V75.1h-4.1v-3.7h4.1v-6.3L146.6,63.9z"/><path fill="#FFFFFF" d="M171.4,97.8l-0.4-3.3h-0.2c-1.5,2.1-4.3,3.9-8.1,3.9c-5.4,0-8.1-3.8-8.1-7.6c0-6.4,5.7-9.9,15.9-9.8v-0.5 c0-2.2-0.6-6.1-6-6.1c-2.5,0-5,0.8-6.9,2l-1.1-3.2c2.2-1.4,5.4-2.3,8.7-2.3c8.1,0,10.1,5.5,10.1,10.8v9.9c0,2.3,0.1,4.5,0.4,6.3 H171.4z M170.7,84.4c-5.3-0.1-11.2,0.8-11.2,5.9c0,3.1,2.1,4.6,4.5,4.6c3.4,0,5.6-2.2,6.4-4.4c0.2-0.5,0.3-1,0.3-1.5V84.4z"/></g></g></a></g><a href="https://ourworldindata.org/grapher/prevalence-of-anxiety-disorders-by-age" target="_blank"><text font-size="25.20" x="15.0" y="35.2" fill="#555"><tspan x="15" y="35.160000000000004">Prevalence of anxiety disorders by age, World</tspan></text></a><text font-size="14.40" x="15.0" y="53.7" fill="#666"><tspan x="15" y="53.72">Share of population within each age category suffering from an anxiety disorder. This is measured across both sexes.</tspan><tspan x="15" y="69.56">Figures attempt to provide a true estimate (going beyond reported diagnosis) of anxiety disorder prevalence based on</tspan><tspan x="15" y="85.4">medical, epidemiological data, surveys and meta-regression modelling.</tspan></text></g><g class="LineChart"><defs><clipPath id="boundsClip-11"><rect x="33.49" y="0" width="830" height="897.8"></rect></clipPath></defs><g class="AxisBoxView"><g class="HorizontalAxis"><text x="43.5" y="556.5" fill="#666" text-anchor="middle" font-size="16.2">1990</text><text x="163.9" y="556.5" fill="#666" text-anchor="middle" font-size="16.2">1995</text><text x="284.3" y="556.5" fill="#666" text-anchor="middle" font-size="16.2">2000</text><text x="404.7" y="556.5" fill="#666" text-anchor="middle" font-size="16.2">2005</text><text x="525.2" y="556.5" fill="#666" text-anchor="middle" font-size="16.2">2010</text><text x="645.6" y="556.5" fill="#666" text-anchor="middle" font-size="16.2">2015</text><text x="693.8" y="556.5" fill="#666" text-anchor="middle" font-size="16.2">2017</text></g><g class="VerticalAxis"><text x="38.49" y="535.3" fill="#666" dominant-baseline="middle" text-anchor="end" font-size="16.2">0%</text><text x="38.49" y="447.1" fill="#666" dominant-baseline="middle" text-anchor="end" font-size="16.2">1%</text><text x="38.49" y="358.9" fill="#666" dominant-baseline="middle" text-anchor="end" font-size="16.2">2%</text><text x="38.49" y="270.7" fill="#666" dominant-baseline="middle" text-anchor="end" font-size="16.2">3%</text><text x="38.49" y="182.5" fill="#666" dominant-baseline="middle" text-anchor="end" font-size="16.2">4%</text></g><g class="AxisGridLines"><line x1="43.49" y1="535.3" x2="693.75" y2="535.3" stroke="#ccc"></line><line x1="43.49" y1="447.1" x2="693.75" y2="447.1" stroke="#ddd" stroke-dasharray="3,2"></line><line x1="43.49" y1="358.9" x2="693.75" y2="358.9" stroke="#ddd" stroke-dasharray="3,2"></line><line x1="43.49" y1="270.7" x2="693.75" y2="270.7" stroke="#ddd" stroke-dasharray="3,2"></line><line x1="43.49" y1="182.5" x2="693.75" y2="182.5" stroke="#ddd" stroke-dasharray="3,2"></line></g></g><g clip-path="url(#boundsClip-11)"><g class="HeightedLegend clickable"><g class="legendMark"><g class="indicator"><line x1="698.755" y1="123.8" x2="721.255" y2="123.8" stroke="#666" stroke-width="0.5"></line><line x1="721.255" y1="123.8" x2="721.255" y2="123.8" stroke="#666" stroke-width="0.5"></line><line x1="721.255" y1="123.8" x2="723.755" y2="123.8" stroke="#666" stroke-width="0.5"></line></g><rect x="693.755" y="117.05" width="128.42000000000002" height="13.5" fill="#fff" opacity="0"></rect><text font-size="13.50" x="728.8" y="127.9" fill="#e6332e"><tspan x="728.755" y="127.85000000000001">50-69 year olds</tspan></text></g><g class="legendMark"><g class="indicator"><line x1="698.755" y1="136.5" x2="719.255" y2="136.5" stroke="#666" stroke-width="0.5"></line><line x1="719.255" y1="136.5" x2="719.255" y2="139.3" stroke="#666" stroke-width="0.5"></line><line x1="719.255" y1="139.3" x2="723.755" y2="139.3" stroke="#666" stroke-width="0.5"></line></g><rect x="693.755" y="132.55" width="128.42000000000002" height="13.5" fill="#fff" opacity="0"></rect><text font-size="13.50" x="728.8" y="143.4" fill="#7ec7ce"><tspan x="728.755" y="143.35000000000002">15-49 year olds</tspan></text></g><g class="legendMark"><g class="indicator"><line x1="698.755" y1="142.8" x2="717.255" y2="142.8" stroke="#666" stroke-width="0.5"></line><line x1="717.255" y1="142.8" x2="717.255" y2="154.8" stroke="#666" stroke-width="0.5"></line><line x1="717.255" y1="154.8" x2="723.755" y2="154.8" stroke="#666" stroke-width="0.5"></line></g><rect x="693.755" y="148.05" width="128.42000000000002" height="13.5" fill="#fff" opacity="0"></rect><text font-size="13.50" x="728.8" y="158.9" fill="#b077b1"><tspan x="728.755" y="158.85000000000002">30-34 years old</tspan></text></g><g class="legendMark"><g class="indicator"><line x1="698.755" y1="150.4" x2="715.255" y2="150.4" stroke="#666" stroke-width="0.5"></line><line x1="715.255" y1="150.4" x2="715.255" y2="170.3" stroke="#666" stroke-width="0.5"></line><line x1="715.255" y1="170.3" x2="723.755" y2="170.3" stroke="#666" stroke-width="0.5"></line></g><rect x="693.755" y="163.55" width="128.42000000000002" height="13.5" fill="#fff" opacity="0"></rect><text font-size="13.50" x="728.8" y="174.4" fill="#ffd53e"><tspan x="728.755" y="174.35000000000002">15-19 year olds</tspan></text></g><g class="legendMark"><g class="indicator"><line x1="698.755" y1="157.3" x2="713.255" y2="157.3" stroke="#666" stroke-width="0.5"></line><line x1="713.255" y1="157.3" x2="713.255" y2="185.8" stroke="#666" stroke-width="0.5"></line><line x1="713.255" y1="185.8" x2="723.755" y2="185.8" stroke="#666" stroke-width="0.5"></line></g><rect x="693.755" y="179.05" width="128.42000000000002" height="13.5" fill="#fff" opacity="0"></rect><text font-size="13.50" x="728.8" y="189.9" fill="#9ecc8a"><tspan x="728.755" y="189.85000000000002">20-24 year olds</tspan></text></g><g class="legendMark"><g class="indicator"><line x1="698.755" y1="157.9" x2="711.255" y2="157.9" stroke="#666" stroke-width="0.5"></line><line x1="711.255" y1="157.9" x2="711.255" y2="201.3" stroke="#666" stroke-width="0.5"></line><line x1="711.255" y1="201.3" x2="723.755" y2="201.3" stroke="#666" stroke-width="0.5"></line></g><rect x="693.755" y="194.55" width="128.42000000000002" height="13.5" fill="#fff" opacity="0"></rect><text font-size="13.50" x="728.8" y="205.4" fill="#e6332e"><tspan x="728.755" y="205.35000000000002">25-29 year olds</tspan></text></g><g class="legendMark"><g class="indicator"><line x1="698.755" y1="172.6" x2="709.255" y2="172.6" stroke="#666" stroke-width="0.5"></line><line x1="709.255" y1="172.6" x2="709.255" y2="216.8" stroke="#666" stroke-width="0.5"></line><line x1="709.255" y1="216.8" x2="723.755" y2="216.8" stroke="#666" stroke-width="0.5"></line></g><rect x="693.755" y="210.05" width="116.67500000000001" height="13.5" fill="#fff" opacity="0"></rect><text font-size="13.50" x="728.8" y="220.9" fill="#2a939b"><tspan x="728.755" y="220.85000000000002">70+ year olds</tspan></text></g><g class="legendMark"><g class="indicator"><line x1="698.755" y1="195" x2="707.255" y2="195" stroke="#666" stroke-width="0.5"></line><line x1="707.255" y1="195" x2="707.255" y2="232.3" stroke="#666" stroke-width="0.5"></line><line x1="707.255" y1="232.3" x2="723.755" y2="232.3" stroke="#666" stroke-width="0.5"></line></g><rect x="693.755" y="225.55" width="83.195" height="13.5" fill="#fff" opacity="0"></rect><text font-size="13.50" x="728.8" y="236.4" fill="#a652ba"><tspan x="728.755" y="236.35000000000002">All ages</tspan></text></g><g class="legendMark"><g class="indicator"><line x1="698.755" y1="203.3" x2="705.255" y2="203.3" stroke="#666" stroke-width="0.5"></line><line x1="705.255" y1="203.3" x2="705.255" y2="247.8" stroke="#666" stroke-width="0.5"></line><line x1="705.255" y1="247.8" x2="723.755" y2="247.8" stroke="#666" stroke-width="0.5"></line></g><rect x="693.755" y="241.05" width="141.245" height="13.5" fill="#fff" opacity="0"></rect><text font-size="13.50" x="728.8" y="251.9" fill="#f6a324"><tspan x="728.755" y="251.85000000000002">Age-standardized</tspan></text></g><g class="legendMark"><g class="indicator"><line x1="698.755" y1="207.8" x2="703.255" y2="207.8" stroke="#666" stroke-width="0.5"></line><line x1="703.255" y1="207.8" x2="703.255" y2="263.3" stroke="#666" stroke-width="0.5"></line><line x1="703.255" y1="263.3" x2="723.755" y2="263.3" stroke="#666" stroke-width="0.5"></line></g><rect x="693.755" y="256.55" width="128.42000000000002" height="13.5" fill="#fff" opacity="0"></rect><text font-size="13.50" x="728.8" y="267.4" fill="#34983f"><tspan x="728.755" y="267.35">10-14 year olds</tspan></text></g><g class="legendMark"><g class="indicator"><line x1="698.755" y1="306.3" x2="711.255" y2="306.3" stroke="#666" stroke-width="0.5"></line><line x1="711.255" y1="306.3" x2="711.255" y2="306.3" stroke="#666" stroke-width="0.5"></line><line x1="711.255" y1="306.3" x2="723.755" y2="306.3" stroke="#666" stroke-width="0.5"></line></g><rect x="693.755" y="299.55" width="120.86" height="13.5" fill="#fff" opacity="0"></rect><text font-size="13.50" x="728.8" y="310.4" fill="#ca2628"><tspan x="728.755" y="310.35">5-14 year olds</tspan></text></g><g class="legendMark"><g class="indicator"><line x1="698.755" y1="525.5" x2="711.255" y2="525.5" stroke="#666" stroke-width="0.5"></line><line x1="711.255" y1="525.5" x2="711.255" y2="525.5" stroke="#666" stroke-width="0.5"></line><line x1="711.255" y1="525.5" x2="723.755" y2="525.5" stroke="#666" stroke-width="0.5"></line></g><rect x="693.755" y="518.75" width="90.62" height="13.5" fill="#fff" opacity="0"></rect><text font-size="13.50" x="728.8" y="529.5" fill="#3360a9"><tspan x="728.755" y="529.55">Under-5s</tspan></text></g></g><g class="Lines"><rect x="43" y="108" width="650" height="428" fill="rgba(255,255,255,0)" opacity="0"></rect><g class="key-World_0"><path stroke="#b077b1" stroke-linecap="round" d="M44 139L68 139L92 139L116 140L140 142L164 144L188 145L212 144L236 143L260 142L284 141L308 141L333 141L357 141L381 142L405 142L429 141L453 141L477 140L501 139L525 138L549 137L573 136L597 136L622 137L646 138L670 140L694 143" fill="none" stroke-width="1.5"></path><g fill="#b077b1"><circle cx="44" cy="139" r="2"></circle><circle cx="68" cy="139" r="2"></circle><circle cx="92" cy="139" r="2"></circle><circle cx="116" cy="140" r="2"></circle><circle cx="140" cy="142" r="2"></circle><circle cx="164" cy="144" r="2"></circle><circle cx="188" cy="145" r="2"></circle><circle cx="212" cy="144" r="2"></circle><circle cx="236" cy="143" r="2"></circle><circle cx="260" cy="142" r="2"></circle><circle cx="284" cy="141" r="2"></circle><circle cx="308" cy="141" r="2"></circle><circle cx="333" cy="141" r="2"></circle><circle cx="357" cy="141" r="2"></circle><circle cx="381" cy="142" r="2"></circle><circle cx="405" cy="142" r="2"></circle><circle cx="429" cy="141" r="2"></circle><circle cx="453" cy="141" r="2"></circle><circle cx="477" cy="140" r="2"></circle><circle cx="501" cy="139" r="2"></circle><circle cx="525" cy="138" r="2"></circle><circle cx="549" cy="137" r="2"></circle><circle cx="573" cy="136" r="2"></circle><circle cx="597" cy="136" r="2"></circle><circle cx="622" cy="137" r="2"></circle><circle cx="646" cy="138" r="2"></circle><circle cx="670" cy="140" r="2"></circle><circle cx="694" cy="143" r="2"></circle></g></g><g class="key-World_1"><path stroke="#3360a9" stroke-linecap="round" d="M44 526L68 526L92 526L116 526L140 526L164 526L188 526L212 526L236 526L260 526L284 526L308 526L333 526L357 526L381 526L405 526L429 526L453 526L477 526L501 526L525 526L549 526L573 526L597 526L622 526L646 526L670 526L694 526" fill="none" stroke-width="1.5"></path><g fill="#3360a9"><circle cx="44" cy="526" r="2"></circle><circle cx="68" cy="526" r="2"></circle><circle cx="92" cy="526" r="2"></circle><circle cx="116" cy="526" r="2"></circle><circle cx="140" cy="526" r="2"></circle><circle cx="164" cy="526" r="2"></circle><circle cx="188" cy="526" r="2"></circle><circle cx="212" cy="526" r="2"></circle><circle cx="236" cy="526" r="2"></circle><circle cx="260" cy="526" r="2"></circle><circle cx="284" cy="526" r="2"></circle><circle cx="308" cy="526" r="2"></circle><circle cx="333" cy="526" r="2"></circle><circle cx="357" cy="526" r="2"></circle><circle cx="381" cy="526" r="2"></circle><circle cx="405" cy="526" r="2"></circle><circle cx="429" cy="526" r="2"></circle><circle cx="453" cy="526" r="2"></circle><circle cx="477" cy="526" r="2"></circle><circle cx="501" cy="526" r="2"></circle><circle cx="525" cy="526" r="2"></circle><circle cx="549" cy="526" r="2"></circle><circle cx="573" cy="526" r="2"></circle><circle cx="597" cy="526" r="2"></circle><circle cx="622" cy="526" r="2"></circle><circle cx="646" cy="526" r="2"></circle><circle cx="670" cy="526" r="2"></circle><circle cx="694" cy="526" r="2"></circle></g></g><g class="key-World_10"><path stroke="#9ecc8a" stroke-linecap="round" d="M44 162L68 162L92 162L116 162L140 161L164 161L188 160L212 159L236 157L260 155L284 153L308 152L333 151L357 151L381 151L405 152L429 154L453 156L477 157L501 158L525 158L549 159L573 158L597 158L622 158L646 158L670 158L694 157" fill="none" stroke-width="1.5"></path><g fill="#9ecc8a"><circle cx="44" cy="162" r="2"></circle><circle cx="68" cy="162" r="2"></circle><circle cx="92" cy="162" r="2"></circle><circle cx="116" cy="162" r="2"></circle><circle cx="140" cy="161" r="2"></circle><circle cx="164" cy="161" r="2"></circle><circle cx="188" cy="160" r="2"></circle><circle cx="212" cy="159" r="2"></circle><circle cx="236" cy="157" r="2"></circle><circle cx="260" cy="155" r="2"></circle><circle cx="284" cy="153" r="2"></circle><circle cx="308" cy="152" r="2"></circle><circle cx="333" cy="151" r="2"></circle><circle cx="357" cy="151" r="2"></circle><circle cx="381" cy="151" r="2"></circle><circle cx="405" cy="152" r="2"></circle><circle cx="429" cy="154" r="2"></circle><circle cx="453" cy="156" r="2"></circle><circle cx="477" cy="157" r="2"></circle><circle cx="501" cy="158" r="2"></circle><circle cx="525" cy="158" r="2"></circle><circle cx="549" cy="159" r="2"></circle><circle cx="573" cy="158" r="2"></circle><circle cx="597" cy="158" r="2"></circle><circle cx="622" cy="158" r="2"></circle><circle cx="646" cy="158" r="2"></circle><circle cx="670" cy="158" r="2"></circle><circle cx="694" cy="157" r="2"></circle></g></g><g class="key-World_11"><path stroke="#a652ba" stroke-linecap="round" d="M44 214L68 214L92 213L116 212L140 211L164 210L188 209L212 206L236 204L260 201L284 200L308 199L333 198L357 197L381 197L405 197L429 196L453 196L477 196L501 195L525 195L549 195L573 195L597 195L622 195L646 195L670 195L694 195" fill="none" stroke-width="1.5"></path><g fill="#a652ba"><circle cx="44" cy="214" r="2"></circle><circle cx="68" cy="214" r="2"></circle><circle cx="92" cy="213" r="2"></circle><circle cx="116" cy="212" r="2"></circle><circle cx="140" cy="211" r="2"></circle><circle cx="164" cy="210" r="2"></circle><circle cx="188" cy="209" r="2"></circle><circle cx="212" cy="206" r="2"></circle><circle cx="236" cy="204" r="2"></circle><circle cx="260" cy="201" r="2"></circle><circle cx="284" cy="200" r="2"></circle><circle cx="308" cy="199" r="2"></circle><circle cx="333" cy="198" r="2"></circle><circle cx="357" cy="197" r="2"></circle><circle cx="381" cy="197" r="2"></circle><circle cx="405" cy="197" r="2"></circle><circle cx="429" cy="196" r="2"></circle><circle cx="453" cy="196" r="2"></circle><circle cx="477" cy="196" r="2"></circle><circle cx="501" cy="195" r="2"></circle><circle cx="525" cy="195" r="2"></circle><circle cx="549" cy="195" r="2"></circle><circle cx="573" cy="195" r="2"></circle><circle cx="597" cy="195" r="2"></circle><circle cx="622" cy="195" r="2"></circle><circle cx="646" cy="195" r="2"></circle><circle cx="670" cy="195" r="2"></circle><circle cx="694" cy="195" r="2"></circle></g></g><g class="key-World_2"><path stroke="#ffd53e" stroke-linecap="round" d="M44 152L68 152L92 152L116 152L140 151L164 151L188 150L212 149L236 149L260 149L284 149L308 149L333 150L357 150L381 149L405 149L429 149L453 149L477 149L501 149L525 149L549 149L573 149L597 150L622 150L646 150L670 150L694 150" fill="none" stroke-width="1.5"></path><g fill="#ffd53e"><circle cx="44" cy="152" r="2"></circle><circle cx="68" cy="152" r="2"></circle><circle cx="92" cy="152" r="2"></circle><circle cx="116" cy="152" r="2"></circle><circle cx="140" cy="151" r="2"></circle><circle cx="164" cy="151" r="2"></circle><circle cx="188" cy="150" r="2"></circle><circle cx="212" cy="149" r="2"></circle><circle cx="236" cy="149" r="2"></circle><circle cx="260" cy="149" r="2"></circle><circle cx="284" cy="149" r="2"></circle><circle cx="308" cy="149" r="2"></circle><circle cx="333" cy="150" r="2"></circle><circle cx="357" cy="150" r="2"></circle><circle cx="381" cy="149" r="2"></circle><circle cx="405" cy="149" r="2"></circle><circle cx="429" cy="149" r="2"></circle><circle cx="453" cy="149" r="2"></circle><circle cx="477" cy="149" r="2"></circle><circle cx="501" cy="149" r="2"></circle><circle cx="525" cy="149" r="2"></circle><circle cx="549" cy="149" r="2"></circle><circle cx="573" cy="149" r="2"></circle><circle cx="597" cy="150" r="2"></circle><circle cx="622" cy="150" r="2"></circle><circle cx="646" cy="150" r="2"></circle><circle cx="670" cy="150" r="2"></circle><circle cx="694" cy="150" r="2"></circle></g></g><g class="key-World_3"><path stroke="#34983f" stroke-linecap="round" d="M44 210L68 210L92 210L116 210L140 210L164 211L188 211L212 211L236 210L260 210L284 209L308 209L333 208L357 208L381 208L405 208L429 208L453 208L477 207L501 207L525 207L549 207L573 207L597 207L622 207L646 208L670 208L694 208" fill="none" stroke-width="1.5"></path><g fill="#34983f"><circle cx="44" cy="210" r="2"></circle><circle cx="68" cy="210" r="2"></circle><circle cx="92" cy="210" r="2"></circle><circle cx="116" cy="210" r="2"></circle><circle cx="140" cy="210" r="2"></circle><circle cx="164" cy="211" r="2"></circle><circle cx="188" cy="211" r="2"></circle><circle cx="212" cy="211" r="2"></circle><circle cx="236" cy="210" r="2"></circle><circle cx="260" cy="210" r="2"></circle><circle cx="284" cy="209" r="2"></circle><circle cx="308" cy="209" r="2"></circle><circle cx="333" cy="208" r="2"></circle><circle cx="357" cy="208" r="2"></circle><circle cx="381" cy="208" r="2"></circle><circle cx="405" cy="208" r="2"></circle><circle cx="429" cy="208" r="2"></circle><circle cx="453" cy="208" r="2"></circle><circle cx="477" cy="207" r="2"></circle><circle cx="501" cy="207" r="2"></circle><circle cx="525" cy="207" r="2"></circle><circle cx="549" cy="207" r="2"></circle><circle cx="573" cy="207" r="2"></circle><circle cx="597" cy="207" r="2"></circle><circle cx="622" cy="207" r="2"></circle><circle cx="646" cy="208" r="2"></circle><circle cx="670" cy="208" r="2"></circle><circle cx="694" cy="208" r="2"></circle></g></g><g class="key-World_4"><path stroke="#e6332e" stroke-linecap="round" d="M44 157L68 159L92 160L116 162L140 162L164 162L188 162L212 160L236 158L260 156L284 155L308 154L333 153L357 152L381 151L405 150L429 149L453 148L477 149L501 149L525 151L549 153L573 155L597 156L622 158L646 158L670 159L694 158" fill="none" stroke-width="1.5"></path><g fill="#e6332e"><circle cx="44" cy="157" r="2"></circle><circle cx="68" cy="159" r="2"></circle><circle cx="92" cy="160" r="2"></circle><circle cx="116" cy="162" r="2"></circle><circle cx="140" cy="162" r="2"></circle><circle cx="164" cy="162" r="2"></circle><circle cx="188" cy="162" r="2"></circle><circle cx="212" cy="160" r="2"></circle><circle cx="236" cy="158" r="2"></circle><circle cx="260" cy="156" r="2"></circle><circle cx="284" cy="155" r="2"></circle><circle cx="308" cy="154" r="2"></circle><circle cx="333" cy="153" r="2"></circle><circle cx="357" cy="152" r="2"></circle><circle cx="381" cy="151" r="2"></circle><circle cx="405" cy="150" r="2"></circle><circle cx="429" cy="149" r="2"></circle><circle cx="453" cy="148" r="2"></circle><circle cx="477" cy="149" r="2"></circle><circle cx="501" cy="149" r="2"></circle><circle cx="525" cy="151" r="2"></circle><circle cx="549" cy="153" r="2"></circle><circle cx="573" cy="155" r="2"></circle><circle cx="597" cy="156" r="2"></circle><circle cx="622" cy="158" r="2"></circle><circle cx="646" cy="158" r="2"></circle><circle cx="670" cy="159" r="2"></circle><circle cx="694" cy="158" r="2"></circle></g></g><g class="key-World_5"><path stroke="#ca2628" stroke-linecap="round" d="M44 311L68 311L92 312L116 311L140 311L164 311L188 310L212 308L236 307L260 305L284 305L308 304L333 304L357 304L381 304L405 304L429 305L453 305L477 305L501 305L525 305L549 305L573 306L597 306L622 306L646 306L670 306L694 306" fill="none" stroke-width="1.5"></path><g fill="#ca2628"><circle cx="44" cy="311" r="2"></circle><circle cx="68" cy="311" r="2"></circle><circle cx="92" cy="312" r="2"></circle><circle cx="116" cy="311" r="2"></circle><circle cx="140" cy="311" r="2"></circle><circle cx="164" cy="311" r="2"></circle><circle cx="188" cy="310" r="2"></circle><circle cx="212" cy="308" r="2"></circle><circle cx="236" cy="307" r="2"></circle><circle cx="260" cy="305" r="2"></circle><circle cx="284" cy="305" r="2"></circle><circle cx="308" cy="304" r="2"></circle><circle cx="333" cy="304" r="2"></circle><circle cx="357" cy="304" r="2"></circle><circle cx="381" cy="304" r="2"></circle><circle cx="405" cy="304" r="2"></circle><circle cx="429" cy="305" r="2"></circle><circle cx="453" cy="305" r="2"></circle><circle cx="477" cy="305" r="2"></circle><circle cx="501" cy="305" r="2"></circle><circle cx="525" cy="305" r="2"></circle><circle cx="549" cy="305" r="2"></circle><circle cx="573" cy="306" r="2"></circle><circle cx="597" cy="306" r="2"></circle><circle cx="622" cy="306" r="2"></circle><circle cx="646" cy="306" r="2"></circle><circle cx="670" cy="306" r="2"></circle><circle cx="694" cy="306" r="2"></circle></g></g><g class="key-World_6"><path stroke="#e6332e" stroke-linecap="round" d="M44 119L68 119L92 120L116 119L140 119L164 119L188 117L212 115L236 112L260 109L284 108L308 108L333 109L357 111L381 113L405 114L429 114L453 114L477 114L501 114L525 114L549 115L573 116L597 117L622 119L646 120L670 122L694 124" fill="none" stroke-width="1.5"></path><g fill="#e6332e"><circle cx="44" cy="119" r="2"></circle><circle cx="68" cy="119" r="2"></circle><circle cx="92" cy="120" r="2"></circle><circle cx="116" cy="119" r="2"></circle><circle cx="140" cy="119" r="2"></circle><circle cx="164" cy="119" r="2"></circle><circle cx="188" cy="117" r="2"></circle><circle cx="212" cy="115" r="2"></circle><circle cx="236" cy="112" r="2"></circle><circle cx="260" cy="109" r="2"></circle><circle cx="284" cy="108" r="2"></circle><circle cx="308" cy="108" r="2"></circle><circle cx="333" cy="109" r="2"></circle><circle cx="357" cy="111" r="2"></circle><circle cx="381" cy="113" r="2"></circle><circle cx="405" cy="114" r="2"></circle><circle cx="429" cy="114" r="2"></circle><circle cx="453" cy="114" r="2"></circle><circle cx="477" cy="114" r="2"></circle><circle cx="501" cy="114" r="2"></circle><circle cx="525" cy="114" r="2"></circle><circle cx="549" cy="115" r="2"></circle><circle cx="573" cy="116" r="2"></circle><circle cx="597" cy="117" r="2"></circle><circle cx="622" cy="119" r="2"></circle><circle cx="646" cy="120" r="2"></circle><circle cx="670" cy="122" r="2"></circle><circle cx="694" cy="124" r="2"></circle></g></g><g class="key-World_7"><path stroke="#f6a324" stroke-linecap="round" d="M44 202L68 203L92 203L116 203L140 203L164 203L188 202L212 201L236 200L260 198L284 198L308 198L333 198L357 199L381 199L405 200L429 200L453 200L477 200L501 201L525 201L549 201L573 201L597 202L622 202L646 202L670 203L694 203" fill="none" stroke-width="1.5"></path><g fill="#f6a324"><circle cx="44" cy="202" r="2"></circle><circle cx="68" cy="203" r="2"></circle><circle cx="92" cy="203" r="2"></circle><circle cx="116" cy="203" r="2"></circle><circle cx="140" cy="203" r="2"></circle><circle cx="164" cy="203" r="2"></circle><circle cx="188" cy="202" r="2"></circle><circle cx="212" cy="201" r="2"></circle><circle cx="236" cy="200" r="2"></circle><circle cx="260" cy="198" r="2"></circle><circle cx="284" cy="198" r="2"></circle><circle cx="308" cy="198" r="2"></circle><circle cx="333" cy="198" r="2"></circle><circle cx="357" cy="199" r="2"></circle><circle cx="381" cy="199" r="2"></circle><circle cx="405" cy="200" r="2"></circle><circle cx="429" cy="200" r="2"></circle><circle cx="453" cy="200" r="2"></circle><circle cx="477" cy="200" r="2"></circle><circle cx="501" cy="201" r="2"></circle><circle cx="525" cy="201" r="2"></circle><circle cx="549" cy="201" r="2"></circle><circle cx="573" cy="201" r="2"></circle><circle cx="597" cy="202" r="2"></circle><circle cx="622" cy="202" r="2"></circle><circle cx="646" cy="202" r="2"></circle><circle cx="670" cy="203" r="2"></circle><circle cx="694" cy="203" r="2"></circle></g></g><g class="key-World_8"><path stroke="#7ec7ce" stroke-linecap="round" d="M44 138L68 138L92 139L116 139L140 139L164 139L188 138L212 136L236 134L260 133L284 132L308 132L333 132L357 132L381 132L405 133L429 133L453 134L477 134L501 135L525 135L549 135L573 135L597 136L622 136L646 136L670 136L694 137" fill="none" stroke-width="1.5"></path><g fill="#7ec7ce"><circle cx="44" cy="138" r="2"></circle><circle cx="68" cy="138" r="2"></circle><circle cx="92" cy="139" r="2"></circle><circle cx="116" cy="139" r="2"></circle><circle cx="140" cy="139" r="2"></circle><circle cx="164" cy="139" r="2"></circle><circle cx="188" cy="138" r="2"></circle><circle cx="212" cy="136" r="2"></circle><circle cx="236" cy="134" r="2"></circle><circle cx="260" cy="133" r="2"></circle><circle cx="284" cy="132" r="2"></circle><circle cx="308" cy="132" r="2"></circle><circle cx="333" cy="132" r="2"></circle><circle cx="357" cy="132" r="2"></circle><circle cx="381" cy="132" r="2"></circle><circle cx="405" cy="133" r="2"></circle><circle cx="429" cy="133" r="2"></circle><circle cx="453" cy="134" r="2"></circle><circle cx="477" cy="134" r="2"></circle><circle cx="501" cy="135" r="2"></circle><circle cx="525" cy="135" r="2"></circle><circle cx="549" cy="135" r="2"></circle><circle cx="573" cy="135" r="2"></circle><circle cx="597" cy="136" r="2"></circle><circle cx="622" cy="136" r="2"></circle><circle cx="646" cy="136" r="2"></circle><circle cx="670" cy="136" r="2"></circle><circle cx="694" cy="137" r="2"></circle></g></g><g class="key-World_9"><path stroke="#2a939b" stroke-linecap="round" d="M44 156L68 156L92 156L116 156L140 156L164 157L188 156L212 156L236 155L260 154L284 154L308 156L333 157L357 159L381 160L405 161L429 162L453 163L477 163L501 164L525 165L549 166L573 167L597 168L622 169L646 170L670 171L694 173" fill="none" stroke-width="1.5"></path><g fill="#2a939b"><circle cx="44" cy="156" r="2"></circle><circle cx="68" cy="156" r="2"></circle><circle cx="92" cy="156" r="2"></circle><circle cx="116" cy="156" r="2"></circle><circle cx="140" cy="156" r="2"></circle><circle cx="164" cy="157" r="2"></circle><circle cx="188" cy="156" r="2"></circle><circle cx="212" cy="156" r="2"></circle><circle cx="236" cy="155" r="2"></circle><circle cx="260" cy="154" r="2"></circle><circle cx="284" cy="154" r="2"></circle><circle cx="308" cy="156" r="2"></circle><circle cx="333" cy="157" r="2"></circle><circle cx="357" cy="159" r="2"></circle><circle cx="381" cy="160" r="2"></circle><circle cx="405" cy="161" r="2"></circle><circle cx="429" cy="162" r="2"></circle><circle cx="453" cy="163" r="2"></circle><circle cx="477" cy="163" r="2"></circle><circle cx="501" cy="164" r="2"></circle><circle cx="525" cy="165" r="2"></circle><circle cx="549" cy="166" r="2"></circle><circle cx="573" cy="167" r="2"></circle><circle cx="597" cy="168" r="2"></circle><circle cx="622" cy="169" r="2"></circle><circle cx="646" cy="170" r="2"></circle><circle cx="670" cy="171" r="2"></circle><circle cx="694" cy="173" r="2"></circle></g></g></g></g></g><g style="fill: #777;" class="SourcesFooter"><g style="fill: #777;" class="clickable"><text font-size="12.60" x="15.0" y="581.6"><tspan x="15" y="581.58">Source: IHME, Global Burden of Disease</tspan></text></g><text font-size="12.60" x="775.4" y="581.6"><tspan x="775.402" y="581.58"><a style="fill: #777;" class="cclogo" href="http://creativecommons.org/licenses/by-sa/4.0/deed.en_US" target="_blank">CC BY-SA</a></tspan></text></g></g></svg>