<svg xmlns="http://www.w3.org/2000/svg" version="1.1" style="font-family: 'Helvetica Neue', Helvetica, Arial, sans-serif; font-size: 18px; background-color: white; text-rendering: optimizeLegibility; -webkit-font-smoothing: antialiased;" width="850" height="600"><g class="ChartTab"><g class="HeaderView"><g opacity="0.8" transform="translate(778, 15) scale(0.27)"><a xmlns:xlink="http://www.w3.org/1999/xlink" xlink:href="https://ourworldindata.org" target="_blank"><g><rect x="0" y="0" fill="#1B2543" width="211.2" height="130.1"/><rect x="0" y="112.2" fill="#E63912" width="211.2" height="17.9"/><g><rect x="1.2" y="12.3" fill="none" width="210.2" height="99.2"/><path fill="#FFFFFF" d="M37.8,32.2c0,12.7-7.7,19.4-17.1,19.4c-9.7,0-16.6-7.5-16.6-18.7c0-11.7,7.3-19.3,17.1-19.3 C31.3,13.7,37.8,21.3,37.8,32.2z M9.2,32.8c0,7.9,4.3,14.9,11.8,14.9c7.5,0,11.8-6.9,11.8-15.3c0-7.3-3.8-14.9-11.8-14.9 C13.1,17.5,9.2,24.8,9.2,32.8z"/><path fill="#FFFFFF" d="M62.7,43.8c0,2.7,0.1,5.1,0.2,7.2h-4.3l-0.3-4.3h-0.1c-1.3,2.1-4,4.9-8.8,4.9c-4.2,0-9.1-2.3-9.1-11.6 V24.6h4.8v14.6c0,5,1.5,8.4,5.9,8.4c3.2,0,5.5-2.2,6.3-4.4c0.3-0.7,0.4-1.6,0.4-2.5V24.6h4.8V43.8z"/><path fill="#FFFFFF" d="M67.3,32.8c0-3.1-0.1-5.8-0.2-8.2h4.2l0.2,5.2h0.2c1.2-3.5,4.1-5.8,7.3-5.8c0.5,0,0.9,0.1,1.4,0.2v4.5 c-0.5-0.1-1-0.2-1.6-0.2c-3.4,0-5.8,2.6-6.5,6.2c-0.1,0.7-0.2,1.4-0.2,2.2V51h-4.8V32.8z"/><path fill="#FFFFFF" d="M95.4,51l-9.4-36.8h5l4.4,18.6c1.1,4.6,2.1,9.2,2.7,12.7h0.1c0.6-3.7,1.8-8,3-12.8l4.9-18.5h5l4.5,18.7 c1,4.4,2,8.7,2.6,12.6h0.1c0.8-4,1.8-8.1,3-12.7l4.9-18.5h4.9L120.6,51h-5L111,31.9c-1.1-4.7-1.9-8.3-2.4-12h-0.1 c-0.7,3.7-1.5,7.3-2.8,12L100.4,51H95.4z"/><path fill="#FFFFFF" d="M154.9,37.6c0,9.8-6.8,14-13.2,14c-7.2,0-12.7-5.2-12.7-13.6c0-8.8,5.8-14,13.1-14 C149.8,24,154.9,29.5,154.9,37.6z M133.9,37.9c0,5.8,3.3,10.1,8,10.1c4.6,0,8-4.3,8-10.3c0-4.5-2.2-10.1-7.9-10.1 C136.3,27.6,133.9,32.8,133.9,37.9z"/><path fill="#FFFFFF" d="M158.2,32.8c0-3.1-0.1-5.8-0.2-8.2h4.2l0.2,5.2h0.2c1.2-3.5,4.1-5.8,7.3-5.8c0.5,0,0.9,0.1,1.4,0.2v4.5 c-0.5-0.1-1-0.2-1.6-0.2c-3.4,0-5.8,2.6-6.5,6.2c-0.1,0.7-0.2,1.4-0.2,2.2V51h-4.8V32.8z"/><path fill="#FFFFFF" d="M173.5,12.3h4.8V51h-4.8V12.3z"/><path fill="#FFFFFF" d="M206.5,12.3v31.9c0,2.3,0.1,5,0.2,6.8h-4.3l-0.2-4.6H202c-1.5,2.9-4.7,5.2-9,5.2 c-6.4,0-11.3-5.4-11.3-13.4c-0.1-8.8,5.4-14.2,11.9-14.2c4,0,6.8,1.9,8,4h0.1V12.3H206.5z M201.7,35.4c0-0.6-0.1-1.4-0.2-2 c-0.7-3.1-3.3-5.6-6.9-5.6c-5,0-7.9,4.4-7.9,10.2c0,5.3,2.6,9.8,7.8,9.8c3.2,0,6.2-2.1,7.1-5.7c0.2-0.7,0.2-1.3,0.2-2.1V35.4z"/><path fill="#FFFFFF" d="M42.8,64c0.1,1.6-1.1,2.9-3.1,2.9c-1.7,0-2.9-1.3-2.9-2.9c0-1.7,1.3-3,3-3C41.7,61,42.8,62.3,42.8,64z M37.4,97.8V71.4h4.8v26.4H37.4z"/><path fill="#FFFFFF" d="M47.5,78.6c0-2.7-0.1-5-0.2-7.1h4.3l0.3,4.4h0.1c1.3-2.5,4.4-5,8.8-5c3.7,0,9.4,2.2,9.4,11.2v15.8h-4.8 V82.6c0-4.3-1.6-7.8-6.1-7.8c-3.2,0-5.6,2.2-6.5,4.9c-0.2,0.6-0.3,1.4-0.3,2.2v15.9h-4.8V78.6z"/><path fill="#FFFFFF" d="M84,61.6c2.9-0.4,6.3-0.8,10.1-0.8c6.8,0,11.7,1.6,14.9,4.6c3.3,3,5.2,7.3,5.2,13.2c0,6-1.9,10.9-5.3,14.3 c-3.4,3.4-9.1,5.3-16.3,5.3c-3.4,0-6.2-0.2-8.6-0.4V61.6z M88.8,94.1c1.2,0.2,3,0.3,4.8,0.3c10.2,0,15.7-5.7,15.7-15.6 c0.1-8.7-4.9-14.2-14.9-14.2c-2.5,0-4.3,0.2-5.6,0.5V94.1z"/><path fill="#FFFFFF" d="M132.1,97.8l-0.4-3.3h-0.2c-1.5,2.1-4.3,3.9-8.1,3.9c-5.4,0-8.1-3.8-8.1-7.6c0-6.4,5.7-9.9,15.9-9.8v-0.5 c0-2.2-0.6-6.1-6-6.1c-2.5,0-5,0.8-6.9,2l-1.1-3.2c2.2-1.4,5.4-2.3,8.7-2.3c8.1,0,10.1,5.5,10.1,10.8v9.9c0,2.3,0.1,4.5,0.4,6.3 H132.1z M131.4,84.4c-5.3-0.1-11.2,0.8-11.2,5.9c0,3.1,2.1,4.6,4.5,4.6c3.4,0,5.6-2.2,6.4-4.4c0.2-0.5,0.3-1,0.3-1.5V84.4z"/><path fill="#FFFFFF" d="M146.6,63.9v7.6h6.9v3.7h-6.9v14.2c0,3.3,0.9,5.1,3.6,5.1c1.3,0,2.2-0.2,2.8-0.3l0.2,3.6 c-0.9,0.4-2.4,0.7-4.3,0.7c-2.2,0-4-0.7-5.2-2c-1.4-1.4-1.9-3.8-1.9-6.9V75.1h-4.1v-3.7h4.1v-6.3L146.6,63.9z"/><path fill="#FFFFFF" d="M171.4,97.8l-0.4-3.3h-0.2c-1.5,2.1-4.3,3.9-8.1,3.9c-5.4,0-8.1-3.8-8.1-7.6c0-6.4,5.7-9.9,15.9-9.8v-0.5 c0-2.2-0.6-6.1-6-6.1c-2.5,0-5,0.8-6.9,2l-1.1-3.2c2.2-1.4,5.4-2.3,8.7-2.3c8.1,0,10.1,5.5,10.1,10.8v9.9c0,2.3,0.1,4.5,0.4,6.3 H171.4z M170.7,84.4c-5.3-0.1-11.2,0.8-11.2,5.9c0,3.1,2.1,4.6,4.5,4.6c3.4,0,5.6-2.2,6.4-4.4c0.2-0.5,0.3-1,0.3-1.5V84.4z"/></g></g></a></g><a href="https://ourworldindata.org/grapher/prevalence-of-mental-and-substance-disorders-by-age" target="_blank"><text font-size="21.60" x="15.0" y="32.3" fill="#555"><tspan x="15" y="32.279999999999994">Prevalence of mental and substance use disorders across age groups, World</tspan></text></a><text font-size="14.40" x="15.0" y="50.1" fill="#666"><tspan x="15" y="50.11999999999999">Share of population by age groups suffering from any mental health or substance use disorders; this includes</tspan><tspan x="15" y="65.96">depression, anxiety, bipolar, eating disorders, alcohol or drug use disorders, and schizophrenia. Due to the</tspan><tspan x="15" y="81.8">widespread under-diagnosis, these estimates use a combination of sources, including medical and national records,</tspan><tspan x="15" y="97.63999999999999">epidemiological data, survey data, and meta-regression models.</tspan></text></g><g class="LineChart"><defs><clipPath id="boundsClip-99"><rect x="42.562" y="0" width="830" height="874"></rect></clipPath></defs><g class="AxisBoxView"><g class="HorizontalAxis"><text x="52.6" y="556.5" fill="#666" text-anchor="middle" font-size="16.2">1990</text><text x="171.3" y="556.5" fill="#666" text-anchor="middle" font-size="16.2">1995</text><text x="290" y="556.5" fill="#666" text-anchor="middle" font-size="16.2">2000</text><text x="408.8" y="556.5" fill="#666" text-anchor="middle" font-size="16.2">2005</text><text x="527.5" y="556.5" fill="#666" text-anchor="middle" font-size="16.2">2010</text><text x="646.3" y="556.5" fill="#666" text-anchor="middle" font-size="16.2">2015</text><text x="693.8" y="556.5" fill="#666" text-anchor="middle" font-size="16.2">2017</text></g><g class="VerticalAxis"><text x="47.56" y="535.3" fill="#666" dominant-baseline="middle" text-anchor="end" font-size="16.2">0%</text><text x="47.56" y="481.9" fill="#666" dominant-baseline="middle" text-anchor="end" font-size="16.2">2%</text><text x="47.56" y="428.4" fill="#666" dominant-baseline="middle" text-anchor="end" font-size="16.2">4%</text><text x="47.56" y="375" fill="#666" dominant-baseline="middle" text-anchor="end" font-size="16.2">6%</text><text x="47.56" y="321.5" fill="#666" dominant-baseline="middle" text-anchor="end" font-size="16.2">8%</text><text x="47.56" y="268.1" fill="#666" dominant-baseline="middle" text-anchor="end" font-size="16.2">10%</text><text x="47.56" y="214.6" fill="#666" dominant-baseline="middle" text-anchor="end" font-size="16.2">12%</text><text x="47.56" y="161.2" fill="#666" dominant-baseline="middle" text-anchor="end" font-size="16.2">14%</text></g><g class="AxisGridLines"><line x1="52.56" y1="535.3" x2="693.75" y2="535.3" stroke="#ccc"></line><line x1="52.56" y1="481.9" x2="693.75" y2="481.9" stroke="#ddd" stroke-dasharray="3,2"></line><line x1="52.56" y1="428.4" x2="693.75" y2="428.4" stroke="#ddd" stroke-dasharray="3,2"></line><line x1="52.56" y1="375" x2="693.75" y2="375" stroke="#ddd" stroke-dasharray="3,2"></line><line x1="52.56" y1="321.5" x2="693.75" y2="321.5" stroke="#ddd" stroke-dasharray="3,2"></line><line x1="52.56" y1="268.1" x2="693.75" y2="268.1" stroke="#ddd" stroke-dasharray="3,2"></line><line x1="52.56" y1="214.6" x2="693.75" y2="214.6" stroke="#ddd" stroke-dasharray="3,2"></line><line x1="52.56" y1="161.2" x2="693.75" y2="161.2" stroke="#ddd" stroke-dasharray="3,2"></line></g></g><g clip-path="url(#boundsClip-99)"><g class="HeightedLegend clickable"><g class="legendMark"><g class="indicator"><line x1="698.755" y1="126.9" x2="721.255" y2="126.9" stroke="#666" stroke-width="0.5"></line><line x1="721.255" y1="126.9" x2="721.255" y2="126.9" stroke="#666" stroke-width="0.5"></line><line x1="721.255" y1="126.9" x2="723.755" y2="126.9" stroke="#666" stroke-width="0.5"></line></g><rect x="693.755" y="120.15" width="128.42000000000002" height="13.5" fill="#fff" opacity="0"></rect><text font-size="13.50" x="728.8" y="131.0" fill="#e6332e"><tspan x="728.755" y="130.95000000000002">15-19 years old</tspan></text></g><g class="legendMark"><g class="indicator"><line x1="698.755" y1="129.8" x2="719.5883333333334" y2="129.8" stroke="#666" stroke-width="0.5"></line><line x1="719.5883333333334" y1="129.8" x2="719.5883333333334" y2="142.4" stroke="#666" stroke-width="0.5"></line><line x1="719.5883333333334" y1="142.4" x2="723.755" y2="142.4" stroke="#666" stroke-width="0.5"></line></g><rect x="693.755" y="135.65" width="128.42000000000002" height="13.5" fill="#fff" opacity="0"></rect><text font-size="13.50" x="728.8" y="146.5" fill="#7ec7ce"><tspan x="728.755" y="146.45000000000002">50-69 years old</tspan></text></g><g class="legendMark"><g class="indicator"><line x1="698.755" y1="137.6" x2="717.9216666666666" y2="137.6" stroke="#666" stroke-width="0.5"></line><line x1="717.9216666666666" y1="137.6" x2="717.9216666666666" y2="157.9" stroke="#666" stroke-width="0.5"></line><line x1="717.9216666666666" y1="157.9" x2="723.755" y2="157.9" stroke="#666" stroke-width="0.5"></line></g><rect x="693.755" y="151.15" width="128.42000000000002" height="13.5" fill="#fff" opacity="0"></rect><text font-size="13.50" x="728.8" y="162.0" fill="#b077b1"><tspan x="728.755" y="161.95000000000002">15-49 years old</tspan></text></g><g class="legendMark"><g class="indicator"><line x1="698.755" y1="141.7" x2="716.255" y2="141.7" stroke="#666" stroke-width="0.5"></line><line x1="716.255" y1="141.7" x2="716.255" y2="173.4" stroke="#666" stroke-width="0.5"></line><line x1="716.255" y1="173.4" x2="723.755" y2="173.4" stroke="#666" stroke-width="0.5"></line></g><rect x="693.755" y="166.65" width="128.42000000000002" height="13.5" fill="#fff" opacity="0"></rect><text font-size="13.50" x="728.8" y="177.5" fill="#ffd53e"><tspan x="728.755" y="177.45000000000002">30-34 years old</tspan></text></g><g class="legendMark"><g class="indicator"><line x1="698.755" y1="153.5" x2="714.5883333333334" y2="153.5" stroke="#666" stroke-width="0.5"></line><line x1="714.5883333333334" y1="153.5" x2="714.5883333333334" y2="188.9" stroke="#666" stroke-width="0.5"></line><line x1="714.5883333333334" y1="188.9" x2="723.755" y2="188.9" stroke="#666" stroke-width="0.5"></line></g><rect x="693.755" y="182.15" width="128.42000000000002" height="13.5" fill="#fff" opacity="0"></rect><text font-size="13.50" x="728.8" y="193.0" fill="#9ecc8a"><tspan x="728.755" y="192.95000000000002">25-29 years old</tspan></text></g><g class="legendMark"><g class="indicator"><line x1="698.755" y1="154.1" x2="712.9216666666666" y2="154.1" stroke="#666" stroke-width="0.5"></line><line x1="712.9216666666666" y1="154.1" x2="712.9216666666666" y2="204.4" stroke="#666" stroke-width="0.5"></line><line x1="712.9216666666666" y1="204.4" x2="723.755" y2="204.4" stroke="#666" stroke-width="0.5"></line></g><rect x="693.755" y="197.65" width="128.42000000000002" height="13.5" fill="#fff" opacity="0"></rect><text font-size="13.50" x="728.8" y="208.5" fill="#e6332e"><tspan x="728.755" y="208.45000000000002">20-24 years old</tspan></text></g><g class="legendMark"><g class="indicator"><line x1="698.755" y1="166.1" x2="711.255" y2="166.1" stroke="#666" stroke-width="0.5"></line><line x1="711.255" y1="166.1" x2="711.255" y2="219.9" stroke="#666" stroke-width="0.5"></line><line x1="711.255" y1="219.9" x2="723.755" y2="219.9" stroke="#666" stroke-width="0.5"></line></g><rect x="693.755" y="213.15" width="116.67500000000001" height="13.5" fill="#fff" opacity="0"></rect><text font-size="13.50" x="728.8" y="224.0" fill="#2a939b"><tspan x="728.755" y="223.95000000000002">70+ years old</tspan></text></g><g class="legendMark"><g class="indicator"><line x1="698.755" y1="172.7" x2="709.5883333333334" y2="172.7" stroke="#666" stroke-width="0.5"></line><line x1="709.5883333333334" y1="172.7" x2="709.5883333333334" y2="235.4" stroke="#666" stroke-width="0.5"></line><line x1="709.5883333333334" y1="235.4" x2="723.755" y2="235.4" stroke="#666" stroke-width="0.5"></line></g><rect x="693.755" y="228.65" width="128.42000000000002" height="13.5" fill="#fff" opacity="0"></rect><text font-size="13.50" x="728.8" y="239.5" fill="#f6a324"><tspan x="728.755" y="239.45000000000002">10-14 years old</tspan></text></g><g class="legendMark"><g class="indicator"><line x1="698.755" y1="172.7" x2="707.9216666666666" y2="172.7" stroke="#666" stroke-width="0.5"></line><line x1="707.9216666666666" y1="172.7" x2="707.9216666666666" y2="250.9" stroke="#666" stroke-width="0.5"></line><line x1="707.9216666666666" y1="250.9" x2="723.755" y2="250.9" stroke="#666" stroke-width="0.5"></line></g><rect x="693.755" y="244.15" width="128.42000000000002" height="13.5" fill="#fff" opacity="0"></rect><text font-size="13.50" x="728.8" y="254.9" fill="#a652ba"><tspan x="728.755" y="254.95">10-14 years old</tspan></text></g><g class="legendMark"><g class="indicator"><line x1="698.755" y1="183.3" x2="706.255" y2="183.3" stroke="#666" stroke-width="0.5"></line><line x1="706.255" y1="183.3" x2="706.255" y2="266.4" stroke="#666" stroke-width="0.5"></line><line x1="706.255" y1="266.4" x2="723.755" y2="266.4" stroke="#666" stroke-width="0.5"></line></g><rect x="693.755" y="259.65" width="83.195" height="13.5" fill="#fff" opacity="0"></rect><text font-size="13.50" x="728.8" y="270.4" fill="#34983f"><tspan x="728.755" y="270.45">All ages</tspan></text></g><g class="legendMark"><g class="indicator"><line x1="698.755" y1="189.5" x2="704.5883333333334" y2="189.5" stroke="#666" stroke-width="0.5"></line><line x1="704.5883333333334" y1="189.5" x2="704.5883333333334" y2="281.9" stroke="#666" stroke-width="0.5"></line><line x1="704.5883333333334" y1="281.9" x2="723.755" y2="281.9" stroke="#666" stroke-width="0.5"></line></g><rect x="693.755" y="275.15" width="141.245" height="13.5" fill="#fff" opacity="0"></rect><text font-size="13.50" x="728.8" y="285.9" fill="#ca2628"><tspan x="728.755" y="285.95">Age-standardized</tspan></text></g><g class="legendMark"><g class="indicator"><line x1="698.755" y1="258.8" x2="702.9216666666666" y2="258.8" stroke="#666" stroke-width="0.5"></line><line x1="702.9216666666666" y1="258.8" x2="702.9216666666666" y2="297.4" stroke="#666" stroke-width="0.5"></line><line x1="702.9216666666666" y1="297.4" x2="723.755" y2="297.4" stroke="#666" stroke-width="0.5"></line></g><rect x="693.755" y="290.65" width="120.86" height="13.5" fill="#fff" opacity="0"></rect><text font-size="13.50" x="728.8" y="301.4" fill="#3360a9"><tspan x="728.755" y="301.45">5-14 years old</tspan></text></g></g><g class="Lines"><rect x="53" y="120" width="641" height="416" fill="rgba(255,255,255,0)" opacity="0"></rect><g class="key-World_0"><path stroke="#f6a324" stroke-linecap="round" d="M53 175L76 175L100 175L124 175L148 175L171 175L195 175L219 175L243 175L266 175L290 175L314 175L338 174L361 173L385 172L409 172L433 172L456 172L480 172L504 172L528 172L551 172L575 172L599 172L623 173L646 173L670 173L694 173" fill="none" stroke-width="1.5"></path><g fill="#f6a324"><circle cx="53" cy="175" r="2"></circle><circle cx="76" cy="175" r="2"></circle><circle cx="100" cy="175" r="2"></circle><circle cx="124" cy="175" r="2"></circle><circle cx="148" cy="175" r="2"></circle><circle cx="171" cy="175" r="2"></circle><circle cx="195" cy="175" r="2"></circle><circle cx="219" cy="175" r="2"></circle><circle cx="243" cy="175" r="2"></circle><circle cx="266" cy="175" r="2"></circle><circle cx="290" cy="175" r="2"></circle><circle cx="314" cy="175" r="2"></circle><circle cx="338" cy="174" r="2"></circle><circle cx="361" cy="173" r="2"></circle><circle cx="385" cy="172" r="2"></circle><circle cx="409" cy="172" r="2"></circle><circle cx="433" cy="172" r="2"></circle><circle cx="456" cy="172" r="2"></circle><circle cx="480" cy="172" r="2"></circle><circle cx="504" cy="172" r="2"></circle><circle cx="528" cy="172" r="2"></circle><circle cx="551" cy="172" r="2"></circle><circle cx="575" cy="172" r="2"></circle><circle cx="599" cy="172" r="2"></circle><circle cx="623" cy="173" r="2"></circle><circle cx="646" cy="173" r="2"></circle><circle cx="670" cy="173" r="2"></circle><circle cx="694" cy="173" r="2"></circle></g></g><g class="key-World_1"><path stroke="#9ecc8a" stroke-linecap="round" d="M53 141L76 142L100 143L124 144L148 145L171 146L195 146L219 146L243 146L266 146L290 146L314 146L338 146L361 145L385 145L409 145L433 145L456 146L480 147L504 148L528 149L551 151L575 152L599 153L623 154L646 154L670 154L694 154" fill="none" stroke-width="1.5"></path><g fill="#9ecc8a"><circle cx="53" cy="141" r="2"></circle><circle cx="76" cy="142" r="2"></circle><circle cx="100" cy="143" r="2"></circle><circle cx="124" cy="144" r="2"></circle><circle cx="148" cy="145" r="2"></circle><circle cx="171" cy="146" r="2"></circle><circle cx="195" cy="146" r="2"></circle><circle cx="219" cy="146" r="2"></circle><circle cx="243" cy="146" r="2"></circle><circle cx="266" cy="146" r="2"></circle><circle cx="290" cy="146" r="2"></circle><circle cx="314" cy="146" r="2"></circle><circle cx="338" cy="146" r="2"></circle><circle cx="361" cy="145" r="2"></circle><circle cx="385" cy="145" r="2"></circle><circle cx="409" cy="145" r="2"></circle><circle cx="433" cy="145" r="2"></circle><circle cx="456" cy="146" r="2"></circle><circle cx="480" cy="147" r="2"></circle><circle cx="504" cy="148" r="2"></circle><circle cx="528" cy="149" r="2"></circle><circle cx="551" cy="151" r="2"></circle><circle cx="575" cy="152" r="2"></circle><circle cx="599" cy="153" r="2"></circle><circle cx="623" cy="154" r="2"></circle><circle cx="646" cy="154" r="2"></circle><circle cx="670" cy="154" r="2"></circle><circle cx="694" cy="154" r="2"></circle></g></g><g class="key-World_10"><path stroke="#7ec7ce" stroke-linecap="round" d="M53 124L76 123L100 123L124 122L148 122L171 122L195 121L219 121L243 120L266 120L290 120L314 120L338 120L361 121L385 121L409 122L433 122L456 123L480 124L504 125L528 125L551 126L575 126L599 127L623 127L646 128L670 129L694 130" fill="none" stroke-width="1.5"></path><g fill="#7ec7ce"><circle cx="53" cy="124" r="2"></circle><circle cx="76" cy="123" r="2"></circle><circle cx="100" cy="123" r="2"></circle><circle cx="124" cy="122" r="2"></circle><circle cx="148" cy="122" r="2"></circle><circle cx="171" cy="122" r="2"></circle><circle cx="195" cy="121" r="2"></circle><circle cx="219" cy="121" r="2"></circle><circle cx="243" cy="120" r="2"></circle><circle cx="266" cy="120" r="2"></circle><circle cx="290" cy="120" r="2"></circle><circle cx="314" cy="120" r="2"></circle><circle cx="338" cy="120" r="2"></circle><circle cx="361" cy="121" r="2"></circle><circle cx="385" cy="121" r="2"></circle><circle cx="409" cy="122" r="2"></circle><circle cx="433" cy="122" r="2"></circle><circle cx="456" cy="123" r="2"></circle><circle cx="480" cy="124" r="2"></circle><circle cx="504" cy="125" r="2"></circle><circle cx="528" cy="125" r="2"></circle><circle cx="551" cy="126" r="2"></circle><circle cx="575" cy="126" r="2"></circle><circle cx="599" cy="127" r="2"></circle><circle cx="623" cy="127" r="2"></circle><circle cx="646" cy="128" r="2"></circle><circle cx="670" cy="129" r="2"></circle><circle cx="694" cy="130" r="2"></circle></g></g><g class="key-World_11"><path stroke="#ca2628" stroke-linecap="round" d="M53 184L76 184L100 184L124 184L148 184L171 184L195 184L219 184L243 184L266 183L290 183L314 184L338 184L361 184L385 184L409 184L433 185L456 185L480 186L504 187L528 188L551 188L575 188L599 188L623 189L646 189L670 189L694 190" fill="none" stroke-width="1.5"></path><g fill="#ca2628"><circle cx="53" cy="184" r="2"></circle><circle cx="76" cy="184" r="2"></circle><circle cx="100" cy="184" r="2"></circle><circle cx="124" cy="184" r="2"></circle><circle cx="148" cy="184" r="2"></circle><circle cx="171" cy="184" r="2"></circle><circle cx="195" cy="184" r="2"></circle><circle cx="219" cy="184" r="2"></circle><circle cx="243" cy="184" r="2"></circle><circle cx="266" cy="183" r="2"></circle><circle cx="290" cy="183" r="2"></circle><circle cx="314" cy="184" r="2"></circle><circle cx="338" cy="184" r="2"></circle><circle cx="361" cy="184" r="2"></circle><circle cx="385" cy="184" r="2"></circle><circle cx="409" cy="184" r="2"></circle><circle cx="433" cy="185" r="2"></circle><circle cx="456" cy="185" r="2"></circle><circle cx="480" cy="186" r="2"></circle><circle cx="504" cy="187" r="2"></circle><circle cx="528" cy="188" r="2"></circle><circle cx="551" cy="188" r="2"></circle><circle cx="575" cy="188" r="2"></circle><circle cx="599" cy="188" r="2"></circle><circle cx="623" cy="189" r="2"></circle><circle cx="646" cy="189" r="2"></circle><circle cx="670" cy="189" r="2"></circle><circle cx="694" cy="190" r="2"></circle></g></g><g class="key-World_2"><path stroke="#e6332e" stroke-linecap="round" d="M53 147L76 147L100 147L124 147L148 147L171 147L195 147L219 147L243 147L266 147L290 147L314 147L338 147L361 147L385 147L409 148L433 150L456 152L480 154L504 156L528 156L551 157L575 156L599 156L623 155L646 155L670 154L694 154" fill="none" stroke-width="1.5"></path><g fill="#e6332e"><circle cx="53" cy="147" r="2"></circle><circle cx="76" cy="147" r="2"></circle><circle cx="100" cy="147" r="2"></circle><circle cx="124" cy="147" r="2"></circle><circle cx="148" cy="147" r="2"></circle><circle cx="171" cy="147" r="2"></circle><circle cx="195" cy="147" r="2"></circle><circle cx="219" cy="147" r="2"></circle><circle cx="243" cy="147" r="2"></circle><circle cx="266" cy="147" r="2"></circle><circle cx="290" cy="147" r="2"></circle><circle cx="314" cy="147" r="2"></circle><circle cx="338" cy="147" r="2"></circle><circle cx="361" cy="147" r="2"></circle><circle cx="385" cy="147" r="2"></circle><circle cx="409" cy="148" r="2"></circle><circle cx="433" cy="150" r="2"></circle><circle cx="456" cy="152" r="2"></circle><circle cx="480" cy="154" r="2"></circle><circle cx="504" cy="156" r="2"></circle><circle cx="528" cy="156" r="2"></circle><circle cx="551" cy="157" r="2"></circle><circle cx="575" cy="156" r="2"></circle><circle cx="599" cy="156" r="2"></circle><circle cx="623" cy="155" r="2"></circle><circle cx="646" cy="155" r="2"></circle><circle cx="670" cy="154" r="2"></circle><circle cx="694" cy="154" r="2"></circle></g></g><g class="key-World_3"><path stroke="#ffd53e" stroke-linecap="round" d="M53 129L76 129L100 129L124 130L148 132L171 133L195 135L219 136L243 136L266 137L290 137L314 137L338 137L361 137L385 137L409 137L433 137L456 138L480 138L504 139L528 139L551 139L575 138L599 139L623 139L646 140L670 141L694 142" fill="none" stroke-width="1.5"></path><g fill="#ffd53e"><circle cx="53" cy="129" r="2"></circle><circle cx="76" cy="129" r="2"></circle><circle cx="100" cy="129" r="2"></circle><circle cx="124" cy="130" r="2"></circle><circle cx="148" cy="132" r="2"></circle><circle cx="171" cy="133" r="2"></circle><circle cx="195" cy="135" r="2"></circle><circle cx="219" cy="136" r="2"></circle><circle cx="243" cy="136" r="2"></circle><circle cx="266" cy="137" r="2"></circle><circle cx="290" cy="137" r="2"></circle><circle cx="314" cy="137" r="2"></circle><circle cx="338" cy="137" r="2"></circle><circle cx="361" cy="137" r="2"></circle><circle cx="385" cy="137" r="2"></circle><circle cx="409" cy="137" r="2"></circle><circle cx="433" cy="137" r="2"></circle><circle cx="456" cy="138" r="2"></circle><circle cx="480" cy="138" r="2"></circle><circle cx="504" cy="139" r="2"></circle><circle cx="528" cy="139" r="2"></circle><circle cx="551" cy="139" r="2"></circle><circle cx="575" cy="138" r="2"></circle><circle cx="599" cy="139" r="2"></circle><circle cx="623" cy="139" r="2"></circle><circle cx="646" cy="140" r="2"></circle><circle cx="670" cy="141" r="2"></circle><circle cx="694" cy="142" r="2"></circle></g></g><g class="key-World_4"><path stroke="#a652ba" stroke-linecap="round" d="M53 175L76 175L100 175L124 175L148 175L171 175L195 175L219 175L243 175L266 175L290 175L314 175L338 174L361 173L385 172L409 172L433 172L456 172L480 172L504 172L528 172L551 172L575 172L599 172L623 173L646 173L670 173L694 173" fill="none" stroke-width="1.5"></path><g fill="#a652ba"><circle cx="53" cy="175" r="2"></circle><circle cx="76" cy="175" r="2"></circle><circle cx="100" cy="175" r="2"></circle><circle cx="124" cy="175" r="2"></circle><circle cx="148" cy="175" r="2"></circle><circle cx="171" cy="175" r="2"></circle><circle cx="195" cy="175" r="2"></circle><circle cx="219" cy="175" r="2"></circle><circle cx="243" cy="175" r="2"></circle><circle cx="266" cy="175" r="2"></circle><circle cx="290" cy="175" r="2"></circle><circle cx="314" cy="175" r="2"></circle><circle cx="338" cy="174" r="2"></circle><circle cx="361" cy="173" r="2"></circle><circle cx="385" cy="172" r="2"></circle><circle cx="409" cy="172" r="2"></circle><circle cx="433" cy="172" r="2"></circle><circle cx="456" cy="172" r="2"></circle><circle cx="480" cy="172" r="2"></circle><circle cx="504" cy="172" r="2"></circle><circle cx="528" cy="172" r="2"></circle><circle cx="551" cy="172" r="2"></circle><circle cx="575" cy="172" r="2"></circle><circle cx="599" cy="172" r="2"></circle><circle cx="623" cy="173" r="2"></circle><circle cx="646" cy="173" r="2"></circle><circle cx="670" cy="173" r="2"></circle><circle cx="694" cy="173" r="2"></circle></g></g><g class="key-World_5"><path stroke="#34983f" stroke-linecap="round" d="M53 192L76 191L100 191L124 190L148 189L171 189L195 188L219 187L243 186L266 185L290 184L314 183L338 183L361 182L385 182L409 182L433 182L456 182L480 183L504 183L528 183L551 183L575 183L599 183L623 183L646 183L670 183L694 183" fill="none" stroke-width="1.5"></path><g fill="#34983f"><circle cx="53" cy="192" r="2"></circle><circle cx="76" cy="191" r="2"></circle><circle cx="100" cy="191" r="2"></circle><circle cx="124" cy="190" r="2"></circle><circle cx="148" cy="189" r="2"></circle><circle cx="171" cy="189" r="2"></circle><circle cx="195" cy="188" r="2"></circle><circle cx="219" cy="187" r="2"></circle><circle cx="243" cy="186" r="2"></circle><circle cx="266" cy="185" r="2"></circle><circle cx="290" cy="184" r="2"></circle><circle cx="314" cy="183" r="2"></circle><circle cx="338" cy="183" r="2"></circle><circle cx="361" cy="182" r="2"></circle><circle cx="385" cy="182" r="2"></circle><circle cx="409" cy="182" r="2"></circle><circle cx="433" cy="182" r="2"></circle><circle cx="456" cy="182" r="2"></circle><circle cx="480" cy="183" r="2"></circle><circle cx="504" cy="183" r="2"></circle><circle cx="528" cy="183" r="2"></circle><circle cx="551" cy="183" r="2"></circle><circle cx="575" cy="183" r="2"></circle><circle cx="599" cy="183" r="2"></circle><circle cx="623" cy="183" r="2"></circle><circle cx="646" cy="183" r="2"></circle><circle cx="670" cy="183" r="2"></circle><circle cx="694" cy="183" r="2"></circle></g></g><g class="key-World_6"><path stroke="#e6332e" stroke-linecap="round" d="M53 129L76 128L100 128L124 127L148 127L171 127L195 126L219 126L243 126L266 126L290 126L314 127L338 128L361 128L385 129L409 129L433 129L456 128L480 128L504 128L528 128L551 128L575 127L599 127L623 127L646 127L670 127L694 127" fill="none" stroke-width="1.5"></path><g fill="#e6332e"><circle cx="53" cy="129" r="2"></circle><circle cx="76" cy="128" r="2"></circle><circle cx="100" cy="128" r="2"></circle><circle cx="124" cy="127" r="2"></circle><circle cx="148" cy="127" r="2"></circle><circle cx="171" cy="127" r="2"></circle><circle cx="195" cy="126" r="2"></circle><circle cx="219" cy="126" r="2"></circle><circle cx="243" cy="126" r="2"></circle><circle cx="266" cy="126" r="2"></circle><circle cx="290" cy="126" r="2"></circle><circle cx="314" cy="127" r="2"></circle><circle cx="338" cy="128" r="2"></circle><circle cx="361" cy="128" r="2"></circle><circle cx="385" cy="129" r="2"></circle><circle cx="409" cy="129" r="2"></circle><circle cx="433" cy="129" r="2"></circle><circle cx="456" cy="128" r="2"></circle><circle cx="480" cy="128" r="2"></circle><circle cx="504" cy="128" r="2"></circle><circle cx="528" cy="128" r="2"></circle><circle cx="551" cy="128" r="2"></circle><circle cx="575" cy="127" r="2"></circle><circle cx="599" cy="127" r="2"></circle><circle cx="623" cy="127" r="2"></circle><circle cx="646" cy="127" r="2"></circle><circle cx="670" cy="127" r="2"></circle><circle cx="694" cy="127" r="2"></circle></g></g><g class="key-World_7"><path stroke="#2a939b" stroke-linecap="round" d="M53 158L76 157L100 157L124 157L148 156L171 157L195 157L219 157L243 156L266 156L290 157L314 157L338 158L361 158L385 159L409 159L433 160L456 160L480 160L504 160L528 161L551 161L575 162L599 162L623 163L646 164L670 165L694 166" fill="none" stroke-width="1.5"></path><g fill="#2a939b"><circle cx="53" cy="158" r="2"></circle><circle cx="76" cy="157" r="2"></circle><circle cx="100" cy="157" r="2"></circle><circle cx="124" cy="157" r="2"></circle><circle cx="148" cy="156" r="2"></circle><circle cx="171" cy="157" r="2"></circle><circle cx="195" cy="157" r="2"></circle><circle cx="219" cy="157" r="2"></circle><circle cx="243" cy="156" r="2"></circle><circle cx="266" cy="156" r="2"></circle><circle cx="290" cy="157" r="2"></circle><circle cx="314" cy="157" r="2"></circle><circle cx="338" cy="158" r="2"></circle><circle cx="361" cy="158" r="2"></circle><circle cx="385" cy="159" r="2"></circle><circle cx="409" cy="159" r="2"></circle><circle cx="433" cy="160" r="2"></circle><circle cx="456" cy="160" r="2"></circle><circle cx="480" cy="160" r="2"></circle><circle cx="504" cy="160" r="2"></circle><circle cx="528" cy="161" r="2"></circle><circle cx="551" cy="161" r="2"></circle><circle cx="575" cy="162" r="2"></circle><circle cx="599" cy="162" r="2"></circle><circle cx="623" cy="163" r="2"></circle><circle cx="646" cy="164" r="2"></circle><circle cx="670" cy="165" r="2"></circle><circle cx="694" cy="166" r="2"></circle></g></g><g class="key-World_8"><path stroke="#b077b1" stroke-linecap="round" d="M53 130L76 130L100 130L124 131L148 131L171 131L195 131L219 131L243 131L266 131L290 131L314 131L338 132L361 132L385 132L409 132L433 133L456 134L480 135L504 136L528 137L551 137L575 137L599 138L623 138L646 138L670 138L694 138" fill="none" stroke-width="1.5"></path><g fill="#b077b1"><circle cx="53" cy="130" r="2"></circle><circle cx="76" cy="130" r="2"></circle><circle cx="100" cy="130" r="2"></circle><circle cx="124" cy="131" r="2"></circle><circle cx="148" cy="131" r="2"></circle><circle cx="171" cy="131" r="2"></circle><circle cx="195" cy="131" r="2"></circle><circle cx="219" cy="131" r="2"></circle><circle cx="243" cy="131" r="2"></circle><circle cx="266" cy="131" r="2"></circle><circle cx="290" cy="131" r="2"></circle><circle cx="314" cy="131" r="2"></circle><circle cx="338" cy="132" r="2"></circle><circle cx="361" cy="132" r="2"></circle><circle cx="385" cy="132" r="2"></circle><circle cx="409" cy="132" r="2"></circle><circle cx="433" cy="133" r="2"></circle><circle cx="456" cy="134" r="2"></circle><circle cx="480" cy="135" r="2"></circle><circle cx="504" cy="136" r="2"></circle><circle cx="528" cy="137" r="2"></circle><circle cx="551" cy="137" r="2"></circle><circle cx="575" cy="137" r="2"></circle><circle cx="599" cy="138" r="2"></circle><circle cx="623" cy="138" r="2"></circle><circle cx="646" cy="138" r="2"></circle><circle cx="670" cy="138" r="2"></circle><circle cx="694" cy="138" r="2"></circle></g></g><g class="key-World_9"><path stroke="#3360a9" stroke-linecap="round" d="M53 259L76 260L100 260L124 260L148 260L171 259L195 259L219 257L243 256L266 256L290 255L314 254L338 254L361 253L385 253L409 253L433 254L456 254L480 255L504 255L528 256L551 256L575 257L599 257L623 258L646 258L670 259L694 259" fill="none" stroke-width="1.5"></path><g fill="#3360a9"><circle cx="53" cy="259" r="2"></circle><circle cx="76" cy="260" r="2"></circle><circle cx="100" cy="260" r="2"></circle><circle cx="124" cy="260" r="2"></circle><circle cx="148" cy="260" r="2"></circle><circle cx="171" cy="259" r="2"></circle><circle cx="195" cy="259" r="2"></circle><circle cx="219" cy="257" r="2"></circle><circle cx="243" cy="256" r="2"></circle><circle cx="266" cy="256" r="2"></circle><circle cx="290" cy="255" r="2"></circle><circle cx="314" cy="254" r="2"></circle><circle cx="338" cy="254" r="2"></circle><circle cx="361" cy="253" r="2"></circle><circle cx="385" cy="253" r="2"></circle><circle cx="409" cy="253" r="2"></circle><circle cx="433" cy="254" r="2"></circle><circle cx="456" cy="254" r="2"></circle><circle cx="480" cy="255" r="2"></circle><circle cx="504" cy="255" r="2"></circle><circle cx="528" cy="256" r="2"></circle><circle cx="551" cy="256" r="2"></circle><circle cx="575" cy="257" r="2"></circle><circle cx="599" cy="257" r="2"></circle><circle cx="623" cy="258" r="2"></circle><circle cx="646" cy="258" r="2"></circle><circle cx="670" cy="259" r="2"></circle><circle cx="694" cy="259" r="2"></circle></g></g></g></g></g><g style="fill: #777;" class="SourcesFooter"><g style="fill: #777;" class="clickable"><text font-size="12.60" x="15.0" y="581.6"><tspan x="15" y="581.58">Source: IHME, Global Burden of Disease</tspan></text></g><text font-size="12.60" x="775.4" y="581.6"><tspan x="775.402" y="581.58"><a style="fill: #777;" class="cclogo" href="http://creativecommons.org/licenses/by-sa/4.0/deed.en_US" target="_blank">CC BY-SA</a></tspan></text></g></g></svg>