<svg xmlns="http://www.w3.org/2000/svg" version="1.1" style="font-family: 'Helvetica Neue', Helvetica, Arial, sans-serif; font-size: 18px; background-color: white; text-rendering: optimizeLegibility; -webkit-font-smoothing: antialiased;" width="850" height="600"><g class="ChartTab"><g class="HeaderView"><g opacity="0.8" transform="translate(778, 15) scale(0.27)"><a xmlns:xlink="http://www.w3.org/1999/xlink" xlink:href="https://ourworldindata.org" target="_blank"><g><rect x="0" y="0" fill="#1B2543" width="211.2" height="130.1"/><rect x="0" y="112.2" fill="#E63912" width="211.2" height="17.9"/><g><rect x="1.2" y="12.3" fill="none" width="210.2" height="99.2"/><path fill="#FFFFFF" d="M37.8,32.2c0,12.7-7.7,19.4-17.1,19.4c-9.7,0-16.6-7.5-16.6-18.7c0-11.7,7.3-19.3,17.1-19.3 C31.3,13.7,37.8,21.3,37.8,32.2z M9.2,32.8c0,7.9,4.3,14.9,11.8,14.9c7.5,0,11.8-6.9,11.8-15.3c0-7.3-3.8-14.9-11.8-14.9 C13.1,17.5,9.2,24.8,9.2,32.8z"/><path fill="#FFFFFF" d="M62.7,43.8c0,2.7,0.1,5.1,0.2,7.2h-4.3l-0.3-4.3h-0.1c-1.3,2.1-4,4.9-8.8,4.9c-4.2,0-9.1-2.3-9.1-11.6 V24.6h4.8v14.6c0,5,1.5,8.4,5.9,8.4c3.2,0,5.5-2.2,6.3-4.4c0.3-0.7,0.4-1.6,0.4-2.5V24.6h4.8V43.8z"/><path fill="#FFFFFF" d="M67.3,32.8c0-3.1-0.1-5.8-0.2-8.2h4.2l0.2,5.2h0.2c1.2-3.5,4.1-5.8,7.3-5.8c0.5,0,0.9,0.1,1.4,0.2v4.5 c-0.5-0.1-1-0.2-1.6-0.2c-3.4,0-5.8,2.6-6.5,6.2c-0.1,0.7-0.2,1.4-0.2,2.2V51h-4.8V32.8z"/><path fill="#FFFFFF" d="M95.4,51l-9.4-36.8h5l4.4,18.6c1.1,4.6,2.1,9.2,2.7,12.7h0.1c0.6-3.7,1.8-8,3-12.8l4.9-18.5h5l4.5,18.7 c1,4.4,2,8.7,2.6,12.6h0.1c0.8-4,1.8-8.1,3-12.7l4.9-18.5h4.9L120.6,51h-5L111,31.9c-1.1-4.7-1.9-8.3-2.4-12h-0.1 c-0.7,3.7-1.5,7.3-2.8,12L100.4,51H95.4z"/><path fill="#FFFFFF" d="M154.9,37.6c0,9.8-6.8,14-13.2,14c-7.2,0-12.7-5.2-12.7-13.6c0-8.8,5.8-14,13.1-14 C149.8,24,154.9,29.5,154.9,37.6z M133.9,37.9c0,5.8,3.3,10.1,8,10.1c4.6,0,8-4.3,8-10.3c0-4.5-2.2-10.1-7.9-10.1 C136.3,27.6,133.9,32.8,133.9,37.9z"/><path fill="#FFFFFF" d="M158.2,32.8c0-3.1-0.1-5.8-0.2-8.2h4.2l0.2,5.2h0.2c1.2-3.5,4.1-5.8,7.3-5.8c0.5,0,0.9,0.1,1.4,0.2v4.5 c-0.5-0.1-1-0.2-1.6-0.2c-3.4,0-5.8,2.6-6.5,6.2c-0.1,0.7-0.2,1.4-0.2,2.2V51h-4.8V32.8z"/><path fill="#FFFFFF" d="M173.5,12.3h4.8V51h-4.8V12.3z"/><path fill="#FFFFFF" d="M206.5,12.3v31.9c0,2.3,0.1,5,0.2,6.8h-4.3l-0.2-4.6H202c-1.5,2.9-4.7,5.2-9,5.2 c-6.4,0-11.3-5.4-11.3-13.4c-0.1-8.8,5.4-14.2,11.9-14.2c4,0,6.8,1.9,8,4h0.1V12.3H206.5z M201.7,35.4c0-0.6-0.1-1.4-0.2-2 c-0.7-3.1-3.3-5.6-6.9-5.6c-5,0-7.9,4.4-7.9,10.2c0,5.3,2.6,9.8,7.8,9.8c3.2,0,6.2-2.1,7.1-5.7c0.2-0.7,0.2-1.3,0.2-2.1V35.4z"/><path fill="#FFFFFF" d="M42.8,64c0.1,1.6-1.1,2.9-3.1,2.9c-1.7,0-2.9-1.3-2.9-2.9c0-1.7,1.3-3,3-3C41.7,61,42.8,62.3,42.8,64z M37.4,97.8V71.4h4.8v26.4H37.4z"/><path fill="#FFFFFF" d="M47.5,78.6c0-2.7-0.1-5-0.2-7.1h4.3l0.3,4.4h0.1c1.3-2.5,4.4-5,8.8-5c3.7,0,9.4,2.2,9.4,11.2v15.8h-4.8 V82.6c0-4.3-1.6-7.8-6.1-7.8c-3.2,0-5.6,2.2-6.5,4.9c-0.2,0.6-0.3,1.4-0.3,2.2v15.9h-4.8V78.6z"/><path fill="#FFFFFF" d="M84,61.6c2.9-0.4,6.3-0.8,10.1-0.8c6.8,0,11.7,1.6,14.9,4.6c3.3,3,5.2,7.3,5.2,13.2c0,6-1.9,10.9-5.3,14.3 c-3.4,3.4-9.1,5.3-16.3,5.3c-3.4,0-6.2-0.2-8.6-0.4V61.6z M88.8,94.1c1.2,0.2,3,0.3,4.8,0.3c10.2,0,15.7-5.7,15.7-15.6 c0.1-8.7-4.9-14.2-14.9-14.2c-2.5,0-4.3,0.2-5.6,0.5V94.1z"/><path fill="#FFFFFF" d="M132.1,97.8l-0.4-3.3h-0.2c-1.5,2.1-4.3,3.9-8.1,3.9c-5.4,0-8.1-3.8-8.1-7.6c0-6.4,5.7-9.9,15.9-9.8v-0.5 c0-2.2-0.6-6.1-6-6.1c-2.5,0-5,0.8-6.9,2l-1.1-3.2c2.2-1.4,5.4-2.3,8.7-2.3c8.1,0,10.1,5.5,10.1,10.8v9.9c0,2.3,0.1,4.5,0.4,6.3 H132.1z M131.4,84.4c-5.3-0.1-11.2,0.8-11.2,5.9c0,3.1,2.1,4.6,4.5,4.6c3.4,0,5.6-2.2,6.4-4.4c0.2-0.5,0.3-1,0.3-1.5V84.4z"/><path fill="#FFFFFF" d="M146.6,63.9v7.6h6.9v3.7h-6.9v14.2c0,3.3,0.9,5.1,3.6,5.1c1.3,0,2.2-0.2,2.8-0.3l0.2,3.6 c-0.9,0.4-2.4,0.7-4.3,0.7c-2.2,0-4-0.7-5.2-2c-1.4-1.4-1.9-3.8-1.9-6.9V75.1h-4.1v-3.7h4.1v-6.3L146.6,63.9z"/><path fill="#FFFFFF" d="M171.4,97.8l-0.4-3.3h-0.2c-1.5,2.1-4.3,3.9-8.1,3.9c-5.4,0-8.1-3.8-8.1-7.6c0-6.4,5.7-9.9,15.9-9.8v-0.5 c0-2.2-0.6-6.1-6-6.1c-2.5,0-5,0.8-6.9,2l-1.1-3.2c2.2-1.4,5.4-2.3,8.7-2.3c8.1,0,10.1,5.5,10.1,10.8v9.9c0,2.3,0.1,4.5,0.4,6.3 H171.4z M170.7,84.4c-5.3-0.1-11.2,0.8-11.2,5.9c0,3.1,2.1,4.6,4.5,4.6c3.4,0,5.6-2.2,6.4-4.4c0.2-0.5,0.3-1,0.3-1.5V84.4z"/></g></g></a></g><a href="https://ourworldindata.org/grapher/prevalence-of-drug-use-disorders-by-age" target="_blank"><text font-size="25.20" x="15.0" y="35.2" fill="#555"><tspan x="15" y="35.160000000000004">Prevalence of drug use disorders by age, World</tspan></text></a><text font-size="14.40" x="15.0" y="53.7" fill="#666"><tspan x="15" y="53.72">Share of population within each category suffering from drug use disorders. Drug dependence is defined by the</tspan><tspan x="15" y="69.56">International Classification of Diseases as the presence of three or more indicators of dependence for at least a</tspan><tspan x="15" y="85.4">month within the previous year. Drug dependency includes all illicit drugs.</tspan></text></g><g class="LineChart"><defs><clipPath id="boundsClip-97"><rect x="47.098" y="0" width="830" height="897.8"></rect></clipPath></defs><g class="AxisBoxView"><g class="HorizontalAxis"><text x="57.1" y="556.5" fill="#666" text-anchor="middle" font-size="16.2">1990</text><text x="175" y="556.5" fill="#666" text-anchor="middle" font-size="16.2">1995</text><text x="292.9" y="556.5" fill="#666" text-anchor="middle" font-size="16.2">2000</text><text x="410.8" y="556.5" fill="#666" text-anchor="middle" font-size="16.2">2005</text><text x="528.7" y="556.5" fill="#666" text-anchor="middle" font-size="16.2">2010</text><text x="646.6" y="556.5" fill="#666" text-anchor="middle" font-size="16.2">2015</text><text x="693.8" y="556.5" fill="#666" text-anchor="middle" font-size="16.2">2017</text></g><g class="VerticalAxis"><text x="52.10" y="535.3" fill="#666" dominant-baseline="middle" text-anchor="end" font-size="16.2">0%</text><text x="52.10" y="442.5" fill="#666" dominant-baseline="middle" text-anchor="end" font-size="16.2">0.5%</text><text x="52.10" y="349.6" fill="#666" dominant-baseline="middle" text-anchor="end" font-size="16.2">1%</text><text x="52.10" y="256.8" fill="#666" dominant-baseline="middle" text-anchor="end" font-size="16.2">1.5%</text><text x="52.10" y="164" fill="#666" dominant-baseline="middle" text-anchor="end" font-size="16.2">2%</text></g><g class="AxisGridLines"><line x1="57.10" y1="535.3" x2="693.75" y2="535.3" stroke="#ccc"></line><line x1="57.10" y1="442.5" x2="693.75" y2="442.5" stroke="#ddd" stroke-dasharray="3,2"></line><line x1="57.10" y1="349.6" x2="693.75" y2="349.6" stroke="#ddd" stroke-dasharray="3,2"></line><line x1="57.10" y1="256.8" x2="693.75" y2="256.8" stroke="#ddd" stroke-dasharray="3,2"></line><line x1="57.10" y1="164" x2="693.75" y2="164" stroke="#ddd" stroke-dasharray="3,2"></line></g></g><g clip-path="url(#boundsClip-97)"><g class="HeightedLegend clickable"><g class="legendMark"><g class="indicator"><line x1="698.755" y1="528.3" x2="721.255" y2="528.3" stroke="#666" stroke-width="0.5"></line><line x1="721.255" y1="528.3" x2="721.255" y2="528.3" stroke="#666" stroke-width="0.5"></line><line x1="721.255" y1="528.3" x2="723.755" y2="528.3" stroke="#666" stroke-width="0.5"></line></g><rect x="693.755" y="521.55" width="120.86" height="13.5" fill="#fff" opacity="0"></rect><text font-size="13.50" x="728.8" y="532.3" fill="#3360a9"><tspan x="728.755" y="532.3499999999999">5-14 years old</tspan></text></g><g class="legendMark"><g class="indicator"><line x1="698.755" y1="525.2" x2="711.255" y2="525.2" stroke="#666" stroke-width="0.5"></line><line x1="711.255" y1="525.2" x2="711.255" y2="512.8" stroke="#666" stroke-width="0.5"></line><line x1="711.255" y1="512.8" x2="723.755" y2="512.8" stroke="#666" stroke-width="0.5"></line></g><rect x="693.755" y="506.04999999999995" width="128.42000000000002" height="13.5" fill="#fff" opacity="0"></rect><text font-size="13.50" x="728.8" y="516.8" fill="#ca2628"><tspan x="728.755" y="516.8499999999999">10-14 years old</tspan></text></g><g class="legendMark"><g class="indicator"><line x1="698.755" y1="477.2" x2="711.255" y2="477.2" stroke="#666" stroke-width="0.5"></line><line x1="711.255" y1="477.2" x2="711.255" y2="477.2" stroke="#666" stroke-width="0.5"></line><line x1="711.255" y1="477.2" x2="723.755" y2="477.2" stroke="#666" stroke-width="0.5"></line></g><rect x="693.755" y="470.45" width="116.67500000000001" height="13.5" fill="#fff" opacity="0"></rect><text font-size="13.50" x="728.8" y="481.3" fill="#34983f"><tspan x="728.755" y="481.25">70+ years old</tspan></text></g><g class="legendMark"><g class="indicator"><line x1="698.755" y1="360.5" x2="721.255" y2="360.5" stroke="#666" stroke-width="0.5"></line><line x1="721.255" y1="360.5" x2="721.255" y2="360.5" stroke="#666" stroke-width="0.5"></line><line x1="721.255" y1="360.5" x2="723.755" y2="360.5" stroke="#666" stroke-width="0.5"></line></g><rect x="693.755" y="353.75" width="141.245" height="13.5" fill="#fff" opacity="0"></rect><text font-size="13.50" x="728.8" y="364.6" fill="#f6a324"><tspan x="728.755" y="364.55">Age-standardized</tspan></text></g><g class="legendMark"><g class="indicator"><line x1="698.755" y1="355.8" x2="711.255" y2="355.8" stroke="#666" stroke-width="0.5"></line><line x1="711.255" y1="355.8" x2="711.255" y2="345" stroke="#666" stroke-width="0.5"></line><line x1="711.255" y1="345" x2="723.755" y2="345" stroke="#666" stroke-width="0.5"></line></g><rect x="693.755" y="338.25" width="83.195" height="13.5" fill="#fff" opacity="0"></rect><text font-size="13.50" x="728.8" y="349.1" fill="#a652ba"><tspan x="728.755" y="349.05">All ages</tspan></text></g><g class="legendMark"><g class="indicator"><line x1="698.755" y1="298" x2="711.255" y2="298" stroke="#666" stroke-width="0.5"></line><line x1="711.255" y1="298" x2="711.255" y2="298" stroke="#666" stroke-width="0.5"></line><line x1="711.255" y1="298" x2="723.755" y2="298" stroke="#666" stroke-width="0.5"></line></g><rect x="693.755" y="291.25" width="128.42000000000002" height="13.5" fill="#fff" opacity="0"></rect><text font-size="13.50" x="728.8" y="302.1" fill="#2a939b"><tspan x="728.755" y="302.05">15-19 years old</tspan></text></g><g class="legendMark"><g class="indicator"><line x1="698.755" y1="235.4" x2="711.255" y2="235.4" stroke="#666" stroke-width="0.5"></line><line x1="711.255" y1="235.4" x2="711.255" y2="235.4" stroke="#666" stroke-width="0.5"></line><line x1="711.255" y1="235.4" x2="723.755" y2="235.4" stroke="#666" stroke-width="0.5"></line></g><rect x="693.755" y="228.65" width="128.42000000000002" height="13.5" fill="#fff" opacity="0"></rect><text font-size="13.50" x="728.8" y="239.5" fill="#e6332e"><tspan x="728.755" y="239.45000000000002">15-49 years old</tspan></text></g><g class="legendMark"><g class="indicator"><line x1="698.755" y1="190" x2="711.255" y2="190" stroke="#666" stroke-width="0.5"></line><line x1="711.255" y1="190" x2="711.255" y2="190" stroke="#666" stroke-width="0.5"></line><line x1="711.255" y1="190" x2="723.755" y2="190" stroke="#666" stroke-width="0.5"></line></g><rect x="693.755" y="183.25" width="128.42000000000002" height="13.5" fill="#fff" opacity="0"></rect><text font-size="13.50" x="728.8" y="194.1" fill="#9ecc8a"><tspan x="728.755" y="194.05">30-34 years old</tspan></text></g><g class="legendMark"><g class="indicator"><line x1="698.755" y1="126.4" x2="711.255" y2="126.4" stroke="#666" stroke-width="0.5"></line><line x1="711.255" y1="126.4" x2="711.255" y2="126.4" stroke="#666" stroke-width="0.5"></line><line x1="711.255" y1="126.4" x2="723.755" y2="126.4" stroke="#666" stroke-width="0.5"></line></g><rect x="693.755" y="119.65" width="128.42000000000002" height="13.5" fill="#fff" opacity="0"></rect><text font-size="13.50" x="728.8" y="130.5" fill="#ffd53e"><tspan x="728.755" y="130.45000000000002">20-24 years old</tspan></text></g><g class="legendMark"><g class="indicator"><line x1="698.755" y1="107.6" x2="711.255" y2="107.6" stroke="#666" stroke-width="0.5"></line><line x1="711.255" y1="107.6" x2="711.255" y2="107.6" stroke="#666" stroke-width="0.5"></line><line x1="711.255" y1="107.6" x2="723.755" y2="107.6" stroke="#666" stroke-width="0.5"></line></g><rect x="693.755" y="100.85" width="128.42000000000002" height="13.5" fill="#fff" opacity="0"></rect><text font-size="13.50" x="728.8" y="111.6" fill="#b077b1"><tspan x="728.755" y="111.64999999999999">25-29 years old</tspan></text></g></g><g class="Lines"><rect x="57" y="108" width="637" height="428" fill="rgba(255,255,255,0)" opacity="0"></rect><g class="key-World_0"><path stroke="#9ecc8a" stroke-linecap="round" d="M57 215L81 217L104 217L128 215L151 213L175 211L199 208L222 207L246 205L269 205L293 206L317 206L340 207L364 208L387 209L411 210L434 212L458 212L482 211L505 209L529 207L552 205L576 202L599 200L623 198L647 195L670 193L694 190" fill="none" stroke-width="1.5"></path><g fill="#9ecc8a"><circle cx="57" cy="215" r="2"></circle><circle cx="81" cy="217" r="2"></circle><circle cx="104" cy="217" r="2"></circle><circle cx="128" cy="215" r="2"></circle><circle cx="151" cy="213" r="2"></circle><circle cx="175" cy="211" r="2"></circle><circle cx="199" cy="208" r="2"></circle><circle cx="222" cy="207" r="2"></circle><circle cx="246" cy="205" r="2"></circle><circle cx="269" cy="205" r="2"></circle><circle cx="293" cy="206" r="2"></circle><circle cx="317" cy="206" r="2"></circle><circle cx="340" cy="207" r="2"></circle><circle cx="364" cy="208" r="2"></circle><circle cx="387" cy="209" r="2"></circle><circle cx="411" cy="210" r="2"></circle><circle cx="434" cy="212" r="2"></circle><circle cx="458" cy="212" r="2"></circle><circle cx="482" cy="211" r="2"></circle><circle cx="505" cy="209" r="2"></circle><circle cx="529" cy="207" r="2"></circle><circle cx="552" cy="205" r="2"></circle><circle cx="576" cy="202" r="2"></circle><circle cx="599" cy="200" r="2"></circle><circle cx="623" cy="198" r="2"></circle><circle cx="647" cy="195" r="2"></circle><circle cx="670" cy="193" r="2"></circle><circle cx="694" cy="190" r="2"></circle></g></g><g class="key-World_1"><path stroke="#ca2628" stroke-linecap="round" d="M57 525L81 525L104 525L128 525L151 525L175 525L199 525L222 524L246 524L269 524L293 524L317 524L340 524L364 524L387 524L411 524L434 525L458 525L482 525L505 525L529 525L552 525L576 525L599 525L623 525L647 525L670 525L694 525" fill="none" stroke-width="1.5"></path><g fill="#ca2628"><circle cx="57" cy="525" r="2"></circle><circle cx="81" cy="525" r="2"></circle><circle cx="104" cy="525" r="2"></circle><circle cx="128" cy="525" r="2"></circle><circle cx="151" cy="525" r="2"></circle><circle cx="175" cy="525" r="2"></circle><circle cx="199" cy="525" r="2"></circle><circle cx="222" cy="524" r="2"></circle><circle cx="246" cy="524" r="2"></circle><circle cx="269" cy="524" r="2"></circle><circle cx="293" cy="524" r="2"></circle><circle cx="317" cy="524" r="2"></circle><circle cx="340" cy="524" r="2"></circle><circle cx="364" cy="524" r="2"></circle><circle cx="387" cy="524" r="2"></circle><circle cx="411" cy="524" r="2"></circle><circle cx="434" cy="525" r="2"></circle><circle cx="458" cy="525" r="2"></circle><circle cx="482" cy="525" r="2"></circle><circle cx="505" cy="525" r="2"></circle><circle cx="529" cy="525" r="2"></circle><circle cx="552" cy="525" r="2"></circle><circle cx="576" cy="525" r="2"></circle><circle cx="599" cy="525" r="2"></circle><circle cx="623" cy="525" r="2"></circle><circle cx="647" cy="525" r="2"></circle><circle cx="670" cy="525" r="2"></circle><circle cx="694" cy="525" r="2"></circle></g></g><g class="key-World_2"><path stroke="#2a939b" stroke-linecap="round" d="M57 280L81 283L104 284L128 285L151 285L175 284L199 282L222 279L246 275L269 272L293 272L317 273L340 275L364 276L387 277L411 278L434 280L458 282L482 285L505 288L529 291L552 293L576 294L599 296L623 297L647 298L670 298L694 298" fill="none" stroke-width="1.5"></path><g fill="#2a939b"><circle cx="57" cy="280" r="2"></circle><circle cx="81" cy="283" r="2"></circle><circle cx="104" cy="284" r="2"></circle><circle cx="128" cy="285" r="2"></circle><circle cx="151" cy="285" r="2"></circle><circle cx="175" cy="284" r="2"></circle><circle cx="199" cy="282" r="2"></circle><circle cx="222" cy="279" r="2"></circle><circle cx="246" cy="275" r="2"></circle><circle cx="269" cy="272" r="2"></circle><circle cx="293" cy="272" r="2"></circle><circle cx="317" cy="273" r="2"></circle><circle cx="340" cy="275" r="2"></circle><circle cx="364" cy="276" r="2"></circle><circle cx="387" cy="277" r="2"></circle><circle cx="411" cy="278" r="2"></circle><circle cx="434" cy="280" r="2"></circle><circle cx="458" cy="282" r="2"></circle><circle cx="482" cy="285" r="2"></circle><circle cx="505" cy="288" r="2"></circle><circle cx="529" cy="291" r="2"></circle><circle cx="552" cy="293" r="2"></circle><circle cx="576" cy="294" r="2"></circle><circle cx="599" cy="296" r="2"></circle><circle cx="623" cy="297" r="2"></circle><circle cx="647" cy="298" r="2"></circle><circle cx="670" cy="298" r="2"></circle><circle cx="694" cy="298" r="2"></circle></g></g><g class="key-World_3"><path stroke="#b077b1" stroke-linecap="round" d="M57 119L81 117L104 115L128 114L151 114L175 114L199 114L222 113L246 113L269 114L293 117L317 120L340 123L364 126L387 128L411 129L434 129L458 127L482 125L505 122L529 121L552 119L576 117L599 115L623 112L647 110L670 109L694 108" fill="none" stroke-width="1.5"></path><g fill="#b077b1"><circle cx="57" cy="119" r="2"></circle><circle cx="81" cy="117" r="2"></circle><circle cx="104" cy="115" r="2"></circle><circle cx="128" cy="114" r="2"></circle><circle cx="151" cy="114" r="2"></circle><circle cx="175" cy="114" r="2"></circle><circle cx="199" cy="114" r="2"></circle><circle cx="222" cy="113" r="2"></circle><circle cx="246" cy="113" r="2"></circle><circle cx="269" cy="114" r="2"></circle><circle cx="293" cy="117" r="2"></circle><circle cx="317" cy="120" r="2"></circle><circle cx="340" cy="123" r="2"></circle><circle cx="364" cy="126" r="2"></circle><circle cx="387" cy="128" r="2"></circle><circle cx="411" cy="129" r="2"></circle><circle cx="434" cy="129" r="2"></circle><circle cx="458" cy="127" r="2"></circle><circle cx="482" cy="125" r="2"></circle><circle cx="505" cy="122" r="2"></circle><circle cx="529" cy="121" r="2"></circle><circle cx="552" cy="119" r="2"></circle><circle cx="576" cy="117" r="2"></circle><circle cx="599" cy="115" r="2"></circle><circle cx="623" cy="112" r="2"></circle><circle cx="647" cy="110" r="2"></circle><circle cx="670" cy="109" r="2"></circle><circle cx="694" cy="108" r="2"></circle></g></g><g class="key-World_4"><path stroke="#a652ba" stroke-linecap="round" d="M57 364L81 364L104 364L128 363L151 363L175 363L199 362L222 361L246 360L269 359L293 359L317 359L340 359L364 359L387 359L411 360L434 360L458 359L482 359L505 359L529 359L552 359L576 358L599 358L623 358L647 357L670 356L694 356" fill="none" stroke-width="1.5"></path><g fill="#a652ba"><circle cx="57" cy="364" r="2"></circle><circle cx="81" cy="364" r="2"></circle><circle cx="104" cy="364" r="2"></circle><circle cx="128" cy="363" r="2"></circle><circle cx="151" cy="363" r="2"></circle><circle cx="175" cy="363" r="2"></circle><circle cx="199" cy="362" r="2"></circle><circle cx="222" cy="361" r="2"></circle><circle cx="246" cy="360" r="2"></circle><circle cx="269" cy="359" r="2"></circle><circle cx="293" cy="359" r="2"></circle><circle cx="317" cy="359" r="2"></circle><circle cx="340" cy="359" r="2"></circle><circle cx="364" cy="359" r="2"></circle><circle cx="387" cy="359" r="2"></circle><circle cx="411" cy="360" r="2"></circle><circle cx="434" cy="360" r="2"></circle><circle cx="458" cy="359" r="2"></circle><circle cx="482" cy="359" r="2"></circle><circle cx="505" cy="359" r="2"></circle><circle cx="529" cy="359" r="2"></circle><circle cx="552" cy="359" r="2"></circle><circle cx="576" cy="358" r="2"></circle><circle cx="599" cy="358" r="2"></circle><circle cx="623" cy="358" r="2"></circle><circle cx="647" cy="357" r="2"></circle><circle cx="670" cy="356" r="2"></circle><circle cx="694" cy="356" r="2"></circle></g></g><g class="key-World_5"><path stroke="#ffd53e" stroke-linecap="round" d="M57 110L81 111L104 112L128 112L151 114L175 116L199 118L222 119L246 119L269 119L293 119L317 120L340 121L364 122L387 123L411 125L434 126L458 126L482 125L505 124L529 124L552 124L576 125L599 125L623 126L647 126L670 126L694 126" fill="none" stroke-width="1.5"></path><g fill="#ffd53e"><circle cx="57" cy="110" r="2"></circle><circle cx="81" cy="111" r="2"></circle><circle cx="104" cy="112" r="2"></circle><circle cx="128" cy="112" r="2"></circle><circle cx="151" cy="114" r="2"></circle><circle cx="175" cy="116" r="2"></circle><circle cx="199" cy="118" r="2"></circle><circle cx="222" cy="119" r="2"></circle><circle cx="246" cy="119" r="2"></circle><circle cx="269" cy="119" r="2"></circle><circle cx="293" cy="119" r="2"></circle><circle cx="317" cy="120" r="2"></circle><circle cx="340" cy="121" r="2"></circle><circle cx="364" cy="122" r="2"></circle><circle cx="387" cy="123" r="2"></circle><circle cx="411" cy="125" r="2"></circle><circle cx="434" cy="126" r="2"></circle><circle cx="458" cy="126" r="2"></circle><circle cx="482" cy="125" r="2"></circle><circle cx="505" cy="124" r="2"></circle><circle cx="529" cy="124" r="2"></circle><circle cx="552" cy="124" r="2"></circle><circle cx="576" cy="125" r="2"></circle><circle cx="599" cy="125" r="2"></circle><circle cx="623" cy="126" r="2"></circle><circle cx="647" cy="126" r="2"></circle><circle cx="670" cy="126" r="2"></circle><circle cx="694" cy="126" r="2"></circle></g></g><g class="key-World_6"><path stroke="#34983f" stroke-linecap="round" d="M57 484L81 483L104 483L128 483L151 483L175 483L199 483L222 483L246 483L269 483L293 483L317 483L340 483L364 483L387 483L411 483L434 482L458 482L482 482L505 482L529 482L552 482L576 481L599 481L623 480L647 479L670 478L694 477" fill="none" stroke-width="1.5"></path><g fill="#34983f"><circle cx="57" cy="484" r="2"></circle><circle cx="81" cy="483" r="2"></circle><circle cx="104" cy="483" r="2"></circle><circle cx="128" cy="483" r="2"></circle><circle cx="151" cy="483" r="2"></circle><circle cx="175" cy="483" r="2"></circle><circle cx="199" cy="483" r="2"></circle><circle cx="222" cy="483" r="2"></circle><circle cx="246" cy="483" r="2"></circle><circle cx="269" cy="483" r="2"></circle><circle cx="293" cy="483" r="2"></circle><circle cx="317" cy="483" r="2"></circle><circle cx="340" cy="483" r="2"></circle><circle cx="364" cy="483" r="2"></circle><circle cx="387" cy="483" r="2"></circle><circle cx="411" cy="483" r="2"></circle><circle cx="434" cy="482" r="2"></circle><circle cx="458" cy="482" r="2"></circle><circle cx="482" cy="482" r="2"></circle><circle cx="505" cy="482" r="2"></circle><circle cx="529" cy="482" r="2"></circle><circle cx="552" cy="482" r="2"></circle><circle cx="576" cy="481" r="2"></circle><circle cx="599" cy="481" r="2"></circle><circle cx="623" cy="480" r="2"></circle><circle cx="647" cy="479" r="2"></circle><circle cx="670" cy="478" r="2"></circle><circle cx="694" cy="477" r="2"></circle></g></g><g class="key-World_7"><path stroke="#3360a9" stroke-linecap="round" d="M57 528L81 528L104 528L128 528L151 528L175 528L199 528L222 528L246 528L269 527L293 527L317 527L340 527L364 527L387 528L411 528L434 528L458 528L482 528L505 528L529 528L552 528L576 528L599 528L623 528L647 528L670 528L694 528" fill="none" stroke-width="1.5"></path><g fill="#3360a9"><circle cx="57" cy="528" r="2"></circle><circle cx="81" cy="528" r="2"></circle><circle cx="104" cy="528" r="2"></circle><circle cx="128" cy="528" r="2"></circle><circle cx="151" cy="528" r="2"></circle><circle cx="175" cy="528" r="2"></circle><circle cx="199" cy="528" r="2"></circle><circle cx="222" cy="528" r="2"></circle><circle cx="246" cy="528" r="2"></circle><circle cx="269" cy="527" r="2"></circle><circle cx="293" cy="527" r="2"></circle><circle cx="317" cy="527" r="2"></circle><circle cx="340" cy="527" r="2"></circle><circle cx="364" cy="527" r="2"></circle><circle cx="387" cy="528" r="2"></circle><circle cx="411" cy="528" r="2"></circle><circle cx="434" cy="528" r="2"></circle><circle cx="458" cy="528" r="2"></circle><circle cx="482" cy="528" r="2"></circle><circle cx="505" cy="528" r="2"></circle><circle cx="529" cy="528" r="2"></circle><circle cx="552" cy="528" r="2"></circle><circle cx="576" cy="528" r="2"></circle><circle cx="599" cy="528" r="2"></circle><circle cx="623" cy="528" r="2"></circle><circle cx="647" cy="528" r="2"></circle><circle cx="670" cy="528" r="2"></circle><circle cx="694" cy="528" r="2"></circle></g></g><g class="key-World_8"><path stroke="#e6332e" stroke-linecap="round" d="M57 233L81 233L104 234L128 234L151 235L175 235L199 235L222 235L246 234L269 234L293 235L317 237L340 238L364 240L387 241L411 242L434 243L458 243L482 243L505 242L529 242L552 241L576 241L599 240L623 239L647 238L670 237L694 235" fill="none" stroke-width="1.5"></path><g fill="#e6332e"><circle cx="57" cy="233" r="2"></circle><circle cx="81" cy="233" r="2"></circle><circle cx="104" cy="234" r="2"></circle><circle cx="128" cy="234" r="2"></circle><circle cx="151" cy="235" r="2"></circle><circle cx="175" cy="235" r="2"></circle><circle cx="199" cy="235" r="2"></circle><circle cx="222" cy="235" r="2"></circle><circle cx="246" cy="234" r="2"></circle><circle cx="269" cy="234" r="2"></circle><circle cx="293" cy="235" r="2"></circle><circle cx="317" cy="237" r="2"></circle><circle cx="340" cy="238" r="2"></circle><circle cx="364" cy="240" r="2"></circle><circle cx="387" cy="241" r="2"></circle><circle cx="411" cy="242" r="2"></circle><circle cx="434" cy="243" r="2"></circle><circle cx="458" cy="243" r="2"></circle><circle cx="482" cy="243" r="2"></circle><circle cx="505" cy="242" r="2"></circle><circle cx="529" cy="242" r="2"></circle><circle cx="552" cy="241" r="2"></circle><circle cx="576" cy="241" r="2"></circle><circle cx="599" cy="240" r="2"></circle><circle cx="623" cy="239" r="2"></circle><circle cx="647" cy="238" r="2"></circle><circle cx="670" cy="237" r="2"></circle><circle cx="694" cy="235" r="2"></circle></g></g><g class="key-World_9"><path stroke="#f6a324" stroke-linecap="round" d="M57 368L81 368L104 368L128 368L151 367L175 367L199 367L222 366L246 365L269 365L293 365L317 365L340 365L364 366L387 366L411 366L434 367L458 367L482 367L505 366L529 366L552 366L576 365L599 364L623 364L647 363L670 362L694 361" fill="none" stroke-width="1.5"></path><g fill="#f6a324"><circle cx="57" cy="368" r="2"></circle><circle cx="81" cy="368" r="2"></circle><circle cx="104" cy="368" r="2"></circle><circle cx="128" cy="368" r="2"></circle><circle cx="151" cy="367" r="2"></circle><circle cx="175" cy="367" r="2"></circle><circle cx="199" cy="367" r="2"></circle><circle cx="222" cy="366" r="2"></circle><circle cx="246" cy="365" r="2"></circle><circle cx="269" cy="365" r="2"></circle><circle cx="293" cy="365" r="2"></circle><circle cx="317" cy="365" r="2"></circle><circle cx="340" cy="365" r="2"></circle><circle cx="364" cy="366" r="2"></circle><circle cx="387" cy="366" r="2"></circle><circle cx="411" cy="366" r="2"></circle><circle cx="434" cy="367" r="2"></circle><circle cx="458" cy="367" r="2"></circle><circle cx="482" cy="367" r="2"></circle><circle cx="505" cy="366" r="2"></circle><circle cx="529" cy="366" r="2"></circle><circle cx="552" cy="366" r="2"></circle><circle cx="576" cy="365" r="2"></circle><circle cx="599" cy="364" r="2"></circle><circle cx="623" cy="364" r="2"></circle><circle cx="647" cy="363" r="2"></circle><circle cx="670" cy="362" r="2"></circle><circle cx="694" cy="361" r="2"></circle></g></g></g></g></g><g style="fill: #777;" class="SourcesFooter"><g style="fill: #777;" class="clickable"><text font-size="12.60" x="15.0" y="581.6"><tspan x="15" y="581.58">Source: IHME, Global Burden of Disease</tspan></text></g><text font-size="12.60" x="775.4" y="581.6"><tspan x="775.402" y="581.58"><a style="fill: #777;" class="cclogo" href="http://creativecommons.org/licenses/by-sa/4.0/deed.en_US" target="_blank">CC BY-SA</a></tspan></text></g></g></svg>