<svg xmlns="http://www.w3.org/2000/svg" version="1.1" style="font-family: 'Helvetica Neue', Helvetica, Arial, sans-serif; font-size: 18px; background-color: white; text-rendering: optimizeLegibility; -webkit-font-smoothing: antialiased;" width="850" height="600"><g class="ChartTab"><g class="HeaderView"><g opacity="0.8" transform="translate(778, 15) scale(0.27)"><a xmlns:xlink="http://www.w3.org/1999/xlink" xlink:href="https://ourworldindata.org" target="_blank"><g><rect x="0" y="0" fill="#1B2543" width="211.2" height="130.1"/><rect x="0" y="112.2" fill="#E63912" width="211.2" height="17.9"/><g><rect x="1.2" y="12.3" fill="none" width="210.2" height="99.2"/><path fill="#FFFFFF" d="M37.8,32.2c0,12.7-7.7,19.4-17.1,19.4c-9.7,0-16.6-7.5-16.6-18.7c0-11.7,7.3-19.3,17.1-19.3 C31.3,13.7,37.8,21.3,37.8,32.2z M9.2,32.8c0,7.9,4.3,14.9,11.8,14.9c7.5,0,11.8-6.9,11.8-15.3c0-7.3-3.8-14.9-11.8-14.9 C13.1,17.5,9.2,24.8,9.2,32.8z"/><path fill="#FFFFFF" d="M62.7,43.8c0,2.7,0.1,5.1,0.2,7.2h-4.3l-0.3-4.3h-0.1c-1.3,2.1-4,4.9-8.8,4.9c-4.2,0-9.1-2.3-9.1-11.6 V24.6h4.8v14.6c0,5,1.5,8.4,5.9,8.4c3.2,0,5.5-2.2,6.3-4.4c0.3-0.7,0.4-1.6,0.4-2.5V24.6h4.8V43.8z"/><path fill="#FFFFFF" d="M67.3,32.8c0-3.1-0.1-5.8-0.2-8.2h4.2l0.2,5.2h0.2c1.2-3.5,4.1-5.8,7.3-5.8c0.5,0,0.9,0.1,1.4,0.2v4.5 c-0.5-0.1-1-0.2-1.6-0.2c-3.4,0-5.8,2.6-6.5,6.2c-0.1,0.7-0.2,1.4-0.2,2.2V51h-4.8V32.8z"/><path fill="#FFFFFF" d="M95.4,51l-9.4-36.8h5l4.4,18.6c1.1,4.6,2.1,9.2,2.7,12.7h0.1c0.6-3.7,1.8-8,3-12.8l4.9-18.5h5l4.5,18.7 c1,4.4,2,8.7,2.6,12.6h0.1c0.8-4,1.8-8.1,3-12.7l4.9-18.5h4.9L120.6,51h-5L111,31.9c-1.1-4.7-1.9-8.3-2.4-12h-0.1 c-0.7,3.7-1.5,7.3-2.8,12L100.4,51H95.4z"/><path fill="#FFFFFF" d="M154.9,37.6c0,9.8-6.8,14-13.2,14c-7.2,0-12.7-5.2-12.7-13.6c0-8.8,5.8-14,13.1-14 C149.8,24,154.9,29.5,154.9,37.6z M133.9,37.9c0,5.8,3.3,10.1,8,10.1c4.6,0,8-4.3,8-10.3c0-4.5-2.2-10.1-7.9-10.1 C136.3,27.6,133.9,32.8,133.9,37.9z"/><path fill="#FFFFFF" d="M158.2,32.8c0-3.1-0.1-5.8-0.2-8.2h4.2l0.2,5.2h0.2c1.2-3.5,4.1-5.8,7.3-5.8c0.5,0,0.9,0.1,1.4,0.2v4.5 c-0.5-0.1-1-0.2-1.6-0.2c-3.4,0-5.8,2.6-6.5,6.2c-0.1,0.7-0.2,1.4-0.2,2.2V51h-4.8V32.8z"/><path fill="#FFFFFF" d="M173.5,12.3h4.8V51h-4.8V12.3z"/><path fill="#FFFFFF" d="M206.5,12.3v31.9c0,2.3,0.1,5,0.2,6.8h-4.3l-0.2-4.6H202c-1.5,2.9-4.7,5.2-9,5.2 c-6.4,0-11.3-5.4-11.3-13.4c-0.1-8.8,5.4-14.2,11.9-14.2c4,0,6.8,1.9,8,4h0.1V12.3H206.5z M201.7,35.4c0-0.6-0.1-1.4-0.2-2 c-0.7-3.1-3.3-5.6-6.9-5.6c-5,0-7.9,4.4-7.9,10.2c0,5.3,2.6,9.8,7.8,9.8c3.2,0,6.2-2.1,7.1-5.7c0.2-0.7,0.2-1.3,0.2-2.1V35.4z"/><path fill="#FFFFFF" d="M42.8,64c0.1,1.6-1.1,2.9-3.1,2.9c-1.7,0-2.9-1.3-2.9-2.9c0-1.7,1.3-3,3-3C41.7,61,42.8,62.3,42.8,64z M37.4,97.8V71.4h4.8v26.4H37.4z"/><path fill="#FFFFFF" d="M47.5,78.6c0-2.7-0.1-5-0.2-7.1h4.3l0.3,4.4h0.1c1.3-2.5,4.4-5,8.8-5c3.7,0,9.4,2.2,9.4,11.2v15.8h-4.8 V82.6c0-4.3-1.6-7.8-6.1-7.8c-3.2,0-5.6,2.2-6.5,4.9c-0.2,0.6-0.3,1.4-0.3,2.2v15.9h-4.8V78.6z"/><path fill="#FFFFFF" d="M84,61.6c2.9-0.4,6.3-0.8,10.1-0.8c6.8,0,11.7,1.6,14.9,4.6c3.3,3,5.2,7.3,5.2,13.2c0,6-1.9,10.9-5.3,14.3 c-3.4,3.4-9.1,5.3-16.3,5.3c-3.4,0-6.2-0.2-8.6-0.4V61.6z M88.8,94.1c1.2,0.2,3,0.3,4.8,0.3c10.2,0,15.7-5.7,15.7-15.6 c0.1-8.7-4.9-14.2-14.9-14.2c-2.5,0-4.3,0.2-5.6,0.5V94.1z"/><path fill="#FFFFFF" d="M132.1,97.8l-0.4-3.3h-0.2c-1.5,2.1-4.3,3.9-8.1,3.9c-5.4,0-8.1-3.8-8.1-7.6c0-6.4,5.7-9.9,15.9-9.8v-0.5 c0-2.2-0.6-6.1-6-6.1c-2.5,0-5,0.8-6.9,2l-1.1-3.2c2.2-1.4,5.4-2.3,8.7-2.3c8.1,0,10.1,5.5,10.1,10.8v9.9c0,2.3,0.1,4.5,0.4,6.3 H132.1z M131.4,84.4c-5.3-0.1-11.2,0.8-11.2,5.9c0,3.1,2.1,4.6,4.5,4.6c3.4,0,5.6-2.2,6.4-4.4c0.2-0.5,0.3-1,0.3-1.5V84.4z"/><path fill="#FFFFFF" d="M146.6,63.9v7.6h6.9v3.7h-6.9v14.2c0,3.3,0.9,5.1,3.6,5.1c1.3,0,2.2-0.2,2.8-0.3l0.2,3.6 c-0.9,0.4-2.4,0.7-4.3,0.7c-2.2,0-4-0.7-5.2-2c-1.4-1.4-1.9-3.8-1.9-6.9V75.1h-4.1v-3.7h4.1v-6.3L146.6,63.9z"/><path fill="#FFFFFF" d="M171.4,97.8l-0.4-3.3h-0.2c-1.5,2.1-4.3,3.9-8.1,3.9c-5.4,0-8.1-3.8-8.1-7.6c0-6.4,5.7-9.9,15.9-9.8v-0.5 c0-2.2-0.6-6.1-6-6.1c-2.5,0-5,0.8-6.9,2l-1.1-3.2c2.2-1.4,5.4-2.3,8.7-2.3c8.1,0,10.1,5.5,10.1,10.8v9.9c0,2.3,0.1,4.5,0.4,6.3 H171.4z M170.7,84.4c-5.3-0.1-11.2,0.8-11.2,5.9c0,3.1,2.1,4.6,4.5,4.6c3.4,0,5.6-2.2,6.4-4.4c0.2-0.5,0.3-1,0.3-1.5V84.4z"/></g></g></a></g><a href="https://ourworldindata.org/grapher/prevalence-of-depression-by-age" target="_blank"><text font-size="25.20" x="15.0" y="35.2" fill="#555"><tspan x="15" y="35.160000000000004">Prevalence of depression by age, World</tspan></text></a><text font-size="14.40" x="15.0" y="53.7" fill="#666"><tspan x="15" y="53.72">Share of individuals within a given age category with depressive disorders. This is measured across both sexes.</tspan><tspan x="15" y="69.56">Figures attempt to provide a true estimate (going beyond reported diagnosis) of depression prevalence based on</tspan><tspan x="15" y="85.4">medical, epidemiological data, surveys and meta-regression modelling.</tspan></text></g><g class="LineChart"><defs><clipPath id="boundsClip-91"><rect x="33.49" y="0" width="830" height="897.8"></rect></clipPath></defs><g class="AxisBoxView"><g class="HorizontalAxis"><text x="43.5" y="556.5" fill="#666" text-anchor="middle" font-size="16.2">1990</text><text x="163.9" y="556.5" fill="#666" text-anchor="middle" font-size="16.2">1995</text><text x="284.3" y="556.5" fill="#666" text-anchor="middle" font-size="16.2">2000</text><text x="404.7" y="556.5" fill="#666" text-anchor="middle" font-size="16.2">2005</text><text x="525.2" y="556.5" fill="#666" text-anchor="middle" font-size="16.2">2010</text><text x="645.6" y="556.5" fill="#666" text-anchor="middle" font-size="16.2">2015</text><text x="693.8" y="556.5" fill="#666" text-anchor="middle" font-size="16.2">2017</text></g><g class="VerticalAxis"><text x="38.49" y="535.3" fill="#666" dominant-baseline="middle" text-anchor="end" font-size="16.2">0%</text><text x="38.49" y="468.5" fill="#666" dominant-baseline="middle" text-anchor="end" font-size="16.2">1%</text><text x="38.49" y="401.7" fill="#666" dominant-baseline="middle" text-anchor="end" font-size="16.2">2%</text><text x="38.49" y="335" fill="#666" dominant-baseline="middle" text-anchor="end" font-size="16.2">3%</text><text x="38.49" y="268.2" fill="#666" dominant-baseline="middle" text-anchor="end" font-size="16.2">4%</text><text x="38.49" y="201.4" fill="#666" dominant-baseline="middle" text-anchor="end" font-size="16.2">5%</text><text x="38.49" y="134.6" fill="#666" dominant-baseline="middle" text-anchor="end" font-size="16.2">6%</text></g><g class="AxisGridLines"><line x1="43.49" y1="535.3" x2="693.75" y2="535.3" stroke="#ccc"></line><line x1="43.49" y1="468.5" x2="693.75" y2="468.5" stroke="#ddd" stroke-dasharray="3,2"></line><line x1="43.49" y1="401.7" x2="693.75" y2="401.7" stroke="#ddd" stroke-dasharray="3,2"></line><line x1="43.49" y1="335" x2="693.75" y2="335" stroke="#ddd" stroke-dasharray="3,2"></line><line x1="43.49" y1="268.2" x2="693.75" y2="268.2" stroke="#ddd" stroke-dasharray="3,2"></line><line x1="43.49" y1="201.4" x2="693.75" y2="201.4" stroke="#ddd" stroke-dasharray="3,2"></line><line x1="43.49" y1="134.6" x2="693.75" y2="134.6" stroke="#ddd" stroke-dasharray="3,2"></line></g></g><g clip-path="url(#boundsClip-91)"><g class="HeightedLegend clickable"><g class="legendMark"><g class="indicator"><line x1="698.755" y1="118.9" x2="711.255" y2="118.9" stroke="#666" stroke-width="0.5"></line><line x1="711.255" y1="118.9" x2="711.255" y2="118.9" stroke="#666" stroke-width="0.5"></line><line x1="711.255" y1="118.9" x2="723.755" y2="118.9" stroke="#666" stroke-width="0.5"></line></g><rect x="693.755" y="112.15" width="116.67500000000001" height="13.5" fill="#fff" opacity="0"></rect><text font-size="13.50" x="728.8" y="123.0" fill="#b077b1"><tspan x="728.755" y="122.95">70+ years old</tspan></text></g><g class="legendMark"><g class="indicator"><line x1="698.755" y1="133.2" x2="711.255" y2="133.2" stroke="#666" stroke-width="0.5"></line><line x1="711.255" y1="133.2" x2="711.255" y2="133.2" stroke="#666" stroke-width="0.5"></line><line x1="711.255" y1="133.2" x2="723.755" y2="133.2" stroke="#666" stroke-width="0.5"></line></g><rect x="693.755" y="126.44999999999999" width="128.42000000000002" height="13.5" fill="#fff" opacity="0"></rect><text font-size="13.50" x="728.8" y="137.3" fill="#ffd53e"><tspan x="728.755" y="137.25">50-69 years old</tspan></text></g><g class="legendMark"><g class="indicator"><line x1="698.755" y1="273.7" x2="719.8264285714286" y2="273.7" stroke="#666" stroke-width="0.5"></line><line x1="719.8264285714286" y1="273.7" x2="719.8264285714286" y2="273.7" stroke="#666" stroke-width="0.5"></line><line x1="719.8264285714286" y1="273.7" x2="723.755" y2="273.7" stroke="#666" stroke-width="0.5"></line></g><rect x="693.755" y="266.95" width="128.42000000000002" height="13.5" fill="#fff" opacity="0"></rect><text font-size="13.50" x="728.8" y="277.8" fill="#9ecc8a"><tspan x="728.755" y="277.75">15-49 years old</tspan></text></g><g class="legendMark"><g class="indicator"><line x1="698.755" y1="276.2" x2="716.9692857142857" y2="276.2" stroke="#666" stroke-width="0.5"></line><line x1="716.9692857142857" y1="276.2" x2="716.9692857142857" y2="289.2" stroke="#666" stroke-width="0.5"></line><line x1="716.9692857142857" y1="289.2" x2="723.755" y2="289.2" stroke="#666" stroke-width="0.5"></line></g><rect x="693.755" y="282.45" width="128.42000000000002" height="13.5" fill="#fff" opacity="0"></rect><text font-size="13.50" x="728.8" y="293.3" fill="#e6332e"><tspan x="728.755" y="293.25">30-34 years old</tspan></text></g><g class="legendMark"><g class="indicator"><line x1="698.755" y1="292.7" x2="714.1121428571429" y2="292.7" stroke="#666" stroke-width="0.5"></line><line x1="714.1121428571429" y1="292.7" x2="714.1121428571429" y2="304.7" stroke="#666" stroke-width="0.5"></line><line x1="714.1121428571429" y1="304.7" x2="723.755" y2="304.7" stroke="#666" stroke-width="0.5"></line></g><rect x="693.755" y="297.95" width="128.42000000000002" height="13.5" fill="#fff" opacity="0"></rect><text font-size="13.50" x="728.8" y="308.8" fill="#2a939b"><tspan x="728.755" y="308.75">25-29 years old</tspan></text></g><g class="legendMark"><g class="indicator"><line x1="698.755" y1="295.7" x2="711.255" y2="295.7" stroke="#666" stroke-width="0.5"></line><line x1="711.255" y1="295.7" x2="711.255" y2="320.2" stroke="#666" stroke-width="0.5"></line><line x1="711.255" y1="320.2" x2="723.755" y2="320.2" stroke="#666" stroke-width="0.5"></line></g><rect x="693.755" y="313.45" width="83.195" height="13.5" fill="#fff" opacity="0"></rect><text font-size="13.50" x="728.8" y="324.3" fill="#a652ba"><tspan x="728.755" y="324.25">All ages</tspan></text></g><g class="legendMark"><g class="indicator"><line x1="698.755" y1="303.9" x2="708.3978571428571" y2="303.9" stroke="#666" stroke-width="0.5"></line><line x1="708.3978571428571" y1="303.9" x2="708.3978571428571" y2="335.7" stroke="#666" stroke-width="0.5"></line><line x1="708.3978571428571" y1="335.7" x2="723.755" y2="335.7" stroke="#666" stroke-width="0.5"></line></g><rect x="693.755" y="328.95" width="128.42000000000002" height="13.5" fill="#fff" opacity="0"></rect><text font-size="13.50" x="728.8" y="339.8" fill="#f6a324"><tspan x="728.755" y="339.75">20-24 years old</tspan></text></g><g class="legendMark"><g class="indicator"><line x1="698.755" y1="305.5" x2="705.5407142857143" y2="305.5" stroke="#666" stroke-width="0.5"></line><line x1="705.5407142857143" y1="305.5" x2="705.5407142857143" y2="351.2" stroke="#666" stroke-width="0.5"></line><line x1="705.5407142857143" y1="351.2" x2="723.755" y2="351.2" stroke="#666" stroke-width="0.5"></line></g><rect x="693.755" y="344.45" width="141.245" height="13.5" fill="#fff" opacity="0"></rect><text font-size="13.50" x="728.8" y="355.3" fill="#34983f"><tspan x="728.755" y="355.25">Age-standardized</tspan></text></g><g class="legendMark"><g class="indicator"><line x1="698.755" y1="348.2" x2="702.6835714285714" y2="348.2" stroke="#666" stroke-width="0.5"></line><line x1="702.6835714285714" y1="348.2" x2="702.6835714285714" y2="366.7" stroke="#666" stroke-width="0.5"></line><line x1="702.6835714285714" y1="366.7" x2="723.755" y2="366.7" stroke="#666" stroke-width="0.5"></line></g><rect x="693.755" y="359.95" width="128.42000000000002" height="13.5" fill="#fff" opacity="0"></rect><text font-size="13.50" x="728.8" y="370.8" fill="#ca2628"><tspan x="728.755" y="370.75">15-19 years old</tspan></text></g><g class="legendMark"><g class="indicator"><line x1="698.755" y1="452.4" x2="711.255" y2="452.4" stroke="#666" stroke-width="0.5"></line><line x1="711.255" y1="452.4" x2="711.255" y2="452.4" stroke="#666" stroke-width="0.5"></line><line x1="711.255" y1="452.4" x2="723.755" y2="452.4" stroke="#666" stroke-width="0.5"></line></g><rect x="693.755" y="445.65" width="128.42000000000002" height="13.5" fill="#fff" opacity="0"></rect><text font-size="13.50" x="728.8" y="456.4" fill="#3360a9"><tspan x="728.755" y="456.45">10-14 years old</tspan></text></g></g><g class="Lines"><rect x="43" y="108" width="650" height="428" fill="rgba(255,255,255,0)" opacity="0"></rect><g class="key-World_0"><path stroke="#f6a324" stroke-linecap="round" d="M44 282L68 282L92 283L116 283L140 284L164 285L188 286L212 287L236 288L260 290L284 290L308 291L333 291L357 292L381 293L405 294L429 296L453 299L477 303L501 305L525 306L549 306L573 306L597 306L622 305L646 305L670 304L694 304" fill="none" stroke-width="1.5"></path><g fill="#f6a324"><circle cx="44" cy="282" r="2"></circle><circle cx="68" cy="282" r="2"></circle><circle cx="92" cy="283" r="2"></circle><circle cx="116" cy="283" r="2"></circle><circle cx="140" cy="284" r="2"></circle><circle cx="164" cy="285" r="2"></circle><circle cx="188" cy="286" r="2"></circle><circle cx="212" cy="287" r="2"></circle><circle cx="236" cy="288" r="2"></circle><circle cx="260" cy="290" r="2"></circle><circle cx="284" cy="290" r="2"></circle><circle cx="308" cy="291" r="2"></circle><circle cx="333" cy="291" r="2"></circle><circle cx="357" cy="292" r="2"></circle><circle cx="381" cy="293" r="2"></circle><circle cx="405" cy="294" r="2"></circle><circle cx="429" cy="296" r="2"></circle><circle cx="453" cy="299" r="2"></circle><circle cx="477" cy="303" r="2"></circle><circle cx="501" cy="305" r="2"></circle><circle cx="525" cy="306" r="2"></circle><circle cx="549" cy="306" r="2"></circle><circle cx="573" cy="306" r="2"></circle><circle cx="597" cy="306" r="2"></circle><circle cx="622" cy="305" r="2"></circle><circle cx="646" cy="305" r="2"></circle><circle cx="670" cy="304" r="2"></circle><circle cx="694" cy="304" r="2"></circle></g></g><g class="key-World_1"><path stroke="#3360a9" stroke-linecap="round" d="M44 458L68 458L92 458L116 458L140 459L164 459L188 459L212 459L236 458L260 458L284 457L308 457L333 456L357 456L381 455L405 455L429 455L453 455L477 455L501 455L525 454L549 454L573 454L597 454L622 454L646 453L670 453L694 452" fill="none" stroke-width="1.5"></path><g fill="#3360a9"><circle cx="44" cy="458" r="2"></circle><circle cx="68" cy="458" r="2"></circle><circle cx="92" cy="458" r="2"></circle><circle cx="116" cy="458" r="2"></circle><circle cx="140" cy="459" r="2"></circle><circle cx="164" cy="459" r="2"></circle><circle cx="188" cy="459" r="2"></circle><circle cx="212" cy="459" r="2"></circle><circle cx="236" cy="458" r="2"></circle><circle cx="260" cy="458" r="2"></circle><circle cx="284" cy="457" r="2"></circle><circle cx="308" cy="457" r="2"></circle><circle cx="333" cy="456" r="2"></circle><circle cx="357" cy="456" r="2"></circle><circle cx="381" cy="455" r="2"></circle><circle cx="405" cy="455" r="2"></circle><circle cx="429" cy="455" r="2"></circle><circle cx="453" cy="455" r="2"></circle><circle cx="477" cy="455" r="2"></circle><circle cx="501" cy="455" r="2"></circle><circle cx="525" cy="454" r="2"></circle><circle cx="549" cy="454" r="2"></circle><circle cx="573" cy="454" r="2"></circle><circle cx="597" cy="454" r="2"></circle><circle cx="622" cy="454" r="2"></circle><circle cx="646" cy="453" r="2"></circle><circle cx="670" cy="453" r="2"></circle><circle cx="694" cy="452" r="2"></circle></g></g><g class="key-World_2"><path stroke="#a652ba" stroke-linecap="round" d="M44 318L68 317L92 316L116 315L140 314L164 313L188 312L212 312L236 311L260 310L284 309L308 307L333 306L357 305L381 303L405 302L429 302L453 302L477 302L501 303L525 302L549 301L573 301L597 300L622 299L646 298L670 297L694 296" fill="none" stroke-width="1.5"></path><g fill="#a652ba"><circle cx="44" cy="318" r="2"></circle><circle cx="68" cy="317" r="2"></circle><circle cx="92" cy="316" r="2"></circle><circle cx="116" cy="315" r="2"></circle><circle cx="140" cy="314" r="2"></circle><circle cx="164" cy="313" r="2"></circle><circle cx="188" cy="312" r="2"></circle><circle cx="212" cy="312" r="2"></circle><circle cx="236" cy="311" r="2"></circle><circle cx="260" cy="310" r="2"></circle><circle cx="284" cy="309" r="2"></circle><circle cx="308" cy="307" r="2"></circle><circle cx="333" cy="306" r="2"></circle><circle cx="357" cy="305" r="2"></circle><circle cx="381" cy="303" r="2"></circle><circle cx="405" cy="302" r="2"></circle><circle cx="429" cy="302" r="2"></circle><circle cx="453" cy="302" r="2"></circle><circle cx="477" cy="302" r="2"></circle><circle cx="501" cy="303" r="2"></circle><circle cx="525" cy="302" r="2"></circle><circle cx="549" cy="301" r="2"></circle><circle cx="573" cy="301" r="2"></circle><circle cx="597" cy="300" r="2"></circle><circle cx="622" cy="299" r="2"></circle><circle cx="646" cy="298" r="2"></circle><circle cx="670" cy="297" r="2"></circle><circle cx="694" cy="296" r="2"></circle></g></g><g class="key-World_3"><path stroke="#b077b1" stroke-linecap="round" d="M44 112L68 110L92 109L116 108L140 108L164 108L188 108L212 108L236 109L260 109L284 109L308 109L333 110L357 110L381 110L405 110L429 110L453 110L477 110L501 110L525 110L549 111L573 112L597 113L622 114L646 116L670 117L694 119" fill="none" stroke-width="1.5"></path><g fill="#b077b1"><circle cx="44" cy="112" r="2"></circle><circle cx="68" cy="110" r="2"></circle><circle cx="92" cy="109" r="2"></circle><circle cx="116" cy="108" r="2"></circle><circle cx="140" cy="108" r="2"></circle><circle cx="164" cy="108" r="2"></circle><circle cx="188" cy="108" r="2"></circle><circle cx="212" cy="108" r="2"></circle><circle cx="236" cy="109" r="2"></circle><circle cx="260" cy="109" r="2"></circle><circle cx="284" cy="109" r="2"></circle><circle cx="308" cy="109" r="2"></circle><circle cx="333" cy="110" r="2"></circle><circle cx="357" cy="110" r="2"></circle><circle cx="381" cy="110" r="2"></circle><circle cx="405" cy="110" r="2"></circle><circle cx="429" cy="110" r="2"></circle><circle cx="453" cy="110" r="2"></circle><circle cx="477" cy="110" r="2"></circle><circle cx="501" cy="110" r="2"></circle><circle cx="525" cy="110" r="2"></circle><circle cx="549" cy="111" r="2"></circle><circle cx="573" cy="112" r="2"></circle><circle cx="597" cy="113" r="2"></circle><circle cx="622" cy="114" r="2"></circle><circle cx="646" cy="116" r="2"></circle><circle cx="670" cy="117" r="2"></circle><circle cx="694" cy="119" r="2"></circle></g></g><g class="key-World_4"><path stroke="#e6332e" stroke-linecap="round" d="M44 254L68 254L92 254L116 255L140 256L164 257L188 259L212 261L236 263L260 264L284 265L308 265L333 266L357 266L381 266L405 266L429 267L453 269L477 272L501 275L525 276L549 275L573 275L597 275L622 275L646 276L670 276L694 276" fill="none" stroke-width="1.5"></path><g fill="#e6332e"><circle cx="44" cy="254" r="2"></circle><circle cx="68" cy="254" r="2"></circle><circle cx="92" cy="254" r="2"></circle><circle cx="116" cy="255" r="2"></circle><circle cx="140" cy="256" r="2"></circle><circle cx="164" cy="257" r="2"></circle><circle cx="188" cy="259" r="2"></circle><circle cx="212" cy="261" r="2"></circle><circle cx="236" cy="263" r="2"></circle><circle cx="260" cy="264" r="2"></circle><circle cx="284" cy="265" r="2"></circle><circle cx="308" cy="265" r="2"></circle><circle cx="333" cy="266" r="2"></circle><circle cx="357" cy="266" r="2"></circle><circle cx="381" cy="266" r="2"></circle><circle cx="405" cy="266" r="2"></circle><circle cx="429" cy="267" r="2"></circle><circle cx="453" cy="269" r="2"></circle><circle cx="477" cy="272" r="2"></circle><circle cx="501" cy="275" r="2"></circle><circle cx="525" cy="276" r="2"></circle><circle cx="549" cy="275" r="2"></circle><circle cx="573" cy="275" r="2"></circle><circle cx="597" cy="275" r="2"></circle><circle cx="622" cy="275" r="2"></circle><circle cx="646" cy="276" r="2"></circle><circle cx="670" cy="276" r="2"></circle><circle cx="694" cy="276" r="2"></circle></g></g><g class="key-World_5"><path stroke="#ca2628" stroke-linecap="round" d="M44 345L68 346L92 346L116 346L140 346L164 346L188 346L212 346L236 346L260 346L284 346L308 347L333 348L357 348L381 349L405 349L429 349L453 349L477 350L501 350L525 350L549 350L573 350L597 350L622 349L646 349L670 349L694 348" fill="none" stroke-width="1.5"></path><g fill="#ca2628"><circle cx="44" cy="345" r="2"></circle><circle cx="68" cy="346" r="2"></circle><circle cx="92" cy="346" r="2"></circle><circle cx="116" cy="346" r="2"></circle><circle cx="140" cy="346" r="2"></circle><circle cx="164" cy="346" r="2"></circle><circle cx="188" cy="346" r="2"></circle><circle cx="212" cy="346" r="2"></circle><circle cx="236" cy="346" r="2"></circle><circle cx="260" cy="346" r="2"></circle><circle cx="284" cy="346" r="2"></circle><circle cx="308" cy="347" r="2"></circle><circle cx="333" cy="348" r="2"></circle><circle cx="357" cy="348" r="2"></circle><circle cx="381" cy="349" r="2"></circle><circle cx="405" cy="349" r="2"></circle><circle cx="429" cy="349" r="2"></circle><circle cx="453" cy="349" r="2"></circle><circle cx="477" cy="350" r="2"></circle><circle cx="501" cy="350" r="2"></circle><circle cx="525" cy="350" r="2"></circle><circle cx="549" cy="350" r="2"></circle><circle cx="573" cy="350" r="2"></circle><circle cx="597" cy="350" r="2"></circle><circle cx="622" cy="349" r="2"></circle><circle cx="646" cy="349" r="2"></circle><circle cx="670" cy="349" r="2"></circle><circle cx="694" cy="348" r="2"></circle></g></g><g class="key-World_6"><path stroke="#2a939b" stroke-linecap="round" d="M44 268L68 269L92 270L116 271L140 272L164 273L188 275L212 276L236 278L260 279L284 280L308 280L333 281L357 280L381 280L405 280L429 281L453 283L477 286L501 289L525 291L549 292L573 293L597 294L622 294L646 294L670 294L694 293" fill="none" stroke-width="1.5"></path><g fill="#2a939b"><circle cx="44" cy="268" r="2"></circle><circle cx="68" cy="269" r="2"></circle><circle cx="92" cy="270" r="2"></circle><circle cx="116" cy="271" r="2"></circle><circle cx="140" cy="272" r="2"></circle><circle cx="164" cy="273" r="2"></circle><circle cx="188" cy="275" r="2"></circle><circle cx="212" cy="276" r="2"></circle><circle cx="236" cy="278" r="2"></circle><circle cx="260" cy="279" r="2"></circle><circle cx="284" cy="280" r="2"></circle><circle cx="308" cy="280" r="2"></circle><circle cx="333" cy="281" r="2"></circle><circle cx="357" cy="280" r="2"></circle><circle cx="381" cy="280" r="2"></circle><circle cx="405" cy="280" r="2"></circle><circle cx="429" cy="281" r="2"></circle><circle cx="453" cy="283" r="2"></circle><circle cx="477" cy="286" r="2"></circle><circle cx="501" cy="289" r="2"></circle><circle cx="525" cy="291" r="2"></circle><circle cx="549" cy="292" r="2"></circle><circle cx="573" cy="293" r="2"></circle><circle cx="597" cy="294" r="2"></circle><circle cx="622" cy="294" r="2"></circle><circle cx="646" cy="294" r="2"></circle><circle cx="670" cy="294" r="2"></circle><circle cx="694" cy="293" r="2"></circle></g></g><g class="key-World_7"><path stroke="#ffd53e" stroke-linecap="round" d="M44 134L68 132L92 130L116 129L140 127L164 126L188 126L212 126L236 126L260 126L284 126L308 126L333 125L357 125L381 125L405 125L429 126L453 128L477 130L501 131L525 132L549 132L573 132L597 132L622 132L646 132L670 133L694 133" fill="none" stroke-width="1.5"></path><g fill="#ffd53e"><circle cx="44" cy="134" r="2"></circle><circle cx="68" cy="132" r="2"></circle><circle cx="92" cy="130" r="2"></circle><circle cx="116" cy="129" r="2"></circle><circle cx="140" cy="127" r="2"></circle><circle cx="164" cy="126" r="2"></circle><circle cx="188" cy="126" r="2"></circle><circle cx="212" cy="126" r="2"></circle><circle cx="236" cy="126" r="2"></circle><circle cx="260" cy="126" r="2"></circle><circle cx="284" cy="126" r="2"></circle><circle cx="308" cy="126" r="2"></circle><circle cx="333" cy="125" r="2"></circle><circle cx="357" cy="125" r="2"></circle><circle cx="381" cy="125" r="2"></circle><circle cx="405" cy="125" r="2"></circle><circle cx="429" cy="126" r="2"></circle><circle cx="453" cy="128" r="2"></circle><circle cx="477" cy="130" r="2"></circle><circle cx="501" cy="131" r="2"></circle><circle cx="525" cy="132" r="2"></circle><circle cx="549" cy="132" r="2"></circle><circle cx="573" cy="132" r="2"></circle><circle cx="597" cy="132" r="2"></circle><circle cx="622" cy="132" r="2"></circle><circle cx="646" cy="132" r="2"></circle><circle cx="670" cy="133" r="2"></circle><circle cx="694" cy="133" r="2"></circle></g></g><g class="key-World_8"><path stroke="#34983f" stroke-linecap="round" d="M44 299L68 299L92 298L116 298L140 298L164 298L188 299L212 299L236 299L260 299L284 299L308 299L333 299L357 299L381 299L405 300L429 300L453 302L477 303L501 305L525 305L549 305L573 306L597 306L622 306L646 306L670 306L694 306" fill="none" stroke-width="1.5"></path><g fill="#34983f"><circle cx="44" cy="299" r="2"></circle><circle cx="68" cy="299" r="2"></circle><circle cx="92" cy="298" r="2"></circle><circle cx="116" cy="298" r="2"></circle><circle cx="140" cy="298" r="2"></circle><circle cx="164" cy="298" r="2"></circle><circle cx="188" cy="299" r="2"></circle><circle cx="212" cy="299" r="2"></circle><circle cx="236" cy="299" r="2"></circle><circle cx="260" cy="299" r="2"></circle><circle cx="284" cy="299" r="2"></circle><circle cx="308" cy="299" r="2"></circle><circle cx="333" cy="299" r="2"></circle><circle cx="357" cy="299" r="2"></circle><circle cx="381" cy="299" r="2"></circle><circle cx="405" cy="300" r="2"></circle><circle cx="429" cy="300" r="2"></circle><circle cx="453" cy="302" r="2"></circle><circle cx="477" cy="303" r="2"></circle><circle cx="501" cy="305" r="2"></circle><circle cx="525" cy="305" r="2"></circle><circle cx="549" cy="305" r="2"></circle><circle cx="573" cy="306" r="2"></circle><circle cx="597" cy="306" r="2"></circle><circle cx="622" cy="306" r="2"></circle><circle cx="646" cy="306" r="2"></circle><circle cx="670" cy="306" r="2"></circle><circle cx="694" cy="306" r="2"></circle></g></g><g class="key-World_9"><path stroke="#9ecc8a" stroke-linecap="round" d="M44 265L68 264L92 264L116 264L140 264L164 264L188 264L212 265L236 265L260 265L284 266L308 266L333 267L357 267L381 267L405 267L429 268L453 270L477 272L501 274L525 275L549 275L573 275L597 275L622 275L646 275L670 274L694 274" fill="none" stroke-width="1.5"></path><g fill="#9ecc8a"><circle cx="44" cy="265" r="2"></circle><circle cx="68" cy="264" r="2"></circle><circle cx="92" cy="264" r="2"></circle><circle cx="116" cy="264" r="2"></circle><circle cx="140" cy="264" r="2"></circle><circle cx="164" cy="264" r="2"></circle><circle cx="188" cy="264" r="2"></circle><circle cx="212" cy="265" r="2"></circle><circle cx="236" cy="265" r="2"></circle><circle cx="260" cy="265" r="2"></circle><circle cx="284" cy="266" r="2"></circle><circle cx="308" cy="266" r="2"></circle><circle cx="333" cy="267" r="2"></circle><circle cx="357" cy="267" r="2"></circle><circle cx="381" cy="267" r="2"></circle><circle cx="405" cy="267" r="2"></circle><circle cx="429" cy="268" r="2"></circle><circle cx="453" cy="270" r="2"></circle><circle cx="477" cy="272" r="2"></circle><circle cx="501" cy="274" r="2"></circle><circle cx="525" cy="275" r="2"></circle><circle cx="549" cy="275" r="2"></circle><circle cx="573" cy="275" r="2"></circle><circle cx="597" cy="275" r="2"></circle><circle cx="622" cy="275" r="2"></circle><circle cx="646" cy="275" r="2"></circle><circle cx="670" cy="274" r="2"></circle><circle cx="694" cy="274" r="2"></circle></g></g></g></g></g><g style="fill: #777;" class="SourcesFooter"><g style="fill: #777;" class="clickable"><text font-size="12.60" x="15.0" y="581.6"><tspan x="15" y="581.58">Source: IHME, Global Burden of Disease</tspan></text></g><text font-size="12.60" x="775.4" y="581.6"><tspan x="775.402" y="581.58"><a style="fill: #777;" class="cclogo" href="http://creativecommons.org/licenses/by-sa/4.0/deed.en_US" target="_blank">CC BY-SA</a></tspan></text></g></g></svg>