<svg xmlns="http://www.w3.org/2000/svg" version="1.1" style="font-family: 'Helvetica Neue', Helvetica, Arial, sans-serif; font-size: 18px; background-color: white; text-rendering: optimizeLegibility; -webkit-font-smoothing: antialiased;" width="850" height="600"><g class="ChartTab"><g class="HeaderView"><g opacity="0.8" transform="translate(778, 15) scale(0.27)"><a xmlns:xlink="http://www.w3.org/1999/xlink" xlink:href="https://ourworldindata.org" target="_blank"><g><rect x="0" y="0" fill="#1B2543" width="211.2" height="130.1"/><rect x="0" y="112.2" fill="#E63912" width="211.2" height="17.9"/><g><rect x="1.2" y="12.3" fill="none" width="210.2" height="99.2"/><path fill="#FFFFFF" d="M37.8,32.2c0,12.7-7.7,19.4-17.1,19.4c-9.7,0-16.6-7.5-16.6-18.7c0-11.7,7.3-19.3,17.1-19.3 C31.3,13.7,37.8,21.3,37.8,32.2z M9.2,32.8c0,7.9,4.3,14.9,11.8,14.9c7.5,0,11.8-6.9,11.8-15.3c0-7.3-3.8-14.9-11.8-14.9 C13.1,17.5,9.2,24.8,9.2,32.8z"/><path fill="#FFFFFF" d="M62.7,43.8c0,2.7,0.1,5.1,0.2,7.2h-4.3l-0.3-4.3h-0.1c-1.3,2.1-4,4.9-8.8,4.9c-4.2,0-9.1-2.3-9.1-11.6 V24.6h4.8v14.6c0,5,1.5,8.4,5.9,8.4c3.2,0,5.5-2.2,6.3-4.4c0.3-0.7,0.4-1.6,0.4-2.5V24.6h4.8V43.8z"/><path fill="#FFFFFF" d="M67.3,32.8c0-3.1-0.1-5.8-0.2-8.2h4.2l0.2,5.2h0.2c1.2-3.5,4.1-5.8,7.3-5.8c0.5,0,0.9,0.1,1.4,0.2v4.5 c-0.5-0.1-1-0.2-1.6-0.2c-3.4,0-5.8,2.6-6.5,6.2c-0.1,0.7-0.2,1.4-0.2,2.2V51h-4.8V32.8z"/><path fill="#FFFFFF" d="M95.4,51l-9.4-36.8h5l4.4,18.6c1.1,4.6,2.1,9.2,2.7,12.7h0.1c0.6-3.7,1.8-8,3-12.8l4.9-18.5h5l4.5,18.7 c1,4.4,2,8.7,2.6,12.6h0.1c0.8-4,1.8-8.1,3-12.7l4.9-18.5h4.9L120.6,51h-5L111,31.9c-1.1-4.7-1.9-8.3-2.4-12h-0.1 c-0.7,3.7-1.5,7.3-2.8,12L100.4,51H95.4z"/><path fill="#FFFFFF" d="M154.9,37.6c0,9.8-6.8,14-13.2,14c-7.2,0-12.7-5.2-12.7-13.6c0-8.8,5.8-14,13.1-14 C149.8,24,154.9,29.5,154.9,37.6z M133.9,37.9c0,5.8,3.3,10.1,8,10.1c4.6,0,8-4.3,8-10.3c0-4.5-2.2-10.1-7.9-10.1 C136.3,27.6,133.9,32.8,133.9,37.9z"/><path fill="#FFFFFF" d="M158.2,32.8c0-3.1-0.1-5.8-0.2-8.2h4.2l0.2,5.2h0.2c1.2-3.5,4.1-5.8,7.3-5.8c0.5,0,0.9,0.1,1.4,0.2v4.5 c-0.5-0.1-1-0.2-1.6-0.2c-3.4,0-5.8,2.6-6.5,6.2c-0.1,0.7-0.2,1.4-0.2,2.2V51h-4.8V32.8z"/><path fill="#FFFFFF" d="M173.5,12.3h4.8V51h-4.8V12.3z"/><path fill="#FFFFFF" d="M206.5,12.3v31.9c0,2.3,0.1,5,0.2,6.8h-4.3l-0.2-4.6H202c-1.5,2.9-4.7,5.2-9,5.2 c-6.4,0-11.3-5.4-11.3-13.4c-0.1-8.8,5.4-14.2,11.9-14.2c4,0,6.8,1.9,8,4h0.1V12.3H206.5z M201.7,35.4c0-0.6-0.1-1.4-0.2-2 c-0.7-3.1-3.3-5.6-6.9-5.6c-5,0-7.9,4.4-7.9,10.2c0,5.3,2.6,9.8,7.8,9.8c3.2,0,6.2-2.1,7.1-5.7c0.2-0.7,0.2-1.3,0.2-2.1V35.4z"/><path fill="#FFFFFF" d="M42.8,64c0.1,1.6-1.1,2.9-3.1,2.9c-1.7,0-2.9-1.3-2.9-2.9c0-1.7,1.3-3,3-3C41.7,61,42.8,62.3,42.8,64z M37.4,97.8V71.4h4.8v26.4H37.4z"/><path fill="#FFFFFF" d="M47.5,78.6c0-2.7-0.1-5-0.2-7.1h4.3l0.3,4.4h0.1c1.3-2.5,4.4-5,8.8-5c3.7,0,9.4,2.2,9.4,11.2v15.8h-4.8 V82.6c0-4.3-1.6-7.8-6.1-7.8c-3.2,0-5.6,2.2-6.5,4.9c-0.2,0.6-0.3,1.4-0.3,2.2v15.9h-4.8V78.6z"/><path fill="#FFFFFF" d="M84,61.6c2.9-0.4,6.3-0.8,10.1-0.8c6.8,0,11.7,1.6,14.9,4.6c3.3,3,5.2,7.3,5.2,13.2c0,6-1.9,10.9-5.3,14.3 c-3.4,3.4-9.1,5.3-16.3,5.3c-3.4,0-6.2-0.2-8.6-0.4V61.6z M88.8,94.1c1.2,0.2,3,0.3,4.8,0.3c10.2,0,15.7-5.7,15.7-15.6 c0.1-8.7-4.9-14.2-14.9-14.2c-2.5,0-4.3,0.2-5.6,0.5V94.1z"/><path fill="#FFFFFF" d="M132.1,97.8l-0.4-3.3h-0.2c-1.5,2.1-4.3,3.9-8.1,3.9c-5.4,0-8.1-3.8-8.1-7.6c0-6.4,5.7-9.9,15.9-9.8v-0.5 c0-2.2-0.6-6.1-6-6.1c-2.5,0-5,0.8-6.9,2l-1.1-3.2c2.2-1.4,5.4-2.3,8.7-2.3c8.1,0,10.1,5.5,10.1,10.8v9.9c0,2.3,0.1,4.5,0.4,6.3 H132.1z M131.4,84.4c-5.3-0.1-11.2,0.8-11.2,5.9c0,3.1,2.1,4.6,4.5,4.6c3.4,0,5.6-2.2,6.4-4.4c0.2-0.5,0.3-1,0.3-1.5V84.4z"/><path fill="#FFFFFF" d="M146.6,63.9v7.6h6.9v3.7h-6.9v14.2c0,3.3,0.9,5.1,3.6,5.1c1.3,0,2.2-0.2,2.8-0.3l0.2,3.6 c-0.9,0.4-2.4,0.7-4.3,0.7c-2.2,0-4-0.7-5.2-2c-1.4-1.4-1.9-3.8-1.9-6.9V75.1h-4.1v-3.7h4.1v-6.3L146.6,63.9z"/><path fill="#FFFFFF" d="M171.4,97.8l-0.4-3.3h-0.2c-1.5,2.1-4.3,3.9-8.1,3.9c-5.4,0-8.1-3.8-8.1-7.6c0-6.4,5.7-9.9,15.9-9.8v-0.5 c0-2.2-0.6-6.1-6-6.1c-2.5,0-5,0.8-6.9,2l-1.1-3.2c2.2-1.4,5.4-2.3,8.7-2.3c8.1,0,10.1,5.5,10.1,10.8v9.9c0,2.3,0.1,4.5,0.4,6.3 H171.4z M170.7,84.4c-5.3-0.1-11.2,0.8-11.2,5.9c0,3.1,2.1,4.6,4.5,4.6c3.4,0,5.6-2.2,6.4-4.4c0.2-0.5,0.3-1,0.3-1.5V84.4z"/></g></g></a></g><a href="https://ourworldindata.org/grapher/prevalence-of-eating-disorders-by-age" target="_blank"><text font-size="25.20" x="15.0" y="35.2" fill="#555"><tspan x="15" y="35.160000000000004">Prevalence of eating disorders by age, World</tspan></text></a><text font-size="14.40" x="15.0" y="53.7" fill="#666"><tspan x="15" y="53.72">Share of population within each age category with the eating disorders anorexia or bulimia nervosa. This is measured</tspan><tspan x="15" y="69.56">across both sexes. Figures attempt to provide a true estimate (going beyond reported diagnosis) of eating disorder</tspan><tspan x="15" y="85.4">prevalence based on medical, epidemiological data, surveys and meta-regression modelling.</tspan></text></g><g class="LineChart"><defs><clipPath id="boundsClip-93"><rect x="47.098" y="0" width="830" height="897.8"></rect></clipPath></defs><g class="AxisBoxView"><g class="HorizontalAxis"><text x="57.1" y="556.5" fill="#666" text-anchor="middle" font-size="16.2">1990</text><text x="175" y="556.5" fill="#666" text-anchor="middle" font-size="16.2">1995</text><text x="292.9" y="556.5" fill="#666" text-anchor="middle" font-size="16.2">2000</text><text x="410.8" y="556.5" fill="#666" text-anchor="middle" font-size="16.2">2005</text><text x="528.7" y="556.5" fill="#666" text-anchor="middle" font-size="16.2">2010</text><text x="646.6" y="556.5" fill="#666" text-anchor="middle" font-size="16.2">2015</text><text x="693.8" y="556.5" fill="#666" text-anchor="middle" font-size="16.2">2017</text></g><g class="VerticalAxis"><text x="52.10" y="535.3" fill="#666" dominant-baseline="middle" text-anchor="end" font-size="16.2">0%</text><text x="52.10" y="452" fill="#666" dominant-baseline="middle" text-anchor="end" font-size="16.2">0.1%</text><text x="52.10" y="368.6" fill="#666" dominant-baseline="middle" text-anchor="end" font-size="16.2">0.2%</text><text x="52.10" y="285.3" fill="#666" dominant-baseline="middle" text-anchor="end" font-size="16.2">0.3%</text><text x="52.10" y="202" fill="#666" dominant-baseline="middle" text-anchor="end" font-size="16.2">0.4%</text><text x="52.10" y="118.6" fill="#666" dominant-baseline="middle" text-anchor="end" font-size="16.2">0.5%</text></g><g class="AxisGridLines"><line x1="57.10" y1="535.3" x2="693.75" y2="535.3" stroke="#ccc"></line><line x1="57.10" y1="452" x2="693.75" y2="452" stroke="#ddd" stroke-dasharray="3,2"></line><line x1="57.10" y1="368.6" x2="693.75" y2="368.6" stroke="#ddd" stroke-dasharray="3,2"></line><line x1="57.10" y1="285.3" x2="693.75" y2="285.3" stroke="#ddd" stroke-dasharray="3,2"></line><line x1="57.10" y1="202" x2="693.75" y2="202" stroke="#ddd" stroke-dasharray="3,2"></line><line x1="57.10" y1="118.6" x2="693.75" y2="118.6" stroke="#ddd" stroke-dasharray="3,2"></line></g></g><g clip-path="url(#boundsClip-93)"><g class="HeightedLegend clickable"><g class="legendMark"><g class="indicator"><line x1="698.755" y1="535.3" x2="721.255" y2="535.3" stroke="#666" stroke-width="0.5"></line><line x1="721.255" y1="535.3" x2="721.255" y2="528.55" stroke="#666" stroke-width="0.5"></line><line x1="721.255" y1="528.55" x2="723.755" y2="528.55" stroke="#666" stroke-width="0.5"></line></g><rect x="693.755" y="521.8" width="116.67500000000001" height="13.5" fill="#fff" opacity="0"></rect><text font-size="13.50" x="728.8" y="532.6" fill="#ca2628"><tspan x="728.755" y="532.5999999999999">70+ year olds</tspan></text></g><g class="legendMark"><g class="indicator"><line x1="698.755" y1="535.3" x2="711.255" y2="535.3" stroke="#666" stroke-width="0.5"></line><line x1="711.255" y1="535.3" x2="711.255" y2="513.05" stroke="#666" stroke-width="0.5"></line><line x1="711.255" y1="513.05" x2="723.755" y2="513.05" stroke="#666" stroke-width="0.5"></line></g><rect x="693.755" y="506.29999999999995" width="128.42000000000002" height="13.5" fill="#fff" opacity="0"></rect><text font-size="13.50" x="728.8" y="517.1" fill="#3360a9"><tspan x="728.755" y="517.0999999999999">50-69 year olds</tspan></text></g><g class="legendMark"><g class="indicator"><line x1="698.755" y1="492.2" x2="711.255" y2="492.2" stroke="#666" stroke-width="0.5"></line><line x1="711.255" y1="492.2" x2="711.255" y2="492.2" stroke="#666" stroke-width="0.5"></line><line x1="711.255" y1="492.2" x2="723.755" y2="492.2" stroke="#666" stroke-width="0.5"></line></g><rect x="693.755" y="485.45" width="120.86" height="13.5" fill="#fff" opacity="0"></rect><text font-size="13.50" x="728.8" y="496.3" fill="#34983f"><tspan x="728.755" y="496.25">5-14 year olds</tspan></text></g><g class="legendMark"><g class="indicator"><line x1="698.755" y1="449.7" x2="711.255" y2="449.7" stroke="#666" stroke-width="0.5"></line><line x1="711.255" y1="449.7" x2="711.255" y2="449.7" stroke="#666" stroke-width="0.5"></line><line x1="711.255" y1="449.7" x2="723.755" y2="449.7" stroke="#666" stroke-width="0.5"></line></g><rect x="693.755" y="442.95" width="128.42000000000002" height="13.5" fill="#fff" opacity="0"></rect><text font-size="13.50" x="728.8" y="453.8" fill="#f6a324"><tspan x="728.755" y="453.75">10-14 year olds</tspan></text></g><g class="legendMark"><g class="indicator"><line x1="698.755" y1="359.2" x2="721.255" y2="359.2" stroke="#666" stroke-width="0.5"></line><line x1="721.255" y1="359.2" x2="721.255" y2="359.2" stroke="#666" stroke-width="0.5"></line><line x1="721.255" y1="359.2" x2="723.755" y2="359.2" stroke="#666" stroke-width="0.5"></line></g><rect x="693.755" y="352.45" width="141.245" height="13.5" fill="#fff" opacity="0"></rect><text font-size="13.50" x="728.8" y="363.3" fill="#a652ba"><tspan x="728.755" y="363.25">Age-standardized</tspan></text></g><g class="legendMark"><g class="indicator"><line x1="698.755" y1="356.6" x2="711.255" y2="356.6" stroke="#666" stroke-width="0.5"></line><line x1="711.255" y1="356.6" x2="711.255" y2="343.7" stroke="#666" stroke-width="0.5"></line><line x1="711.255" y1="343.7" x2="723.755" y2="343.7" stroke="#666" stroke-width="0.5"></line></g><rect x="693.755" y="336.95" width="83.195" height="13.5" fill="#fff" opacity="0"></rect><text font-size="13.50" x="728.8" y="347.8" fill="#2a939b"><tspan x="728.755" y="347.75">All ages</tspan></text></g><g class="legendMark"><g class="indicator"><line x1="698.755" y1="238.8" x2="711.255" y2="238.8" stroke="#666" stroke-width="0.5"></line><line x1="711.255" y1="238.8" x2="711.255" y2="238.8" stroke="#666" stroke-width="0.5"></line><line x1="711.255" y1="238.8" x2="723.755" y2="238.8" stroke="#666" stroke-width="0.5"></line></g><rect x="693.755" y="232.05" width="128.42000000000002" height="13.5" fill="#fff" opacity="0"></rect><text font-size="13.50" x="728.8" y="242.9" fill="#e6332e"><tspan x="728.755" y="242.85000000000002">15-19 year olds</tspan></text></g><g class="legendMark"><g class="indicator"><line x1="698.755" y1="160.6" x2="711.255" y2="160.6" stroke="#666" stroke-width="0.5"></line><line x1="711.255" y1="160.6" x2="711.255" y2="160.6" stroke="#666" stroke-width="0.5"></line><line x1="711.255" y1="160.6" x2="723.755" y2="160.6" stroke="#666" stroke-width="0.5"></line></g><rect x="693.755" y="153.85" width="128.42000000000002" height="13.5" fill="#fff" opacity="0"></rect><text font-size="13.50" x="728.8" y="164.7" fill="#9ecc8a"><tspan x="728.755" y="164.65">20-24 year olds</tspan></text></g><g class="legendMark"><g class="indicator"><line x1="698.755" y1="136.7" x2="711.255" y2="136.7" stroke="#666" stroke-width="0.5"></line><line x1="711.255" y1="136.7" x2="711.255" y2="136.7" stroke="#666" stroke-width="0.5"></line><line x1="711.255" y1="136.7" x2="723.755" y2="136.7" stroke="#666" stroke-width="0.5"></line></g><rect x="693.755" y="129.95" width="128.42000000000002" height="13.5" fill="#fff" opacity="0"></rect><text font-size="13.50" x="728.8" y="140.8" fill="#ffd53e"><tspan x="728.755" y="140.75">25-29 year olds</tspan></text></g><g class="legendMark"><g class="indicator"><line x1="698.755" y1="107.6" x2="711.255" y2="107.6" stroke="#666" stroke-width="0.5"></line><line x1="711.255" y1="107.6" x2="711.255" y2="107.6" stroke="#666" stroke-width="0.5"></line><line x1="711.255" y1="107.6" x2="723.755" y2="107.6" stroke="#666" stroke-width="0.5"></line></g><rect x="693.755" y="100.85" width="128.42000000000002" height="13.5" fill="#fff" opacity="0"></rect><text font-size="13.50" x="728.8" y="111.6" fill="#b077b1"><tspan x="728.755" y="111.64999999999999">30-34 year olds</tspan></text></g></g><g class="Lines"><rect x="57" y="108" width="637" height="428" fill="rgba(255,255,255,0)" opacity="0"></rect><g class="key-World_0"><path stroke="#9ecc8a" stroke-linecap="round" d="M57 223L81 222L104 220L128 219L151 218L175 217L199 215L222 214L246 211L269 208L293 205L317 203L340 200L364 198L387 197L411 196L434 195L458 194L482 192L505 188L529 185L552 181L576 177L599 173L623 169L647 166L670 163L694 161" fill="none" stroke-width="1.5"></path><g fill="#9ecc8a"><circle cx="57" cy="223" r="2"></circle><circle cx="81" cy="222" r="2"></circle><circle cx="104" cy="220" r="2"></circle><circle cx="128" cy="219" r="2"></circle><circle cx="151" cy="218" r="2"></circle><circle cx="175" cy="217" r="2"></circle><circle cx="199" cy="215" r="2"></circle><circle cx="222" cy="214" r="2"></circle><circle cx="246" cy="211" r="2"></circle><circle cx="269" cy="208" r="2"></circle><circle cx="293" cy="205" r="2"></circle><circle cx="317" cy="203" r="2"></circle><circle cx="340" cy="200" r="2"></circle><circle cx="364" cy="198" r="2"></circle><circle cx="387" cy="197" r="2"></circle><circle cx="411" cy="196" r="2"></circle><circle cx="434" cy="195" r="2"></circle><circle cx="458" cy="194" r="2"></circle><circle cx="482" cy="192" r="2"></circle><circle cx="505" cy="188" r="2"></circle><circle cx="529" cy="185" r="2"></circle><circle cx="552" cy="181" r="2"></circle><circle cx="576" cy="177" r="2"></circle><circle cx="599" cy="173" r="2"></circle><circle cx="623" cy="169" r="2"></circle><circle cx="647" cy="166" r="2"></circle><circle cx="670" cy="163" r="2"></circle><circle cx="694" cy="161" r="2"></circle></g></g><g class="key-World_1"><path stroke="#f6a324" stroke-linecap="round" d="M57 463L81 462L104 462L128 462L151 462L175 462L199 462L222 462L246 462L269 461L293 461L317 460L340 459L364 459L387 458L411 457L434 457L458 456L482 456L505 455L529 455L552 454L576 453L599 453L623 452L647 451L670 451L694 450" fill="none" stroke-width="1.5"></path><g fill="#f6a324"><circle cx="57" cy="463" r="2"></circle><circle cx="81" cy="462" r="2"></circle><circle cx="104" cy="462" r="2"></circle><circle cx="128" cy="462" r="2"></circle><circle cx="151" cy="462" r="2"></circle><circle cx="175" cy="462" r="2"></circle><circle cx="199" cy="462" r="2"></circle><circle cx="222" cy="462" r="2"></circle><circle cx="246" cy="462" r="2"></circle><circle cx="269" cy="461" r="2"></circle><circle cx="293" cy="461" r="2"></circle><circle cx="317" cy="460" r="2"></circle><circle cx="340" cy="459" r="2"></circle><circle cx="364" cy="459" r="2"></circle><circle cx="387" cy="458" r="2"></circle><circle cx="411" cy="457" r="2"></circle><circle cx="434" cy="457" r="2"></circle><circle cx="458" cy="456" r="2"></circle><circle cx="482" cy="456" r="2"></circle><circle cx="505" cy="455" r="2"></circle><circle cx="529" cy="455" r="2"></circle><circle cx="552" cy="454" r="2"></circle><circle cx="576" cy="453" r="2"></circle><circle cx="599" cy="453" r="2"></circle><circle cx="623" cy="452" r="2"></circle><circle cx="647" cy="451" r="2"></circle><circle cx="670" cy="451" r="2"></circle><circle cx="694" cy="450" r="2"></circle></g></g><g class="key-World_2"><path stroke="#2a939b" stroke-linecap="round" d="M57 381L81 381L104 380L128 380L151 379L175 379L199 378L222 377L246 376L269 375L293 374L317 373L340 372L364 371L387 369L411 368L434 367L458 366L482 364L505 363L529 362L552 361L576 360L599 360L623 359L647 358L670 357L694 357" fill="none" stroke-width="1.5"></path><g fill="#2a939b"><circle cx="57" cy="381" r="2"></circle><circle cx="81" cy="381" r="2"></circle><circle cx="104" cy="380" r="2"></circle><circle cx="128" cy="380" r="2"></circle><circle cx="151" cy="379" r="2"></circle><circle cx="175" cy="379" r="2"></circle><circle cx="199" cy="378" r="2"></circle><circle cx="222" cy="377" r="2"></circle><circle cx="246" cy="376" r="2"></circle><circle cx="269" cy="375" r="2"></circle><circle cx="293" cy="374" r="2"></circle><circle cx="317" cy="373" r="2"></circle><circle cx="340" cy="372" r="2"></circle><circle cx="364" cy="371" r="2"></circle><circle cx="387" cy="369" r="2"></circle><circle cx="411" cy="368" r="2"></circle><circle cx="434" cy="367" r="2"></circle><circle cx="458" cy="366" r="2"></circle><circle cx="482" cy="364" r="2"></circle><circle cx="505" cy="363" r="2"></circle><circle cx="529" cy="362" r="2"></circle><circle cx="552" cy="361" r="2"></circle><circle cx="576" cy="360" r="2"></circle><circle cx="599" cy="360" r="2"></circle><circle cx="623" cy="359" r="2"></circle><circle cx="647" cy="358" r="2"></circle><circle cx="670" cy="357" r="2"></circle><circle cx="694" cy="357" r="2"></circle></g></g><g class="key-World_3"><path stroke="#b077b1" stroke-linecap="round" d="M57 168L81 166L104 165L128 167L151 169L175 172L199 174L222 175L246 175L269 174L293 172L317 169L340 165L364 161L387 158L411 155L434 151L458 146L482 140L505 134L529 129L552 125L576 120L599 117L623 114L647 111L670 109L694 108" fill="none" stroke-width="1.5"></path><g fill="#b077b1"><circle cx="57" cy="168" r="2"></circle><circle cx="81" cy="166" r="2"></circle><circle cx="104" cy="165" r="2"></circle><circle cx="128" cy="167" r="2"></circle><circle cx="151" cy="169" r="2"></circle><circle cx="175" cy="172" r="2"></circle><circle cx="199" cy="174" r="2"></circle><circle cx="222" cy="175" r="2"></circle><circle cx="246" cy="175" r="2"></circle><circle cx="269" cy="174" r="2"></circle><circle cx="293" cy="172" r="2"></circle><circle cx="317" cy="169" r="2"></circle><circle cx="340" cy="165" r="2"></circle><circle cx="364" cy="161" r="2"></circle><circle cx="387" cy="158" r="2"></circle><circle cx="411" cy="155" r="2"></circle><circle cx="434" cy="151" r="2"></circle><circle cx="458" cy="146" r="2"></circle><circle cx="482" cy="140" r="2"></circle><circle cx="505" cy="134" r="2"></circle><circle cx="529" cy="129" r="2"></circle><circle cx="552" cy="125" r="2"></circle><circle cx="576" cy="120" r="2"></circle><circle cx="599" cy="117" r="2"></circle><circle cx="623" cy="114" r="2"></circle><circle cx="647" cy="111" r="2"></circle><circle cx="670" cy="109" r="2"></circle><circle cx="694" cy="108" r="2"></circle></g></g><g class="key-World_4"><path stroke="#ffd53e" stroke-linecap="round" d="M57 194L81 197L104 199L128 201L151 201L175 201L199 199L222 197L246 194L269 192L293 190L317 187L340 184L364 181L387 177L411 173L434 169L458 164L482 160L505 157L529 155L552 154L576 153L599 151L623 148L647 145L670 141L694 137" fill="none" stroke-width="1.5"></path><g fill="#ffd53e"><circle cx="57" cy="194" r="2"></circle><circle cx="81" cy="197" r="2"></circle><circle cx="104" cy="199" r="2"></circle><circle cx="128" cy="201" r="2"></circle><circle cx="151" cy="201" r="2"></circle><circle cx="175" cy="201" r="2"></circle><circle cx="199" cy="199" r="2"></circle><circle cx="222" cy="197" r="2"></circle><circle cx="246" cy="194" r="2"></circle><circle cx="269" cy="192" r="2"></circle><circle cx="293" cy="190" r="2"></circle><circle cx="317" cy="187" r="2"></circle><circle cx="340" cy="184" r="2"></circle><circle cx="364" cy="181" r="2"></circle><circle cx="387" cy="177" r="2"></circle><circle cx="411" cy="173" r="2"></circle><circle cx="434" cy="169" r="2"></circle><circle cx="458" cy="164" r="2"></circle><circle cx="482" cy="160" r="2"></circle><circle cx="505" cy="157" r="2"></circle><circle cx="529" cy="155" r="2"></circle><circle cx="552" cy="154" r="2"></circle><circle cx="576" cy="153" r="2"></circle><circle cx="599" cy="151" r="2"></circle><circle cx="623" cy="148" r="2"></circle><circle cx="647" cy="145" r="2"></circle><circle cx="670" cy="141" r="2"></circle><circle cx="694" cy="137" r="2"></circle></g></g><g class="key-World_5"><path stroke="#34983f" stroke-linecap="round" d="M57 500L81 500L104 500L128 500L151 500L175 500L199 499L222 499L246 498L269 498L293 497L317 497L340 496L364 496L387 496L411 495L434 495L458 495L482 495L505 495L529 495L552 494L576 494L599 494L623 493L647 493L670 493L694 492" fill="none" stroke-width="1.5"></path><g fill="#34983f"><circle cx="57" cy="500" r="2"></circle><circle cx="81" cy="500" r="2"></circle><circle cx="104" cy="500" r="2"></circle><circle cx="128" cy="500" r="2"></circle><circle cx="151" cy="500" r="2"></circle><circle cx="175" cy="500" r="2"></circle><circle cx="199" cy="499" r="2"></circle><circle cx="222" cy="499" r="2"></circle><circle cx="246" cy="498" r="2"></circle><circle cx="269" cy="498" r="2"></circle><circle cx="293" cy="497" r="2"></circle><circle cx="317" cy="497" r="2"></circle><circle cx="340" cy="496" r="2"></circle><circle cx="364" cy="496" r="2"></circle><circle cx="387" cy="496" r="2"></circle><circle cx="411" cy="495" r="2"></circle><circle cx="434" cy="495" r="2"></circle><circle cx="458" cy="495" r="2"></circle><circle cx="482" cy="495" r="2"></circle><circle cx="505" cy="495" r="2"></circle><circle cx="529" cy="495" r="2"></circle><circle cx="552" cy="494" r="2"></circle><circle cx="576" cy="494" r="2"></circle><circle cx="599" cy="494" r="2"></circle><circle cx="623" cy="493" r="2"></circle><circle cx="647" cy="493" r="2"></circle><circle cx="670" cy="493" r="2"></circle><circle cx="694" cy="492" r="2"></circle></g></g><g class="key-World_6"><path stroke="#3360a9" stroke-linecap="round" d="M57 535L81 535L104 535L128 535L151 535L175 535L199 535L222 535L246 535L269 535L293 535L317 535L340 535L364 535L387 535L411 535L434 535L458 535L482 535L505 535L529 535L552 535L576 535L599 535L623 535L647 535L670 535L694 535" fill="none" stroke-width="1.5"></path><g fill="#3360a9"><circle cx="57" cy="535" r="2"></circle><circle cx="81" cy="535" r="2"></circle><circle cx="104" cy="535" r="2"></circle><circle cx="128" cy="535" r="2"></circle><circle cx="151" cy="535" r="2"></circle><circle cx="175" cy="535" r="2"></circle><circle cx="199" cy="535" r="2"></circle><circle cx="222" cy="535" r="2"></circle><circle cx="246" cy="535" r="2"></circle><circle cx="269" cy="535" r="2"></circle><circle cx="293" cy="535" r="2"></circle><circle cx="317" cy="535" r="2"></circle><circle cx="340" cy="535" r="2"></circle><circle cx="364" cy="535" r="2"></circle><circle cx="387" cy="535" r="2"></circle><circle cx="411" cy="535" r="2"></circle><circle cx="434" cy="535" r="2"></circle><circle cx="458" cy="535" r="2"></circle><circle cx="482" cy="535" r="2"></circle><circle cx="505" cy="535" r="2"></circle><circle cx="529" cy="535" r="2"></circle><circle cx="552" cy="535" r="2"></circle><circle cx="576" cy="535" r="2"></circle><circle cx="599" cy="535" r="2"></circle><circle cx="623" cy="535" r="2"></circle><circle cx="647" cy="535" r="2"></circle><circle cx="670" cy="535" r="2"></circle><circle cx="694" cy="535" r="2"></circle></g></g><g class="key-World_7"><path stroke="#a652ba" stroke-linecap="round" d="M57 387L81 387L104 387L128 387L151 386L175 386L199 386L222 385L246 385L269 384L293 383L317 382L340 381L364 380L387 379L411 378L434 376L458 375L482 373L505 371L529 370L552 368L576 367L599 365L623 364L647 362L670 361L694 359" fill="none" stroke-width="1.5"></path><g fill="#a652ba"><circle cx="57" cy="387" r="2"></circle><circle cx="81" cy="387" r="2"></circle><circle cx="104" cy="387" r="2"></circle><circle cx="128" cy="387" r="2"></circle><circle cx="151" cy="386" r="2"></circle><circle cx="175" cy="386" r="2"></circle><circle cx="199" cy="386" r="2"></circle><circle cx="222" cy="385" r="2"></circle><circle cx="246" cy="385" r="2"></circle><circle cx="269" cy="384" r="2"></circle><circle cx="293" cy="383" r="2"></circle><circle cx="317" cy="382" r="2"></circle><circle cx="340" cy="381" r="2"></circle><circle cx="364" cy="380" r="2"></circle><circle cx="387" cy="379" r="2"></circle><circle cx="411" cy="378" r="2"></circle><circle cx="434" cy="376" r="2"></circle><circle cx="458" cy="375" r="2"></circle><circle cx="482" cy="373" r="2"></circle><circle cx="505" cy="371" r="2"></circle><circle cx="529" cy="370" r="2"></circle><circle cx="552" cy="368" r="2"></circle><circle cx="576" cy="367" r="2"></circle><circle cx="599" cy="365" r="2"></circle><circle cx="623" cy="364" r="2"></circle><circle cx="647" cy="362" r="2"></circle><circle cx="670" cy="361" r="2"></circle><circle cx="694" cy="359" r="2"></circle></g></g><g class="key-World_8"><path stroke="#ca2628" stroke-linecap="round" d="M57 535L81 535L104 535L128 535L151 535L175 535L199 535L222 535L246 535L269 535L293 535L317 535L340 535L364 535L387 535L411 535L434 535L458 535L482 535L505 535L529 535L552 535L576 535L599 535L623 535L647 535L670 535L694 535" fill="none" stroke-width="1.5"></path><g fill="#ca2628"><circle cx="57" cy="535" r="2"></circle><circle cx="81" cy="535" r="2"></circle><circle cx="104" cy="535" r="2"></circle><circle cx="128" cy="535" r="2"></circle><circle cx="151" cy="535" r="2"></circle><circle cx="175" cy="535" r="2"></circle><circle cx="199" cy="535" r="2"></circle><circle cx="222" cy="535" r="2"></circle><circle cx="246" cy="535" r="2"></circle><circle cx="269" cy="535" r="2"></circle><circle cx="293" cy="535" r="2"></circle><circle cx="317" cy="535" r="2"></circle><circle cx="340" cy="535" r="2"></circle><circle cx="364" cy="535" r="2"></circle><circle cx="387" cy="535" r="2"></circle><circle cx="411" cy="535" r="2"></circle><circle cx="434" cy="535" r="2"></circle><circle cx="458" cy="535" r="2"></circle><circle cx="482" cy="535" r="2"></circle><circle cx="505" cy="535" r="2"></circle><circle cx="529" cy="535" r="2"></circle><circle cx="552" cy="535" r="2"></circle><circle cx="576" cy="535" r="2"></circle><circle cx="599" cy="535" r="2"></circle><circle cx="623" cy="535" r="2"></circle><circle cx="647" cy="535" r="2"></circle><circle cx="670" cy="535" r="2"></circle><circle cx="694" cy="535" r="2"></circle></g></g><g class="key-World_9"><path stroke="#e6332e" stroke-linecap="round" d="M57 288L81 287L104 286L128 284L151 283L175 281L199 280L222 278L246 276L269 275L293 275L317 275L340 275L364 274L387 273L411 270L434 268L458 264L482 260L505 257L529 254L552 252L576 250L599 248L623 246L647 243L670 241L694 239" fill="none" stroke-width="1.5"></path><g fill="#e6332e"><circle cx="57" cy="288" r="2"></circle><circle cx="81" cy="287" r="2"></circle><circle cx="104" cy="286" r="2"></circle><circle cx="128" cy="284" r="2"></circle><circle cx="151" cy="283" r="2"></circle><circle cx="175" cy="281" r="2"></circle><circle cx="199" cy="280" r="2"></circle><circle cx="222" cy="278" r="2"></circle><circle cx="246" cy="276" r="2"></circle><circle cx="269" cy="275" r="2"></circle><circle cx="293" cy="275" r="2"></circle><circle cx="317" cy="275" r="2"></circle><circle cx="340" cy="275" r="2"></circle><circle cx="364" cy="274" r="2"></circle><circle cx="387" cy="273" r="2"></circle><circle cx="411" cy="270" r="2"></circle><circle cx="434" cy="268" r="2"></circle><circle cx="458" cy="264" r="2"></circle><circle cx="482" cy="260" r="2"></circle><circle cx="505" cy="257" r="2"></circle><circle cx="529" cy="254" r="2"></circle><circle cx="552" cy="252" r="2"></circle><circle cx="576" cy="250" r="2"></circle><circle cx="599" cy="248" r="2"></circle><circle cx="623" cy="246" r="2"></circle><circle cx="647" cy="243" r="2"></circle><circle cx="670" cy="241" r="2"></circle><circle cx="694" cy="239" r="2"></circle></g></g></g></g></g><g style="fill: #777;" class="SourcesFooter"><g style="fill: #777;" class="clickable"><text font-size="12.60" x="15.0" y="581.6"><tspan x="15" y="581.58">Source: IHME, Global Burden of Disease</tspan></text></g><text font-size="12.60" x="775.4" y="581.6"><tspan x="775.402" y="581.58"><a style="fill: #777;" class="cclogo" href="http://creativecommons.org/licenses/by-sa/4.0/deed.en_US" target="_blank">CC BY-SA</a></tspan></text></g></g></svg>