<svg xmlns="http://www.w3.org/2000/svg" version="1.1" style="font-family: 'Helvetica Neue', Helvetica, Arial, sans-serif; font-size: 18px; background-color: white; text-rendering: optimizeLegibility; -webkit-font-smoothing: antialiased;" width="850" height="600"><g class="ChartTab"><g class="HeaderView"><g opacity="0.8" transform="translate(778, 15) scale(0.27)"><a xmlns:xlink="http://www.w3.org/1999/xlink" xlink:href="https://ourworldindata.org" target="_blank"><g><rect x="0" y="0" fill="#1B2543" width="211.2" height="130.1"/><rect x="0" y="112.2" fill="#E63912" width="211.2" height="17.9"/><g><rect x="1.2" y="12.3" fill="none" width="210.2" height="99.2"/><path fill="#FFFFFF" d="M37.8,32.2c0,12.7-7.7,19.4-17.1,19.4c-9.7,0-16.6-7.5-16.6-18.7c0-11.7,7.3-19.3,17.1-19.3 C31.3,13.7,37.8,21.3,37.8,32.2z M9.2,32.8c0,7.9,4.3,14.9,11.8,14.9c7.5,0,11.8-6.9,11.8-15.3c0-7.3-3.8-14.9-11.8-14.9 C13.1,17.5,9.2,24.8,9.2,32.8z"/><path fill="#FFFFFF" d="M62.7,43.8c0,2.7,0.1,5.1,0.2,7.2h-4.3l-0.3-4.3h-0.1c-1.3,2.1-4,4.9-8.8,4.9c-4.2,0-9.1-2.3-9.1-11.6 V24.6h4.8v14.6c0,5,1.5,8.4,5.9,8.4c3.2,0,5.5-2.2,6.3-4.4c0.3-0.7,0.4-1.6,0.4-2.5V24.6h4.8V43.8z"/><path fill="#FFFFFF" d="M67.3,32.8c0-3.1-0.1-5.8-0.2-8.2h4.2l0.2,5.2h0.2c1.2-3.5,4.1-5.8,7.3-5.8c0.5,0,0.9,0.1,1.4,0.2v4.5 c-0.5-0.1-1-0.2-1.6-0.2c-3.4,0-5.8,2.6-6.5,6.2c-0.1,0.7-0.2,1.4-0.2,2.2V51h-4.8V32.8z"/><path fill="#FFFFFF" d="M95.4,51l-9.4-36.8h5l4.4,18.6c1.1,4.6,2.1,9.2,2.7,12.7h0.1c0.6-3.7,1.8-8,3-12.8l4.9-18.5h5l4.5,18.7 c1,4.4,2,8.7,2.6,12.6h0.1c0.8-4,1.8-8.1,3-12.7l4.9-18.5h4.9L120.6,51h-5L111,31.9c-1.1-4.7-1.9-8.3-2.4-12h-0.1 c-0.7,3.7-1.5,7.3-2.8,12L100.4,51H95.4z"/><path fill="#FFFFFF" d="M154.9,37.6c0,9.8-6.8,14-13.2,14c-7.2,0-12.7-5.2-12.7-13.6c0-8.8,5.8-14,13.1-14 C149.8,24,154.9,29.5,154.9,37.6z M133.9,37.9c0,5.8,3.3,10.1,8,10.1c4.6,0,8-4.3,8-10.3c0-4.5-2.2-10.1-7.9-10.1 C136.3,27.6,133.9,32.8,133.9,37.9z"/><path fill="#FFFFFF" d="M158.2,32.8c0-3.1-0.1-5.8-0.2-8.2h4.2l0.2,5.2h0.2c1.2-3.5,4.1-5.8,7.3-5.8c0.5,0,0.9,0.1,1.4,0.2v4.5 c-0.5-0.1-1-0.2-1.6-0.2c-3.4,0-5.8,2.6-6.5,6.2c-0.1,0.7-0.2,1.4-0.2,2.2V51h-4.8V32.8z"/><path fill="#FFFFFF" d="M173.5,12.3h4.8V51h-4.8V12.3z"/><path fill="#FFFFFF" d="M206.5,12.3v31.9c0,2.3,0.1,5,0.2,6.8h-4.3l-0.2-4.6H202c-1.5,2.9-4.7,5.2-9,5.2 c-6.4,0-11.3-5.4-11.3-13.4c-0.1-8.8,5.4-14.2,11.9-14.2c4,0,6.8,1.9,8,4h0.1V12.3H206.5z M201.7,35.4c0-0.6-0.1-1.4-0.2-2 c-0.7-3.1-3.3-5.6-6.9-5.6c-5,0-7.9,4.4-7.9,10.2c0,5.3,2.6,9.8,7.8,9.8c3.2,0,6.2-2.1,7.1-5.7c0.2-0.7,0.2-1.3,0.2-2.1V35.4z"/><path fill="#FFFFFF" d="M42.8,64c0.1,1.6-1.1,2.9-3.1,2.9c-1.7,0-2.9-1.3-2.9-2.9c0-1.7,1.3-3,3-3C41.7,61,42.8,62.3,42.8,64z M37.4,97.8V71.4h4.8v26.4H37.4z"/><path fill="#FFFFFF" d="M47.5,78.6c0-2.7-0.1-5-0.2-7.1h4.3l0.3,4.4h0.1c1.3-2.5,4.4-5,8.8-5c3.7,0,9.4,2.2,9.4,11.2v15.8h-4.8 V82.6c0-4.3-1.6-7.8-6.1-7.8c-3.2,0-5.6,2.2-6.5,4.9c-0.2,0.6-0.3,1.4-0.3,2.2v15.9h-4.8V78.6z"/><path fill="#FFFFFF" d="M84,61.6c2.9-0.4,6.3-0.8,10.1-0.8c6.8,0,11.7,1.6,14.9,4.6c3.3,3,5.2,7.3,5.2,13.2c0,6-1.9,10.9-5.3,14.3 c-3.4,3.4-9.1,5.3-16.3,5.3c-3.4,0-6.2-0.2-8.6-0.4V61.6z M88.8,94.1c1.2,0.2,3,0.3,4.8,0.3c10.2,0,15.7-5.7,15.7-15.6 c0.1-8.7-4.9-14.2-14.9-14.2c-2.5,0-4.3,0.2-5.6,0.5V94.1z"/><path fill="#FFFFFF" d="M132.1,97.8l-0.4-3.3h-0.2c-1.5,2.1-4.3,3.9-8.1,3.9c-5.4,0-8.1-3.8-8.1-7.6c0-6.4,5.7-9.9,15.9-9.8v-0.5 c0-2.2-0.6-6.1-6-6.1c-2.5,0-5,0.8-6.9,2l-1.1-3.2c2.2-1.4,5.4-2.3,8.7-2.3c8.1,0,10.1,5.5,10.1,10.8v9.9c0,2.3,0.1,4.5,0.4,6.3 H132.1z M131.4,84.4c-5.3-0.1-11.2,0.8-11.2,5.9c0,3.1,2.1,4.6,4.5,4.6c3.4,0,5.6-2.2,6.4-4.4c0.2-0.5,0.3-1,0.3-1.5V84.4z"/><path fill="#FFFFFF" d="M146.6,63.9v7.6h6.9v3.7h-6.9v14.2c0,3.3,0.9,5.1,3.6,5.1c1.3,0,2.2-0.2,2.8-0.3l0.2,3.6 c-0.9,0.4-2.4,0.7-4.3,0.7c-2.2,0-4-0.7-5.2-2c-1.4-1.4-1.9-3.8-1.9-6.9V75.1h-4.1v-3.7h4.1v-6.3L146.6,63.9z"/><path fill="#FFFFFF" d="M171.4,97.8l-0.4-3.3h-0.2c-1.5,2.1-4.3,3.9-8.1,3.9c-5.4,0-8.1-3.8-8.1-7.6c0-6.4,5.7-9.9,15.9-9.8v-0.5 c0-2.2-0.6-6.1-6-6.1c-2.5,0-5,0.8-6.9,2l-1.1-3.2c2.2-1.4,5.4-2.3,8.7-2.3c8.1,0,10.1,5.5,10.1,10.8v9.9c0,2.3,0.1,4.5,0.4,6.3 H171.4z M170.7,84.4c-5.3-0.1-11.2,0.8-11.2,5.9c0,3.1,2.1,4.6,4.5,4.6c3.4,0,5.6-2.2,6.4-4.4c0.2-0.5,0.3-1,0.3-1.5V84.4z"/></g></g></a></g><a href="https://ourworldindata.org/grapher/prevalence-of-bipolar-disorder-by-age" target="_blank"><text font-size="25.20" x="15.0" y="35.2" fill="#555"><tspan x="15" y="35.160000000000004">Prevalence of bipolar disorder by age, World</tspan></text></a><text font-size="14.40" x="15.0" y="53.7" fill="#666"><tspan x="15" y="53.72">Share of population within a given age group suffering from bipolar disorder. This is measured across both sexes.</tspan><tspan x="15" y="69.56">Figures attempt to provide a true estimate (going beyond reported diagnosis) of bipolar disorder prevalence based on</tspan><tspan x="15" y="85.4">medical, epidemiological data, surveys and meta-regression modelling.</tspan></text></g><g class="LineChart"><defs><clipPath id="boundsClip-95"><rect x="47.098" y="0" width="830" height="897.8"></rect></clipPath></defs><g class="AxisBoxView"><g class="HorizontalAxis"><text x="57.1" y="556.5" fill="#666" text-anchor="middle" font-size="16.2">1990</text><text x="175" y="556.5" fill="#666" text-anchor="middle" font-size="16.2">1995</text><text x="292.9" y="556.5" fill="#666" text-anchor="middle" font-size="16.2">2000</text><text x="410.8" y="556.5" fill="#666" text-anchor="middle" font-size="16.2">2005</text><text x="528.7" y="556.5" fill="#666" text-anchor="middle" font-size="16.2">2010</text><text x="646.6" y="556.5" fill="#666" text-anchor="middle" font-size="16.2">2015</text><text x="693.8" y="556.5" fill="#666" text-anchor="middle" font-size="16.2">2017</text></g><g class="VerticalAxis"><text x="52.10" y="535.3" fill="#666" dominant-baseline="middle" text-anchor="end" font-size="16.2">0%</text><text x="52.10" y="437.9" fill="#666" dominant-baseline="middle" text-anchor="end" font-size="16.2">0.2%</text><text x="52.10" y="340.4" fill="#666" dominant-baseline="middle" text-anchor="end" font-size="16.2">0.4%</text><text x="52.10" y="243" fill="#666" dominant-baseline="middle" text-anchor="end" font-size="16.2">0.6%</text><text x="52.10" y="145.6" fill="#666" dominant-baseline="middle" text-anchor="end" font-size="16.2">0.8%</text></g><g class="AxisGridLines"><line x1="57.10" y1="535.3" x2="693.75" y2="535.3" stroke="#ccc"></line><line x1="57.10" y1="437.9" x2="693.75" y2="437.9" stroke="#ddd" stroke-dasharray="3,2"></line><line x1="57.10" y1="340.4" x2="693.75" y2="340.4" stroke="#ddd" stroke-dasharray="3,2"></line><line x1="57.10" y1="243" x2="693.75" y2="243" stroke="#ddd" stroke-dasharray="3,2"></line><line x1="57.10" y1="145.6" x2="693.75" y2="145.6" stroke="#ddd" stroke-dasharray="3,2"></line></g></g><g clip-path="url(#boundsClip-95)"><g class="HeightedLegend clickable"><g class="legendMark"><g class="indicator"><line x1="698.755" y1="107.6" x2="711.255" y2="107.6" stroke="#666" stroke-width="0.5"></line><line x1="711.255" y1="107.6" x2="711.255" y2="107.6" stroke="#666" stroke-width="0.5"></line><line x1="711.255" y1="107.6" x2="723.755" y2="107.6" stroke="#666" stroke-width="0.5"></line></g><rect x="693.755" y="100.85" width="128.42000000000002" height="13.5" fill="#fff" opacity="0"></rect><text font-size="13.50" x="728.8" y="111.6" fill="#7ec7ce"><tspan x="728.755" y="111.64999999999999">20-24 years old</tspan></text></g><g class="legendMark"><g class="indicator"><line x1="698.755" y1="133.7" x2="711.255" y2="133.7" stroke="#666" stroke-width="0.5"></line><line x1="711.255" y1="133.7" x2="711.255" y2="133.7" stroke="#666" stroke-width="0.5"></line><line x1="711.255" y1="133.7" x2="723.755" y2="133.7" stroke="#666" stroke-width="0.5"></line></g><rect x="693.755" y="126.94999999999999" width="128.42000000000002" height="13.5" fill="#fff" opacity="0"></rect><text font-size="13.50" x="728.8" y="137.8" fill="#b077b1"><tspan x="728.755" y="137.75">15-49 years old</tspan></text></g><g class="legendMark"><g class="indicator"><line x1="698.755" y1="157.9" x2="721.255" y2="157.9" stroke="#666" stroke-width="0.5"></line><line x1="721.255" y1="157.9" x2="721.255" y2="157.9" stroke="#666" stroke-width="0.5"></line><line x1="721.255" y1="157.9" x2="723.755" y2="157.9" stroke="#666" stroke-width="0.5"></line></g><rect x="693.755" y="151.15" width="128.42000000000002" height="13.5" fill="#fff" opacity="0"></rect><text font-size="13.50" x="728.8" y="162.0" fill="#9ecc8a"><tspan x="728.755" y="161.95000000000002">25-29 years old</tspan></text></g><g class="legendMark"><g class="indicator"><line x1="698.755" y1="157.9" x2="716.255" y2="157.9" stroke="#666" stroke-width="0.5"></line><line x1="716.255" y1="157.9" x2="716.255" y2="173.4" stroke="#666" stroke-width="0.5"></line><line x1="716.255" y1="173.4" x2="723.755" y2="173.4" stroke="#666" stroke-width="0.5"></line></g><rect x="693.755" y="166.65" width="128.42000000000002" height="13.5" fill="#fff" opacity="0"></rect><text font-size="13.50" x="728.8" y="177.5" fill="#ffd53e"><tspan x="728.755" y="177.45000000000002">25-29 years old</tspan></text></g><g class="legendMark"><g class="indicator"><line x1="698.755" y1="162" x2="711.255" y2="162" stroke="#666" stroke-width="0.5"></line><line x1="711.255" y1="162" x2="711.255" y2="188.9" stroke="#666" stroke-width="0.5"></line><line x1="711.255" y1="188.9" x2="723.755" y2="188.9" stroke="#666" stroke-width="0.5"></line></g><rect x="693.755" y="182.15" width="128.42000000000002" height="13.5" fill="#fff" opacity="0"></rect><text font-size="13.50" x="728.8" y="193.0" fill="#e6332e"><tspan x="728.755" y="192.95000000000002">30-34 years old</tspan></text></g><g class="legendMark"><g class="indicator"><line x1="698.755" y1="164.2" x2="706.255" y2="164.2" stroke="#666" stroke-width="0.5"></line><line x1="706.255" y1="164.2" x2="706.255" y2="204.4" stroke="#666" stroke-width="0.5"></line><line x1="706.255" y1="204.4" x2="723.755" y2="204.4" stroke="#666" stroke-width="0.5"></line></g><rect x="693.755" y="197.65" width="128.42000000000002" height="13.5" fill="#fff" opacity="0"></rect><text font-size="13.50" x="728.8" y="208.5" fill="#2a939b"><tspan x="728.755" y="208.45000000000002">50-69 years old</tspan></text></g><g class="legendMark"><g class="indicator"><line x1="698.755" y1="234.2" x2="721.255" y2="234.2" stroke="#666" stroke-width="0.5"></line><line x1="721.255" y1="234.2" x2="721.255" y2="234.2" stroke="#666" stroke-width="0.5"></line><line x1="721.255" y1="234.2" x2="723.755" y2="234.2" stroke="#666" stroke-width="0.5"></line></g><rect x="693.755" y="227.45" width="83.195" height="13.5" fill="#fff" opacity="0"></rect><text font-size="13.50" x="728.8" y="238.3" fill="#a652ba"><tspan x="728.755" y="238.25">All ages</tspan></text></g><g class="legendMark"><g class="indicator"><line x1="698.755" y1="244" x2="711.255" y2="244" stroke="#666" stroke-width="0.5"></line><line x1="711.255" y1="244" x2="711.255" y2="249.7" stroke="#666" stroke-width="0.5"></line><line x1="711.255" y1="249.7" x2="723.755" y2="249.7" stroke="#666" stroke-width="0.5"></line></g><rect x="693.755" y="242.95" width="141.245" height="13.5" fill="#fff" opacity="0"></rect><text font-size="13.50" x="728.8" y="253.8" fill="#f6a324"><tspan x="728.755" y="253.75">Age-standardized</tspan></text></g><g class="legendMark"><g class="indicator"><line x1="698.755" y1="287.4" x2="711.255" y2="287.4" stroke="#666" stroke-width="0.5"></line><line x1="711.255" y1="287.4" x2="711.255" y2="287.4" stroke="#666" stroke-width="0.5"></line><line x1="711.255" y1="287.4" x2="723.755" y2="287.4" stroke="#666" stroke-width="0.5"></line></g><rect x="693.755" y="280.65" width="116.67500000000001" height="13.5" fill="#fff" opacity="0"></rect><text font-size="13.50" x="728.8" y="291.4" fill="#34983f"><tspan x="728.755" y="291.45">70+ years old</tspan></text></g><g class="legendMark"><g class="indicator"><line x1="698.755" y1="394.1" x2="711.255" y2="394.1" stroke="#666" stroke-width="0.5"></line><line x1="711.255" y1="394.1" x2="711.255" y2="394.1" stroke="#666" stroke-width="0.5"></line><line x1="711.255" y1="394.1" x2="723.755" y2="394.1" stroke="#666" stroke-width="0.5"></line></g><rect x="693.755" y="387.35" width="128.42000000000002" height="13.5" fill="#fff" opacity="0"></rect><text font-size="13.50" x="728.8" y="398.2" fill="#ca2628"><tspan x="728.755" y="398.15000000000003">10-14 years old</tspan></text></g><g class="legendMark"><g class="indicator"><line x1="698.755" y1="466" x2="711.255" y2="466" stroke="#666" stroke-width="0.5"></line><line x1="711.255" y1="466" x2="711.255" y2="466" stroke="#666" stroke-width="0.5"></line><line x1="711.255" y1="466" x2="723.755" y2="466" stroke="#666" stroke-width="0.5"></line></g><rect x="693.755" y="459.25" width="120.86" height="13.5" fill="#fff" opacity="0"></rect><text font-size="13.50" x="728.8" y="470.1" fill="#3360a9"><tspan x="728.755" y="470.05">5-14 years old</tspan></text></g></g><g class="Lines"><rect x="57" y="108" width="637" height="428" fill="rgba(255,255,255,0)" opacity="0"></rect><g class="key-World_0"><path stroke="#9ecc8a" stroke-linecap="round" d="M57 165L81 168L104 170L128 172L151 172L175 172L199 171L222 170L246 169L269 168L293 166L317 164L340 161L364 159L387 157L411 155L434 153L458 152L482 151L505 151L529 152L552 154L576 157L599 159L623 160L647 160L670 160L694 158" fill="none" stroke-width="1.5"></path><g fill="#9ecc8a"><circle cx="57" cy="165" r="2"></circle><circle cx="81" cy="168" r="2"></circle><circle cx="104" cy="170" r="2"></circle><circle cx="128" cy="172" r="2"></circle><circle cx="151" cy="172" r="2"></circle><circle cx="175" cy="172" r="2"></circle><circle cx="199" cy="171" r="2"></circle><circle cx="222" cy="170" r="2"></circle><circle cx="246" cy="169" r="2"></circle><circle cx="269" cy="168" r="2"></circle><circle cx="293" cy="166" r="2"></circle><circle cx="317" cy="164" r="2"></circle><circle cx="340" cy="161" r="2"></circle><circle cx="364" cy="159" r="2"></circle><circle cx="387" cy="157" r="2"></circle><circle cx="411" cy="155" r="2"></circle><circle cx="434" cy="153" r="2"></circle><circle cx="458" cy="152" r="2"></circle><circle cx="482" cy="151" r="2"></circle><circle cx="505" cy="151" r="2"></circle><circle cx="529" cy="152" r="2"></circle><circle cx="552" cy="154" r="2"></circle><circle cx="576" cy="157" r="2"></circle><circle cx="599" cy="159" r="2"></circle><circle cx="623" cy="160" r="2"></circle><circle cx="647" cy="160" r="2"></circle><circle cx="670" cy="160" r="2"></circle><circle cx="694" cy="158" r="2"></circle></g></g><g class="key-World_1"><path stroke="#ca2628" stroke-linecap="round" d="M57 402L81 401L104 401L128 400L151 401L175 401L199 401L222 402L246 403L269 403L293 403L317 402L340 401L364 400L387 399L411 398L434 398L458 397L482 397L505 396L529 396L552 396L576 395L599 395L623 395L647 395L670 394L694 394" fill="none" stroke-width="1.5"></path><g fill="#ca2628"><circle cx="57" cy="402" r="2"></circle><circle cx="81" cy="401" r="2"></circle><circle cx="104" cy="401" r="2"></circle><circle cx="128" cy="400" r="2"></circle><circle cx="151" cy="401" r="2"></circle><circle cx="175" cy="401" r="2"></circle><circle cx="199" cy="401" r="2"></circle><circle cx="222" cy="402" r="2"></circle><circle cx="246" cy="403" r="2"></circle><circle cx="269" cy="403" r="2"></circle><circle cx="293" cy="403" r="2"></circle><circle cx="317" cy="402" r="2"></circle><circle cx="340" cy="401" r="2"></circle><circle cx="364" cy="400" r="2"></circle><circle cx="387" cy="399" r="2"></circle><circle cx="411" cy="398" r="2"></circle><circle cx="434" cy="398" r="2"></circle><circle cx="458" cy="397" r="2"></circle><circle cx="482" cy="397" r="2"></circle><circle cx="505" cy="396" r="2"></circle><circle cx="529" cy="396" r="2"></circle><circle cx="552" cy="396" r="2"></circle><circle cx="576" cy="395" r="2"></circle><circle cx="599" cy="395" r="2"></circle><circle cx="623" cy="395" r="2"></circle><circle cx="647" cy="395" r="2"></circle><circle cx="670" cy="394" r="2"></circle><circle cx="694" cy="394" r="2"></circle></g></g><g class="key-World_10"><path stroke="#e6332e" stroke-linecap="round" d="M57 165L81 163L104 164L128 166L151 169L175 172L199 175L222 177L246 178L269 178L293 178L317 177L340 176L364 175L387 173L411 171L434 169L458 167L482 164L505 161L529 159L552 158L576 156L599 156L623 156L647 158L670 160L694 162" fill="none" stroke-width="1.5"></path><g fill="#e6332e"><circle cx="57" cy="165" r="2"></circle><circle cx="81" cy="163" r="2"></circle><circle cx="104" cy="164" r="2"></circle><circle cx="128" cy="166" r="2"></circle><circle cx="151" cy="169" r="2"></circle><circle cx="175" cy="172" r="2"></circle><circle cx="199" cy="175" r="2"></circle><circle cx="222" cy="177" r="2"></circle><circle cx="246" cy="178" r="2"></circle><circle cx="269" cy="178" r="2"></circle><circle cx="293" cy="178" r="2"></circle><circle cx="317" cy="177" r="2"></circle><circle cx="340" cy="176" r="2"></circle><circle cx="364" cy="175" r="2"></circle><circle cx="387" cy="173" r="2"></circle><circle cx="411" cy="171" r="2"></circle><circle cx="434" cy="169" r="2"></circle><circle cx="458" cy="167" r="2"></circle><circle cx="482" cy="164" r="2"></circle><circle cx="505" cy="161" r="2"></circle><circle cx="529" cy="159" r="2"></circle><circle cx="552" cy="158" r="2"></circle><circle cx="576" cy="156" r="2"></circle><circle cx="599" cy="156" r="2"></circle><circle cx="623" cy="156" r="2"></circle><circle cx="647" cy="158" r="2"></circle><circle cx="670" cy="160" r="2"></circle><circle cx="694" cy="162" r="2"></circle></g></g><g class="key-World_2"><path stroke="#7ec7ce" stroke-linecap="round" d="M57 133L81 132L104 131L128 129L151 127L175 125L199 123L222 120L246 118L269 115L293 113L317 112L340 111L364 110L387 111L411 112L434 114L458 117L482 119L505 120L529 120L552 119L576 117L599 115L623 113L647 111L670 109L694 108" fill="none" stroke-width="1.5"></path><g fill="#7ec7ce"><circle cx="57" cy="133" r="2"></circle><circle cx="81" cy="132" r="2"></circle><circle cx="104" cy="131" r="2"></circle><circle cx="128" cy="129" r="2"></circle><circle cx="151" cy="127" r="2"></circle><circle cx="175" cy="125" r="2"></circle><circle cx="199" cy="123" r="2"></circle><circle cx="222" cy="120" r="2"></circle><circle cx="246" cy="118" r="2"></circle><circle cx="269" cy="115" r="2"></circle><circle cx="293" cy="113" r="2"></circle><circle cx="317" cy="112" r="2"></circle><circle cx="340" cy="111" r="2"></circle><circle cx="364" cy="110" r="2"></circle><circle cx="387" cy="111" r="2"></circle><circle cx="411" cy="112" r="2"></circle><circle cx="434" cy="114" r="2"></circle><circle cx="458" cy="117" r="2"></circle><circle cx="482" cy="119" r="2"></circle><circle cx="505" cy="120" r="2"></circle><circle cx="529" cy="120" r="2"></circle><circle cx="552" cy="119" r="2"></circle><circle cx="576" cy="117" r="2"></circle><circle cx="599" cy="115" r="2"></circle><circle cx="623" cy="113" r="2"></circle><circle cx="647" cy="111" r="2"></circle><circle cx="670" cy="109" r="2"></circle><circle cx="694" cy="108" r="2"></circle></g></g><g class="key-World_3"><path stroke="#3360a9" stroke-linecap="round" d="M57 471L81 471L104 471L128 471L151 471L175 471L199 470L222 470L246 469L269 469L293 468L317 468L340 467L364 467L387 467L411 466L434 466L458 466L482 466L505 466L529 466L552 466L576 466L599 466L623 466L647 466L670 466L694 466" fill="none" stroke-width="1.5"></path><g fill="#3360a9"><circle cx="57" cy="471" r="2"></circle><circle cx="81" cy="471" r="2"></circle><circle cx="104" cy="471" r="2"></circle><circle cx="128" cy="471" r="2"></circle><circle cx="151" cy="471" r="2"></circle><circle cx="175" cy="471" r="2"></circle><circle cx="199" cy="470" r="2"></circle><circle cx="222" cy="470" r="2"></circle><circle cx="246" cy="469" r="2"></circle><circle cx="269" cy="469" r="2"></circle><circle cx="293" cy="468" r="2"></circle><circle cx="317" cy="468" r="2"></circle><circle cx="340" cy="467" r="2"></circle><circle cx="364" cy="467" r="2"></circle><circle cx="387" cy="467" r="2"></circle><circle cx="411" cy="466" r="2"></circle><circle cx="434" cy="466" r="2"></circle><circle cx="458" cy="466" r="2"></circle><circle cx="482" cy="466" r="2"></circle><circle cx="505" cy="466" r="2"></circle><circle cx="529" cy="466" r="2"></circle><circle cx="552" cy="466" r="2"></circle><circle cx="576" cy="466" r="2"></circle><circle cx="599" cy="466" r="2"></circle><circle cx="623" cy="466" r="2"></circle><circle cx="647" cy="466" r="2"></circle><circle cx="670" cy="466" r="2"></circle><circle cx="694" cy="466" r="2"></circle></g></g><g class="key-World_4"><path stroke="#b077b1" stroke-linecap="round" d="M57 144L81 144L104 144L128 143L151 143L175 143L199 142L222 142L246 142L269 142L293 142L317 142L340 141L364 141L387 141L411 141L434 140L458 140L482 139L505 138L529 138L552 138L576 137L599 137L623 136L647 135L670 134L694 134" fill="none" stroke-width="1.5"></path><g fill="#b077b1"><circle cx="57" cy="144" r="2"></circle><circle cx="81" cy="144" r="2"></circle><circle cx="104" cy="144" r="2"></circle><circle cx="128" cy="143" r="2"></circle><circle cx="151" cy="143" r="2"></circle><circle cx="175" cy="143" r="2"></circle><circle cx="199" cy="142" r="2"></circle><circle cx="222" cy="142" r="2"></circle><circle cx="246" cy="142" r="2"></circle><circle cx="269" cy="142" r="2"></circle><circle cx="293" cy="142" r="2"></circle><circle cx="317" cy="142" r="2"></circle><circle cx="340" cy="141" r="2"></circle><circle cx="364" cy="141" r="2"></circle><circle cx="387" cy="141" r="2"></circle><circle cx="411" cy="141" r="2"></circle><circle cx="434" cy="140" r="2"></circle><circle cx="458" cy="140" r="2"></circle><circle cx="482" cy="139" r="2"></circle><circle cx="505" cy="138" r="2"></circle><circle cx="529" cy="138" r="2"></circle><circle cx="552" cy="138" r="2"></circle><circle cx="576" cy="137" r="2"></circle><circle cx="599" cy="137" r="2"></circle><circle cx="623" cy="136" r="2"></circle><circle cx="647" cy="135" r="2"></circle><circle cx="670" cy="134" r="2"></circle><circle cx="694" cy="134" r="2"></circle></g></g><g class="key-World_5"><path stroke="#f6a324" stroke-linecap="round" d="M57 250L81 250L104 250L128 250L151 249L175 249L199 249L222 249L246 249L269 249L293 249L317 249L340 249L364 249L387 249L411 248L434 248L458 248L482 248L505 247L529 247L552 246L576 246L599 246L623 245L647 245L670 244L694 244" fill="none" stroke-width="1.5"></path><g fill="#f6a324"><circle cx="57" cy="250" r="2"></circle><circle cx="81" cy="250" r="2"></circle><circle cx="104" cy="250" r="2"></circle><circle cx="128" cy="250" r="2"></circle><circle cx="151" cy="249" r="2"></circle><circle cx="175" cy="249" r="2"></circle><circle cx="199" cy="249" r="2"></circle><circle cx="222" cy="249" r="2"></circle><circle cx="246" cy="249" r="2"></circle><circle cx="269" cy="249" r="2"></circle><circle cx="293" cy="249" r="2"></circle><circle cx="317" cy="249" r="2"></circle><circle cx="340" cy="249" r="2"></circle><circle cx="364" cy="249" r="2"></circle><circle cx="387" cy="249" r="2"></circle><circle cx="411" cy="248" r="2"></circle><circle cx="434" cy="248" r="2"></circle><circle cx="458" cy="248" r="2"></circle><circle cx="482" cy="248" r="2"></circle><circle cx="505" cy="247" r="2"></circle><circle cx="529" cy="247" r="2"></circle><circle cx="552" cy="246" r="2"></circle><circle cx="576" cy="246" r="2"></circle><circle cx="599" cy="246" r="2"></circle><circle cx="623" cy="245" r="2"></circle><circle cx="647" cy="245" r="2"></circle><circle cx="670" cy="244" r="2"></circle><circle cx="694" cy="244" r="2"></circle></g></g><g class="key-World_6"><path stroke="#2a939b" stroke-linecap="round" d="M57 156L81 156L104 156L128 157L151 157L175 157L199 158L222 158L246 158L269 159L293 159L317 159L340 159L364 160L387 160L411 161L434 161L458 161L482 161L505 161L529 160L552 160L576 161L599 161L623 162L647 163L670 164L694 164" fill="none" stroke-width="1.5"></path><g fill="#2a939b"><circle cx="57" cy="156" r="2"></circle><circle cx="81" cy="156" r="2"></circle><circle cx="104" cy="156" r="2"></circle><circle cx="128" cy="157" r="2"></circle><circle cx="151" cy="157" r="2"></circle><circle cx="175" cy="157" r="2"></circle><circle cx="199" cy="158" r="2"></circle><circle cx="222" cy="158" r="2"></circle><circle cx="246" cy="158" r="2"></circle><circle cx="269" cy="159" r="2"></circle><circle cx="293" cy="159" r="2"></circle><circle cx="317" cy="159" r="2"></circle><circle cx="340" cy="159" r="2"></circle><circle cx="364" cy="160" r="2"></circle><circle cx="387" cy="160" r="2"></circle><circle cx="411" cy="161" r="2"></circle><circle cx="434" cy="161" r="2"></circle><circle cx="458" cy="161" r="2"></circle><circle cx="482" cy="161" r="2"></circle><circle cx="505" cy="161" r="2"></circle><circle cx="529" cy="160" r="2"></circle><circle cx="552" cy="160" r="2"></circle><circle cx="576" cy="161" r="2"></circle><circle cx="599" cy="161" r="2"></circle><circle cx="623" cy="162" r="2"></circle><circle cx="647" cy="163" r="2"></circle><circle cx="670" cy="164" r="2"></circle><circle cx="694" cy="164" r="2"></circle></g></g><g class="key-World_7"><path stroke="#34983f" stroke-linecap="round" d="M57 276L81 276L104 276L128 276L151 276L175 276L199 276L222 276L246 276L269 277L293 277L317 277L340 278L364 279L387 280L411 280L434 281L458 282L482 282L505 283L529 283L552 284L576 285L599 285L623 286L647 287L670 287L694 287" fill="none" stroke-width="1.5"></path><g fill="#34983f"><circle cx="57" cy="276" r="2"></circle><circle cx="81" cy="276" r="2"></circle><circle cx="104" cy="276" r="2"></circle><circle cx="128" cy="276" r="2"></circle><circle cx="151" cy="276" r="2"></circle><circle cx="175" cy="276" r="2"></circle><circle cx="199" cy="276" r="2"></circle><circle cx="222" cy="276" r="2"></circle><circle cx="246" cy="276" r="2"></circle><circle cx="269" cy="277" r="2"></circle><circle cx="293" cy="277" r="2"></circle><circle cx="317" cy="277" r="2"></circle><circle cx="340" cy="278" r="2"></circle><circle cx="364" cy="279" r="2"></circle><circle cx="387" cy="280" r="2"></circle><circle cx="411" cy="280" r="2"></circle><circle cx="434" cy="281" r="2"></circle><circle cx="458" cy="282" r="2"></circle><circle cx="482" cy="282" r="2"></circle><circle cx="505" cy="283" r="2"></circle><circle cx="529" cy="283" r="2"></circle><circle cx="552" cy="284" r="2"></circle><circle cx="576" cy="285" r="2"></circle><circle cx="599" cy="285" r="2"></circle><circle cx="623" cy="286" r="2"></circle><circle cx="647" cy="287" r="2"></circle><circle cx="670" cy="287" r="2"></circle><circle cx="694" cy="287" r="2"></circle></g></g><g class="key-World_8"><path stroke="#ffd53e" stroke-linecap="round" d="M57 165L81 168L104 170L128 172L151 172L175 172L199 171L222 170L246 169L269 168L293 166L317 164L340 161L364 159L387 157L411 155L434 153L458 152L482 151L505 151L529 152L552 154L576 157L599 159L623 160L647 160L670 160L694 158" fill="none" stroke-width="1.5"></path><g fill="#ffd53e"><circle cx="57" cy="165" r="2"></circle><circle cx="81" cy="168" r="2"></circle><circle cx="104" cy="170" r="2"></circle><circle cx="128" cy="172" r="2"></circle><circle cx="151" cy="172" r="2"></circle><circle cx="175" cy="172" r="2"></circle><circle cx="199" cy="171" r="2"></circle><circle cx="222" cy="170" r="2"></circle><circle cx="246" cy="169" r="2"></circle><circle cx="269" cy="168" r="2"></circle><circle cx="293" cy="166" r="2"></circle><circle cx="317" cy="164" r="2"></circle><circle cx="340" cy="161" r="2"></circle><circle cx="364" cy="159" r="2"></circle><circle cx="387" cy="157" r="2"></circle><circle cx="411" cy="155" r="2"></circle><circle cx="434" cy="153" r="2"></circle><circle cx="458" cy="152" r="2"></circle><circle cx="482" cy="151" r="2"></circle><circle cx="505" cy="151" r="2"></circle><circle cx="529" cy="152" r="2"></circle><circle cx="552" cy="154" r="2"></circle><circle cx="576" cy="157" r="2"></circle><circle cx="599" cy="159" r="2"></circle><circle cx="623" cy="160" r="2"></circle><circle cx="647" cy="160" r="2"></circle><circle cx="670" cy="160" r="2"></circle><circle cx="694" cy="158" r="2"></circle></g></g><g class="key-World_9"><path stroke="#a652ba" stroke-linecap="round" d="M57 260L81 260L104 259L128 258L151 257L175 256L199 255L222 254L246 253L269 251L293 250L317 249L340 247L364 246L387 245L411 243L434 242L458 241L482 240L505 239L529 238L552 238L576 237L599 237L623 236L647 236L670 235L694 234" fill="none" stroke-width="1.5"></path><g fill="#a652ba"><circle cx="57" cy="260" r="2"></circle><circle cx="81" cy="260" r="2"></circle><circle cx="104" cy="259" r="2"></circle><circle cx="128" cy="258" r="2"></circle><circle cx="151" cy="257" r="2"></circle><circle cx="175" cy="256" r="2"></circle><circle cx="199" cy="255" r="2"></circle><circle cx="222" cy="254" r="2"></circle><circle cx="246" cy="253" r="2"></circle><circle cx="269" cy="251" r="2"></circle><circle cx="293" cy="250" r="2"></circle><circle cx="317" cy="249" r="2"></circle><circle cx="340" cy="247" r="2"></circle><circle cx="364" cy="246" r="2"></circle><circle cx="387" cy="245" r="2"></circle><circle cx="411" cy="243" r="2"></circle><circle cx="434" cy="242" r="2"></circle><circle cx="458" cy="241" r="2"></circle><circle cx="482" cy="240" r="2"></circle><circle cx="505" cy="239" r="2"></circle><circle cx="529" cy="238" r="2"></circle><circle cx="552" cy="238" r="2"></circle><circle cx="576" cy="237" r="2"></circle><circle cx="599" cy="237" r="2"></circle><circle cx="623" cy="236" r="2"></circle><circle cx="647" cy="236" r="2"></circle><circle cx="670" cy="235" r="2"></circle><circle cx="694" cy="234" r="2"></circle></g></g></g></g></g><g style="fill: #777;" class="SourcesFooter"><g style="fill: #777;" class="clickable"><text font-size="12.60" x="15.0" y="581.6"><tspan x="15" y="581.58">Source: IHME, Global Burden of Disease</tspan></text></g><text font-size="12.60" x="775.4" y="581.6"><tspan x="775.402" y="581.58"><a style="fill: #777;" class="cclogo" href="http://creativecommons.org/licenses/by-sa/4.0/deed.en_US" target="_blank">CC BY-SA</a></tspan></text></g></g></svg>