<svg xmlns="http://www.w3.org/2000/svg" version="1.1" style="font-family: 'Helvetica Neue', Helvetica, Arial, sans-serif; font-size: 18px; background-color: white; text-rendering: optimizeLegibility; -webkit-font-smoothing: antialiased;" width="850" height="600"><g class="ChartTab"><g class="HeaderView"><g opacity="0.8" transform="translate(778, 15) scale(0.27)"><a xmlns:xlink="http://www.w3.org/1999/xlink" xlink:href="https://ourworldindata.org" target="_blank"><g><rect x="0" y="0" fill="#1B2543" width="211.2" height="130.1"/><rect x="0" y="112.2" fill="#E63912" width="211.2" height="17.9"/><g><rect x="1.2" y="12.3" fill="none" width="210.2" height="99.2"/><path fill="#FFFFFF" d="M37.8,32.2c0,12.7-7.7,19.4-17.1,19.4c-9.7,0-16.6-7.5-16.6-18.7c0-11.7,7.3-19.3,17.1-19.3 C31.3,13.7,37.8,21.3,37.8,32.2z M9.2,32.8c0,7.9,4.3,14.9,11.8,14.9c7.5,0,11.8-6.9,11.8-15.3c0-7.3-3.8-14.9-11.8-14.9 C13.1,17.5,9.2,24.8,9.2,32.8z"/><path fill="#FFFFFF" d="M62.7,43.8c0,2.7,0.1,5.1,0.2,7.2h-4.3l-0.3-4.3h-0.1c-1.3,2.1-4,4.9-8.8,4.9c-4.2,0-9.1-2.3-9.1-11.6 V24.6h4.8v14.6c0,5,1.5,8.4,5.9,8.4c3.2,0,5.5-2.2,6.3-4.4c0.3-0.7,0.4-1.6,0.4-2.5V24.6h4.8V43.8z"/><path fill="#FFFFFF" d="M67.3,32.8c0-3.1-0.1-5.8-0.2-8.2h4.2l0.2,5.2h0.2c1.2-3.5,4.1-5.8,7.3-5.8c0.5,0,0.9,0.1,1.4,0.2v4.5 c-0.5-0.1-1-0.2-1.6-0.2c-3.4,0-5.8,2.6-6.5,6.2c-0.1,0.7-0.2,1.4-0.2,2.2V51h-4.8V32.8z"/><path fill="#FFFFFF" d="M95.4,51l-9.4-36.8h5l4.4,18.6c1.1,4.6,2.1,9.2,2.7,12.7h0.1c0.6-3.7,1.8-8,3-12.8l4.9-18.5h5l4.5,18.7 c1,4.4,2,8.7,2.6,12.6h0.1c0.8-4,1.8-8.1,3-12.7l4.9-18.5h4.9L120.6,51h-5L111,31.9c-1.1-4.7-1.9-8.3-2.4-12h-0.1 c-0.7,3.7-1.5,7.3-2.8,12L100.4,51H95.4z"/><path fill="#FFFFFF" d="M154.9,37.6c0,9.8-6.8,14-13.2,14c-7.2,0-12.7-5.2-12.7-13.6c0-8.8,5.8-14,13.1-14 C149.8,24,154.9,29.5,154.9,37.6z M133.9,37.9c0,5.8,3.3,10.1,8,10.1c4.6,0,8-4.3,8-10.3c0-4.5-2.2-10.1-7.9-10.1 C136.3,27.6,133.9,32.8,133.9,37.9z"/><path fill="#FFFFFF" d="M158.2,32.8c0-3.1-0.1-5.8-0.2-8.2h4.2l0.2,5.2h0.2c1.2-3.5,4.1-5.8,7.3-5.8c0.5,0,0.9,0.1,1.4,0.2v4.5 c-0.5-0.1-1-0.2-1.6-0.2c-3.4,0-5.8,2.6-6.5,6.2c-0.1,0.7-0.2,1.4-0.2,2.2V51h-4.8V32.8z"/><path fill="#FFFFFF" d="M173.5,12.3h4.8V51h-4.8V12.3z"/><path fill="#FFFFFF" d="M206.5,12.3v31.9c0,2.3,0.1,5,0.2,6.8h-4.3l-0.2-4.6H202c-1.5,2.9-4.7,5.2-9,5.2 c-6.4,0-11.3-5.4-11.3-13.4c-0.1-8.8,5.4-14.2,11.9-14.2c4,0,6.8,1.9,8,4h0.1V12.3H206.5z M201.7,35.4c0-0.6-0.1-1.4-0.2-2 c-0.7-3.1-3.3-5.6-6.9-5.6c-5,0-7.9,4.4-7.9,10.2c0,5.3,2.6,9.8,7.8,9.8c3.2,0,6.2-2.1,7.1-5.7c0.2-0.7,0.2-1.3,0.2-2.1V35.4z"/><path fill="#FFFFFF" d="M42.8,64c0.1,1.6-1.1,2.9-3.1,2.9c-1.7,0-2.9-1.3-2.9-2.9c0-1.7,1.3-3,3-3C41.7,61,42.8,62.3,42.8,64z M37.4,97.8V71.4h4.8v26.4H37.4z"/><path fill="#FFFFFF" d="M47.5,78.6c0-2.7-0.1-5-0.2-7.1h4.3l0.3,4.4h0.1c1.3-2.5,4.4-5,8.8-5c3.7,0,9.4,2.2,9.4,11.2v15.8h-4.8 V82.6c0-4.3-1.6-7.8-6.1-7.8c-3.2,0-5.6,2.2-6.5,4.9c-0.2,0.6-0.3,1.4-0.3,2.2v15.9h-4.8V78.6z"/><path fill="#FFFFFF" d="M84,61.6c2.9-0.4,6.3-0.8,10.1-0.8c6.8,0,11.7,1.6,14.9,4.6c3.3,3,5.2,7.3,5.2,13.2c0,6-1.9,10.9-5.3,14.3 c-3.4,3.4-9.1,5.3-16.3,5.3c-3.4,0-6.2-0.2-8.6-0.4V61.6z M88.8,94.1c1.2,0.2,3,0.3,4.8,0.3c10.2,0,15.7-5.7,15.7-15.6 c0.1-8.7-4.9-14.2-14.9-14.2c-2.5,0-4.3,0.2-5.6,0.5V94.1z"/><path fill="#FFFFFF" d="M132.1,97.8l-0.4-3.3h-0.2c-1.5,2.1-4.3,3.9-8.1,3.9c-5.4,0-8.1-3.8-8.1-7.6c0-6.4,5.7-9.9,15.9-9.8v-0.5 c0-2.2-0.6-6.1-6-6.1c-2.5,0-5,0.8-6.9,2l-1.1-3.2c2.2-1.4,5.4-2.3,8.7-2.3c8.1,0,10.1,5.5,10.1,10.8v9.9c0,2.3,0.1,4.5,0.4,6.3 H132.1z M131.4,84.4c-5.3-0.1-11.2,0.8-11.2,5.9c0,3.1,2.1,4.6,4.5,4.6c3.4,0,5.6-2.2,6.4-4.4c0.2-0.5,0.3-1,0.3-1.5V84.4z"/><path fill="#FFFFFF" d="M146.6,63.9v7.6h6.9v3.7h-6.9v14.2c0,3.3,0.9,5.1,3.6,5.1c1.3,0,2.2-0.2,2.8-0.3l0.2,3.6 c-0.9,0.4-2.4,0.7-4.3,0.7c-2.2,0-4-0.7-5.2-2c-1.4-1.4-1.9-3.8-1.9-6.9V75.1h-4.1v-3.7h4.1v-6.3L146.6,63.9z"/><path fill="#FFFFFF" d="M171.4,97.8l-0.4-3.3h-0.2c-1.5,2.1-4.3,3.9-8.1,3.9c-5.4,0-8.1-3.8-8.1-7.6c0-6.4,5.7-9.9,15.9-9.8v-0.5 c0-2.2-0.6-6.1-6-6.1c-2.5,0-5,0.8-6.9,2l-1.1-3.2c2.2-1.4,5.4-2.3,8.7-2.3c8.1,0,10.1,5.5,10.1,10.8v9.9c0,2.3,0.1,4.5,0.4,6.3 H171.4z M170.7,84.4c-5.3-0.1-11.2,0.8-11.2,5.9c0,3.1,2.1,4.6,4.5,4.6c3.4,0,5.6-2.2,6.4-4.4c0.2-0.5,0.3-1,0.3-1.5V84.4z"/></g></g></a></g><a href="https://ourworldindata.org/grapher/producer-price-index-of-cereal-crops-2004-2006-100" target="_blank"><text font-size="23.40" x="15.0" y="33.7" fill="#555"><tspan x="15" y="33.72">Producer price index of cereal crops (2004-2006 = 100), United States</tspan></text></a><text font-size="14.40" x="15.0" y="51.9" fill="#666"><tspan x="15" y="51.919999999999995">Producer price index of specific cereal commodities by country, from 1991 relative to the three-year average price</tspan><tspan x="15" y="67.75999999999999">over 2004-2006 (i.e. 2004-2006 = 100). </tspan></text></g><g class="LineChart"><defs><clipPath id="boundsClip-121"><rect x="37.216" y="0" width="830" height="932.4000000000001"></rect></clipPath></defs><g class="AxisBoxView"><g class="HorizontalAxis"><text x="47.2" y="556.5" fill="#666" text-anchor="middle" font-size="16.2">1991</text><text x="141.7" y="556.5" fill="#666" text-anchor="middle" font-size="16.2">1995</text><text x="259.9" y="556.5" fill="#666" text-anchor="middle" font-size="16.2">2000</text><text x="378" y="556.5" fill="#666" text-anchor="middle" font-size="16.2">2005</text><text x="496.1" y="556.5" fill="#666" text-anchor="middle" font-size="16.2">2010</text><text x="590.6" y="556.5" fill="#666" text-anchor="middle" font-size="16.2">2014</text></g><g class="VerticalAxis"><text x="42.22" y="535.3" fill="#666" dominant-baseline="middle" text-anchor="end" font-size="16.2">0</text><text x="42.22" y="458.7" fill="#666" dominant-baseline="middle" text-anchor="end" font-size="16.2">50</text><text x="42.22" y="382" fill="#666" dominant-baseline="middle" text-anchor="end" font-size="16.2">100</text><text x="42.22" y="305.4" fill="#666" dominant-baseline="middle" text-anchor="end" font-size="16.2">150</text><text x="42.22" y="228.8" fill="#666" dominant-baseline="middle" text-anchor="end" font-size="16.2">200</text><text x="42.22" y="152.2" fill="#666" dominant-baseline="middle" text-anchor="end" font-size="16.2">250</text></g><g class="AxisGridLines"><line x1="47.22" y1="535.3" x2="590.62" y2="535.3" stroke="#ccc"></line><line x1="47.22" y1="458.7" x2="590.62" y2="458.7" stroke="#ddd" stroke-dasharray="3,2"></line><line x1="47.22" y1="382" x2="590.62" y2="382" stroke="#ddd" stroke-dasharray="3,2"></line><line x1="47.22" y1="305.4" x2="590.62" y2="305.4" stroke="#ddd" stroke-dasharray="3,2"></line><line x1="47.22" y1="228.8" x2="590.62" y2="228.8" stroke="#ddd" stroke-dasharray="3,2"></line><line x1="47.22" y1="152.2" x2="590.62" y2="152.2" stroke="#ddd" stroke-dasharray="3,2"></line></g></g><g clip-path="url(#boundsClip-121)"><g class="HeightedLegend clickable"><g class="legendMark"><g class="indicator"><line x1="595.615" y1="225.8" x2="608.115" y2="225.8" stroke="#666" stroke-width="0.5"></line><line x1="608.115" y1="225.8" x2="608.115" y2="225.8" stroke="#666" stroke-width="0.5"></line><line x1="608.115" y1="225.8" x2="620.615" y2="225.8" stroke="#666" stroke-width="0.5"></line></g><rect x="590.615" y="219.05" width="244.38500000000002" height="13.5" fill="#fff" opacity="0"></rect><text font-size="13.50" x="625.6" y="229.9" fill="#f6a324"><tspan x="625.615" y="229.85000000000002">Annual barley producer price index</tspan></text></g><g class="legendMark"><g class="indicator"><line x1="595.615" y1="277.5" x2="614.7816666666666" y2="277.5" stroke="#666" stroke-width="0.5"></line><line x1="614.7816666666666" y1="277.5" x2="614.7816666666666" y2="277.5" stroke="#666" stroke-width="0.5"></line><line x1="614.7816666666666" y1="277.5" x2="620.615" y2="277.5" stroke="#666" stroke-width="0.5"></line></g><rect x="590.615" y="263.45" width="237.63500000000002" height="28.1" fill="#fff" opacity="0"></rect><text font-size="13.50" x="625.6" y="274.3" fill="#34983f"><tspan x="625.615" y="274.25">Annual rice, paddy producer price</tspan><tspan x="625.615" y="289.1">index</tspan></text></g><g class="legendMark"><g class="indicator"><line x1="595.615" y1="287.4" x2="608.115" y2="287.4" stroke="#666" stroke-width="0.5"></line><line x1="608.115" y1="287.4" x2="608.115" y2="300.3" stroke="#666" stroke-width="0.5"></line><line x1="608.115" y1="300.3" x2="620.615" y2="300.3" stroke="#666" stroke-width="0.5"></line></g><rect x="590.615" y="293.55" width="243.71" height="13.5" fill="#fff" opacity="0"></rect><text font-size="13.50" x="625.6" y="304.4" fill="#ca2628"><tspan x="625.615" y="304.35">Annual wheat producer price index</tspan></text></g><g class="legendMark"><g class="indicator"><line x1="595.615" y1="298.8" x2="601.4483333333334" y2="298.8" stroke="#666" stroke-width="0.5"></line><line x1="601.4483333333334" y1="298.8" x2="601.4483333333334" y2="315.8" stroke="#666" stroke-width="0.5"></line><line x1="601.4483333333334" y1="315.8" x2="620.615" y2="315.8" stroke="#666" stroke-width="0.5"></line></g><rect x="590.615" y="309.05" width="243.57500000000002" height="13.5" fill="#fff" opacity="0"></rect><text font-size="13.50" x="625.6" y="319.9" fill="#3360a9"><tspan x="625.615" y="319.85">Annual maize producer price index</tspan></text></g></g><g class="Lines"><rect x="47" y="90" width="543" height="445" fill="rgba(255,255,255,0)" opacity="0"></rect><g class="key-United-States_0"><path stroke="#ca2628" stroke-linecap="round" d="M47 415L71 401L95 400L118 392L142 347L165 338L189 396L213 426L236 433L260 427L284 420L307 388L331 394L354 394L378 393L402 358L425 267L449 255L473 334L496 300L520 236L543 213L567 251L591 287" fill="none" stroke-width="1.5"></path><g fill="#ca2628"><circle cx="47" cy="415" r="2"></circle><circle cx="71" cy="401" r="2"></circle><circle cx="95" cy="400" r="2"></circle><circle cx="118" cy="392" r="2"></circle><circle cx="142" cy="347" r="2"></circle><circle cx="165" cy="338" r="2"></circle><circle cx="189" cy="396" r="2"></circle><circle cx="213" cy="426" r="2"></circle><circle cx="236" cy="433" r="2"></circle><circle cx="260" cy="427" r="2"></circle><circle cx="284" cy="420" r="2"></circle><circle cx="307" cy="388" r="2"></circle><circle cx="331" cy="394" r="2"></circle><circle cx="354" cy="394" r="2"></circle><circle cx="378" cy="393" r="2"></circle><circle cx="402" cy="358" r="2"></circle><circle cx="425" cy="267" r="2"></circle><circle cx="449" cy="255" r="2"></circle><circle cx="473" cy="334" r="2"></circle><circle cx="496" cy="300" r="2"></circle><circle cx="520" cy="236" r="2"></circle><circle cx="543" cy="213" r="2"></circle><circle cx="567" cy="251" r="2"></circle><circle cx="591" cy="287" r="2"></circle></g></g><g class="key-United-States_1"><path stroke="#34983f" stroke-linecap="round" d="M47 396L71 427L95 388L118 411L142 367L165 358L189 351L213 372L236 426L260 432L284 457L307 453L331 387L354 400L378 394L402 352L425 300L449 227L473 271L496 302L520 268L543 257L567 236L591 278" fill="none" stroke-width="1.5"></path><g fill="#34983f"><circle cx="47" cy="396" r="2"></circle><circle cx="71" cy="427" r="2"></circle><circle cx="95" cy="388" r="2"></circle><circle cx="118" cy="411" r="2"></circle><circle cx="142" cy="367" r="2"></circle><circle cx="165" cy="358" r="2"></circle><circle cx="189" cy="351" r="2"></circle><circle cx="213" cy="372" r="2"></circle><circle cx="236" cy="426" r="2"></circle><circle cx="260" cy="432" r="2"></circle><circle cx="284" cy="457" r="2"></circle><circle cx="307" cy="453" r="2"></circle><circle cx="331" cy="387" r="2"></circle><circle cx="354" cy="400" r="2"></circle><circle cx="378" cy="394" r="2"></circle><circle cx="402" cy="352" r="2"></circle><circle cx="425" cy="300" r="2"></circle><circle cx="449" cy="227" r="2"></circle><circle cx="473" cy="271" r="2"></circle><circle cx="496" cy="302" r="2"></circle><circle cx="520" cy="268" r="2"></circle><circle cx="543" cy="257" r="2"></circle><circle cx="567" cy="236" r="2"></circle><circle cx="591" cy="278" r="2"></circle></g></g><g class="key-United-States_2"><path stroke="#3360a9" stroke-linecap="round" d="M47 383L71 402L95 374L118 389L142 325L165 305L189 378L213 411L236 417L260 415L284 407L307 386L331 379L354 402L378 406L402 338L425 264L449 273L473 305L496 200L520 133L543 90L567 246L591 299" fill="none" stroke-width="1.5"></path><g fill="#3360a9"><circle cx="47" cy="383" r="2"></circle><circle cx="71" cy="402" r="2"></circle><circle cx="95" cy="374" r="2"></circle><circle cx="118" cy="389" r="2"></circle><circle cx="142" cy="325" r="2"></circle><circle cx="165" cy="305" r="2"></circle><circle cx="189" cy="378" r="2"></circle><circle cx="213" cy="411" r="2"></circle><circle cx="236" cy="417" r="2"></circle><circle cx="260" cy="415" r="2"></circle><circle cx="284" cy="407" r="2"></circle><circle cx="307" cy="386" r="2"></circle><circle cx="331" cy="379" r="2"></circle><circle cx="354" cy="402" r="2"></circle><circle cx="378" cy="406" r="2"></circle><circle cx="402" cy="338" r="2"></circle><circle cx="425" cy="264" r="2"></circle><circle cx="449" cy="273" r="2"></circle><circle cx="473" cy="305" r="2"></circle><circle cx="496" cy="200" r="2"></circle><circle cx="520" cy="133" r="2"></circle><circle cx="543" cy="90" r="2"></circle><circle cx="567" cy="246" r="2"></circle><circle cx="591" cy="299" r="2"></circle></g></g><g class="key-United-States_3"><path stroke="#f6a324" stroke-linecap="round" d="M47 413L71 416L95 419L118 417L142 366L165 356L189 397L213 419L236 411L260 412L284 405L307 376L331 370L354 390L378 388L402 369L425 300L449 221L473 263L496 310L520 222L543 160L567 181L591 226" fill="none" stroke-width="1.5"></path><g fill="#f6a324"><circle cx="47" cy="413" r="2"></circle><circle cx="71" cy="416" r="2"></circle><circle cx="95" cy="419" r="2"></circle><circle cx="118" cy="417" r="2"></circle><circle cx="142" cy="366" r="2"></circle><circle cx="165" cy="356" r="2"></circle><circle cx="189" cy="397" r="2"></circle><circle cx="213" cy="419" r="2"></circle><circle cx="236" cy="411" r="2"></circle><circle cx="260" cy="412" r="2"></circle><circle cx="284" cy="405" r="2"></circle><circle cx="307" cy="376" r="2"></circle><circle cx="331" cy="370" r="2"></circle><circle cx="354" cy="390" r="2"></circle><circle cx="378" cy="388" r="2"></circle><circle cx="402" cy="369" r="2"></circle><circle cx="425" cy="300" r="2"></circle><circle cx="449" cy="221" r="2"></circle><circle cx="473" cy="263" r="2"></circle><circle cx="496" cy="310" r="2"></circle><circle cx="520" cy="222" r="2"></circle><circle cx="543" cy="160" r="2"></circle><circle cx="567" cy="181" r="2"></circle><circle cx="591" cy="226" r="2"></circle></g></g></g></g></g><g style="fill: #777;" class="SourcesFooter"><g style="fill: #777;" class="clickable"><text font-size="12.60" x="15.0" y="581.6"><tspan x="15" y="581.58">Source: UN Food and Agricultural Organization (FAO)</tspan></text></g><text font-size="12.60" x="775.4" y="581.6"><tspan x="775.402" y="581.58"><a style="fill: #777;" class="cclogo" href="http://creativecommons.org/licenses/by-sa/4.0/deed.en_US" target="_blank">CC BY-SA</a></tspan></text></g></g></svg>