<svg xmlns="http://www.w3.org/2000/svg" version="1.1" style="font-family: 'Helvetica Neue', Helvetica, Arial, sans-serif; font-size: 18px; background-color: white; text-rendering: optimizeLegibility; -webkit-font-smoothing: antialiased;" width="850" height="600"><g class="ChartTab"><g class="HeaderView"><g opacity="0.8" transform="translate(778, 15) scale(0.27)"><a xmlns:xlink="http://www.w3.org/1999/xlink" xlink:href="https://ourworldindata.org" target="_blank"><g><rect x="0" y="0" fill="#1B2543" width="211.2" height="130.1"/><rect x="0" y="112.2" fill="#E63912" width="211.2" height="17.9"/><g><rect x="1.2" y="12.3" fill="none" width="210.2" height="99.2"/><path fill="#FFFFFF" d="M37.8,32.2c0,12.7-7.7,19.4-17.1,19.4c-9.7,0-16.6-7.5-16.6-18.7c0-11.7,7.3-19.3,17.1-19.3 C31.3,13.7,37.8,21.3,37.8,32.2z M9.2,32.8c0,7.9,4.3,14.9,11.8,14.9c7.5,0,11.8-6.9,11.8-15.3c0-7.3-3.8-14.9-11.8-14.9 C13.1,17.5,9.2,24.8,9.2,32.8z"/><path fill="#FFFFFF" d="M62.7,43.8c0,2.7,0.1,5.1,0.2,7.2h-4.3l-0.3-4.3h-0.1c-1.3,2.1-4,4.9-8.8,4.9c-4.2,0-9.1-2.3-9.1-11.6 V24.6h4.8v14.6c0,5,1.5,8.4,5.9,8.4c3.2,0,5.5-2.2,6.3-4.4c0.3-0.7,0.4-1.6,0.4-2.5V24.6h4.8V43.8z"/><path fill="#FFFFFF" d="M67.3,32.8c0-3.1-0.1-5.8-0.2-8.2h4.2l0.2,5.2h0.2c1.2-3.5,4.1-5.8,7.3-5.8c0.5,0,0.9,0.1,1.4,0.2v4.5 c-0.5-0.1-1-0.2-1.6-0.2c-3.4,0-5.8,2.6-6.5,6.2c-0.1,0.7-0.2,1.4-0.2,2.2V51h-4.8V32.8z"/><path fill="#FFFFFF" d="M95.4,51l-9.4-36.8h5l4.4,18.6c1.1,4.6,2.1,9.2,2.7,12.7h0.1c0.6-3.7,1.8-8,3-12.8l4.9-18.5h5l4.5,18.7 c1,4.4,2,8.7,2.6,12.6h0.1c0.8-4,1.8-8.1,3-12.7l4.9-18.5h4.9L120.6,51h-5L111,31.9c-1.1-4.7-1.9-8.3-2.4-12h-0.1 c-0.7,3.7-1.5,7.3-2.8,12L100.4,51H95.4z"/><path fill="#FFFFFF" d="M154.9,37.6c0,9.8-6.8,14-13.2,14c-7.2,0-12.7-5.2-12.7-13.6c0-8.8,5.8-14,13.1-14 C149.8,24,154.9,29.5,154.9,37.6z M133.9,37.9c0,5.8,3.3,10.1,8,10.1c4.6,0,8-4.3,8-10.3c0-4.5-2.2-10.1-7.9-10.1 C136.3,27.6,133.9,32.8,133.9,37.9z"/><path fill="#FFFFFF" d="M158.2,32.8c0-3.1-0.1-5.8-0.2-8.2h4.2l0.2,5.2h0.2c1.2-3.5,4.1-5.8,7.3-5.8c0.5,0,0.9,0.1,1.4,0.2v4.5 c-0.5-0.1-1-0.2-1.6-0.2c-3.4,0-5.8,2.6-6.5,6.2c-0.1,0.7-0.2,1.4-0.2,2.2V51h-4.8V32.8z"/><path fill="#FFFFFF" d="M173.5,12.3h4.8V51h-4.8V12.3z"/><path fill="#FFFFFF" d="M206.5,12.3v31.9c0,2.3,0.1,5,0.2,6.8h-4.3l-0.2-4.6H202c-1.5,2.9-4.7,5.2-9,5.2 c-6.4,0-11.3-5.4-11.3-13.4c-0.1-8.8,5.4-14.2,11.9-14.2c4,0,6.8,1.9,8,4h0.1V12.3H206.5z M201.7,35.4c0-0.6-0.1-1.4-0.2-2 c-0.7-3.1-3.3-5.6-6.9-5.6c-5,0-7.9,4.4-7.9,10.2c0,5.3,2.6,9.8,7.8,9.8c3.2,0,6.2-2.1,7.1-5.7c0.2-0.7,0.2-1.3,0.2-2.1V35.4z"/><path fill="#FFFFFF" d="M42.8,64c0.1,1.6-1.1,2.9-3.1,2.9c-1.7,0-2.9-1.3-2.9-2.9c0-1.7,1.3-3,3-3C41.7,61,42.8,62.3,42.8,64z M37.4,97.8V71.4h4.8v26.4H37.4z"/><path fill="#FFFFFF" d="M47.5,78.6c0-2.7-0.1-5-0.2-7.1h4.3l0.3,4.4h0.1c1.3-2.5,4.4-5,8.8-5c3.7,0,9.4,2.2,9.4,11.2v15.8h-4.8 V82.6c0-4.3-1.6-7.8-6.1-7.8c-3.2,0-5.6,2.2-6.5,4.9c-0.2,0.6-0.3,1.4-0.3,2.2v15.9h-4.8V78.6z"/><path fill="#FFFFFF" d="M84,61.6c2.9-0.4,6.3-0.8,10.1-0.8c6.8,0,11.7,1.6,14.9,4.6c3.3,3,5.2,7.3,5.2,13.2c0,6-1.9,10.9-5.3,14.3 c-3.4,3.4-9.1,5.3-16.3,5.3c-3.4,0-6.2-0.2-8.6-0.4V61.6z M88.8,94.1c1.2,0.2,3,0.3,4.8,0.3c10.2,0,15.7-5.7,15.7-15.6 c0.1-8.7-4.9-14.2-14.9-14.2c-2.5,0-4.3,0.2-5.6,0.5V94.1z"/><path fill="#FFFFFF" d="M132.1,97.8l-0.4-3.3h-0.2c-1.5,2.1-4.3,3.9-8.1,3.9c-5.4,0-8.1-3.8-8.1-7.6c0-6.4,5.7-9.9,15.9-9.8v-0.5 c0-2.2-0.6-6.1-6-6.1c-2.5,0-5,0.8-6.9,2l-1.1-3.2c2.2-1.4,5.4-2.3,8.7-2.3c8.1,0,10.1,5.5,10.1,10.8v9.9c0,2.3,0.1,4.5,0.4,6.3 H132.1z M131.4,84.4c-5.3-0.1-11.2,0.8-11.2,5.9c0,3.1,2.1,4.6,4.5,4.6c3.4,0,5.6-2.2,6.4-4.4c0.2-0.5,0.3-1,0.3-1.5V84.4z"/><path fill="#FFFFFF" d="M146.6,63.9v7.6h6.9v3.7h-6.9v14.2c0,3.3,0.9,5.1,3.6,5.1c1.3,0,2.2-0.2,2.8-0.3l0.2,3.6 c-0.9,0.4-2.4,0.7-4.3,0.7c-2.2,0-4-0.7-5.2-2c-1.4-1.4-1.9-3.8-1.9-6.9V75.1h-4.1v-3.7h4.1v-6.3L146.6,63.9z"/><path fill="#FFFFFF" d="M171.4,97.8l-0.4-3.3h-0.2c-1.5,2.1-4.3,3.9-8.1,3.9c-5.4,0-8.1-3.8-8.1-7.6c0-6.4,5.7-9.9,15.9-9.8v-0.5 c0-2.2-0.6-6.1-6-6.1c-2.5,0-5,0.8-6.9,2l-1.1-3.2c2.2-1.4,5.4-2.3,8.7-2.3c8.1,0,10.1,5.5,10.1,10.8v9.9c0,2.3,0.1,4.5,0.4,6.3 H171.4z M170.7,84.4c-5.3-0.1-11.2,0.8-11.2,5.9c0,3.1,2.1,4.6,4.5,4.6c3.4,0,5.6-2.2,6.4-4.4c0.2-0.5,0.3-1,0.3-1.5V84.4z"/></g></g></a></g><a href="https://ourworldindata.org/grapher/produce-price-index-of-food-commodity-categories-2004-2006-100" target="_blank"><text font-size="21.60" x="15.0" y="32.3" fill="#555"><tspan x="15" y="32.279999999999994">Produce price index of food commodity categories, (2004-2006 = 100),</tspan><tspan x="15" y="53.87999999999999">Germany</tspan></text></a><text font-size="14.40" x="15.0" y="72.7" fill="#666"><tspan x="15" y="72.72">Producer price index across food commodity categories (e.g. cereals, pulses, meat, fruits) by country since 1991. Index values</tspan><tspan x="15" y="88.56">are measured relative to three-year average producer prices over the period 2004-2006 (i.e. 2004-2006 = 100). </tspan></text></g><g class="LineChart"><defs><clipPath id="boundsClip-143"><rect x="37.216" y="0" width="830" height="890.8"></rect></clipPath></defs><g class="AxisBoxView"><g class="HorizontalAxis"><text x="47.2" y="556.5" fill="#666" text-anchor="middle" font-size="16.2">1991</text><text x="137.1" y="556.5" fill="#666" text-anchor="middle" font-size="16.2">1995</text><text x="249.5" y="556.5" fill="#666" text-anchor="middle" font-size="16.2">2000</text><text x="361.9" y="556.5" fill="#666" text-anchor="middle" font-size="16.2">2005</text><text x="474.3" y="556.5" fill="#666" text-anchor="middle" font-size="16.2">2010</text><text x="564.2" y="556.5" fill="#666" text-anchor="middle" font-size="16.2">2014</text></g><g class="VerticalAxis"><text x="42.22" y="535.3" fill="#666" dominant-baseline="middle" text-anchor="end" font-size="16.2">0</text><text x="42.22" y="447" fill="#666" dominant-baseline="middle" text-anchor="end" font-size="16.2">50</text><text x="42.22" y="358.6" fill="#666" dominant-baseline="middle" text-anchor="end" font-size="16.2">100</text><text x="42.22" y="270.3" fill="#666" dominant-baseline="middle" text-anchor="end" font-size="16.2">150</text><text x="42.22" y="181.9" fill="#666" dominant-baseline="middle" text-anchor="end" font-size="16.2">200</text></g><g class="AxisGridLines"><line x1="47.22" y1="535.3" x2="564.15" y2="535.3" stroke="#ccc"></line><line x1="47.22" y1="447" x2="564.15" y2="447" stroke="#ddd" stroke-dasharray="3,2"></line><line x1="47.22" y1="358.6" x2="564.15" y2="358.6" stroke="#ddd" stroke-dasharray="3,2"></line><line x1="47.22" y1="270.3" x2="564.15" y2="270.3" stroke="#ddd" stroke-dasharray="3,2"></line><line x1="47.22" y1="181.9" x2="564.15" y2="181.9" stroke="#ddd" stroke-dasharray="3,2"></line></g></g><g clip-path="url(#boundsClip-143)"><g class="HeightedLegend clickable"><g class="legendMark"><g class="indicator"><line x1="569.155" y1="286.8" x2="591.655" y2="286.8" stroke="#666" stroke-width="0.5"></line><line x1="591.655" y1="286.8" x2="591.655" y2="286.8" stroke="#666" stroke-width="0.5"></line><line x1="591.655" y1="286.8" x2="594.155" y2="286.8" stroke="#666" stroke-width="0.5"></line></g><rect x="564.155" y="272.75" width="248.16500000000002" height="28.1" fill="#fff" opacity="0"></rect><text font-size="13.50" x="599.2" y="283.6" fill="#9ecc8a"><tspan x="599.155" y="283.55">Annual cereals, total producer price</tspan><tspan x="599.155" y="298.40000000000003">index</tspan></text></g><g class="legendMark"><g class="indicator"><line x1="569.155" y1="291.8" x2="589.155" y2="291.8" stroke="#666" stroke-width="0.5"></line><line x1="589.155" y1="291.8" x2="589.155" y2="316.90000000000003" stroke="#666" stroke-width="0.5"></line><line x1="589.155" y1="316.90000000000003" x2="594.155" y2="316.90000000000003" stroke="#666" stroke-width="0.5"></line></g><rect x="564.155" y="302.85" width="246.00500000000002" height="28.1" fill="#fff" opacity="0"></rect><text font-size="13.50" x="599.2" y="313.7" fill="#e6332e"><tspan x="599.155" y="313.65000000000003">Annual coarse grain, total producer</tspan><tspan x="599.155" y="328.50000000000006">price index</tspan></text></g><g class="legendMark"><g class="indicator"><line x1="569.155" y1="297.3" x2="586.655" y2="297.3" stroke="#666" stroke-width="0.5"></line><line x1="586.655" y1="297.3" x2="586.655" y2="339.70000000000005" stroke="#666" stroke-width="0.5"></line><line x1="586.655" y1="339.70000000000005" x2="594.155" y2="339.70000000000005" stroke="#666" stroke-width="0.5"></line></g><rect x="564.155" y="332.95000000000005" width="264.635" height="13.5" fill="#fff" opacity="0"></rect><text font-size="13.50" x="599.2" y="343.8" fill="#2a939b"><tspan x="599.155" y="343.75000000000006">Annual milk, total producer price index</tspan></text></g><g class="legendMark"><g class="indicator"><line x1="569.155" y1="323.9" x2="584.155" y2="323.9" stroke="#666" stroke-width="0.5"></line><line x1="584.155" y1="323.9" x2="584.155" y2="355.20000000000005" stroke="#666" stroke-width="0.5"></line><line x1="584.155" y1="355.20000000000005" x2="594.155" y2="355.20000000000005" stroke="#666" stroke-width="0.5"></line></g><rect x="564.155" y="348.45000000000005" width="270.845" height="13.5" fill="#fff" opacity="0"></rect><text font-size="13.50" x="599.2" y="359.3" fill="#a652ba"><tspan x="599.155" y="359.25000000000006">Annual meat, total producer price index</tspan></text></g><g class="legendMark"><g class="indicator"><line x1="569.155" y1="334.5" x2="581.655" y2="334.5" stroke="#666" stroke-width="0.5"></line><line x1="581.655" y1="334.5" x2="581.655" y2="378.00000000000006" stroke="#666" stroke-width="0.5"></line><line x1="581.655" y1="378.00000000000006" x2="594.155" y2="378.00000000000006" stroke="#666" stroke-width="0.5"></line></g><rect x="564.155" y="363.95000000000005" width="269.36" height="28.1" fill="#fff" opacity="0"></rect><text font-size="13.50" x="599.2" y="374.8" fill="#f6a324"><tspan x="599.155" y="374.75000000000006">Annual roots and tubers producer price</tspan><tspan x="599.155" y="389.6000000000001">index</tspan></text></g><g class="legendMark"><g class="indicator"><line x1="569.155" y1="340.6" x2="579.155" y2="340.6" stroke="#666" stroke-width="0.5"></line><line x1="579.155" y1="340.6" x2="579.155" y2="408.1000000000001" stroke="#666" stroke-width="0.5"></line><line x1="579.155" y1="408.1000000000001" x2="594.155" y2="408.1000000000001" stroke="#666" stroke-width="0.5"></line></g><rect x="564.155" y="394.05000000000007" width="243.71" height="28.1" fill="#fff" opacity="0"></rect><text font-size="13.50" x="599.2" y="404.9" fill="#34983f"><tspan x="599.155" y="404.8500000000001">Annual pulses, total producer price</tspan><tspan x="599.155" y="419.7000000000001">index</tspan></text></g><g class="legendMark"><g class="indicator"><line x1="569.155" y1="354.4" x2="576.655" y2="354.4" stroke="#666" stroke-width="0.5"></line><line x1="576.655" y1="354.4" x2="576.655" y2="438.2000000000001" stroke="#666" stroke-width="0.5"></line><line x1="576.655" y1="438.2000000000001" x2="594.155" y2="438.2000000000001" stroke="#666" stroke-width="0.5"></line></g><rect x="564.155" y="424.1500000000001" width="269.09000000000003" height="28.1" fill="#fff" opacity="0"></rect><text font-size="13.50" x="599.2" y="435.0" fill="#ca2628"><tspan x="599.155" y="434.9500000000001">Annual fruit excl melons producer price</tspan><tspan x="599.155" y="449.8000000000001">index</tspan></text></g><g class="legendMark"><g class="indicator"><line x1="569.155" y1="360.8" x2="574.155" y2="360.8" stroke="#666" stroke-width="0.5"></line><line x1="574.155" y1="360.8" x2="574.155" y2="468.3000000000001" stroke="#666" stroke-width="0.5"></line><line x1="574.155" y1="468.3000000000001" x2="594.155" y2="468.3000000000001" stroke="#666" stroke-width="0.5"></line></g><rect x="564.155" y="454.2500000000001" width="252.62" height="28.1" fill="#fff" opacity="0"></rect><text font-size="13.50" x="599.2" y="465.1" fill="#3360a9"><tspan x="599.155" y="465.0500000000001">Annual vegetables primary producer</tspan><tspan x="599.155" y="479.90000000000015">price index</tspan></text></g></g><g class="Lines"><rect x="47" y="111" width="517" height="424" fill="rgba(255,255,255,0)" opacity="0"></rect><g class="key-Germany_0"><path stroke="#3360a9" stroke-linecap="round" d="M47 382L70 412L92 414L115 392L137 394L160 412L182 402L205 390L227 412L250 414L272 372L294 386L317 353L339 372L362 360L384 344L407 333L429 371L452 392L474 368L497 375L519 361L542 354L564 361" fill="none" stroke-width="1.5"></path><g fill="#3360a9"><circle cx="47" cy="382" r="2"></circle><circle cx="70" cy="412" r="2"></circle><circle cx="92" cy="414" r="2"></circle><circle cx="115" cy="392" r="2"></circle><circle cx="137" cy="394" r="2"></circle><circle cx="160" cy="412" r="2"></circle><circle cx="182" cy="402" r="2"></circle><circle cx="205" cy="390" r="2"></circle><circle cx="227" cy="412" r="2"></circle><circle cx="250" cy="414" r="2"></circle><circle cx="272" cy="372" r="2"></circle><circle cx="294" cy="386" r="2"></circle><circle cx="317" cy="353" r="2"></circle><circle cx="339" cy="372" r="2"></circle><circle cx="362" cy="360" r="2"></circle><circle cx="384" cy="344" r="2"></circle><circle cx="407" cy="333" r="2"></circle><circle cx="429" cy="371" r="2"></circle><circle cx="452" cy="392" r="2"></circle><circle cx="474" cy="368" r="2"></circle><circle cx="497" cy="375" r="2"></circle><circle cx="519" cy="361" r="2"></circle><circle cx="542" cy="354" r="2"></circle><circle cx="564" cy="361" r="2"></circle></g></g><g class="key-Germany_1"><path stroke="#f6a324" stroke-linecap="round" d="M47 358L70 380L92 476L115 394L137 284L160 450L182 456L205 405L227 372L250 457L272 452L294 427L317 373L339 418L362 425L384 233L407 268L429 361L452 371L474 324L497 307L519 366L542 242L564 335" fill="none" stroke-width="1.5"></path><g fill="#f6a324"><circle cx="47" cy="358" r="2"></circle><circle cx="70" cy="380" r="2"></circle><circle cx="92" cy="476" r="2"></circle><circle cx="115" cy="394" r="2"></circle><circle cx="137" cy="284" r="2"></circle><circle cx="160" cy="450" r="2"></circle><circle cx="182" cy="456" r="2"></circle><circle cx="205" cy="405" r="2"></circle><circle cx="227" cy="372" r="2"></circle><circle cx="250" cy="457" r="2"></circle><circle cx="272" cy="452" r="2"></circle><circle cx="294" cy="427" r="2"></circle><circle cx="317" cy="373" r="2"></circle><circle cx="339" cy="418" r="2"></circle><circle cx="362" cy="425" r="2"></circle><circle cx="384" cy="233" r="2"></circle><circle cx="407" cy="268" r="2"></circle><circle cx="429" cy="361" r="2"></circle><circle cx="452" cy="371" r="2"></circle><circle cx="474" cy="324" r="2"></circle><circle cx="497" cy="307" r="2"></circle><circle cx="519" cy="366" r="2"></circle><circle cx="542" cy="242" r="2"></circle><circle cx="564" cy="335" r="2"></circle></g></g><g class="key-Germany_2"><path stroke="#34983f" stroke-linecap="round" d="M47 165L70 111L92 224L115 288L137 313L160 307L182 314L205 339L227 339L250 339L272 339L294 339L317 354L339 368L362 360L384 348L407 353L429 349L452 361L474 343L497 344L519 332L542 335L564 341" fill="none" stroke-width="1.5"></path><g fill="#34983f"><circle cx="47" cy="165" r="2"></circle><circle cx="70" cy="111" r="2"></circle><circle cx="92" cy="224" r="2"></circle><circle cx="115" cy="288" r="2"></circle><circle cx="137" cy="313" r="2"></circle><circle cx="160" cy="307" r="2"></circle><circle cx="182" cy="314" r="2"></circle><circle cx="205" cy="339" r="2"></circle><circle cx="227" cy="339" r="2"></circle><circle cx="250" cy="339" r="2"></circle><circle cx="272" cy="339" r="2"></circle><circle cx="294" cy="339" r="2"></circle><circle cx="317" cy="354" r="2"></circle><circle cx="339" cy="368" r="2"></circle><circle cx="362" cy="360" r="2"></circle><circle cx="384" cy="348" r="2"></circle><circle cx="407" cy="353" r="2"></circle><circle cx="429" cy="349" r="2"></circle><circle cx="452" cy="361" r="2"></circle><circle cx="474" cy="343" r="2"></circle><circle cx="497" cy="344" r="2"></circle><circle cx="519" cy="332" r="2"></circle><circle cx="542" cy="335" r="2"></circle><circle cx="564" cy="341" r="2"></circle></g></g><g class="key-Germany_3"><path stroke="#2a939b" stroke-linecap="round" d="M47 332L70 329L92 336L115 343L137 343L160 345L182 344L205 335L227 343L250 334L272 315L294 334L317 355L339 357L362 359L384 360L407 321L429 319L452 381L474 338L497 313L519 331L542 294L564 297" fill="none" stroke-width="1.5"></path><g fill="#2a939b"><circle cx="47" cy="332" r="2"></circle><circle cx="70" cy="329" r="2"></circle><circle cx="92" cy="336" r="2"></circle><circle cx="115" cy="343" r="2"></circle><circle cx="137" cy="343" r="2"></circle><circle cx="160" cy="345" r="2"></circle><circle cx="182" cy="344" r="2"></circle><circle cx="205" cy="335" r="2"></circle><circle cx="227" cy="343" r="2"></circle><circle cx="250" cy="334" r="2"></circle><circle cx="272" cy="315" r="2"></circle><circle cx="294" cy="334" r="2"></circle><circle cx="317" cy="355" r="2"></circle><circle cx="339" cy="357" r="2"></circle><circle cx="362" cy="359" r="2"></circle><circle cx="384" cy="360" r="2"></circle><circle cx="407" cy="321" r="2"></circle><circle cx="429" cy="319" r="2"></circle><circle cx="452" cy="381" r="2"></circle><circle cx="474" cy="338" r="2"></circle><circle cx="497" cy="313" r="2"></circle><circle cx="519" cy="331" r="2"></circle><circle cx="542" cy="294" r="2"></circle><circle cx="564" cy="297" r="2"></circle></g></g><g class="key-Germany_4"><path stroke="#a652ba" stroke-linecap="round" d="M47 353L70 342L92 373L115 370L137 360L160 350L182 343L205 383L227 392L250 369L272 358L294 378L317 379L339 365L362 360L384 351L407 360L429 337L452 351L474 349L497 329L519 308L542 309L564 324" fill="none" stroke-width="1.5"></path><g fill="#a652ba"><circle cx="47" cy="353" r="2"></circle><circle cx="70" cy="342" r="2"></circle><circle cx="92" cy="373" r="2"></circle><circle cx="115" cy="370" r="2"></circle><circle cx="137" cy="360" r="2"></circle><circle cx="160" cy="350" r="2"></circle><circle cx="182" cy="343" r="2"></circle><circle cx="205" cy="383" r="2"></circle><circle cx="227" cy="392" r="2"></circle><circle cx="250" cy="369" r="2"></circle><circle cx="272" cy="358" r="2"></circle><circle cx="294" cy="378" r="2"></circle><circle cx="317" cy="379" r="2"></circle><circle cx="339" cy="365" r="2"></circle><circle cx="362" cy="360" r="2"></circle><circle cx="384" cy="351" r="2"></circle><circle cx="407" cy="360" r="2"></circle><circle cx="429" cy="337" r="2"></circle><circle cx="452" cy="351" r="2"></circle><circle cx="474" cy="349" r="2"></circle><circle cx="497" cy="329" r="2"></circle><circle cx="519" cy="308" r="2"></circle><circle cx="542" cy="309" r="2"></circle><circle cx="564" cy="324" r="2"></circle></g></g><g class="key-Germany_5"><path stroke="#ca2628" stroke-linecap="round" d="M47 351L70 399L92 411L115 395L137 403L160 362L182 373L205 394L227 425L250 421L272 384L294 375L317 328L339 357L362 357L384 362L407 348L429 320L452 378L474 364L497 343L519 342L542 315L564 354" fill="none" stroke-width="1.5"></path><g fill="#ca2628"><circle cx="47" cy="351" r="2"></circle><circle cx="70" cy="399" r="2"></circle><circle cx="92" cy="411" r="2"></circle><circle cx="115" cy="395" r="2"></circle><circle cx="137" cy="403" r="2"></circle><circle cx="160" cy="362" r="2"></circle><circle cx="182" cy="373" r="2"></circle><circle cx="205" cy="394" r="2"></circle><circle cx="227" cy="425" r="2"></circle><circle cx="250" cy="421" r="2"></circle><circle cx="272" cy="384" r="2"></circle><circle cx="294" cy="375" r="2"></circle><circle cx="317" cy="328" r="2"></circle><circle cx="339" cy="357" r="2"></circle><circle cx="362" cy="357" r="2"></circle><circle cx="384" cy="362" r="2"></circle><circle cx="407" cy="348" r="2"></circle><circle cx="429" cy="320" r="2"></circle><circle cx="452" cy="378" r="2"></circle><circle cx="474" cy="364" r="2"></circle><circle cx="497" cy="343" r="2"></circle><circle cx="519" cy="342" r="2"></circle><circle cx="542" cy="315" r="2"></circle><circle cx="564" cy="354" r="2"></circle></g></g><g class="key-Germany_6"><path stroke="#9ecc8a" stroke-linecap="round" d="M47 290L70 271L92 312L115 322L137 332L160 323L182 344L205 356L227 356L250 353L272 360L294 377L317 362L339 340L362 380L384 356L407 252L429 242L452 359L474 303L497 207L519 185L542 243L564 287" fill="none" stroke-width="1.5"></path><g fill="#9ecc8a"><circle cx="47" cy="290" r="2"></circle><circle cx="70" cy="271" r="2"></circle><circle cx="92" cy="312" r="2"></circle><circle cx="115" cy="322" r="2"></circle><circle cx="137" cy="332" r="2"></circle><circle cx="160" cy="323" r="2"></circle><circle cx="182" cy="344" r="2"></circle><circle cx="205" cy="356" r="2"></circle><circle cx="227" cy="356" r="2"></circle><circle cx="250" cy="353" r="2"></circle><circle cx="272" cy="360" r="2"></circle><circle cx="294" cy="377" r="2"></circle><circle cx="317" cy="362" r="2"></circle><circle cx="339" cy="340" r="2"></circle><circle cx="362" cy="380" r="2"></circle><circle cx="384" cy="356" r="2"></circle><circle cx="407" cy="252" r="2"></circle><circle cx="429" cy="242" r="2"></circle><circle cx="452" cy="359" r="2"></circle><circle cx="474" cy="303" r="2"></circle><circle cx="497" cy="207" r="2"></circle><circle cx="519" cy="185" r="2"></circle><circle cx="542" cy="243" r="2"></circle><circle cx="564" cy="287" r="2"></circle></g></g><g class="key-Germany_7"><path stroke="#e6332e" stroke-linecap="round" d="M47 283L70 269L92 308L115 320L137 330L160 323L182 344L205 358L227 355L250 354L272 361L294 380L317 363L339 342L362 381L384 353L407 246L429 244L452 363L474 309L497 208L519 185L542 248L564 292" fill="none" stroke-width="1.5"></path><g fill="#e6332e"><circle cx="47" cy="283" r="2"></circle><circle cx="70" cy="269" r="2"></circle><circle cx="92" cy="308" r="2"></circle><circle cx="115" cy="320" r="2"></circle><circle cx="137" cy="330" r="2"></circle><circle cx="160" cy="323" r="2"></circle><circle cx="182" cy="344" r="2"></circle><circle cx="205" cy="358" r="2"></circle><circle cx="227" cy="355" r="2"></circle><circle cx="250" cy="354" r="2"></circle><circle cx="272" cy="361" r="2"></circle><circle cx="294" cy="380" r="2"></circle><circle cx="317" cy="363" r="2"></circle><circle cx="339" cy="342" r="2"></circle><circle cx="362" cy="381" r="2"></circle><circle cx="384" cy="353" r="2"></circle><circle cx="407" cy="246" r="2"></circle><circle cx="429" cy="244" r="2"></circle><circle cx="452" cy="363" r="2"></circle><circle cx="474" cy="309" r="2"></circle><circle cx="497" cy="208" r="2"></circle><circle cx="519" cy="185" r="2"></circle><circle cx="542" cy="248" r="2"></circle><circle cx="564" cy="292" r="2"></circle></g></g></g></g></g><g style="fill: #777;" class="SourcesFooter"><g style="fill: #777;" class="clickable"><text font-size="12.60" x="15.0" y="581.6"><tspan x="15" y="581.58">Source: UN Food and Agricultural Organization (FAO)</tspan></text></g><text font-size="12.60" x="775.4" y="581.6"><tspan x="775.402" y="581.58"><a style="fill: #777;" class="cclogo" href="http://creativecommons.org/licenses/by-sa/4.0/deed.en_US" target="_blank">CC BY-SA</a></tspan></text></g></g></svg>