<svg xmlns="http://www.w3.org/2000/svg" version="1.1" style="font-family: 'Helvetica Neue', Helvetica, Arial, sans-serif; font-size: 18px; background-color: white; text-rendering: optimizeLegibility; -webkit-font-smoothing: antialiased;" width="850" height="600"><g class="ChartTab"><g class="HeaderView"><g opacity="0.8" transform="translate(778, 15) scale(0.27)"><a xmlns:xlink="http://www.w3.org/1999/xlink" xlink:href="https://ourworldindata.org" target="_blank"><g><rect x="0" y="0" fill="#1B2543" width="211.2" height="130.1"/><rect x="0" y="112.2" fill="#E63912" width="211.2" height="17.9"/><g><rect x="1.2" y="12.3" fill="none" width="210.2" height="99.2"/><path fill="#FFFFFF" d="M37.8,32.2c0,12.7-7.7,19.4-17.1,19.4c-9.7,0-16.6-7.5-16.6-18.7c0-11.7,7.3-19.3,17.1-19.3 C31.3,13.7,37.8,21.3,37.8,32.2z M9.2,32.8c0,7.9,4.3,14.9,11.8,14.9c7.5,0,11.8-6.9,11.8-15.3c0-7.3-3.8-14.9-11.8-14.9 C13.1,17.5,9.2,24.8,9.2,32.8z"/><path fill="#FFFFFF" d="M62.7,43.8c0,2.7,0.1,5.1,0.2,7.2h-4.3l-0.3-4.3h-0.1c-1.3,2.1-4,4.9-8.8,4.9c-4.2,0-9.1-2.3-9.1-11.6 V24.6h4.8v14.6c0,5,1.5,8.4,5.9,8.4c3.2,0,5.5-2.2,6.3-4.4c0.3-0.7,0.4-1.6,0.4-2.5V24.6h4.8V43.8z"/><path fill="#FFFFFF" d="M67.3,32.8c0-3.1-0.1-5.8-0.2-8.2h4.2l0.2,5.2h0.2c1.2-3.5,4.1-5.8,7.3-5.8c0.5,0,0.9,0.1,1.4,0.2v4.5 c-0.5-0.1-1-0.2-1.6-0.2c-3.4,0-5.8,2.6-6.5,6.2c-0.1,0.7-0.2,1.4-0.2,2.2V51h-4.8V32.8z"/><path fill="#FFFFFF" d="M95.4,51l-9.4-36.8h5l4.4,18.6c1.1,4.6,2.1,9.2,2.7,12.7h0.1c0.6-3.7,1.8-8,3-12.8l4.9-18.5h5l4.5,18.7 c1,4.4,2,8.7,2.6,12.6h0.1c0.8-4,1.8-8.1,3-12.7l4.9-18.5h4.9L120.6,51h-5L111,31.9c-1.1-4.7-1.9-8.3-2.4-12h-0.1 c-0.7,3.7-1.5,7.3-2.8,12L100.4,51H95.4z"/><path fill="#FFFFFF" d="M154.9,37.6c0,9.8-6.8,14-13.2,14c-7.2,0-12.7-5.2-12.7-13.6c0-8.8,5.8-14,13.1-14 C149.8,24,154.9,29.5,154.9,37.6z M133.9,37.9c0,5.8,3.3,10.1,8,10.1c4.6,0,8-4.3,8-10.3c0-4.5-2.2-10.1-7.9-10.1 C136.3,27.6,133.9,32.8,133.9,37.9z"/><path fill="#FFFFFF" d="M158.2,32.8c0-3.1-0.1-5.8-0.2-8.2h4.2l0.2,5.2h0.2c1.2-3.5,4.1-5.8,7.3-5.8c0.5,0,0.9,0.1,1.4,0.2v4.5 c-0.5-0.1-1-0.2-1.6-0.2c-3.4,0-5.8,2.6-6.5,6.2c-0.1,0.7-0.2,1.4-0.2,2.2V51h-4.8V32.8z"/><path fill="#FFFFFF" d="M173.5,12.3h4.8V51h-4.8V12.3z"/><path fill="#FFFFFF" d="M206.5,12.3v31.9c0,2.3,0.1,5,0.2,6.8h-4.3l-0.2-4.6H202c-1.5,2.9-4.7,5.2-9,5.2 c-6.4,0-11.3-5.4-11.3-13.4c-0.1-8.8,5.4-14.2,11.9-14.2c4,0,6.8,1.9,8,4h0.1V12.3H206.5z M201.7,35.4c0-0.6-0.1-1.4-0.2-2 c-0.7-3.1-3.3-5.6-6.9-5.6c-5,0-7.9,4.4-7.9,10.2c0,5.3,2.6,9.8,7.8,9.8c3.2,0,6.2-2.1,7.1-5.7c0.2-0.7,0.2-1.3,0.2-2.1V35.4z"/><path fill="#FFFFFF" d="M42.8,64c0.1,1.6-1.1,2.9-3.1,2.9c-1.7,0-2.9-1.3-2.9-2.9c0-1.7,1.3-3,3-3C41.7,61,42.8,62.3,42.8,64z M37.4,97.8V71.4h4.8v26.4H37.4z"/><path fill="#FFFFFF" d="M47.5,78.6c0-2.7-0.1-5-0.2-7.1h4.3l0.3,4.4h0.1c1.3-2.5,4.4-5,8.8-5c3.7,0,9.4,2.2,9.4,11.2v15.8h-4.8 V82.6c0-4.3-1.6-7.8-6.1-7.8c-3.2,0-5.6,2.2-6.5,4.9c-0.2,0.6-0.3,1.4-0.3,2.2v15.9h-4.8V78.6z"/><path fill="#FFFFFF" d="M84,61.6c2.9-0.4,6.3-0.8,10.1-0.8c6.8,0,11.7,1.6,14.9,4.6c3.3,3,5.2,7.3,5.2,13.2c0,6-1.9,10.9-5.3,14.3 c-3.4,3.4-9.1,5.3-16.3,5.3c-3.4,0-6.2-0.2-8.6-0.4V61.6z M88.8,94.1c1.2,0.2,3,0.3,4.8,0.3c10.2,0,15.7-5.7,15.7-15.6 c0.1-8.7-4.9-14.2-14.9-14.2c-2.5,0-4.3,0.2-5.6,0.5V94.1z"/><path fill="#FFFFFF" d="M132.1,97.8l-0.4-3.3h-0.2c-1.5,2.1-4.3,3.9-8.1,3.9c-5.4,0-8.1-3.8-8.1-7.6c0-6.4,5.7-9.9,15.9-9.8v-0.5 c0-2.2-0.6-6.1-6-6.1c-2.5,0-5,0.8-6.9,2l-1.1-3.2c2.2-1.4,5.4-2.3,8.7-2.3c8.1,0,10.1,5.5,10.1,10.8v9.9c0,2.3,0.1,4.5,0.4,6.3 H132.1z M131.4,84.4c-5.3-0.1-11.2,0.8-11.2,5.9c0,3.1,2.1,4.6,4.5,4.6c3.4,0,5.6-2.2,6.4-4.4c0.2-0.5,0.3-1,0.3-1.5V84.4z"/><path fill="#FFFFFF" d="M146.6,63.9v7.6h6.9v3.7h-6.9v14.2c0,3.3,0.9,5.1,3.6,5.1c1.3,0,2.2-0.2,2.8-0.3l0.2,3.6 c-0.9,0.4-2.4,0.7-4.3,0.7c-2.2,0-4-0.7-5.2-2c-1.4-1.4-1.9-3.8-1.9-6.9V75.1h-4.1v-3.7h4.1v-6.3L146.6,63.9z"/><path fill="#FFFFFF" d="M171.4,97.8l-0.4-3.3h-0.2c-1.5,2.1-4.3,3.9-8.1,3.9c-5.4,0-8.1-3.8-8.1-7.6c0-6.4,5.7-9.9,15.9-9.8v-0.5 c0-2.2-0.6-6.1-6-6.1c-2.5,0-5,0.8-6.9,2l-1.1-3.2c2.2-1.4,5.4-2.3,8.7-2.3c8.1,0,10.1,5.5,10.1,10.8v9.9c0,2.3,0.1,4.5,0.4,6.3 H171.4z M170.7,84.4c-5.3-0.1-11.2,0.8-11.2,5.9c0,3.1,2.1,4.6,4.5,4.6c3.4,0,5.6-2.2,6.4-4.4c0.2-0.5,0.3-1,0.3-1.5V84.4z"/></g></g></a></g><a href="https://ourworldindata.org/grapher/renewable-energy-consumption" target="_blank"><text font-size="25.20" x="15.0" y="35.2" fill="#555"><tspan x="15" y="35.160000000000004">Global renewable energy consumption, terawatt-hours</tspan></text></a><text font-size="14.40" x="15.0" y="53.7" fill="#666"><tspan x="15" y="53.72">Total renewable energy consumption over the long-term, measured in terawatt-hours (TWh) per year. Traditional</tspan><tspan x="15" y="69.56">biofuels refer to the consumption of fuelwood, forestry products, animal and agricultural wastes.</tspan></text></g><g class="StackedArea"><defs><clipPath id="boundsClip-219"><rect x="108.614" y="0" width="820" height="899.5999999999999"></rect></clipPath></defs><g class="AxisBoxView"><g class="HorizontalAxis"><text x="108.6" y="541.9" fill="#666" text-anchor="middle" font-size="16.2">1965</text><text x="165.3" y="541.9" fill="#666" text-anchor="middle" font-size="16.2">1970</text><text x="278.5" y="541.9" fill="#666" text-anchor="middle" font-size="16.2">1980</text><text x="391.8" y="541.9" fill="#666" text-anchor="middle" font-size="16.2">1990</text><text x="505.1" y="541.9" fill="#666" text-anchor="middle" font-size="16.2">2000</text><text x="618.4" y="541.9" fill="#666" text-anchor="middle" font-size="16.2">2010</text><text x="686.3" y="541.9" fill="#666" text-anchor="middle" font-size="16.2">2016</text></g><g class="VerticalAxis"><text x="103.61" y="520.7" fill="#666" dominant-baseline="middle" text-anchor="end" font-size="16.2">0 TWh</text><text x="103.61" y="470" fill="#666" dominant-baseline="middle" text-anchor="end" font-size="16.2">2,000 TWh</text><text x="103.61" y="419.2" fill="#666" dominant-baseline="middle" text-anchor="end" font-size="16.2">4,000 TWh</text><text x="103.61" y="368.5" fill="#666" dominant-baseline="middle" text-anchor="end" font-size="16.2">6,000 TWh</text><text x="103.61" y="317.7" fill="#666" dominant-baseline="middle" text-anchor="end" font-size="16.2">8,000 TWh</text><text x="103.61" y="267" fill="#666" dominant-baseline="middle" text-anchor="end" font-size="16.2">10,000 TWh</text><text x="103.61" y="216.3" fill="#666" dominant-baseline="middle" text-anchor="end" font-size="16.2">12,000 TWh</text><text x="103.61" y="165.5" fill="#666" dominant-baseline="middle" text-anchor="end" font-size="16.2">14,000 TWh</text><text x="103.61" y="114.8" fill="#666" dominant-baseline="middle" text-anchor="end" font-size="16.2">16,000 TWh</text></g><g class="AxisGridLines"><line x1="108.61" y1="520.7" x2="686.33" y2="520.7" stroke="#ccc"></line><line x1="108.61" y1="470" x2="686.33" y2="470" stroke="#ddd" stroke-dasharray="3,2"></line><line x1="108.61" y1="419.2" x2="686.33" y2="419.2" stroke="#ddd" stroke-dasharray="3,2"></line><line x1="108.61" y1="368.5" x2="686.33" y2="368.5" stroke="#ddd" stroke-dasharray="3,2"></line><line x1="108.61" y1="317.7" x2="686.33" y2="317.7" stroke="#ddd" stroke-dasharray="3,2"></line><line x1="108.61" y1="267" x2="686.33" y2="267" stroke="#ddd" stroke-dasharray="3,2"></line><line x1="108.61" y1="216.3" x2="686.33" y2="216.3" stroke="#ddd" stroke-dasharray="3,2"></line><line x1="108.61" y1="165.5" x2="686.33" y2="165.5" stroke="#ddd" stroke-dasharray="3,2"></line><line x1="108.61" y1="114.8" x2="686.33" y2="114.8" stroke="#ddd" stroke-dasharray="3,2"></line></g></g><g clip-path="url(#boundsClip-219)"><g class="HeightedLegend clickable"><g class="legendMark"><g class="indicator"><line x1="691.3299999999999" y1="99.20000000000002" x2="710.4966666666666" y2="99.20000000000002" stroke="#666" stroke-width="0.5"></line><line x1="710.4966666666666" y1="99.20000000000002" x2="710.4966666666666" y2="99.20000000000002" stroke="#666" stroke-width="0.5"></line><line x1="710.4966666666666" y1="99.20000000000002" x2="716.3299999999999" y2="99.20000000000002" stroke="#666" stroke-width="0.5"></line></g><rect x="686.3299999999999" y="70.55000000000001" width="141.92000000000002" height="57.3" fill="#fff" opacity="0"></rect><text font-size="13.50" x="721.3" y="81.4" fill="#34983f"><tspan x="721.3299999999999" y="81.35000000000001">Other renewables</tspan><tspan x="721.3299999999999" y="96.20000000000002">(modern biofuels,</tspan><tspan x="721.3299999999999" y="111.05000000000001">geothermal, wave</tspan><tspan x="721.3299999999999" y="125.9">&amp; tidal)</tspan></text></g><g class="legendMark"><g class="indicator"><line x1="691.3299999999999" y1="118.5" x2="703.8299999999999" y2="118.5" stroke="#666" stroke-width="0.5"></line><line x1="703.8299999999999" y1="118.5" x2="703.8299999999999" y2="136.60000000000002" stroke="#666" stroke-width="0.5"></line><line x1="703.8299999999999" y1="136.60000000000002" x2="716.3299999999999" y2="136.60000000000002" stroke="#666" stroke-width="0.5"></line></g><rect x="686.3299999999999" y="129.85000000000002" width="65.78" height="13.5" fill="#fff" opacity="0"></rect><text font-size="13.50" x="721.3" y="140.7" fill="#9ecc8a"><tspan x="721.3299999999999" y="140.65000000000003">Wind</tspan></text></g><g class="legendMark"><g class="indicator"><line x1="691.3299999999999" y1="134.9" x2="697.1633333333333" y2="134.9" stroke="#666" stroke-width="0.5"></line><line x1="697.1633333333333" y1="134.9" x2="697.1633333333333" y2="152.10000000000002" stroke="#666" stroke-width="0.5"></line><line x1="697.1633333333333" y1="152.10000000000002" x2="716.3299999999999" y2="152.10000000000002" stroke="#666" stroke-width="0.5"></line></g><rect x="686.3299999999999" y="145.35000000000002" width="88.46000000000001" height="13.5" fill="#fff" opacity="0"></rect><text font-size="13.50" x="721.3" y="156.2" fill="#ffd53e"><tspan x="721.3299999999999" y="156.15000000000003">Solar PV</tspan></text></g><g class="legendMark"><g class="indicator"><line x1="691.3299999999999" y1="190.3" x2="703.8299999999999" y2="190.3" stroke="#666" stroke-width="0.5"></line><line x1="703.8299999999999" y1="190.3" x2="703.8299999999999" y2="190.3" stroke="#666" stroke-width="0.5"></line><line x1="703.8299999999999" y1="190.3" x2="716.3299999999999" y2="190.3" stroke="#666" stroke-width="0.5"></line></g><rect x="686.3299999999999" y="183.55" width="107.9" height="13.5" fill="#fff" opacity="0"></rect><text font-size="13.50" x="721.3" y="194.4" fill="#ca2628"><tspan x="721.3299999999999" y="194.35000000000002">Hydropower</tspan></text></g><g class="legendMark"><g class="indicator"><line x1="691.3299999999999" y1="381.1" x2="703.8299999999999" y2="381.1" stroke="#666" stroke-width="0.5"></line><line x1="703.8299999999999" y1="381.1" x2="703.8299999999999" y2="381.1" stroke="#666" stroke-width="0.5"></line><line x1="703.8299999999999" y1="381.1" x2="716.3299999999999" y2="381.1" stroke="#666" stroke-width="0.5"></line></g><rect x="686.3299999999999" y="374.35" width="148.67000000000002" height="13.5" fill="#fff" opacity="0"></rect><text font-size="13.50" x="721.3" y="385.2" fill="#3360a9"><tspan x="721.3299999999999" y="385.15000000000003">Traditional biofuels</tspan></text></g></g><g class="Areas"><rect x="108.614" y="92.1" width="577.7159999999999" height="428.5999999999999" opacity="0" fill="rgba(255,255,255,0)"></rect><path stroke-linecap="round" d="M108.6 288.2L119.9 286.8L131.3 285.4L142.6 284L153.9 282.5L165.3 281.1L176.6 279.7L187.9 278.3L199.2 276.9L210.6 275.5L221.9 274.1L233.2 272.7L244.5 271.3L255.9 269.9L267.2 268.4L278.5 267L289.9 264.3L301.2 261.6L312.5 258.8L323.8 256.1L335.2 253.3L346.5 250.4L357.8 247.6L369.2 244.7L380.5 241.8L391.8 238.8L403.1 235.5L414.5 232.1L425.8 228.7L437.1 225.2L448.4 221.7L459.8 218.2L471.1 214.6L482.4 211L493.8 205.7L505.1 203.6L516.4 203.6L527.7 204.3L539.1 207.9L550.4 212.2L561.7 214.3L573.1 216.4L584.4 218.5L595.7 220.6L607 222.7L618.4 224.7L629.7 227.6L641 230.4L652.3 233.2L663.7 236L675 238.8L686.3 241.5L686.3299999999999 520.6999999999999L108.614 520.6999999999999" fill="#3360a9" fill-opacity="0.7" class="World_0-area"></path><path stroke-linecap="round" d="M108.6 264.9L119.9 261.8L131.3 259.8L142.6 257.1L153.9 254.1L165.3 251.3L176.6 248.7L187.9 245.9L199.2 244.1L210.6 239.5L221.9 237.6L233.2 236.3L244.5 233.9L255.9 229.6L267.2 226.1L278.5 223.9L289.9 220.5L301.2 216L312.5 211.2L323.8 206.8L335.2 203L346.5 199.5L357.8 196L369.2 191.4L380.5 188.8L391.8 184L403.1 179.3L414.5 176L425.8 169.2L437.1 165.3L448.4 158.6L459.8 154.1L471.1 149.4L482.4 145.2L493.8 139.6L505.1 136.2L516.4 137.9L527.7 137.5L539.1 141.2L550.4 141L561.7 140.3L573.1 139.5L584.4 140.4L595.7 137.8L607 140.1L618.4 137.5L629.7 138.7L641 137.3L652.3 136.9L663.7 137.4L675 140.1L686.3 139.1L686.3 241.5L675 238.8L663.7 236L652.3 233.2L641 230.4L629.7 227.6L618.4 224.7L607 222.7L595.7 220.6L584.4 218.5L573.1 216.4L561.7 214.3L550.4 212.2L539.1 207.9L527.7 204.3L516.4 203.6L505.1 203.6L493.8 205.7L482.4 211L471.1 214.6L459.8 218.2L448.4 221.7L437.1 225.2L425.8 228.7L414.5 232.1L403.1 235.5L391.8 238.8L380.5 241.8L369.2 244.7L357.8 247.6L346.5 250.4L335.2 253.3L323.8 256.1L312.5 258.8L301.2 261.6L289.9 264.3L278.5 267L267.2 268.4L255.9 269.9L244.5 271.3L233.2 272.7L221.9 274.1L210.6 275.5L199.2 276.9L187.9 278.3L176.6 279.7L165.3 281.1L153.9 282.5L142.6 284L131.3 285.4L119.9 286.8L108.6 288.2" fill="#ca2628" fill-opacity="0.7" class="World_4-area"></path><path stroke-linecap="round" d="M108.6 264.9L119.9 261.8L131.3 259.8L142.6 257.1L153.9 254.1L165.3 251.3L176.6 248.7L187.9 245.9L199.2 244.1L210.6 239.5L221.9 237.6L233.2 236.3L244.5 233.9L255.9 229.6L267.2 226.1L278.5 223.9L289.9 220.5L301.2 216L312.5 211.2L323.8 206.8L335.2 203L346.5 199.5L357.8 196L369.2 191.4L380.5 188.8L391.8 184L403.1 179.3L414.5 176L425.8 169.2L437.1 165.3L448.4 158.5L459.8 154.1L471.1 149.4L482.4 145.2L493.8 139.5L505.1 136.2L516.4 137.9L527.7 137.5L539.1 141.1L550.4 140.9L561.7 140.2L573.1 139.4L584.4 140.2L595.7 137.5L607 139.6L618.4 136.7L629.7 137.1L641 134.7L652.3 133.4L663.7 132.4L675 133.6L686.3 130.7L686.3 139.1L675 140.1L663.7 137.4L652.3 136.9L641 137.3L629.7 138.7L618.4 137.5L607 140.1L595.7 137.8L584.4 140.4L573.1 139.5L561.7 140.3L550.4 141L539.1 141.2L527.7 137.5L516.4 137.9L505.1 136.2L493.8 139.6L482.4 145.2L471.1 149.4L459.8 154.1L448.4 158.6L437.1 165.3L425.8 169.2L414.5 176L403.1 179.3L391.8 184L380.5 188.8L369.2 191.4L357.8 196L346.5 199.5L335.2 203L323.8 206.8L312.5 211.2L301.2 216L289.9 220.5L278.5 223.9L267.2 226.1L255.9 229.6L244.5 233.9L233.2 236.3L221.9 237.6L210.6 239.5L199.2 244.1L187.9 245.9L176.6 248.7L165.3 251.3L153.9 254.1L142.6 257.1L131.3 259.8L119.9 261.8L108.6 264.9" fill="#ffd53e" fill-opacity="0.7" class="World_3-area"></path><path stroke-linecap="round" d="M108.6 264.9L119.9 261.8L131.3 259.8L142.6 257.1L153.9 254.1L165.3 251.3L176.6 248.7L187.9 245.9L199.2 244.1L210.6 239.5L221.9 237.6L233.2 236.3L244.5 233.9L255.9 229.6L267.2 226.1L278.5 223.9L289.9 220.5L301.2 216L312.5 211.2L323.8 206.8L335.2 203L346.5 199.5L357.8 196L369.2 191.4L380.5 188.7L391.8 183.9L403.1 179.2L414.5 175.8L425.8 169L437.1 165.1L448.4 158.3L459.8 153.9L471.1 149.1L482.4 144.8L493.8 139L505.1 135.4L516.4 136.9L527.7 136.1L539.1 139.5L550.4 138.7L561.7 137.5L573.1 136L584.4 135.9L595.7 131.9L607 132.5L618.4 128L629.7 126L641 121.4L652.3 117.1L663.7 114.4L675 112.6L686.3 106.3L686.3 130.7L675 133.6L663.7 132.4L652.3 133.4L641 134.7L629.7 137.1L618.4 136.7L607 139.6L595.7 137.5L584.4 140.2L573.1 139.4L561.7 140.2L550.4 140.9L539.1 141.1L527.7 137.5L516.4 137.9L505.1 136.2L493.8 139.5L482.4 145.2L471.1 149.4L459.8 154.1L448.4 158.5L437.1 165.3L425.8 169.2L414.5 176L403.1 179.3L391.8 184L380.5 188.8L369.2 191.4L357.8 196L346.5 199.5L335.2 203L323.8 206.8L312.5 211.2L301.2 216L289.9 220.5L278.5 223.9L267.2 226.1L255.9 229.6L244.5 233.9L233.2 236.3L221.9 237.6L210.6 239.5L199.2 244.1L187.9 245.9L176.6 248.7L165.3 251.3L153.9 254.1L142.6 257.1L131.3 259.8L119.9 261.8L108.6 264.9" fill="#9ecc8a" fill-opacity="0.7" class="World_2-area"></path><path stroke-linecap="round" d="M108.6 264.8L119.9 261.6L131.3 259.6L142.6 256.9L153.9 253.9L165.3 251L176.6 248.4L187.9 245.6L199.2 243.8L210.6 239.1L221.9 237.1L233.2 235.8L244.5 233.4L255.9 229L267.2 225.5L278.5 223.2L289.9 219.7L301.2 215L312.5 210L323.8 205.6L335.2 201.7L346.5 198L357.8 194.4L369.2 189.8L380.5 186.1L391.8 180.9L403.1 176.1L414.5 172.5L425.8 165.6L437.1 161.6L448.4 154.6L459.8 150L471.1 145L482.4 140.5L493.8 134.5L505.1 130.7L516.4 132.1L527.7 130.9L539.1 134L550.4 132.8L561.7 131.1L573.1 129.1L584.4 128.4L595.7 124L607 124L618.4 118.5L629.7 115.9L641 110.5L652.3 105.4L663.7 101.8L675 99L686.3 92.1L686.3 106.3L675 112.6L663.7 114.4L652.3 117.1L641 121.4L629.7 126L618.4 128L607 132.5L595.7 131.9L584.4 135.9L573.1 136L561.7 137.5L550.4 138.7L539.1 139.5L527.7 136.1L516.4 136.9L505.1 135.4L493.8 139L482.4 144.8L471.1 149.1L459.8 153.9L448.4 158.3L437.1 165.1L425.8 169L414.5 175.8L403.1 179.2L391.8 183.9L380.5 188.7L369.2 191.4L357.8 196L346.5 199.5L335.2 203L323.8 206.8L312.5 211.2L301.2 216L289.9 220.5L278.5 223.9L267.2 226.1L255.9 229.6L244.5 233.9L233.2 236.3L221.9 237.6L210.6 239.5L199.2 244.1L187.9 245.9L176.6 248.7L165.3 251.3L153.9 254.1L142.6 257.1L131.3 259.8L119.9 261.8L108.6 264.9" fill="#34983f" fill-opacity="0.7" class="World_1-area"></path><path stroke-linecap="round" d="M108.6 288.2L119.9 286.8L131.3 285.4L142.6 284L153.9 282.5L165.3 281.1L176.6 279.7L187.9 278.3L199.2 276.9L210.6 275.5L221.9 274.1L233.2 272.7L244.5 271.3L255.9 269.9L267.2 268.4L278.5 267L289.9 264.3L301.2 261.6L312.5 258.8L323.8 256.1L335.2 253.3L346.5 250.4L357.8 247.6L369.2 244.7L380.5 241.8L391.8 238.8L403.1 235.5L414.5 232.1L425.8 228.7L437.1 225.2L448.4 221.7L459.8 218.2L471.1 214.6L482.4 211L493.8 205.7L505.1 203.6L516.4 203.6L527.7 204.3L539.1 207.9L550.4 212.2L561.7 214.3L573.1 216.4L584.4 218.5L595.7 220.6L607 222.7L618.4 224.7L629.7 227.6L641 230.4L652.3 233.2L663.7 236L675 238.8L686.3 241.5" stroke="rgb(43, 80, 141)" stroke-opacity="0.7" stroke-width="0.5" fill="none" class="World_0-border"></path><path stroke-linecap="round" d="M108.6 264.9L119.9 261.8L131.3 259.8L142.6 257.1L153.9 254.1L165.3 251.3L176.6 248.7L187.9 245.9L199.2 244.1L210.6 239.5L221.9 237.6L233.2 236.3L244.5 233.9L255.9 229.6L267.2 226.1L278.5 223.9L289.9 220.5L301.2 216L312.5 211.2L323.8 206.8L335.2 203L346.5 199.5L357.8 196L369.2 191.4L380.5 188.8L391.8 184L403.1 179.3L414.5 176L425.8 169.2L437.1 165.3L448.4 158.6L459.8 154.1L471.1 149.4L482.4 145.2L493.8 139.6L505.1 136.2L516.4 137.9L527.7 137.5L539.1 141.2L550.4 141L561.7 140.3L573.1 139.5L584.4 140.4L595.7 137.8L607 140.1L618.4 137.5L629.7 138.7L641 137.3L652.3 136.9L663.7 137.4L675 140.1L686.3 139.1" stroke="rgb(169, 32, 33)" stroke-opacity="0.7" stroke-width="0.5" fill="none" class="World_4-border"></path><path stroke-linecap="round" d="M108.6 264.9L119.9 261.8L131.3 259.8L142.6 257.1L153.9 254.1L165.3 251.3L176.6 248.7L187.9 245.9L199.2 244.1L210.6 239.5L221.9 237.6L233.2 236.3L244.5 233.9L255.9 229.6L267.2 226.1L278.5 223.9L289.9 220.5L301.2 216L312.5 211.2L323.8 206.8L335.2 203L346.5 199.5L357.8 196L369.2 191.4L380.5 188.8L391.8 184L403.1 179.3L414.5 176L425.8 169.2L437.1 165.3L448.4 158.5L459.8 154.1L471.1 149.4L482.4 145.2L493.8 139.5L505.1 136.2L516.4 137.9L527.7 137.5L539.1 141.1L550.4 140.9L561.7 140.2L573.1 139.4L584.4 140.2L595.7 137.5L607 139.6L618.4 136.7L629.7 137.1L641 134.7L652.3 133.4L663.7 132.4L675 133.6L686.3 130.7" stroke="rgb(213, 178, 52)" stroke-opacity="0.7" stroke-width="0.5" fill="none" class="World_3-border"></path><path stroke-linecap="round" d="M108.6 264.9L119.9 261.8L131.3 259.8L142.6 257.1L153.9 254.1L165.3 251.3L176.6 248.7L187.9 245.9L199.2 244.1L210.6 239.5L221.9 237.6L233.2 236.3L244.5 233.9L255.9 229.6L267.2 226.1L278.5 223.9L289.9 220.5L301.2 216L312.5 211.2L323.8 206.8L335.2 203L346.5 199.5L357.8 196L369.2 191.4L380.5 188.7L391.8 183.9L403.1 179.2L414.5 175.8L425.8 169L437.1 165.1L448.4 158.3L459.8 153.9L471.1 149.1L482.4 144.8L493.8 139L505.1 135.4L516.4 136.9L527.7 136.1L539.1 139.5L550.4 138.7L561.7 137.5L573.1 136L584.4 135.9L595.7 131.9L607 132.5L618.4 128L629.7 126L641 121.4L652.3 117.1L663.7 114.4L675 112.6L686.3 106.3" stroke="rgb(132, 171, 115)" stroke-opacity="0.7" stroke-width="0.5" fill="none" class="World_2-border"></path><path stroke-linecap="round" d="M108.6 264.8L119.9 261.6L131.3 259.6L142.6 256.9L153.9 253.9L165.3 251L176.6 248.4L187.9 245.6L199.2 243.8L210.6 239.1L221.9 237.1L233.2 235.8L244.5 233.4L255.9 229L267.2 225.5L278.5 223.2L289.9 219.7L301.2 215L312.5 210L323.8 205.6L335.2 201.7L346.5 198L357.8 194.4L369.2 189.8L380.5 186.1L391.8 180.9L403.1 176.1L414.5 172.5L425.8 165.6L437.1 161.6L448.4 154.6L459.8 150L471.1 145L482.4 140.5L493.8 134.5L505.1 130.7L516.4 132.1L527.7 130.9L539.1 134L550.4 132.8L561.7 131.1L573.1 129.1L584.4 128.4L595.7 124L607 124L618.4 118.5L629.7 115.9L641 110.5L652.3 105.4L663.7 101.8L675 99L686.3 92.1" stroke="rgb(44, 127, 53)" stroke-opacity="0.7" stroke-width="0.5" fill="none" class="World_1-border"></path></g></g></g><g style="fill: #777;" class="SourcesFooter"><g style="fill: #777;" class="clickable"><text font-size="12.60" x="15.0" y="567.0"><tspan x="15" y="566.98">Source: Global Energy Production by Source - Vaclav Smil (2017) &amp; BP Statistics, BP Statistical Review of Global Energy</tspan></text></g><text font-size="12.60" x="15.0" y="582.5"><tspan x="15" y="582.48"><a target='_blank' style='fill: #777;' href='https://ourworldindata.org/renewables'>OurWorldInData.org/renewables</a> • <a style="fill: #777;" class="cclogo" href="http://creativecommons.org/licenses/by-sa/4.0/deed.en_US" target="_blank">CC BY-SA</a></tspan></text></g></g></svg>