<svg xmlns="http://www.w3.org/2000/svg" version="1.1" style="font-family: 'Helvetica Neue', Helvetica, Arial, sans-serif; font-size: 18px; background-color: white; text-rendering: optimizeLegibility; -webkit-font-smoothing: antialiased;" width="850" height="600"><g class="ChartTab"><g class="HeaderView"><g opacity="0.8" transform="translate(778, 15) scale(0.27)"><a xmlns:xlink="http://www.w3.org/1999/xlink" xlink:href="https://ourworldindata.org" target="_blank"><g><rect x="0" y="0" fill="#1B2543" width="211.2" height="130.1"/><rect x="0" y="112.2" fill="#E63912" width="211.2" height="17.9"/><g><rect x="1.2" y="12.3" fill="none" width="210.2" height="99.2"/><path fill="#FFFFFF" d="M37.8,32.2c0,12.7-7.7,19.4-17.1,19.4c-9.7,0-16.6-7.5-16.6-18.7c0-11.7,7.3-19.3,17.1-19.3 C31.3,13.7,37.8,21.3,37.8,32.2z M9.2,32.8c0,7.9,4.3,14.9,11.8,14.9c7.5,0,11.8-6.9,11.8-15.3c0-7.3-3.8-14.9-11.8-14.9 C13.1,17.5,9.2,24.8,9.2,32.8z"/><path fill="#FFFFFF" d="M62.7,43.8c0,2.7,0.1,5.1,0.2,7.2h-4.3l-0.3-4.3h-0.1c-1.3,2.1-4,4.9-8.8,4.9c-4.2,0-9.1-2.3-9.1-11.6 V24.6h4.8v14.6c0,5,1.5,8.4,5.9,8.4c3.2,0,5.5-2.2,6.3-4.4c0.3-0.7,0.4-1.6,0.4-2.5V24.6h4.8V43.8z"/><path fill="#FFFFFF" d="M67.3,32.8c0-3.1-0.1-5.8-0.2-8.2h4.2l0.2,5.2h0.2c1.2-3.5,4.1-5.8,7.3-5.8c0.5,0,0.9,0.1,1.4,0.2v4.5 c-0.5-0.1-1-0.2-1.6-0.2c-3.4,0-5.8,2.6-6.5,6.2c-0.1,0.7-0.2,1.4-0.2,2.2V51h-4.8V32.8z"/><path fill="#FFFFFF" d="M95.4,51l-9.4-36.8h5l4.4,18.6c1.1,4.6,2.1,9.2,2.7,12.7h0.1c0.6-3.7,1.8-8,3-12.8l4.9-18.5h5l4.5,18.7 c1,4.4,2,8.7,2.6,12.6h0.1c0.8-4,1.8-8.1,3-12.7l4.9-18.5h4.9L120.6,51h-5L111,31.9c-1.1-4.7-1.9-8.3-2.4-12h-0.1 c-0.7,3.7-1.5,7.3-2.8,12L100.4,51H95.4z"/><path fill="#FFFFFF" d="M154.9,37.6c0,9.8-6.8,14-13.2,14c-7.2,0-12.7-5.2-12.7-13.6c0-8.8,5.8-14,13.1-14 C149.8,24,154.9,29.5,154.9,37.6z M133.9,37.9c0,5.8,3.3,10.1,8,10.1c4.6,0,8-4.3,8-10.3c0-4.5-2.2-10.1-7.9-10.1 C136.3,27.6,133.9,32.8,133.9,37.9z"/><path fill="#FFFFFF" d="M158.2,32.8c0-3.1-0.1-5.8-0.2-8.2h4.2l0.2,5.2h0.2c1.2-3.5,4.1-5.8,7.3-5.8c0.5,0,0.9,0.1,1.4,0.2v4.5 c-0.5-0.1-1-0.2-1.6-0.2c-3.4,0-5.8,2.6-6.5,6.2c-0.1,0.7-0.2,1.4-0.2,2.2V51h-4.8V32.8z"/><path fill="#FFFFFF" d="M173.5,12.3h4.8V51h-4.8V12.3z"/><path fill="#FFFFFF" d="M206.5,12.3v31.9c0,2.3,0.1,5,0.2,6.8h-4.3l-0.2-4.6H202c-1.5,2.9-4.7,5.2-9,5.2 c-6.4,0-11.3-5.4-11.3-13.4c-0.1-8.8,5.4-14.2,11.9-14.2c4,0,6.8,1.9,8,4h0.1V12.3H206.5z M201.7,35.4c0-0.6-0.1-1.4-0.2-2 c-0.7-3.1-3.3-5.6-6.9-5.6c-5,0-7.9,4.4-7.9,10.2c0,5.3,2.6,9.8,7.8,9.8c3.2,0,6.2-2.1,7.1-5.7c0.2-0.7,0.2-1.3,0.2-2.1V35.4z"/><path fill="#FFFFFF" d="M42.8,64c0.1,1.6-1.1,2.9-3.1,2.9c-1.7,0-2.9-1.3-2.9-2.9c0-1.7,1.3-3,3-3C41.7,61,42.8,62.3,42.8,64z M37.4,97.8V71.4h4.8v26.4H37.4z"/><path fill="#FFFFFF" d="M47.5,78.6c0-2.7-0.1-5-0.2-7.1h4.3l0.3,4.4h0.1c1.3-2.5,4.4-5,8.8-5c3.7,0,9.4,2.2,9.4,11.2v15.8h-4.8 V82.6c0-4.3-1.6-7.8-6.1-7.8c-3.2,0-5.6,2.2-6.5,4.9c-0.2,0.6-0.3,1.4-0.3,2.2v15.9h-4.8V78.6z"/><path fill="#FFFFFF" d="M84,61.6c2.9-0.4,6.3-0.8,10.1-0.8c6.8,0,11.7,1.6,14.9,4.6c3.3,3,5.2,7.3,5.2,13.2c0,6-1.9,10.9-5.3,14.3 c-3.4,3.4-9.1,5.3-16.3,5.3c-3.4,0-6.2-0.2-8.6-0.4V61.6z M88.8,94.1c1.2,0.2,3,0.3,4.8,0.3c10.2,0,15.7-5.7,15.7-15.6 c0.1-8.7-4.9-14.2-14.9-14.2c-2.5,0-4.3,0.2-5.6,0.5V94.1z"/><path fill="#FFFFFF" d="M132.1,97.8l-0.4-3.3h-0.2c-1.5,2.1-4.3,3.9-8.1,3.9c-5.4,0-8.1-3.8-8.1-7.6c0-6.4,5.7-9.9,15.9-9.8v-0.5 c0-2.2-0.6-6.1-6-6.1c-2.5,0-5,0.8-6.9,2l-1.1-3.2c2.2-1.4,5.4-2.3,8.7-2.3c8.1,0,10.1,5.5,10.1,10.8v9.9c0,2.3,0.1,4.5,0.4,6.3 H132.1z M131.4,84.4c-5.3-0.1-11.2,0.8-11.2,5.9c0,3.1,2.1,4.6,4.5,4.6c3.4,0,5.6-2.2,6.4-4.4c0.2-0.5,0.3-1,0.3-1.5V84.4z"/><path fill="#FFFFFF" d="M146.6,63.9v7.6h6.9v3.7h-6.9v14.2c0,3.3,0.9,5.1,3.6,5.1c1.3,0,2.2-0.2,2.8-0.3l0.2,3.6 c-0.9,0.4-2.4,0.7-4.3,0.7c-2.2,0-4-0.7-5.2-2c-1.4-1.4-1.9-3.8-1.9-6.9V75.1h-4.1v-3.7h4.1v-6.3L146.6,63.9z"/><path fill="#FFFFFF" d="M171.4,97.8l-0.4-3.3h-0.2c-1.5,2.1-4.3,3.9-8.1,3.9c-5.4,0-8.1-3.8-8.1-7.6c0-6.4,5.7-9.9,15.9-9.8v-0.5 c0-2.2-0.6-6.1-6-6.1c-2.5,0-5,0.8-6.9,2l-1.1-3.2c2.2-1.4,5.4-2.3,8.7-2.3c8.1,0,10.1,5.5,10.1,10.8v9.9c0,2.3,0.1,4.5,0.4,6.3 H171.4z M170.7,84.4c-5.3-0.1-11.2,0.8-11.2,5.9c0,3.1,2.1,4.6,4.5,4.6c3.4,0,5.6-2.2,6.4-4.4c0.2-0.5,0.3-1,0.3-1.5V84.4z"/></g></g></a></g><a href="https://ourworldindata.org/grapher/respiratory-disease-deaths-by-age" target="_blank"><text font-size="25.20" x="15.0" y="35.2" fill="#555"><tspan x="15" y="35.160000000000004">Respiratory disease deaths by age, World</tspan></text></a><text font-size="14.40" x="15.0" y="53.7" fill="#666"><tspan x="15" y="53.72">Annual number of deaths from respiratory disease, differentiated by age category.</tspan></text></g><g class="StackedArea"><defs><clipPath id="boundsClip-237"><rect x="93.062" y="0" width="820" height="959.8"></rect></clipPath></defs><g class="AxisBoxView"><g class="HorizontalAxis"><text x="93.1" y="556.5" fill="#666" text-anchor="middle" font-size="16.2">1990</text><text x="206.7" y="556.5" fill="#666" text-anchor="middle" font-size="16.2">1995</text><text x="320.3" y="556.5" fill="#666" text-anchor="middle" font-size="16.2">2000</text><text x="433.9" y="556.5" fill="#666" text-anchor="middle" font-size="16.2">2005</text><text x="547.5" y="556.5" fill="#666" text-anchor="middle" font-size="16.2">2010</text><text x="661.1" y="556.5" fill="#666" text-anchor="middle" font-size="16.2">2015</text><text x="706.6" y="556.5" fill="#666" text-anchor="middle" font-size="16.2">2017</text></g><g class="VerticalAxis"><text x="88.06" y="535.3" fill="#666" dominant-baseline="middle" text-anchor="end" font-size="16.2">0</text><text x="88.06" y="476.7" fill="#666" dominant-baseline="middle" text-anchor="end" font-size="16.2">500,000</text><text x="88.06" y="418.1" fill="#666" dominant-baseline="middle" text-anchor="end" font-size="16.2">1 million</text><text x="88.06" y="359.5" fill="#666" dominant-baseline="middle" text-anchor="end" font-size="16.2">1.5 million</text><text x="88.06" y="300.9" fill="#666" dominant-baseline="middle" text-anchor="end" font-size="16.2">2 million</text><text x="88.06" y="242.3" fill="#666" dominant-baseline="middle" text-anchor="end" font-size="16.2">2.5 million</text><text x="88.06" y="183.7" fill="#666" dominant-baseline="middle" text-anchor="end" font-size="16.2">3 million</text><text x="88.06" y="125.1" fill="#666" dominant-baseline="middle" text-anchor="end" font-size="16.2">3.5 million</text></g><g class="AxisGridLines"><line x1="93.06" y1="535.3" x2="706.58" y2="535.3" stroke="#ccc"></line><line x1="93.06" y1="476.7" x2="706.58" y2="476.7" stroke="#ddd" stroke-dasharray="3,2"></line><line x1="93.06" y1="418.1" x2="706.58" y2="418.1" stroke="#ddd" stroke-dasharray="3,2"></line><line x1="93.06" y1="359.5" x2="706.58" y2="359.5" stroke="#ddd" stroke-dasharray="3,2"></line><line x1="93.06" y1="300.9" x2="706.58" y2="300.9" stroke="#ddd" stroke-dasharray="3,2"></line><line x1="93.06" y1="242.3" x2="706.58" y2="242.3" stroke="#ddd" stroke-dasharray="3,2"></line><line x1="93.06" y1="183.7" x2="706.58" y2="183.7" stroke="#ddd" stroke-dasharray="3,2"></line><line x1="93.06" y1="125.1" x2="706.58" y2="125.1" stroke="#ddd" stroke-dasharray="3,2"></line></g></g><g clip-path="url(#boundsClip-237)"><g class="HeightedLegend clickable"><g class="legendMark"><g class="indicator"><line x1="711.5799999999999" y1="534.7" x2="730.7466666666666" y2="534.7" stroke="#666" stroke-width="0.5"></line><line x1="730.7466666666666" y1="534.7" x2="730.7466666666666" y2="528.55" stroke="#666" stroke-width="0.5"></line><line x1="730.7466666666666" y1="528.55" x2="736.5799999999999" y2="528.55" stroke="#666" stroke-width="0.5"></line></g><rect x="706.5799999999999" y="521.8" width="90.62" height="13.5" fill="#fff" opacity="0"></rect><text font-size="13.50" x="741.6" y="532.6" fill="#3360a9"><tspan x="741.5799999999999" y="532.5999999999999">Under-5s</tspan></text></g><g class="legendMark"><g class="indicator"><line x1="711.5799999999999" y1="533.6" x2="724.0799999999999" y2="533.6" stroke="#666" stroke-width="0.5"></line><line x1="724.0799999999999" y1="533.6" x2="724.0799999999999" y2="513.05" stroke="#666" stroke-width="0.5"></line><line x1="724.0799999999999" y1="513.05" x2="736.5799999999999" y2="513.05" stroke="#666" stroke-width="0.5"></line></g><rect x="706.5799999999999" y="506.29999999999995" width="120.86" height="13.5" fill="#fff" opacity="0"></rect><text font-size="13.50" x="741.6" y="517.1" fill="#ca2628"><tspan x="741.5799999999999" y="517.0999999999999">5-14 years old</tspan></text></g><g class="legendMark"><g class="indicator"><line x1="711.5799999999999" y1="523.7" x2="717.4133333333333" y2="523.7" stroke="#666" stroke-width="0.5"></line><line x1="717.4133333333333" y1="523.7" x2="717.4133333333333" y2="497.54999999999995" stroke="#666" stroke-width="0.5"></line><line x1="717.4133333333333" y1="497.54999999999995" x2="736.5799999999999" y2="497.54999999999995" stroke="#666" stroke-width="0.5"></line></g><rect x="706.5799999999999" y="490.79999999999995" width="128.42000000000002" height="13.5" fill="#fff" opacity="0"></rect><text font-size="13.50" x="741.6" y="501.6" fill="#ffd53e"><tspan x="741.5799999999999" y="501.59999999999997">15-49 years old</tspan></text></g><g class="legendMark"><g class="indicator"><line x1="711.5799999999999" y1="455.3" x2="724.0799999999999" y2="455.3" stroke="#666" stroke-width="0.5"></line><line x1="724.0799999999999" y1="455.3" x2="724.0799999999999" y2="455.3" stroke="#666" stroke-width="0.5"></line><line x1="724.0799999999999" y1="455.3" x2="736.5799999999999" y2="455.3" stroke="#666" stroke-width="0.5"></line></g><rect x="706.5799999999999" y="448.55" width="128.42000000000002" height="13.5" fill="#fff" opacity="0"></rect><text font-size="13.50" x="741.6" y="459.4" fill="#9ecc8a"><tspan x="741.5799999999999" y="459.35">50-69 years old</tspan></text></g><g class="legendMark"><g class="indicator"><line x1="711.5799999999999" y1="236.5" x2="724.0799999999999" y2="236.5" stroke="#666" stroke-width="0.5"></line><line x1="724.0799999999999" y1="236.5" x2="724.0799999999999" y2="236.5" stroke="#666" stroke-width="0.5"></line><line x1="724.0799999999999" y1="236.5" x2="736.5799999999999" y2="236.5" stroke="#666" stroke-width="0.5"></line></g><rect x="706.5799999999999" y="229.75" width="116.67500000000001" height="13.5" fill="#fff" opacity="0"></rect><text font-size="13.50" x="741.6" y="240.6" fill="#34983f"><tspan x="741.5799999999999" y="240.55">70+ years old</tspan></text></g></g><g class="Areas"><rect x="93.062" y="76.6" width="613.5179999999999" height="458.69999999999993" opacity="0" fill="rgba(255,255,255,0)"></rect><path stroke-linecap="round" d="M93.1 530.8L115.8 530.9L138.5 531L161.2 531.1L184 531.2L206.7 531.4L229.4 531.5L252.1 531.7L274.8 531.8L297.6 532.1L320.3 532.3L343 532.6L365.7 532.8L388.5 533L411.2 533.1L433.9 533.2L456.6 533.3L479.4 533.4L502.1 533.5L524.8 533.5L547.5 533.6L570.2 533.7L593 533.7L615.7 533.8L638.4 533.8L661.1 533.9L683.9 534L706.6 534L706.5799999999999 535.3L93.062 535.3" fill="#3360a9" fill-opacity="0.7" class="World_0-area"></path><path stroke-linecap="round" d="M93.1 528.8L115.8 528.9L138.5 529L161.2 529.1L184 529.3L206.7 529.5L229.4 529.7L252.1 529.9L274.8 530.1L297.6 530.4L320.3 530.7L343 531.1L365.7 531.4L388.5 531.7L411.2 531.9L433.9 532.1L456.6 532.2L479.4 532.3L502.1 532.4L524.8 532.5L547.5 532.6L570.2 532.7L593 532.8L615.7 532.8L638.4 532.9L661.1 533L683.9 533.1L706.6 533.2L706.6 534L683.9 534L661.1 533.9L638.4 533.8L615.7 533.8L593 533.7L570.2 533.7L547.5 533.6L524.8 533.5L502.1 533.5L479.4 533.4L456.6 533.3L433.9 533.2L411.2 533.1L388.5 533L365.7 532.8L343 532.6L320.3 532.3L297.6 532.1L274.8 531.8L252.1 531.7L229.4 531.5L206.7 531.4L184 531.2L161.2 531.1L138.5 531L115.8 530.9L93.1 530.8" fill="#ca2628" fill-opacity="0.7" class="World_4-area"></path><path stroke-linecap="round" d="M93.1 504.6L115.8 504.5L138.5 504.1L161.2 504L184 503.9L206.7 503.9L229.4 504L252.1 504.1L274.8 504.4L297.6 504.8L320.3 505.6L343 507L365.7 508.3L388.5 509.6L411.2 510.6L433.9 511.2L456.6 511.6L479.4 512L502.1 512.2L524.8 512.2L547.5 512.5L570.2 512.9L593 513.5L615.7 513.8L638.4 514L661.1 514.1L683.9 514.1L706.6 514.1L706.6 533.2L683.9 533.1L661.1 533L638.4 532.9L615.7 532.8L593 532.8L570.2 532.7L547.5 532.6L524.8 532.5L502.1 532.4L479.4 532.3L456.6 532.2L433.9 532.1L411.2 531.9L388.5 531.7L365.7 531.4L343 531.1L320.3 530.7L297.6 530.4L274.8 530.1L252.1 529.9L229.4 529.7L206.7 529.5L184 529.3L161.2 529.1L138.5 529L115.8 528.9L93.1 528.8" fill="#ffd53e" fill-opacity="0.7" class="World_3-area"></path><path stroke-linecap="round" d="M93.1 378.6L115.8 377.4L138.5 375.7L161.2 375.2L184 375.2L206.7 376L229.4 376.6L252.1 376.4L274.8 378.6L297.6 383.2L320.3 386.9L343 391.1L365.7 394.4L388.5 397.8L411.2 403.2L433.9 406.9L456.6 409.5L479.4 410.5L502.1 410.8L524.8 410.5L547.5 409.8L570.2 409.3L593 409.1L615.7 407.4L638.4 404.3L661.1 400.3L683.9 397.5L706.6 396.4L706.6 514.1L683.9 514.1L661.1 514.1L638.4 514L615.7 513.8L593 513.5L570.2 512.9L547.5 512.5L524.8 512.2L502.1 512.2L479.4 512L456.6 511.6L433.9 511.2L411.2 510.6L388.5 509.6L365.7 508.3L343 507L320.3 505.6L297.6 504.8L274.8 504.4L252.1 504.1L229.4 504L206.7 503.9L184 503.9L161.2 504L138.5 504.1L115.8 504.5L93.1 504.6" fill="#9ecc8a" fill-opacity="0.7" class="World_2-area"></path><path stroke-linecap="round" d="M93.1 146.6L115.8 139.3L138.5 132.3L161.2 126.8L184 122.5L206.7 120.1L229.4 117.1L252.1 111.2L274.8 108L297.6 112.4L320.3 114.7L343 117.8L365.7 119.2L388.5 121.3L411.2 130.1L433.9 135L456.6 139.8L479.4 139.1L502.1 134.6L524.8 128.7L547.5 122.5L570.2 119.2L593 118.7L615.7 116.8L638.4 108.9L661.1 97.1L683.9 86.9L706.6 76.6L706.6 396.4L683.9 397.5L661.1 400.3L638.4 404.3L615.7 407.4L593 409.1L570.2 409.3L547.5 409.8L524.8 410.5L502.1 410.8L479.4 410.5L456.6 409.5L433.9 406.9L411.2 403.2L388.5 397.8L365.7 394.4L343 391.1L320.3 386.9L297.6 383.2L274.8 378.6L252.1 376.4L229.4 376.6L206.7 376L184 375.2L161.2 375.2L138.5 375.7L115.8 377.4L93.1 378.6" fill="#34983f" fill-opacity="0.7" class="World_1-area"></path><path stroke-linecap="round" d="M93.1 530.8L115.8 530.9L138.5 531L161.2 531.1L184 531.2L206.7 531.4L229.4 531.5L252.1 531.7L274.8 531.8L297.6 532.1L320.3 532.3L343 532.6L365.7 532.8L388.5 533L411.2 533.1L433.9 533.2L456.6 533.3L479.4 533.4L502.1 533.5L524.8 533.5L547.5 533.6L570.2 533.7L593 533.7L615.7 533.8L638.4 533.8L661.1 533.9L683.9 534L706.6 534" stroke="rgb(43, 80, 141)" stroke-opacity="0.7" stroke-width="0.5" fill="none" class="World_0-border"></path><path stroke-linecap="round" d="M93.1 528.8L115.8 528.9L138.5 529L161.2 529.1L184 529.3L206.7 529.5L229.4 529.7L252.1 529.9L274.8 530.1L297.6 530.4L320.3 530.7L343 531.1L365.7 531.4L388.5 531.7L411.2 531.9L433.9 532.1L456.6 532.2L479.4 532.3L502.1 532.4L524.8 532.5L547.5 532.6L570.2 532.7L593 532.8L615.7 532.8L638.4 532.9L661.1 533L683.9 533.1L706.6 533.2" stroke="rgb(169, 32, 33)" stroke-opacity="0.7" stroke-width="0.5" fill="none" class="World_4-border"></path><path stroke-linecap="round" d="M93.1 504.6L115.8 504.5L138.5 504.1L161.2 504L184 503.9L206.7 503.9L229.4 504L252.1 504.1L274.8 504.4L297.6 504.8L320.3 505.6L343 507L365.7 508.3L388.5 509.6L411.2 510.6L433.9 511.2L456.6 511.6L479.4 512L502.1 512.2L524.8 512.2L547.5 512.5L570.2 512.9L593 513.5L615.7 513.8L638.4 514L661.1 514.1L683.9 514.1L706.6 514.1" stroke="rgb(213, 178, 52)" stroke-opacity="0.7" stroke-width="0.5" fill="none" class="World_3-border"></path><path stroke-linecap="round" d="M93.1 378.6L115.8 377.4L138.5 375.7L161.2 375.2L184 375.2L206.7 376L229.4 376.6L252.1 376.4L274.8 378.6L297.6 383.2L320.3 386.9L343 391.1L365.7 394.4L388.5 397.8L411.2 403.2L433.9 406.9L456.6 409.5L479.4 410.5L502.1 410.8L524.8 410.5L547.5 409.8L570.2 409.3L593 409.1L615.7 407.4L638.4 404.3L661.1 400.3L683.9 397.5L706.6 396.4" stroke="rgb(132, 171, 115)" stroke-opacity="0.7" stroke-width="0.5" fill="none" class="World_2-border"></path><path stroke-linecap="round" d="M93.1 146.6L115.8 139.3L138.5 132.3L161.2 126.8L184 122.5L206.7 120.1L229.4 117.1L252.1 111.2L274.8 108L297.6 112.4L320.3 114.7L343 117.8L365.7 119.2L388.5 121.3L411.2 130.1L433.9 135L456.6 139.8L479.4 139.1L502.1 134.6L524.8 128.7L547.5 122.5L570.2 119.2L593 118.7L615.7 116.8L638.4 108.9L661.1 97.1L683.9 86.9L706.6 76.6" stroke="rgb(44, 127, 53)" stroke-opacity="0.7" stroke-width="0.5" fill="none" class="World_1-border"></path></g></g></g><g style="fill: #777;" class="SourcesFooter"><g style="fill: #777;" class="clickable"><text font-size="12.60" x="15.0" y="581.6"><tspan x="15" y="581.58">Source: IHME, Global Burden of Disease (GBD)</tspan></text></g><text font-size="12.60" x="775.4" y="581.6"><tspan x="775.402" y="581.58"><a style="fill: #777;" class="cclogo" href="http://creativecommons.org/licenses/by-sa/4.0/deed.en_US" target="_blank">CC BY-SA</a></tspan></text></g></g></svg>