<svg xmlns="http://www.w3.org/2000/svg" version="1.1" style="font-family: 'Helvetica Neue', Helvetica, Arial, sans-serif; font-size: 18px; background-color: white; text-rendering: optimizeLegibility; -webkit-font-smoothing: antialiased;" width="850" height="600"><g class="ChartTab"><g class="HeaderView"><g opacity="0.8" transform="translate(778, 15) scale(0.27)"><a xmlns:xlink="http://www.w3.org/1999/xlink" xlink:href="https://ourworldindata.org" target="_blank"><g><rect x="0" y="0" fill="#1B2543" width="211.2" height="130.1"/><rect x="0" y="112.2" fill="#E63912" width="211.2" height="17.9"/><g><rect x="1.2" y="12.3" fill="none" width="210.2" height="99.2"/><path fill="#FFFFFF" d="M37.8,32.2c0,12.7-7.7,19.4-17.1,19.4c-9.7,0-16.6-7.5-16.6-18.7c0-11.7,7.3-19.3,17.1-19.3 C31.3,13.7,37.8,21.3,37.8,32.2z M9.2,32.8c0,7.9,4.3,14.9,11.8,14.9c7.5,0,11.8-6.9,11.8-15.3c0-7.3-3.8-14.9-11.8-14.9 C13.1,17.5,9.2,24.8,9.2,32.8z"/><path fill="#FFFFFF" d="M62.7,43.8c0,2.7,0.1,5.1,0.2,7.2h-4.3l-0.3-4.3h-0.1c-1.3,2.1-4,4.9-8.8,4.9c-4.2,0-9.1-2.3-9.1-11.6 V24.6h4.8v14.6c0,5,1.5,8.4,5.9,8.4c3.2,0,5.5-2.2,6.3-4.4c0.3-0.7,0.4-1.6,0.4-2.5V24.6h4.8V43.8z"/><path fill="#FFFFFF" d="M67.3,32.8c0-3.1-0.1-5.8-0.2-8.2h4.2l0.2,5.2h0.2c1.2-3.5,4.1-5.8,7.3-5.8c0.5,0,0.9,0.1,1.4,0.2v4.5 c-0.5-0.1-1-0.2-1.6-0.2c-3.4,0-5.8,2.6-6.5,6.2c-0.1,0.7-0.2,1.4-0.2,2.2V51h-4.8V32.8z"/><path fill="#FFFFFF" d="M95.4,51l-9.4-36.8h5l4.4,18.6c1.1,4.6,2.1,9.2,2.7,12.7h0.1c0.6-3.7,1.8-8,3-12.8l4.9-18.5h5l4.5,18.7 c1,4.4,2,8.7,2.6,12.6h0.1c0.8-4,1.8-8.1,3-12.7l4.9-18.5h4.9L120.6,51h-5L111,31.9c-1.1-4.7-1.9-8.3-2.4-12h-0.1 c-0.7,3.7-1.5,7.3-2.8,12L100.4,51H95.4z"/><path fill="#FFFFFF" d="M154.9,37.6c0,9.8-6.8,14-13.2,14c-7.2,0-12.7-5.2-12.7-13.6c0-8.8,5.8-14,13.1-14 C149.8,24,154.9,29.5,154.9,37.6z M133.9,37.9c0,5.8,3.3,10.1,8,10.1c4.6,0,8-4.3,8-10.3c0-4.5-2.2-10.1-7.9-10.1 C136.3,27.6,133.9,32.8,133.9,37.9z"/><path fill="#FFFFFF" d="M158.2,32.8c0-3.1-0.1-5.8-0.2-8.2h4.2l0.2,5.2h0.2c1.2-3.5,4.1-5.8,7.3-5.8c0.5,0,0.9,0.1,1.4,0.2v4.5 c-0.5-0.1-1-0.2-1.6-0.2c-3.4,0-5.8,2.6-6.5,6.2c-0.1,0.7-0.2,1.4-0.2,2.2V51h-4.8V32.8z"/><path fill="#FFFFFF" d="M173.5,12.3h4.8V51h-4.8V12.3z"/><path fill="#FFFFFF" d="M206.5,12.3v31.9c0,2.3,0.1,5,0.2,6.8h-4.3l-0.2-4.6H202c-1.5,2.9-4.7,5.2-9,5.2 c-6.4,0-11.3-5.4-11.3-13.4c-0.1-8.8,5.4-14.2,11.9-14.2c4,0,6.8,1.9,8,4h0.1V12.3H206.5z M201.7,35.4c0-0.6-0.1-1.4-0.2-2 c-0.7-3.1-3.3-5.6-6.9-5.6c-5,0-7.9,4.4-7.9,10.2c0,5.3,2.6,9.8,7.8,9.8c3.2,0,6.2-2.1,7.1-5.7c0.2-0.7,0.2-1.3,0.2-2.1V35.4z"/><path fill="#FFFFFF" d="M42.8,64c0.1,1.6-1.1,2.9-3.1,2.9c-1.7,0-2.9-1.3-2.9-2.9c0-1.7,1.3-3,3-3C41.7,61,42.8,62.3,42.8,64z M37.4,97.8V71.4h4.8v26.4H37.4z"/><path fill="#FFFFFF" d="M47.5,78.6c0-2.7-0.1-5-0.2-7.1h4.3l0.3,4.4h0.1c1.3-2.5,4.4-5,8.8-5c3.7,0,9.4,2.2,9.4,11.2v15.8h-4.8 V82.6c0-4.3-1.6-7.8-6.1-7.8c-3.2,0-5.6,2.2-6.5,4.9c-0.2,0.6-0.3,1.4-0.3,2.2v15.9h-4.8V78.6z"/><path fill="#FFFFFF" d="M84,61.6c2.9-0.4,6.3-0.8,10.1-0.8c6.8,0,11.7,1.6,14.9,4.6c3.3,3,5.2,7.3,5.2,13.2c0,6-1.9,10.9-5.3,14.3 c-3.4,3.4-9.1,5.3-16.3,5.3c-3.4,0-6.2-0.2-8.6-0.4V61.6z M88.8,94.1c1.2,0.2,3,0.3,4.8,0.3c10.2,0,15.7-5.7,15.7-15.6 c0.1-8.7-4.9-14.2-14.9-14.2c-2.5,0-4.3,0.2-5.6,0.5V94.1z"/><path fill="#FFFFFF" d="M132.1,97.8l-0.4-3.3h-0.2c-1.5,2.1-4.3,3.9-8.1,3.9c-5.4,0-8.1-3.8-8.1-7.6c0-6.4,5.7-9.9,15.9-9.8v-0.5 c0-2.2-0.6-6.1-6-6.1c-2.5,0-5,0.8-6.9,2l-1.1-3.2c2.2-1.4,5.4-2.3,8.7-2.3c8.1,0,10.1,5.5,10.1,10.8v9.9c0,2.3,0.1,4.5,0.4,6.3 H132.1z M131.4,84.4c-5.3-0.1-11.2,0.8-11.2,5.9c0,3.1,2.1,4.6,4.5,4.6c3.4,0,5.6-2.2,6.4-4.4c0.2-0.5,0.3-1,0.3-1.5V84.4z"/><path fill="#FFFFFF" d="M146.6,63.9v7.6h6.9v3.7h-6.9v14.2c0,3.3,0.9,5.1,3.6,5.1c1.3,0,2.2-0.2,2.8-0.3l0.2,3.6 c-0.9,0.4-2.4,0.7-4.3,0.7c-2.2,0-4-0.7-5.2-2c-1.4-1.4-1.9-3.8-1.9-6.9V75.1h-4.1v-3.7h4.1v-6.3L146.6,63.9z"/><path fill="#FFFFFF" d="M171.4,97.8l-0.4-3.3h-0.2c-1.5,2.1-4.3,3.9-8.1,3.9c-5.4,0-8.1-3.8-8.1-7.6c0-6.4,5.7-9.9,15.9-9.8v-0.5 c0-2.2-0.6-6.1-6-6.1c-2.5,0-5,0.8-6.9,2l-1.1-3.2c2.2-1.4,5.4-2.3,8.7-2.3c8.1,0,10.1,5.5,10.1,10.8v9.9c0,2.3,0.1,4.5,0.4,6.3 H171.4z M170.7,84.4c-5.3-0.1-11.2,0.8-11.2,5.9c0,3.1,2.1,4.6,4.5,4.6c3.4,0,5.6-2.2,6.4-4.4c0.2-0.5,0.3-1,0.3-1.5V84.4z"/></g></g></a></g><a href="https://ourworldindata.org/grapher/road-deaths-by-type" target="_blank"><text font-size="25.20" x="15.0" y="35.2" fill="#555"><tspan x="15" y="35.160000000000004">Motor vehicle, motorcyclist, cyclist and pedestrian deaths, World</tspan></text></a><text font-size="14.40" x="15.0" y="53.7" fill="#666"><tspan x="15" y="53.72">Annual number of deaths from road accidents, differentiated by motor vehicle (drivers and passengers), motorcyclists,</tspan><tspan x="15" y="69.56">cyclists and pedestrians.</tspan></text></g><g class="StackedArea"><defs><clipPath id="boundsClip-243"><rect x="93.062" y="0" width="820" height="928.8"></rect></clipPath></defs><g class="AxisBoxView"><g class="HorizontalAxis"><text x="93.1" y="556.5" fill="#666" text-anchor="middle" font-size="16.2">1990</text><text x="203.4" y="556.5" fill="#666" text-anchor="middle" font-size="16.2">1995</text><text x="313.6" y="556.5" fill="#666" text-anchor="middle" font-size="16.2">2000</text><text x="423.9" y="556.5" fill="#666" text-anchor="middle" font-size="16.2">2005</text><text x="534.2" y="556.5" fill="#666" text-anchor="middle" font-size="16.2">2010</text><text x="644.5" y="556.5" fill="#666" text-anchor="middle" font-size="16.2">2015</text><text x="688.6" y="556.5" fill="#666" text-anchor="middle" font-size="16.2">2017</text></g><g class="VerticalAxis"><text x="88.06" y="535.3" fill="#666" dominant-baseline="middle" text-anchor="end" font-size="16.2">0</text><text x="88.06" y="467.1" fill="#666" dominant-baseline="middle" text-anchor="end" font-size="16.2">200,000</text><text x="88.06" y="398.9" fill="#666" dominant-baseline="middle" text-anchor="end" font-size="16.2">400,000</text><text x="88.06" y="330.7" fill="#666" dominant-baseline="middle" text-anchor="end" font-size="16.2">600,000</text><text x="88.06" y="262.5" fill="#666" dominant-baseline="middle" text-anchor="end" font-size="16.2">800,000</text><text x="88.06" y="194.4" fill="#666" dominant-baseline="middle" text-anchor="end" font-size="16.2">1 million</text><text x="88.06" y="126.2" fill="#666" dominant-baseline="middle" text-anchor="end" font-size="16.2">1.2 million</text></g><g class="AxisGridLines"><line x1="93.06" y1="535.3" x2="688.63" y2="535.3" stroke="#ccc"></line><line x1="93.06" y1="467.1" x2="688.63" y2="467.1" stroke="#ddd" stroke-dasharray="3,2"></line><line x1="93.06" y1="398.9" x2="688.63" y2="398.9" stroke="#ddd" stroke-dasharray="3,2"></line><line x1="93.06" y1="330.7" x2="688.63" y2="330.7" stroke="#ddd" stroke-dasharray="3,2"></line><line x1="93.06" y1="262.5" x2="688.63" y2="262.5" stroke="#ddd" stroke-dasharray="3,2"></line><line x1="93.06" y1="194.4" x2="688.63" y2="194.4" stroke="#ddd" stroke-dasharray="3,2"></line><line x1="93.06" y1="126.2" x2="688.63" y2="126.2" stroke="#ddd" stroke-dasharray="3,2"></line></g></g><g clip-path="url(#boundsClip-243)"><g class="HeightedLegend clickable"><g class="legendMark"><rect x="688.625" y="106.65" width="146.375" height="13.5" fill="#fff" opacity="0"></rect><text font-size="13.50" x="693.6" y="117.5" fill="#34983f"><tspan x="693.625" y="117.45">Other road injuries</tspan></text></g><g class="legendMark"><rect x="688.625" y="120.35" width="81.44" height="13.5" fill="#fff" opacity="0"></rect><text font-size="13.50" x="693.6" y="131.2" fill="#9ecc8a"><tspan x="693.625" y="131.15">Cyclists</tspan></text></g><g class="legendMark"><rect x="688.625" y="170.55" width="113.03" height="13.5" fill="#fff" opacity="0"></rect><text font-size="13.50" x="693.6" y="181.4" fill="#ffd53e"><tspan x="693.625" y="181.35000000000002">Motorcyclists</tspan></text></g><g class="legendMark"><rect x="688.625" y="271.25" width="122.21000000000001" height="42.7" fill="#fff" opacity="0"></rect><text font-size="13.50" x="693.6" y="282.1" fill="#ca2628"><tspan x="693.625" y="282.05">Motor vehicles</tspan><tspan x="693.625" y="296.90000000000003">(drivers &amp;</tspan><tspan x="693.625" y="311.75">passengers)</tspan></text></g><g class="legendMark"><rect x="688.625" y="445.65" width="106.55000000000001" height="13.5" fill="#fff" opacity="0"></rect><text font-size="13.50" x="693.6" y="456.4" fill="#3360a9"><tspan x="693.625" y="456.45">Pedestrians</tspan></text></g></g><g class="Areas"><rect x="93.062" y="92.1" width="595.563" height="443.19999999999993" opacity="0" fill="rgba(255,255,255,0)"></rect><path stroke-linecap="round" d="M93.1 364.9L115.1 363.5L137.2 359.9L159.2 356.6L181.3 353.7L203.4 351.6L225.4 352.3L247.5 352.5L269.5 353.1L291.6 352.1L313.6 351L335.7 352.9L357.8 354.1L379.8 356.7L401.9 356.9L423.9 356.6L446 358.6L468 358.3L490.1 356.4L512.2 355.3L534.2 355.1L556.3 356.2L578.3 357.6L600.4 361.2L622.5 362.3L644.5 364.3L666.6 366.1L688.6 369.5L688.625 535.3L93.062 535.3" fill="#3360a9" fill-opacity="0.7" class="World_0-area"></path><path stroke-linecap="round" d="M93.1 218.8L115.1 215.8L137.2 210.3L159.2 204.5L181.3 199.5L203.4 196.1L225.4 197L247.5 196.5L269.5 196.4L291.6 194L313.6 192.3L335.7 194.8L357.8 195.8L379.8 198.4L401.9 198.9L423.9 197.6L446 200.5L468 200.5L490.1 198.7L512.2 198.5L534.2 199.3L556.3 201.6L578.3 203.9L600.4 208.8L622.5 210.2L644.5 212.2L666.6 213L688.6 215.7L688.6 369.5L666.6 366.1L644.5 364.3L622.5 362.3L600.4 361.2L578.3 357.6L556.3 356.2L534.2 355.1L512.2 355.3L490.1 356.4L468 358.3L446 358.6L423.9 356.6L401.9 356.9L379.8 356.7L357.8 354.1L335.7 352.9L313.6 351L291.6 352.1L269.5 353.1L247.5 352.5L225.4 352.3L203.4 351.6L181.3 353.7L159.2 356.6L137.2 359.9L115.1 363.5L93.1 364.9" fill="#ca2628" fill-opacity="0.7" class="World_4-area"></path><path stroke-linecap="round" d="M93.1 160L115.1 156.2L137.2 149.3L159.2 142.2L181.3 135.6L203.4 130.6L225.4 130.7L247.5 129.4L269.5 128.5L291.6 124.1L313.6 121L335.7 123.5L357.8 124L379.8 126.5L401.9 125.6L423.9 122.8L446 124.6L468 123.1L490.1 119.6L512.2 118.3L534.2 118.3L556.3 120.2L578.3 122.2L600.4 129L622.5 131.2L644.5 134.4L666.6 135.4L688.6 138.8L688.6 215.7L666.6 213L644.5 212.2L622.5 210.2L600.4 208.8L578.3 203.9L556.3 201.6L534.2 199.3L512.2 198.5L490.1 198.7L468 200.5L446 200.5L423.9 197.6L401.9 198.9L379.8 198.4L357.8 195.8L335.7 194.8L313.6 192.3L291.6 194L269.5 196.4L247.5 196.5L225.4 197L203.4 196.1L181.3 199.5L159.2 204.5L137.2 210.3L115.1 215.8L93.1 218.8" fill="#ffd53e" fill-opacity="0.7" class="World_3-area"></path><path stroke-linecap="round" d="M93.1 146.4L115.1 142.2L137.2 134.7L159.2 127.1L181.3 120L203.4 114.3L225.4 114L247.5 112L269.5 110.5L291.6 105.5L313.6 101.8L335.7 103.9L357.8 104L379.8 106.2L401.9 104.7L423.9 101.4L446 103.3L468 101.6L490.1 97.7L512.2 96.2L534.2 96.1L556.3 97.9L578.3 100L600.4 106.7L622.5 108.5L644.5 111.4L666.6 112.1L688.6 115.3L688.6 138.8L666.6 135.4L644.5 134.4L622.5 131.2L600.4 129L578.3 122.2L556.3 120.2L534.2 118.3L512.2 118.3L490.1 119.6L468 123.1L446 124.6L423.9 122.8L401.9 125.6L379.8 126.5L357.8 124L335.7 123.5L313.6 121L291.6 124.1L269.5 128.5L247.5 129.4L225.4 130.7L203.4 130.6L181.3 135.6L159.2 142.2L137.2 149.3L115.1 156.2L93.1 160" fill="#9ecc8a" fill-opacity="0.7" class="World_1-area"></path><path stroke-linecap="round" d="M93.1 143L115.1 138.7L137.2 131.2L159.2 123.6L181.3 116.4L203.4 110.7L225.4 110.4L247.5 108.4L269.5 106.9L291.6 101.8L313.6 98L335.7 100.1L357.8 100.1L379.8 102.4L401.9 100.8L423.9 97.4L446 99.3L468 97.5L490.1 93.6L512.2 92.1L534.2 92.1L556.3 93.9L578.3 96L600.4 102.8L622.5 104.7L644.5 107.6L666.6 108.3L688.6 111.5L688.6 115.3L666.6 112.1L644.5 111.4L622.5 108.5L600.4 106.7L578.3 100L556.3 97.9L534.2 96.1L512.2 96.2L490.1 97.7L468 101.6L446 103.3L423.9 101.4L401.9 104.7L379.8 106.2L357.8 104L335.7 103.9L313.6 101.8L291.6 105.5L269.5 110.5L247.5 112L225.4 114L203.4 114.3L181.3 120L159.2 127.1L137.2 134.7L115.1 142.2L93.1 146.4" fill="#34983f" fill-opacity="0.7" class="World_2-area"></path><path stroke-linecap="round" d="M93.1 364.9L115.1 363.5L137.2 359.9L159.2 356.6L181.3 353.7L203.4 351.6L225.4 352.3L247.5 352.5L269.5 353.1L291.6 352.1L313.6 351L335.7 352.9L357.8 354.1L379.8 356.7L401.9 356.9L423.9 356.6L446 358.6L468 358.3L490.1 356.4L512.2 355.3L534.2 355.1L556.3 356.2L578.3 357.6L600.4 361.2L622.5 362.3L644.5 364.3L666.6 366.1L688.6 369.5" stroke="rgb(43, 80, 141)" stroke-opacity="0.7" stroke-width="0.5" fill="none" class="World_0-border"></path><path stroke-linecap="round" d="M93.1 218.8L115.1 215.8L137.2 210.3L159.2 204.5L181.3 199.5L203.4 196.1L225.4 197L247.5 196.5L269.5 196.4L291.6 194L313.6 192.3L335.7 194.8L357.8 195.8L379.8 198.4L401.9 198.9L423.9 197.6L446 200.5L468 200.5L490.1 198.7L512.2 198.5L534.2 199.3L556.3 201.6L578.3 203.9L600.4 208.8L622.5 210.2L644.5 212.2L666.6 213L688.6 215.7" stroke="rgb(169, 32, 33)" stroke-opacity="0.7" stroke-width="0.5" fill="none" class="World_4-border"></path><path stroke-linecap="round" d="M93.1 160L115.1 156.2L137.2 149.3L159.2 142.2L181.3 135.6L203.4 130.6L225.4 130.7L247.5 129.4L269.5 128.5L291.6 124.1L313.6 121L335.7 123.5L357.8 124L379.8 126.5L401.9 125.6L423.9 122.8L446 124.6L468 123.1L490.1 119.6L512.2 118.3L534.2 118.3L556.3 120.2L578.3 122.2L600.4 129L622.5 131.2L644.5 134.4L666.6 135.4L688.6 138.8" stroke="rgb(213, 178, 52)" stroke-opacity="0.7" stroke-width="0.5" fill="none" class="World_3-border"></path><path stroke-linecap="round" d="M93.1 146.4L115.1 142.2L137.2 134.7L159.2 127.1L181.3 120L203.4 114.3L225.4 114L247.5 112L269.5 110.5L291.6 105.5L313.6 101.8L335.7 103.9L357.8 104L379.8 106.2L401.9 104.7L423.9 101.4L446 103.3L468 101.6L490.1 97.7L512.2 96.2L534.2 96.1L556.3 97.9L578.3 100L600.4 106.7L622.5 108.5L644.5 111.4L666.6 112.1L688.6 115.3" stroke="rgb(132, 171, 115)" stroke-opacity="0.7" stroke-width="0.5" fill="none" class="World_1-border"></path><path stroke-linecap="round" d="M93.1 143L115.1 138.7L137.2 131.2L159.2 123.6L181.3 116.4L203.4 110.7L225.4 110.4L247.5 108.4L269.5 106.9L291.6 101.8L313.6 98L335.7 100.1L357.8 100.1L379.8 102.4L401.9 100.8L423.9 97.4L446 99.3L468 97.5L490.1 93.6L512.2 92.1L534.2 92.1L556.3 93.9L578.3 96L600.4 102.8L622.5 104.7L644.5 107.6L666.6 108.3L688.6 111.5" stroke="rgb(44, 127, 53)" stroke-opacity="0.7" stroke-width="0.5" fill="none" class="World_2-border"></path></g></g></g><g style="fill: #777;" class="SourcesFooter"><g style="fill: #777;" class="clickable"><text font-size="12.60" x="15.0" y="581.6"><tspan x="15" y="581.58">Source: IHME, Global Burden of Disease (GBD)</tspan></text></g><text font-size="12.60" x="775.4" y="581.6"><tspan x="775.402" y="581.58"><a style="fill: #777;" class="cclogo" href="http://creativecommons.org/licenses/by-sa/4.0/deed.en_US" target="_blank">CC BY-SA</a></tspan></text></g></g></svg>