<svg xmlns="http://www.w3.org/2000/svg" version="1.1" style="font-family: 'Helvetica Neue', Helvetica, Arial, sans-serif; font-size: 18px; background-color: white; text-rendering: optimizeLegibility; -webkit-font-smoothing: antialiased;" width="850" height="600"><g class="ChartTab"><g class="HeaderView"><g opacity="0.8" transform="translate(778, 15) scale(0.27)"><a xmlns:xlink="http://www.w3.org/1999/xlink" xlink:href="https://ourworldindata.org" target="_blank"><g><rect x="0" y="0" fill="#1B2543" width="211.2" height="130.1"/><rect x="0" y="112.2" fill="#E63912" width="211.2" height="17.9"/><g><rect x="1.2" y="12.3" fill="none" width="210.2" height="99.2"/><path fill="#FFFFFF" d="M37.8,32.2c0,12.7-7.7,19.4-17.1,19.4c-9.7,0-16.6-7.5-16.6-18.7c0-11.7,7.3-19.3,17.1-19.3 C31.3,13.7,37.8,21.3,37.8,32.2z M9.2,32.8c0,7.9,4.3,14.9,11.8,14.9c7.5,0,11.8-6.9,11.8-15.3c0-7.3-3.8-14.9-11.8-14.9 C13.1,17.5,9.2,24.8,9.2,32.8z"/><path fill="#FFFFFF" d="M62.7,43.8c0,2.7,0.1,5.1,0.2,7.2h-4.3l-0.3-4.3h-0.1c-1.3,2.1-4,4.9-8.8,4.9c-4.2,0-9.1-2.3-9.1-11.6 V24.6h4.8v14.6c0,5,1.5,8.4,5.9,8.4c3.2,0,5.5-2.2,6.3-4.4c0.3-0.7,0.4-1.6,0.4-2.5V24.6h4.8V43.8z"/><path fill="#FFFFFF" d="M67.3,32.8c0-3.1-0.1-5.8-0.2-8.2h4.2l0.2,5.2h0.2c1.2-3.5,4.1-5.8,7.3-5.8c0.5,0,0.9,0.1,1.4,0.2v4.5 c-0.5-0.1-1-0.2-1.6-0.2c-3.4,0-5.8,2.6-6.5,6.2c-0.1,0.7-0.2,1.4-0.2,2.2V51h-4.8V32.8z"/><path fill="#FFFFFF" d="M95.4,51l-9.4-36.8h5l4.4,18.6c1.1,4.6,2.1,9.2,2.7,12.7h0.1c0.6-3.7,1.8-8,3-12.8l4.9-18.5h5l4.5,18.7 c1,4.4,2,8.7,2.6,12.6h0.1c0.8-4,1.8-8.1,3-12.7l4.9-18.5h4.9L120.6,51h-5L111,31.9c-1.1-4.7-1.9-8.3-2.4-12h-0.1 c-0.7,3.7-1.5,7.3-2.8,12L100.4,51H95.4z"/><path fill="#FFFFFF" d="M154.9,37.6c0,9.8-6.8,14-13.2,14c-7.2,0-12.7-5.2-12.7-13.6c0-8.8,5.8-14,13.1-14 C149.8,24,154.9,29.5,154.9,37.6z M133.9,37.9c0,5.8,3.3,10.1,8,10.1c4.6,0,8-4.3,8-10.3c0-4.5-2.2-10.1-7.9-10.1 C136.3,27.6,133.9,32.8,133.9,37.9z"/><path fill="#FFFFFF" d="M158.2,32.8c0-3.1-0.1-5.8-0.2-8.2h4.2l0.2,5.2h0.2c1.2-3.5,4.1-5.8,7.3-5.8c0.5,0,0.9,0.1,1.4,0.2v4.5 c-0.5-0.1-1-0.2-1.6-0.2c-3.4,0-5.8,2.6-6.5,6.2c-0.1,0.7-0.2,1.4-0.2,2.2V51h-4.8V32.8z"/><path fill="#FFFFFF" d="M173.5,12.3h4.8V51h-4.8V12.3z"/><path fill="#FFFFFF" d="M206.5,12.3v31.9c0,2.3,0.1,5,0.2,6.8h-4.3l-0.2-4.6H202c-1.5,2.9-4.7,5.2-9,5.2 c-6.4,0-11.3-5.4-11.3-13.4c-0.1-8.8,5.4-14.2,11.9-14.2c4,0,6.8,1.9,8,4h0.1V12.3H206.5z M201.7,35.4c0-0.6-0.1-1.4-0.2-2 c-0.7-3.1-3.3-5.6-6.9-5.6c-5,0-7.9,4.4-7.9,10.2c0,5.3,2.6,9.8,7.8,9.8c3.2,0,6.2-2.1,7.1-5.7c0.2-0.7,0.2-1.3,0.2-2.1V35.4z"/><path fill="#FFFFFF" d="M42.8,64c0.1,1.6-1.1,2.9-3.1,2.9c-1.7,0-2.9-1.3-2.9-2.9c0-1.7,1.3-3,3-3C41.7,61,42.8,62.3,42.8,64z M37.4,97.8V71.4h4.8v26.4H37.4z"/><path fill="#FFFFFF" d="M47.5,78.6c0-2.7-0.1-5-0.2-7.1h4.3l0.3,4.4h0.1c1.3-2.5,4.4-5,8.8-5c3.7,0,9.4,2.2,9.4,11.2v15.8h-4.8 V82.6c0-4.3-1.6-7.8-6.1-7.8c-3.2,0-5.6,2.2-6.5,4.9c-0.2,0.6-0.3,1.4-0.3,2.2v15.9h-4.8V78.6z"/><path fill="#FFFFFF" d="M84,61.6c2.9-0.4,6.3-0.8,10.1-0.8c6.8,0,11.7,1.6,14.9,4.6c3.3,3,5.2,7.3,5.2,13.2c0,6-1.9,10.9-5.3,14.3 c-3.4,3.4-9.1,5.3-16.3,5.3c-3.4,0-6.2-0.2-8.6-0.4V61.6z M88.8,94.1c1.2,0.2,3,0.3,4.8,0.3c10.2,0,15.7-5.7,15.7-15.6 c0.1-8.7-4.9-14.2-14.9-14.2c-2.5,0-4.3,0.2-5.6,0.5V94.1z"/><path fill="#FFFFFF" d="M132.1,97.8l-0.4-3.3h-0.2c-1.5,2.1-4.3,3.9-8.1,3.9c-5.4,0-8.1-3.8-8.1-7.6c0-6.4,5.7-9.9,15.9-9.8v-0.5 c0-2.2-0.6-6.1-6-6.1c-2.5,0-5,0.8-6.9,2l-1.1-3.2c2.2-1.4,5.4-2.3,8.7-2.3c8.1,0,10.1,5.5,10.1,10.8v9.9c0,2.3,0.1,4.5,0.4,6.3 H132.1z M131.4,84.4c-5.3-0.1-11.2,0.8-11.2,5.9c0,3.1,2.1,4.6,4.5,4.6c3.4,0,5.6-2.2,6.4-4.4c0.2-0.5,0.3-1,0.3-1.5V84.4z"/><path fill="#FFFFFF" d="M146.6,63.9v7.6h6.9v3.7h-6.9v14.2c0,3.3,0.9,5.1,3.6,5.1c1.3,0,2.2-0.2,2.8-0.3l0.2,3.6 c-0.9,0.4-2.4,0.7-4.3,0.7c-2.2,0-4-0.7-5.2-2c-1.4-1.4-1.9-3.8-1.9-6.9V75.1h-4.1v-3.7h4.1v-6.3L146.6,63.9z"/><path fill="#FFFFFF" d="M171.4,97.8l-0.4-3.3h-0.2c-1.5,2.1-4.3,3.9-8.1,3.9c-5.4,0-8.1-3.8-8.1-7.6c0-6.4,5.7-9.9,15.9-9.8v-0.5 c0-2.2-0.6-6.1-6-6.1c-2.5,0-5,0.8-6.9,2l-1.1-3.2c2.2-1.4,5.4-2.3,8.7-2.3c8.1,0,10.1,5.5,10.1,10.8v9.9c0,2.3,0.1,4.5,0.4,6.3 H171.4z M170.7,84.4c-5.3-0.1-11.2,0.8-11.2,5.9c0,3.1,2.1,4.6,4.5,4.6c3.4,0,5.6-2.2,6.4-4.4c0.2-0.5,0.3-1,0.3-1.5V84.4z"/></g></g></a></g><a href="https://ourworldindata.org/grapher/road-death-rates-by-age" target="_blank"><text font-size="25.20" x="15.0" y="35.2" fill="#555"><tspan x="15" y="35.160000000000004">Road incident death rates by age (per 100,000), World</tspan></text></a><text font-size="14.40" x="15.0" y="53.7" fill="#666"><tspan x="15" y="53.72">Death rates from road incidents by age, measured as the number of deaths per 100,000 individuals. Road incidents</tspan><tspan x="15" y="69.56">include deaths from motor vehicles, motorcyclists, cyclists and pedestrians. </tspan></text></g><g class="LineChart"><defs><clipPath id="boundsClip-239"><rect x="28.144000000000005" y="0" width="830" height="928.8"></rect></clipPath></defs><g class="AxisBoxView"><g class="HorizontalAxis"><text x="38.1" y="556.5" fill="#666" text-anchor="middle" font-size="16.2">1990</text><text x="159.6" y="556.5" fill="#666" text-anchor="middle" font-size="16.2">1995</text><text x="281" y="556.5" fill="#666" text-anchor="middle" font-size="16.2">2000</text><text x="402.4" y="556.5" fill="#666" text-anchor="middle" font-size="16.2">2005</text><text x="523.8" y="556.5" fill="#666" text-anchor="middle" font-size="16.2">2010</text><text x="645.2" y="556.5" fill="#666" text-anchor="middle" font-size="16.2">2015</text><text x="693.8" y="556.5" fill="#666" text-anchor="middle" font-size="16.2">2017</text></g><g class="VerticalAxis"><text x="33.14" y="535.3" fill="#666" dominant-baseline="middle" text-anchor="end" font-size="16.2">0</text><text x="33.14" y="481.4" fill="#666" dominant-baseline="middle" text-anchor="end" font-size="16.2">5</text><text x="33.14" y="427.5" fill="#666" dominant-baseline="middle" text-anchor="end" font-size="16.2">10</text><text x="33.14" y="373.6" fill="#666" dominant-baseline="middle" text-anchor="end" font-size="16.2">15</text><text x="33.14" y="319.7" fill="#666" dominant-baseline="middle" text-anchor="end" font-size="16.2">20</text><text x="33.14" y="265.7" fill="#666" dominant-baseline="middle" text-anchor="end" font-size="16.2">25</text><text x="33.14" y="211.8" fill="#666" dominant-baseline="middle" text-anchor="end" font-size="16.2">30</text><text x="33.14" y="157.9" fill="#666" dominant-baseline="middle" text-anchor="end" font-size="16.2">35</text><text x="33.14" y="104" fill="#666" dominant-baseline="middle" text-anchor="end" font-size="16.2">40</text></g><g class="AxisGridLines"><line x1="38.14" y1="535.3" x2="693.75" y2="535.3" stroke="#ccc"></line><line x1="38.14" y1="481.4" x2="693.75" y2="481.4" stroke="#ddd" stroke-dasharray="3,2"></line><line x1="38.14" y1="427.5" x2="693.75" y2="427.5" stroke="#ddd" stroke-dasharray="3,2"></line><line x1="38.14" y1="373.6" x2="693.75" y2="373.6" stroke="#ddd" stroke-dasharray="3,2"></line><line x1="38.14" y1="319.7" x2="693.75" y2="319.7" stroke="#ddd" stroke-dasharray="3,2"></line><line x1="38.14" y1="265.7" x2="693.75" y2="265.7" stroke="#ddd" stroke-dasharray="3,2"></line><line x1="38.14" y1="211.8" x2="693.75" y2="211.8" stroke="#ddd" stroke-dasharray="3,2"></line><line x1="38.14" y1="157.9" x2="693.75" y2="157.9" stroke="#ddd" stroke-dasharray="3,2"></line><line x1="38.14" y1="104" x2="693.75" y2="104" stroke="#ddd" stroke-dasharray="3,2"></line></g></g><g clip-path="url(#boundsClip-239)"><g class="HeightedLegend clickable"><g class="legendMark"><g class="indicator"><line x1="698.755" y1="159.6" x2="711.255" y2="159.6" stroke="#666" stroke-width="0.5"></line><line x1="711.255" y1="159.6" x2="711.255" y2="159.6" stroke="#666" stroke-width="0.5"></line><line x1="711.255" y1="159.6" x2="723.755" y2="159.6" stroke="#666" stroke-width="0.5"></line></g><rect x="693.755" y="152.85" width="116.67500000000001" height="13.5" fill="#fff" opacity="0"></rect><text font-size="13.50" x="728.8" y="163.7" fill="#e6332e"><tspan x="728.755" y="163.65">70+ years old</tspan></text></g><g class="legendMark"><g class="indicator"><line x1="698.755" y1="280.3" x2="711.255" y2="280.3" stroke="#666" stroke-width="0.5"></line><line x1="711.255" y1="280.3" x2="711.255" y2="280.3" stroke="#666" stroke-width="0.5"></line><line x1="711.255" y1="280.3" x2="723.755" y2="280.3" stroke="#666" stroke-width="0.5"></line></g><rect x="693.755" y="273.55" width="128.42000000000002" height="13.5" fill="#fff" opacity="0"></rect><text font-size="13.50" x="728.8" y="284.4" fill="#2a939b"><tspan x="728.755" y="284.35">50-69 years old</tspan></text></g><g class="legendMark"><g class="indicator"><line x1="698.755" y1="350.9" x2="717.9216666666666" y2="350.9" stroke="#666" stroke-width="0.5"></line><line x1="717.9216666666666" y1="350.9" x2="717.9216666666666" y2="350.9" stroke="#666" stroke-width="0.5"></line><line x1="717.9216666666666" y1="350.9" x2="723.755" y2="350.9" stroke="#666" stroke-width="0.5"></line></g><rect x="693.755" y="344.15" width="128.42000000000002" height="13.5" fill="#fff" opacity="0"></rect><text font-size="13.50" x="728.8" y="354.9" fill="#a652ba"><tspan x="728.755" y="354.95">15-49 years old</tspan></text></g><g class="legendMark"><g class="indicator"><line x1="698.755" y1="359.9" x2="711.255" y2="359.9" stroke="#666" stroke-width="0.5"></line><line x1="711.255" y1="359.9" x2="711.255" y2="366.4" stroke="#666" stroke-width="0.5"></line><line x1="711.255" y1="366.4" x2="723.755" y2="366.4" stroke="#666" stroke-width="0.5"></line></g><rect x="693.755" y="359.65" width="83.195" height="13.5" fill="#fff" opacity="0"></rect><text font-size="13.50" x="728.8" y="370.4" fill="#f6a324"><tspan x="728.755" y="370.45">All ages</tspan></text></g><g class="legendMark"><g class="indicator"><line x1="698.755" y1="364.7" x2="704.5883333333334" y2="364.7" stroke="#666" stroke-width="0.5"></line><line x1="704.5883333333334" y1="364.7" x2="704.5883333333334" y2="381.9" stroke="#666" stroke-width="0.5"></line><line x1="704.5883333333334" y1="381.9" x2="723.755" y2="381.9" stroke="#666" stroke-width="0.5"></line></g><rect x="693.755" y="375.15" width="141.245" height="13.5" fill="#fff" opacity="0"></rect><text font-size="13.50" x="728.8" y="385.9" fill="#34983f"><tspan x="728.755" y="385.95">Age-standardized</tspan></text></g><g class="legendMark"><g class="indicator"><line x1="698.755" y1="457.6" x2="711.255" y2="457.6" stroke="#666" stroke-width="0.5"></line><line x1="711.255" y1="457.6" x2="711.255" y2="457.6" stroke="#666" stroke-width="0.5"></line><line x1="711.255" y1="457.6" x2="723.755" y2="457.6" stroke="#666" stroke-width="0.5"></line></g><rect x="693.755" y="450.85" width="90.62" height="13.5" fill="#fff" opacity="0"></rect><text font-size="13.50" x="728.8" y="461.7" fill="#ca2628"><tspan x="728.755" y="461.65000000000003">Under-5s</tspan></text></g><g class="legendMark"><g class="indicator"><line x1="698.755" y1="483.4" x2="711.255" y2="483.4" stroke="#666" stroke-width="0.5"></line><line x1="711.255" y1="483.4" x2="711.255" y2="483.4" stroke="#666" stroke-width="0.5"></line><line x1="711.255" y1="483.4" x2="723.755" y2="483.4" stroke="#666" stroke-width="0.5"></line></g><rect x="693.755" y="476.65" width="120.86" height="13.5" fill="#fff" opacity="0"></rect><text font-size="13.50" x="728.8" y="487.4" fill="#3360a9"><tspan x="728.755" y="487.45">5-14 years old</tspan></text></g></g><g class="Lines"><rect x="38" y="92" width="656" height="443" fill="rgba(255,255,255,0)" opacity="0"></rect><g class="key-World_0"><path stroke="#ca2628" stroke-linecap="round" d="M38 346L62 350L87 354L111 358L135 361L160 364L184 369L208 374L232 379L257 383L281 388L305 393L330 397L354 402L378 406L402 410L427 414L451 418L475 422L500 426L524 431L548 434L572 437L597 441L621 444L645 447L670 452L694 458" fill="none" stroke-width="1.5"></path><g fill="#ca2628"><circle cx="38" cy="346" r="2"></circle><circle cx="62" cy="350" r="2"></circle><circle cx="87" cy="354" r="2"></circle><circle cx="111" cy="358" r="2"></circle><circle cx="135" cy="361" r="2"></circle><circle cx="160" cy="364" r="2"></circle><circle cx="184" cy="369" r="2"></circle><circle cx="208" cy="374" r="2"></circle><circle cx="232" cy="379" r="2"></circle><circle cx="257" cy="383" r="2"></circle><circle cx="281" cy="388" r="2"></circle><circle cx="305" cy="393" r="2"></circle><circle cx="330" cy="397" r="2"></circle><circle cx="354" cy="402" r="2"></circle><circle cx="378" cy="406" r="2"></circle><circle cx="402" cy="410" r="2"></circle><circle cx="427" cy="414" r="2"></circle><circle cx="451" cy="418" r="2"></circle><circle cx="475" cy="422" r="2"></circle><circle cx="500" cy="426" r="2"></circle><circle cx="524" cy="431" r="2"></circle><circle cx="548" cy="434" r="2"></circle><circle cx="572" cy="437" r="2"></circle><circle cx="597" cy="441" r="2"></circle><circle cx="621" cy="444" r="2"></circle><circle cx="645" cy="447" r="2"></circle><circle cx="670" cy="452" r="2"></circle><circle cx="694" cy="458" r="2"></circle></g></g><g class="key-World_1"><path stroke="#f6a324" stroke-linecap="round" d="M38 305L62 306L87 306L111 304L135 304L160 304L184 307L208 309L232 311L257 311L281 312L305 316L330 319L354 322L378 324L402 325L427 329L451 331L475 332L500 334L524 336L548 339L572 343L597 348L621 351L645 354L670 357L694 360" fill="none" stroke-width="1.5"></path><g fill="#f6a324"><circle cx="38" cy="305" r="2"></circle><circle cx="62" cy="306" r="2"></circle><circle cx="87" cy="306" r="2"></circle><circle cx="111" cy="304" r="2"></circle><circle cx="135" cy="304" r="2"></circle><circle cx="160" cy="304" r="2"></circle><circle cx="184" cy="307" r="2"></circle><circle cx="208" cy="309" r="2"></circle><circle cx="232" cy="311" r="2"></circle><circle cx="257" cy="311" r="2"></circle><circle cx="281" cy="312" r="2"></circle><circle cx="305" cy="316" r="2"></circle><circle cx="330" cy="319" r="2"></circle><circle cx="354" cy="322" r="2"></circle><circle cx="378" cy="324" r="2"></circle><circle cx="402" cy="325" r="2"></circle><circle cx="427" cy="329" r="2"></circle><circle cx="451" cy="331" r="2"></circle><circle cx="475" cy="332" r="2"></circle><circle cx="500" cy="334" r="2"></circle><circle cx="524" cy="336" r="2"></circle><circle cx="548" cy="339" r="2"></circle><circle cx="572" cy="343" r="2"></circle><circle cx="597" cy="348" r="2"></circle><circle cx="621" cy="351" r="2"></circle><circle cx="645" cy="354" r="2"></circle><circle cx="670" cy="357" r="2"></circle><circle cx="694" cy="360" r="2"></circle></g></g><g class="key-World_2"><path stroke="#3360a9" stroke-linecap="round" d="M38 429L62 430L87 429L111 429L135 431L160 432L184 434L208 437L232 441L257 444L281 446L305 449L330 455L354 460L378 461L402 462L427 465L451 467L475 468L500 468L524 469L548 470L572 472L597 474L621 476L645 479L670 481L694 483" fill="none" stroke-width="1.5"></path><g fill="#3360a9"><circle cx="38" cy="429" r="2"></circle><circle cx="62" cy="430" r="2"></circle><circle cx="87" cy="429" r="2"></circle><circle cx="111" cy="429" r="2"></circle><circle cx="135" cy="431" r="2"></circle><circle cx="160" cy="432" r="2"></circle><circle cx="184" cy="434" r="2"></circle><circle cx="208" cy="437" r="2"></circle><circle cx="232" cy="441" r="2"></circle><circle cx="257" cy="444" r="2"></circle><circle cx="281" cy="446" r="2"></circle><circle cx="305" cy="449" r="2"></circle><circle cx="330" cy="455" r="2"></circle><circle cx="354" cy="460" r="2"></circle><circle cx="378" cy="461" r="2"></circle><circle cx="402" cy="462" r="2"></circle><circle cx="427" cy="465" r="2"></circle><circle cx="451" cy="467" r="2"></circle><circle cx="475" cy="468" r="2"></circle><circle cx="500" cy="468" r="2"></circle><circle cx="524" cy="469" r="2"></circle><circle cx="548" cy="470" r="2"></circle><circle cx="572" cy="472" r="2"></circle><circle cx="597" cy="474" r="2"></circle><circle cx="621" cy="476" r="2"></circle><circle cx="645" cy="479" r="2"></circle><circle cx="670" cy="481" r="2"></circle><circle cx="694" cy="483" r="2"></circle></g></g><g class="key-World_3"><path stroke="#a652ba" stroke-linecap="round" d="M38 277L62 278L87 276L111 274L135 272L160 270L184 274L208 276L232 278L257 277L281 278L305 286L330 291L354 299L378 302L402 303L427 308L451 310L475 311L500 313L524 317L548 322L572 327L597 335L621 340L645 345L670 348L694 351" fill="none" stroke-width="1.5"></path><g fill="#a652ba"><circle cx="38" cy="277" r="2"></circle><circle cx="62" cy="278" r="2"></circle><circle cx="87" cy="276" r="2"></circle><circle cx="111" cy="274" r="2"></circle><circle cx="135" cy="272" r="2"></circle><circle cx="160" cy="270" r="2"></circle><circle cx="184" cy="274" r="2"></circle><circle cx="208" cy="276" r="2"></circle><circle cx="232" cy="278" r="2"></circle><circle cx="257" cy="277" r="2"></circle><circle cx="281" cy="278" r="2"></circle><circle cx="305" cy="286" r="2"></circle><circle cx="330" cy="291" r="2"></circle><circle cx="354" cy="299" r="2"></circle><circle cx="378" cy="302" r="2"></circle><circle cx="402" cy="303" r="2"></circle><circle cx="427" cy="308" r="2"></circle><circle cx="451" cy="310" r="2"></circle><circle cx="475" cy="311" r="2"></circle><circle cx="500" cy="313" r="2"></circle><circle cx="524" cy="317" r="2"></circle><circle cx="548" cy="322" r="2"></circle><circle cx="572" cy="327" r="2"></circle><circle cx="597" cy="335" r="2"></circle><circle cx="621" cy="340" r="2"></circle><circle cx="645" cy="345" r="2"></circle><circle cx="670" cy="348" r="2"></circle><circle cx="694" cy="351" r="2"></circle></g></g><g class="key-World_4"><path stroke="#2a939b" stroke-linecap="round" d="M38 239L62 240L87 241L111 239L135 239L160 241L184 245L208 247L232 251L257 253L281 252L305 251L330 247L354 243L378 245L402 247L427 251L451 252L475 254L500 259L524 261L548 262L572 264L597 268L621 269L645 270L670 272L694 280" fill="none" stroke-width="1.5"></path><g fill="#2a939b"><circle cx="38" cy="239" r="2"></circle><circle cx="62" cy="240" r="2"></circle><circle cx="87" cy="241" r="2"></circle><circle cx="111" cy="239" r="2"></circle><circle cx="135" cy="239" r="2"></circle><circle cx="160" cy="241" r="2"></circle><circle cx="184" cy="245" r="2"></circle><circle cx="208" cy="247" r="2"></circle><circle cx="232" cy="251" r="2"></circle><circle cx="257" cy="253" r="2"></circle><circle cx="281" cy="252" r="2"></circle><circle cx="305" cy="251" r="2"></circle><circle cx="330" cy="247" r="2"></circle><circle cx="354" cy="243" r="2"></circle><circle cx="378" cy="245" r="2"></circle><circle cx="402" cy="247" r="2"></circle><circle cx="427" cy="251" r="2"></circle><circle cx="451" cy="252" r="2"></circle><circle cx="475" cy="254" r="2"></circle><circle cx="500" cy="259" r="2"></circle><circle cx="524" cy="261" r="2"></circle><circle cx="548" cy="262" r="2"></circle><circle cx="572" cy="264" r="2"></circle><circle cx="597" cy="268" r="2"></circle><circle cx="621" cy="269" r="2"></circle><circle cx="645" cy="270" r="2"></circle><circle cx="670" cy="272" r="2"></circle><circle cx="694" cy="280" r="2"></circle></g></g><g class="key-World_5"><path stroke="#e6332e" stroke-linecap="round" d="M38 93L62 95L87 97L111 96L135 97L160 100L184 103L208 104L232 105L257 105L281 103L305 102L330 97L354 92L378 97L402 102L427 111L451 118L475 122L500 126L524 130L548 135L572 141L597 150L621 152L645 153L670 154L694 160" fill="none" stroke-width="1.5"></path><g fill="#e6332e"><circle cx="38" cy="93" r="2"></circle><circle cx="62" cy="95" r="2"></circle><circle cx="87" cy="97" r="2"></circle><circle cx="111" cy="96" r="2"></circle><circle cx="135" cy="97" r="2"></circle><circle cx="160" cy="100" r="2"></circle><circle cx="184" cy="103" r="2"></circle><circle cx="208" cy="104" r="2"></circle><circle cx="232" cy="105" r="2"></circle><circle cx="257" cy="105" r="2"></circle><circle cx="281" cy="103" r="2"></circle><circle cx="305" cy="102" r="2"></circle><circle cx="330" cy="97" r="2"></circle><circle cx="354" cy="92" r="2"></circle><circle cx="378" cy="97" r="2"></circle><circle cx="402" cy="102" r="2"></circle><circle cx="427" cy="111" r="2"></circle><circle cx="451" cy="118" r="2"></circle><circle cx="475" cy="122" r="2"></circle><circle cx="500" cy="126" r="2"></circle><circle cx="524" cy="130" r="2"></circle><circle cx="548" cy="135" r="2"></circle><circle cx="572" cy="141" r="2"></circle><circle cx="597" cy="150" r="2"></circle><circle cx="621" cy="152" r="2"></circle><circle cx="645" cy="153" r="2"></circle><circle cx="670" cy="154" r="2"></circle><circle cx="694" cy="160" r="2"></circle></g></g><g class="key-World_6"><path stroke="#34983f" stroke-linecap="round" d="M38 295L62 296L87 296L111 295L135 295L160 295L184 298L208 301L232 303L257 304L281 306L305 310L330 313L354 317L378 320L402 322L427 327L451 330L475 331L500 334L524 337L548 341L572 345L597 350L621 354L645 358L670 361L694 365" fill="none" stroke-width="1.5"></path><g fill="#34983f"><circle cx="38" cy="295" r="2"></circle><circle cx="62" cy="296" r="2"></circle><circle cx="87" cy="296" r="2"></circle><circle cx="111" cy="295" r="2"></circle><circle cx="135" cy="295" r="2"></circle><circle cx="160" cy="295" r="2"></circle><circle cx="184" cy="298" r="2"></circle><circle cx="208" cy="301" r="2"></circle><circle cx="232" cy="303" r="2"></circle><circle cx="257" cy="304" r="2"></circle><circle cx="281" cy="306" r="2"></circle><circle cx="305" cy="310" r="2"></circle><circle cx="330" cy="313" r="2"></circle><circle cx="354" cy="317" r="2"></circle><circle cx="378" cy="320" r="2"></circle><circle cx="402" cy="322" r="2"></circle><circle cx="427" cy="327" r="2"></circle><circle cx="451" cy="330" r="2"></circle><circle cx="475" cy="331" r="2"></circle><circle cx="500" cy="334" r="2"></circle><circle cx="524" cy="337" r="2"></circle><circle cx="548" cy="341" r="2"></circle><circle cx="572" cy="345" r="2"></circle><circle cx="597" cy="350" r="2"></circle><circle cx="621" cy="354" r="2"></circle><circle cx="645" cy="358" r="2"></circle><circle cx="670" cy="361" r="2"></circle><circle cx="694" cy="365" r="2"></circle></g></g></g></g></g><g style="fill: #777;" class="SourcesFooter"><g style="fill: #777;" class="clickable"><text font-size="12.60" x="15.0" y="581.6"><tspan x="15" y="581.58">Source: IHME, Global Burden of Disease (GBD)</tspan></text></g><text font-size="12.60" x="775.4" y="581.6"><tspan x="775.402" y="581.58"><a style="fill: #777;" class="cclogo" href="http://creativecommons.org/licenses/by-sa/4.0/deed.en_US" target="_blank">CC BY-SA</a></tspan></text></g></g></svg>