<svg xmlns="http://www.w3.org/2000/svg" version="1.1" style="font-family: 'Helvetica Neue', Helvetica, Arial, sans-serif; font-size: 18px; background-color: white; text-rendering: optimizeLegibility; -webkit-font-smoothing: antialiased;" width="850" height="600"><g class="ChartTab"><g class="HeaderView"><g opacity="0.8" transform="translate(778, 15) scale(0.27)"><a xmlns:xlink="http://www.w3.org/1999/xlink" xlink:href="https://ourworldindata.org" target="_blank"><g><rect x="0" y="0" fill="#1B2543" width="211.2" height="130.1"/><rect x="0" y="112.2" fill="#E63912" width="211.2" height="17.9"/><g><rect x="1.2" y="12.3" fill="none" width="210.2" height="99.2"/><path fill="#FFFFFF" d="M37.8,32.2c0,12.7-7.7,19.4-17.1,19.4c-9.7,0-16.6-7.5-16.6-18.7c0-11.7,7.3-19.3,17.1-19.3 C31.3,13.7,37.8,21.3,37.8,32.2z M9.2,32.8c0,7.9,4.3,14.9,11.8,14.9c7.5,0,11.8-6.9,11.8-15.3c0-7.3-3.8-14.9-11.8-14.9 C13.1,17.5,9.2,24.8,9.2,32.8z"/><path fill="#FFFFFF" d="M62.7,43.8c0,2.7,0.1,5.1,0.2,7.2h-4.3l-0.3-4.3h-0.1c-1.3,2.1-4,4.9-8.8,4.9c-4.2,0-9.1-2.3-9.1-11.6 V24.6h4.8v14.6c0,5,1.5,8.4,5.9,8.4c3.2,0,5.5-2.2,6.3-4.4c0.3-0.7,0.4-1.6,0.4-2.5V24.6h4.8V43.8z"/><path fill="#FFFFFF" d="M67.3,32.8c0-3.1-0.1-5.8-0.2-8.2h4.2l0.2,5.2h0.2c1.2-3.5,4.1-5.8,7.3-5.8c0.5,0,0.9,0.1,1.4,0.2v4.5 c-0.5-0.1-1-0.2-1.6-0.2c-3.4,0-5.8,2.6-6.5,6.2c-0.1,0.7-0.2,1.4-0.2,2.2V51h-4.8V32.8z"/><path fill="#FFFFFF" d="M95.4,51l-9.4-36.8h5l4.4,18.6c1.1,4.6,2.1,9.2,2.7,12.7h0.1c0.6-3.7,1.8-8,3-12.8l4.9-18.5h5l4.5,18.7 c1,4.4,2,8.7,2.6,12.6h0.1c0.8-4,1.8-8.1,3-12.7l4.9-18.5h4.9L120.6,51h-5L111,31.9c-1.1-4.7-1.9-8.3-2.4-12h-0.1 c-0.7,3.7-1.5,7.3-2.8,12L100.4,51H95.4z"/><path fill="#FFFFFF" d="M154.9,37.6c0,9.8-6.8,14-13.2,14c-7.2,0-12.7-5.2-12.7-13.6c0-8.8,5.8-14,13.1-14 C149.8,24,154.9,29.5,154.9,37.6z M133.9,37.9c0,5.8,3.3,10.1,8,10.1c4.6,0,8-4.3,8-10.3c0-4.5-2.2-10.1-7.9-10.1 C136.3,27.6,133.9,32.8,133.9,37.9z"/><path fill="#FFFFFF" d="M158.2,32.8c0-3.1-0.1-5.8-0.2-8.2h4.2l0.2,5.2h0.2c1.2-3.5,4.1-5.8,7.3-5.8c0.5,0,0.9,0.1,1.4,0.2v4.5 c-0.5-0.1-1-0.2-1.6-0.2c-3.4,0-5.8,2.6-6.5,6.2c-0.1,0.7-0.2,1.4-0.2,2.2V51h-4.8V32.8z"/><path fill="#FFFFFF" d="M173.5,12.3h4.8V51h-4.8V12.3z"/><path fill="#FFFFFF" d="M206.5,12.3v31.9c0,2.3,0.1,5,0.2,6.8h-4.3l-0.2-4.6H202c-1.5,2.9-4.7,5.2-9,5.2 c-6.4,0-11.3-5.4-11.3-13.4c-0.1-8.8,5.4-14.2,11.9-14.2c4,0,6.8,1.9,8,4h0.1V12.3H206.5z M201.7,35.4c0-0.6-0.1-1.4-0.2-2 c-0.7-3.1-3.3-5.6-6.9-5.6c-5,0-7.9,4.4-7.9,10.2c0,5.3,2.6,9.8,7.8,9.8c3.2,0,6.2-2.1,7.1-5.7c0.2-0.7,0.2-1.3,0.2-2.1V35.4z"/><path fill="#FFFFFF" d="M42.8,64c0.1,1.6-1.1,2.9-3.1,2.9c-1.7,0-2.9-1.3-2.9-2.9c0-1.7,1.3-3,3-3C41.7,61,42.8,62.3,42.8,64z M37.4,97.8V71.4h4.8v26.4H37.4z"/><path fill="#FFFFFF" d="M47.5,78.6c0-2.7-0.1-5-0.2-7.1h4.3l0.3,4.4h0.1c1.3-2.5,4.4-5,8.8-5c3.7,0,9.4,2.2,9.4,11.2v15.8h-4.8 V82.6c0-4.3-1.6-7.8-6.1-7.8c-3.2,0-5.6,2.2-6.5,4.9c-0.2,0.6-0.3,1.4-0.3,2.2v15.9h-4.8V78.6z"/><path fill="#FFFFFF" d="M84,61.6c2.9-0.4,6.3-0.8,10.1-0.8c6.8,0,11.7,1.6,14.9,4.6c3.3,3,5.2,7.3,5.2,13.2c0,6-1.9,10.9-5.3,14.3 c-3.4,3.4-9.1,5.3-16.3,5.3c-3.4,0-6.2-0.2-8.6-0.4V61.6z M88.8,94.1c1.2,0.2,3,0.3,4.8,0.3c10.2,0,15.7-5.7,15.7-15.6 c0.1-8.7-4.9-14.2-14.9-14.2c-2.5,0-4.3,0.2-5.6,0.5V94.1z"/><path fill="#FFFFFF" d="M132.1,97.8l-0.4-3.3h-0.2c-1.5,2.1-4.3,3.9-8.1,3.9c-5.4,0-8.1-3.8-8.1-7.6c0-6.4,5.7-9.9,15.9-9.8v-0.5 c0-2.2-0.6-6.1-6-6.1c-2.5,0-5,0.8-6.9,2l-1.1-3.2c2.2-1.4,5.4-2.3,8.7-2.3c8.1,0,10.1,5.5,10.1,10.8v9.9c0,2.3,0.1,4.5,0.4,6.3 H132.1z M131.4,84.4c-5.3-0.1-11.2,0.8-11.2,5.9c0,3.1,2.1,4.6,4.5,4.6c3.4,0,5.6-2.2,6.4-4.4c0.2-0.5,0.3-1,0.3-1.5V84.4z"/><path fill="#FFFFFF" d="M146.6,63.9v7.6h6.9v3.7h-6.9v14.2c0,3.3,0.9,5.1,3.6,5.1c1.3,0,2.2-0.2,2.8-0.3l0.2,3.6 c-0.9,0.4-2.4,0.7-4.3,0.7c-2.2,0-4-0.7-5.2-2c-1.4-1.4-1.9-3.8-1.9-6.9V75.1h-4.1v-3.7h4.1v-6.3L146.6,63.9z"/><path fill="#FFFFFF" d="M171.4,97.8l-0.4-3.3h-0.2c-1.5,2.1-4.3,3.9-8.1,3.9c-5.4,0-8.1-3.8-8.1-7.6c0-6.4,5.7-9.9,15.9-9.8v-0.5 c0-2.2-0.6-6.1-6-6.1c-2.5,0-5,0.8-6.9,2l-1.1-3.2c2.2-1.4,5.4-2.3,8.7-2.3c8.1,0,10.1,5.5,10.1,10.8v9.9c0,2.3,0.1,4.5,0.4,6.3 H171.4z M170.7,84.4c-5.3-0.1-11.2,0.8-11.2,5.9c0,3.1,2.1,4.6,4.5,4.6c3.4,0,5.6-2.2,6.4-4.4c0.2-0.5,0.3-1,0.3-1.5V84.4z"/></g></g></a></g><a href="https://ourworldindata.org/grapher/seafood-and-fish-production-thousand-tonnes" target="_blank"><text font-size="25.20" x="15.0" y="35.2" fill="#555"><tspan x="15" y="35.160000000000004">Seafood and fish production, thousand tonnes, World</tspan></text></a><text font-size="14.40" x="15.0" y="53.7" fill="#666"><tspan x="15" y="53.72">Total seafood and fish production measured in thousands of tonnes (kilotonnes) per year. Seafood and fish includes</tspan><tspan x="15" y="69.56">both marine and freshwater species, crustaceans, cephalopods and other molluscs.</tspan></text></g><g class="StackedArea"><defs><clipPath id="boundsClip-313"><rect x="96.14" y="0" width="820" height="928.8"></rect></clipPath></defs><g class="AxisBoxView"><g class="HorizontalAxis"><text x="96.1" y="556.5" fill="#666" text-anchor="middle" font-size="16.2">1961</text><text x="199" y="556.5" fill="#666" text-anchor="middle" font-size="16.2">1970</text><text x="313.2" y="556.5" fill="#666" text-anchor="middle" font-size="16.2">1980</text><text x="427.5" y="556.5" fill="#666" text-anchor="middle" font-size="16.2">1990</text><text x="541.7" y="556.5" fill="#666" text-anchor="middle" font-size="16.2">2000</text><text x="690.2" y="556.5" fill="#666" text-anchor="middle" font-size="16.2">2013</text></g><g class="VerticalAxis"><text x="91.14" y="535.3" fill="#666" dominant-baseline="middle" text-anchor="end" font-size="16.2">0 kt</text><text x="91.14" y="478.3" fill="#666" dominant-baseline="middle" text-anchor="end" font-size="16.2">20,000 kt</text><text x="91.14" y="421.2" fill="#666" dominant-baseline="middle" text-anchor="end" font-size="16.2">40,000 kt</text><text x="91.14" y="364.2" fill="#666" dominant-baseline="middle" text-anchor="end" font-size="16.2">60,000 kt</text><text x="91.14" y="307.1" fill="#666" dominant-baseline="middle" text-anchor="end" font-size="16.2">80,000 kt</text><text x="91.14" y="250.1" fill="#666" dominant-baseline="middle" text-anchor="end" font-size="16.2">100,000 kt</text><text x="91.14" y="193" fill="#666" dominant-baseline="middle" text-anchor="end" font-size="16.2">120,000 kt</text><text x="91.14" y="136" fill="#666" dominant-baseline="middle" text-anchor="end" font-size="16.2">140,000 kt</text></g><g class="AxisGridLines"><line x1="96.14" y1="535.3" x2="690.25" y2="535.3" stroke="#ccc"></line><line x1="96.14" y1="478.3" x2="690.25" y2="478.3" stroke="#ddd" stroke-dasharray="3,2"></line><line x1="96.14" y1="421.2" x2="690.25" y2="421.2" stroke="#ddd" stroke-dasharray="3,2"></line><line x1="96.14" y1="364.2" x2="690.25" y2="364.2" stroke="#ddd" stroke-dasharray="3,2"></line><line x1="96.14" y1="307.1" x2="690.25" y2="307.1" stroke="#ddd" stroke-dasharray="3,2"></line><line x1="96.14" y1="250.1" x2="690.25" y2="250.1" stroke="#ddd" stroke-dasharray="3,2"></line><line x1="96.14" y1="193" x2="690.25" y2="193" stroke="#ddd" stroke-dasharray="3,2"></line><line x1="96.14" y1="136" x2="690.25" y2="136" stroke="#ddd" stroke-dasharray="3,2"></line></g></g><g clip-path="url(#boundsClip-313)"><g class="HeightedLegend clickable"><g class="legendMark"><rect x="690.245" y="92.35" width="114.92" height="13.5" fill="#fff" opacity="0"></rect><text font-size="13.50" x="695.2" y="103.1" fill="#34983f"><tspan x="695.245" y="103.14999999999999">Cephalopods</tspan></text></g><g class="legendMark"><rect x="690.245" y="123.35" width="131.12" height="13.5" fill="#fff" opacity="0"></rect><text font-size="13.50" x="695.2" y="134.2" fill="#9ecc8a"><tspan x="695.245" y="134.15">Molluscs (other)</tspan></text></g><g class="legendMark"><rect x="690.245" y="166.75" width="111.00500000000001" height="13.5" fill="#fff" opacity="0"></rect><text font-size="13.50" x="695.2" y="177.6" fill="#ffd53e"><tspan x="695.245" y="177.55">Crustaceans</tspan></text></g><g class="legendMark"><rect x="690.245" y="200.15" width="144.755" height="13.5" fill="#fff" opacity="0"></rect><text font-size="13.50" x="695.2" y="211.0" fill="#ca2628"><tspan x="695.245" y="210.95000000000002">Marine fish (other)</tspan></text></g><g class="legendMark"><rect x="690.245" y="245.15" width="117.62" height="13.5" fill="#fff" opacity="0"></rect><text font-size="13.50" x="695.2" y="255.9" fill="#e6332e"><tspan x="695.245" y="255.95">Demersal fish</tspan></text></g><g class="legendMark"><rect x="690.245" y="327.05" width="104.25500000000001" height="13.5" fill="#fff" opacity="0"></rect><text font-size="13.50" x="695.2" y="337.9" fill="#2a939b"><tspan x="695.245" y="337.85">Pelagic fish</tspan></text></g><g class="legendMark"><rect x="690.245" y="453.95" width="127.47500000000001" height="13.5" fill="#fff" opacity="0"></rect><text font-size="13.50" x="695.2" y="464.8" fill="#3360a9"><tspan x="695.245" y="464.75">Freshwater fish</tspan></text></g></g><g class="Areas"><rect x="96.14" y="92.1" width="594.105" height="443.19999999999993" opacity="0" fill="rgba(255,255,255,0)"></rect><path stroke-linecap="round" d="M96.1 521.8L107.6 521.4L119 521.5L130.4 520.6L141.8 519.4L153.3 519.1L164.7 518.6L176.1 518L187.5 518L199 516.6L210.4 516.1L221.8 516L233.2 515.1L244.7 515.2L256.1 514.6L267.5 515.2L278.9 514.4L290.4 514.5L301.8 513.8L313.2 512.6L324.6 510.8L336.1 510L347.5 507.8L358.9 506.1L370.3 503.5L381.8 500.9L393.2 498.4L404.6 496.4L416 494.2L427.5 492.3L438.9 491.6L450.3 490.1L461.7 485.1L473.2 479.9L484.6 472.7L496 467.3L507.4 465.1L518.9 463L530.3 457.6L541.7 455.2L553.1 451.7L564.6 449.5L576 445.3L587.4 439.1L598.8 432.3L610.3 426.5L621.7 420.9L633.1 414.2L644.5 407.4L656 399.2L667.4 392.8L678.8 387.1L690.2 386L690.245 535.3L96.14 535.3" fill="#3360a9" fill-opacity="0.7" class="World_6-area"></path><path stroke-linecap="round" d="M96.1 473.4L107.6 466.9L119 466.5L130.4 454.5L141.8 455.7L153.3 448.1L164.7 443.4L176.1 439.5L187.5 445L199 432.1L210.4 434.2L221.8 451.2L233.2 452.7L244.7 445.9L256.1 445.7L267.5 437.9L278.9 439L290.4 433.6L301.8 430.7L313.2 430.6L324.6 424.7L336.1 420.9L347.5 419.4L358.9 407.5L370.3 403.6L381.8 393.1L393.2 393.7L404.6 381.7L416 378.3L427.5 382.4L438.9 382.2L450.3 380.5L461.7 372.2L473.2 355L484.6 356.5L496 349.2L507.4 350.1L518.9 368.6L530.3 347.1L541.7 339.1L553.1 343.2L564.6 336.9L576 342.7L587.4 324.7L598.8 319.1L610.3 322.8L621.7 313.6L633.1 306.9L644.5 301.9L656 302.3L667.4 283.6L678.8 279L690.2 281.5L690.2 386L678.8 387.1L667.4 392.8L656 399.2L644.5 407.4L633.1 414.2L621.7 420.9L610.3 426.5L598.8 432.3L587.4 439.1L576 445.3L564.6 449.5L553.1 451.7L541.7 455.2L530.3 457.6L518.9 463L507.4 465.1L496 467.3L484.6 472.7L473.2 479.9L461.7 485.1L450.3 490.1L438.9 491.6L427.5 492.3L416 494.2L404.6 496.4L393.2 498.4L381.8 500.9L370.3 503.5L358.9 506.1L347.5 507.8L336.1 510L324.6 510.8L313.2 512.6L301.8 513.8L290.4 514.5L278.9 514.4L267.5 515.2L256.1 514.6L244.7 515.2L233.2 515.1L221.8 516L210.4 516.1L199 516.6L187.5 518L176.1 518L164.7 518.6L153.3 519.1L141.8 519.4L130.4 520.6L119 521.5L107.6 521.4L96.1 521.8" fill="#2a939b" fill-opacity="0.7" class="World_5-area"></path><path stroke-linecap="round" d="M96.1 445.5L107.6 437.5L119 435.9L130.4 422.5L141.8 420.9L153.3 410.9L164.7 403L176.1 395.3L187.5 399.4L199 382.9L210.4 384.3L221.8 398L233.2 397.5L244.7 388L256.1 390.2L267.5 382.1L278.9 387L290.4 381.9L301.8 379.4L313.2 378L324.6 372L336.1 366.7L347.5 366.1L358.9 349.8L370.3 345.2L381.8 329.7L393.2 330.2L404.6 318.2L416 316.7L427.5 324.3L438.9 327.1L450.3 324.1L461.7 318.2L473.2 299.5L484.6 296.2L496 288.4L507.4 288.9L518.9 308.4L530.3 290L541.7 283.8L553.1 286.2L564.6 282L576 283.5L587.4 264.8L598.8 261.1L610.3 262.5L621.7 256.1L633.1 250.1L644.5 245.6L656 244.4L667.4 225.3L678.8 221L690.2 222.3L690.2 281.5L678.8 279L667.4 283.6L656 302.3L644.5 301.9L633.1 306.9L621.7 313.6L610.3 322.8L598.8 319.1L587.4 324.7L576 342.7L564.6 336.9L553.1 343.2L541.7 339.1L530.3 347.1L518.9 368.6L507.4 350.1L496 349.2L484.6 356.5L473.2 355L461.7 372.2L450.3 380.5L438.9 382.2L427.5 382.4L416 378.3L404.6 381.7L393.2 393.7L381.8 393.1L370.3 403.6L358.9 407.5L347.5 419.4L336.1 420.9L324.6 424.7L313.2 430.6L301.8 430.7L290.4 433.6L278.9 439L267.5 437.9L256.1 445.7L244.7 445.9L233.2 452.7L221.8 451.2L210.4 434.2L199 432.1L187.5 445L176.1 439.5L164.7 443.4L153.3 448.1L141.8 455.7L130.4 454.5L119 466.5L107.6 466.9L96.1 473.4" fill="#e6332e" fill-opacity="0.7" class="World_4-area"></path><path stroke-linecap="round" d="M96.1 436.1L107.6 427.6L119 425L130.4 411.1L141.8 408.7L153.3 398.1L164.7 389L176.1 380.6L187.5 384L199 367.9L210.4 367.7L221.8 380L233.2 378.8L244.7 369.5L256.1 371.4L267.5 362.6L278.9 367.2L290.4 361.3L301.8 359.9L313.2 358.3L324.6 350.7L336.1 346L347.5 345.8L358.9 329.1L370.3 323.6L381.8 306.4L393.2 305.5L404.6 293.8L416 291.2L427.5 299L438.9 302L450.3 297.8L461.7 290.5L473.2 271.7L484.6 268.3L496 258.2L507.4 260.2L518.9 279L530.3 260.8L541.7 254.5L553.1 257.3L564.6 253.1L576 257.8L587.4 238.7L598.8 233.7L610.3 236.5L621.7 230.6L633.1 224L644.5 216.2L656 213.8L667.4 194.6L678.8 190L690.2 191.5L690.2 222.3L678.8 221L667.4 225.3L656 244.4L644.5 245.6L633.1 250.1L621.7 256.1L610.3 262.5L598.8 261.1L587.4 264.8L576 283.5L564.6 282L553.1 286.2L541.7 283.8L530.3 290L518.9 308.4L507.4 288.9L496 288.4L484.6 296.2L473.2 299.5L461.7 318.2L450.3 324.1L438.9 327.1L427.5 324.3L416 316.7L404.6 318.2L393.2 330.2L381.8 329.7L370.3 345.2L358.9 349.8L347.5 366.1L336.1 366.7L324.6 372L313.2 378L301.8 379.4L290.4 381.9L278.9 387L267.5 382.1L256.1 390.2L244.7 388L233.2 397.5L221.8 398L210.4 384.3L199 382.9L187.5 399.4L176.1 395.3L164.7 403L153.3 410.9L141.8 420.9L130.4 422.5L119 435.9L107.6 437.5L96.1 445.5" fill="#ca2628" fill-opacity="0.7" class="World_3-area"></path><path stroke-linecap="round" d="M96.1 432.3L107.6 423.5L119 420.8L130.4 406.7L141.8 404.1L153.3 393.3L164.7 384L176.1 375.3L187.5 378.6L199 362.4L210.4 362L221.8 374L233.2 372.1L244.7 362.5L256.1 364.5L267.5 355.5L278.9 359.5L290.4 353L301.8 351.3L313.2 349.1L324.6 341.6L336.1 336.2L347.5 336.6L358.9 319.7L370.3 313L381.8 295L393.2 293.4L404.6 281.1L416 278.4L427.5 285.9L438.9 287.7L450.3 283.2L461.7 275.7L473.2 255.4L484.6 250.8L496 239.7L507.4 241.1L518.9 258.7L530.3 239.9L541.7 232.4L553.1 234.6L564.6 229.2L576 232.8L587.4 212.8L598.8 207L610.3 207.8L621.7 200.3L633.1 193.3L644.5 184.7L656 180.6L667.4 160L678.8 154.2L690.2 155.5L690.2 191.5L678.8 190L667.4 194.6L656 213.8L644.5 216.2L633.1 224L621.7 230.6L610.3 236.5L598.8 233.7L587.4 238.7L576 257.8L564.6 253.1L553.1 257.3L541.7 254.5L530.3 260.8L518.9 279L507.4 260.2L496 258.2L484.6 268.3L473.2 271.7L461.7 290.5L450.3 297.8L438.9 302L427.5 299L416 291.2L404.6 293.8L393.2 305.5L381.8 306.4L370.3 323.6L358.9 329.1L347.5 345.8L336.1 346L324.6 350.7L313.2 358.3L301.8 359.9L290.4 361.3L278.9 367.2L267.5 362.6L256.1 371.4L244.7 369.5L233.2 378.8L221.8 380L210.4 367.7L199 367.9L187.5 384L176.1 380.6L164.7 389L153.3 398.1L141.8 408.7L130.4 411.1L119 425L107.6 427.6L96.1 436.1" fill="#ffd53e" fill-opacity="0.7" class="World_2-area"></path><path stroke-linecap="round" d="M96.1 426.9L107.6 417.7L119 414.5L130.4 400.2L141.8 397.6L153.3 386.5L164.7 377.2L176.1 368.2L187.5 371.3L199 354.3L210.4 353.6L221.8 365.7L233.2 364.1L244.7 354.3L256.1 355.2L267.5 345.1L278.9 348.3L290.4 342.3L301.8 340.6L313.2 337.8L324.6 329.2L336.1 323.7L347.5 323.2L358.9 304.9L370.3 297.9L381.8 279L393.2 275.1L404.6 261.7L416 259.7L427.5 266.7L438.9 268.4L450.3 260.7L461.7 249.3L473.2 225.3L484.6 215.7L496 205.4L507.4 206.9L518.9 223.5L530.3 202.6L541.7 193.3L553.1 194L564.6 187L576 190.7L587.4 169.5L598.8 163.7L610.3 162.7L621.7 154L633.1 147.7L644.5 137.4L656 131.7L667.4 110.2L678.8 103L690.2 104.7L690.2 155.5L678.8 154.2L667.4 160L656 180.6L644.5 184.7L633.1 193.3L621.7 200.3L610.3 207.8L598.8 207L587.4 212.8L576 232.8L564.6 229.2L553.1 234.6L541.7 232.4L530.3 239.9L518.9 258.7L507.4 241.1L496 239.7L484.6 250.8L473.2 255.4L461.7 275.7L450.3 283.2L438.9 287.7L427.5 285.9L416 278.4L404.6 281.1L393.2 293.4L381.8 295L370.3 313L358.9 319.7L347.5 336.6L336.1 336.2L324.6 341.6L313.2 349.1L301.8 351.3L290.4 353L278.9 359.5L267.5 355.5L256.1 364.5L244.7 362.5L233.2 372.1L221.8 374L210.4 362L199 362.4L187.5 378.6L176.1 375.3L164.7 384L153.3 393.3L141.8 404.1L130.4 406.7L119 420.8L107.6 423.5L96.1 432.3" fill="#9ecc8a" fill-opacity="0.7" class="World_1-area"></path><path stroke-linecap="round" d="M96.1 424.7L107.6 415.2L119 411.6L130.4 398.3L141.8 395.1L153.3 384L164.7 374.4L176.1 364.6L187.5 368.4L199 351.5L210.4 350.9L221.8 362.2L233.2 360.9L244.7 351L256.1 351.6L267.5 341.7L278.9 344.7L290.4 338.4L301.8 336.3L313.2 333.4L324.6 325.3L336.1 319.1L347.5 318.3L358.9 300L370.3 292.8L381.8 274L393.2 268.5L404.6 255.3L416 252.2L427.5 259.9L438.9 261.1L450.3 252.8L461.7 241.6L473.2 217.3L484.6 207.4L496 196.5L507.4 197.1L518.9 215.4L530.3 192.5L541.7 182.9L553.1 184.6L564.6 177.8L576 180.7L587.4 159L598.8 153.1L610.3 151L621.7 141.8L633.1 135.6L644.5 127.6L656 121.4L667.4 99.5L678.8 92.1L690.2 93.6L690.2 104.7L678.8 103L667.4 110.2L656 131.7L644.5 137.4L633.1 147.7L621.7 154L610.3 162.7L598.8 163.7L587.4 169.5L576 190.7L564.6 187L553.1 194L541.7 193.3L530.3 202.6L518.9 223.5L507.4 206.9L496 205.4L484.6 215.7L473.2 225.3L461.7 249.3L450.3 260.7L438.9 268.4L427.5 266.7L416 259.7L404.6 261.7L393.2 275.1L381.8 279L370.3 297.9L358.9 304.9L347.5 323.2L336.1 323.7L324.6 329.2L313.2 337.8L301.8 340.6L290.4 342.3L278.9 348.3L267.5 345.1L256.1 355.2L244.7 354.3L233.2 364.1L221.8 365.7L210.4 353.6L199 354.3L187.5 371.3L176.1 368.2L164.7 377.2L153.3 386.5L141.8 397.6L130.4 400.2L119 414.5L107.6 417.7L96.1 426.9" fill="#34983f" fill-opacity="0.7" class="World_0-area"></path><path stroke-linecap="round" d="M96.1 521.8L107.6 521.4L119 521.5L130.4 520.6L141.8 519.4L153.3 519.1L164.7 518.6L176.1 518L187.5 518L199 516.6L210.4 516.1L221.8 516L233.2 515.1L244.7 515.2L256.1 514.6L267.5 515.2L278.9 514.4L290.4 514.5L301.8 513.8L313.2 512.6L324.6 510.8L336.1 510L347.5 507.8L358.9 506.1L370.3 503.5L381.8 500.9L393.2 498.4L404.6 496.4L416 494.2L427.5 492.3L438.9 491.6L450.3 490.1L461.7 485.1L473.2 479.9L484.6 472.7L496 467.3L507.4 465.1L518.9 463L530.3 457.6L541.7 455.2L553.1 451.7L564.6 449.5L576 445.3L587.4 439.1L598.8 432.3L610.3 426.5L621.7 420.9L633.1 414.2L644.5 407.4L656 399.2L667.4 392.8L678.8 387.1L690.2 386" stroke="rgb(43, 80, 141)" stroke-opacity="0.7" stroke-width="0.5" fill="none" class="World_6-border"></path><path stroke-linecap="round" d="M96.1 473.4L107.6 466.9L119 466.5L130.4 454.5L141.8 455.7L153.3 448.1L164.7 443.4L176.1 439.5L187.5 445L199 432.1L210.4 434.2L221.8 451.2L233.2 452.7L244.7 445.9L256.1 445.7L267.5 437.9L278.9 439L290.4 433.6L301.8 430.7L313.2 430.6L324.6 424.7L336.1 420.9L347.5 419.4L358.9 407.5L370.3 403.6L381.8 393.1L393.2 393.7L404.6 381.7L416 378.3L427.5 382.4L438.9 382.2L450.3 380.5L461.7 372.2L473.2 355L484.6 356.5L496 349.2L507.4 350.1L518.9 368.6L530.3 347.1L541.7 339.1L553.1 343.2L564.6 336.9L576 342.7L587.4 324.7L598.8 319.1L610.3 322.8L621.7 313.6L633.1 306.9L644.5 301.9L656 302.3L667.4 283.6L678.8 279L690.2 281.5" stroke="rgb(35, 123, 130)" stroke-opacity="0.7" stroke-width="0.5" fill="none" class="World_5-border"></path><path stroke-linecap="round" d="M96.1 445.5L107.6 437.5L119 435.9L130.4 422.5L141.8 420.9L153.3 410.9L164.7 403L176.1 395.3L187.5 399.4L199 382.9L210.4 384.3L221.8 398L233.2 397.5L244.7 388L256.1 390.2L267.5 382.1L278.9 387L290.4 381.9L301.8 379.4L313.2 378L324.6 372L336.1 366.7L347.5 366.1L358.9 349.8L370.3 345.2L381.8 329.7L393.2 330.2L404.6 318.2L416 316.7L427.5 324.3L438.9 327.1L450.3 324.1L461.7 318.2L473.2 299.5L484.6 296.2L496 288.4L507.4 288.9L518.9 308.4L530.3 290L541.7 283.8L553.1 286.2L564.6 282L576 283.5L587.4 264.8L598.8 261.1L610.3 262.5L621.7 256.1L633.1 250.1L644.5 245.6L656 244.4L667.4 225.3L678.8 221L690.2 222.3" stroke="rgb(192, 43, 38)" stroke-opacity="0.7" stroke-width="0.5" fill="none" class="World_4-border"></path><path stroke-linecap="round" d="M96.1 436.1L107.6 427.6L119 425L130.4 411.1L141.8 408.7L153.3 398.1L164.7 389L176.1 380.6L187.5 384L199 367.9L210.4 367.7L221.8 380L233.2 378.8L244.7 369.5L256.1 371.4L267.5 362.6L278.9 367.2L290.4 361.3L301.8 359.9L313.2 358.3L324.6 350.7L336.1 346L347.5 345.8L358.9 329.1L370.3 323.6L381.8 306.4L393.2 305.5L404.6 293.8L416 291.2L427.5 299L438.9 302L450.3 297.8L461.7 290.5L473.2 271.7L484.6 268.3L496 258.2L507.4 260.2L518.9 279L530.3 260.8L541.7 254.5L553.1 257.3L564.6 253.1L576 257.8L587.4 238.7L598.8 233.7L610.3 236.5L621.7 230.6L633.1 224L644.5 216.2L656 213.8L667.4 194.6L678.8 190L690.2 191.5" stroke="rgb(169, 32, 33)" stroke-opacity="0.7" stroke-width="0.5" fill="none" class="World_3-border"></path><path stroke-linecap="round" d="M96.1 432.3L107.6 423.5L119 420.8L130.4 406.7L141.8 404.1L153.3 393.3L164.7 384L176.1 375.3L187.5 378.6L199 362.4L210.4 362L221.8 374L233.2 372.1L244.7 362.5L256.1 364.5L267.5 355.5L278.9 359.5L290.4 353L301.8 351.3L313.2 349.1L324.6 341.6L336.1 336.2L347.5 336.6L358.9 319.7L370.3 313L381.8 295L393.2 293.4L404.6 281.1L416 278.4L427.5 285.9L438.9 287.7L450.3 283.2L461.7 275.7L473.2 255.4L484.6 250.8L496 239.7L507.4 241.1L518.9 258.7L530.3 239.9L541.7 232.4L553.1 234.6L564.6 229.2L576 232.8L587.4 212.8L598.8 207L610.3 207.8L621.7 200.3L633.1 193.3L644.5 184.7L656 180.6L667.4 160L678.8 154.2L690.2 155.5" stroke="rgb(213, 178, 52)" stroke-opacity="0.7" stroke-width="0.5" fill="none" class="World_2-border"></path><path stroke-linecap="round" d="M96.1 426.9L107.6 417.7L119 414.5L130.4 400.2L141.8 397.6L153.3 386.5L164.7 377.2L176.1 368.2L187.5 371.3L199 354.3L210.4 353.6L221.8 365.7L233.2 364.1L244.7 354.3L256.1 355.2L267.5 345.1L278.9 348.3L290.4 342.3L301.8 340.6L313.2 337.8L324.6 329.2L336.1 323.7L347.5 323.2L358.9 304.9L370.3 297.9L381.8 279L393.2 275.1L404.6 261.7L416 259.7L427.5 266.7L438.9 268.4L450.3 260.7L461.7 249.3L473.2 225.3L484.6 215.7L496 205.4L507.4 206.9L518.9 223.5L530.3 202.6L541.7 193.3L553.1 194L564.6 187L576 190.7L587.4 169.5L598.8 163.7L610.3 162.7L621.7 154L633.1 147.7L644.5 137.4L656 131.7L667.4 110.2L678.8 103L690.2 104.7" stroke="rgb(132, 171, 115)" stroke-opacity="0.7" stroke-width="0.5" fill="none" class="World_1-border"></path><path stroke-linecap="round" d="M96.1 424.7L107.6 415.2L119 411.6L130.4 398.3L141.8 395.1L153.3 384L164.7 374.4L176.1 364.6L187.5 368.4L199 351.5L210.4 350.9L221.8 362.2L233.2 360.9L244.7 351L256.1 351.6L267.5 341.7L278.9 344.7L290.4 338.4L301.8 336.3L313.2 333.4L324.6 325.3L336.1 319.1L347.5 318.3L358.9 300L370.3 292.8L381.8 274L393.2 268.5L404.6 255.3L416 252.2L427.5 259.9L438.9 261.1L450.3 252.8L461.7 241.6L473.2 217.3L484.6 207.4L496 196.5L507.4 197.1L518.9 215.4L530.3 192.5L541.7 182.9L553.1 184.6L564.6 177.8L576 180.7L587.4 159L598.8 153.1L610.3 151L621.7 141.8L633.1 135.6L644.5 127.6L656 121.4L667.4 99.5L678.8 92.1L690.2 93.6" stroke="rgb(44, 127, 53)" stroke-opacity="0.7" stroke-width="0.5" fill="none" class="World_0-border"></path></g></g></g><g style="fill: #777;" class="SourcesFooter"><g style="fill: #777;" class="clickable"><text font-size="12.60" x="15.0" y="581.6"><tspan x="15" y="581.58">Source: UN Food and Agricultural Organization (FAO)</tspan></text></g><text font-size="12.60" x="400.2" y="581.6"><tspan x="400.174" y="581.58"><a target='_blank' style='fill: #777;' href='https://ourworldindata.org/meat-and-seafood-production-consumption/'>OurWorldInData.org/meat-and-seafood-production-consumption/</a> • <a style="fill: #777;" class="cclogo" href="http://creativecommons.org/licenses/by-sa/4.0/deed.en_US" target="_blank">CC BY-SA</a></tspan></text></g></g></svg>