<svg xmlns="http://www.w3.org/2000/svg" version="1.1" style="font-family: 'Helvetica Neue', Helvetica, Arial, sans-serif; font-size: 18px; background-color: white; text-rendering: optimizeLegibility; -webkit-font-smoothing: antialiased;" width="850" height="600"><g class="ChartTab"><g class="HeaderView"><g opacity="0.8" transform="translate(778, 15) scale(0.27)"><a xmlns:xlink="http://www.w3.org/1999/xlink" xlink:href="https://ourworldindata.org" target="_blank"><g><rect x="0" y="0" fill="#1B2543" width="211.2" height="130.1"/><rect x="0" y="112.2" fill="#E63912" width="211.2" height="17.9"/><g><rect x="1.2" y="12.3" fill="none" width="210.2" height="99.2"/><path fill="#FFFFFF" d="M37.8,32.2c0,12.7-7.7,19.4-17.1,19.4c-9.7,0-16.6-7.5-16.6-18.7c0-11.7,7.3-19.3,17.1-19.3 C31.3,13.7,37.8,21.3,37.8,32.2z M9.2,32.8c0,7.9,4.3,14.9,11.8,14.9c7.5,0,11.8-6.9,11.8-15.3c0-7.3-3.8-14.9-11.8-14.9 C13.1,17.5,9.2,24.8,9.2,32.8z"/><path fill="#FFFFFF" d="M62.7,43.8c0,2.7,0.1,5.1,0.2,7.2h-4.3l-0.3-4.3h-0.1c-1.3,2.1-4,4.9-8.8,4.9c-4.2,0-9.1-2.3-9.1-11.6 V24.6h4.8v14.6c0,5,1.5,8.4,5.9,8.4c3.2,0,5.5-2.2,6.3-4.4c0.3-0.7,0.4-1.6,0.4-2.5V24.6h4.8V43.8z"/><path fill="#FFFFFF" d="M67.3,32.8c0-3.1-0.1-5.8-0.2-8.2h4.2l0.2,5.2h0.2c1.2-3.5,4.1-5.8,7.3-5.8c0.5,0,0.9,0.1,1.4,0.2v4.5 c-0.5-0.1-1-0.2-1.6-0.2c-3.4,0-5.8,2.6-6.5,6.2c-0.1,0.7-0.2,1.4-0.2,2.2V51h-4.8V32.8z"/><path fill="#FFFFFF" d="M95.4,51l-9.4-36.8h5l4.4,18.6c1.1,4.6,2.1,9.2,2.7,12.7h0.1c0.6-3.7,1.8-8,3-12.8l4.9-18.5h5l4.5,18.7 c1,4.4,2,8.7,2.6,12.6h0.1c0.8-4,1.8-8.1,3-12.7l4.9-18.5h4.9L120.6,51h-5L111,31.9c-1.1-4.7-1.9-8.3-2.4-12h-0.1 c-0.7,3.7-1.5,7.3-2.8,12L100.4,51H95.4z"/><path fill="#FFFFFF" d="M154.9,37.6c0,9.8-6.8,14-13.2,14c-7.2,0-12.7-5.2-12.7-13.6c0-8.8,5.8-14,13.1-14 C149.8,24,154.9,29.5,154.9,37.6z M133.9,37.9c0,5.8,3.3,10.1,8,10.1c4.6,0,8-4.3,8-10.3c0-4.5-2.2-10.1-7.9-10.1 C136.3,27.6,133.9,32.8,133.9,37.9z"/><path fill="#FFFFFF" d="M158.2,32.8c0-3.1-0.1-5.8-0.2-8.2h4.2l0.2,5.2h0.2c1.2-3.5,4.1-5.8,7.3-5.8c0.5,0,0.9,0.1,1.4,0.2v4.5 c-0.5-0.1-1-0.2-1.6-0.2c-3.4,0-5.8,2.6-6.5,6.2c-0.1,0.7-0.2,1.4-0.2,2.2V51h-4.8V32.8z"/><path fill="#FFFFFF" d="M173.5,12.3h4.8V51h-4.8V12.3z"/><path fill="#FFFFFF" d="M206.5,12.3v31.9c0,2.3,0.1,5,0.2,6.8h-4.3l-0.2-4.6H202c-1.5,2.9-4.7,5.2-9,5.2 c-6.4,0-11.3-5.4-11.3-13.4c-0.1-8.8,5.4-14.2,11.9-14.2c4,0,6.8,1.9,8,4h0.1V12.3H206.5z M201.7,35.4c0-0.6-0.1-1.4-0.2-2 c-0.7-3.1-3.3-5.6-6.9-5.6c-5,0-7.9,4.4-7.9,10.2c0,5.3,2.6,9.8,7.8,9.8c3.2,0,6.2-2.1,7.1-5.7c0.2-0.7,0.2-1.3,0.2-2.1V35.4z"/><path fill="#FFFFFF" d="M42.8,64c0.1,1.6-1.1,2.9-3.1,2.9c-1.7,0-2.9-1.3-2.9-2.9c0-1.7,1.3-3,3-3C41.7,61,42.8,62.3,42.8,64z M37.4,97.8V71.4h4.8v26.4H37.4z"/><path fill="#FFFFFF" d="M47.5,78.6c0-2.7-0.1-5-0.2-7.1h4.3l0.3,4.4h0.1c1.3-2.5,4.4-5,8.8-5c3.7,0,9.4,2.2,9.4,11.2v15.8h-4.8 V82.6c0-4.3-1.6-7.8-6.1-7.8c-3.2,0-5.6,2.2-6.5,4.9c-0.2,0.6-0.3,1.4-0.3,2.2v15.9h-4.8V78.6z"/><path fill="#FFFFFF" d="M84,61.6c2.9-0.4,6.3-0.8,10.1-0.8c6.8,0,11.7,1.6,14.9,4.6c3.3,3,5.2,7.3,5.2,13.2c0,6-1.9,10.9-5.3,14.3 c-3.4,3.4-9.1,5.3-16.3,5.3c-3.4,0-6.2-0.2-8.6-0.4V61.6z M88.8,94.1c1.2,0.2,3,0.3,4.8,0.3c10.2,0,15.7-5.7,15.7-15.6 c0.1-8.7-4.9-14.2-14.9-14.2c-2.5,0-4.3,0.2-5.6,0.5V94.1z"/><path fill="#FFFFFF" d="M132.1,97.8l-0.4-3.3h-0.2c-1.5,2.1-4.3,3.9-8.1,3.9c-5.4,0-8.1-3.8-8.1-7.6c0-6.4,5.7-9.9,15.9-9.8v-0.5 c0-2.2-0.6-6.1-6-6.1c-2.5,0-5,0.8-6.9,2l-1.1-3.2c2.2-1.4,5.4-2.3,8.7-2.3c8.1,0,10.1,5.5,10.1,10.8v9.9c0,2.3,0.1,4.5,0.4,6.3 H132.1z M131.4,84.4c-5.3-0.1-11.2,0.8-11.2,5.9c0,3.1,2.1,4.6,4.5,4.6c3.4,0,5.6-2.2,6.4-4.4c0.2-0.5,0.3-1,0.3-1.5V84.4z"/><path fill="#FFFFFF" d="M146.6,63.9v7.6h6.9v3.7h-6.9v14.2c0,3.3,0.9,5.1,3.6,5.1c1.3,0,2.2-0.2,2.8-0.3l0.2,3.6 c-0.9,0.4-2.4,0.7-4.3,0.7c-2.2,0-4-0.7-5.2-2c-1.4-1.4-1.9-3.8-1.9-6.9V75.1h-4.1v-3.7h4.1v-6.3L146.6,63.9z"/><path fill="#FFFFFF" d="M171.4,97.8l-0.4-3.3h-0.2c-1.5,2.1-4.3,3.9-8.1,3.9c-5.4,0-8.1-3.8-8.1-7.6c0-6.4,5.7-9.9,15.9-9.8v-0.5 c0-2.2-0.6-6.1-6-6.1c-2.5,0-5,0.8-6.9,2l-1.1-3.2c2.2-1.4,5.4-2.3,8.7-2.3c8.1,0,10.1,5.5,10.1,10.8v9.9c0,2.3,0.1,4.5,0.4,6.3 H171.4z M170.7,84.4c-5.3-0.1-11.2,0.8-11.2,5.9c0,3.1,2.1,4.6,4.5,4.6c3.4,0,5.6-2.2,6.4-4.4c0.2-0.5,0.3-1,0.3-1.5V84.4z"/></g></g></a></g><a href="https://ourworldindata.org/grapher/share-of-total-disease-burden-by-cause" target="_blank"><text font-size="25.20" x="15.0" y="35.2" fill="#555"><tspan x="15" y="35.160000000000004">Share of total disease burden by cause, World, 2017</tspan></text></a><text font-size="14.40" x="15.0" y="53.7" fill="#666"><tspan x="15" y="53.72">Disease burden by cause as a share of total disease burden. Disease burden is measured in DALYs</tspan><tspan x="15" y="69.56">(Disability-Adjusted Life Years). DALYs are used to measure total burden of disease - both from years of life lost and</tspan><tspan x="15" y="85.4">years lived with a disability. One DALY equals one lost year of healthy life.</tspan></text></g><g class="DiscreteBarChart"><rect x="15" y="107.60000000000001" width="810" height="448.9" opacity="0" fill="rgba(255,255,255,0)"></rect><g class="HorizontalAxis"><text x="269.3" y="556.5" fill="#666" text-anchor="middle" font-size="16.2">0%</text><text x="338.8" y="556.5" fill="#666" text-anchor="middle" font-size="16.2">2%</text><text x="408.3" y="556.5" fill="#666" text-anchor="middle" font-size="16.2">4%</text><text x="477.8" y="556.5" fill="#666" text-anchor="middle" font-size="16.2">6%</text><text x="547.4" y="556.5" fill="#666" text-anchor="middle" font-size="16.2">8%</text><text x="616.9" y="556.5" fill="#666" text-anchor="middle" font-size="16.2">10%</text><text x="686.4" y="556.5" fill="#666" text-anchor="middle" font-size="16.2">12%</text><text x="755.9" y="556.5" fill="#666" text-anchor="middle" font-size="16.2">14%</text></g><g class="AxisGridLines"><line x1="269.3" y1="535.30" x2="269.3" y2="107.60" stroke="#ccc"></line><line x1="338.8" y1="535.30" x2="338.8" y2="107.60" stroke="#ddd" stroke-dasharray="3,2"></line><line x1="408.3" y1="535.30" x2="408.3" y2="107.60" stroke="#ddd" stroke-dasharray="3,2"></line><line x1="477.8" y1="535.30" x2="477.8" y2="107.60" stroke="#ddd" stroke-dasharray="3,2"></line><line x1="547.4" y1="535.30" x2="547.4" y2="107.60" stroke="#ddd" stroke-dasharray="3,2"></line><line x1="616.9" y1="535.30" x2="616.9" y2="107.60" stroke="#ddd" stroke-dasharray="3,2"></line><line x1="686.4" y1="535.30" x2="686.4" y2="107.60" stroke="#ddd" stroke-dasharray="3,2"></line><line x1="755.9" y1="535.30" x2="755.9" y2="107.60" stroke="#ddd" stroke-dasharray="3,2"></line></g><g class="bar"><text x="264.286" y="116.6042105263158" fill="#666" dominant-baseline="middle" text-anchor="end" font-size="13.5">Cardiovascular diseases</text><rect x="269.3" y="107.60000000000001" width="509.7" height="18.00842105263158" fill="#3360a9" opacity="0.85"></rect><text x="784" y="116.6042105263158" fill="#666" dominant-baseline="middle" text-anchor="start" font-size="13.5">14.66%</text></g><g class="bar"><text x="264.286" y="139.11473684210526" fill="#666" dominant-baseline="middle" text-anchor="end" font-size="13.5">Cancers</text><rect x="269.3" y="130.11052631578946" width="325.40000000000003" height="18.00842105263158" fill="#3360a9" opacity="0.85"></rect><text x="599.7" y="139.11473684210526" fill="#666" dominant-baseline="middle" text-anchor="start" font-size="13.5">9.36%</text></g><g class="bar"><text x="264.286" y="161.62526315789472" fill="#666" dominant-baseline="middle" text-anchor="end" font-size="13.5">Neonatal disorders</text><rect x="269.3" y="152.62105263157892" width="258.8" height="18.00842105263158" fill="#e6332e" opacity="0.85"></rect><text x="533.1" y="161.62526315789472" fill="#666" dominant-baseline="middle" text-anchor="start" font-size="13.5">7.45%</text></g><g class="bar"><text x="264.286" y="184.13578947368418" fill="#666" dominant-baseline="middle" text-anchor="end" font-size="13.5">Musculoskeletal disorders</text><rect x="269.3" y="175.13157894736838" width="192.09999999999997" height="18.00842105263158" fill="#3360a9" opacity="0.85"></rect><text x="466.4" y="184.13578947368418" fill="#666" dominant-baseline="middle" text-anchor="start" font-size="13.5">5.53%</text></g><g class="bar"><text x="264.286" y="206.64631578947365" fill="#666" dominant-baseline="middle" text-anchor="end" font-size="13.5">Mental and substance use disorders</text><rect x="269.3" y="197.64210526315784" width="170.09999999999997" height="18.00842105263158" fill="#3360a9" opacity="0.85"></rect><text x="444.4" y="206.64631578947365" fill="#666" dominant-baseline="middle" text-anchor="start" font-size="13.5">4.89%</text></g><g class="bar"><text x="264.286" y="229.1568421052631" fill="#666" dominant-baseline="middle" text-anchor="end" font-size="13.5">Other NCDs</text><rect x="269.3" y="220.1526315789473" width="169.3" height="18.00842105263158" fill="#3360a9" opacity="0.85"></rect><text x="443.6" y="229.1568421052631" fill="#666" dominant-baseline="middle" text-anchor="start" font-size="13.5">4.87%</text></g><g class="bar"><text x="264.286" y="251.66736842105257" fill="#666" dominant-baseline="middle" text-anchor="end" font-size="13.5">Respiratory diseases</text><rect x="269.3" y="242.66315789473677" width="156.39999999999998" height="18.00842105263158" fill="#3360a9" opacity="0.85"></rect><text x="430.7" y="251.66736842105257" fill="#666" dominant-baseline="middle" text-anchor="start" font-size="13.5">4.5%</text></g><g class="bar"><text x="264.286" y="274.17789473684206" fill="#666" dominant-baseline="middle" text-anchor="end" font-size="13.5">Neurological disorders</text><rect x="269.3" y="265.1736842105263" width="154.3" height="18.00842105263158" fill="#3360a9" opacity="0.85"></rect><text x="428.6" y="274.17789473684206" fill="#666" dominant-baseline="middle" text-anchor="start" font-size="13.5">4.44%</text></g><g class="bar"><text x="264.286" y="296.68842105263155" fill="#666" dominant-baseline="middle" text-anchor="end" font-size="13.5">Unintentional injuries</text><rect x="269.3" y="287.6842105263158" width="147.3" height="18.00842105263158" fill="#818282" opacity="0.85"></rect><text x="421.6" y="296.68842105263155" fill="#666" dominant-baseline="middle" text-anchor="start" font-size="13.5">4.24%</text></g><g class="bar"><text x="264.286" y="319.19894736842105" fill="#666" dominant-baseline="middle" text-anchor="end" font-size="13.5">Digestive diseases</text><rect x="269.3" y="310.19473684210527" width="118.69999999999999" height="18.00842105263158" fill="#3360a9" opacity="0.85"></rect><text x="393" y="319.19894736842105" fill="#666" dominant-baseline="middle" text-anchor="start" font-size="13.5">3.41%</text></g><g class="bar"><text x="264.286" y="341.70947368421054" fill="#666" dominant-baseline="middle" text-anchor="end" font-size="13.5">Transport injuries</text><rect x="269.3" y="332.70526315789476" width="104.89999999999998" height="18.00842105263158" fill="#818282" opacity="0.85"></rect><text x="379.2" y="341.70947368421054" fill="#666" dominant-baseline="middle" text-anchor="start" font-size="13.5">3.02%</text></g><g class="bar"><text x="264.286" y="364.22" fill="#666" dominant-baseline="middle" text-anchor="end" font-size="13.5">Malaria &amp; neglected tropical diseases</text><rect x="269.3" y="355.21578947368425" width="86.59999999999997" height="18.00842105263158" fill="#e6332e" opacity="0.85"></rect><text x="360.9" y="364.22" fill="#666" dominant-baseline="middle" text-anchor="start" font-size="13.5">2.49%</text></g><g class="bar"><text x="264.286" y="386.7305263157895" fill="#666" dominant-baseline="middle" text-anchor="end" font-size="13.5">Nutritional deficiencies</text><rect x="269.3" y="377.72631578947374" width="80.39999999999998" height="18.00842105263158" fill="#e6332e" opacity="0.85"></rect><text x="354.7" y="386.7305263157895" fill="#666" dominant-baseline="middle" text-anchor="start" font-size="13.5">2.31%</text></g><g class="bar"><text x="264.286" y="409.241052631579" fill="#666" dominant-baseline="middle" text-anchor="end" font-size="13.5">Liver disease</text><rect x="269.3" y="400.23684210526324" width="57.69999999999999" height="18.00842105263158" fill="#3360a9" opacity="0.85"></rect><text x="332" y="409.241052631579" fill="#666" dominant-baseline="middle" text-anchor="start" font-size="13.5">1.66%</text></g><g class="bar"><text x="264.286" y="431.7515789473685" fill="#666" dominant-baseline="middle" text-anchor="end" font-size="13.5">Self-harm</text><rect x="269.3" y="422.7473684210527" width="47.39999999999998" height="18.00842105263158" fill="#818282" opacity="0.85"></rect><text x="321.7" y="431.7515789473685" fill="#666" dominant-baseline="middle" text-anchor="start" font-size="13.5">1.36%</text></g><g class="bar"><text x="264.286" y="454.262105263158" fill="#666" dominant-baseline="middle" text-anchor="end" font-size="13.5">Interpersonal violence</text><rect x="269.3" y="445.2578947368422" width="36.19999999999999" height="18.00842105263158" fill="#818282" opacity="0.85"></rect><text x="310.5" y="454.262105263158" fill="#666" dominant-baseline="middle" text-anchor="start" font-size="13.5">1.04%</text></g><g class="bar"><text x="264.286" y="476.7726315789475" fill="#666" dominant-baseline="middle" text-anchor="end" font-size="13.5">Maternal disorders</text><rect x="269.3" y="467.7684210526317" width="16.399999999999977" height="18.00842105263158" fill="#e6332e" opacity="0.85"></rect><text x="290.7" y="476.7726315789475" fill="#666" dominant-baseline="middle" text-anchor="start" font-size="13.5">0.47%</text></g><g class="bar"><text x="264.286" y="499.283157894737" fill="#666" dominant-baseline="middle" text-anchor="end" font-size="13.5">Conflict &amp; terrorism</text><rect x="269.3" y="490.2789473684212" width="14.099999999999966" height="18.00842105263158" fill="#818282" opacity="0.85"></rect><text x="288.4" y="499.283157894737" fill="#666" dominant-baseline="middle" text-anchor="start" font-size="13.5">0.4%</text></g><g class="bar"><text x="264.286" y="521.7936842105264" fill="#666" dominant-baseline="middle" text-anchor="end" font-size="13.5">Natural disasters</text><rect x="269.3" y="512.7894736842106" width="1.6999999999999886" height="18.00842105263158" fill="#818282" opacity="0.85"></rect><text x="276" y="521.7936842105264" fill="#666" dominant-baseline="middle" text-anchor="start" font-size="13.5">0.05%</text></g></g><g style="fill: #777;" class="SourcesFooter"><g style="fill: #777;" class="clickable"><text font-size="12.60" x="15.0" y="581.6"><tspan x="15" y="581.58">Source: IHME, Global Burden of Disease</tspan></text></g><text font-size="12.60" x="775.4" y="581.6"><tspan x="775.402" y="581.58"><a style="fill: #777;" class="cclogo" href="http://creativecommons.org/licenses/by-sa/4.0/deed.en_US" target="_blank">CC BY-SA</a></tspan></text></g></g></svg>