<svg xmlns="http://www.w3.org/2000/svg" version="1.1" style="font-family: 'Helvetica Neue', Helvetica, Arial, sans-serif; font-size: 18px; background-color: white; text-rendering: optimizeLegibility; -webkit-font-smoothing: antialiased;" width="850" height="600"><g class="ChartTab"><g class="HeaderView"><g opacity="0.8" transform="translate(778, 15) scale(0.27)"><a xmlns:xlink="http://www.w3.org/1999/xlink" xlink:href="https://ourworldindata.org" target="_blank"><g><rect x="0" y="0" fill="#1B2543" width="211.2" height="130.1"/><rect x="0" y="112.2" fill="#E63912" width="211.2" height="17.9"/><g><rect x="1.2" y="12.3" fill="none" width="210.2" height="99.2"/><path fill="#FFFFFF" d="M37.8,32.2c0,12.7-7.7,19.4-17.1,19.4c-9.7,0-16.6-7.5-16.6-18.7c0-11.7,7.3-19.3,17.1-19.3 C31.3,13.7,37.8,21.3,37.8,32.2z M9.2,32.8c0,7.9,4.3,14.9,11.8,14.9c7.5,0,11.8-6.9,11.8-15.3c0-7.3-3.8-14.9-11.8-14.9 C13.1,17.5,9.2,24.8,9.2,32.8z"/><path fill="#FFFFFF" d="M62.7,43.8c0,2.7,0.1,5.1,0.2,7.2h-4.3l-0.3-4.3h-0.1c-1.3,2.1-4,4.9-8.8,4.9c-4.2,0-9.1-2.3-9.1-11.6 V24.6h4.8v14.6c0,5,1.5,8.4,5.9,8.4c3.2,0,5.5-2.2,6.3-4.4c0.3-0.7,0.4-1.6,0.4-2.5V24.6h4.8V43.8z"/><path fill="#FFFFFF" d="M67.3,32.8c0-3.1-0.1-5.8-0.2-8.2h4.2l0.2,5.2h0.2c1.2-3.5,4.1-5.8,7.3-5.8c0.5,0,0.9,0.1,1.4,0.2v4.5 c-0.5-0.1-1-0.2-1.6-0.2c-3.4,0-5.8,2.6-6.5,6.2c-0.1,0.7-0.2,1.4-0.2,2.2V51h-4.8V32.8z"/><path fill="#FFFFFF" d="M95.4,51l-9.4-36.8h5l4.4,18.6c1.1,4.6,2.1,9.2,2.7,12.7h0.1c0.6-3.7,1.8-8,3-12.8l4.9-18.5h5l4.5,18.7 c1,4.4,2,8.7,2.6,12.6h0.1c0.8-4,1.8-8.1,3-12.7l4.9-18.5h4.9L120.6,51h-5L111,31.9c-1.1-4.7-1.9-8.3-2.4-12h-0.1 c-0.7,3.7-1.5,7.3-2.8,12L100.4,51H95.4z"/><path fill="#FFFFFF" d="M154.9,37.6c0,9.8-6.8,14-13.2,14c-7.2,0-12.7-5.2-12.7-13.6c0-8.8,5.8-14,13.1-14 C149.8,24,154.9,29.5,154.9,37.6z M133.9,37.9c0,5.8,3.3,10.1,8,10.1c4.6,0,8-4.3,8-10.3c0-4.5-2.2-10.1-7.9-10.1 C136.3,27.6,133.9,32.8,133.9,37.9z"/><path fill="#FFFFFF" d="M158.2,32.8c0-3.1-0.1-5.8-0.2-8.2h4.2l0.2,5.2h0.2c1.2-3.5,4.1-5.8,7.3-5.8c0.5,0,0.9,0.1,1.4,0.2v4.5 c-0.5-0.1-1-0.2-1.6-0.2c-3.4,0-5.8,2.6-6.5,6.2c-0.1,0.7-0.2,1.4-0.2,2.2V51h-4.8V32.8z"/><path fill="#FFFFFF" d="M173.5,12.3h4.8V51h-4.8V12.3z"/><path fill="#FFFFFF" d="M206.5,12.3v31.9c0,2.3,0.1,5,0.2,6.8h-4.3l-0.2-4.6H202c-1.5,2.9-4.7,5.2-9,5.2 c-6.4,0-11.3-5.4-11.3-13.4c-0.1-8.8,5.4-14.2,11.9-14.2c4,0,6.8,1.9,8,4h0.1V12.3H206.5z M201.7,35.4c0-0.6-0.1-1.4-0.2-2 c-0.7-3.1-3.3-5.6-6.9-5.6c-5,0-7.9,4.4-7.9,10.2c0,5.3,2.6,9.8,7.8,9.8c3.2,0,6.2-2.1,7.1-5.7c0.2-0.7,0.2-1.3,0.2-2.1V35.4z"/><path fill="#FFFFFF" d="M42.8,64c0.1,1.6-1.1,2.9-3.1,2.9c-1.7,0-2.9-1.3-2.9-2.9c0-1.7,1.3-3,3-3C41.7,61,42.8,62.3,42.8,64z M37.4,97.8V71.4h4.8v26.4H37.4z"/><path fill="#FFFFFF" d="M47.5,78.6c0-2.7-0.1-5-0.2-7.1h4.3l0.3,4.4h0.1c1.3-2.5,4.4-5,8.8-5c3.7,0,9.4,2.2,9.4,11.2v15.8h-4.8 V82.6c0-4.3-1.6-7.8-6.1-7.8c-3.2,0-5.6,2.2-6.5,4.9c-0.2,0.6-0.3,1.4-0.3,2.2v15.9h-4.8V78.6z"/><path fill="#FFFFFF" d="M84,61.6c2.9-0.4,6.3-0.8,10.1-0.8c6.8,0,11.7,1.6,14.9,4.6c3.3,3,5.2,7.3,5.2,13.2c0,6-1.9,10.9-5.3,14.3 c-3.4,3.4-9.1,5.3-16.3,5.3c-3.4,0-6.2-0.2-8.6-0.4V61.6z M88.8,94.1c1.2,0.2,3,0.3,4.8,0.3c10.2,0,15.7-5.7,15.7-15.6 c0.1-8.7-4.9-14.2-14.9-14.2c-2.5,0-4.3,0.2-5.6,0.5V94.1z"/><path fill="#FFFFFF" d="M132.1,97.8l-0.4-3.3h-0.2c-1.5,2.1-4.3,3.9-8.1,3.9c-5.4,0-8.1-3.8-8.1-7.6c0-6.4,5.7-9.9,15.9-9.8v-0.5 c0-2.2-0.6-6.1-6-6.1c-2.5,0-5,0.8-6.9,2l-1.1-3.2c2.2-1.4,5.4-2.3,8.7-2.3c8.1,0,10.1,5.5,10.1,10.8v9.9c0,2.3,0.1,4.5,0.4,6.3 H132.1z M131.4,84.4c-5.3-0.1-11.2,0.8-11.2,5.9c0,3.1,2.1,4.6,4.5,4.6c3.4,0,5.6-2.2,6.4-4.4c0.2-0.5,0.3-1,0.3-1.5V84.4z"/><path fill="#FFFFFF" d="M146.6,63.9v7.6h6.9v3.7h-6.9v14.2c0,3.3,0.9,5.1,3.6,5.1c1.3,0,2.2-0.2,2.8-0.3l0.2,3.6 c-0.9,0.4-2.4,0.7-4.3,0.7c-2.2,0-4-0.7-5.2-2c-1.4-1.4-1.9-3.8-1.9-6.9V75.1h-4.1v-3.7h4.1v-6.3L146.6,63.9z"/><path fill="#FFFFFF" d="M171.4,97.8l-0.4-3.3h-0.2c-1.5,2.1-4.3,3.9-8.1,3.9c-5.4,0-8.1-3.8-8.1-7.6c0-6.4,5.7-9.9,15.9-9.8v-0.5 c0-2.2-0.6-6.1-6-6.1c-2.5,0-5,0.8-6.9,2l-1.1-3.2c2.2-1.4,5.4-2.3,8.7-2.3c8.1,0,10.1,5.5,10.1,10.8v9.9c0,2.3,0.1,4.5,0.4,6.3 H171.4z M170.7,84.4c-5.3-0.1-11.2,0.8-11.2,5.9c0,3.1,2.1,4.6,4.5,4.6c3.4,0,5.6-2.2,6.4-4.4c0.2-0.5,0.3-1,0.3-1.5V84.4z"/></g></g></a></g><a href="https://ourworldindata.org/grapher/share-of-population-with-cancer-by-age" target="_blank"><text font-size="25.20" x="15.0" y="35.2" fill="#555"><tspan x="15" y="35.160000000000004">Share of population with cancer by age, World</tspan></text></a><text font-size="14.40" x="15.0" y="53.7" fill="#666"><tspan x="15" y="53.72">Share of population within a given age category with any type of cancer. This is measured across both sexes.</tspan></text></g><g class="LineChart"><defs><clipPath id="boundsClip-529"><rect x="33.49" y="0" width="830" height="959.8"></rect></clipPath></defs><g class="AxisBoxView"><g class="HorizontalAxis"><text x="43.5" y="556.5" fill="#666" text-anchor="middle" font-size="16.2">1990</text><text x="163.9" y="556.5" fill="#666" text-anchor="middle" font-size="16.2">1995</text><text x="284.3" y="556.5" fill="#666" text-anchor="middle" font-size="16.2">2000</text><text x="404.7" y="556.5" fill="#666" text-anchor="middle" font-size="16.2">2005</text><text x="525.2" y="556.5" fill="#666" text-anchor="middle" font-size="16.2">2010</text><text x="645.6" y="556.5" fill="#666" text-anchor="middle" font-size="16.2">2015</text><text x="693.8" y="556.5" fill="#666" text-anchor="middle" font-size="16.2">2017</text></g><g class="VerticalAxis"><text x="38.49" y="535.3" fill="#666" dominant-baseline="middle" text-anchor="end" font-size="16.2">0%</text><text x="38.49" y="462.2" fill="#666" dominant-baseline="middle" text-anchor="end" font-size="16.2">1%</text><text x="38.49" y="389.1" fill="#666" dominant-baseline="middle" text-anchor="end" font-size="16.2">2%</text><text x="38.49" y="315.9" fill="#666" dominant-baseline="middle" text-anchor="end" font-size="16.2">3%</text><text x="38.49" y="242.8" fill="#666" dominant-baseline="middle" text-anchor="end" font-size="16.2">4%</text><text x="38.49" y="169.7" fill="#666" dominant-baseline="middle" text-anchor="end" font-size="16.2">5%</text><text x="38.49" y="96.6" fill="#666" dominant-baseline="middle" text-anchor="end" font-size="16.2">6%</text></g><g class="AxisGridLines"><line x1="43.49" y1="535.3" x2="693.75" y2="535.3" stroke="#ccc"></line><line x1="43.49" y1="462.2" x2="693.75" y2="462.2" stroke="#ddd" stroke-dasharray="3,2"></line><line x1="43.49" y1="389.1" x2="693.75" y2="389.1" stroke="#ddd" stroke-dasharray="3,2"></line><line x1="43.49" y1="315.9" x2="693.75" y2="315.9" stroke="#ddd" stroke-dasharray="3,2"></line><line x1="43.49" y1="242.8" x2="693.75" y2="242.8" stroke="#ddd" stroke-dasharray="3,2"></line><line x1="43.49" y1="169.7" x2="693.75" y2="169.7" stroke="#ddd" stroke-dasharray="3,2"></line><line x1="43.49" y1="96.6" x2="693.75" y2="96.6" stroke="#ddd" stroke-dasharray="3,2"></line></g></g><g clip-path="url(#boundsClip-529)"><g class="HeightedLegend clickable"><g class="legendMark"><g class="indicator"><line x1="698.755" y1="76.6" x2="711.255" y2="76.6" stroke="#666" stroke-width="0.5"></line><line x1="711.255" y1="76.6" x2="711.255" y2="76.6" stroke="#666" stroke-width="0.5"></line><line x1="711.255" y1="76.6" x2="723.755" y2="76.6" stroke="#666" stroke-width="0.5"></line></g><rect x="693.755" y="69.85" width="123.42500000000001" height="13.5" fill="#fff" opacity="0"></rect><text font-size="13.50" x="728.8" y="80.6" fill="#e6332e"><tspan x="728.755" y="80.64999999999999">70+ years olds</tspan></text></g><g class="legendMark"><g class="indicator"><line x1="698.755" y1="292.7" x2="711.255" y2="292.7" stroke="#666" stroke-width="0.5"></line><line x1="711.255" y1="292.7" x2="711.255" y2="292.7" stroke="#666" stroke-width="0.5"></line><line x1="711.255" y1="292.7" x2="723.755" y2="292.7" stroke="#666" stroke-width="0.5"></line></g><rect x="693.755" y="285.95" width="128.42000000000002" height="13.5" fill="#fff" opacity="0"></rect><text font-size="13.50" x="728.8" y="296.8" fill="#2a939b"><tspan x="728.755" y="296.75">50-69 years old</tspan></text></g><g class="legendMark"><g class="indicator"><line x1="698.755" y1="435.6" x2="721.255" y2="435.6" stroke="#666" stroke-width="0.5"></line><line x1="721.255" y1="435.6" x2="721.255" y2="435.6" stroke="#666" stroke-width="0.5"></line><line x1="721.255" y1="435.6" x2="723.755" y2="435.6" stroke="#666" stroke-width="0.5"></line></g><rect x="693.755" y="428.85" width="83.195" height="13.5" fill="#fff" opacity="0"></rect><text font-size="13.50" x="728.8" y="439.7" fill="#a652ba"><tspan x="728.755" y="439.65000000000003">All ages</tspan></text></g><g class="legendMark"><g class="indicator"><line x1="698.755" y1="439.6" x2="711.255" y2="439.6" stroke="#666" stroke-width="0.5"></line><line x1="711.255" y1="439.6" x2="711.255" y2="451.1" stroke="#666" stroke-width="0.5"></line><line x1="711.255" y1="451.1" x2="723.755" y2="451.1" stroke="#666" stroke-width="0.5"></line></g><rect x="693.755" y="444.35" width="141.245" height="13.5" fill="#fff" opacity="0"></rect><text font-size="13.50" x="728.8" y="455.2" fill="#f6a324"><tspan x="728.755" y="455.15000000000003">Age-standardized</tspan></text></g><g class="legendMark"><g class="indicator"><line x1="698.755" y1="488.4" x2="721.255" y2="488.4" stroke="#666" stroke-width="0.5"></line><line x1="721.255" y1="488.4" x2="721.255" y2="488.4" stroke="#666" stroke-width="0.5"></line><line x1="721.255" y1="488.4" x2="723.755" y2="488.4" stroke="#666" stroke-width="0.5"></line></g><rect x="693.755" y="481.65" width="135.17000000000002" height="13.5" fill="#fff" opacity="0"></rect><text font-size="13.50" x="728.8" y="492.4" fill="#34983f"><tspan x="728.755" y="492.45">15-49 years olds</tspan></text></g><g class="legendMark"><g class="indicator"><line x1="698.755" y1="500.9" x2="711.255" y2="500.9" stroke="#666" stroke-width="0.5"></line><line x1="711.255" y1="500.9" x2="711.255" y2="503.9" stroke="#666" stroke-width="0.5"></line><line x1="711.255" y1="503.9" x2="723.755" y2="503.9" stroke="#666" stroke-width="0.5"></line></g><rect x="693.755" y="497.15" width="90.62" height="13.5" fill="#fff" opacity="0"></rect><text font-size="13.50" x="728.8" y="507.9" fill="#ca2628"><tspan x="728.755" y="507.95">Under-5s</tspan></text></g><g class="legendMark"><g class="indicator"><line x1="698.755" y1="520.8" x2="711.255" y2="520.8" stroke="#666" stroke-width="0.5"></line><line x1="711.255" y1="520.8" x2="711.255" y2="520.8" stroke="#666" stroke-width="0.5"></line><line x1="711.255" y1="520.8" x2="723.755" y2="520.8" stroke="#666" stroke-width="0.5"></line></g><rect x="693.755" y="514.05" width="120.86" height="13.5" fill="#fff" opacity="0"></rect><text font-size="13.50" x="728.8" y="524.8" fill="#3360a9"><tspan x="728.755" y="524.8499999999999">5-14 years old</tspan></text></g></g><g class="Lines"><rect x="43" y="77" width="650" height="459" fill="rgba(255,255,255,0)" opacity="0"></rect><g class="key-World_0"><path stroke="#ca2628" stroke-linecap="round" d="M44 517L68 517L92 517L116 517L140 517L164 517L188 517L212 517L236 517L260 517L284 517L308 517L333 517L357 517L381 516L405 516L429 515L453 514L477 513L501 512L525 511L549 509L573 508L597 506L622 504L646 502L670 501L694 501" fill="none" stroke-width="1.5"></path><g fill="#ca2628"><circle cx="44" cy="517" r="2"></circle><circle cx="68" cy="517" r="2"></circle><circle cx="92" cy="517" r="2"></circle><circle cx="116" cy="517" r="2"></circle><circle cx="140" cy="517" r="2"></circle><circle cx="164" cy="517" r="2"></circle><circle cx="188" cy="517" r="2"></circle><circle cx="212" cy="517" r="2"></circle><circle cx="236" cy="517" r="2"></circle><circle cx="260" cy="517" r="2"></circle><circle cx="284" cy="517" r="2"></circle><circle cx="308" cy="517" r="2"></circle><circle cx="333" cy="517" r="2"></circle><circle cx="357" cy="517" r="2"></circle><circle cx="381" cy="516" r="2"></circle><circle cx="405" cy="516" r="2"></circle><circle cx="429" cy="515" r="2"></circle><circle cx="453" cy="514" r="2"></circle><circle cx="477" cy="513" r="2"></circle><circle cx="501" cy="512" r="2"></circle><circle cx="525" cy="511" r="2"></circle><circle cx="549" cy="509" r="2"></circle><circle cx="573" cy="508" r="2"></circle><circle cx="597" cy="506" r="2"></circle><circle cx="622" cy="504" r="2"></circle><circle cx="646" cy="502" r="2"></circle><circle cx="670" cy="501" r="2"></circle><circle cx="694" cy="501" r="2"></circle></g></g><g class="key-World_1"><path stroke="#e6332e" stroke-linecap="round" d="M44 150L68 146L92 141L116 137L140 134L164 132L188 130L212 129L236 128L260 126L284 127L308 126L333 123L357 119L381 118L405 117L429 118L453 115L477 110L501 106L525 102L549 99L573 96L597 92L622 87L646 82L670 80L694 77" fill="none" stroke-width="1.5"></path><g fill="#e6332e"><circle cx="44" cy="150" r="2"></circle><circle cx="68" cy="146" r="2"></circle><circle cx="92" cy="141" r="2"></circle><circle cx="116" cy="137" r="2"></circle><circle cx="140" cy="134" r="2"></circle><circle cx="164" cy="132" r="2"></circle><circle cx="188" cy="130" r="2"></circle><circle cx="212" cy="129" r="2"></circle><circle cx="236" cy="128" r="2"></circle><circle cx="260" cy="126" r="2"></circle><circle cx="284" cy="127" r="2"></circle><circle cx="308" cy="126" r="2"></circle><circle cx="333" cy="123" r="2"></circle><circle cx="357" cy="119" r="2"></circle><circle cx="381" cy="118" r="2"></circle><circle cx="405" cy="117" r="2"></circle><circle cx="429" cy="118" r="2"></circle><circle cx="453" cy="115" r="2"></circle><circle cx="477" cy="110" r="2"></circle><circle cx="501" cy="106" r="2"></circle><circle cx="525" cy="102" r="2"></circle><circle cx="549" cy="99" r="2"></circle><circle cx="573" cy="96" r="2"></circle><circle cx="597" cy="92" r="2"></circle><circle cx="622" cy="87" r="2"></circle><circle cx="646" cy="82" r="2"></circle><circle cx="670" cy="80" r="2"></circle><circle cx="694" cy="77" r="2"></circle></g></g><g class="key-World_2"><path stroke="#34983f" stroke-linecap="round" d="M44 497L68 497L92 496L116 495L140 495L164 494L188 494L212 494L236 494L260 494L284 495L308 495L333 495L357 495L381 495L405 495L429 495L453 494L477 493L501 493L525 492L549 492L573 491L597 491L622 490L646 489L670 489L694 488" fill="none" stroke-width="1.5"></path><g fill="#34983f"><circle cx="44" cy="497" r="2"></circle><circle cx="68" cy="497" r="2"></circle><circle cx="92" cy="496" r="2"></circle><circle cx="116" cy="495" r="2"></circle><circle cx="140" cy="495" r="2"></circle><circle cx="164" cy="494" r="2"></circle><circle cx="188" cy="494" r="2"></circle><circle cx="212" cy="494" r="2"></circle><circle cx="236" cy="494" r="2"></circle><circle cx="260" cy="494" r="2"></circle><circle cx="284" cy="495" r="2"></circle><circle cx="308" cy="495" r="2"></circle><circle cx="333" cy="495" r="2"></circle><circle cx="357" cy="495" r="2"></circle><circle cx="381" cy="495" r="2"></circle><circle cx="405" cy="495" r="2"></circle><circle cx="429" cy="495" r="2"></circle><circle cx="453" cy="494" r="2"></circle><circle cx="477" cy="493" r="2"></circle><circle cx="501" cy="493" r="2"></circle><circle cx="525" cy="492" r="2"></circle><circle cx="549" cy="492" r="2"></circle><circle cx="573" cy="491" r="2"></circle><circle cx="597" cy="491" r="2"></circle><circle cx="622" cy="490" r="2"></circle><circle cx="646" cy="489" r="2"></circle><circle cx="670" cy="489" r="2"></circle><circle cx="694" cy="488" r="2"></circle></g></g><g class="key-World_3"><path stroke="#f6a324" stroke-linecap="round" d="M44 457L68 456L92 455L116 454L140 454L164 453L188 453L212 453L236 453L260 453L284 453L308 453L333 452L357 452L381 451L405 451L429 450L453 450L477 448L501 447L525 446L549 445L573 445L597 444L622 442L646 441L670 440L694 440" fill="none" stroke-width="1.5"></path><g fill="#f6a324"><circle cx="44" cy="457" r="2"></circle><circle cx="68" cy="456" r="2"></circle><circle cx="92" cy="455" r="2"></circle><circle cx="116" cy="454" r="2"></circle><circle cx="140" cy="454" r="2"></circle><circle cx="164" cy="453" r="2"></circle><circle cx="188" cy="453" r="2"></circle><circle cx="212" cy="453" r="2"></circle><circle cx="236" cy="453" r="2"></circle><circle cx="260" cy="453" r="2"></circle><circle cx="284" cy="453" r="2"></circle><circle cx="308" cy="453" r="2"></circle><circle cx="333" cy="452" r="2"></circle><circle cx="357" cy="452" r="2"></circle><circle cx="381" cy="451" r="2"></circle><circle cx="405" cy="451" r="2"></circle><circle cx="429" cy="450" r="2"></circle><circle cx="453" cy="450" r="2"></circle><circle cx="477" cy="448" r="2"></circle><circle cx="501" cy="447" r="2"></circle><circle cx="525" cy="446" r="2"></circle><circle cx="549" cy="445" r="2"></circle><circle cx="573" cy="445" r="2"></circle><circle cx="597" cy="444" r="2"></circle><circle cx="622" cy="442" r="2"></circle><circle cx="646" cy="441" r="2"></circle><circle cx="670" cy="440" r="2"></circle><circle cx="694" cy="440" r="2"></circle></g></g><g class="key-World_4"><path stroke="#2a939b" stroke-linecap="round" d="M44 341L68 338L92 336L116 333L140 332L164 331L188 331L212 331L236 330L260 329L284 328L308 327L333 325L357 322L381 321L405 319L429 319L453 316L477 313L501 310L525 308L549 306L573 304L597 301L622 298L646 295L670 292L694 293" fill="none" stroke-width="1.5"></path><g fill="#2a939b"><circle cx="44" cy="341" r="2"></circle><circle cx="68" cy="338" r="2"></circle><circle cx="92" cy="336" r="2"></circle><circle cx="116" cy="333" r="2"></circle><circle cx="140" cy="332" r="2"></circle><circle cx="164" cy="331" r="2"></circle><circle cx="188" cy="331" r="2"></circle><circle cx="212" cy="331" r="2"></circle><circle cx="236" cy="330" r="2"></circle><circle cx="260" cy="329" r="2"></circle><circle cx="284" cy="328" r="2"></circle><circle cx="308" cy="327" r="2"></circle><circle cx="333" cy="325" r="2"></circle><circle cx="357" cy="322" r="2"></circle><circle cx="381" cy="321" r="2"></circle><circle cx="405" cy="319" r="2"></circle><circle cx="429" cy="319" r="2"></circle><circle cx="453" cy="316" r="2"></circle><circle cx="477" cy="313" r="2"></circle><circle cx="501" cy="310" r="2"></circle><circle cx="525" cy="308" r="2"></circle><circle cx="549" cy="306" r="2"></circle><circle cx="573" cy="304" r="2"></circle><circle cx="597" cy="301" r="2"></circle><circle cx="622" cy="298" r="2"></circle><circle cx="646" cy="295" r="2"></circle><circle cx="670" cy="292" r="2"></circle><circle cx="694" cy="293" r="2"></circle></g></g><g class="key-World_5"><path stroke="#3360a9" stroke-linecap="round" d="M44 527L68 527L92 527L116 527L140 527L164 527L188 527L212 527L236 527L260 527L284 527L308 527L333 527L357 527L381 527L405 527L429 527L453 527L477 526L501 526L525 525L549 525L573 524L597 523L622 522L646 522L670 521L694 521" fill="none" stroke-width="1.5"></path><g fill="#3360a9"><circle cx="44" cy="527" r="2"></circle><circle cx="68" cy="527" r="2"></circle><circle cx="92" cy="527" r="2"></circle><circle cx="116" cy="527" r="2"></circle><circle cx="140" cy="527" r="2"></circle><circle cx="164" cy="527" r="2"></circle><circle cx="188" cy="527" r="2"></circle><circle cx="212" cy="527" r="2"></circle><circle cx="236" cy="527" r="2"></circle><circle cx="260" cy="527" r="2"></circle><circle cx="284" cy="527" r="2"></circle><circle cx="308" cy="527" r="2"></circle><circle cx="333" cy="527" r="2"></circle><circle cx="357" cy="527" r="2"></circle><circle cx="381" cy="527" r="2"></circle><circle cx="405" cy="527" r="2"></circle><circle cx="429" cy="527" r="2"></circle><circle cx="453" cy="527" r="2"></circle><circle cx="477" cy="526" r="2"></circle><circle cx="501" cy="526" r="2"></circle><circle cx="525" cy="525" r="2"></circle><circle cx="549" cy="525" r="2"></circle><circle cx="573" cy="524" r="2"></circle><circle cx="597" cy="523" r="2"></circle><circle cx="622" cy="522" r="2"></circle><circle cx="646" cy="522" r="2"></circle><circle cx="670" cy="521" r="2"></circle><circle cx="694" cy="521" r="2"></circle></g></g><g class="key-World_6"><path stroke="#a652ba" stroke-linecap="round" d="M44 471L68 470L92 469L116 468L140 467L164 466L188 466L212 465L236 465L260 464L284 464L308 463L333 462L357 460L381 459L405 458L429 457L453 455L477 453L501 451L525 449L549 448L573 446L597 444L622 442L646 439L670 437L694 436" fill="none" stroke-width="1.5"></path><g fill="#a652ba"><circle cx="44" cy="471" r="2"></circle><circle cx="68" cy="470" r="2"></circle><circle cx="92" cy="469" r="2"></circle><circle cx="116" cy="468" r="2"></circle><circle cx="140" cy="467" r="2"></circle><circle cx="164" cy="466" r="2"></circle><circle cx="188" cy="466" r="2"></circle><circle cx="212" cy="465" r="2"></circle><circle cx="236" cy="465" r="2"></circle><circle cx="260" cy="464" r="2"></circle><circle cx="284" cy="464" r="2"></circle><circle cx="308" cy="463" r="2"></circle><circle cx="333" cy="462" r="2"></circle><circle cx="357" cy="460" r="2"></circle><circle cx="381" cy="459" r="2"></circle><circle cx="405" cy="458" r="2"></circle><circle cx="429" cy="457" r="2"></circle><circle cx="453" cy="455" r="2"></circle><circle cx="477" cy="453" r="2"></circle><circle cx="501" cy="451" r="2"></circle><circle cx="525" cy="449" r="2"></circle><circle cx="549" cy="448" r="2"></circle><circle cx="573" cy="446" r="2"></circle><circle cx="597" cy="444" r="2"></circle><circle cx="622" cy="442" r="2"></circle><circle cx="646" cy="439" r="2"></circle><circle cx="670" cy="437" r="2"></circle><circle cx="694" cy="436" r="2"></circle></g></g></g></g></g><g style="fill: #777;" class="SourcesFooter"><g style="fill: #777;" class="clickable"><text font-size="12.60" x="15.0" y="581.6"><tspan x="15" y="581.58">Source: IHME, Global Burden of Disease</tspan></text></g><text font-size="12.60" x="775.4" y="581.6"><tspan x="775.402" y="581.58"><a style="fill: #777;" class="cclogo" href="http://creativecommons.org/licenses/by-sa/4.0/deed.en_US" target="_blank">CC BY-SA</a></tspan></text></g></g></svg>