<svg xmlns="http://www.w3.org/2000/svg" version="1.1" style="font-family: 'Helvetica Neue', Helvetica, Arial, sans-serif; font-size: 18px; background-color: white; text-rendering: optimizeLegibility; -webkit-font-smoothing: antialiased;" width="850" height="600"><g class="ChartTab"><g class="HeaderView"><g opacity="0.8" transform="translate(778, 15) scale(0.27)"><a xmlns:xlink="http://www.w3.org/1999/xlink" xlink:href="https://ourworldindata.org" target="_blank"><g><rect x="0" y="0" fill="#1B2543" width="211.2" height="130.1"/><rect x="0" y="112.2" fill="#E63912" width="211.2" height="17.9"/><g><rect x="1.2" y="12.3" fill="none" width="210.2" height="99.2"/><path fill="#FFFFFF" d="M37.8,32.2c0,12.7-7.7,19.4-17.1,19.4c-9.7,0-16.6-7.5-16.6-18.7c0-11.7,7.3-19.3,17.1-19.3 C31.3,13.7,37.8,21.3,37.8,32.2z M9.2,32.8c0,7.9,4.3,14.9,11.8,14.9c7.5,0,11.8-6.9,11.8-15.3c0-7.3-3.8-14.9-11.8-14.9 C13.1,17.5,9.2,24.8,9.2,32.8z"/><path fill="#FFFFFF" d="M62.7,43.8c0,2.7,0.1,5.1,0.2,7.2h-4.3l-0.3-4.3h-0.1c-1.3,2.1-4,4.9-8.8,4.9c-4.2,0-9.1-2.3-9.1-11.6 V24.6h4.8v14.6c0,5,1.5,8.4,5.9,8.4c3.2,0,5.5-2.2,6.3-4.4c0.3-0.7,0.4-1.6,0.4-2.5V24.6h4.8V43.8z"/><path fill="#FFFFFF" d="M67.3,32.8c0-3.1-0.1-5.8-0.2-8.2h4.2l0.2,5.2h0.2c1.2-3.5,4.1-5.8,7.3-5.8c0.5,0,0.9,0.1,1.4,0.2v4.5 c-0.5-0.1-1-0.2-1.6-0.2c-3.4,0-5.8,2.6-6.5,6.2c-0.1,0.7-0.2,1.4-0.2,2.2V51h-4.8V32.8z"/><path fill="#FFFFFF" d="M95.4,51l-9.4-36.8h5l4.4,18.6c1.1,4.6,2.1,9.2,2.7,12.7h0.1c0.6-3.7,1.8-8,3-12.8l4.9-18.5h5l4.5,18.7 c1,4.4,2,8.7,2.6,12.6h0.1c0.8-4,1.8-8.1,3-12.7l4.9-18.5h4.9L120.6,51h-5L111,31.9c-1.1-4.7-1.9-8.3-2.4-12h-0.1 c-0.7,3.7-1.5,7.3-2.8,12L100.4,51H95.4z"/><path fill="#FFFFFF" d="M154.9,37.6c0,9.8-6.8,14-13.2,14c-7.2,0-12.7-5.2-12.7-13.6c0-8.8,5.8-14,13.1-14 C149.8,24,154.9,29.5,154.9,37.6z M133.9,37.9c0,5.8,3.3,10.1,8,10.1c4.6,0,8-4.3,8-10.3c0-4.5-2.2-10.1-7.9-10.1 C136.3,27.6,133.9,32.8,133.9,37.9z"/><path fill="#FFFFFF" d="M158.2,32.8c0-3.1-0.1-5.8-0.2-8.2h4.2l0.2,5.2h0.2c1.2-3.5,4.1-5.8,7.3-5.8c0.5,0,0.9,0.1,1.4,0.2v4.5 c-0.5-0.1-1-0.2-1.6-0.2c-3.4,0-5.8,2.6-6.5,6.2c-0.1,0.7-0.2,1.4-0.2,2.2V51h-4.8V32.8z"/><path fill="#FFFFFF" d="M173.5,12.3h4.8V51h-4.8V12.3z"/><path fill="#FFFFFF" d="M206.5,12.3v31.9c0,2.3,0.1,5,0.2,6.8h-4.3l-0.2-4.6H202c-1.5,2.9-4.7,5.2-9,5.2 c-6.4,0-11.3-5.4-11.3-13.4c-0.1-8.8,5.4-14.2,11.9-14.2c4,0,6.8,1.9,8,4h0.1V12.3H206.5z M201.7,35.4c0-0.6-0.1-1.4-0.2-2 c-0.7-3.1-3.3-5.6-6.9-5.6c-5,0-7.9,4.4-7.9,10.2c0,5.3,2.6,9.8,7.8,9.8c3.2,0,6.2-2.1,7.1-5.7c0.2-0.7,0.2-1.3,0.2-2.1V35.4z"/><path fill="#FFFFFF" d="M42.8,64c0.1,1.6-1.1,2.9-3.1,2.9c-1.7,0-2.9-1.3-2.9-2.9c0-1.7,1.3-3,3-3C41.7,61,42.8,62.3,42.8,64z M37.4,97.8V71.4h4.8v26.4H37.4z"/><path fill="#FFFFFF" d="M47.5,78.6c0-2.7-0.1-5-0.2-7.1h4.3l0.3,4.4h0.1c1.3-2.5,4.4-5,8.8-5c3.7,0,9.4,2.2,9.4,11.2v15.8h-4.8 V82.6c0-4.3-1.6-7.8-6.1-7.8c-3.2,0-5.6,2.2-6.5,4.9c-0.2,0.6-0.3,1.4-0.3,2.2v15.9h-4.8V78.6z"/><path fill="#FFFFFF" d="M84,61.6c2.9-0.4,6.3-0.8,10.1-0.8c6.8,0,11.7,1.6,14.9,4.6c3.3,3,5.2,7.3,5.2,13.2c0,6-1.9,10.9-5.3,14.3 c-3.4,3.4-9.1,5.3-16.3,5.3c-3.4,0-6.2-0.2-8.6-0.4V61.6z M88.8,94.1c1.2,0.2,3,0.3,4.8,0.3c10.2,0,15.7-5.7,15.7-15.6 c0.1-8.7-4.9-14.2-14.9-14.2c-2.5,0-4.3,0.2-5.6,0.5V94.1z"/><path fill="#FFFFFF" d="M132.1,97.8l-0.4-3.3h-0.2c-1.5,2.1-4.3,3.9-8.1,3.9c-5.4,0-8.1-3.8-8.1-7.6c0-6.4,5.7-9.9,15.9-9.8v-0.5 c0-2.2-0.6-6.1-6-6.1c-2.5,0-5,0.8-6.9,2l-1.1-3.2c2.2-1.4,5.4-2.3,8.7-2.3c8.1,0,10.1,5.5,10.1,10.8v9.9c0,2.3,0.1,4.5,0.4,6.3 H132.1z M131.4,84.4c-5.3-0.1-11.2,0.8-11.2,5.9c0,3.1,2.1,4.6,4.5,4.6c3.4,0,5.6-2.2,6.4-4.4c0.2-0.5,0.3-1,0.3-1.5V84.4z"/><path fill="#FFFFFF" d="M146.6,63.9v7.6h6.9v3.7h-6.9v14.2c0,3.3,0.9,5.1,3.6,5.1c1.3,0,2.2-0.2,2.8-0.3l0.2,3.6 c-0.9,0.4-2.4,0.7-4.3,0.7c-2.2,0-4-0.7-5.2-2c-1.4-1.4-1.9-3.8-1.9-6.9V75.1h-4.1v-3.7h4.1v-6.3L146.6,63.9z"/><path fill="#FFFFFF" d="M171.4,97.8l-0.4-3.3h-0.2c-1.5,2.1-4.3,3.9-8.1,3.9c-5.4,0-8.1-3.8-8.1-7.6c0-6.4,5.7-9.9,15.9-9.8v-0.5 c0-2.2-0.6-6.1-6-6.1c-2.5,0-5,0.8-6.9,2l-1.1-3.2c2.2-1.4,5.4-2.3,8.7-2.3c8.1,0,10.1,5.5,10.1,10.8v9.9c0,2.3,0.1,4.5,0.4,6.3 H171.4z M170.7,84.4c-5.3-0.1-11.2,0.8-11.2,5.9c0,3.1,2.1,4.6,4.5,4.6c3.4,0,5.6-2.2,6.4-4.4c0.2-0.5,0.3-1,0.3-1.5V84.4z"/></g></g></a></g><a href="https://ourworldindata.org/grapher/share-of-deaths-by-cause-2016" target="_blank"><text font-size="25.20" x="15.0" y="35.2" fill="#555"><tspan x="15" y="35.160000000000004">Share of deaths by cause, World, 2017</tspan></text></a><text font-size="14.40" x="15.0" y="53.7" fill="#666"><tspan x="15" y="53.72">Data refers to the specific cause of death, which is distinguished from risk factors for death, such as air pollution, diet</tspan><tspan x="15" y="69.56">and other lifestyle factors. This is shown by cause of death as the percentage of total deaths.</tspan></text></g><g class="DiscreteBarChart"><rect x="15" y="92.1" width="810" height="464.4" opacity="0" fill="rgba(255,255,255,0)"></rect><g class="HorizontalAxis"><text x="265.2" y="556.5" fill="#666" text-anchor="middle" font-size="16.2">0%</text><text x="345.9" y="556.5" fill="#666" text-anchor="middle" font-size="16.2">5%</text><text x="426.7" y="556.5" fill="#666" text-anchor="middle" font-size="16.2">10%</text><text x="507.5" y="556.5" fill="#666" text-anchor="middle" font-size="16.2">15%</text><text x="588.3" y="556.5" fill="#666" text-anchor="middle" font-size="16.2">20%</text><text x="669.1" y="556.5" fill="#666" text-anchor="middle" font-size="16.2">25%</text><text x="749.9" y="556.5" fill="#666" text-anchor="middle" font-size="16.2">30%</text></g><g class="AxisGridLines"><line x1="265.2" y1="535.30" x2="265.2" y2="92.10" stroke="#ccc"></line><line x1="345.9" y1="535.30" x2="345.9" y2="92.10" stroke="#ddd" stroke-dasharray="3,2"></line><line x1="426.7" y1="535.30" x2="426.7" y2="92.10" stroke="#ddd" stroke-dasharray="3,2"></line><line x1="507.5" y1="535.30" x2="507.5" y2="92.10" stroke="#ddd" stroke-dasharray="3,2"></line><line x1="588.3" y1="535.30" x2="588.3" y2="92.10" stroke="#ddd" stroke-dasharray="3,2"></line><line x1="669.1" y1="535.30" x2="669.1" y2="92.10" stroke="#ddd" stroke-dasharray="3,2"></line><line x1="749.9" y1="535.30" x2="749.9" y2="92.10" stroke="#ddd" stroke-dasharray="3,2"></line></g><g class="bar"><text x="260.155" y="98.43142857142857" fill="#666" dominant-baseline="middle" text-anchor="end" font-size="13.5">Cardiovascular diseases</text><rect x="265.2" y="92.1" width="513.8" height="12.662857142857144" fill="#3360a9" opacity="0.85"></rect><text x="784" y="98.43142857142857" fill="#666" dominant-baseline="middle" text-anchor="start" font-size="13.5">31.8%</text></g><g class="bar"><text x="260.155" y="114.25999999999999" fill="#666" dominant-baseline="middle" text-anchor="end" font-size="13.5">Cancers</text><rect x="265.2" y="107.92857142857142" width="275.90000000000003" height="12.662857142857144" fill="#ca2628" opacity="0.85"></rect><text x="546.1" y="114.25999999999999" fill="#666" dominant-baseline="middle" text-anchor="start" font-size="13.5">17.08%</text></g><g class="bar"><text x="260.155" y="130.0885714285714" fill="#666" dominant-baseline="middle" text-anchor="end" font-size="13.5">Respiratory diseases</text><rect x="265.2" y="123.75714285714284" width="113" height="12.662857142857144" fill="#34983f" opacity="0.85"></rect><text x="383.2" y="130.0885714285714" fill="#666" dominant-baseline="middle" text-anchor="start" font-size="13.5">7%</text></g><g class="bar"><text x="260.155" y="145.91714285714284" fill="#666" dominant-baseline="middle" text-anchor="end" font-size="13.5">Lower respiratory infections</text><rect x="265.2" y="139.58571428571426" width="73.80000000000001" height="12.662857142857144" fill="#f6a324" opacity="0.85"></rect><text x="344" y="145.91714285714284" fill="#666" dominant-baseline="middle" text-anchor="start" font-size="13.5">4.57%</text></g><g class="bar"><text x="260.155" y="161.74571428571426" fill="#666" dominant-baseline="middle" text-anchor="end" font-size="13.5">Dementia</text><rect x="265.2" y="155.41428571428568" width="72.60000000000002" height="12.662857142857144" fill="#a652ba" opacity="0.85"></rect><text x="342.8" y="161.74571428571426" fill="#666" dominant-baseline="middle" text-anchor="start" font-size="13.5">4.49%</text></g><g class="bar"><text x="260.155" y="177.57428571428568" fill="#666" dominant-baseline="middle" text-anchor="end" font-size="13.5">Digestive diseases</text><rect x="265.2" y="171.2428571428571" width="68.60000000000002" height="12.662857142857144" fill="#2a939b" opacity="0.85"></rect><text x="338.8" y="177.57428571428568" fill="#666" dominant-baseline="middle" text-anchor="start" font-size="13.5">4.25%</text></g><g class="bar"><text x="260.155" y="193.4028571428571" fill="#666" dominant-baseline="middle" text-anchor="end" font-size="13.5">Neonatal deaths</text><rect x="265.2" y="187.07142857142853" width="51.5" height="12.662857142857144" fill="#e6332e" opacity="0.85"></rect><text x="321.7" y="193.4028571428571" fill="#666" dominant-baseline="middle" text-anchor="start" font-size="13.5">3.19%</text></g><g class="bar"><text x="260.155" y="209.23142857142852" fill="#666" dominant-baseline="middle" text-anchor="end" font-size="13.5">Diarrheal diseases</text><rect x="265.2" y="202.89999999999995" width="45.30000000000001" height="12.662857142857144" fill="#9ecc8a" opacity="0.85"></rect><text x="315.5" y="209.23142857142852" fill="#666" dominant-baseline="middle" text-anchor="start" font-size="13.5">2.81%</text></g><g class="bar"><text x="260.155" y="225.05999999999995" fill="#666" dominant-baseline="middle" text-anchor="end" font-size="13.5">Liver disease</text><rect x="265.2" y="218.72857142857137" width="38.19999999999999" height="12.662857142857144" fill="#ffd53e" opacity="0.85"></rect><text x="308.4" y="225.05999999999995" fill="#666" dominant-baseline="middle" text-anchor="start" font-size="13.5">2.36%</text></g><g class="bar"><text x="260.155" y="240.88857142857137" fill="#666" dominant-baseline="middle" text-anchor="end" font-size="13.5">Road incidents</text><rect x="265.2" y="234.5571428571428" width="35.900000000000034" height="12.662857142857144" fill="#b077b1" opacity="0.85"></rect><text x="306.1" y="240.88857142857137" fill="#666" dominant-baseline="middle" text-anchor="start" font-size="13.5">2.22%</text></g><g class="bar"><text x="260.155" y="256.7171428571428" fill="#666" dominant-baseline="middle" text-anchor="end" font-size="13.5">Kidney disease</text><rect x="265.2" y="250.38571428571422" width="35.5" height="12.662857142857144" fill="#7ec7ce" opacity="0.85"></rect><text x="305.7" y="256.7171428571428" fill="#666" dominant-baseline="middle" text-anchor="start" font-size="13.5">2.2%</text></g><g class="bar"><text x="260.155" y="272.5457142857142" fill="#666" dominant-baseline="middle" text-anchor="end" font-size="13.5">Tuberculosis</text><rect x="265.2" y="266.21428571428567" width="34.10000000000002" height="12.662857142857144" fill="#e6332e" opacity="0.85"></rect><text x="304.3" y="272.5457142857142" fill="#666" dominant-baseline="middle" text-anchor="start" font-size="13.5">2.12%</text></g><g class="bar"><text x="260.155" y="288.37428571428563" fill="#666" dominant-baseline="middle" text-anchor="end" font-size="13.5">HIV/AIDS</text><rect x="265.2" y="282.0428571428571" width="27.5" height="12.662857142857144" fill="#6bb537" opacity="0.85"></rect><text x="297.7" y="288.37428571428563" fill="#666" dominant-baseline="middle" text-anchor="start" font-size="13.5">1.71%</text></g><g class="bar"><text x="260.155" y="304.20285714285706" fill="#666" dominant-baseline="middle" text-anchor="end" font-size="13.5">Suicide</text><rect x="265.2" y="297.8714285714285" width="22.900000000000034" height="12.662857142857144" fill="#f07f59" opacity="0.85"></rect><text x="293.1" y="304.20285714285706" fill="#666" dominant-baseline="middle" text-anchor="start" font-size="13.5">1.42%</text></g><g class="bar"><text x="260.155" y="320.0314285714285" fill="#666" dominant-baseline="middle" text-anchor="end" font-size="13.5">Malaria</text><rect x="265.2" y="313.69999999999993" width="17.900000000000034" height="12.662857142857144" fill="#ce8ebd" opacity="0.85"></rect><text x="288.1" y="320.0314285714285" fill="#666" dominant-baseline="middle" text-anchor="start" font-size="13.5">1.11%</text></g><g class="bar"><text x="260.155" y="335.8599999999999" fill="#666" dominant-baseline="middle" text-anchor="end" font-size="13.5">Homicide</text><rect x="265.2" y="329.52857142857135" width="11.699999999999989" height="12.662857142857144" fill="#5eb77e" opacity="0.85"></rect><text x="281.9" y="335.8599999999999" fill="#666" dominant-baseline="middle" text-anchor="start" font-size="13.5">0.72%</text></g><g class="bar"><text x="260.155" y="351.6885714285713" fill="#666" dominant-baseline="middle" text-anchor="end" font-size="13.5">Parkinson disease</text><rect x="265.2" y="345.3571428571428" width="9.800000000000011" height="12.662857142857144" fill="#818282" opacity="0.85"></rect><text x="280" y="351.6885714285713" fill="#666" dominant-baseline="middle" text-anchor="start" font-size="13.5">0.61%</text></g><g class="bar"><text x="260.155" y="367.51714285714274" fill="#666" dominant-baseline="middle" text-anchor="end" font-size="13.5">Drowning</text><rect x="265.2" y="361.1857142857142" width="8.5" height="12.662857142857144" fill="#fceb8c" opacity="0.85"></rect><text x="278.7" y="367.51714285714274" fill="#666" dominant-baseline="middle" text-anchor="start" font-size="13.5">0.53%</text></g><g class="bar"><text x="260.155" y="383.34571428571417" fill="#666" dominant-baseline="middle" text-anchor="end" font-size="13.5">Meningitis</text><rect x="265.2" y="377.0142857142856" width="8.300000000000011" height="12.662857142857144" fill="#9ecc8a" opacity="0.85"></rect><text x="278.5" y="383.34571428571417" fill="#666" dominant-baseline="middle" text-anchor="start" font-size="13.5">0.51%</text></g><g class="bar"><text x="260.155" y="399.1742857142856" fill="#666" dominant-baseline="middle" text-anchor="end" font-size="13.5">Nutritional deficiencies</text><rect x="265.2" y="392.84285714285704" width="7.800000000000011" height="12.662857142857144" fill="#cfcd1e" opacity="0.85"></rect><text x="278" y="399.1742857142856" fill="#666" dominant-baseline="middle" text-anchor="start" font-size="13.5">0.48%</text></g><g class="bar"><text x="260.155" y="415.002857142857" fill="#666" dominant-baseline="middle" text-anchor="end" font-size="13.5">Protein-energy malnutrition</text><rect x="265.2" y="408.67142857142846" width="6.600000000000023" height="12.662857142857144" fill="#58888f" opacity="0.85"></rect><text x="276.8" y="415.002857142857" fill="#666" dominant-baseline="middle" text-anchor="start" font-size="13.5">0.41%</text></g><g class="bar"><text x="260.155" y="430.83142857142843" fill="#666" dominant-baseline="middle" text-anchor="end" font-size="13.5">Maternal deaths</text><rect x="265.2" y="424.4999999999999" width="5.5" height="12.662857142857144" fill="#932834" opacity="0.85"></rect><text x="275.7" y="430.83142857142843" fill="#666" dominant-baseline="middle" text-anchor="start" font-size="13.5">0.35%</text></g><g class="bar"><text x="260.155" y="446.65999999999985" fill="#666" dominant-baseline="middle" text-anchor="end" font-size="13.5">Alcohol disorders</text><rect x="265.2" y="440.3285714285713" width="5.300000000000011" height="12.662857142857144" fill="#df3c64" opacity="0.85"></rect><text x="275.5" y="446.65999999999985" fill="#666" dominant-baseline="middle" text-anchor="start" font-size="13.5">0.33%</text></g><g class="bar"><text x="260.155" y="462.4885714285713" fill="#666" dominant-baseline="middle" text-anchor="end" font-size="13.5">Drug disorders</text><rect x="265.2" y="456.15714285714273" width="4.800000000000011" height="12.662857142857144" fill="#db2445" opacity="0.85"></rect><text x="275" y="462.4885714285713" fill="#666" dominant-baseline="middle" text-anchor="start" font-size="13.5">0.3%</text></g><g class="bar"><text x="260.155" y="478.3171428571427" fill="#666" dominant-baseline="middle" text-anchor="end" font-size="13.5">Hepatitis</text><rect x="265.2" y="471.98571428571415" width="3.6000000000000227" height="12.662857142857144" fill="#f9bc8f" opacity="0.85"></rect><text x="273.8" y="478.3171428571427" fill="#666" dominant-baseline="middle" text-anchor="start" font-size="13.5">0.23%</text></g><g class="bar"><text x="260.155" y="494.1457142857141" fill="#666" dominant-baseline="middle" text-anchor="end" font-size="13.5">Fire</text><rect x="265.2" y="487.8142857142856" width="3.400000000000034" height="12.662857142857144" fill="#d26e66" opacity="0.85"></rect><text x="273.6" y="494.1457142857141" fill="#666" dominant-baseline="middle" text-anchor="start" font-size="13.5">0.22%</text></g><g class="bar"><text x="260.155" y="509.97428571428554" fill="#666" dominant-baseline="middle" text-anchor="end" font-size="13.5">Heat-related (hot and cold exposure)</text><rect x="265.2" y="503.642857142857" width="1.5" height="12.662857142857144" fill="#c8c8c8" opacity="0.85"></rect><text x="271.7" y="509.97428571428554" fill="#666" dominant-baseline="middle" text-anchor="start" font-size="13.5">0.1%</text></g><g class="bar"><text x="260.155" y="525.802857142857" fill="#666" dominant-baseline="middle" text-anchor="end" font-size="13.5">Natural disasters</text><rect x="265.2" y="519.4714285714284" width="0.19999999999998863" height="12.662857142857144" fill="#ed6c2d" opacity="0.85"></rect><text x="270.4" y="525.802857142857" fill="#666" dominant-baseline="middle" text-anchor="start" font-size="13.5">0.02%</text></g></g><g style="fill: #777;" class="SourcesFooter"><g style="fill: #777;" class="clickable"><text font-size="12.60" x="15.0" y="581.6"><tspan x="15" y="581.58">Source: IHME, Global Burden of Disease</tspan></text></g><text font-size="12.60" x="775.4" y="581.6"><tspan x="775.402" y="581.58"><a style="fill: #777;" class="cclogo" href="http://creativecommons.org/licenses/by-sa/4.0/deed.en_US" target="_blank">CC BY-SA</a></tspan></text></g></g></svg>