<svg xmlns="http://www.w3.org/2000/svg" version="1.1" style="font-family: 'Helvetica Neue', Helvetica, Arial, sans-serif; font-size: 18px; background-color: white; text-rendering: optimizeLegibility; -webkit-font-smoothing: antialiased;" width="850" height="600"><g class="ChartTab"><g class="HeaderView"><g opacity="0.8" transform="translate(778, 15) scale(0.27)"><a xmlns:xlink="http://www.w3.org/1999/xlink" xlink:href="https://ourworldindata.org" target="_blank"><g><rect x="0" y="0" fill="#1B2543" width="211.2" height="130.1"/><rect x="0" y="112.2" fill="#E63912" width="211.2" height="17.9"/><g><rect x="1.2" y="12.3" fill="none" width="210.2" height="99.2"/><path fill="#FFFFFF" d="M37.8,32.2c0,12.7-7.7,19.4-17.1,19.4c-9.7,0-16.6-7.5-16.6-18.7c0-11.7,7.3-19.3,17.1-19.3 C31.3,13.7,37.8,21.3,37.8,32.2z M9.2,32.8c0,7.9,4.3,14.9,11.8,14.9c7.5,0,11.8-6.9,11.8-15.3c0-7.3-3.8-14.9-11.8-14.9 C13.1,17.5,9.2,24.8,9.2,32.8z"/><path fill="#FFFFFF" d="M62.7,43.8c0,2.7,0.1,5.1,0.2,7.2h-4.3l-0.3-4.3h-0.1c-1.3,2.1-4,4.9-8.8,4.9c-4.2,0-9.1-2.3-9.1-11.6 V24.6h4.8v14.6c0,5,1.5,8.4,5.9,8.4c3.2,0,5.5-2.2,6.3-4.4c0.3-0.7,0.4-1.6,0.4-2.5V24.6h4.8V43.8z"/><path fill="#FFFFFF" d="M67.3,32.8c0-3.1-0.1-5.8-0.2-8.2h4.2l0.2,5.2h0.2c1.2-3.5,4.1-5.8,7.3-5.8c0.5,0,0.9,0.1,1.4,0.2v4.5 c-0.5-0.1-1-0.2-1.6-0.2c-3.4,0-5.8,2.6-6.5,6.2c-0.1,0.7-0.2,1.4-0.2,2.2V51h-4.8V32.8z"/><path fill="#FFFFFF" d="M95.4,51l-9.4-36.8h5l4.4,18.6c1.1,4.6,2.1,9.2,2.7,12.7h0.1c0.6-3.7,1.8-8,3-12.8l4.9-18.5h5l4.5,18.7 c1,4.4,2,8.7,2.6,12.6h0.1c0.8-4,1.8-8.1,3-12.7l4.9-18.5h4.9L120.6,51h-5L111,31.9c-1.1-4.7-1.9-8.3-2.4-12h-0.1 c-0.7,3.7-1.5,7.3-2.8,12L100.4,51H95.4z"/><path fill="#FFFFFF" d="M154.9,37.6c0,9.8-6.8,14-13.2,14c-7.2,0-12.7-5.2-12.7-13.6c0-8.8,5.8-14,13.1-14 C149.8,24,154.9,29.5,154.9,37.6z M133.9,37.9c0,5.8,3.3,10.1,8,10.1c4.6,0,8-4.3,8-10.3c0-4.5-2.2-10.1-7.9-10.1 C136.3,27.6,133.9,32.8,133.9,37.9z"/><path fill="#FFFFFF" d="M158.2,32.8c0-3.1-0.1-5.8-0.2-8.2h4.2l0.2,5.2h0.2c1.2-3.5,4.1-5.8,7.3-5.8c0.5,0,0.9,0.1,1.4,0.2v4.5 c-0.5-0.1-1-0.2-1.6-0.2c-3.4,0-5.8,2.6-6.5,6.2c-0.1,0.7-0.2,1.4-0.2,2.2V51h-4.8V32.8z"/><path fill="#FFFFFF" d="M173.5,12.3h4.8V51h-4.8V12.3z"/><path fill="#FFFFFF" d="M206.5,12.3v31.9c0,2.3,0.1,5,0.2,6.8h-4.3l-0.2-4.6H202c-1.5,2.9-4.7,5.2-9,5.2 c-6.4,0-11.3-5.4-11.3-13.4c-0.1-8.8,5.4-14.2,11.9-14.2c4,0,6.8,1.9,8,4h0.1V12.3H206.5z M201.7,35.4c0-0.6-0.1-1.4-0.2-2 c-0.7-3.1-3.3-5.6-6.9-5.6c-5,0-7.9,4.4-7.9,10.2c0,5.3,2.6,9.8,7.8,9.8c3.2,0,6.2-2.1,7.1-5.7c0.2-0.7,0.2-1.3,0.2-2.1V35.4z"/><path fill="#FFFFFF" d="M42.8,64c0.1,1.6-1.1,2.9-3.1,2.9c-1.7,0-2.9-1.3-2.9-2.9c0-1.7,1.3-3,3-3C41.7,61,42.8,62.3,42.8,64z M37.4,97.8V71.4h4.8v26.4H37.4z"/><path fill="#FFFFFF" d="M47.5,78.6c0-2.7-0.1-5-0.2-7.1h4.3l0.3,4.4h0.1c1.3-2.5,4.4-5,8.8-5c3.7,0,9.4,2.2,9.4,11.2v15.8h-4.8 V82.6c0-4.3-1.6-7.8-6.1-7.8c-3.2,0-5.6,2.2-6.5,4.9c-0.2,0.6-0.3,1.4-0.3,2.2v15.9h-4.8V78.6z"/><path fill="#FFFFFF" d="M84,61.6c2.9-0.4,6.3-0.8,10.1-0.8c6.8,0,11.7,1.6,14.9,4.6c3.3,3,5.2,7.3,5.2,13.2c0,6-1.9,10.9-5.3,14.3 c-3.4,3.4-9.1,5.3-16.3,5.3c-3.4,0-6.2-0.2-8.6-0.4V61.6z M88.8,94.1c1.2,0.2,3,0.3,4.8,0.3c10.2,0,15.7-5.7,15.7-15.6 c0.1-8.7-4.9-14.2-14.9-14.2c-2.5,0-4.3,0.2-5.6,0.5V94.1z"/><path fill="#FFFFFF" d="M132.1,97.8l-0.4-3.3h-0.2c-1.5,2.1-4.3,3.9-8.1,3.9c-5.4,0-8.1-3.8-8.1-7.6c0-6.4,5.7-9.9,15.9-9.8v-0.5 c0-2.2-0.6-6.1-6-6.1c-2.5,0-5,0.8-6.9,2l-1.1-3.2c2.2-1.4,5.4-2.3,8.7-2.3c8.1,0,10.1,5.5,10.1,10.8v9.9c0,2.3,0.1,4.5,0.4,6.3 H132.1z M131.4,84.4c-5.3-0.1-11.2,0.8-11.2,5.9c0,3.1,2.1,4.6,4.5,4.6c3.4,0,5.6-2.2,6.4-4.4c0.2-0.5,0.3-1,0.3-1.5V84.4z"/><path fill="#FFFFFF" d="M146.6,63.9v7.6h6.9v3.7h-6.9v14.2c0,3.3,0.9,5.1,3.6,5.1c1.3,0,2.2-0.2,2.8-0.3l0.2,3.6 c-0.9,0.4-2.4,0.7-4.3,0.7c-2.2,0-4-0.7-5.2-2c-1.4-1.4-1.9-3.8-1.9-6.9V75.1h-4.1v-3.7h4.1v-6.3L146.6,63.9z"/><path fill="#FFFFFF" d="M171.4,97.8l-0.4-3.3h-0.2c-1.5,2.1-4.3,3.9-8.1,3.9c-5.4,0-8.1-3.8-8.1-7.6c0-6.4,5.7-9.9,15.9-9.8v-0.5 c0-2.2-0.6-6.1-6-6.1c-2.5,0-5,0.8-6.9,2l-1.1-3.2c2.2-1.4,5.4-2.3,8.7-2.3c8.1,0,10.1,5.5,10.1,10.8v9.9c0,2.3,0.1,4.5,0.4,6.3 H171.4z M170.7,84.4c-5.3-0.1-11.2,0.8-11.2,5.9c0,3.1,2.1,4.6,4.5,4.6c3.4,0,5.6-2.2,6.4-4.4c0.2-0.5,0.3-1,0.3-1.5V84.4z"/></g></g></a></g><a href="https://ourworldindata.org/grapher/share-of-total-energy-used-in-agriculture-and-forestry" target="_blank"><text font-size="25.20" x="15.0" y="35.2" fill="#555"><tspan x="15" y="35.160000000000004">Share of total energy used in agriculture and forestry</tspan></text></a><text font-size="14.40" x="15.0" y="53.7" fill="#666"><tspan x="15" y="53.72">The share of energy consumed within the agricultural and forestry sectors, measured as the percentage of total</tspan><tspan x="15" y="69.56">energy consumption across all sectors.</tspan></text></g><g class="LineChart"><defs><clipPath id="boundsClip-581"><rect x="51.634" y="0" width="830" height="928.8"></rect></clipPath></defs><g class="AxisBoxView"><g class="HorizontalAxis"><text x="61.6" y="556.5" fill="#666" text-anchor="middle" font-size="16.2">1971</text><text x="127.7" y="556.5" fill="#666" text-anchor="middle" font-size="16.2">1975</text><text x="210.3" y="556.5" fill="#666" text-anchor="middle" font-size="16.2">1980</text><text x="292.9" y="556.5" fill="#666" text-anchor="middle" font-size="16.2">1985</text><text x="375.5" y="556.5" fill="#666" text-anchor="middle" font-size="16.2">1990</text><text x="458.1" y="556.5" fill="#666" text-anchor="middle" font-size="16.2">1995</text><text x="540.6" y="556.5" fill="#666" text-anchor="middle" font-size="16.2">2000</text><text x="623.2" y="556.5" fill="#666" text-anchor="middle" font-size="16.2">2005</text><text x="689.3" y="556.5" fill="#666" text-anchor="middle" font-size="16.2">2009</text></g><g class="VerticalAxis"><text x="56.63" y="535.3" fill="#666" dominant-baseline="middle" text-anchor="end" font-size="16.2">0%</text><text x="56.63" y="446.7" fill="#666" dominant-baseline="middle" text-anchor="end" font-size="16.2">20%</text><text x="56.63" y="358" fill="#666" dominant-baseline="middle" text-anchor="end" font-size="16.2">40%</text><text x="56.63" y="269.4" fill="#666" dominant-baseline="middle" text-anchor="end" font-size="16.2">60%</text><text x="56.63" y="180.7" fill="#666" dominant-baseline="middle" text-anchor="end" font-size="16.2">80%</text><text x="56.63" y="92.1" fill="#666" dominant-baseline="middle" text-anchor="end" font-size="16.2">100%</text></g><g class="AxisGridLines"><line x1="61.63" y1="535.3" x2="689.30" y2="535.3" stroke="#ccc"></line><line x1="61.63" y1="446.7" x2="689.30" y2="446.7" stroke="#ddd" stroke-dasharray="3,2"></line><line x1="61.63" y1="358" x2="689.30" y2="358" stroke="#ddd" stroke-dasharray="3,2"></line><line x1="61.63" y1="269.4" x2="689.30" y2="269.4" stroke="#ddd" stroke-dasharray="3,2"></line><line x1="61.63" y1="180.7" x2="689.30" y2="180.7" stroke="#ddd" stroke-dasharray="3,2"></line><line x1="61.63" y1="92.1" x2="689.30" y2="92.1" stroke="#ddd" stroke-dasharray="3,2"></line></g></g><g clip-path="url(#boundsClip-581)"><g class="HeightedLegend clickable"><g class="legendMark"><g class="indicator"><line x1="694.3" y1="532.5" x2="716.8" y2="532.5" stroke="#666" stroke-width="0.5"></line><line x1="716.8" y1="532.5" x2="716.8" y2="528.55" stroke="#666" stroke-width="0.5"></line><line x1="716.8" y1="528.55" x2="719.3" y2="528.55" stroke="#666" stroke-width="0.5"></line></g><rect x="689.3" y="521.8" width="131.39" height="13.5" fill="#fff" opacity="0"></rect><text font-size="13.50" x="724.3" y="532.6" fill="#3360a9"><tspan x="724.3" y="532.5999999999999">United Kingdom</tspan></text></g><g class="legendMark"><g class="indicator"><line x1="694.3" y1="531" x2="711.8" y2="531" stroke="#666" stroke-width="0.5"></line><line x1="711.8" y1="531" x2="711.8" y2="513.05" stroke="#666" stroke-width="0.5"></line><line x1="711.8" y1="513.05" x2="719.3" y2="513.05" stroke="#666" stroke-width="0.5"></line></g><rect x="689.3" y="506.29999999999995" width="116.405" height="13.5" fill="#fff" opacity="0"></rect><text font-size="13.50" x="724.3" y="517.1" fill="#ca2628"><tspan x="724.3" y="517.0999999999999">United States</tspan></text></g><g class="legendMark"><g class="indicator"><line x1="694.3" y1="527.8" x2="706.8" y2="527.8" stroke="#666" stroke-width="0.5"></line><line x1="706.8" y1="527.8" x2="706.8" y2="497.54999999999995" stroke="#666" stroke-width="0.5"></line><line x1="706.8" y1="497.54999999999995" x2="719.3" y2="497.54999999999995" stroke="#666" stroke-width="0.5"></line></g><rect x="689.3" y="490.79999999999995" width="145.7" height="13.5" fill="#fff" opacity="0"></rect><text font-size="13.50" x="724.3" y="501.6" fill="#34983f"><tspan x="724.3" y="501.59999999999997">Americas + (Total)</tspan></text></g><g class="legendMark"><g class="indicator"><line x1="694.3" y1="526.1" x2="701.8" y2="526.1" stroke="#666" stroke-width="0.5"></line><line x1="701.8" y1="526.1" x2="701.8" y2="482.04999999999995" stroke="#666" stroke-width="0.5"></line><line x1="701.8" y1="482.04999999999995" x2="719.3" y2="482.04999999999995" stroke="#666" stroke-width="0.5"></line></g><rect x="689.3" y="475.29999999999995" width="124.64" height="13.5" fill="#fff" opacity="0"></rect><text font-size="13.50" x="724.3" y="486.1" fill="#f6a324"><tspan x="724.3" y="486.09999999999997">World + (Total)</tspan></text></g></g><g class="Lines"><rect x="62" y="92" width="628" height="443" fill="rgba(255,255,255,0)" opacity="0"></rect><g class="key-Americas-__002b-__0028Total__0029_0"><path stroke="#34983f" stroke-linecap="round" d="M62 528L78 528L95 528L111 528L128 528L144 528L161 528L177 528L194 528L210 528L227 528L243 528L260 528L276 528L293 527L309 527L326 528L342 528L359 528L376 528L392 528L409 527L425 528L442 528L458 528L475 528L491 528L508 528L524 528L541 528L557 528L574 528L590 529L607 528L623 528L640 528L656 528L673 528L689 528" fill="none" stroke-width="1.5"></path><g fill="#34983f"><circle cx="62" cy="528" r="2"></circle><circle cx="78" cy="528" r="2"></circle><circle cx="95" cy="528" r="2"></circle><circle cx="111" cy="528" r="2"></circle><circle cx="128" cy="528" r="2"></circle><circle cx="144" cy="528" r="2"></circle><circle cx="161" cy="528" r="2"></circle><circle cx="177" cy="528" r="2"></circle><circle cx="194" cy="528" r="2"></circle><circle cx="210" cy="528" r="2"></circle><circle cx="227" cy="528" r="2"></circle><circle cx="243" cy="528" r="2"></circle><circle cx="260" cy="528" r="2"></circle><circle cx="276" cy="528" r="2"></circle><circle cx="293" cy="527" r="2"></circle><circle cx="309" cy="527" r="2"></circle><circle cx="326" cy="528" r="2"></circle><circle cx="342" cy="528" r="2"></circle><circle cx="359" cy="528" r="2"></circle><circle cx="376" cy="528" r="2"></circle><circle cx="392" cy="528" r="2"></circle><circle cx="409" cy="527" r="2"></circle><circle cx="425" cy="528" r="2"></circle><circle cx="442" cy="528" r="2"></circle><circle cx="458" cy="528" r="2"></circle><circle cx="475" cy="528" r="2"></circle><circle cx="491" cy="528" r="2"></circle><circle cx="508" cy="528" r="2"></circle><circle cx="524" cy="528" r="2"></circle><circle cx="541" cy="528" r="2"></circle><circle cx="557" cy="528" r="2"></circle><circle cx="574" cy="528" r="2"></circle><circle cx="590" cy="529" r="2"></circle><circle cx="607" cy="528" r="2"></circle><circle cx="623" cy="528" r="2"></circle><circle cx="640" cy="528" r="2"></circle><circle cx="656" cy="528" r="2"></circle><circle cx="673" cy="528" r="2"></circle><circle cx="689" cy="528" r="2"></circle></g></g><g class="key-World-__002b-__0028Total__0029_0"><path stroke="#f6a324" stroke-linecap="round" d="M62 527L78 527L95 527L111 527L128 527L144 527L161 527L177 527L194 526L210 526L227 526L243 526L260 526L276 526L293 525L309 525L326 525L342 525L359 525L376 525L392 525L409 524L425 524L442 524L458 524L475 524L491 524L508 524L524 525L541 525L557 525L574 526L590 526L607 526L623 525L640 526L656 526L673 526L689 526" fill="none" stroke-width="1.5"></path><g fill="#f6a324"><circle cx="62" cy="527" r="2"></circle><circle cx="78" cy="527" r="2"></circle><circle cx="95" cy="527" r="2"></circle><circle cx="111" cy="527" r="2"></circle><circle cx="128" cy="527" r="2"></circle><circle cx="144" cy="527" r="2"></circle><circle cx="161" cy="527" r="2"></circle><circle cx="177" cy="527" r="2"></circle><circle cx="194" cy="526" r="2"></circle><circle cx="210" cy="526" r="2"></circle><circle cx="227" cy="526" r="2"></circle><circle cx="243" cy="526" r="2"></circle><circle cx="260" cy="526" r="2"></circle><circle cx="276" cy="526" r="2"></circle><circle cx="293" cy="525" r="2"></circle><circle cx="309" cy="525" r="2"></circle><circle cx="326" cy="525" r="2"></circle><circle cx="342" cy="525" r="2"></circle><circle cx="359" cy="525" r="2"></circle><circle cx="376" cy="525" r="2"></circle><circle cx="392" cy="525" r="2"></circle><circle cx="409" cy="524" r="2"></circle><circle cx="425" cy="524" r="2"></circle><circle cx="442" cy="524" r="2"></circle><circle cx="458" cy="524" r="2"></circle><circle cx="475" cy="524" r="2"></circle><circle cx="491" cy="524" r="2"></circle><circle cx="508" cy="524" r="2"></circle><circle cx="524" cy="525" r="2"></circle><circle cx="541" cy="525" r="2"></circle><circle cx="557" cy="525" r="2"></circle><circle cx="574" cy="526" r="2"></circle><circle cx="590" cy="526" r="2"></circle><circle cx="607" cy="526" r="2"></circle><circle cx="623" cy="525" r="2"></circle><circle cx="640" cy="526" r="2"></circle><circle cx="656" cy="526" r="2"></circle><circle cx="673" cy="526" r="2"></circle><circle cx="689" cy="526" r="2"></circle></g></g><g class="key-United-States_0"><path stroke="#ca2628" stroke-linecap="round" d="M62 529L78 530L95 530L111 530L128 530L144 530L161 531L177 531L194 530L210 531L227 531L243 531L260 531L276 531L293 529L309 530L326 530L342 530L359 530L376 530L392 530L409 530L425 530L442 530L458 530L475 530L491 530L508 531L524 531L541 531L557 531L574 531L590 531L607 531L623 531L640 530L656 531L673 531L689 531" fill="none" stroke-width="1.5"></path><g fill="#ca2628"><circle cx="62" cy="529" r="2"></circle><circle cx="78" cy="530" r="2"></circle><circle cx="95" cy="530" r="2"></circle><circle cx="111" cy="530" r="2"></circle><circle cx="128" cy="530" r="2"></circle><circle cx="144" cy="530" r="2"></circle><circle cx="161" cy="531" r="2"></circle><circle cx="177" cy="531" r="2"></circle><circle cx="194" cy="530" r="2"></circle><circle cx="210" cy="531" r="2"></circle><circle cx="227" cy="531" r="2"></circle><circle cx="243" cy="531" r="2"></circle><circle cx="260" cy="531" r="2"></circle><circle cx="276" cy="531" r="2"></circle><circle cx="293" cy="529" r="2"></circle><circle cx="309" cy="530" r="2"></circle><circle cx="326" cy="530" r="2"></circle><circle cx="342" cy="530" r="2"></circle><circle cx="359" cy="530" r="2"></circle><circle cx="376" cy="530" r="2"></circle><circle cx="392" cy="530" r="2"></circle><circle cx="409" cy="530" r="2"></circle><circle cx="425" cy="530" r="2"></circle><circle cx="442" cy="530" r="2"></circle><circle cx="458" cy="530" r="2"></circle><circle cx="475" cy="530" r="2"></circle><circle cx="491" cy="530" r="2"></circle><circle cx="508" cy="531" r="2"></circle><circle cx="524" cy="531" r="2"></circle><circle cx="541" cy="531" r="2"></circle><circle cx="557" cy="531" r="2"></circle><circle cx="574" cy="531" r="2"></circle><circle cx="590" cy="531" r="2"></circle><circle cx="607" cy="531" r="2"></circle><circle cx="623" cy="531" r="2"></circle><circle cx="640" cy="530" r="2"></circle><circle cx="656" cy="531" r="2"></circle><circle cx="673" cy="531" r="2"></circle><circle cx="689" cy="531" r="2"></circle></g></g><g class="key-United-Kingdom_0"><path stroke="#3360a9" stroke-linecap="round" d="M62 529L78 529L95 529L111 530L128 530L144 530L161 530L177 530L194 530L210 531L227 531L243 531L260 531L276 531L293 531L309 531L326 531L342 531L359 531L376 531L392 531L409 531L425 531L442 531L458 531L475 531L491 531L508 531L524 532L541 532L557 532L574 532L590 533L607 533L623 533L640 533L656 533L673 532L689 533" fill="none" stroke-width="1.5"></path><g fill="#3360a9"><circle cx="62" cy="529" r="2"></circle><circle cx="78" cy="529" r="2"></circle><circle cx="95" cy="529" r="2"></circle><circle cx="111" cy="530" r="2"></circle><circle cx="128" cy="530" r="2"></circle><circle cx="144" cy="530" r="2"></circle><circle cx="161" cy="530" r="2"></circle><circle cx="177" cy="530" r="2"></circle><circle cx="194" cy="530" r="2"></circle><circle cx="210" cy="531" r="2"></circle><circle cx="227" cy="531" r="2"></circle><circle cx="243" cy="531" r="2"></circle><circle cx="260" cy="531" r="2"></circle><circle cx="276" cy="531" r="2"></circle><circle cx="293" cy="531" r="2"></circle><circle cx="309" cy="531" r="2"></circle><circle cx="326" cy="531" r="2"></circle><circle cx="342" cy="531" r="2"></circle><circle cx="359" cy="531" r="2"></circle><circle cx="376" cy="531" r="2"></circle><circle cx="392" cy="531" r="2"></circle><circle cx="409" cy="531" r="2"></circle><circle cx="425" cy="531" r="2"></circle><circle cx="442" cy="531" r="2"></circle><circle cx="458" cy="531" r="2"></circle><circle cx="475" cy="531" r="2"></circle><circle cx="491" cy="531" r="2"></circle><circle cx="508" cy="531" r="2"></circle><circle cx="524" cy="532" r="2"></circle><circle cx="541" cy="532" r="2"></circle><circle cx="557" cy="532" r="2"></circle><circle cx="574" cy="532" r="2"></circle><circle cx="590" cy="533" r="2"></circle><circle cx="607" cy="533" r="2"></circle><circle cx="623" cy="533" r="2"></circle><circle cx="640" cy="533" r="2"></circle><circle cx="656" cy="533" r="2"></circle><circle cx="673" cy="532" r="2"></circle><circle cx="689" cy="533" r="2"></circle></g></g></g></g></g><g style="fill: #777;" class="SourcesFooter"><g style="fill: #777;" class="clickable"><text font-size="12.60" x="15.0" y="581.6"><tspan x="15" y="581.58">Source: UN Food and Agricultural Organization (FAO)</tspan></text></g><text font-size="12.60" x="617.3" y="581.6"><tspan x="617.2719999999999" y="581.58"><a target='_blank' style='fill: #777;' href='https://ourworldindata.org/feed/'>OurWorldInData.org/feed/</a> • <a style="fill: #777;" class="cclogo" href="http://creativecommons.org/licenses/by-sa/4.0/deed.en_US" target="_blank">CC BY-SA</a></tspan></text></g></g></svg>