<svg xmlns="http://www.w3.org/2000/svg" version="1.1" style="font-family: 'Helvetica Neue', Helvetica, Arial, sans-serif; font-size: 18px; background-color: white; text-rendering: optimizeLegibility; -webkit-font-smoothing: antialiased;" width="850" height="600"><g class="ChartTab"><g class="HeaderView"><g opacity="0.8" transform="translate(778, 15) scale(0.27)"><a xmlns:xlink="http://www.w3.org/1999/xlink" xlink:href="https://ourworldindata.org" target="_blank"><g><rect x="0" y="0" fill="#1B2543" width="211.2" height="130.1"/><rect x="0" y="112.2" fill="#E63912" width="211.2" height="17.9"/><g><rect x="1.2" y="12.3" fill="none" width="210.2" height="99.2"/><path fill="#FFFFFF" d="M37.8,32.2c0,12.7-7.7,19.4-17.1,19.4c-9.7,0-16.6-7.5-16.6-18.7c0-11.7,7.3-19.3,17.1-19.3 C31.3,13.7,37.8,21.3,37.8,32.2z M9.2,32.8c0,7.9,4.3,14.9,11.8,14.9c7.5,0,11.8-6.9,11.8-15.3c0-7.3-3.8-14.9-11.8-14.9 C13.1,17.5,9.2,24.8,9.2,32.8z"/><path fill="#FFFFFF" d="M62.7,43.8c0,2.7,0.1,5.1,0.2,7.2h-4.3l-0.3-4.3h-0.1c-1.3,2.1-4,4.9-8.8,4.9c-4.2,0-9.1-2.3-9.1-11.6 V24.6h4.8v14.6c0,5,1.5,8.4,5.9,8.4c3.2,0,5.5-2.2,6.3-4.4c0.3-0.7,0.4-1.6,0.4-2.5V24.6h4.8V43.8z"/><path fill="#FFFFFF" d="M67.3,32.8c0-3.1-0.1-5.8-0.2-8.2h4.2l0.2,5.2h0.2c1.2-3.5,4.1-5.8,7.3-5.8c0.5,0,0.9,0.1,1.4,0.2v4.5 c-0.5-0.1-1-0.2-1.6-0.2c-3.4,0-5.8,2.6-6.5,6.2c-0.1,0.7-0.2,1.4-0.2,2.2V51h-4.8V32.8z"/><path fill="#FFFFFF" d="M95.4,51l-9.4-36.8h5l4.4,18.6c1.1,4.6,2.1,9.2,2.7,12.7h0.1c0.6-3.7,1.8-8,3-12.8l4.9-18.5h5l4.5,18.7 c1,4.4,2,8.7,2.6,12.6h0.1c0.8-4,1.8-8.1,3-12.7l4.9-18.5h4.9L120.6,51h-5L111,31.9c-1.1-4.7-1.9-8.3-2.4-12h-0.1 c-0.7,3.7-1.5,7.3-2.8,12L100.4,51H95.4z"/><path fill="#FFFFFF" d="M154.9,37.6c0,9.8-6.8,14-13.2,14c-7.2,0-12.7-5.2-12.7-13.6c0-8.8,5.8-14,13.1-14 C149.8,24,154.9,29.5,154.9,37.6z M133.9,37.9c0,5.8,3.3,10.1,8,10.1c4.6,0,8-4.3,8-10.3c0-4.5-2.2-10.1-7.9-10.1 C136.3,27.6,133.9,32.8,133.9,37.9z"/><path fill="#FFFFFF" d="M158.2,32.8c0-3.1-0.1-5.8-0.2-8.2h4.2l0.2,5.2h0.2c1.2-3.5,4.1-5.8,7.3-5.8c0.5,0,0.9,0.1,1.4,0.2v4.5 c-0.5-0.1-1-0.2-1.6-0.2c-3.4,0-5.8,2.6-6.5,6.2c-0.1,0.7-0.2,1.4-0.2,2.2V51h-4.8V32.8z"/><path fill="#FFFFFF" d="M173.5,12.3h4.8V51h-4.8V12.3z"/><path fill="#FFFFFF" d="M206.5,12.3v31.9c0,2.3,0.1,5,0.2,6.8h-4.3l-0.2-4.6H202c-1.5,2.9-4.7,5.2-9,5.2 c-6.4,0-11.3-5.4-11.3-13.4c-0.1-8.8,5.4-14.2,11.9-14.2c4,0,6.8,1.9,8,4h0.1V12.3H206.5z M201.7,35.4c0-0.6-0.1-1.4-0.2-2 c-0.7-3.1-3.3-5.6-6.9-5.6c-5,0-7.9,4.4-7.9,10.2c0,5.3,2.6,9.8,7.8,9.8c3.2,0,6.2-2.1,7.1-5.7c0.2-0.7,0.2-1.3,0.2-2.1V35.4z"/><path fill="#FFFFFF" d="M42.8,64c0.1,1.6-1.1,2.9-3.1,2.9c-1.7,0-2.9-1.3-2.9-2.9c0-1.7,1.3-3,3-3C41.7,61,42.8,62.3,42.8,64z M37.4,97.8V71.4h4.8v26.4H37.4z"/><path fill="#FFFFFF" d="M47.5,78.6c0-2.7-0.1-5-0.2-7.1h4.3l0.3,4.4h0.1c1.3-2.5,4.4-5,8.8-5c3.7,0,9.4,2.2,9.4,11.2v15.8h-4.8 V82.6c0-4.3-1.6-7.8-6.1-7.8c-3.2,0-5.6,2.2-6.5,4.9c-0.2,0.6-0.3,1.4-0.3,2.2v15.9h-4.8V78.6z"/><path fill="#FFFFFF" d="M84,61.6c2.9-0.4,6.3-0.8,10.1-0.8c6.8,0,11.7,1.6,14.9,4.6c3.3,3,5.2,7.3,5.2,13.2c0,6-1.9,10.9-5.3,14.3 c-3.4,3.4-9.1,5.3-16.3,5.3c-3.4,0-6.2-0.2-8.6-0.4V61.6z M88.8,94.1c1.2,0.2,3,0.3,4.8,0.3c10.2,0,15.7-5.7,15.7-15.6 c0.1-8.7-4.9-14.2-14.9-14.2c-2.5,0-4.3,0.2-5.6,0.5V94.1z"/><path fill="#FFFFFF" d="M132.1,97.8l-0.4-3.3h-0.2c-1.5,2.1-4.3,3.9-8.1,3.9c-5.4,0-8.1-3.8-8.1-7.6c0-6.4,5.7-9.9,15.9-9.8v-0.5 c0-2.2-0.6-6.1-6-6.1c-2.5,0-5,0.8-6.9,2l-1.1-3.2c2.2-1.4,5.4-2.3,8.7-2.3c8.1,0,10.1,5.5,10.1,10.8v9.9c0,2.3,0.1,4.5,0.4,6.3 H132.1z M131.4,84.4c-5.3-0.1-11.2,0.8-11.2,5.9c0,3.1,2.1,4.6,4.5,4.6c3.4,0,5.6-2.2,6.4-4.4c0.2-0.5,0.3-1,0.3-1.5V84.4z"/><path fill="#FFFFFF" d="M146.6,63.9v7.6h6.9v3.7h-6.9v14.2c0,3.3,0.9,5.1,3.6,5.1c1.3,0,2.2-0.2,2.8-0.3l0.2,3.6 c-0.9,0.4-2.4,0.7-4.3,0.7c-2.2,0-4-0.7-5.2-2c-1.4-1.4-1.9-3.8-1.9-6.9V75.1h-4.1v-3.7h4.1v-6.3L146.6,63.9z"/><path fill="#FFFFFF" d="M171.4,97.8l-0.4-3.3h-0.2c-1.5,2.1-4.3,3.9-8.1,3.9c-5.4,0-8.1-3.8-8.1-7.6c0-6.4,5.7-9.9,15.9-9.8v-0.5 c0-2.2-0.6-6.1-6-6.1c-2.5,0-5,0.8-6.9,2l-1.1-3.2c2.2-1.4,5.4-2.3,8.7-2.3c8.1,0,10.1,5.5,10.1,10.8v9.9c0,2.3,0.1,4.5,0.4,6.3 H171.4z M170.7,84.4c-5.3-0.1-11.2,0.8-11.2,5.9c0,3.1,2.1,4.6,4.5,4.6c3.4,0,5.6-2.2,6.4-4.4c0.2-0.5,0.3-1,0.3-1.5V84.4z"/></g></g></a></g><a href="https://ourworldindata.org/grapher/share-of-population-with-cancer-types" target="_blank"><text font-size="25.20" x="15.0" y="35.2" fill="#555"><tspan x="15" y="35.160000000000004">Share of population with cancer types, World</tspan></text></a><text font-size="14.40" x="15.0" y="53.7" fill="#666"><tspan x="15" y="53.72">Share of total population with different types of cancer over time, measured as the age-standardized percentage. This</tspan><tspan x="15" y="69.56">share has been age-standardized assuming a constant age structure to compare prevalence between countries and</tspan><tspan x="15" y="85.4">through time.</tspan></text></g><g class="LineChart"><defs><clipPath id="boundsClip-531"><rect x="56.17" y="0" width="830" height="897.8"></rect></clipPath></defs><g class="AxisBoxView"><g class="HorizontalAxis"><text x="66.2" y="556.5" fill="#666" text-anchor="middle" font-size="16.2">1990</text><text x="163.8" y="556.5" fill="#666" text-anchor="middle" font-size="16.2">1995</text><text x="261.5" y="556.5" fill="#666" text-anchor="middle" font-size="16.2">2000</text><text x="359.2" y="556.5" fill="#666" text-anchor="middle" font-size="16.2">2005</text><text x="456.8" y="556.5" fill="#666" text-anchor="middle" font-size="16.2">2010</text><text x="593.6" y="556.5" fill="#666" text-anchor="middle" font-size="16.2">2017</text></g><g class="VerticalAxis"><text x="61.17" y="535.3" fill="#666" dominant-baseline="middle" text-anchor="end" font-size="16.2">0%</text><text x="61.17" y="435.1" fill="#666" dominant-baseline="middle" text-anchor="end" font-size="16.2">0.05%</text><text x="61.17" y="334.9" fill="#666" dominant-baseline="middle" text-anchor="end" font-size="16.2">0.1%</text><text x="61.17" y="234.7" fill="#666" dominant-baseline="middle" text-anchor="end" font-size="16.2">0.15%</text><text x="61.17" y="134.5" fill="#666" dominant-baseline="middle" text-anchor="end" font-size="16.2">0.2%</text></g><g class="AxisGridLines"><line x1="66.17" y1="535.3" x2="593.59" y2="535.3" stroke="#ccc"></line><line x1="66.17" y1="435.1" x2="593.59" y2="435.1" stroke="#ddd" stroke-dasharray="3,2"></line><line x1="66.17" y1="334.9" x2="593.59" y2="334.9" stroke="#ddd" stroke-dasharray="3,2"></line><line x1="66.17" y1="234.7" x2="593.59" y2="234.7" stroke="#ddd" stroke-dasharray="3,2"></line><line x1="66.17" y1="134.5" x2="593.59" y2="134.5" stroke="#ddd" stroke-dasharray="3,2"></line></g></g><g clip-path="url(#boundsClip-531)"><g class="HeightedLegend clickable"><g class="legendMark"><g class="indicator"><line x1="598.585" y1="529" x2="621.085" y2="529" stroke="#666" stroke-width="0.5"></line><line x1="621.085" y1="529" x2="621.085" y2="528.55" stroke="#666" stroke-width="0.5"></line><line x1="621.085" y1="528.55" x2="623.585" y2="528.55" stroke="#666" stroke-width="0.5"></line></g><rect x="593.585" y="521.8" width="230.615" height="13.5" fill="#fff" opacity="0"></rect><text font-size="13.50" x="628.6" y="532.6" fill="#3360a9"><tspan x="628.585" y="532.5999999999999">Gallbladder &amp; biliary tract cancer</tspan></text></g><g class="legendMark"><g class="indicator"><line x1="598.585" y1="525.3" x2="620.085" y2="525.3" stroke="#666" stroke-width="0.5"></line><line x1="620.085" y1="525.3" x2="620.085" y2="513.05" stroke="#666" stroke-width="0.5"></line><line x1="620.085" y1="513.05" x2="623.585" y2="513.05" stroke="#666" stroke-width="0.5"></line></g><rect x="593.585" y="506.29999999999995" width="143.405" height="13.5" fill="#fff" opacity="0"></rect><text font-size="13.50" x="628.6" y="517.1" fill="#ca2628"><tspan x="628.585" y="517.0999999999999">Pancreatic cancer</tspan></text></g><g class="legendMark"><g class="indicator"><line x1="598.585" y1="522.3" x2="619.085" y2="522.3" stroke="#666" stroke-width="0.5"></line><line x1="619.085" y1="522.3" x2="619.085" y2="497.54999999999995" stroke="#666" stroke-width="0.5"></line><line x1="619.085" y1="497.54999999999995" x2="623.585" y2="497.54999999999995" stroke="#666" stroke-width="0.5"></line></g><rect x="593.585" y="490.79999999999995" width="159.2" height="13.5" fill="#fff" opacity="0"></rect><text font-size="13.50" x="628.6" y="501.6" fill="#34983f"><tspan x="628.585" y="501.59999999999997">Nasopharynx cancer</tspan></text></g><g class="legendMark"><g class="indicator"><line x1="598.585" y1="520.1" x2="618.085" y2="520.1" stroke="#666" stroke-width="0.5"></line><line x1="618.085" y1="520.1" x2="618.085" y2="482.04999999999995" stroke="#666" stroke-width="0.5"></line><line x1="618.085" y1="482.04999999999995" x2="623.585" y2="482.04999999999995" stroke="#666" stroke-width="0.5"></line></g><rect x="593.585" y="475.29999999999995" width="138.005" height="13.5" fill="#fff" opacity="0"></rect><text font-size="13.50" x="628.6" y="486.1" fill="#f6a324"><tspan x="628.585" y="486.09999999999997">Testicular cancer</tspan></text></g><g class="legendMark"><g class="indicator"><line x1="598.585" y1="514.9" x2="617.085" y2="514.9" stroke="#666" stroke-width="0.5"></line><line x1="617.085" y1="514.9" x2="617.085" y2="466.54999999999995" stroke="#666" stroke-width="0.5"></line><line x1="617.085" y1="466.54999999999995" x2="623.585" y2="466.54999999999995" stroke="#666" stroke-width="0.5"></line></g><rect x="593.585" y="459.79999999999995" width="108.71000000000001" height="13.5" fill="#fff" opacity="0"></rect><text font-size="13.50" x="628.6" y="470.6" fill="#a652ba"><tspan x="628.585" y="470.59999999999997">Liver cancer</tspan></text></g><g class="legendMark"><g class="indicator"><line x1="598.585" y1="514.6" x2="616.085" y2="514.6" stroke="#666" stroke-width="0.5"></line><line x1="616.085" y1="514.6" x2="616.085" y2="451.04999999999995" stroke="#666" stroke-width="0.5"></line><line x1="616.085" y1="451.04999999999995" x2="623.585" y2="451.04999999999995" stroke="#666" stroke-width="0.5"></line></g><rect x="593.585" y="444.29999999999995" width="151.10000000000002" height="13.5" fill="#fff" opacity="0"></rect><text font-size="13.50" x="628.6" y="455.1" fill="#2a939b"><tspan x="628.585" y="455.09999999999997">Esophageal cancer</tspan></text></g><g class="legendMark"><g class="indicator"><line x1="598.585" y1="507.4" x2="615.085" y2="507.4" stroke="#666" stroke-width="0.5"></line><line x1="615.085" y1="507.4" x2="615.085" y2="435.54999999999995" stroke="#666" stroke-width="0.5"></line><line x1="615.085" y1="435.54999999999995" x2="623.585" y2="435.54999999999995" stroke="#666" stroke-width="0.5"></line></g><rect x="593.585" y="428.79999999999995" width="120.05000000000001" height="13.5" fill="#fff" opacity="0"></rect><text font-size="13.50" x="628.6" y="439.6" fill="#e6332e"><tspan x="628.585" y="439.59999999999997">Larynx cancer</tspan></text></g><g class="legendMark"><g class="indicator"><line x1="598.585" y1="500.6" x2="614.085" y2="500.6" stroke="#666" stroke-width="0.5"></line><line x1="614.085" y1="500.6" x2="614.085" y2="420.04999999999995" stroke="#666" stroke-width="0.5"></line><line x1="614.085" y1="420.04999999999995" x2="623.585" y2="420.04999999999995" stroke="#666" stroke-width="0.5"></line></g><rect x="593.585" y="413.29999999999995" width="126.80000000000001" height="13.5" fill="#fff" opacity="0"></rect><text font-size="13.50" x="628.6" y="424.1" fill="#9ecc8a"><tspan x="628.585" y="424.09999999999997">Ovarian cancer</tspan></text></g><g class="legendMark"><g class="indicator"><line x1="598.585" y1="493.3" x2="613.085" y2="493.3" stroke="#666" stroke-width="0.5"></line><line x1="613.085" y1="493.3" x2="613.085" y2="404.54999999999995" stroke="#666" stroke-width="0.5"></line><line x1="613.085" y1="404.54999999999995" x2="623.585" y2="404.54999999999995" stroke="#666" stroke-width="0.5"></line></g><rect x="593.585" y="397.79999999999995" width="136.655" height="13.5" fill="#fff" opacity="0"></rect><text font-size="13.50" x="628.6" y="408.6" fill="#ffd53e"><tspan x="628.585" y="408.59999999999997">Lip &amp; oral cancer</tspan></text></g><g class="legendMark"><g class="indicator"><line x1="598.585" y1="489.4" x2="612.085" y2="489.4" stroke="#666" stroke-width="0.5"></line><line x1="612.085" y1="489.4" x2="612.085" y2="389.04999999999995" stroke="#666" stroke-width="0.5"></line><line x1="612.085" y1="389.04999999999995" x2="623.585" y2="389.04999999999995" stroke="#666" stroke-width="0.5"></line></g><rect x="593.585" y="382.29999999999995" width="222.38000000000002" height="13.5" fill="#fff" opacity="0"></rect><text font-size="13.50" x="628.6" y="393.1" fill="#b077b1"><tspan x="628.585" y="393.09999999999997">Brain &amp; nervous system cancer</tspan></text></g><g class="legendMark"><g class="indicator"><line x1="598.585" y1="480.3" x2="611.085" y2="480.3" stroke="#666" stroke-width="0.5"></line><line x1="611.085" y1="480.3" x2="611.085" y2="373.54999999999995" stroke="#666" stroke-width="0.5"></line><line x1="611.085" y1="373.54999999999995" x2="623.585" y2="373.54999999999995" stroke="#666" stroke-width="0.5"></line></g><rect x="593.585" y="366.79999999999995" width="124.50500000000001" height="13.5" fill="#fff" opacity="0"></rect><text font-size="13.50" x="628.6" y="377.6" fill="#7ec7ce"><tspan x="628.585" y="377.59999999999997">Thyroid cancer</tspan></text></g><g class="legendMark"><g class="indicator"><line x1="598.585" y1="478.5" x2="610.085" y2="478.5" stroke="#666" stroke-width="0.5"></line><line x1="610.085" y1="478.5" x2="610.085" y2="358.04999999999995" stroke="#666" stroke-width="0.5"></line><line x1="610.085" y1="358.04999999999995" x2="623.585" y2="358.04999999999995" stroke="#666" stroke-width="0.5"></line></g><rect x="593.585" y="351.29999999999995" width="120.86" height="13.5" fill="#fff" opacity="0"></rect><text font-size="13.50" x="628.6" y="362.1" fill="#e6332e"><tspan x="628.585" y="362.09999999999997">Kidney cancer</tspan></text></g><g class="legendMark"><g class="indicator"><line x1="598.585" y1="467.2" x2="609.085" y2="467.2" stroke="#666" stroke-width="0.5"></line><line x1="609.085" y1="467.2" x2="609.085" y2="342.54999999999995" stroke="#666" stroke-width="0.5"></line><line x1="609.085" y1="342.54999999999995" x2="623.585" y2="342.54999999999995" stroke="#666" stroke-width="0.5"></line></g><rect x="593.585" y="335.79999999999995" width="199.70000000000002" height="13.5" fill="#fff" opacity="0"></rect><text font-size="13.50" x="628.6" y="346.6" fill="#6bb537"><tspan x="628.585" y="346.59999999999997">Non-melanoma skin cancer</tspan></text></g><g class="legendMark"><g class="indicator"><line x1="598.585" y1="466.7" x2="608.085" y2="466.7" stroke="#666" stroke-width="0.5"></line><line x1="608.085" y1="466.7" x2="608.085" y2="327.04999999999995" stroke="#666" stroke-width="0.5"></line><line x1="608.085" y1="327.04999999999995" x2="623.585" y2="327.04999999999995" stroke="#666" stroke-width="0.5"></line></g><rect x="593.585" y="320.29999999999995" width="126.125" height="13.5" fill="#fff" opacity="0"></rect><text font-size="13.50" x="628.6" y="331.1" fill="#f07f59"><tspan x="628.585" y="331.09999999999997">Bladder cancer</tspan></text></g><g class="legendMark"><g class="indicator"><line x1="598.585" y1="462.2" x2="607.085" y2="462.2" stroke="#666" stroke-width="0.5"></line><line x1="607.085" y1="462.2" x2="607.085" y2="311.54999999999995" stroke="#666" stroke-width="0.5"></line><line x1="607.085" y1="311.54999999999995" x2="623.585" y2="311.54999999999995" stroke="#666" stroke-width="0.5"></line></g><rect x="593.585" y="304.79999999999995" width="132.875" height="13.5" fill="#fff" opacity="0"></rect><text font-size="13.50" x="628.6" y="315.6" fill="#ce8ebd"><tspan x="628.585" y="315.59999999999997">Stomach cancer</tspan></text></g><g class="legendMark"><g class="indicator"><line x1="598.585" y1="456.8" x2="606.085" y2="456.8" stroke="#666" stroke-width="0.5"></line><line x1="606.085" y1="456.8" x2="606.085" y2="296.04999999999995" stroke="#666" stroke-width="0.5"></line><line x1="606.085" y1="296.04999999999995" x2="623.585" y2="296.04999999999995" stroke="#666" stroke-width="0.5"></line></g><rect x="593.585" y="289.29999999999995" width="123.02000000000001" height="13.5" fill="#fff" opacity="0"></rect><text font-size="13.50" x="628.6" y="300.1" fill="#5eb77e"><tspan x="628.585" y="300.09999999999997">Uterine cancer</tspan></text></g><g class="legendMark"><g class="indicator"><line x1="598.585" y1="448.8" x2="605.085" y2="448.8" stroke="#666" stroke-width="0.5"></line><line x1="605.085" y1="448.8" x2="605.085" y2="280.54999999999995" stroke="#666" stroke-width="0.5"></line><line x1="605.085" y1="280.54999999999995" x2="623.585" y2="280.54999999999995" stroke="#666" stroke-width="0.5"></line></g><rect x="593.585" y="273.79999999999995" width="241.41500000000002" height="13.5" fill="#fff" opacity="0"></rect><text font-size="13.50" x="628.6" y="284.6" fill="#818282"><tspan x="628.585" y="284.59999999999997">Tracheal, bronchus, &amp; lung cancer</tspan></text></g><g class="legendMark"><g class="indicator"><line x1="598.585" y1="441.7" x2="604.085" y2="441.7" stroke="#666" stroke-width="0.5"></line><line x1="604.085" y1="441.7" x2="604.085" y2="265.04999999999995" stroke="#666" stroke-width="0.5"></line><line x1="604.085" y1="265.04999999999995" x2="623.585" y2="265.04999999999995" stroke="#666" stroke-width="0.5"></line></g><rect x="593.585" y="258.29999999999995" width="128.15" height="13.5" fill="#fff" opacity="0"></rect><text font-size="13.50" x="628.6" y="269.1" fill="#fceb8c"><tspan x="628.585" y="269.09999999999997">Cervical cancer</tspan></text></g><g class="legendMark"><g class="indicator"><line x1="598.585" y1="292" x2="603.085" y2="292" stroke="#666" stroke-width="0.5"></line><line x1="603.085" y1="292" x2="603.085" y2="249.54999999999995" stroke="#666" stroke-width="0.5"></line><line x1="603.085" y1="249.54999999999995" x2="623.585" y2="249.54999999999995" stroke="#666" stroke-width="0.5"></line></g><rect x="593.585" y="242.79999999999995" width="186.335" height="13.5" fill="#fff" opacity="0"></rect><text font-size="13.50" x="628.6" y="253.6" fill="#9ecc8a"><tspan x="628.585" y="253.59999999999997">Colon and rectum cancer</tspan></text></g><g class="legendMark"><g class="indicator"><line x1="598.585" y1="276.8" x2="602.085" y2="276.8" stroke="#666" stroke-width="0.5"></line><line x1="602.085" y1="276.8" x2="602.085" y2="234.04999999999995" stroke="#666" stroke-width="0.5"></line><line x1="602.085" y1="234.04999999999995" x2="623.585" y2="234.04999999999995" stroke="#666" stroke-width="0.5"></line></g><rect x="593.585" y="227.29999999999995" width="129.905" height="13.5" fill="#fff" opacity="0"></rect><text font-size="13.50" x="628.6" y="238.1" fill="#cfcd1e"><tspan x="628.585" y="238.09999999999997">Prostate cancer</tspan></text></g><g class="legendMark"><g class="indicator"><line x1="598.585" y1="107.6" x2="611.085" y2="107.6" stroke="#666" stroke-width="0.5"></line><line x1="611.085" y1="107.6" x2="611.085" y2="107.6" stroke="#666" stroke-width="0.5"></line><line x1="611.085" y1="107.6" x2="623.585" y2="107.6" stroke="#666" stroke-width="0.5"></line></g><rect x="593.585" y="100.85" width="118.56500000000001" height="13.5" fill="#fff" opacity="0"></rect><text font-size="13.50" x="628.6" y="111.6" fill="#58888f"><tspan x="628.585" y="111.64999999999999">Breast cancer</tspan></text></g></g><g class="Lines"><rect x="66" y="108" width="527" height="428" fill="rgba(255,255,255,0)" opacity="0"></rect><g class="key-World_0"><path stroke="#a652ba" stroke-linecap="round" d="M66 524L86 524L105 523L125 523L144 523L164 523L183 522L203 522L222 522L242 522L262 522L281 521L301 521L320 521L340 521L359 521L379 521L398 521L418 521L437 521L457 520L476 520L496 520L515 519L535 518L555 517L574 516L594 515" fill="none" stroke-width="1.5"></path></g><g class="key-World_1"><path stroke="#e6332e" stroke-linecap="round" d="M66 482L86 482L105 481L125 480L144 479L164 479L183 480L203 480L222 480L242 479L262 479L281 479L301 478L320 478L340 478L359 477L379 477L398 478L418 477L437 477L457 477L476 477L496 478L515 478L535 478L555 478L574 478L594 479" fill="none" stroke-width="1.5"></path></g><g class="key-World_10"><path stroke="#fceb8c" stroke-linecap="round" d="M66 428L86 429L105 429L125 429L144 429L164 430L183 431L203 431L222 432L242 433L262 434L281 435L301 436L320 437L340 439L359 439L379 441L398 442L418 442L437 442L457 442L476 443L496 443L515 443L535 442L555 441L574 441L594 442" fill="none" stroke-width="1.5"></path></g><g class="key-World_11"><path stroke="#f6a324" stroke-linecap="round" d="M66 524L86 524L105 523L125 523L144 523L164 523L183 523L203 523L222 523L242 522L262 522L281 522L301 522L320 522L340 522L359 522L379 522L398 522L418 521L437 521L457 521L476 521L496 521L515 521L535 521L555 520L574 520L594 520" fill="none" stroke-width="1.5"></path></g><g class="key-World_12"><path stroke="#ca2628" stroke-linecap="round" d="M66 527L86 527L105 527L125 527L144 527L164 527L183 527L203 527L222 527L242 527L262 527L281 527L301 526L320 526L340 526L359 526L379 526L398 526L418 526L437 526L457 525L476 525L496 525L515 525L535 525L555 525L574 525L594 525" fill="none" stroke-width="1.5"></path></g><g class="key-World_13"><path stroke="#2a939b" stroke-linecap="round" d="M66 513L86 513L105 513L125 513L144 512L164 512L183 512L203 512L222 512L242 512L262 512L281 512L301 512L320 511L340 512L359 512L379 513L398 514L418 514L437 514L457 514L476 515L496 515L515 515L535 515L555 514L574 514L594 515" fill="none" stroke-width="1.5"></path></g><g class="key-World_14"><path stroke="#34983f" stroke-linecap="round" d="M66 518L86 518L105 518L125 518L144 518L164 518L183 519L203 519L222 519L242 519L262 519L281 520L301 521L320 521L340 522L359 522L379 522L398 522L418 522L437 522L457 522L476 522L496 522L515 522L535 522L555 522L574 522L594 522" fill="none" stroke-width="1.5"></path></g><g class="key-World_15"><path stroke="#9ecc8a" stroke-linecap="round" d="M66 349L86 344L105 340L125 336L144 333L164 331L183 330L203 328L222 327L242 325L262 324L281 323L301 321L320 319L340 317L359 315L379 314L398 312L418 309L437 306L457 304L476 303L496 301L515 299L535 297L555 295L574 293L594 292" fill="none" stroke-width="1.5"></path></g><g class="key-World_16"><path stroke="#6bb537" stroke-linecap="round" d="M66 495L86 494L105 493L125 491L144 491L164 490L183 489L203 489L222 489L242 489L262 488L281 485L301 479L320 473L340 468L359 466L379 466L398 466L418 466L437 465L457 465L476 466L496 466L515 466L535 466L555 467L574 467L594 467" fill="none" stroke-width="1.5"></path></g><g class="key-World_17"><path stroke="#ffd53e" stroke-linecap="round" d="M66 499L86 498L105 498L125 498L144 498L164 498L183 498L203 498L222 498L242 498L262 498L281 499L301 498L320 498L340 499L359 498L379 498L398 498L418 497L437 496L457 496L476 496L496 495L515 495L535 495L555 494L574 494L594 493" fill="none" stroke-width="1.5"></path></g><g class="key-World_18"><path stroke="#b077b1" stroke-linecap="round" d="M66 510L86 509L105 509L125 508L144 508L164 507L183 507L203 506L222 506L242 506L262 505L281 505L301 505L320 504L340 504L359 503L379 502L398 501L418 500L437 499L457 497L476 496L496 495L515 494L535 492L555 490L574 490L594 489" fill="none" stroke-width="1.5"></path></g><g class="key-World_19"><path stroke="#818282" stroke-linecap="round" d="M66 472L86 472L105 470L125 469L144 468L164 467L183 467L203 467L222 467L242 466L262 466L281 466L301 465L320 464L340 463L359 463L379 463L398 462L418 460L437 458L457 457L476 456L496 455L515 454L535 452L555 450L574 448L594 449" fill="none" stroke-width="1.5"></path></g><g class="key-World_2"><path stroke="#e6332e" stroke-linecap="round" d="M66 505L86 505L105 505L125 505L144 505L164 505L183 505L203 505L222 506L242 506L262 507L281 507L301 508L320 508L340 508L359 508L379 509L398 509L418 509L437 509L457 509L476 509L496 508L515 508L535 508L555 508L574 508L594 507" fill="none" stroke-width="1.5"></path></g><g class="key-World_20"><path stroke="#3360a9" stroke-linecap="round" d="M66 529L86 529L105 529L125 529L144 529L164 529L183 529L203 530L222 530L242 530L262 530L281 530L301 530L320 530L340 530L359 530L379 530L398 530L418 530L437 529L457 529L476 529L496 529L515 529L535 529L555 529L574 529L594 529" fill="none" stroke-width="1.5"></path></g><g class="key-World_3"><path stroke="#58888f" stroke-linecap="round" d="M66 176L86 169L105 162L125 156L144 151L164 148L183 147L203 145L222 144L242 143L262 142L281 141L301 139L320 137L340 135L359 133L379 132L398 129L418 126L437 123L457 121L476 120L496 118L515 116L535 114L555 112L574 109L594 108" fill="none" stroke-width="1.5"></path></g><g class="key-World_4"><path stroke="#7ec7ce" stroke-linecap="round" d="M66 501L86 500L105 499L125 498L144 497L164 496L183 496L203 496L222 495L242 494L262 493L281 493L301 492L320 491L340 490L359 489L379 488L398 487L418 485L437 484L457 483L476 482L496 482L515 482L535 481L555 481L574 480L594 480" fill="none" stroke-width="1.5"></path></g><g class="key-World_5"><path stroke="#f07f59" stroke-linecap="round" d="M66 469L86 468L105 468L125 467L144 467L164 467L183 467L203 467L222 467L242 467L262 468L281 468L301 468L320 468L340 468L359 468L379 468L398 468L418 468L437 468L457 468L476 468L496 468L515 468L535 467L555 467L574 467L594 467" fill="none" stroke-width="1.5"></path></g><g class="key-World_6"><path stroke="#5eb77e" stroke-linecap="round" d="M66 472L86 471L105 471L125 469L144 468L164 468L183 468L203 467L222 467L242 466L262 466L281 465L301 465L320 464L340 464L359 463L379 463L398 462L418 460L437 459L457 458L476 457L496 457L515 456L535 456L555 456L574 456L594 457" fill="none" stroke-width="1.5"></path></g><g class="key-World_7"><path stroke="#9ecc8a" stroke-linecap="round" d="M66 503L86 503L105 503L125 502L144 502L164 502L183 502L203 502L222 502L242 502L262 502L281 501L301 501L320 501L340 502L359 502L379 502L398 502L418 502L437 502L457 502L476 502L496 502L515 502L535 501L555 501L574 501L594 501" fill="none" stroke-width="1.5"></path></g><g class="key-World_8"><path stroke="#ce8ebd" stroke-linecap="round" d="M66 459L86 460L105 460L125 460L144 461L164 462L183 464L203 465L222 465L242 466L262 467L281 467L301 467L320 467L340 467L359 468L379 470L398 470L418 470L437 469L457 468L476 468L496 468L515 467L535 465L555 463L574 462L594 462" fill="none" stroke-width="1.5"></path></g><g class="key-World_9"><path stroke="#cfcd1e" stroke-linecap="round" d="M66 367L86 359L105 352L125 345L144 340L164 336L183 333L203 330L222 327L242 324L262 321L281 318L301 314L320 309L340 305L359 302L379 300L398 297L418 294L437 292L457 290L476 288L496 287L515 285L535 283L555 280L574 279L594 277" fill="none" stroke-width="1.5"></path></g></g></g></g><g style="fill: #777;" class="SourcesFooter"><g style="fill: #777;" class="clickable"><text font-size="12.60" x="15.0" y="581.6"><tspan x="15" y="581.58">Source: IHME, Global Burden of Disease</tspan></text></g><text font-size="12.60" x="775.4" y="581.6"><tspan x="775.402" y="581.58"><a style="fill: #777;" class="cclogo" href="http://creativecommons.org/licenses/by-sa/4.0/deed.en_US" target="_blank">CC BY-SA</a></tspan></text></g></g></svg>