<svg xmlns="http://www.w3.org/2000/svg" version="1.1" style="font-family: 'Helvetica Neue', Helvetica, Arial, sans-serif; font-size: 18px; background-color: white; text-rendering: optimizeLegibility; -webkit-font-smoothing: antialiased;" width="850" height="600"><g class="ChartTab"><g class="HeaderView"><g opacity="0.8" transform="translate(778, 15) scale(0.27)"><a xmlns:xlink="http://www.w3.org/1999/xlink" xlink:href="https://ourworldindata.org" target="_blank"><g><rect x="0" y="0" fill="#1B2543" width="211.2" height="130.1"/><rect x="0" y="112.2" fill="#E63912" width="211.2" height="17.9"/><g><rect x="1.2" y="12.3" fill="none" width="210.2" height="99.2"/><path fill="#FFFFFF" d="M37.8,32.2c0,12.7-7.7,19.4-17.1,19.4c-9.7,0-16.6-7.5-16.6-18.7c0-11.7,7.3-19.3,17.1-19.3 C31.3,13.7,37.8,21.3,37.8,32.2z M9.2,32.8c0,7.9,4.3,14.9,11.8,14.9c7.5,0,11.8-6.9,11.8-15.3c0-7.3-3.8-14.9-11.8-14.9 C13.1,17.5,9.2,24.8,9.2,32.8z"/><path fill="#FFFFFF" d="M62.7,43.8c0,2.7,0.1,5.1,0.2,7.2h-4.3l-0.3-4.3h-0.1c-1.3,2.1-4,4.9-8.8,4.9c-4.2,0-9.1-2.3-9.1-11.6 V24.6h4.8v14.6c0,5,1.5,8.4,5.9,8.4c3.2,0,5.5-2.2,6.3-4.4c0.3-0.7,0.4-1.6,0.4-2.5V24.6h4.8V43.8z"/><path fill="#FFFFFF" d="M67.3,32.8c0-3.1-0.1-5.8-0.2-8.2h4.2l0.2,5.2h0.2c1.2-3.5,4.1-5.8,7.3-5.8c0.5,0,0.9,0.1,1.4,0.2v4.5 c-0.5-0.1-1-0.2-1.6-0.2c-3.4,0-5.8,2.6-6.5,6.2c-0.1,0.7-0.2,1.4-0.2,2.2V51h-4.8V32.8z"/><path fill="#FFFFFF" d="M95.4,51l-9.4-36.8h5l4.4,18.6c1.1,4.6,2.1,9.2,2.7,12.7h0.1c0.6-3.7,1.8-8,3-12.8l4.9-18.5h5l4.5,18.7 c1,4.4,2,8.7,2.6,12.6h0.1c0.8-4,1.8-8.1,3-12.7l4.9-18.5h4.9L120.6,51h-5L111,31.9c-1.1-4.7-1.9-8.3-2.4-12h-0.1 c-0.7,3.7-1.5,7.3-2.8,12L100.4,51H95.4z"/><path fill="#FFFFFF" d="M154.9,37.6c0,9.8-6.8,14-13.2,14c-7.2,0-12.7-5.2-12.7-13.6c0-8.8,5.8-14,13.1-14 C149.8,24,154.9,29.5,154.9,37.6z M133.9,37.9c0,5.8,3.3,10.1,8,10.1c4.6,0,8-4.3,8-10.3c0-4.5-2.2-10.1-7.9-10.1 C136.3,27.6,133.9,32.8,133.9,37.9z"/><path fill="#FFFFFF" d="M158.2,32.8c0-3.1-0.1-5.8-0.2-8.2h4.2l0.2,5.2h0.2c1.2-3.5,4.1-5.8,7.3-5.8c0.5,0,0.9,0.1,1.4,0.2v4.5 c-0.5-0.1-1-0.2-1.6-0.2c-3.4,0-5.8,2.6-6.5,6.2c-0.1,0.7-0.2,1.4-0.2,2.2V51h-4.8V32.8z"/><path fill="#FFFFFF" d="M173.5,12.3h4.8V51h-4.8V12.3z"/><path fill="#FFFFFF" d="M206.5,12.3v31.9c0,2.3,0.1,5,0.2,6.8h-4.3l-0.2-4.6H202c-1.5,2.9-4.7,5.2-9,5.2 c-6.4,0-11.3-5.4-11.3-13.4c-0.1-8.8,5.4-14.2,11.9-14.2c4,0,6.8,1.9,8,4h0.1V12.3H206.5z M201.7,35.4c0-0.6-0.1-1.4-0.2-2 c-0.7-3.1-3.3-5.6-6.9-5.6c-5,0-7.9,4.4-7.9,10.2c0,5.3,2.6,9.8,7.8,9.8c3.2,0,6.2-2.1,7.1-5.7c0.2-0.7,0.2-1.3,0.2-2.1V35.4z"/><path fill="#FFFFFF" d="M42.8,64c0.1,1.6-1.1,2.9-3.1,2.9c-1.7,0-2.9-1.3-2.9-2.9c0-1.7,1.3-3,3-3C41.7,61,42.8,62.3,42.8,64z M37.4,97.8V71.4h4.8v26.4H37.4z"/><path fill="#FFFFFF" d="M47.5,78.6c0-2.7-0.1-5-0.2-7.1h4.3l0.3,4.4h0.1c1.3-2.5,4.4-5,8.8-5c3.7,0,9.4,2.2,9.4,11.2v15.8h-4.8 V82.6c0-4.3-1.6-7.8-6.1-7.8c-3.2,0-5.6,2.2-6.5,4.9c-0.2,0.6-0.3,1.4-0.3,2.2v15.9h-4.8V78.6z"/><path fill="#FFFFFF" d="M84,61.6c2.9-0.4,6.3-0.8,10.1-0.8c6.8,0,11.7,1.6,14.9,4.6c3.3,3,5.2,7.3,5.2,13.2c0,6-1.9,10.9-5.3,14.3 c-3.4,3.4-9.1,5.3-16.3,5.3c-3.4,0-6.2-0.2-8.6-0.4V61.6z M88.8,94.1c1.2,0.2,3,0.3,4.8,0.3c10.2,0,15.7-5.7,15.7-15.6 c0.1-8.7-4.9-14.2-14.9-14.2c-2.5,0-4.3,0.2-5.6,0.5V94.1z"/><path fill="#FFFFFF" d="M132.1,97.8l-0.4-3.3h-0.2c-1.5,2.1-4.3,3.9-8.1,3.9c-5.4,0-8.1-3.8-8.1-7.6c0-6.4,5.7-9.9,15.9-9.8v-0.5 c0-2.2-0.6-6.1-6-6.1c-2.5,0-5,0.8-6.9,2l-1.1-3.2c2.2-1.4,5.4-2.3,8.7-2.3c8.1,0,10.1,5.5,10.1,10.8v9.9c0,2.3,0.1,4.5,0.4,6.3 H132.1z M131.4,84.4c-5.3-0.1-11.2,0.8-11.2,5.9c0,3.1,2.1,4.6,4.5,4.6c3.4,0,5.6-2.2,6.4-4.4c0.2-0.5,0.3-1,0.3-1.5V84.4z"/><path fill="#FFFFFF" d="M146.6,63.9v7.6h6.9v3.7h-6.9v14.2c0,3.3,0.9,5.1,3.6,5.1c1.3,0,2.2-0.2,2.8-0.3l0.2,3.6 c-0.9,0.4-2.4,0.7-4.3,0.7c-2.2,0-4-0.7-5.2-2c-1.4-1.4-1.9-3.8-1.9-6.9V75.1h-4.1v-3.7h4.1v-6.3L146.6,63.9z"/><path fill="#FFFFFF" d="M171.4,97.8l-0.4-3.3h-0.2c-1.5,2.1-4.3,3.9-8.1,3.9c-5.4,0-8.1-3.8-8.1-7.6c0-6.4,5.7-9.9,15.9-9.8v-0.5 c0-2.2-0.6-6.1-6-6.1c-2.5,0-5,0.8-6.9,2l-1.1-3.2c2.2-1.4,5.4-2.3,8.7-2.3c8.1,0,10.1,5.5,10.1,10.8v9.9c0,2.3,0.1,4.5,0.4,6.3 H171.4z M170.7,84.4c-5.3-0.1-11.2,0.8-11.2,5.9c0,3.1,2.1,4.6,4.5,4.6c3.4,0,5.6-2.2,6.4-4.4c0.2-0.5,0.3-1,0.3-1.5V84.4z"/></g></g></a></g><a href="https://ourworldindata.org/grapher/solar-energy-consumption-by-region" target="_blank"><text font-size="25.20" x="15.0" y="35.2" fill="#555"><tspan x="15" y="35.160000000000004">Solar PV energy consumption by region, terawatt-hours</tspan></text></a><text font-size="14.40" x="15.0" y="53.7" fill="#666"><tspan x="15" y="53.72">Solar photovoltaic (PV) energy consumption by region, measured in terawatt-hours (TWh) per year. </tspan></text></g><g class="StackedArea"><defs><clipPath id="boundsClip-627"><rect x="85.934" y="0" width="820" height="959.8"></rect></clipPath></defs><g class="AxisBoxView"><g class="HorizontalAxis"><text x="85.9" y="556.5" fill="#666" text-anchor="middle" font-size="16.2">1980</text><text x="170.4" y="556.5" fill="#666" text-anchor="middle" font-size="16.2">1985</text><text x="254.8" y="556.5" fill="#666" text-anchor="middle" font-size="16.2">1990</text><text x="339.2" y="556.5" fill="#666" text-anchor="middle" font-size="16.2">1995</text><text x="423.6" y="556.5" fill="#666" text-anchor="middle" font-size="16.2">2000</text><text x="508" y="556.5" fill="#666" text-anchor="middle" font-size="16.2">2005</text><text x="592.5" y="556.5" fill="#666" text-anchor="middle" font-size="16.2">2010</text><text x="693.8" y="556.5" fill="#666" text-anchor="middle" font-size="16.2">2016</text></g><g class="VerticalAxis"><text x="80.93" y="535.3" fill="#666" dominant-baseline="middle" text-anchor="end" font-size="16.2">0 TWh</text><text x="80.93" y="466.4" fill="#666" dominant-baseline="middle" text-anchor="end" font-size="16.2">50 TWh</text><text x="80.93" y="397.6" fill="#666" dominant-baseline="middle" text-anchor="end" font-size="16.2">100 TWh</text><text x="80.93" y="328.7" fill="#666" dominant-baseline="middle" text-anchor="end" font-size="16.2">150 TWh</text><text x="80.93" y="259.8" fill="#666" dominant-baseline="middle" text-anchor="end" font-size="16.2">200 TWh</text><text x="80.93" y="191" fill="#666" dominant-baseline="middle" text-anchor="end" font-size="16.2">250 TWh</text><text x="80.93" y="122.1" fill="#666" dominant-baseline="middle" text-anchor="end" font-size="16.2">300 TWh</text></g><g class="AxisGridLines"><line x1="85.93" y1="535.3" x2="693.75" y2="535.3" stroke="#ccc"></line><line x1="85.93" y1="466.4" x2="693.75" y2="466.4" stroke="#ddd" stroke-dasharray="3,2"></line><line x1="85.93" y1="397.6" x2="693.75" y2="397.6" stroke="#ddd" stroke-dasharray="3,2"></line><line x1="85.93" y1="328.7" x2="693.75" y2="328.7" stroke="#ddd" stroke-dasharray="3,2"></line><line x1="85.93" y1="259.8" x2="693.75" y2="259.8" stroke="#ddd" stroke-dasharray="3,2"></line><line x1="85.93" y1="191" x2="693.75" y2="191" stroke="#ddd" stroke-dasharray="3,2"></line><line x1="85.93" y1="122.1" x2="693.75" y2="122.1" stroke="#ddd" stroke-dasharray="3,2"></line></g></g><g clip-path="url(#boundsClip-627)"><g class="HeightedLegend clickable"><g class="legendMark"><g class="indicator"><line x1="698.755" y1="78.3" x2="717.9216666666666" y2="78.3" stroke="#666" stroke-width="0.5"></line><line x1="717.9216666666666" y1="78.3" x2="717.9216666666666" y2="78.3" stroke="#666" stroke-width="0.5"></line><line x1="717.9216666666666" y1="78.3" x2="723.755" y2="78.3" stroke="#666" stroke-width="0.5"></line></g><rect x="693.755" y="71.55" width="105.74000000000001" height="13.5" fill="#fff" opacity="0"></rect><text font-size="13.50" x="728.8" y="82.3" fill="#e6332e"><tspan x="728.755" y="82.35">Middle East</tspan></text></g><g class="legendMark"><g class="indicator"><line x1="698.755" y1="83.2" x2="711.255" y2="83.2" stroke="#666" stroke-width="0.5"></line><line x1="711.255" y1="83.2" x2="711.255" y2="93.8" stroke="#666" stroke-width="0.5"></line><line x1="711.255" y1="93.8" x2="723.755" y2="93.8" stroke="#666" stroke-width="0.5"></line></g><rect x="693.755" y="87.05" width="69.56" height="13.5" fill="#fff" opacity="0"></rect><text font-size="13.50" x="728.8" y="97.8" fill="#3360a9"><tspan x="728.755" y="97.85">Africa</tspan></text></g><g class="legendMark"><g class="indicator"><line x1="698.755" y1="90" x2="704.5883333333334" y2="90" stroke="#666" stroke-width="0.5"></line><line x1="704.5883333333334" y1="90" x2="704.5883333333334" y2="116.6" stroke="#666" stroke-width="0.5"></line><line x1="704.5883333333334" y1="116.6" x2="723.755" y2="116.6" stroke="#666" stroke-width="0.5"></line></g><rect x="693.755" y="102.55" width="130.715" height="28.1" fill="#fff" opacity="0"></rect><text font-size="13.50" x="728.8" y="113.3" fill="#5eb77e"><tspan x="728.755" y="113.35">South &amp; Central</tspan><tspan x="728.755" y="128.2">America</tspan></text></g><g class="legendMark"><g class="indicator"><line x1="698.755" y1="194.1" x2="711.255" y2="194.1" stroke="#666" stroke-width="0.5"></line><line x1="711.255" y1="194.1" x2="711.255" y2="194.1" stroke="#666" stroke-width="0.5"></line><line x1="711.255" y1="194.1" x2="723.755" y2="194.1" stroke="#666" stroke-width="0.5"></line></g><rect x="693.755" y="187.35" width="104.93" height="13.5" fill="#fff" opacity="0"></rect><text font-size="13.50" x="728.8" y="198.2" fill="#ca2628"><tspan x="728.755" y="198.15">Asia Pacific</tspan></text></g><g class="legendMark"><g class="indicator"><line x1="698.755" y1="373.5" x2="711.255" y2="373.5" stroke="#666" stroke-width="0.5"></line><line x1="711.255" y1="373.5" x2="711.255" y2="373.5" stroke="#666" stroke-width="0.5"></line><line x1="711.255" y1="373.5" x2="723.755" y2="373.5" stroke="#666" stroke-width="0.5"></line></g><rect x="693.755" y="366.75" width="141.245" height="13.5" fill="#fff" opacity="0"></rect><text font-size="13.50" x="728.8" y="377.6" fill="#ffd53e"><tspan x="728.755" y="377.55">Europe &amp; Eurasia</tspan></text></g><g class="legendMark"><g class="indicator"><line x1="698.755" y1="493.8" x2="711.255" y2="493.8" stroke="#666" stroke-width="0.5"></line><line x1="711.255" y1="493.8" x2="711.255" y2="493.8" stroke="#666" stroke-width="0.5"></line><line x1="711.255" y1="493.8" x2="723.755" y2="493.8" stroke="#666" stroke-width="0.5"></line></g><rect x="693.755" y="487.05" width="121.4" height="13.5" fill="#fff" opacity="0"></rect><text font-size="13.50" x="728.8" y="497.9" fill="#34983f"><tspan x="728.755" y="497.85">North America</tspan></text></g></g><g class="Areas"><rect x="85.934" y="76.6" width="607.821" height="458.69999999999993" opacity="0" fill="rgba(255,255,255,0)"></rect><path stroke-linecap="round" d="M85.9 535.3L102.8 535.3L119.7 535.3L136.6 535.3L153.5 535.3L170.4 535.3L187.2 535.3L204.1 535.3L221 535.3L237.9 535L254.8 534.8L271.7 534.6L288.5 534.7L305.4 534.6L322.3 534.6L339.2 534.6L356.1 534.5L373 534.5L389.8 534.6L406.7 534.6L423.6 534.6L440.5 534.5L457.4 534.4L474.3 534.4L491.1 534.3L508 534.2L524.9 534.1L541.8 533.7L558.7 533L575.6 532.3L592.5 530.8L609.3 528L626.2 521.6L643.1 511.4L660 492.2L676.9 477.1L693.8 452.3L693.755 535.3L85.934 535.3" fill="#34983f" fill-opacity="0.7" class="North-America_0-area"></path><path stroke-linecap="round" d="M85.9 535.3L102.8 535.3L119.7 535.3L136.6 535.3L153.5 535.3L170.4 535.3L187.2 535.3L204.1 535.3L221 535.3L237.9 534.9L254.8 534.8L271.7 534.6L288.5 534.7L305.4 534.6L322.3 534.5L339.2 534.5L356.1 534.5L373 534.5L389.8 534.4L406.7 534.4L423.6 534.4L440.5 534.2L457.4 534.1L474.3 533.8L491.1 533.3L508 532.1L524.9 530.6L541.8 528.5L558.7 522.7L575.6 512.8L592.5 498.8L609.3 463.7L626.2 422.6L643.1 392.3L660 356L676.9 325.4L693.8 294.6L693.8 452.3L676.9 477.1L660 492.2L643.1 511.4L626.2 521.6L609.3 528L592.5 530.8L575.6 532.3L558.7 533L541.8 533.7L524.9 534.1L508 534.2L491.1 534.3L474.3 534.4L457.4 534.4L440.5 534.5L423.6 534.6L406.7 534.6L389.8 534.6L373 534.5L356.1 534.5L339.2 534.6L322.3 534.6L305.4 534.6L288.5 534.7L271.7 534.6L254.8 534.8L237.9 535L221 535.3L204.1 535.3L187.2 535.3L170.4 535.3L153.5 535.3L136.6 535.3L119.7 535.3L102.8 535.3L85.9 535.3" fill="#ffd53e" fill-opacity="0.7" class="Europe-__0026-Eurasia_0-area"></path><path stroke-linecap="round" d="M85.9 535.3L102.8 535.3L119.7 535.3L136.6 535.3L153.5 535.3L170.4 535.3L187.2 535.3L204.1 535.3L221 535.3L237.9 534.9L254.8 534.8L271.7 534.6L288.5 534.7L305.4 534.5L322.3 534.5L339.2 534.4L356.1 534.3L373 534.3L389.8 534.2L406.7 534L423.6 533.8L440.5 533.4L457.4 532.9L474.3 532.3L491.1 531.3L508 529.6L524.9 527.5L541.8 524.8L558.7 518.2L575.6 506.8L592.5 489.4L609.3 447.4L626.2 399.5L643.1 348.9L660 271L676.9 193.9L693.8 93.6L693.8 294.6L676.9 325.4L660 356L643.1 392.3L626.2 422.6L609.3 463.7L592.5 498.8L575.6 512.8L558.7 522.7L541.8 528.5L524.9 530.6L508 532.1L491.1 533.3L474.3 533.8L457.4 534.1L440.5 534.2L423.6 534.4L406.7 534.4L389.8 534.4L373 534.5L356.1 534.5L339.2 534.5L322.3 534.5L305.4 534.6L288.5 534.7L271.7 534.6L254.8 534.8L237.9 534.9L221 535.3L204.1 535.3L187.2 535.3L170.4 535.3L153.5 535.3L136.6 535.3L119.7 535.3L102.8 535.3L85.9 535.3" fill="#ca2628" fill-opacity="0.7" class="Asia-Pacific_0-area"></path><path stroke-linecap="round" d="M85.9 535.3L102.8 535.3L119.7 535.3L136.6 535.3L153.5 535.3L170.4 535.3L187.2 535.3L204.1 535.3L221 535.3L237.9 534.9L254.8 534.8L271.7 534.6L288.5 534.7L305.4 534.5L322.3 534.5L339.2 534.4L356.1 534.3L373 534.3L389.8 534.1L406.7 534L423.6 533.7L440.5 533.3L457.4 532.8L474.3 532.2L491.1 531.2L508 529.5L524.9 527.4L541.8 524.7L558.7 518.1L575.6 506.7L592.5 489.2L609.3 447L626.2 398.8L643.1 347.9L660 269.1L676.9 189.6L693.8 86.5L693.8 93.6L676.9 193.9L660 271L643.1 348.9L626.2 399.5L609.3 447.4L592.5 489.4L575.6 506.8L558.7 518.2L541.8 524.8L524.9 527.5L508 529.6L491.1 531.3L474.3 532.3L457.4 532.9L440.5 533.4L423.6 533.8L406.7 534L389.8 534.2L373 534.3L356.1 534.3L339.2 534.4L322.3 534.5L305.4 534.5L288.5 534.7L271.7 534.6L254.8 534.8L237.9 534.9L221 535.3L204.1 535.3L187.2 535.3L170.4 535.3L153.5 535.3L136.6 535.3L119.7 535.3L102.8 535.3L85.9 535.3" fill="#5eb77e" fill-opacity="0.7" class="South-__0026-Central-America_0-area"></path><path stroke-linecap="round" d="M85.9 535.3L102.8 535.3L119.7 535.3L136.6 535.3L153.5 535.3L170.4 535.3L187.2 535.3L204.1 535.3L221 535.3L237.9 534.9L254.8 534.8L271.7 534.6L288.5 534.7L305.4 534.5L322.3 534.5L339.2 534.4L356.1 534.3L373 534.3L389.8 534.1L406.7 534L423.6 533.7L440.5 533.3L457.4 532.8L474.3 532.1L491.1 531.2L508 529.5L524.9 527.3L541.8 524.7L558.7 518L575.6 506.5L592.5 488.9L609.3 446.5L626.2 398.1L643.1 346.8L660 266.6L676.9 184.8L693.8 80L693.8 86.5L676.9 189.6L660 269.1L643.1 347.9L626.2 398.8L609.3 447L592.5 489.2L575.6 506.7L558.7 518.1L541.8 524.7L524.9 527.4L508 529.5L491.1 531.2L474.3 532.2L457.4 532.8L440.5 533.3L423.6 533.7L406.7 534L389.8 534.1L373 534.3L356.1 534.3L339.2 534.4L322.3 534.5L305.4 534.5L288.5 534.7L271.7 534.6L254.8 534.8L237.9 534.9L221 535.3L204.1 535.3L187.2 535.3L170.4 535.3L153.5 535.3L136.6 535.3L119.7 535.3L102.8 535.3L85.9 535.3" fill="#3360a9" fill-opacity="0.7" class="Africa_0-area"></path><path stroke-linecap="round" d="M85.9 535.3L102.8 535.3L119.7 535.3L136.6 535.3L153.5 535.3L170.4 535.3L187.2 535.3L204.1 535.3L221 535.3L237.9 534.9L254.8 534.8L271.7 534.6L288.5 534.7L305.4 534.5L322.3 534.5L339.2 534.4L356.1 534.3L373 534.3L389.8 534.1L406.7 534L423.6 533.7L440.5 533.3L457.4 532.8L474.3 532.1L491.1 531.2L508 529.5L524.9 527.3L541.8 524.7L558.7 518L575.6 506.5L592.5 488.7L609.3 446.2L626.2 397.5L643.1 345.8L660 264.9L676.9 182.5L693.8 76.6L693.8 80L676.9 184.8L660 266.6L643.1 346.8L626.2 398.1L609.3 446.5L592.5 488.9L575.6 506.5L558.7 518L541.8 524.7L524.9 527.3L508 529.5L491.1 531.2L474.3 532.1L457.4 532.8L440.5 533.3L423.6 533.7L406.7 534L389.8 534.1L373 534.3L356.1 534.3L339.2 534.4L322.3 534.5L305.4 534.5L288.5 534.7L271.7 534.6L254.8 534.8L237.9 534.9L221 535.3L204.1 535.3L187.2 535.3L170.4 535.3L153.5 535.3L136.6 535.3L119.7 535.3L102.8 535.3L85.9 535.3" fill="#e6332e" fill-opacity="0.7" class="Middle-East_0-area"></path><path stroke-linecap="round" d="M85.9 535.3L102.8 535.3L119.7 535.3L136.6 535.3L153.5 535.3L170.4 535.3L187.2 535.3L204.1 535.3L221 535.3L237.9 535L254.8 534.8L271.7 534.6L288.5 534.7L305.4 534.6L322.3 534.6L339.2 534.6L356.1 534.5L373 534.5L389.8 534.6L406.7 534.6L423.6 534.6L440.5 534.5L457.4 534.4L474.3 534.4L491.1 534.3L508 534.2L524.9 534.1L541.8 533.7L558.7 533L575.6 532.3L592.5 530.8L609.3 528L626.2 521.6L643.1 511.4L660 492.2L676.9 477.1L693.8 452.3" stroke="rgb(44, 127, 53)" stroke-opacity="0.7" stroke-width="0.5" fill="none" class="North-America_0-border"></path><path stroke-linecap="round" d="M85.9 535.3L102.8 535.3L119.7 535.3L136.6 535.3L153.5 535.3L170.4 535.3L187.2 535.3L204.1 535.3L221 535.3L237.9 534.9L254.8 534.8L271.7 534.6L288.5 534.7L305.4 534.6L322.3 534.5L339.2 534.5L356.1 534.5L373 534.5L389.8 534.4L406.7 534.4L423.6 534.4L440.5 534.2L457.4 534.1L474.3 533.8L491.1 533.3L508 532.1L524.9 530.6L541.8 528.5L558.7 522.7L575.6 512.8L592.5 498.8L609.3 463.7L626.2 422.6L643.1 392.3L660 356L676.9 325.4L693.8 294.6" stroke="rgb(213, 178, 52)" stroke-opacity="0.7" stroke-width="0.5" fill="none" class="Europe-__0026-Eurasia_0-border"></path><path stroke-linecap="round" d="M85.9 535.3L102.8 535.3L119.7 535.3L136.6 535.3L153.5 535.3L170.4 535.3L187.2 535.3L204.1 535.3L221 535.3L237.9 534.9L254.8 534.8L271.7 534.6L288.5 534.7L305.4 534.5L322.3 534.5L339.2 534.4L356.1 534.3L373 534.3L389.8 534.2L406.7 534L423.6 533.8L440.5 533.4L457.4 532.9L474.3 532.3L491.1 531.3L508 529.6L524.9 527.5L541.8 524.8L558.7 518.2L575.6 506.8L592.5 489.4L609.3 447.4L626.2 399.5L643.1 348.9L660 271L676.9 193.9L693.8 93.6" stroke="rgb(169, 32, 33)" stroke-opacity="0.7" stroke-width="0.5" fill="none" class="Asia-Pacific_0-border"></path><path stroke-linecap="round" d="M85.9 535.3L102.8 535.3L119.7 535.3L136.6 535.3L153.5 535.3L170.4 535.3L187.2 535.3L204.1 535.3L221 535.3L237.9 534.9L254.8 534.8L271.7 534.6L288.5 534.7L305.4 534.5L322.3 534.5L339.2 534.4L356.1 534.3L373 534.3L389.8 534.1L406.7 534L423.6 533.7L440.5 533.3L457.4 532.8L474.3 532.2L491.1 531.2L508 529.5L524.9 527.4L541.8 524.7L558.7 518.1L575.6 506.7L592.5 489.2L609.3 447L626.2 398.8L643.1 347.9L660 269.1L676.9 189.6L693.8 86.5" stroke="rgb(79, 153, 105)" stroke-opacity="0.7" stroke-width="0.5" fill="none" class="South-__0026-Central-America_0-border"></path><path stroke-linecap="round" d="M85.9 535.3L102.8 535.3L119.7 535.3L136.6 535.3L153.5 535.3L170.4 535.3L187.2 535.3L204.1 535.3L221 535.3L237.9 534.9L254.8 534.8L271.7 534.6L288.5 534.7L305.4 534.5L322.3 534.5L339.2 534.4L356.1 534.3L373 534.3L389.8 534.1L406.7 534L423.6 533.7L440.5 533.3L457.4 532.8L474.3 532.1L491.1 531.2L508 529.5L524.9 527.3L541.8 524.7L558.7 518L575.6 506.5L592.5 488.9L609.3 446.5L626.2 398.1L643.1 346.8L660 266.6L676.9 184.8L693.8 80" stroke="rgb(43, 80, 141)" stroke-opacity="0.7" stroke-width="0.5" fill="none" class="Africa_0-border"></path><path stroke-linecap="round" d="M85.9 535.3L102.8 535.3L119.7 535.3L136.6 535.3L153.5 535.3L170.4 535.3L187.2 535.3L204.1 535.3L221 535.3L237.9 534.9L254.8 534.8L271.7 534.6L288.5 534.7L305.4 534.5L322.3 534.5L339.2 534.4L356.1 534.3L373 534.3L389.8 534.1L406.7 534L423.6 533.7L440.5 533.3L457.4 532.8L474.3 532.1L491.1 531.2L508 529.5L524.9 527.3L541.8 524.7L558.7 518L575.6 506.5L592.5 488.7L609.3 446.2L626.2 397.5L643.1 345.8L660 264.9L676.9 182.5L693.8 76.6" stroke="rgb(192, 43, 38)" stroke-opacity="0.7" stroke-width="0.5" fill="none" class="Middle-East_0-border"></path></g></g></g><g style="fill: #777;" class="SourcesFooter"><g style="fill: #777;" class="clickable"><text font-size="12.60" x="15.0" y="581.6"><tspan x="15" y="581.58">Source: BP Statistical Review of Global Energy</tspan></text></g><text font-size="12.60" x="775.4" y="581.6"><tspan x="775.402" y="581.58"><a style="fill: #777;" class="cclogo" href="http://creativecommons.org/licenses/by-sa/4.0/deed.en_US" target="_blank">CC BY-SA</a></tspan></text></g></g></svg>