<svg xmlns="http://www.w3.org/2000/svg" version="1.1" style="font-family: 'Helvetica Neue', Helvetica, Arial, sans-serif; font-size: 18px; background-color: white; text-rendering: optimizeLegibility; -webkit-font-smoothing: antialiased;" width="850" height="600"><g class="ChartTab"><g class="HeaderView"><g opacity="0.8" transform="translate(778, 15) scale(0.27)"><a xmlns:xlink="http://www.w3.org/1999/xlink" xlink:href="https://ourworldindata.org" target="_blank"><g><rect x="0" y="0" fill="#1B2543" width="211.2" height="130.1"/><rect x="0" y="112.2" fill="#E63912" width="211.2" height="17.9"/><g><rect x="1.2" y="12.3" fill="none" width="210.2" height="99.2"/><path fill="#FFFFFF" d="M37.8,32.2c0,12.7-7.7,19.4-17.1,19.4c-9.7,0-16.6-7.5-16.6-18.7c0-11.7,7.3-19.3,17.1-19.3 C31.3,13.7,37.8,21.3,37.8,32.2z M9.2,32.8c0,7.9,4.3,14.9,11.8,14.9c7.5,0,11.8-6.9,11.8-15.3c0-7.3-3.8-14.9-11.8-14.9 C13.1,17.5,9.2,24.8,9.2,32.8z"/><path fill="#FFFFFF" d="M62.7,43.8c0,2.7,0.1,5.1,0.2,7.2h-4.3l-0.3-4.3h-0.1c-1.3,2.1-4,4.9-8.8,4.9c-4.2,0-9.1-2.3-9.1-11.6 V24.6h4.8v14.6c0,5,1.5,8.4,5.9,8.4c3.2,0,5.5-2.2,6.3-4.4c0.3-0.7,0.4-1.6,0.4-2.5V24.6h4.8V43.8z"/><path fill="#FFFFFF" d="M67.3,32.8c0-3.1-0.1-5.8-0.2-8.2h4.2l0.2,5.2h0.2c1.2-3.5,4.1-5.8,7.3-5.8c0.5,0,0.9,0.1,1.4,0.2v4.5 c-0.5-0.1-1-0.2-1.6-0.2c-3.4,0-5.8,2.6-6.5,6.2c-0.1,0.7-0.2,1.4-0.2,2.2V51h-4.8V32.8z"/><path fill="#FFFFFF" d="M95.4,51l-9.4-36.8h5l4.4,18.6c1.1,4.6,2.1,9.2,2.7,12.7h0.1c0.6-3.7,1.8-8,3-12.8l4.9-18.5h5l4.5,18.7 c1,4.4,2,8.7,2.6,12.6h0.1c0.8-4,1.8-8.1,3-12.7l4.9-18.5h4.9L120.6,51h-5L111,31.9c-1.1-4.7-1.9-8.3-2.4-12h-0.1 c-0.7,3.7-1.5,7.3-2.8,12L100.4,51H95.4z"/><path fill="#FFFFFF" d="M154.9,37.6c0,9.8-6.8,14-13.2,14c-7.2,0-12.7-5.2-12.7-13.6c0-8.8,5.8-14,13.1-14 C149.8,24,154.9,29.5,154.9,37.6z M133.9,37.9c0,5.8,3.3,10.1,8,10.1c4.6,0,8-4.3,8-10.3c0-4.5-2.2-10.1-7.9-10.1 C136.3,27.6,133.9,32.8,133.9,37.9z"/><path fill="#FFFFFF" d="M158.2,32.8c0-3.1-0.1-5.8-0.2-8.2h4.2l0.2,5.2h0.2c1.2-3.5,4.1-5.8,7.3-5.8c0.5,0,0.9,0.1,1.4,0.2v4.5 c-0.5-0.1-1-0.2-1.6-0.2c-3.4,0-5.8,2.6-6.5,6.2c-0.1,0.7-0.2,1.4-0.2,2.2V51h-4.8V32.8z"/><path fill="#FFFFFF" d="M173.5,12.3h4.8V51h-4.8V12.3z"/><path fill="#FFFFFF" d="M206.5,12.3v31.9c0,2.3,0.1,5,0.2,6.8h-4.3l-0.2-4.6H202c-1.5,2.9-4.7,5.2-9,5.2 c-6.4,0-11.3-5.4-11.3-13.4c-0.1-8.8,5.4-14.2,11.9-14.2c4,0,6.8,1.9,8,4h0.1V12.3H206.5z M201.7,35.4c0-0.6-0.1-1.4-0.2-2 c-0.7-3.1-3.3-5.6-6.9-5.6c-5,0-7.9,4.4-7.9,10.2c0,5.3,2.6,9.8,7.8,9.8c3.2,0,6.2-2.1,7.1-5.7c0.2-0.7,0.2-1.3,0.2-2.1V35.4z"/><path fill="#FFFFFF" d="M42.8,64c0.1,1.6-1.1,2.9-3.1,2.9c-1.7,0-2.9-1.3-2.9-2.9c0-1.7,1.3-3,3-3C41.7,61,42.8,62.3,42.8,64z M37.4,97.8V71.4h4.8v26.4H37.4z"/><path fill="#FFFFFF" d="M47.5,78.6c0-2.7-0.1-5-0.2-7.1h4.3l0.3,4.4h0.1c1.3-2.5,4.4-5,8.8-5c3.7,0,9.4,2.2,9.4,11.2v15.8h-4.8 V82.6c0-4.3-1.6-7.8-6.1-7.8c-3.2,0-5.6,2.2-6.5,4.9c-0.2,0.6-0.3,1.4-0.3,2.2v15.9h-4.8V78.6z"/><path fill="#FFFFFF" d="M84,61.6c2.9-0.4,6.3-0.8,10.1-0.8c6.8,0,11.7,1.6,14.9,4.6c3.3,3,5.2,7.3,5.2,13.2c0,6-1.9,10.9-5.3,14.3 c-3.4,3.4-9.1,5.3-16.3,5.3c-3.4,0-6.2-0.2-8.6-0.4V61.6z M88.8,94.1c1.2,0.2,3,0.3,4.8,0.3c10.2,0,15.7-5.7,15.7-15.6 c0.1-8.7-4.9-14.2-14.9-14.2c-2.5,0-4.3,0.2-5.6,0.5V94.1z"/><path fill="#FFFFFF" d="M132.1,97.8l-0.4-3.3h-0.2c-1.5,2.1-4.3,3.9-8.1,3.9c-5.4,0-8.1-3.8-8.1-7.6c0-6.4,5.7-9.9,15.9-9.8v-0.5 c0-2.2-0.6-6.1-6-6.1c-2.5,0-5,0.8-6.9,2l-1.1-3.2c2.2-1.4,5.4-2.3,8.7-2.3c8.1,0,10.1,5.5,10.1,10.8v9.9c0,2.3,0.1,4.5,0.4,6.3 H132.1z M131.4,84.4c-5.3-0.1-11.2,0.8-11.2,5.9c0,3.1,2.1,4.6,4.5,4.6c3.4,0,5.6-2.2,6.4-4.4c0.2-0.5,0.3-1,0.3-1.5V84.4z"/><path fill="#FFFFFF" d="M146.6,63.9v7.6h6.9v3.7h-6.9v14.2c0,3.3,0.9,5.1,3.6,5.1c1.3,0,2.2-0.2,2.8-0.3l0.2,3.6 c-0.9,0.4-2.4,0.7-4.3,0.7c-2.2,0-4-0.7-5.2-2c-1.4-1.4-1.9-3.8-1.9-6.9V75.1h-4.1v-3.7h4.1v-6.3L146.6,63.9z"/><path fill="#FFFFFF" d="M171.4,97.8l-0.4-3.3h-0.2c-1.5,2.1-4.3,3.9-8.1,3.9c-5.4,0-8.1-3.8-8.1-7.6c0-6.4,5.7-9.9,15.9-9.8v-0.5 c0-2.2-0.6-6.1-6-6.1c-2.5,0-5,0.8-6.9,2l-1.1-3.2c2.2-1.4,5.4-2.3,8.7-2.3c8.1,0,10.1,5.5,10.1,10.8v9.9c0,2.3,0.1,4.5,0.4,6.3 H171.4z M170.7,84.4c-5.3-0.1-11.2,0.8-11.2,5.9c0,3.1,2.1,4.6,4.5,4.6c3.4,0,5.6-2.2,6.4-4.4c0.2-0.5,0.3-1,0.3-1.5V84.4z"/></g></g></a></g><a href="https://ourworldindata.org/grapher/stroke-death-rates-by-age" target="_blank"><text font-size="25.20" x="15.0" y="35.2" fill="#555"><tspan x="15" y="35.160000000000004">Stroke death rates by age (per 100,000), World</tspan></text></a><text font-size="14.40" x="15.0" y="53.7" fill="#666"><tspan x="15" y="53.72">Death rates from stroke by age group, measured as the number of deaths per 100,000 individuals.</tspan><tspan x="15" y="69.56">Age-standardization assumes a constant population age &amp; structure to allow for comparisons between countries and</tspan><tspan x="15" y="85.4">with time without the effects of a changing age distribution within a population (e.g. aging).</tspan></text></g><g class="LineChart"><defs><clipPath id="boundsClip-723"><rect x="50.824" y="0" width="830" height="897.8"></rect></clipPath></defs><g class="AxisBoxView"><g class="HorizontalAxis"><text x="60.8" y="556.5" fill="#666" text-anchor="middle" font-size="16.2">1990</text><text x="178" y="556.5" fill="#666" text-anchor="middle" font-size="16.2">1995</text><text x="295.2" y="556.5" fill="#666" text-anchor="middle" font-size="16.2">2000</text><text x="412.5" y="556.5" fill="#666" text-anchor="middle" font-size="16.2">2005</text><text x="529.7" y="556.5" fill="#666" text-anchor="middle" font-size="16.2">2010</text><text x="646.9" y="556.5" fill="#666" text-anchor="middle" font-size="16.2">2015</text><text x="693.8" y="556.5" fill="#666" text-anchor="middle" font-size="16.2">2017</text></g><g class="VerticalAxis"><text x="55.82" y="535.3" fill="#666" dominant-baseline="middle" text-anchor="end" font-size="16.2">0</text><text x="55.82" y="468.3" fill="#666" dominant-baseline="middle" text-anchor="end" font-size="16.2">200</text><text x="55.82" y="401.2" fill="#666" dominant-baseline="middle" text-anchor="end" font-size="16.2">400</text><text x="55.82" y="334.2" fill="#666" dominant-baseline="middle" text-anchor="end" font-size="16.2">600</text><text x="55.82" y="267.2" fill="#666" dominant-baseline="middle" text-anchor="end" font-size="16.2">800</text><text x="55.82" y="200.1" fill="#666" dominant-baseline="middle" text-anchor="end" font-size="16.2">1,000</text><text x="55.82" y="133.1" fill="#666" dominant-baseline="middle" text-anchor="end" font-size="16.2">1,200</text></g><g class="AxisGridLines"><line x1="60.82" y1="535.3" x2="693.75" y2="535.3" stroke="#ccc"></line><line x1="60.82" y1="468.3" x2="693.75" y2="468.3" stroke="#ddd" stroke-dasharray="3,2"></line><line x1="60.82" y1="401.2" x2="693.75" y2="401.2" stroke="#ddd" stroke-dasharray="3,2"></line><line x1="60.82" y1="334.2" x2="693.75" y2="334.2" stroke="#ddd" stroke-dasharray="3,2"></line><line x1="60.82" y1="267.2" x2="693.75" y2="267.2" stroke="#ddd" stroke-dasharray="3,2"></line><line x1="60.82" y1="200.1" x2="693.75" y2="200.1" stroke="#ddd" stroke-dasharray="3,2"></line><line x1="60.82" y1="133.1" x2="693.75" y2="133.1" stroke="#ddd" stroke-dasharray="3,2"></line></g></g><g clip-path="url(#boundsClip-723)"><g class="HeightedLegend clickable"><g class="legendMark"><g class="indicator"><line x1="698.755" y1="535.2" x2="721.255" y2="535.2" stroke="#666" stroke-width="0.5"></line><line x1="721.255" y1="535.2" x2="721.255" y2="528.55" stroke="#666" stroke-width="0.5"></line><line x1="721.255" y1="528.55" x2="723.755" y2="528.55" stroke="#666" stroke-width="0.5"></line></g><rect x="693.755" y="521.8" width="120.86" height="13.5" fill="#fff" opacity="0"></rect><text font-size="13.50" x="728.8" y="532.6" fill="#3360a9"><tspan x="728.755" y="532.5999999999999">5-14 years old</tspan></text></g><g class="legendMark"><g class="indicator"><line x1="698.755" y1="534.9" x2="717.9216666666666" y2="534.9" stroke="#666" stroke-width="0.5"></line><line x1="717.9216666666666" y1="534.9" x2="717.9216666666666" y2="513.05" stroke="#666" stroke-width="0.5"></line><line x1="717.9216666666666" y1="513.05" x2="723.755" y2="513.05" stroke="#666" stroke-width="0.5"></line></g><rect x="693.755" y="506.29999999999995" width="90.62" height="13.5" fill="#fff" opacity="0"></rect><text font-size="13.50" x="728.8" y="517.1" fill="#ca2628"><tspan x="728.755" y="517.0999999999999">Under-5s</tspan></text></g><g class="legendMark"><g class="indicator"><line x1="698.755" y1="532.2" x2="714.5883333333334" y2="532.2" stroke="#666" stroke-width="0.5"></line><line x1="714.5883333333334" y1="532.2" x2="714.5883333333334" y2="497.54999999999995" stroke="#666" stroke-width="0.5"></line><line x1="714.5883333333334" y1="497.54999999999995" x2="723.755" y2="497.54999999999995" stroke="#666" stroke-width="0.5"></line></g><rect x="693.755" y="490.79999999999995" width="128.42000000000002" height="13.5" fill="#fff" opacity="0"></rect><text font-size="13.50" x="728.8" y="501.6" fill="#34983f"><tspan x="728.755" y="501.59999999999997">15-49 years old</tspan></text></g><g class="legendMark"><g class="indicator"><line x1="698.755" y1="508.3" x2="711.255" y2="508.3" stroke="#666" stroke-width="0.5"></line><line x1="711.255" y1="508.3" x2="711.255" y2="482.04999999999995" stroke="#666" stroke-width="0.5"></line><line x1="711.255" y1="482.04999999999995" x2="723.755" y2="482.04999999999995" stroke="#666" stroke-width="0.5"></line></g><rect x="693.755" y="475.29999999999995" width="141.245" height="13.5" fill="#fff" opacity="0"></rect><text font-size="13.50" x="728.8" y="486.1" fill="#f6a324"><tspan x="728.755" y="486.09999999999997">Age-standardized</tspan></text></g><g class="legendMark"><g class="indicator"><line x1="698.755" y1="508.2" x2="707.9216666666666" y2="508.2" stroke="#666" stroke-width="0.5"></line><line x1="707.9216666666666" y1="508.2" x2="707.9216666666666" y2="466.54999999999995" stroke="#666" stroke-width="0.5"></line><line x1="707.9216666666666" y1="466.54999999999995" x2="723.755" y2="466.54999999999995" stroke="#666" stroke-width="0.5"></line></g><rect x="693.755" y="459.79999999999995" width="83.195" height="13.5" fill="#fff" opacity="0"></rect><text font-size="13.50" x="728.8" y="470.6" fill="#a652ba"><tspan x="728.755" y="470.59999999999997">All ages</tspan></text></g><g class="legendMark"><g class="indicator"><line x1="698.755" y1="488.6" x2="704.5883333333334" y2="488.6" stroke="#666" stroke-width="0.5"></line><line x1="704.5883333333334" y1="488.6" x2="704.5883333333334" y2="451.04999999999995" stroke="#666" stroke-width="0.5"></line><line x1="704.5883333333334" y1="451.04999999999995" x2="723.755" y2="451.04999999999995" stroke="#666" stroke-width="0.5"></line></g><rect x="693.755" y="444.29999999999995" width="128.42000000000002" height="13.5" fill="#fff" opacity="0"></rect><text font-size="13.50" x="728.8" y="455.1" fill="#2a939b"><tspan x="728.755" y="455.09999999999997">50-69 years old</tspan></text></g><g class="legendMark"><g class="indicator"><line x1="698.755" y1="229.1" x2="711.255" y2="229.1" stroke="#666" stroke-width="0.5"></line><line x1="711.255" y1="229.1" x2="711.255" y2="229.1" stroke="#666" stroke-width="0.5"></line><line x1="711.255" y1="229.1" x2="723.755" y2="229.1" stroke="#666" stroke-width="0.5"></line></g><rect x="693.755" y="222.35" width="116.67500000000001" height="13.5" fill="#fff" opacity="0"></rect><text font-size="13.50" x="728.8" y="233.2" fill="#e6332e"><tspan x="728.755" y="233.15">70+ years old</tspan></text></g></g><g class="Lines"><rect x="61" y="108" width="633" height="428" fill="rgba(255,255,255,0)" opacity="0"></rect><g class="key-World_0"><path stroke="#ca2628" stroke-linecap="round" d="M61 534L84 534L108 534L131 534L155 534L178 534L202 534L225 534L248 534L272 534L295 534L319 534L342 535L366 535L389 535L413 535L436 535L459 535L483 535L506 535L530 535L553 535L577 535L600 535L623 535L647 535L670 535L694 535" fill="none" stroke-width="1.5"></path><g fill="#ca2628"><circle cx="61" cy="534" r="2"></circle><circle cx="84" cy="534" r="2"></circle><circle cx="108" cy="534" r="2"></circle><circle cx="131" cy="534" r="2"></circle><circle cx="155" cy="534" r="2"></circle><circle cx="178" cy="534" r="2"></circle><circle cx="202" cy="534" r="2"></circle><circle cx="225" cy="534" r="2"></circle><circle cx="248" cy="534" r="2"></circle><circle cx="272" cy="534" r="2"></circle><circle cx="295" cy="534" r="2"></circle><circle cx="319" cy="534" r="2"></circle><circle cx="342" cy="535" r="2"></circle><circle cx="366" cy="535" r="2"></circle><circle cx="389" cy="535" r="2"></circle><circle cx="413" cy="535" r="2"></circle><circle cx="436" cy="535" r="2"></circle><circle cx="459" cy="535" r="2"></circle><circle cx="483" cy="535" r="2"></circle><circle cx="506" cy="535" r="2"></circle><circle cx="530" cy="535" r="2"></circle><circle cx="553" cy="535" r="2"></circle><circle cx="577" cy="535" r="2"></circle><circle cx="600" cy="535" r="2"></circle><circle cx="623" cy="535" r="2"></circle><circle cx="647" cy="535" r="2"></circle><circle cx="670" cy="535" r="2"></circle><circle cx="694" cy="535" r="2"></circle></g></g><g class="key-World_1"><path stroke="#e6332e" stroke-linecap="round" d="M61 108L84 113L108 117L131 116L155 118L178 124L202 132L225 138L248 141L272 144L295 146L319 149L342 150L366 152L389 162L413 170L436 185L459 194L483 197L506 200L530 202L553 208L577 214L600 223L623 226L647 226L670 226L694 229" fill="none" stroke-width="1.5"></path><g fill="#e6332e"><circle cx="61" cy="108" r="2"></circle><circle cx="84" cy="113" r="2"></circle><circle cx="108" cy="117" r="2"></circle><circle cx="131" cy="116" r="2"></circle><circle cx="155" cy="118" r="2"></circle><circle cx="178" cy="124" r="2"></circle><circle cx="202" cy="132" r="2"></circle><circle cx="225" cy="138" r="2"></circle><circle cx="248" cy="141" r="2"></circle><circle cx="272" cy="144" r="2"></circle><circle cx="295" cy="146" r="2"></circle><circle cx="319" cy="149" r="2"></circle><circle cx="342" cy="150" r="2"></circle><circle cx="366" cy="152" r="2"></circle><circle cx="389" cy="162" r="2"></circle><circle cx="413" cy="170" r="2"></circle><circle cx="436" cy="185" r="2"></circle><circle cx="459" cy="194" r="2"></circle><circle cx="483" cy="197" r="2"></circle><circle cx="506" cy="200" r="2"></circle><circle cx="530" cy="202" r="2"></circle><circle cx="553" cy="208" r="2"></circle><circle cx="577" cy="214" r="2"></circle><circle cx="600" cy="223" r="2"></circle><circle cx="623" cy="226" r="2"></circle><circle cx="647" cy="226" r="2"></circle><circle cx="670" cy="226" r="2"></circle><circle cx="694" cy="229" r="2"></circle></g></g><g class="key-World_2"><path stroke="#3360a9" stroke-linecap="round" d="M61 535L84 535L108 535L131 535L155 535L178 535L202 535L225 535L248 535L272 535L295 535L319 535L342 535L366 535L389 535L413 535L436 535L459 535L483 535L506 535L530 535L553 535L577 535L600 535L623 535L647 535L670 535L694 535" fill="none" stroke-width="1.5"></path><g fill="#3360a9"><circle cx="61" cy="535" r="2"></circle><circle cx="84" cy="535" r="2"></circle><circle cx="108" cy="535" r="2"></circle><circle cx="131" cy="535" r="2"></circle><circle cx="155" cy="535" r="2"></circle><circle cx="178" cy="535" r="2"></circle><circle cx="202" cy="535" r="2"></circle><circle cx="225" cy="535" r="2"></circle><circle cx="248" cy="535" r="2"></circle><circle cx="272" cy="535" r="2"></circle><circle cx="295" cy="535" r="2"></circle><circle cx="319" cy="535" r="2"></circle><circle cx="342" cy="535" r="2"></circle><circle cx="366" cy="535" r="2"></circle><circle cx="389" cy="535" r="2"></circle><circle cx="413" cy="535" r="2"></circle><circle cx="436" cy="535" r="2"></circle><circle cx="459" cy="535" r="2"></circle><circle cx="483" cy="535" r="2"></circle><circle cx="506" cy="535" r="2"></circle><circle cx="530" cy="535" r="2"></circle><circle cx="553" cy="535" r="2"></circle><circle cx="577" cy="535" r="2"></circle><circle cx="600" cy="535" r="2"></circle><circle cx="623" cy="535" r="2"></circle><circle cx="647" cy="535" r="2"></circle><circle cx="670" cy="535" r="2"></circle><circle cx="694" cy="535" r="2"></circle></g></g><g class="key-World_3"><path stroke="#2a939b" stroke-linecap="round" d="M61 467L84 467L108 467L131 466L155 466L178 466L202 468L225 469L248 471L272 472L295 473L319 474L342 475L366 476L389 478L413 480L436 482L459 484L483 485L506 487L530 487L553 488L577 488L600 488L623 488L647 487L670 487L694 489" fill="none" stroke-width="1.5"></path><g fill="#2a939b"><circle cx="61" cy="467" r="2"></circle><circle cx="84" cy="467" r="2"></circle><circle cx="108" cy="467" r="2"></circle><circle cx="131" cy="466" r="2"></circle><circle cx="155" cy="466" r="2"></circle><circle cx="178" cy="466" r="2"></circle><circle cx="202" cy="468" r="2"></circle><circle cx="225" cy="469" r="2"></circle><circle cx="248" cy="471" r="2"></circle><circle cx="272" cy="472" r="2"></circle><circle cx="295" cy="473" r="2"></circle><circle cx="319" cy="474" r="2"></circle><circle cx="342" cy="475" r="2"></circle><circle cx="366" cy="476" r="2"></circle><circle cx="389" cy="478" r="2"></circle><circle cx="413" cy="480" r="2"></circle><circle cx="436" cy="482" r="2"></circle><circle cx="459" cy="484" r="2"></circle><circle cx="483" cy="485" r="2"></circle><circle cx="506" cy="487" r="2"></circle><circle cx="530" cy="487" r="2"></circle><circle cx="553" cy="488" r="2"></circle><circle cx="577" cy="488" r="2"></circle><circle cx="600" cy="488" r="2"></circle><circle cx="623" cy="488" r="2"></circle><circle cx="647" cy="487" r="2"></circle><circle cx="670" cy="487" r="2"></circle><circle cx="694" cy="489" r="2"></circle></g></g><g class="key-World_4"><path stroke="#34983f" stroke-linecap="round" d="M61 531L84 531L108 531L131 531L155 531L178 531L202 531L225 531L248 531L272 531L295 531L319 531L342 532L366 532L389 532L413 532L436 532L459 532L483 532L506 532L530 532L553 532L577 532L600 532L623 532L647 532L670 532L694 532" fill="none" stroke-width="1.5"></path><g fill="#34983f"><circle cx="61" cy="531" r="2"></circle><circle cx="84" cy="531" r="2"></circle><circle cx="108" cy="531" r="2"></circle><circle cx="131" cy="531" r="2"></circle><circle cx="155" cy="531" r="2"></circle><circle cx="178" cy="531" r="2"></circle><circle cx="202" cy="531" r="2"></circle><circle cx="225" cy="531" r="2"></circle><circle cx="248" cy="531" r="2"></circle><circle cx="272" cy="531" r="2"></circle><circle cx="295" cy="531" r="2"></circle><circle cx="319" cy="531" r="2"></circle><circle cx="342" cy="532" r="2"></circle><circle cx="366" cy="532" r="2"></circle><circle cx="389" cy="532" r="2"></circle><circle cx="413" cy="532" r="2"></circle><circle cx="436" cy="532" r="2"></circle><circle cx="459" cy="532" r="2"></circle><circle cx="483" cy="532" r="2"></circle><circle cx="506" cy="532" r="2"></circle><circle cx="530" cy="532" r="2"></circle><circle cx="553" cy="532" r="2"></circle><circle cx="577" cy="532" r="2"></circle><circle cx="600" cy="532" r="2"></circle><circle cx="623" cy="532" r="2"></circle><circle cx="647" cy="532" r="2"></circle><circle cx="670" cy="532" r="2"></circle><circle cx="694" cy="532" r="2"></circle></g></g><g class="key-World_5"><path stroke="#f6a324" stroke-linecap="round" d="M61 495L84 495L108 496L131 495L155 496L178 496L202 497L225 497L248 498L272 498L295 499L319 499L342 499L366 500L389 501L413 502L436 503L459 504L483 505L506 505L530 505L553 506L577 507L600 507L623 508L647 508L670 508L694 508" fill="none" stroke-width="1.5"></path><g fill="#f6a324"><circle cx="61" cy="495" r="2"></circle><circle cx="84" cy="495" r="2"></circle><circle cx="108" cy="496" r="2"></circle><circle cx="131" cy="495" r="2"></circle><circle cx="155" cy="496" r="2"></circle><circle cx="178" cy="496" r="2"></circle><circle cx="202" cy="497" r="2"></circle><circle cx="225" cy="497" r="2"></circle><circle cx="248" cy="498" r="2"></circle><circle cx="272" cy="498" r="2"></circle><circle cx="295" cy="499" r="2"></circle><circle cx="319" cy="499" r="2"></circle><circle cx="342" cy="499" r="2"></circle><circle cx="366" cy="500" r="2"></circle><circle cx="389" cy="501" r="2"></circle><circle cx="413" cy="502" r="2"></circle><circle cx="436" cy="503" r="2"></circle><circle cx="459" cy="504" r="2"></circle><circle cx="483" cy="505" r="2"></circle><circle cx="506" cy="505" r="2"></circle><circle cx="530" cy="505" r="2"></circle><circle cx="553" cy="506" r="2"></circle><circle cx="577" cy="507" r="2"></circle><circle cx="600" cy="507" r="2"></circle><circle cx="623" cy="508" r="2"></circle><circle cx="647" cy="508" r="2"></circle><circle cx="670" cy="508" r="2"></circle><circle cx="694" cy="508" r="2"></circle></g></g><g class="key-World_6"><path stroke="#a652ba" stroke-linecap="round" d="M61 508L84 508L108 508L131 508L155 508L178 508L202 508L225 508L248 508L272 508L295 508L319 508L342 507L366 507L389 508L413 508L436 509L459 509L483 509L506 509L530 509L553 509L577 509L600 509L623 509L647 509L670 508L694 508" fill="none" stroke-width="1.5"></path><g fill="#a652ba"><circle cx="61" cy="508" r="2"></circle><circle cx="84" cy="508" r="2"></circle><circle cx="108" cy="508" r="2"></circle><circle cx="131" cy="508" r="2"></circle><circle cx="155" cy="508" r="2"></circle><circle cx="178" cy="508" r="2"></circle><circle cx="202" cy="508" r="2"></circle><circle cx="225" cy="508" r="2"></circle><circle cx="248" cy="508" r="2"></circle><circle cx="272" cy="508" r="2"></circle><circle cx="295" cy="508" r="2"></circle><circle cx="319" cy="508" r="2"></circle><circle cx="342" cy="507" r="2"></circle><circle cx="366" cy="507" r="2"></circle><circle cx="389" cy="508" r="2"></circle><circle cx="413" cy="508" r="2"></circle><circle cx="436" cy="509" r="2"></circle><circle cx="459" cy="509" r="2"></circle><circle cx="483" cy="509" r="2"></circle><circle cx="506" cy="509" r="2"></circle><circle cx="530" cy="509" r="2"></circle><circle cx="553" cy="509" r="2"></circle><circle cx="577" cy="509" r="2"></circle><circle cx="600" cy="509" r="2"></circle><circle cx="623" cy="509" r="2"></circle><circle cx="647" cy="509" r="2"></circle><circle cx="670" cy="508" r="2"></circle><circle cx="694" cy="508" r="2"></circle></g></g></g></g></g><g style="fill: #777;" class="SourcesFooter"><g style="fill: #777;" class="clickable"><text font-size="12.60" x="15.0" y="581.6"><tspan x="15" y="581.58">Source: IHME, Global Burden of Disease (GBD)</tspan></text></g><text font-size="12.60" x="775.4" y="581.6"><tspan x="775.402" y="581.58"><a style="fill: #777;" class="cclogo" href="http://creativecommons.org/licenses/by-sa/4.0/deed.en_US" target="_blank">CC BY-SA</a></tspan></text></g></g></svg>