<svg xmlns="http://www.w3.org/2000/svg" version="1.1" style="font-family: 'Helvetica Neue', Helvetica, Arial, sans-serif; font-size: 18px; background-color: white; text-rendering: optimizeLegibility; -webkit-font-smoothing: antialiased;" width="850" height="600"><g class="ChartTab"><g class="HeaderView"><g opacity="0.8" transform="translate(778, 15) scale(0.27)"><a xmlns:xlink="http://www.w3.org/1999/xlink" xlink:href="https://ourworldindata.org" target="_blank"><g><rect x="0" y="0" fill="#1B2543" width="211.2" height="130.1"/><rect x="0" y="112.2" fill="#E63912" width="211.2" height="17.9"/><g><rect x="1.2" y="12.3" fill="none" width="210.2" height="99.2"/><path fill="#FFFFFF" d="M37.8,32.2c0,12.7-7.7,19.4-17.1,19.4c-9.7,0-16.6-7.5-16.6-18.7c0-11.7,7.3-19.3,17.1-19.3 C31.3,13.7,37.8,21.3,37.8,32.2z M9.2,32.8c0,7.9,4.3,14.9,11.8,14.9c7.5,0,11.8-6.9,11.8-15.3c0-7.3-3.8-14.9-11.8-14.9 C13.1,17.5,9.2,24.8,9.2,32.8z"/><path fill="#FFFFFF" d="M62.7,43.8c0,2.7,0.1,5.1,0.2,7.2h-4.3l-0.3-4.3h-0.1c-1.3,2.1-4,4.9-8.8,4.9c-4.2,0-9.1-2.3-9.1-11.6 V24.6h4.8v14.6c0,5,1.5,8.4,5.9,8.4c3.2,0,5.5-2.2,6.3-4.4c0.3-0.7,0.4-1.6,0.4-2.5V24.6h4.8V43.8z"/><path fill="#FFFFFF" d="M67.3,32.8c0-3.1-0.1-5.8-0.2-8.2h4.2l0.2,5.2h0.2c1.2-3.5,4.1-5.8,7.3-5.8c0.5,0,0.9,0.1,1.4,0.2v4.5 c-0.5-0.1-1-0.2-1.6-0.2c-3.4,0-5.8,2.6-6.5,6.2c-0.1,0.7-0.2,1.4-0.2,2.2V51h-4.8V32.8z"/><path fill="#FFFFFF" d="M95.4,51l-9.4-36.8h5l4.4,18.6c1.1,4.6,2.1,9.2,2.7,12.7h0.1c0.6-3.7,1.8-8,3-12.8l4.9-18.5h5l4.5,18.7 c1,4.4,2,8.7,2.6,12.6h0.1c0.8-4,1.8-8.1,3-12.7l4.9-18.5h4.9L120.6,51h-5L111,31.9c-1.1-4.7-1.9-8.3-2.4-12h-0.1 c-0.7,3.7-1.5,7.3-2.8,12L100.4,51H95.4z"/><path fill="#FFFFFF" d="M154.9,37.6c0,9.8-6.8,14-13.2,14c-7.2,0-12.7-5.2-12.7-13.6c0-8.8,5.8-14,13.1-14 C149.8,24,154.9,29.5,154.9,37.6z M133.9,37.9c0,5.8,3.3,10.1,8,10.1c4.6,0,8-4.3,8-10.3c0-4.5-2.2-10.1-7.9-10.1 C136.3,27.6,133.9,32.8,133.9,37.9z"/><path fill="#FFFFFF" d="M158.2,32.8c0-3.1-0.1-5.8-0.2-8.2h4.2l0.2,5.2h0.2c1.2-3.5,4.1-5.8,7.3-5.8c0.5,0,0.9,0.1,1.4,0.2v4.5 c-0.5-0.1-1-0.2-1.6-0.2c-3.4,0-5.8,2.6-6.5,6.2c-0.1,0.7-0.2,1.4-0.2,2.2V51h-4.8V32.8z"/><path fill="#FFFFFF" d="M173.5,12.3h4.8V51h-4.8V12.3z"/><path fill="#FFFFFF" d="M206.5,12.3v31.9c0,2.3,0.1,5,0.2,6.8h-4.3l-0.2-4.6H202c-1.5,2.9-4.7,5.2-9,5.2 c-6.4,0-11.3-5.4-11.3-13.4c-0.1-8.8,5.4-14.2,11.9-14.2c4,0,6.8,1.9,8,4h0.1V12.3H206.5z M201.7,35.4c0-0.6-0.1-1.4-0.2-2 c-0.7-3.1-3.3-5.6-6.9-5.6c-5,0-7.9,4.4-7.9,10.2c0,5.3,2.6,9.8,7.8,9.8c3.2,0,6.2-2.1,7.1-5.7c0.2-0.7,0.2-1.3,0.2-2.1V35.4z"/><path fill="#FFFFFF" d="M42.8,64c0.1,1.6-1.1,2.9-3.1,2.9c-1.7,0-2.9-1.3-2.9-2.9c0-1.7,1.3-3,3-3C41.7,61,42.8,62.3,42.8,64z M37.4,97.8V71.4h4.8v26.4H37.4z"/><path fill="#FFFFFF" d="M47.5,78.6c0-2.7-0.1-5-0.2-7.1h4.3l0.3,4.4h0.1c1.3-2.5,4.4-5,8.8-5c3.7,0,9.4,2.2,9.4,11.2v15.8h-4.8 V82.6c0-4.3-1.6-7.8-6.1-7.8c-3.2,0-5.6,2.2-6.5,4.9c-0.2,0.6-0.3,1.4-0.3,2.2v15.9h-4.8V78.6z"/><path fill="#FFFFFF" d="M84,61.6c2.9-0.4,6.3-0.8,10.1-0.8c6.8,0,11.7,1.6,14.9,4.6c3.3,3,5.2,7.3,5.2,13.2c0,6-1.9,10.9-5.3,14.3 c-3.4,3.4-9.1,5.3-16.3,5.3c-3.4,0-6.2-0.2-8.6-0.4V61.6z M88.8,94.1c1.2,0.2,3,0.3,4.8,0.3c10.2,0,15.7-5.7,15.7-15.6 c0.1-8.7-4.9-14.2-14.9-14.2c-2.5,0-4.3,0.2-5.6,0.5V94.1z"/><path fill="#FFFFFF" d="M132.1,97.8l-0.4-3.3h-0.2c-1.5,2.1-4.3,3.9-8.1,3.9c-5.4,0-8.1-3.8-8.1-7.6c0-6.4,5.7-9.9,15.9-9.8v-0.5 c0-2.2-0.6-6.1-6-6.1c-2.5,0-5,0.8-6.9,2l-1.1-3.2c2.2-1.4,5.4-2.3,8.7-2.3c8.1,0,10.1,5.5,10.1,10.8v9.9c0,2.3,0.1,4.5,0.4,6.3 H132.1z M131.4,84.4c-5.3-0.1-11.2,0.8-11.2,5.9c0,3.1,2.1,4.6,4.5,4.6c3.4,0,5.6-2.2,6.4-4.4c0.2-0.5,0.3-1,0.3-1.5V84.4z"/><path fill="#FFFFFF" d="M146.6,63.9v7.6h6.9v3.7h-6.9v14.2c0,3.3,0.9,5.1,3.6,5.1c1.3,0,2.2-0.2,2.8-0.3l0.2,3.6 c-0.9,0.4-2.4,0.7-4.3,0.7c-2.2,0-4-0.7-5.2-2c-1.4-1.4-1.9-3.8-1.9-6.9V75.1h-4.1v-3.7h4.1v-6.3L146.6,63.9z"/><path fill="#FFFFFF" d="M171.4,97.8l-0.4-3.3h-0.2c-1.5,2.1-4.3,3.9-8.1,3.9c-5.4,0-8.1-3.8-8.1-7.6c0-6.4,5.7-9.9,15.9-9.8v-0.5 c0-2.2-0.6-6.1-6-6.1c-2.5,0-5,0.8-6.9,2l-1.1-3.2c2.2-1.4,5.4-2.3,8.7-2.3c8.1,0,10.1,5.5,10.1,10.8v9.9c0,2.3,0.1,4.5,0.4,6.3 H171.4z M170.7,84.4c-5.3-0.1-11.2,0.8-11.2,5.9c0,3.1,2.1,4.6,4.5,4.6c3.4,0,5.6-2.2,6.4-4.4c0.2-0.5,0.3-1,0.3-1.5V84.4z"/></g></g></a></g><a href="https://ourworldindata.org/grapher/suicide-death-rate-by-age" target="_blank"><text font-size="25.20" x="15.0" y="35.2" fill="#555"><tspan x="15" y="35.160000000000004">Suicide death rate by age (per 100,000), World</tspan></text></a><text font-size="14.40" x="15.0" y="53.7" fill="#666"><tspan x="15" y="53.72">Death rates from suicide measured per 100,000 individuals across various age categories. Also shown is the total</tspan><tspan x="15" y="69.56">death rate across all ages (not age-standardized) and the age-standardized death rate. Age-standardization assumes</tspan><tspan x="15" y="85.4">a constant population age &amp; structure to allow for comparisons between countries and with time without the effects of</tspan><tspan x="15" y="101.24000000000001">a changing age distribution within a population (e.g. aging).</tspan></text></g><g class="LineChart"><defs><clipPath id="boundsClip-721"><rect x="28.144000000000005" y="0" width="830" height="866.8"></rect></clipPath></defs><g class="AxisBoxView"><g class="HorizontalAxis"><text x="38.1" y="556.5" fill="#666" text-anchor="middle" font-size="16.2">1990</text><text x="159.6" y="556.5" fill="#666" text-anchor="middle" font-size="16.2">1995</text><text x="281" y="556.5" fill="#666" text-anchor="middle" font-size="16.2">2000</text><text x="402.4" y="556.5" fill="#666" text-anchor="middle" font-size="16.2">2005</text><text x="523.8" y="556.5" fill="#666" text-anchor="middle" font-size="16.2">2010</text><text x="645.2" y="556.5" fill="#666" text-anchor="middle" font-size="16.2">2015</text><text x="693.8" y="556.5" fill="#666" text-anchor="middle" font-size="16.2">2017</text></g><g class="VerticalAxis"><text x="33.14" y="535.3" fill="#666" dominant-baseline="middle" text-anchor="end" font-size="16.2">0</text><text x="33.14" y="482.4" fill="#666" dominant-baseline="middle" text-anchor="end" font-size="16.2">5</text><text x="33.14" y="429.6" fill="#666" dominant-baseline="middle" text-anchor="end" font-size="16.2">10</text><text x="33.14" y="376.7" fill="#666" dominant-baseline="middle" text-anchor="end" font-size="16.2">15</text><text x="33.14" y="323.8" fill="#666" dominant-baseline="middle" text-anchor="end" font-size="16.2">20</text><text x="33.14" y="270.9" fill="#666" dominant-baseline="middle" text-anchor="end" font-size="16.2">25</text><text x="33.14" y="218.1" fill="#666" dominant-baseline="middle" text-anchor="end" font-size="16.2">30</text><text x="33.14" y="165.2" fill="#666" dominant-baseline="middle" text-anchor="end" font-size="16.2">35</text></g><g class="AxisGridLines"><line x1="38.14" y1="535.3" x2="693.75" y2="535.3" stroke="#ccc"></line><line x1="38.14" y1="482.4" x2="693.75" y2="482.4" stroke="#ddd" stroke-dasharray="3,2"></line><line x1="38.14" y1="429.6" x2="693.75" y2="429.6" stroke="#ddd" stroke-dasharray="3,2"></line><line x1="38.14" y1="376.7" x2="693.75" y2="376.7" stroke="#ddd" stroke-dasharray="3,2"></line><line x1="38.14" y1="323.8" x2="693.75" y2="323.8" stroke="#ddd" stroke-dasharray="3,2"></line><line x1="38.14" y1="270.9" x2="693.75" y2="270.9" stroke="#ddd" stroke-dasharray="3,2"></line><line x1="38.14" y1="218.1" x2="693.75" y2="218.1" stroke="#ddd" stroke-dasharray="3,2"></line><line x1="38.14" y1="165.2" x2="693.75" y2="165.2" stroke="#ddd" stroke-dasharray="3,2"></line></g></g><g clip-path="url(#boundsClip-721)"><g class="HeightedLegend clickable"><g class="legendMark"><g class="indicator"><line x1="698.755" y1="245" x2="711.255" y2="245" stroke="#666" stroke-width="0.5"></line><line x1="711.255" y1="245" x2="711.255" y2="245" stroke="#666" stroke-width="0.5"></line><line x1="711.255" y1="245" x2="723.755" y2="245" stroke="#666" stroke-width="0.5"></line></g><rect x="693.755" y="238.25" width="116.67500000000001" height="13.5" fill="#fff" opacity="0"></rect><text font-size="13.50" x="728.8" y="249.1" fill="#2a939b"><tspan x="728.755" y="249.05">70+ years old</tspan></text></g><g class="legendMark"><g class="indicator"><line x1="698.755" y1="364.3" x2="711.255" y2="364.3" stroke="#666" stroke-width="0.5"></line><line x1="711.255" y1="364.3" x2="711.255" y2="364.3" stroke="#666" stroke-width="0.5"></line><line x1="711.255" y1="364.3" x2="723.755" y2="364.3" stroke="#666" stroke-width="0.5"></line></g><rect x="693.755" y="357.55" width="128.42000000000002" height="13.5" fill="#fff" opacity="0"></rect><text font-size="13.50" x="728.8" y="368.4" fill="#a652ba"><tspan x="728.755" y="368.35">50-69 years old</tspan></text></g><g class="legendMark"><g class="indicator"><line x1="698.755" y1="412.6" x2="717.9216666666666" y2="412.6" stroke="#666" stroke-width="0.5"></line><line x1="717.9216666666666" y1="412.6" x2="717.9216666666666" y2="412.6" stroke="#666" stroke-width="0.5"></line><line x1="717.9216666666666" y1="412.6" x2="723.755" y2="412.6" stroke="#666" stroke-width="0.5"></line></g><rect x="693.755" y="405.85" width="128.42000000000002" height="13.5" fill="#fff" opacity="0"></rect><text font-size="13.50" x="728.8" y="416.7" fill="#f6a324"><tspan x="728.755" y="416.65000000000003">15-49 years old</tspan></text></g><g class="legendMark"><g class="indicator"><line x1="698.755" y1="425.4" x2="711.255" y2="425.4" stroke="#666" stroke-width="0.5"></line><line x1="711.255" y1="425.4" x2="711.255" y2="428.1" stroke="#666" stroke-width="0.5"></line><line x1="711.255" y1="428.1" x2="723.755" y2="428.1" stroke="#666" stroke-width="0.5"></line></g><rect x="693.755" y="421.35" width="83.195" height="13.5" fill="#fff" opacity="0"></rect><text font-size="13.50" x="728.8" y="432.2" fill="#34983f"><tspan x="728.755" y="432.15000000000003">All ages</tspan></text></g><g class="legendMark"><g class="indicator"><line x1="698.755" y1="429.8" x2="704.5883333333334" y2="429.8" stroke="#666" stroke-width="0.5"></line><line x1="704.5883333333334" y1="429.8" x2="704.5883333333334" y2="443.6" stroke="#666" stroke-width="0.5"></line><line x1="704.5883333333334" y1="443.6" x2="723.755" y2="443.6" stroke="#666" stroke-width="0.5"></line></g><rect x="693.755" y="436.85" width="141.245" height="13.5" fill="#fff" opacity="0"></rect><text font-size="13.50" x="728.8" y="447.7" fill="#ca2628"><tspan x="728.755" y="447.65000000000003">Age-standardized</tspan></text></g><g class="legendMark"><g class="indicator"><line x1="698.755" y1="528.7" x2="711.255" y2="528.7" stroke="#666" stroke-width="0.5"></line><line x1="711.255" y1="528.7" x2="711.255" y2="528.7" stroke="#666" stroke-width="0.5"></line><line x1="711.255" y1="528.7" x2="723.755" y2="528.7" stroke="#666" stroke-width="0.5"></line></g><rect x="693.755" y="521.95" width="120.86" height="13.5" fill="#fff" opacity="0"></rect><text font-size="13.50" x="728.8" y="532.8" fill="#3360a9"><tspan x="728.755" y="532.75">5-14 years old</tspan></text></g></g><g class="Lines"><rect x="38" y="123" width="656" height="412" fill="rgba(255,255,255,0)" opacity="0"></rect><g class="key-World_0"><path stroke="#34983f" stroke-linecap="round" d="M38 387L62 385L87 382L111 379L135 378L160 379L184 383L208 386L232 388L257 390L281 393L305 399L330 403L354 405L378 406L402 406L427 410L451 413L475 414L500 415L524 416L548 417L572 420L597 422L621 423L645 425L670 425L694 425" fill="none" stroke-width="1.5"></path><g fill="#34983f"><circle cx="38" cy="387" r="2"></circle><circle cx="62" cy="385" r="2"></circle><circle cx="87" cy="382" r="2"></circle><circle cx="111" cy="379" r="2"></circle><circle cx="135" cy="378" r="2"></circle><circle cx="160" cy="379" r="2"></circle><circle cx="184" cy="383" r="2"></circle><circle cx="208" cy="386" r="2"></circle><circle cx="232" cy="388" r="2"></circle><circle cx="257" cy="390" r="2"></circle><circle cx="281" cy="393" r="2"></circle><circle cx="305" cy="399" r="2"></circle><circle cx="330" cy="403" r="2"></circle><circle cx="354" cy="405" r="2"></circle><circle cx="378" cy="406" r="2"></circle><circle cx="402" cy="406" r="2"></circle><circle cx="427" cy="410" r="2"></circle><circle cx="451" cy="413" r="2"></circle><circle cx="475" cy="414" r="2"></circle><circle cx="500" cy="415" r="2"></circle><circle cx="524" cy="416" r="2"></circle><circle cx="548" cy="417" r="2"></circle><circle cx="572" cy="420" r="2"></circle><circle cx="597" cy="422" r="2"></circle><circle cx="621" cy="423" r="2"></circle><circle cx="645" cy="425" r="2"></circle><circle cx="670" cy="425" r="2"></circle><circle cx="694" cy="425" r="2"></circle></g></g><g class="key-World_1"><path stroke="#2a939b" stroke-linecap="round" d="M38 126L62 123L87 125L111 124L135 125L160 129L184 140L208 147L232 152L257 161L281 172L305 187L330 191L354 177L378 174L402 177L427 188L451 197L475 201L500 206L524 210L548 218L572 226L597 236L621 240L645 241L670 244L694 245" fill="none" stroke-width="1.5"></path><g fill="#2a939b"><circle cx="38" cy="126" r="2"></circle><circle cx="62" cy="123" r="2"></circle><circle cx="87" cy="125" r="2"></circle><circle cx="111" cy="124" r="2"></circle><circle cx="135" cy="125" r="2"></circle><circle cx="160" cy="129" r="2"></circle><circle cx="184" cy="140" r="2"></circle><circle cx="208" cy="147" r="2"></circle><circle cx="232" cy="152" r="2"></circle><circle cx="257" cy="161" r="2"></circle><circle cx="281" cy="172" r="2"></circle><circle cx="305" cy="187" r="2"></circle><circle cx="330" cy="191" r="2"></circle><circle cx="354" cy="177" r="2"></circle><circle cx="378" cy="174" r="2"></circle><circle cx="402" cy="177" r="2"></circle><circle cx="427" cy="188" r="2"></circle><circle cx="451" cy="197" r="2"></circle><circle cx="475" cy="201" r="2"></circle><circle cx="500" cy="206" r="2"></circle><circle cx="524" cy="210" r="2"></circle><circle cx="548" cy="218" r="2"></circle><circle cx="572" cy="226" r="2"></circle><circle cx="597" cy="236" r="2"></circle><circle cx="621" cy="240" r="2"></circle><circle cx="645" cy="241" r="2"></circle><circle cx="670" cy="244" r="2"></circle><circle cx="694" cy="245" r="2"></circle></g></g><g class="key-World_2"><path stroke="#a652ba" stroke-linecap="round" d="M38 295L62 294L87 292L111 286L135 284L160 287L184 294L208 300L232 304L257 308L281 312L305 318L330 319L354 316L378 319L402 322L427 330L451 337L475 341L500 346L524 350L548 353L572 356L597 359L621 359L645 359L670 361L694 364" fill="none" stroke-width="1.5"></path><g fill="#a652ba"><circle cx="38" cy="295" r="2"></circle><circle cx="62" cy="294" r="2"></circle><circle cx="87" cy="292" r="2"></circle><circle cx="111" cy="286" r="2"></circle><circle cx="135" cy="284" r="2"></circle><circle cx="160" cy="287" r="2"></circle><circle cx="184" cy="294" r="2"></circle><circle cx="208" cy="300" r="2"></circle><circle cx="232" cy="304" r="2"></circle><circle cx="257" cy="308" r="2"></circle><circle cx="281" cy="312" r="2"></circle><circle cx="305" cy="318" r="2"></circle><circle cx="330" cy="319" r="2"></circle><circle cx="354" cy="316" r="2"></circle><circle cx="378" cy="319" r="2"></circle><circle cx="402" cy="322" r="2"></circle><circle cx="427" cy="330" r="2"></circle><circle cx="451" cy="337" r="2"></circle><circle cx="475" cy="341" r="2"></circle><circle cx="500" cy="346" r="2"></circle><circle cx="524" cy="350" r="2"></circle><circle cx="548" cy="353" r="2"></circle><circle cx="572" cy="356" r="2"></circle><circle cx="597" cy="359" r="2"></circle><circle cx="621" cy="359" r="2"></circle><circle cx="645" cy="359" r="2"></circle><circle cx="670" cy="361" r="2"></circle><circle cx="694" cy="364" r="2"></circle></g></g><g class="key-World_3"><path stroke="#f6a324" stroke-linecap="round" d="M38 338L62 336L87 332L111 329L135 328L160 329L184 335L208 341L232 346L257 348L281 354L305 365L330 373L354 379L378 383L402 384L427 389L451 393L475 394L500 395L524 396L548 399L572 403L597 406L621 408L645 411L670 412L694 413" fill="none" stroke-width="1.5"></path><g fill="#f6a324"><circle cx="38" cy="338" r="2"></circle><circle cx="62" cy="336" r="2"></circle><circle cx="87" cy="332" r="2"></circle><circle cx="111" cy="329" r="2"></circle><circle cx="135" cy="328" r="2"></circle><circle cx="160" cy="329" r="2"></circle><circle cx="184" cy="335" r="2"></circle><circle cx="208" cy="341" r="2"></circle><circle cx="232" cy="346" r="2"></circle><circle cx="257" cy="348" r="2"></circle><circle cx="281" cy="354" r="2"></circle><circle cx="305" cy="365" r="2"></circle><circle cx="330" cy="373" r="2"></circle><circle cx="354" cy="379" r="2"></circle><circle cx="378" cy="383" r="2"></circle><circle cx="402" cy="384" r="2"></circle><circle cx="427" cy="389" r="2"></circle><circle cx="451" cy="393" r="2"></circle><circle cx="475" cy="394" r="2"></circle><circle cx="500" cy="395" r="2"></circle><circle cx="524" cy="396" r="2"></circle><circle cx="548" cy="399" r="2"></circle><circle cx="572" cy="403" r="2"></circle><circle cx="597" cy="406" r="2"></circle><circle cx="621" cy="408" r="2"></circle><circle cx="645" cy="411" r="2"></circle><circle cx="670" cy="412" r="2"></circle><circle cx="694" cy="413" r="2"></circle></g></g><g class="key-World_4"><path stroke="#3360a9" stroke-linecap="round" d="M38 523L62 523L87 523L111 523L135 523L160 523L184 524L208 524L232 524L257 524L281 524L305 525L330 526L354 527L378 526L402 527L427 527L451 527L475 527L500 527L524 527L548 527L572 527L597 528L621 528L645 528L670 528L694 529" fill="none" stroke-width="1.5"></path><g fill="#3360a9"><circle cx="38" cy="523" r="2"></circle><circle cx="62" cy="523" r="2"></circle><circle cx="87" cy="523" r="2"></circle><circle cx="111" cy="523" r="2"></circle><circle cx="135" cy="523" r="2"></circle><circle cx="160" cy="523" r="2"></circle><circle cx="184" cy="524" r="2"></circle><circle cx="208" cy="524" r="2"></circle><circle cx="232" cy="524" r="2"></circle><circle cx="257" cy="524" r="2"></circle><circle cx="281" cy="524" r="2"></circle><circle cx="305" cy="525" r="2"></circle><circle cx="330" cy="526" r="2"></circle><circle cx="354" cy="527" r="2"></circle><circle cx="378" cy="526" r="2"></circle><circle cx="402" cy="527" r="2"></circle><circle cx="427" cy="527" r="2"></circle><circle cx="451" cy="527" r="2"></circle><circle cx="475" cy="527" r="2"></circle><circle cx="500" cy="527" r="2"></circle><circle cx="524" cy="527" r="2"></circle><circle cx="548" cy="527" r="2"></circle><circle cx="572" cy="527" r="2"></circle><circle cx="597" cy="528" r="2"></circle><circle cx="621" cy="528" r="2"></circle><circle cx="645" cy="528" r="2"></circle><circle cx="670" cy="528" r="2"></circle><circle cx="694" cy="529" r="2"></circle></g></g><g class="key-World_5"><path stroke="#ca2628" stroke-linecap="round" d="M38 372L62 371L87 369L111 366L135 366L160 367L184 372L208 376L232 380L257 382L281 386L305 393L330 398L354 400L378 402L402 403L427 408L451 411L475 413L500 415L524 417L548 419L572 422L597 425L621 426L645 428L670 429L694 430" fill="none" stroke-width="1.5"></path><g fill="#ca2628"><circle cx="38" cy="372" r="2"></circle><circle cx="62" cy="371" r="2"></circle><circle cx="87" cy="369" r="2"></circle><circle cx="111" cy="366" r="2"></circle><circle cx="135" cy="366" r="2"></circle><circle cx="160" cy="367" r="2"></circle><circle cx="184" cy="372" r="2"></circle><circle cx="208" cy="376" r="2"></circle><circle cx="232" cy="380" r="2"></circle><circle cx="257" cy="382" r="2"></circle><circle cx="281" cy="386" r="2"></circle><circle cx="305" cy="393" r="2"></circle><circle cx="330" cy="398" r="2"></circle><circle cx="354" cy="400" r="2"></circle><circle cx="378" cy="402" r="2"></circle><circle cx="402" cy="403" r="2"></circle><circle cx="427" cy="408" r="2"></circle><circle cx="451" cy="411" r="2"></circle><circle cx="475" cy="413" r="2"></circle><circle cx="500" cy="415" r="2"></circle><circle cx="524" cy="417" r="2"></circle><circle cx="548" cy="419" r="2"></circle><circle cx="572" cy="422" r="2"></circle><circle cx="597" cy="425" r="2"></circle><circle cx="621" cy="426" r="2"></circle><circle cx="645" cy="428" r="2"></circle><circle cx="670" cy="429" r="2"></circle><circle cx="694" cy="430" r="2"></circle></g></g></g></g></g><g style="fill: #777;" class="SourcesFooter"><g style="fill: #777;" class="clickable"><text font-size="12.60" x="15.0" y="581.6"><tspan x="15" y="581.58">Source: IHME, Global Burden of Disease (GBD)</tspan></text></g><text font-size="12.60" x="602.7" y="581.6"><tspan x="602.656" y="581.58"><a target='_blank' style='fill: #777;' href='https://ourworldindata.org/suicide/'>OurWorldInData.org/suicide/</a> • <a style="fill: #777;" class="cclogo" href="http://creativecommons.org/licenses/by-sa/4.0/deed.en_US" target="_blank">CC BY-SA</a></tspan></text></g></g></svg>