<svg xmlns="http://www.w3.org/2000/svg" version="1.1" style="font-family: 'Helvetica Neue', Helvetica, Arial, sans-serif; font-size: 18px; background-color: white; text-rendering: optimizeLegibility; -webkit-font-smoothing: antialiased;" width="850" height="600"><g class="ChartTab"><g class="HeaderView"><g opacity="0.8" transform="translate(778, 15) scale(0.27)"><a xmlns:xlink="http://www.w3.org/1999/xlink" xlink:href="https://ourworldindata.org" target="_blank"><g><rect x="0" y="0" fill="#1B2543" width="211.2" height="130.1"/><rect x="0" y="112.2" fill="#E63912" width="211.2" height="17.9"/><g><rect x="1.2" y="12.3" fill="none" width="210.2" height="99.2"/><path fill="#FFFFFF" d="M37.8,32.2c0,12.7-7.7,19.4-17.1,19.4c-9.7,0-16.6-7.5-16.6-18.7c0-11.7,7.3-19.3,17.1-19.3 C31.3,13.7,37.8,21.3,37.8,32.2z M9.2,32.8c0,7.9,4.3,14.9,11.8,14.9c7.5,0,11.8-6.9,11.8-15.3c0-7.3-3.8-14.9-11.8-14.9 C13.1,17.5,9.2,24.8,9.2,32.8z"/><path fill="#FFFFFF" d="M62.7,43.8c0,2.7,0.1,5.1,0.2,7.2h-4.3l-0.3-4.3h-0.1c-1.3,2.1-4,4.9-8.8,4.9c-4.2,0-9.1-2.3-9.1-11.6 V24.6h4.8v14.6c0,5,1.5,8.4,5.9,8.4c3.2,0,5.5-2.2,6.3-4.4c0.3-0.7,0.4-1.6,0.4-2.5V24.6h4.8V43.8z"/><path fill="#FFFFFF" d="M67.3,32.8c0-3.1-0.1-5.8-0.2-8.2h4.2l0.2,5.2h0.2c1.2-3.5,4.1-5.8,7.3-5.8c0.5,0,0.9,0.1,1.4,0.2v4.5 c-0.5-0.1-1-0.2-1.6-0.2c-3.4,0-5.8,2.6-6.5,6.2c-0.1,0.7-0.2,1.4-0.2,2.2V51h-4.8V32.8z"/><path fill="#FFFFFF" d="M95.4,51l-9.4-36.8h5l4.4,18.6c1.1,4.6,2.1,9.2,2.7,12.7h0.1c0.6-3.7,1.8-8,3-12.8l4.9-18.5h5l4.5,18.7 c1,4.4,2,8.7,2.6,12.6h0.1c0.8-4,1.8-8.1,3-12.7l4.9-18.5h4.9L120.6,51h-5L111,31.9c-1.1-4.7-1.9-8.3-2.4-12h-0.1 c-0.7,3.7-1.5,7.3-2.8,12L100.4,51H95.4z"/><path fill="#FFFFFF" d="M154.9,37.6c0,9.8-6.8,14-13.2,14c-7.2,0-12.7-5.2-12.7-13.6c0-8.8,5.8-14,13.1-14 C149.8,24,154.9,29.5,154.9,37.6z M133.9,37.9c0,5.8,3.3,10.1,8,10.1c4.6,0,8-4.3,8-10.3c0-4.5-2.2-10.1-7.9-10.1 C136.3,27.6,133.9,32.8,133.9,37.9z"/><path fill="#FFFFFF" d="M158.2,32.8c0-3.1-0.1-5.8-0.2-8.2h4.2l0.2,5.2h0.2c1.2-3.5,4.1-5.8,7.3-5.8c0.5,0,0.9,0.1,1.4,0.2v4.5 c-0.5-0.1-1-0.2-1.6-0.2c-3.4,0-5.8,2.6-6.5,6.2c-0.1,0.7-0.2,1.4-0.2,2.2V51h-4.8V32.8z"/><path fill="#FFFFFF" d="M173.5,12.3h4.8V51h-4.8V12.3z"/><path fill="#FFFFFF" d="M206.5,12.3v31.9c0,2.3,0.1,5,0.2,6.8h-4.3l-0.2-4.6H202c-1.5,2.9-4.7,5.2-9,5.2 c-6.4,0-11.3-5.4-11.3-13.4c-0.1-8.8,5.4-14.2,11.9-14.2c4,0,6.8,1.9,8,4h0.1V12.3H206.5z M201.7,35.4c0-0.6-0.1-1.4-0.2-2 c-0.7-3.1-3.3-5.6-6.9-5.6c-5,0-7.9,4.4-7.9,10.2c0,5.3,2.6,9.8,7.8,9.8c3.2,0,6.2-2.1,7.1-5.7c0.2-0.7,0.2-1.3,0.2-2.1V35.4z"/><path fill="#FFFFFF" d="M42.8,64c0.1,1.6-1.1,2.9-3.1,2.9c-1.7,0-2.9-1.3-2.9-2.9c0-1.7,1.3-3,3-3C41.7,61,42.8,62.3,42.8,64z M37.4,97.8V71.4h4.8v26.4H37.4z"/><path fill="#FFFFFF" d="M47.5,78.6c0-2.7-0.1-5-0.2-7.1h4.3l0.3,4.4h0.1c1.3-2.5,4.4-5,8.8-5c3.7,0,9.4,2.2,9.4,11.2v15.8h-4.8 V82.6c0-4.3-1.6-7.8-6.1-7.8c-3.2,0-5.6,2.2-6.5,4.9c-0.2,0.6-0.3,1.4-0.3,2.2v15.9h-4.8V78.6z"/><path fill="#FFFFFF" d="M84,61.6c2.9-0.4,6.3-0.8,10.1-0.8c6.8,0,11.7,1.6,14.9,4.6c3.3,3,5.2,7.3,5.2,13.2c0,6-1.9,10.9-5.3,14.3 c-3.4,3.4-9.1,5.3-16.3,5.3c-3.4,0-6.2-0.2-8.6-0.4V61.6z M88.8,94.1c1.2,0.2,3,0.3,4.8,0.3c10.2,0,15.7-5.7,15.7-15.6 c0.1-8.7-4.9-14.2-14.9-14.2c-2.5,0-4.3,0.2-5.6,0.5V94.1z"/><path fill="#FFFFFF" d="M132.1,97.8l-0.4-3.3h-0.2c-1.5,2.1-4.3,3.9-8.1,3.9c-5.4,0-8.1-3.8-8.1-7.6c0-6.4,5.7-9.9,15.9-9.8v-0.5 c0-2.2-0.6-6.1-6-6.1c-2.5,0-5,0.8-6.9,2l-1.1-3.2c2.2-1.4,5.4-2.3,8.7-2.3c8.1,0,10.1,5.5,10.1,10.8v9.9c0,2.3,0.1,4.5,0.4,6.3 H132.1z M131.4,84.4c-5.3-0.1-11.2,0.8-11.2,5.9c0,3.1,2.1,4.6,4.5,4.6c3.4,0,5.6-2.2,6.4-4.4c0.2-0.5,0.3-1,0.3-1.5V84.4z"/><path fill="#FFFFFF" d="M146.6,63.9v7.6h6.9v3.7h-6.9v14.2c0,3.3,0.9,5.1,3.6,5.1c1.3,0,2.2-0.2,2.8-0.3l0.2,3.6 c-0.9,0.4-2.4,0.7-4.3,0.7c-2.2,0-4-0.7-5.2-2c-1.4-1.4-1.9-3.8-1.9-6.9V75.1h-4.1v-3.7h4.1v-6.3L146.6,63.9z"/><path fill="#FFFFFF" d="M171.4,97.8l-0.4-3.3h-0.2c-1.5,2.1-4.3,3.9-8.1,3.9c-5.4,0-8.1-3.8-8.1-7.6c0-6.4,5.7-9.9,15.9-9.8v-0.5 c0-2.2-0.6-6.1-6-6.1c-2.5,0-5,0.8-6.9,2l-1.1-3.2c2.2-1.4,5.4-2.3,8.7-2.3c8.1,0,10.1,5.5,10.1,10.8v9.9c0,2.3,0.1,4.5,0.4,6.3 H171.4z M170.7,84.4c-5.3-0.1-11.2,0.8-11.2,5.9c0,3.1,2.1,4.6,4.5,4.6c3.4,0,5.6-2.2,6.4-4.4c0.2-0.5,0.3-1,0.3-1.5V84.4z"/></g></g></a></g><a href="https://ourworldindata.org/grapher/supply-chain-losses-by-food-commodity" target="_blank"><text font-size="25.20" x="15.0" y="35.2" fill="#555"><tspan x="15" y="35.160000000000004">Supply chain losses by food commodity, World</tspan></text></a><text font-size="14.40" x="15.0" y="53.7" fill="#666"><tspan x="15" y="53.72">Total supply chain losses of food commodities, measured in tonnes per year. Supply-chain losses include losses at</tspan><tspan x="15" y="69.56">the production, post-harvest, processing and distribution phases but does not account for wastage at the</tspan><tspan x="15" y="85.4">consumption (consumer) level.</tspan></text></g><g class="StackedArea"><defs><clipPath id="boundsClip-719"><rect x="106.67" y="0" width="820" height="897.8"></rect></clipPath></defs><g class="AxisBoxView"><g class="HorizontalAxis"><text x="106.7" y="556.5" fill="#666" text-anchor="middle" font-size="16.2">1961</text><text x="211.9" y="556.5" fill="#666" text-anchor="middle" font-size="16.2">1970</text><text x="328.9" y="556.5" fill="#666" text-anchor="middle" font-size="16.2">1980</text><text x="445.9" y="556.5" fill="#666" text-anchor="middle" font-size="16.2">1990</text><text x="562.9" y="556.5" fill="#666" text-anchor="middle" font-size="16.2">2000</text><text x="715" y="556.5" fill="#666" text-anchor="middle" font-size="16.2">2013</text></g><g class="VerticalAxis"><text x="101.67" y="535.3" fill="#666" dominant-baseline="middle" text-anchor="end" font-size="16.2">0 t</text><text x="101.67" y="479.1" fill="#666" dominant-baseline="middle" text-anchor="end" font-size="16.2">50 million t</text><text x="101.67" y="422.9" fill="#666" dominant-baseline="middle" text-anchor="end" font-size="16.2">100 million t</text><text x="101.67" y="366.7" fill="#666" dominant-baseline="middle" text-anchor="end" font-size="16.2">150 million t</text><text x="101.67" y="310.5" fill="#666" dominant-baseline="middle" text-anchor="end" font-size="16.2">200 million t</text><text x="101.67" y="254.3" fill="#666" dominant-baseline="middle" text-anchor="end" font-size="16.2">250 million t</text><text x="101.67" y="198.1" fill="#666" dominant-baseline="middle" text-anchor="end" font-size="16.2">300 million t</text><text x="101.67" y="141.8" fill="#666" dominant-baseline="middle" text-anchor="end" font-size="16.2">350 million t</text></g><g class="AxisGridLines"><line x1="106.67" y1="535.3" x2="714.95" y2="535.3" stroke="#ccc"></line><line x1="106.67" y1="479.1" x2="714.95" y2="479.1" stroke="#ddd" stroke-dasharray="3,2"></line><line x1="106.67" y1="422.9" x2="714.95" y2="422.9" stroke="#ddd" stroke-dasharray="3,2"></line><line x1="106.67" y1="366.7" x2="714.95" y2="366.7" stroke="#ddd" stroke-dasharray="3,2"></line><line x1="106.67" y1="310.5" x2="714.95" y2="310.5" stroke="#ddd" stroke-dasharray="3,2"></line><line x1="106.67" y1="254.3" x2="714.95" y2="254.3" stroke="#ddd" stroke-dasharray="3,2"></line><line x1="106.67" y1="198.1" x2="714.95" y2="198.1" stroke="#ddd" stroke-dasharray="3,2"></line><line x1="106.67" y1="141.8" x2="714.95" y2="141.8" stroke="#ddd" stroke-dasharray="3,2"></line></g></g><g clip-path="url(#boundsClip-719)"><g class="HeightedLegend clickable"><g class="legendMark"><g class="indicator"><line x1="719.95" y1="109.6" x2="741.0214285714286" y2="109.6" stroke="#666" stroke-width="0.5"></line><line x1="741.0214285714286" y1="109.6" x2="741.0214285714286" y2="109.6" stroke="#666" stroke-width="0.5"></line><line x1="741.0214285714286" y1="109.6" x2="744.95" y2="109.6" stroke="#666" stroke-width="0.5"></line></g><rect x="714.95" y="102.85" width="75.635" height="13.5" fill="#fff" opacity="0"></rect><text font-size="13.50" x="750.0" y="113.6" fill="#a85a4a"><tspan x="749.95" y="113.64999999999999">Pulses</tspan></text></g><g class="legendMark"><g class="indicator"><line x1="719.95" y1="119.1" x2="738.1642857142857" y2="119.1" stroke="#666" stroke-width="0.5"></line><line x1="738.1642857142857" y1="119.1" x2="738.1642857142857" y2="125.1" stroke="#666" stroke-width="0.5"></line><line x1="738.1642857142857" y1="125.1" x2="744.95" y2="125.1" stroke="#666" stroke-width="0.5"></line></g><rect x="714.95" y="118.35" width="84.545" height="13.5" fill="#fff" opacity="0"></rect><text font-size="13.50" x="750.0" y="129.2" fill="#df3c64"><tspan x="749.95" y="129.15">Oilcrops</tspan></text></g><g class="legendMark"><g class="indicator"><line x1="719.95" y1="126.7" x2="735.3071428571429" y2="126.7" stroke="#666" stroke-width="0.5"></line><line x1="735.3071428571429" y1="126.7" x2="735.3071428571429" y2="140.6" stroke="#666" stroke-width="0.5"></line><line x1="735.3071428571429" y1="140.6" x2="744.95" y2="140.6" stroke="#666" stroke-width="0.5"></line></g><rect x="714.95" y="133.85" width="71.18" height="13.5" fill="#fff" opacity="0"></rect><text font-size="13.50" x="750.0" y="144.7" fill="#f6a324"><tspan x="749.95" y="144.65">Sugar</tspan></text></g><g class="legendMark"><g class="indicator"><line x1="719.95" y1="127.5" x2="732.45" y2="127.5" stroke="#666" stroke-width="0.5"></line><line x1="732.45" y1="127.5" x2="732.45" y2="156.1" stroke="#666" stroke-width="0.5"></line><line x1="732.45" y1="156.1" x2="744.95" y2="156.1" stroke="#666" stroke-width="0.5"></line></g><rect x="714.95" y="149.35" width="65.105" height="13.5" fill="#fff" opacity="0"></rect><text font-size="13.50" x="750.0" y="160.2" fill="#6bb537"><tspan x="749.95" y="160.15">Meat</tspan></text></g><g class="legendMark"><g class="indicator"><line x1="719.95" y1="130.1" x2="729.5928571428572" y2="130.1" stroke="#666" stroke-width="0.5"></line><line x1="729.5928571428572" y1="130.1" x2="729.5928571428572" y2="171.6" stroke="#666" stroke-width="0.5"></line><line x1="729.5928571428572" y1="171.6" x2="744.95" y2="171.6" stroke="#666" stroke-width="0.5"></line></g><rect x="714.95" y="164.85" width="65.915" height="13.5" fill="#fff" opacity="0"></rect><text font-size="13.50" x="750.0" y="175.7" fill="#9ecc8a"><tspan x="749.95" y="175.65">Eggs</tspan></text></g><g class="legendMark"><g class="indicator"><line x1="719.95" y1="142.7" x2="726.7357142857144" y2="142.7" stroke="#666" stroke-width="0.5"></line><line x1="726.7357142857144" y1="142.7" x2="726.7357142857144" y2="187.1" stroke="#666" stroke-width="0.5"></line><line x1="726.7357142857144" y1="187.1" x2="744.95" y2="187.1" stroke="#666" stroke-width="0.5"></line></g><rect x="714.95" y="180.35" width="58.895" height="13.5" fill="#fff" opacity="0"></rect><text font-size="13.50" x="750.0" y="191.2" fill="#34983f"><tspan x="749.95" y="191.15">Milk</tspan></text></g><g class="legendMark"><g class="indicator"><line x1="719.95" y1="187.4" x2="723.8785714285715" y2="187.4" stroke="#666" stroke-width="0.5"></line><line x1="723.8785714285715" y1="187.4" x2="723.8785714285715" y2="202.6" stroke="#666" stroke-width="0.5"></line><line x1="723.8785714285715" y1="202.6" x2="744.95" y2="202.6" stroke="#666" stroke-width="0.5"></line></g><rect x="714.95" y="195.85" width="68.75" height="13.5" fill="#fff" opacity="0"></rect><text font-size="13.50" x="750.0" y="206.7" fill="#ffd53e"><tspan x="749.95" y="206.65">Fruits</tspan></text></g><g class="legendMark"><g class="indicator"><line x1="719.95" y1="271.8" x2="732.45" y2="271.8" stroke="#666" stroke-width="0.5"></line><line x1="732.45" y1="271.8" x2="732.45" y2="271.8" stroke="#666" stroke-width="0.5"></line><line x1="732.45" y1="271.8" x2="744.95" y2="271.8" stroke="#666" stroke-width="0.5"></line></g><rect x="714.95" y="265.05" width="102.905" height="13.5" fill="#fff" opacity="0"></rect><text font-size="13.50" x="750.0" y="275.9" fill="#818282"><tspan x="749.95" y="275.85">Vegetables</tspan></text></g><g class="legendMark"><g class="indicator"><line x1="719.95" y1="368.5" x2="732.45" y2="368.5" stroke="#666" stroke-width="0.5"></line><line x1="732.45" y1="368.5" x2="732.45" y2="368.5" stroke="#666" stroke-width="0.5"></line><line x1="732.45" y1="368.5" x2="744.95" y2="368.5" stroke="#666" stroke-width="0.5"></line></g><rect x="714.95" y="361.75" width="120.05000000000001" height="13.5" fill="#fff" opacity="0"></rect><text font-size="13.50" x="750.0" y="372.6" fill="#ca2628"><tspan x="749.95" y="372.55">Starchy Roots</tspan></text></g><g class="legendMark"><g class="indicator"><line x1="719.95" y1="475.1" x2="732.45" y2="475.1" stroke="#666" stroke-width="0.5"></line><line x1="732.45" y1="475.1" x2="732.45" y2="475.1" stroke="#666" stroke-width="0.5"></line><line x1="732.45" y1="475.1" x2="744.95" y2="475.1" stroke="#666" stroke-width="0.5"></line></g><rect x="714.95" y="468.35" width="81.575" height="13.5" fill="#fff" opacity="0"></rect><text font-size="13.50" x="750.0" y="479.2" fill="#3360a9"><tspan x="749.95" y="479.15000000000003">Cereals</tspan></text></g></g><g class="Areas"><rect x="106.67" y="107.60000000000001" width="608.2800000000001" height="427.69999999999993" opacity="0" fill="rgba(255,255,255,0)"></rect><path stroke-linecap="round" d="M106.7 499.4L118.4 497L130.1 496.6L141.8 490.2L153.5 492.8L165.2 491.2L176.9 490.7L188.6 486.3L200.3 482.2L211.9 478.7L223.6 484.9L235.3 481.4L247 471.7L258.7 474.2L270.4 478L282.1 467.3L293.8 466.5L305.5 462.4L317.2 464L328.9 455.6L340.6 461.6L352.3 457.1L364 453.8L375.7 451.9L387.4 449.6L399.1 447.7L410.8 443.2L422.5 446.3L434.2 440.4L445.9 435.2L457.6 437.1L469.3 447L481 447.7L492.7 448.5L504.4 447L516.1 445.5L527.8 443.4L539.5 442.4L551.2 442.1L562.9 444.3L574.6 442.3L586.3 444.4L598 444.2L609.7 442.5L621.4 442.8L633.1 438.6L644.8 436.7L656.5 429.6L668.2 428.7L679.9 424.9L691.6 422L703.3 419.6L715 414.9L714.95 535.3L106.67 535.3" fill="#3360a9" fill-opacity="0.7" class="World_2-area"></path><path stroke-linecap="round" d="M106.7 457.7L118.4 456.7L130.1 451.2L141.8 446.7L153.5 448.3L165.2 444.9L176.9 443.6L188.6 438.9L200.3 435L211.9 429.6L223.6 438.5L235.3 435.4L247 421.9L258.7 425.3L270.4 430L282.1 418.2L293.8 416.6L305.5 409.9L317.2 411.9L328.9 410.7L340.6 413L352.3 408.6L364 406.2L375.7 400.2L387.4 395.5L399.1 394.9L410.8 392.2L422.5 397.1L434.2 389.6L445.9 382.6L457.6 385.4L469.3 396.5L481 393.1L492.7 397.7L504.4 393.9L516.1 389L527.8 388.1L539.5 384.5L551.2 382.3L562.9 382.2L574.6 380.5L586.3 382L598 380L609.7 374.2L621.4 373.9L633.1 369.6L644.8 366.2L656.5 357L668.2 355.5L679.9 347.2L691.6 334.9L703.3 334L715 322.2L715 414.9L703.3 419.6L691.6 422L679.9 424.9L668.2 428.7L656.5 429.6L644.8 436.7L633.1 438.6L621.4 442.8L609.7 442.5L598 444.2L586.3 444.4L574.6 442.3L562.9 444.3L551.2 442.1L539.5 442.4L527.8 443.4L516.1 445.5L504.4 447L492.7 448.5L481 447.7L469.3 447L457.6 437.1L445.9 435.2L434.2 440.4L422.5 446.3L410.8 443.2L399.1 447.7L387.4 449.6L375.7 451.9L364 453.8L352.3 457.1L340.6 461.6L328.9 455.6L317.2 464L305.5 462.4L293.8 466.5L282.1 467.3L270.4 478L258.7 474.2L247 471.7L235.3 481.4L223.6 484.9L211.9 478.7L200.3 482.2L188.6 486.3L176.9 490.7L165.2 491.2L153.5 492.8L141.8 490.2L130.1 496.6L118.4 497L106.7 499.4" fill="#ca2628" fill-opacity="0.7" class="World_8-area"></path><path stroke-linecap="round" d="M106.7 435.1L118.4 433.9L130.1 428L141.8 423.2L153.5 424.9L165.2 419.9L176.9 417.9L188.6 412.9L200.3 408.4L211.9 403.4L223.6 411.3L235.3 408.4L247 393.7L258.7 396.4L270.4 400L282.1 388.1L293.8 385.3L305.5 376.6L317.2 378L328.9 377.3L340.6 378.5L352.3 372.3L364 368.3L375.7 358.9L387.4 353.9L399.1 349.9L410.8 346.7L422.5 351.6L434.2 342.3L445.9 334.7L457.6 337.2L469.3 347.7L481 341.6L492.7 344.7L504.4 338.8L516.1 330.3L527.8 328.4L539.5 321.6L551.2 314.1L562.9 308L574.6 303.6L586.3 302.8L598 298.6L609.7 292.6L621.4 290.1L633.1 283.8L644.8 274.8L656.5 263.1L668.2 260.1L679.9 248.5L691.6 231L703.3 235.2L715 221.3L715 322.2L703.3 334L691.6 334.9L679.9 347.2L668.2 355.5L656.5 357L644.8 366.2L633.1 369.6L621.4 373.9L609.7 374.2L598 380L586.3 382L574.6 380.5L562.9 382.2L551.2 382.3L539.5 384.5L527.8 388.1L516.1 389L504.4 393.9L492.7 397.7L481 393.1L469.3 396.5L457.6 385.4L445.9 382.6L434.2 389.6L422.5 397.1L410.8 392.2L399.1 394.9L387.4 395.5L375.7 400.2L364 406.2L352.3 408.6L340.6 413L328.9 410.7L317.2 411.9L305.5 409.9L293.8 416.6L282.1 418.2L270.4 430L258.7 425.3L247 421.9L235.3 435.4L223.6 438.5L211.9 429.6L200.3 435L188.6 438.9L176.9 443.6L165.2 444.9L153.5 448.3L141.8 446.7L130.1 451.2L118.4 456.7L106.7 457.7" fill="#818282" fill-opacity="0.7" class="World_9-area"></path><path stroke-linecap="round" d="M106.7 417.7L118.4 415.7L130.1 409.5L141.8 403L153.5 404.6L165.2 399.4L176.9 396.8L188.6 389.9L200.3 384.7L211.9 378L223.6 386.2L235.3 383.5L247 367.6L258.7 369.8L270.4 372.9L282.1 359.6L293.8 357.8L305.5 348L317.2 350.6L328.9 348.6L340.6 349.7L352.3 341.2L364 338.3L375.7 328L387.4 322.9L399.1 316.8L410.8 314.2L422.5 318.5L434.2 307.9L445.9 299.8L457.6 301.5L469.3 310.9L481 304L492.7 306L504.4 298.5L516.1 288.6L527.8 284.6L539.5 278.3L551.2 268.2L562.9 261.4L574.6 257.2L586.3 255.7L598 249.9L609.7 241.7L621.4 238.3L633.1 228.3L644.8 216.5L656.5 202.5L668.2 197.1L679.9 182.9L691.6 163.9L703.3 169.6L715 153.5L715 221.3L703.3 235.2L691.6 231L679.9 248.5L668.2 260.1L656.5 263.1L644.8 274.8L633.1 283.8L621.4 290.1L609.7 292.6L598 298.6L586.3 302.8L574.6 303.6L562.9 308L551.2 314.1L539.5 321.6L527.8 328.4L516.1 330.3L504.4 338.8L492.7 344.7L481 341.6L469.3 347.7L457.6 337.2L445.9 334.7L434.2 342.3L422.5 351.6L410.8 346.7L399.1 349.9L387.4 353.9L375.7 358.9L364 368.3L352.3 372.3L340.6 378.5L328.9 377.3L317.2 378L305.5 376.6L293.8 385.3L282.1 388.1L270.4 400L258.7 396.4L247 393.7L235.3 408.4L223.6 411.3L211.9 403.4L200.3 408.4L188.6 412.9L176.9 417.9L165.2 419.9L153.5 424.9L141.8 423.2L130.1 428L118.4 433.9L106.7 435.1" fill="#ffd53e" fill-opacity="0.7" class="World_3-area"></path><path stroke-linecap="round" d="M106.7 410.2L118.4 408.1L130.1 402.1L141.8 395.3L153.5 396.4L165.2 390.6L176.9 387.7L188.6 380.5L200.3 375.3L211.9 368.8L223.6 376.7L235.3 373.8L247 357.5L258.7 359L270.4 362L282.1 348.6L293.8 346L305.5 336.5L317.2 338.4L328.9 336.1L340.6 336.6L352.3 326.4L364 324.8L375.7 314.3L387.4 308.7L399.1 302.4L410.8 299.3L422.5 303L434.2 292.4L445.9 284.1L457.6 286.3L469.3 299.4L481 292.3L492.7 294.4L504.4 286.7L516.1 276.1L527.8 272.1L539.5 265.6L551.2 254.9L562.9 247.6L574.6 243.1L586.3 241.1L598 234.6L609.7 225.6L621.4 221.8L633.1 211L644.8 198.5L656.5 184L668.2 178.3L679.9 163.3L691.6 143.5L703.3 148.7L715 132L715 153.5L703.3 169.6L691.6 163.9L679.9 182.9L668.2 197.1L656.5 202.5L644.8 216.5L633.1 228.3L621.4 238.3L609.7 241.7L598 249.9L586.3 255.7L574.6 257.2L562.9 261.4L551.2 268.2L539.5 278.3L527.8 284.6L516.1 288.6L504.4 298.5L492.7 306L481 304L469.3 310.9L457.6 301.5L445.9 299.8L434.2 307.9L422.5 318.5L410.8 314.2L399.1 316.8L387.4 322.9L375.7 328L364 338.3L352.3 341.2L340.6 349.7L328.9 348.6L317.2 350.6L305.5 348L293.8 357.8L282.1 359.6L270.4 372.9L258.7 369.8L247 367.6L235.3 383.5L223.6 386.2L211.9 378L200.3 384.7L188.6 389.9L176.9 396.8L165.2 399.4L153.5 404.6L141.8 403L130.1 409.5L118.4 415.7L106.7 417.7" fill="#34983f" fill-opacity="0.7" class="World_0-area"></path><path stroke-linecap="round" d="M106.7 409.7L118.4 407.6L130.1 401.6L141.8 394.7L153.5 395.8L165.2 389.9L176.9 387L188.6 379.8L200.3 374.5L211.9 368L223.6 375.9L235.3 373L247 356.6L258.7 358.2L270.4 361.1L282.1 347.7L293.8 345L305.5 335.4L317.2 337.3L328.9 335L340.6 335.4L352.3 325.2L364 323.6L375.7 313L387.4 307.3L399.1 301L410.8 297.8L422.5 301.5L434.2 290.7L445.9 282.4L457.6 284.5L469.3 297.7L481 290.5L492.7 292.4L504.4 284.5L516.1 273.8L527.8 269.7L539.5 263.2L551.2 252.3L562.9 245L574.6 240.4L586.3 238.3L598 231.8L609.7 222.7L621.4 218.7L633.1 207.8L644.8 195.3L656.5 180.6L668.2 174.9L679.9 159.7L691.6 139.8L703.3 145L715 128.2L715 132L703.3 148.7L691.6 143.5L679.9 163.3L668.2 178.3L656.5 184L644.8 198.5L633.1 211L621.4 221.8L609.7 225.6L598 234.6L586.3 241.1L574.6 243.1L562.9 247.6L551.2 254.9L539.5 265.6L527.8 272.1L516.1 276.1L504.4 286.7L492.7 294.4L481 292.3L469.3 299.4L457.6 286.3L445.9 284.1L434.2 292.4L422.5 303L410.8 299.3L399.1 302.4L387.4 308.7L375.7 314.3L364 324.8L352.3 326.4L340.6 336.6L328.9 336.1L317.2 338.4L305.5 336.5L293.8 346L282.1 348.6L270.4 362L258.7 359L247 357.5L235.3 373.8L223.6 376.7L211.9 368.8L200.3 375.3L188.6 380.5L176.9 387.7L165.2 390.6L153.5 396.4L141.8 395.3L130.1 402.1L118.4 408.1L106.7 410.2" fill="#9ecc8a" fill-opacity="0.7" class="World_4-area"></path><path stroke-linecap="round" d="M106.7 409.4L118.4 407.3L130.1 401.3L141.8 394.4L153.5 395.4L165.2 389.6L176.9 386.6L188.6 379.3L200.3 374.2L211.9 367.6L223.6 375.4L235.3 372.4L247 356.1L258.7 357.6L270.4 360.6L282.1 347.2L293.8 344.6L305.5 334.9L317.2 336.8L328.9 334.4L340.6 334.7L352.3 324.5L364 322.8L375.7 312.1L387.4 306.5L399.1 299.5L410.8 296.9L422.5 300.5L434.2 289.7L445.9 281L457.6 283.1L469.3 296.6L481 289.4L492.7 291.3L504.4 283.6L516.1 272.7L527.8 268.8L539.5 262.4L551.2 251.5L562.9 244L574.6 239.5L586.3 237.3L598 230.8L609.7 221.6L621.4 217.6L633.1 206.6L644.8 193.8L656.5 179L668.2 173.3L679.9 158.6L691.6 138.8L703.3 143.8L715 126.8L715 128.2L703.3 145L691.6 139.8L679.9 159.7L668.2 174.9L656.5 180.6L644.8 195.3L633.1 207.8L621.4 218.7L609.7 222.7L598 231.8L586.3 238.3L574.6 240.4L562.9 245L551.2 252.3L539.5 263.2L527.8 269.7L516.1 273.8L504.4 284.5L492.7 292.4L481 290.5L469.3 297.7L457.6 284.5L445.9 282.4L434.2 290.7L422.5 301.5L410.8 297.8L399.1 301L387.4 307.3L375.7 313L364 323.6L352.3 325.2L340.6 335.4L328.9 335L317.2 337.3L305.5 335.4L293.8 345L282.1 347.7L270.4 361.1L258.7 358.2L247 356.6L235.3 373L223.6 375.9L211.9 368L200.3 374.5L188.6 379.8L176.9 387L165.2 389.9L153.5 395.8L141.8 394.7L130.1 401.6L118.4 407.6L106.7 409.7" fill="#6bb537" fill-opacity="0.7" class="World_6-area"></path><path stroke-linecap="round" d="M106.7 409.3L118.4 407.1L130.1 401.2L141.8 394.3L153.5 395.3L165.2 389.4L176.9 386.4L188.6 379.1L200.3 374L211.9 367.4L223.6 375.2L235.3 372.2L247 355.9L258.7 357.4L270.4 360.4L282.1 346.9L293.8 344.4L305.5 334.7L317.2 336.5L328.9 334.2L340.6 334.5L352.3 324.3L364 322.6L375.7 311.9L387.4 306.2L399.1 299.4L410.8 296.8L422.5 300.4L434.2 289.6L445.9 280.8L457.6 282.9L469.3 296.4L481 289.2L492.7 291.1L504.4 283.4L516.1 272.5L527.8 268.5L539.5 262.1L551.2 251.2L562.9 243.8L574.6 239.2L586.3 237.1L598 230.5L609.7 221.3L621.4 217.4L633.1 206.4L644.8 193.5L656.5 178.7L668.2 173L679.9 158.4L691.6 138.6L703.3 143.6L715 126.6L715 126.8L703.3 143.8L691.6 138.8L679.9 158.6L668.2 173.3L656.5 179L644.8 193.8L633.1 206.6L621.4 217.6L609.7 221.6L598 230.8L586.3 237.3L574.6 239.5L562.9 244L551.2 251.5L539.5 262.4L527.8 268.8L516.1 272.7L504.4 283.6L492.7 291.3L481 289.4L469.3 296.6L457.6 283.1L445.9 281L434.2 289.7L422.5 300.5L410.8 296.9L399.1 299.5L387.4 306.5L375.7 312.1L364 322.8L352.3 324.5L340.6 334.7L328.9 334.4L317.2 336.8L305.5 334.9L293.8 344.6L282.1 347.2L270.4 360.6L258.7 357.6L247 356.1L235.3 372.4L223.6 375.4L211.9 367.6L200.3 374.2L188.6 379.3L176.9 386.6L165.2 389.6L153.5 395.4L141.8 394.4L130.1 401.3L118.4 407.3L106.7 409.4" fill="#f6a324" fill-opacity="0.7" class="World_1-area"></path><path stroke-linecap="round" d="M106.7 405.7L118.4 403.3L130.1 397.5L141.8 390.4L153.5 391.5L165.2 384.9L176.9 381.8L188.6 374.6L200.3 369.2L211.9 362.4L223.6 370L235.3 367.5L247 350.7L258.7 351.7L270.4 354.8L282.1 341.7L293.8 339L305.5 329.3L317.2 330.4L328.9 328.4L340.6 328.4L352.3 317.3L364 316.3L375.7 304.4L387.4 299.7L399.1 292.4L410.8 289.2L422.5 293.1L434.2 280.4L445.9 271.3L457.6 273.8L469.3 285.7L481 279.2L492.7 280.5L504.4 271.5L516.1 260.4L527.8 256.7L539.5 249.7L551.2 238.5L562.9 232.4L574.6 228.9L586.3 227.1L598 220L609.7 210.1L621.4 205.9L633.1 195.1L644.8 181.4L656.5 165.5L668.2 160.3L679.9 144.3L691.6 123.7L703.3 129.8L715 111.7L715 126.6L703.3 143.6L691.6 138.6L679.9 158.4L668.2 173L656.5 178.7L644.8 193.5L633.1 206.4L621.4 217.4L609.7 221.3L598 230.5L586.3 237.1L574.6 239.2L562.9 243.8L551.2 251.2L539.5 262.1L527.8 268.5L516.1 272.5L504.4 283.4L492.7 291.1L481 289.2L469.3 296.4L457.6 282.9L445.9 280.8L434.2 289.6L422.5 300.4L410.8 296.8L399.1 299.4L387.4 306.2L375.7 311.9L364 322.6L352.3 324.3L340.6 334.5L328.9 334.2L317.2 336.5L305.5 334.7L293.8 344.4L282.1 346.9L270.4 360.4L258.7 357.4L247 355.9L235.3 372.2L223.6 375.2L211.9 367.4L200.3 374L188.6 379.1L176.9 386.4L165.2 389.4L153.5 395.3L141.8 394.3L130.1 401.2L118.4 407.1L106.7 409.3" fill="#df3c64" fill-opacity="0.7" class="World_7-area"></path><path stroke-linecap="round" d="M106.7 404.1L118.4 401.4L130.1 395.5L141.8 388.3L153.5 389.6L165.2 383.1L176.9 380L188.6 372.8L200.3 367.3L211.9 360.5L223.6 368.1L235.3 365.6L247 348.8L258.7 349.7L270.4 352.9L282.1 339.7L293.8 337L305.5 327.3L317.2 328.5L328.9 326.5L340.6 326.5L352.3 315.2L364 314L375.7 302.1L387.4 297.3L399.1 290.1L410.8 286.7L422.5 290.6L434.2 277.9L445.9 268.7L457.6 271.4L469.3 283.3L481 276.7L492.7 277.9L504.4 269L516.1 257.8L527.8 254.2L539.5 247.2L551.2 236L562.9 229.8L574.6 226.2L586.3 224.2L598 217.2L609.7 207.2L621.4 203L633.1 192L644.8 178.3L656.5 162.1L668.2 157L679.9 140.4L691.6 119.8L703.3 125.9L715 107.6L715 111.7L703.3 129.8L691.6 123.7L679.9 144.3L668.2 160.3L656.5 165.5L644.8 181.4L633.1 195.1L621.4 205.9L609.7 210.1L598 220L586.3 227.1L574.6 228.9L562.9 232.4L551.2 238.5L539.5 249.7L527.8 256.7L516.1 260.4L504.4 271.5L492.7 280.5L481 279.2L469.3 285.7L457.6 273.8L445.9 271.3L434.2 280.4L422.5 293.1L410.8 289.2L399.1 292.4L387.4 299.7L375.7 304.4L364 316.3L352.3 317.3L340.6 328.4L328.9 328.4L317.2 330.4L305.5 329.3L293.8 339L282.1 341.7L270.4 354.8L258.7 351.7L247 350.7L235.3 367.5L223.6 370L211.9 362.4L200.3 369.2L188.6 374.6L176.9 381.8L165.2 384.9L153.5 391.5L141.8 390.4L130.1 397.5L118.4 403.3L106.7 405.7" fill="#a85a4a" fill-opacity="0.7" class="World_5-area"></path><path stroke-linecap="round" d="M106.7 499.4L118.4 497L130.1 496.6L141.8 490.2L153.5 492.8L165.2 491.2L176.9 490.7L188.6 486.3L200.3 482.2L211.9 478.7L223.6 484.9L235.3 481.4L247 471.7L258.7 474.2L270.4 478L282.1 467.3L293.8 466.5L305.5 462.4L317.2 464L328.9 455.6L340.6 461.6L352.3 457.1L364 453.8L375.7 451.9L387.4 449.6L399.1 447.7L410.8 443.2L422.5 446.3L434.2 440.4L445.9 435.2L457.6 437.1L469.3 447L481 447.7L492.7 448.5L504.4 447L516.1 445.5L527.8 443.4L539.5 442.4L551.2 442.1L562.9 444.3L574.6 442.3L586.3 444.4L598 444.2L609.7 442.5L621.4 442.8L633.1 438.6L644.8 436.7L656.5 429.6L668.2 428.7L679.9 424.9L691.6 422L703.3 419.6L715 414.9" stroke="rgb(43, 80, 141)" stroke-opacity="0.7" stroke-width="0.5" fill="none" class="World_2-border"></path><path stroke-linecap="round" d="M106.7 457.7L118.4 456.7L130.1 451.2L141.8 446.7L153.5 448.3L165.2 444.9L176.9 443.6L188.6 438.9L200.3 435L211.9 429.6L223.6 438.5L235.3 435.4L247 421.9L258.7 425.3L270.4 430L282.1 418.2L293.8 416.6L305.5 409.9L317.2 411.9L328.9 410.7L340.6 413L352.3 408.6L364 406.2L375.7 400.2L387.4 395.5L399.1 394.9L410.8 392.2L422.5 397.1L434.2 389.6L445.9 382.6L457.6 385.4L469.3 396.5L481 393.1L492.7 397.7L504.4 393.9L516.1 389L527.8 388.1L539.5 384.5L551.2 382.3L562.9 382.2L574.6 380.5L586.3 382L598 380L609.7 374.2L621.4 373.9L633.1 369.6L644.8 366.2L656.5 357L668.2 355.5L679.9 347.2L691.6 334.9L703.3 334L715 322.2" stroke="rgb(169, 32, 33)" stroke-opacity="0.7" stroke-width="0.5" fill="none" class="World_8-border"></path><path stroke-linecap="round" d="M106.7 435.1L118.4 433.9L130.1 428L141.8 423.2L153.5 424.9L165.2 419.9L176.9 417.9L188.6 412.9L200.3 408.4L211.9 403.4L223.6 411.3L235.3 408.4L247 393.7L258.7 396.4L270.4 400L282.1 388.1L293.8 385.3L305.5 376.6L317.2 378L328.9 377.3L340.6 378.5L352.3 372.3L364 368.3L375.7 358.9L387.4 353.9L399.1 349.9L410.8 346.7L422.5 351.6L434.2 342.3L445.9 334.7L457.6 337.2L469.3 347.7L481 341.6L492.7 344.7L504.4 338.8L516.1 330.3L527.8 328.4L539.5 321.6L551.2 314.1L562.9 308L574.6 303.6L586.3 302.8L598 298.6L609.7 292.6L621.4 290.1L633.1 283.8L644.8 274.8L656.5 263.1L668.2 260.1L679.9 248.5L691.6 231L703.3 235.2L715 221.3" stroke="rgb(108, 109, 109)" stroke-opacity="0.7" stroke-width="0.5" fill="none" class="World_9-border"></path><path stroke-linecap="round" d="M106.7 417.7L118.4 415.7L130.1 409.5L141.8 403L153.5 404.6L165.2 399.4L176.9 396.8L188.6 389.9L200.3 384.7L211.9 378L223.6 386.2L235.3 383.5L247 367.6L258.7 369.8L270.4 372.9L282.1 359.6L293.8 357.8L305.5 348L317.2 350.6L328.9 348.6L340.6 349.7L352.3 341.2L364 338.3L375.7 328L387.4 322.9L399.1 316.8L410.8 314.2L422.5 318.5L434.2 307.9L445.9 299.8L457.6 301.5L469.3 310.9L481 304L492.7 306L504.4 298.5L516.1 288.6L527.8 284.6L539.5 278.3L551.2 268.2L562.9 261.4L574.6 257.2L586.3 255.7L598 249.9L609.7 241.7L621.4 238.3L633.1 228.3L644.8 216.5L656.5 202.5L668.2 197.1L679.9 182.9L691.6 163.9L703.3 169.6L715 153.5" stroke="rgb(213, 178, 52)" stroke-opacity="0.7" stroke-width="0.5" fill="none" class="World_3-border"></path><path stroke-linecap="round" d="M106.7 410.2L118.4 408.1L130.1 402.1L141.8 395.3L153.5 396.4L165.2 390.6L176.9 387.7L188.6 380.5L200.3 375.3L211.9 368.8L223.6 376.7L235.3 373.8L247 357.5L258.7 359L270.4 362L282.1 348.6L293.8 346L305.5 336.5L317.2 338.4L328.9 336.1L340.6 336.6L352.3 326.4L364 324.8L375.7 314.3L387.4 308.7L399.1 302.4L410.8 299.3L422.5 303L434.2 292.4L445.9 284.1L457.6 286.3L469.3 299.4L481 292.3L492.7 294.4L504.4 286.7L516.1 276.1L527.8 272.1L539.5 265.6L551.2 254.9L562.9 247.6L574.6 243.1L586.3 241.1L598 234.6L609.7 225.6L621.4 221.8L633.1 211L644.8 198.5L656.5 184L668.2 178.3L679.9 163.3L691.6 143.5L703.3 148.7L715 132" stroke="rgb(44, 127, 53)" stroke-opacity="0.7" stroke-width="0.5" fill="none" class="World_0-border"></path><path stroke-linecap="round" d="M106.7 409.7L118.4 407.6L130.1 401.6L141.8 394.7L153.5 395.8L165.2 389.9L176.9 387L188.6 379.8L200.3 374.5L211.9 368L223.6 375.9L235.3 373L247 356.6L258.7 358.2L270.4 361.1L282.1 347.7L293.8 345L305.5 335.4L317.2 337.3L328.9 335L340.6 335.4L352.3 325.2L364 323.6L375.7 313L387.4 307.3L399.1 301L410.8 297.8L422.5 301.5L434.2 290.7L445.9 282.4L457.6 284.5L469.3 297.7L481 290.5L492.7 292.4L504.4 284.5L516.1 273.8L527.8 269.7L539.5 263.2L551.2 252.3L562.9 245L574.6 240.4L586.3 238.3L598 231.8L609.7 222.7L621.4 218.7L633.1 207.8L644.8 195.3L656.5 180.6L668.2 174.9L679.9 159.7L691.6 139.8L703.3 145L715 128.2" stroke="rgb(132, 171, 115)" stroke-opacity="0.7" stroke-width="0.5" fill="none" class="World_4-border"></path><path stroke-linecap="round" d="M106.7 409.4L118.4 407.3L130.1 401.3L141.8 394.4L153.5 395.4L165.2 389.6L176.9 386.6L188.6 379.3L200.3 374.2L211.9 367.6L223.6 375.4L235.3 372.4L247 356.1L258.7 357.6L270.4 360.6L282.1 347.2L293.8 344.6L305.5 334.9L317.2 336.8L328.9 334.4L340.6 334.7L352.3 324.5L364 322.8L375.7 312.1L387.4 306.5L399.1 299.5L410.8 296.9L422.5 300.5L434.2 289.7L445.9 281L457.6 283.1L469.3 296.6L481 289.4L492.7 291.3L504.4 283.6L516.1 272.7L527.8 268.8L539.5 262.4L551.2 251.5L562.9 244L574.6 239.5L586.3 237.3L598 230.8L609.7 221.6L621.4 217.6L633.1 206.6L644.8 193.8L656.5 179L668.2 173.3L679.9 158.6L691.6 138.8L703.3 143.8L715 126.8" stroke="rgb(90, 151, 46)" stroke-opacity="0.7" stroke-width="0.5" fill="none" class="World_6-border"></path><path stroke-linecap="round" d="M106.7 409.3L118.4 407.1L130.1 401.2L141.8 394.3L153.5 395.3L165.2 389.4L176.9 386.4L188.6 379.1L200.3 374L211.9 367.4L223.6 375.2L235.3 372.2L247 355.9L258.7 357.4L270.4 360.4L282.1 346.9L293.8 344.4L305.5 334.7L317.2 336.5L328.9 334.2L340.6 334.5L352.3 324.3L364 322.6L375.7 311.9L387.4 306.2L399.1 299.4L410.8 296.8L422.5 300.4L434.2 289.6L445.9 280.8L457.6 282.9L469.3 296.4L481 289.2L492.7 291.1L504.4 283.4L516.1 272.5L527.8 268.5L539.5 262.1L551.2 251.2L562.9 243.8L574.6 239.2L586.3 237.1L598 230.5L609.7 221.3L621.4 217.4L633.1 206.4L644.8 193.5L656.5 178.7L668.2 173L679.9 158.4L691.6 138.6L703.3 143.6L715 126.6" stroke="rgb(206, 136, 30)" stroke-opacity="0.7" stroke-width="0.5" fill="none" class="World_1-border"></path><path stroke-linecap="round" d="M106.7 405.7L118.4 403.3L130.1 397.5L141.8 390.4L153.5 391.5L165.2 384.9L176.9 381.8L188.6 374.6L200.3 369.2L211.9 362.4L223.6 370L235.3 367.5L247 350.7L258.7 351.7L270.4 354.8L282.1 341.7L293.8 339L305.5 329.3L317.2 330.4L328.9 328.4L340.6 328.4L352.3 317.3L364 316.3L375.7 304.4L387.4 299.7L399.1 292.4L410.8 289.2L422.5 293.1L434.2 280.4L445.9 271.3L457.6 273.8L469.3 285.7L481 279.2L492.7 280.5L504.4 271.5L516.1 260.4L527.8 256.7L539.5 249.7L551.2 238.5L562.9 232.4L574.6 228.9L586.3 227.1L598 220L609.7 210.1L621.4 205.9L633.1 195.1L644.8 181.4L656.5 165.5L668.2 160.3L679.9 144.3L691.6 123.7L703.3 129.8L715 111.7" stroke="rgb(187, 50, 84)" stroke-opacity="0.7" stroke-width="0.5" fill="none" class="World_7-border"></path><path stroke-linecap="round" d="M106.7 404.1L118.4 401.4L130.1 395.5L141.8 388.3L153.5 389.6L165.2 383.1L176.9 380L188.6 372.8L200.3 367.3L211.9 360.5L223.6 368.1L235.3 365.6L247 348.8L258.7 349.7L270.4 352.9L282.1 339.7L293.8 337L305.5 327.3L317.2 328.5L328.9 326.5L340.6 326.5L352.3 315.2L364 314L375.7 302.1L387.4 297.3L399.1 290.1L410.8 286.7L422.5 290.6L434.2 277.9L445.9 268.7L457.6 271.4L469.3 283.3L481 276.7L492.7 277.9L504.4 269L516.1 257.8L527.8 254.2L539.5 247.2L551.2 236L562.9 229.8L574.6 226.2L586.3 224.2L598 217.2L609.7 207.2L621.4 203L633.1 192L644.8 178.3L656.5 162.1L668.2 157L679.9 140.4L691.6 119.8L703.3 125.9L715 107.6" stroke="rgb(141, 75, 62)" stroke-opacity="0.7" stroke-width="0.5" fill="none" class="World_5-border"></path></g></g></g><g style="fill: #777;" class="SourcesFooter"><g style="fill: #777;" class="clickable"><text font-size="12.60" x="15.0" y="581.6"><tspan x="15" y="581.58">Source: UN Food and Agricultural Organization (FAO)</tspan></text></g><text font-size="12.60" x="775.4" y="581.6"><tspan x="775.402" y="581.58"><a style="fill: #777;" class="cclogo" href="http://creativecommons.org/licenses/by-sa/4.0/deed.en_US" target="_blank">CC BY-SA</a></tspan></text></g></g></svg>