<svg xmlns="http://www.w3.org/2000/svg" version="1.1" style="font-family: 'Helvetica Neue', Helvetica, Arial, sans-serif; font-size: 18px; background-color: white; text-rendering: optimizeLegibility; -webkit-font-smoothing: antialiased;" width="850" height="600"><g class="ChartTab"><g class="HeaderView"><g opacity="0.8" transform="translate(778, 15) scale(0.27)"><a xmlns:xlink="http://www.w3.org/1999/xlink" xlink:href="https://ourworldindata.org" target="_blank"><g><rect x="0" y="0" fill="#1B2543" width="211.2" height="130.1"/><rect x="0" y="112.2" fill="#E63912" width="211.2" height="17.9"/><g><rect x="1.2" y="12.3" fill="none" width="210.2" height="99.2"/><path fill="#FFFFFF" d="M37.8,32.2c0,12.7-7.7,19.4-17.1,19.4c-9.7,0-16.6-7.5-16.6-18.7c0-11.7,7.3-19.3,17.1-19.3 C31.3,13.7,37.8,21.3,37.8,32.2z M9.2,32.8c0,7.9,4.3,14.9,11.8,14.9c7.5,0,11.8-6.9,11.8-15.3c0-7.3-3.8-14.9-11.8-14.9 C13.1,17.5,9.2,24.8,9.2,32.8z"/><path fill="#FFFFFF" d="M62.7,43.8c0,2.7,0.1,5.1,0.2,7.2h-4.3l-0.3-4.3h-0.1c-1.3,2.1-4,4.9-8.8,4.9c-4.2,0-9.1-2.3-9.1-11.6 V24.6h4.8v14.6c0,5,1.5,8.4,5.9,8.4c3.2,0,5.5-2.2,6.3-4.4c0.3-0.7,0.4-1.6,0.4-2.5V24.6h4.8V43.8z"/><path fill="#FFFFFF" d="M67.3,32.8c0-3.1-0.1-5.8-0.2-8.2h4.2l0.2,5.2h0.2c1.2-3.5,4.1-5.8,7.3-5.8c0.5,0,0.9,0.1,1.4,0.2v4.5 c-0.5-0.1-1-0.2-1.6-0.2c-3.4,0-5.8,2.6-6.5,6.2c-0.1,0.7-0.2,1.4-0.2,2.2V51h-4.8V32.8z"/><path fill="#FFFFFF" d="M95.4,51l-9.4-36.8h5l4.4,18.6c1.1,4.6,2.1,9.2,2.7,12.7h0.1c0.6-3.7,1.8-8,3-12.8l4.9-18.5h5l4.5,18.7 c1,4.4,2,8.7,2.6,12.6h0.1c0.8-4,1.8-8.1,3-12.7l4.9-18.5h4.9L120.6,51h-5L111,31.9c-1.1-4.7-1.9-8.3-2.4-12h-0.1 c-0.7,3.7-1.5,7.3-2.8,12L100.4,51H95.4z"/><path fill="#FFFFFF" d="M154.9,37.6c0,9.8-6.8,14-13.2,14c-7.2,0-12.7-5.2-12.7-13.6c0-8.8,5.8-14,13.1-14 C149.8,24,154.9,29.5,154.9,37.6z M133.9,37.9c0,5.8,3.3,10.1,8,10.1c4.6,0,8-4.3,8-10.3c0-4.5-2.2-10.1-7.9-10.1 C136.3,27.6,133.9,32.8,133.9,37.9z"/><path fill="#FFFFFF" d="M158.2,32.8c0-3.1-0.1-5.8-0.2-8.2h4.2l0.2,5.2h0.2c1.2-3.5,4.1-5.8,7.3-5.8c0.5,0,0.9,0.1,1.4,0.2v4.5 c-0.5-0.1-1-0.2-1.6-0.2c-3.4,0-5.8,2.6-6.5,6.2c-0.1,0.7-0.2,1.4-0.2,2.2V51h-4.8V32.8z"/><path fill="#FFFFFF" d="M173.5,12.3h4.8V51h-4.8V12.3z"/><path fill="#FFFFFF" d="M206.5,12.3v31.9c0,2.3,0.1,5,0.2,6.8h-4.3l-0.2-4.6H202c-1.5,2.9-4.7,5.2-9,5.2 c-6.4,0-11.3-5.4-11.3-13.4c-0.1-8.8,5.4-14.2,11.9-14.2c4,0,6.8,1.9,8,4h0.1V12.3H206.5z M201.7,35.4c0-0.6-0.1-1.4-0.2-2 c-0.7-3.1-3.3-5.6-6.9-5.6c-5,0-7.9,4.4-7.9,10.2c0,5.3,2.6,9.8,7.8,9.8c3.2,0,6.2-2.1,7.1-5.7c0.2-0.7,0.2-1.3,0.2-2.1V35.4z"/><path fill="#FFFFFF" d="M42.8,64c0.1,1.6-1.1,2.9-3.1,2.9c-1.7,0-2.9-1.3-2.9-2.9c0-1.7,1.3-3,3-3C41.7,61,42.8,62.3,42.8,64z M37.4,97.8V71.4h4.8v26.4H37.4z"/><path fill="#FFFFFF" d="M47.5,78.6c0-2.7-0.1-5-0.2-7.1h4.3l0.3,4.4h0.1c1.3-2.5,4.4-5,8.8-5c3.7,0,9.4,2.2,9.4,11.2v15.8h-4.8 V82.6c0-4.3-1.6-7.8-6.1-7.8c-3.2,0-5.6,2.2-6.5,4.9c-0.2,0.6-0.3,1.4-0.3,2.2v15.9h-4.8V78.6z"/><path fill="#FFFFFF" d="M84,61.6c2.9-0.4,6.3-0.8,10.1-0.8c6.8,0,11.7,1.6,14.9,4.6c3.3,3,5.2,7.3,5.2,13.2c0,6-1.9,10.9-5.3,14.3 c-3.4,3.4-9.1,5.3-16.3,5.3c-3.4,0-6.2-0.2-8.6-0.4V61.6z M88.8,94.1c1.2,0.2,3,0.3,4.8,0.3c10.2,0,15.7-5.7,15.7-15.6 c0.1-8.7-4.9-14.2-14.9-14.2c-2.5,0-4.3,0.2-5.6,0.5V94.1z"/><path fill="#FFFFFF" d="M132.1,97.8l-0.4-3.3h-0.2c-1.5,2.1-4.3,3.9-8.1,3.9c-5.4,0-8.1-3.8-8.1-7.6c0-6.4,5.7-9.9,15.9-9.8v-0.5 c0-2.2-0.6-6.1-6-6.1c-2.5,0-5,0.8-6.9,2l-1.1-3.2c2.2-1.4,5.4-2.3,8.7-2.3c8.1,0,10.1,5.5,10.1,10.8v9.9c0,2.3,0.1,4.5,0.4,6.3 H132.1z M131.4,84.4c-5.3-0.1-11.2,0.8-11.2,5.9c0,3.1,2.1,4.6,4.5,4.6c3.4,0,5.6-2.2,6.4-4.4c0.2-0.5,0.3-1,0.3-1.5V84.4z"/><path fill="#FFFFFF" d="M146.6,63.9v7.6h6.9v3.7h-6.9v14.2c0,3.3,0.9,5.1,3.6,5.1c1.3,0,2.2-0.2,2.8-0.3l0.2,3.6 c-0.9,0.4-2.4,0.7-4.3,0.7c-2.2,0-4-0.7-5.2-2c-1.4-1.4-1.9-3.8-1.9-6.9V75.1h-4.1v-3.7h4.1v-6.3L146.6,63.9z"/><path fill="#FFFFFF" d="M171.4,97.8l-0.4-3.3h-0.2c-1.5,2.1-4.3,3.9-8.1,3.9c-5.4,0-8.1-3.8-8.1-7.6c0-6.4,5.7-9.9,15.9-9.8v-0.5 c0-2.2-0.6-6.1-6-6.1c-2.5,0-5,0.8-6.9,2l-1.1-3.2c2.2-1.4,5.4-2.3,8.7-2.3c8.1,0,10.1,5.5,10.1,10.8v9.9c0,2.3,0.1,4.5,0.4,6.3 H171.4z M170.7,84.4c-5.3-0.1-11.2,0.8-11.2,5.9c0,3.1,2.1,4.6,4.5,4.6c3.4,0,5.6-2.2,6.4-4.4c0.2-0.5,0.3-1,0.3-1.5V84.4z"/></g></g></a></g><a href="https://ourworldindata.org/grapher/tetanus-cases-vs-tetanus-vaccination-coverage" target="_blank"><text font-size="25.20" x="15.0" y="35.2" fill="#555"><tspan x="15" y="35.160000000000004">Tetanus cases vs tetanus vaccination coverage, 1990</tspan></text></a><text font-size="14.40" x="15.0" y="53.7" fill="#666"><tspan x="15" y="53.72">The tetanus vaccine is part of the DTP3 (Diphtheria, Tetanus and Pertussis) vaccine.</tspan></text></g><g><g class="AxisBoxView"><g class="HorizontalAxis"><text font-size="12.60" x="252.6" y="554.0"><tspan x="252.608" y="553.98">Vaccine coverage (share of 1-year-olds)</tspan></text><text x="83.7" y="533.9" fill="#666" text-anchor="middle" font-size="16.2">0</text><text x="210" y="533.9" fill="#666" text-anchor="middle" font-size="16.2">20</text><text x="336.2" y="533.9" fill="#666" text-anchor="middle" font-size="16.2">40</text><text x="462.5" y="533.9" fill="#666" text-anchor="middle" font-size="16.2">60</text><text x="588.7" y="533.9" fill="#666" text-anchor="middle" font-size="16.2">80</text><text x="715" y="533.9" fill="#666" text-anchor="middle" font-size="16.2">100</text></g><g class="VerticalAxis"><text font-size="12.60" x="-403.5" y="25.1" transform="rotate(-90)"><tspan x="-403.48999999999995" y="25.080000000000002">Tetanus infections per 100,000</tspan></text><text x="78.75" y="494.9" fill="#666" dominant-baseline="middle" text-anchor="end" font-size="16.2">&lt;0.01</text><text x="78.75" y="411.8" fill="#666" dominant-baseline="middle" text-anchor="end" font-size="16.2">0.01</text><text x="78.75" y="328.6" fill="#666" dominant-baseline="middle" text-anchor="end" font-size="16.2">0.1</text><text x="78.75" y="245.5" fill="#666" dominant-baseline="middle" text-anchor="end" font-size="16.2">1</text><text x="78.75" y="162.3" fill="#666" dominant-baseline="middle" text-anchor="end" font-size="16.2">10</text><text x="78.75" y="79.2" fill="#666" dominant-baseline="middle" text-anchor="end" font-size="16.2">100</text></g><g class="AxisGridLines"><line x1="83.75" y1="494.9" x2="715.00" y2="494.9" stroke="#ddd" stroke-dasharray="3,2"></line><line x1="83.75" y1="411.8" x2="715.00" y2="411.8" stroke="#ddd" stroke-dasharray="3,2"></line><line x1="83.75" y1="328.6" x2="715.00" y2="328.6" stroke="#ddd" stroke-dasharray="3,2"></line><line x1="83.75" y1="245.5" x2="715.00" y2="245.5" stroke="#ddd" stroke-dasharray="3,2"></line><line x1="83.75" y1="162.3" x2="715.00" y2="162.3" stroke="#ddd" stroke-dasharray="3,2"></line><line x1="83.75" y1="79.2" x2="715.00" y2="79.2" stroke="#ddd" stroke-dasharray="3,2"></line></g><g class="AxisGridLines"><line x1="83.7" y1="512.70" x2="83.7" y2="76.60" stroke="#ccc"></line><line x1="210" y1="512.70" x2="210" y2="76.60" stroke="#ddd" stroke-dasharray="3,2"></line><line x1="336.2" y1="512.70" x2="336.2" y2="76.60" stroke="#ddd" stroke-dasharray="3,2"></line><line x1="462.5" y1="512.70" x2="462.5" y2="76.60" stroke="#ddd" stroke-dasharray="3,2"></line><line x1="588.7" y1="512.70" x2="588.7" y2="76.60" stroke="#ddd" stroke-dasharray="3,2"></line><line x1="715" y1="512.70" x2="715" y2="76.60" stroke="#ddd" stroke-dasharray="3,2"></line></g></g><g clip-path="url(#scatterBounds-771)" font-family="Arial Narrow, Arial, sans-serif" class="PointsWithLabels clickable"><rect x="83.748" y="76.6" width="631.252" height="436.09999999999997" fill="rgba(255,255,255,0)"></rect><defs><clipPath id="scatterBounds-771"><rect x="73.748" y="66.6" width="651.252" height="456.09999999999997"></rect></clipPath></defs><g class="key-China_0"><circle cx="696.00" cy="211.00" r="16.39" fill="#d14e5b" opacity="0.8" stroke="#333" stroke-width="0.7"></circle></g><g class="key-India_0"><circle cx="525.00" cy="114.00" r="14.34" fill="#d14e5b" opacity="0.8" stroke="#333" stroke-width="0.7"></circle></g><g class="key-United-States_0"><circle cx="651.00" cy="373.00" r="7.87" fill="#4d824b" opacity="0.8" stroke="#333" stroke-width="0.7"></circle></g><g class="key-Indonesia_0"><circle cx="462.00" cy="133.00" r="6.78" fill="#d14e5b" opacity="0.8" stroke="#333" stroke-width="0.7"></circle></g><g class="key-Brazil_0"><circle cx="500.00" cy="222.00" r="6.15" fill="#69c487" opacity="0.8" stroke="#333" stroke-width="0.7"></circle></g><g class="key-Japan_0"><circle cx="651.00" cy="368.00" r="5.61" fill="#d14e5b" opacity="0.8" stroke="#fff" stroke-width="0.7"></circle></g><g class="key-Pakistan_0"><circle cx="424.00" cy="92.00" r="5.39" fill="#d14e5b" opacity="0.8" stroke="#333" stroke-width="0.7"></circle></g><g class="key-Bangladesh_0"><circle cx="519.00" cy="103.00" r="5.25" fill="#d14e5b" opacity="0.8" stroke="#fff" stroke-width="0.7"></circle></g><g class="key-Nigeria_0"><circle cx="437.00" cy="141.00" r="5.08" fill="#5675c1" opacity="0.8" stroke="#fff" stroke-width="0.7"></circle></g><g class="key-Mexico_0"><circle cx="418.00" cy="250.00" r="4.77" fill="#4d824b" opacity="0.8" stroke="#333" stroke-width="0.7"></circle></g><g class="key-Germany_0"><circle cx="588.00" cy="403.00" r="4.64" fill="#ffd336" opacity="0.8" stroke="#333" stroke-width="0.7"></circle></g><g class="key-Vietnam_0"><circle cx="639.00" cy="205.00" r="4.33" fill="#d14e5b" opacity="0.8" stroke="#fff" stroke-width="0.7"></circle></g><g class="key-Philippines_0"><circle cx="639.00" cy="202.00" r="4.18" fill="#d14e5b" opacity="0.8" stroke="#fff" stroke-width="0.7"></circle></g><g class="key-United-Kingdom_0"><circle cx="614.00" cy="432.00" r="4.05" fill="#ffd336" opacity="0.8" stroke="#333" stroke-width="0.7"></circle></g><g class="key-Thailand_0"><circle cx="664.00" cy="232.00" r="4.05" fill="#d14e5b" opacity="0.8" stroke="#333" stroke-width="0.7"></circle></g><g class="key-Egypt_0"><circle cx="632.00" cy="212.00" r="4.04" fill="#5675c1" opacity="0.8" stroke="#333" stroke-width="0.7"></circle></g><g class="key-Italy_0"><circle cx="607.00" cy="312.00" r="4.04" fill="#ffd336" opacity="0.8" stroke="#333" stroke-width="0.7"></circle></g><g class="key-France_0"><circle cx="677.00" cy="313.00" r="4.04" fill="#ffd336" opacity="0.8" stroke="#333" stroke-width="0.7"></circle></g><g class="key-Iran_0"><circle cx="658.00" cy="313.00" r="3.99" fill="#d14e5b" opacity="0.8" stroke="#fff" stroke-width="0.7"></circle></g><g class="key-Turkey_0"><circle cx="614.00" cy="225.00" r="3.96" fill="#d14e5b" opacity="0.8" stroke="#333" stroke-width="0.7"></circle></g><g class="key-Ethiopia_0"><circle cx="393.00" cy="101.00" r="3.79" fill="#5675c1" opacity="0.8" stroke="#fff" stroke-width="0.7"></circle></g><g class="key-South-Korea_0"><circle cx="550.00" cy="305.00" r="3.62" fill="#d14e5b" opacity="0.8" stroke="#fff" stroke-width="0.7"></circle></g><g class="key-Myanmar_0"><circle cx="639.00" cy="183.00" r="3.50" fill="#d14e5b" opacity="0.8" stroke="#333" stroke-width="0.7"></circle></g><g class="key-Spain_0"><circle cx="626.00" cy="319.00" r="3.49" fill="#ffd336" opacity="0.8" stroke="#fff" stroke-width="0.7"></circle></g><g class="key-Poland_0"><circle cx="689.00" cy="300.00" r="3.46" fill="#ffd336" opacity="0.8" stroke="#333" stroke-width="0.7"></circle></g><g class="key-South-Africa_0"><circle cx="538.00" cy="286.00" r="3.42" fill="#5675c1" opacity="0.8" stroke="#333" stroke-width="0.7"></circle></g><g class="key-Colombia_0"><circle cx="639.00" cy="242.00" r="3.30" fill="#69c487" opacity="0.8" stroke="#fff" stroke-width="0.7"></circle></g><g class="key-Argentina_0"><circle cx="632.00" cy="280.00" r="3.28" fill="#69c487" opacity="0.8" stroke="#333" stroke-width="0.7"></circle></g><g class="key-Canada_0"><circle cx="639.00" cy="486.00" r="3.10" fill="#4d824b" opacity="0.8" stroke="#333" stroke-width="0.7"></circle></g><g class="key-Tanzania_0"><circle cx="576.00" cy="173.00" r="3.01" fill="#5675c1" opacity="0.8" stroke="#333" stroke-width="0.7"></circle></g><g class="key-Algeria_0"><circle cx="645.00" cy="353.00" r="3.01" fill="#5675c1" opacity="0.8" stroke="#333" stroke-width="0.7"></circle></g><g class="key-Morocco_0"><circle cx="595.00" cy="153.00" r="2.99" fill="#5675c1" opacity="0.8" stroke="#333" stroke-width="0.7"></circle></g><g class="key-Kenya_0"><circle cx="614.00" cy="129.00" r="2.93" fill="#5675c1" opacity="0.8" stroke="#333" stroke-width="0.7"></circle></g><g class="key-Romania_0"><circle cx="689.00" cy="321.00" r="2.92" fill="#ffd336" opacity="0.8" stroke="#fff" stroke-width="0.7"></circle></g><g class="key-Peru_0"><circle cx="538.00" cy="251.00" r="2.86" fill="#69c487" opacity="0.8" stroke="#333" stroke-width="0.7"></circle></g><g class="key-Sudan_0"><circle cx="475.00" cy="287.00" r="2.84" fill="#5675c1" opacity="0.8" stroke="#333" stroke-width="0.7"></circle></g><g class="key-North-Korea_0"><circle cx="702.00" cy="295.00" r="2.80" fill="#d14e5b" opacity="0.8" stroke="#fff" stroke-width="0.7"></circle></g><g class="key-Venezuela_0"><circle cx="481.00" cy="277.00" r="2.78" fill="#69c487" opacity="0.8" stroke="#fff" stroke-width="0.7"></circle></g><g class="key-Nepal_0"><circle cx="355.00" cy="76.00" r="2.76" fill="#d14e5b" opacity="0.8" stroke="#333" stroke-width="0.7"></circle></g><g class="key-Malaysia_0"><circle cx="651.00" cy="287.00" r="2.72" fill="#d14e5b" opacity="0.8" stroke="#fff" stroke-width="0.7"></circle></g><g class="key-Uganda_0"><circle cx="367.00" cy="144.00" r="2.70" fill="#5675c1" opacity="0.8" stroke="#333" stroke-width="0.7"></circle></g><g class="key-Iraq_0"><circle cx="607.00" cy="323.00" r="2.68" fill="#d14e5b" opacity="0.8" stroke="#333" stroke-width="0.7"></circle></g><g class="key-Sri-Lanka_0"><circle cx="626.00" cy="261.00" r="2.68" fill="#d14e5b" opacity="0.8" stroke="#333" stroke-width="0.7"></circle></g><g class="key-Australia_0"><circle cx="683.00" cy="438.00" r="2.67" fill="#a652ba" opacity="0.8" stroke="#fff" stroke-width="0.7"></circle></g><g class="key-Saudi-Arabia_0"><circle cx="664.00" cy="272.00" r="2.63" fill="#d14e5b" opacity="0.8" stroke="#fff" stroke-width="0.7"></circle></g><g class="key-Netherlands_0"><circle cx="696.00" cy="491.00" r="2.57" fill="#ffd336" opacity="0.8" stroke="#fff" stroke-width="0.7"></circle></g><g class="key-Ghana_0"><circle cx="449.00" cy="150.00" r="2.57" fill="#5675c1" opacity="0.8" stroke="#333" stroke-width="0.7"></circle></g><g class="key-Mozambique_0"><circle cx="374.00" cy="118.00" r="2.51" fill="#5675c1" opacity="0.8" stroke="#333" stroke-width="0.7"></circle></g><g class="key-Chile_0"><circle cx="683.00" cy="323.00" r="2.50" fill="#69c487" opacity="0.8" stroke="#333" stroke-width="0.7"></circle></g><g class="key-Afghanistan_0"><circle cx="241.00" cy="96.00" r="2.49" fill="#d14e5b" opacity="0.8" stroke="#333" stroke-width="0.7"></circle></g><g class="key-Cote-d__0027Ivoire_0"><circle cx="424.00" cy="150.00" r="2.46" fill="#5675c1" opacity="0.8" stroke="#fff" stroke-width="0.7"></circle></g><g class="key-Syria_0"><circle cx="658.00" cy="257.00" r="2.46" fill="#d14e5b" opacity="0.8" stroke="#fff" stroke-width="0.7"></circle></g><g class="key-Cameroon_0"><circle cx="386.00" cy="158.00" r="2.45" fill="#5675c1" opacity="0.8" stroke="#333" stroke-width="0.7"></circle></g><g class="key-Madagascar_0"><circle cx="374.00" cy="159.00" r="2.41" fill="#5675c1" opacity="0.8" stroke="#fff" stroke-width="0.7"></circle></g><g class="key-Cuba_0"><circle cx="664.00" cy="374.00" r="2.37" fill="#4d824b" opacity="0.8" stroke="#333" stroke-width="0.7"></circle></g><g class="key-Zimbabwe_0"><circle cx="639.00" cy="292.00" r="2.37" fill="#5675c1" opacity="0.8" stroke="#fff" stroke-width="0.7"></circle></g><g class="key-Hungary_0"><circle cx="708.00" cy="285.00" r="2.36" fill="#ffd336" opacity="0.8" stroke="#fff" stroke-width="0.7"></circle></g><g class="key-Angola_0"><circle cx="235.00" cy="141.00" r="2.36" fill="#5675c1" opacity="0.8" stroke="#333" stroke-width="0.7"></circle></g><g class="key-Ecuador_0"><circle cx="513.00" cy="234.00" r="2.36" fill="#69c487" opacity="0.8" stroke="#333" stroke-width="0.7"></circle></g><g class="key-Greece_0"><circle cx="424.00" cy="398.00" r="2.35" fill="#ffd336" opacity="0.8" stroke="#333" stroke-width="0.7"></circle></g><g class="key-Belgium_0"><circle cx="670.00" cy="388.00" r="2.34" fill="#ffd336" opacity="0.8" stroke="#333" stroke-width="0.7"></circle></g><g class="key-Portugal_0"><circle cx="645.00" cy="285.00" r="2.34" fill="#ffd336" opacity="0.8" stroke="#fff" stroke-width="0.7"></circle></g><g class="key-Cambodia_0"><circle cx="323.00" cy="103.00" r="2.32" fill="#d14e5b" opacity="0.8" stroke="#333" stroke-width="0.7"></circle></g><g class="key-Malawi_0"><circle cx="632.00" cy="166.00" r="2.31" fill="#5675c1" opacity="0.8" stroke="#333" stroke-width="0.7"></circle></g><g class="key-Burkina-Faso_0"><circle cx="500.00" cy="124.00" r="2.31" fill="#5675c1" opacity="0.8" stroke="#fff" stroke-width="0.7"></circle></g><g class="key-Guatemala_0"><circle cx="500.00" cy="222.00" r="2.29" fill="#4d824b" opacity="0.8" stroke="#fff" stroke-width="0.7"></circle></g><g class="key-Bulgaria_0"><circle cx="708.00" cy="336.00" r="2.28" fill="#ffd336" opacity="0.8" stroke="#333" stroke-width="0.7"></circle></g><g class="key-Mali_0"><circle cx="348.00" cy="115.00" r="2.28" fill="#5675c1" opacity="0.8" stroke="#333" stroke-width="0.7"></circle></g><g class="key-Sweden_0"><circle cx="708.00" cy="464.00" r="2.27" fill="#ffd336" opacity="0.8" stroke="#333" stroke-width="0.7"></circle></g><g class="key-Tunisia_0"><circle cx="670.00" cy="357.00" r="2.25" fill="#5675c1" opacity="0.8" stroke="#fff" stroke-width="0.7"></circle></g><g class="key-Zambia_0"><circle cx="658.00" cy="155.00" r="2.23" fill="#5675c1" opacity="0.8" stroke="#fff" stroke-width="0.7"></circle></g><g class="key-Niger_0"><circle cx="222.00" cy="108.00" r="2.23" fill="#5675c1" opacity="0.8" stroke="#333" stroke-width="0.7"></circle></g><g class="key-Austria_0"><circle cx="651.00" cy="420.00" r="2.22" fill="#ffd336" opacity="0.8" stroke="#fff" stroke-width="0.7"></circle></g><g class="key-Senegal_0"><circle cx="405.00" cy="145.00" r="2.20" fill="#5675c1" opacity="0.8" stroke="#fff" stroke-width="0.7"></circle></g><g class="key-Dominican-Republic_0"><circle cx="519.00" cy="232.00" r="2.20" fill="#4d824b" opacity="0.8" stroke="#fff" stroke-width="0.7"></circle></g><g class="key-Haiti_0"><circle cx="342.00" cy="113.00" r="2.20" fill="#4d824b" opacity="0.8" stroke="#fff" stroke-width="0.7"></circle></g><g class="key-Rwanda_0"><circle cx="614.00" cy="142.00" r="2.20" fill="#5675c1" opacity="0.8" stroke="#fff" stroke-width="0.7"></circle></g><g class="key-Switzerland_0"><circle cx="651.00" cy="498.00" r="2.17" fill="#ffd336" opacity="0.8" stroke="#333" stroke-width="0.7"></circle></g><g class="key-Bolivia_0"><circle cx="342.00" cy="183.00" r="2.17" fill="#69c487" opacity="0.8" stroke="#333" stroke-width="0.7"></circle></g><g class="key-Somalia_0"><circle cx="203.00" cy="101.00" r="2.17" fill="#5675c1" opacity="0.8" stroke="#fff" stroke-width="0.7"></circle></g><g class="key-Chad_0"><circle cx="210.00" cy="101.00" r="2.14" fill="#5675c1" opacity="0.8" stroke="#fff" stroke-width="0.7"></circle></g><g class="key-Guinea_0"><circle cx="191.00" cy="116.00" r="2.12" fill="#5675c1" opacity="0.8" stroke="#fff" stroke-width="0.7"></circle></g><g class="key-Burundi_0"><circle cx="626.00" cy="152.00" r="2.11" fill="#5675c1" opacity="0.8" stroke="#fff" stroke-width="0.7"></circle></g><g class="key-El-Salvador_0"><circle cx="588.00" cy="219.00" r="2.10" fill="#4d824b" opacity="0.8" stroke="#fff" stroke-width="0.7"></circle></g><g class="key-Denmark_0"><circle cx="651.00" cy="485.00" r="2.09" fill="#ffd336" opacity="0.8" stroke="#fff" stroke-width="0.7"></circle></g><g class="key-Finland_0"><circle cx="651.00" cy="506.00" r="2.08" fill="#ffd336" opacity="0.8" stroke="#fff" stroke-width="0.7"></circle></g><g class="key-Honduras_0"><circle cx="614.00" cy="224.00" r="2.07" fill="#4d824b" opacity="0.8" stroke="#fff" stroke-width="0.7"></circle></g><g class="key-Benin_0"><circle cx="550.00" cy="150.00" r="2.07" fill="#5675c1" opacity="0.8" stroke="#333" stroke-width="0.7"></circle></g><g class="key-Israel_0"><circle cx="670.00" cy="512.00" r="2.05" fill="#d14e5b" opacity="0.8" stroke="#333" stroke-width="0.7"></circle></g><g class="key-Libya_0"><circle cx="614.00" cy="371.00" r="2.04" fill="#5675c1" opacity="0.8" stroke="#fff" stroke-width="0.7"></circle></g><g class="key-Paraguay_0"><circle cx="506.00" cy="216.00" r="2.04" fill="#69c487" opacity="0.8" stroke="#fff" stroke-width="0.7"></circle></g><g class="key-Norway_0"><circle cx="626.00" cy="448.00" r="2.04" fill="#ffd336" opacity="0.8" stroke="#333" stroke-width="0.7"></circle></g><g class="key-Laos_0"><circle cx="197.00" cy="133.00" r="2.04" fill="#d14e5b" opacity="0.8" stroke="#333" stroke-width="0.7"></circle></g><g class="key-Papua-New-Guinea_0"><circle cx="513.00" cy="272.00" r="2.03" fill="#a652ba" opacity="0.8" stroke="#333" stroke-width="0.7"></circle></g><g class="key-Nicaragua_0"><circle cx="525.00" cy="260.00" r="2.03" fill="#4d824b" opacity="0.8" stroke="#fff" stroke-width="0.7"></circle></g><g class="key-Togo_0"><circle cx="569.00" cy="176.00" r="2.01" fill="#5675c1" opacity="0.8" stroke="#fff" stroke-width="0.7"></circle></g><g class="key-Ireland_0"><circle cx="494.00" cy="464.00" r="2.00" fill="#ffd336" opacity="0.8" stroke="#333" stroke-width="0.7"></circle></g><g class="key-Jordan_0"><circle cx="664.00" cy="374.00" r="1.99" fill="#d14e5b" opacity="0.8" stroke="#fff" stroke-width="0.7"></circle></g><g class="key-New-Zealand_0"><circle cx="651.00" cy="458.00" r="1.99" fill="#a652ba" opacity="0.8" stroke="#fff" stroke-width="0.7"></circle></g><g class="key-Albania_0"><circle cx="677.00" cy="354.00" r="1.98" fill="#ffd336" opacity="0.8" stroke="#fff" stroke-width="0.7"></circle></g><g class="key-Uruguay_0"><circle cx="696.00" cy="342.00" r="1.97" fill="#69c487" opacity="0.8" stroke="#fff" stroke-width="0.7"></circle></g><g class="key-Costa-Rica_0"><circle cx="683.00" cy="384.00" r="1.97" fill="#4d824b" opacity="0.8" stroke="#fff" stroke-width="0.7"></circle></g><g class="key-Singapore_0"><circle cx="620.00" cy="427.00" r="1.97" fill="#d14e5b" opacity="0.8" stroke="#fff" stroke-width="0.7"></circle></g><g class="key-Lebanon_0"><circle cx="601.00" cy="363.00" r="1.96" fill="#d14e5b" opacity="0.8" stroke="#fff" stroke-width="0.7"></circle></g><g class="key-Central-African-Republic_0"><circle cx="601.00" cy="164.00" r="1.96" fill="#5675c1" opacity="0.8" stroke="#fff" stroke-width="0.7"></circle></g><g class="key-Panama_0"><circle cx="626.00" cy="299.00" r="1.93" fill="#4d824b" opacity="0.8" stroke="#fff" stroke-width="0.7"></circle></g><g class="key-Congo_0"><circle cx="582.00" cy="215.00" r="1.93" fill="#5675c1" opacity="0.8" stroke="#fff" stroke-width="0.7"></circle></g><g class="key-Jamaica_0"><circle cx="626.00" cy="273.00" r="1.93" fill="#4d824b" opacity="0.8" stroke="#fff" stroke-width="0.7"></circle></g><g class="key-Mongolia_0"><circle cx="614.00" cy="329.00" r="1.92" fill="#d14e5b" opacity="0.8" stroke="#fff" stroke-width="0.7"></circle></g><g class="key-Kuwait_0"><circle cx="531.00" cy="509.00" r="1.91" fill="#d14e5b" opacity="0.8" stroke="#333" stroke-width="0.7"></circle></g><g class="key-Mauritania_0"><circle cx="292.00" cy="144.00" r="1.91" fill="#5675c1" opacity="0.8" stroke="#333" stroke-width="0.7"></circle></g><g class="key-Oman_0"><circle cx="702.00" cy="318.00" r="1.90" fill="#d14e5b" opacity="0.8" stroke="#fff" stroke-width="0.7"></circle></g><g class="key-United-Arab-Emirates_0"><circle cx="620.00" cy="225.00" r="1.90" fill="#d14e5b" opacity="0.8" stroke="#fff" stroke-width="0.7"></circle></g><g class="key-Lesotho_0"><circle cx="601.00" cy="233.00" r="1.88" fill="#5675c1" opacity="0.8" stroke="#fff" stroke-width="0.7"></circle></g><g class="key-Botswana_0"><circle cx="664.00" cy="277.00" r="1.87" fill="#5675c1" opacity="0.8" stroke="#fff" stroke-width="0.7"></circle></g><g class="key-Trinidad-and-Tobago_0"><circle cx="601.00" cy="276.00" r="1.86" fill="#4d824b" opacity="0.8" stroke="#fff" stroke-width="0.7"></circle></g><g class="key-Mauritius_0"><circle cx="620.00" cy="335.00" r="1.85" fill="#5675c1" opacity="0.8" stroke="#333" stroke-width="0.7"></circle></g><g class="key-Guinea__002dBissau_0"><circle cx="468.00" cy="122.00" r="1.85" fill="#5675c1" opacity="0.8" stroke="#fff" stroke-width="0.7"></circle></g><g class="key-Gabon_0"><circle cx="576.00" cy="233.00" r="1.84" fill="#5675c1" opacity="0.8" stroke="#333" stroke-width="0.7"></circle></g><g class="key-Cyprus_0"><circle cx="670.00" cy="365.00" r="1.83" fill="#ffd336" opacity="0.8" stroke="#fff" stroke-width="0.7"></circle></g><g class="key-Fiji_0"><circle cx="696.00" cy="367.00" r="1.83" fill="#a652ba" opacity="0.8" stroke="#333" stroke-width="0.7"></circle></g><g class="key-Guyana_0"><circle cx="607.00" cy="263.00" r="1.83" fill="#69c487" opacity="0.8" stroke="#fff" stroke-width="0.7"></circle></g><g class="key-Djibouti_0"><circle cx="620.00" cy="184.00" r="1.82" fill="#5675c1" opacity="0.8" stroke="#fff" stroke-width="0.7"></circle></g><g class="key-Bhutan_0"><circle cx="689.00" cy="117.00" r="1.82" fill="#d14e5b" opacity="0.8" stroke="#333" stroke-width="0.7"></circle></g><g class="key-Bahrain_0"><circle cx="677.00" cy="379.00" r="1.81" fill="#d14e5b" opacity="0.8" stroke="#fff" stroke-width="0.7"></circle></g><g class="key-Qatar_0"><circle cx="601.00" cy="380.00" r="1.81" fill="#d14e5b" opacity="0.8" stroke="#333" stroke-width="0.7"></circle></g><g class="key-Comoros_0"><circle cx="677.00" cy="166.00" r="1.81" fill="#5675c1" opacity="0.8" stroke="#fff" stroke-width="0.7"></circle></g><g class="key-Suriname_0"><circle cx="607.00" cy="231.00" r="1.81" fill="#69c487" opacity="0.8" stroke="#fff" stroke-width="0.7"></circle></g><g class="key-Luxembourg_0"><circle cx="651.00" cy="357.00" r="1.81" fill="#ffd336" opacity="0.8" stroke="#fff" stroke-width="0.7"></circle></g><g class="key-Equatorial-Guinea_0"><circle cx="569.00" cy="146.00" r="1.81" fill="#5675c1" opacity="0.8" stroke="#fff" stroke-width="0.7"></circle></g><g class="key-Malta_0"><circle cx="481.00" cy="293.00" r="1.80" fill="#ffd336" opacity="0.8" stroke="#fff" stroke-width="0.7"></circle></g><g class="key-Cape-Verde_0"><circle cx="639.00" cy="214.00" r="1.80" fill="#5675c1" opacity="0.8" stroke="#fff" stroke-width="0.7"></circle></g><g class="key-Solomon-Islands_0"><circle cx="569.00" cy="309.00" r="1.80" fill="#a652ba" opacity="0.8" stroke="#fff" stroke-width="0.7"></circle></g><g class="key-Barbados_0"><circle cx="658.00" cy="228.00" r="1.80" fill="#4d824b" opacity="0.8" stroke="#fff" stroke-width="0.7"></circle></g><g class="key-Iceland_0"><circle cx="708.00" cy="419.00" r="1.80" fill="#ffd336" opacity="0.8" stroke="#fff" stroke-width="0.7"></circle></g><g class="key-Brunei_0"><circle cx="670.00" cy="271.00" r="1.80" fill="#d14e5b" opacity="0.8" stroke="#fff" stroke-width="0.7"></circle></g><g class="key-Maldives_0"><circle cx="677.00" cy="332.00" r="1.80" fill="#d14e5b" opacity="0.8" stroke="#fff" stroke-width="0.7"></circle></g><g class="key-Belize_0"><circle cx="658.00" cy="263.00" r="1.79" fill="#4d824b" opacity="0.8" stroke="#fff" stroke-width="0.7"></circle></g><g class="key-Samoa_0"><circle cx="651.00" cy="348.00" r="1.79" fill="#a652ba" opacity="0.8" stroke="#fff" stroke-width="0.7"></circle></g><g class="key-Vanuatu_0"><circle cx="563.00" cy="305.00" r="1.79" fill="#a652ba" opacity="0.8" stroke="#333" stroke-width="0.7"></circle></g><g class="key-Saint-Lucia_0"><circle cx="645.00" cy="250.00" r="1.79" fill="#4d824b" opacity="0.8" stroke="#fff" stroke-width="0.7"></circle></g><g class="key-Sao-Tome-and-Principe_0"><circle cx="664.00" cy="135.00" r="1.79" fill="#5675c1" opacity="0.8" stroke="#fff" stroke-width="0.7"></circle></g><g class="key-Saint-Vincent-and-the-Grenadines_0"><circle cx="702.00" cy="331.00" r="1.79" fill="#4d824b" opacity="0.8" stroke="#fff" stroke-width="0.7"></circle></g><g class="key-Grenada_0"><circle cx="588.00" cy="224.00" r="1.79" fill="#4d824b" opacity="0.8" stroke="#fff" stroke-width="0.7"></circle></g><g class="key-Tonga_0"><circle cx="677.00" cy="368.00" r="1.79" fill="#a652ba" opacity="0.8" stroke="#fff" stroke-width="0.7"></circle></g><g class="key-Kiribati_0"><circle cx="696.00" cy="286.00" r="1.79" fill="#a652ba" opacity="0.8" stroke="#fff" stroke-width="0.7"></circle></g><g class="key-Seychelles_0"><circle cx="708.00" cy="254.00" r="1.79" fill="#5675c1" opacity="0.8" stroke="#fff" stroke-width="0.7"></circle></g><g class="key-Dominica_0"><circle cx="664.00" cy="227.00" r="1.79" fill="#4d824b" opacity="0.8" stroke="#fff" stroke-width="0.7"></circle></g><g class="key-Antigua-and-Barbuda_0"><circle cx="708.00" cy="259.00" r="1.79" fill="#4d824b" opacity="0.8" stroke="#fff" stroke-width="0.7"></circle></g><g class="key-Marshall-Islands_0"><circle cx="664.00" cy="326.00" r="1.78" fill="#a652ba" opacity="0.8" stroke="#fff" stroke-width="0.7"></circle></g><g class="key-Yemen_0"><circle cx="614.00" cy="272.00" r="1.78" fill="#d14e5b" opacity="0.8" stroke="#fff" stroke-width="0.7"></circle></g><g fill="#333" class="backgroundLabels"><text x="659.90" y="193.61" font-size="13.78">China</text><text x="525.00" y="98.66" font-size="13.12">India</text><text x="580.96" y="364.13" font-size="11.61">United States</text><text x="462.00" y="125.22" font-size="11.45">Indonesia</text><text x="500.00" y="214.85" font-size="11.36">Brazil</text><text x="424.00" y="87.87" font-size="11.27">Pakistan</text><text x="418.00" y="244.23" font-size="11.20">Mexico</text><text x="588.00" y="397.36" font-size="11.19">Germany</text><text x="614.00" y="426.95" font-size="11.14">United Kingdom</text><text x="664.00" y="226.95" font-size="11.14">Thailand</text><text x="632.00" y="206.96" font-size="11.14">Egypt</text><text x="607.00" y="306.96" font-size="11.14">Italy</text><text x="677.00" y="307.96" font-size="11.14">France</text><text x="614.00" y="220.04" font-size="11.13">Turkey</text><text x="639.00" y="178.50" font-size="11.10">Myanmar</text><text x="654.28" y="295.54" font-size="11.09">Poland</text><text x="538.00" y="281.58" font-size="11.09">South Africa</text><text x="632.00" y="275.72" font-size="11.08">Argentina</text><text x="639.00" y="481.90" font-size="11.07">Canada</text><text x="576.00" y="168.99" font-size="11.06">Tanzania</text><text x="645.00" y="348.99" font-size="11.06">Algeria</text><text x="595.00" y="149.01" font-size="11.06">Morocco</text><text x="614.00" y="125.07" font-size="11.06">Kenya</text><text x="538.00" y="247.14" font-size="11.05">Peru</text><text x="475.00" y="283.16" font-size="11.05">Sudan</text><text x="355.00" y="87.65" font-size="11.05">Nepal</text><text x="367.00" y="140.30" font-size="11.04">Uganda</text><text x="607.00" y="319.32" font-size="11.04">Iraq</text><text x="626.00" y="257.32" font-size="11.04">Sri Lanka</text><text x="449.00" y="146.43" font-size="11.04">Ghana</text><text x="374.00" y="114.49" font-size="11.03">Mozambique</text><text x="683.00" y="319.50" font-size="11.03">Chile</text><text x="241.00" y="92.51" font-size="11.03">Afghanistan</text><text x="386.00" y="154.55" font-size="11.03">Cameroon</text><text x="664.00" y="370.63" font-size="11.03">Cuba</text><text x="235.00" y="137.64" font-size="11.02">Angola</text><text x="513.00" y="230.64" font-size="11.02">Ecuador</text><text x="424.00" y="394.65" font-size="11.02">Greece</text><text x="670.00" y="384.66" font-size="11.02">Belgium</text><text x="323.00" y="99.68" font-size="11.02">Cambodia</text><text x="632.00" y="162.69" font-size="11.02">Malawi</text><text x="667.44" y="332.72" font-size="11.02">Bulgaria</text><text x="348.00" y="111.72" font-size="11.02">Mali</text><text x="667.99" y="460.73" font-size="11.02">Sweden</text><text x="222.00" y="104.77" font-size="11.02">Niger</text><text x="651.00" y="494.83" font-size="11.02">Switzerland</text><text x="342.00" y="179.83" font-size="11.02">Bolivia</text><text x="550.00" y="146.93" font-size="11.01">Benin</text><text x="670.00" y="508.95" font-size="11.01">Israel</text><text x="626.00" y="444.96" font-size="11.01">Norway</text><text x="197.00" y="129.96" font-size="11.01">Laos</text><text x="513.00" y="268.97" font-size="11.01">Papua New Guinea</text><text x="494.00" y="461.00" font-size="11.01">Ireland</text><text x="531.00" y="506.09" font-size="11.00">Kuwait</text><text x="292.00" y="141.09" font-size="11.00">Mauritania</text><text x="620.00" y="332.15" font-size="11.00">Mauritius</text><text x="576.00" y="230.16" font-size="11.00">Gabon</text><text x="696.00" y="364.17" font-size="11.00">Fiji</text><text x="653.91" y="114.18" font-size="11.00">Bhutan</text><text x="601.00" y="377.19" font-size="11.00">Qatar</text><text x="563.00" y="302.21" font-size="11.00">Vanuatu</text></g></g><g style="cursor: pointer;" class="ScatterColorLegend clickable"><g class="legendMark"><rect x="735" y="74.1" width="43.256" height="17.6" fill="#fff" opacity="0"></rect>,<rect x="735" y="79.6" width="6" height="6" fill="#5675c1"></rect>,<text font-size="12.60" x="746.0" y="86.7"><tspan x="746" y="86.67999999999999">Africa</tspan></text></g><g class="legendMark"><rect x="735" y="91.69999999999999" width="35.57" height="17.6" fill="#fff" opacity="0"></rect>,<rect x="735" y="97.19999999999999" width="6" height="6" fill="#d14e5b"></rect>,<text font-size="12.60" x="746.0" y="104.3"><tspan x="746" y="104.27999999999999">Asia</tspan></text></g><g class="legendMark"><rect x="735" y="109.3" width="51.824" height="17.6" fill="#fff" opacity="0"></rect>,<rect x="735" y="114.8" width="6" height="6" fill="#ffd336"></rect>,<text font-size="12.60" x="746.0" y="121.9"><tspan x="746" y="121.88">Europe</tspan></text></g><g class="legendMark"><rect x="735" y="126.9" width="91.64" height="17.6" fill="#fff" opacity="0"></rect>,<rect x="735" y="132.4" width="6" height="6" fill="#4d824b"></rect>,<text font-size="12.60" x="746.0" y="139.5"><tspan x="746" y="139.48">North America</tspan></text></g><g class="legendMark"><rect x="735" y="144.5" width="58.124" height="17.6" fill="#fff" opacity="0"></rect>,<rect x="735" y="150" width="6" height="6" fill="#a652ba"></rect>,<text font-size="12.60" x="746.0" y="157.1"><tspan x="746" y="157.07999999999998">Oceania</tspan></text></g><g class="legendMark"><rect x="735" y="162.1" width="93.908" height="17.6" fill="#fff" opacity="0"></rect>,<rect x="735" y="167.6" width="6" height="6" fill="#69c487"></rect>,<text font-size="12.60" x="746.0" y="174.7"><tspan x="746" y="174.67999999999998">South America</tspan></text></g></g></g><g style="fill: #777;" class="SourcesFooter"><g style="fill: #777;" class="clickable"><text font-size="12.60" x="15.0" y="581.6"><tspan x="15" y="581.58">Source: WHO GHO (2017), IHME (2016)</tspan></text></g><text font-size="12.60" x="775.4" y="581.6"><tspan x="775.402" y="581.58"><a style="fill: #777;" class="cclogo" href="http://creativecommons.org/licenses/by-sa/4.0/deed.en_US" target="_blank">CC BY-SA</a></tspan></text></g></g></svg>