<svg xmlns="http://www.w3.org/2000/svg" version="1.1" style="font-family: 'Helvetica Neue', Helvetica, Arial, sans-serif; font-size: 18px; background-color: white; text-rendering: optimizeLegibility; -webkit-font-smoothing: antialiased;" width="850" height="600"><g class="ChartTab"><g class="HeaderView"><g opacity="0.8" transform="translate(778, 15) scale(0.27)"><a xmlns:xlink="http://www.w3.org/1999/xlink" xlink:href="https://ourworldindata.org" target="_blank"><g><rect x="0" y="0" fill="#1B2543" width="211.2" height="130.1"/><rect x="0" y="112.2" fill="#E63912" width="211.2" height="17.9"/><g><rect x="1.2" y="12.3" fill="none" width="210.2" height="99.2"/><path fill="#FFFFFF" d="M37.8,32.2c0,12.7-7.7,19.4-17.1,19.4c-9.7,0-16.6-7.5-16.6-18.7c0-11.7,7.3-19.3,17.1-19.3 C31.3,13.7,37.8,21.3,37.8,32.2z M9.2,32.8c0,7.9,4.3,14.9,11.8,14.9c7.5,0,11.8-6.9,11.8-15.3c0-7.3-3.8-14.9-11.8-14.9 C13.1,17.5,9.2,24.8,9.2,32.8z"/><path fill="#FFFFFF" d="M62.7,43.8c0,2.7,0.1,5.1,0.2,7.2h-4.3l-0.3-4.3h-0.1c-1.3,2.1-4,4.9-8.8,4.9c-4.2,0-9.1-2.3-9.1-11.6 V24.6h4.8v14.6c0,5,1.5,8.4,5.9,8.4c3.2,0,5.5-2.2,6.3-4.4c0.3-0.7,0.4-1.6,0.4-2.5V24.6h4.8V43.8z"/><path fill="#FFFFFF" d="M67.3,32.8c0-3.1-0.1-5.8-0.2-8.2h4.2l0.2,5.2h0.2c1.2-3.5,4.1-5.8,7.3-5.8c0.5,0,0.9,0.1,1.4,0.2v4.5 c-0.5-0.1-1-0.2-1.6-0.2c-3.4,0-5.8,2.6-6.5,6.2c-0.1,0.7-0.2,1.4-0.2,2.2V51h-4.8V32.8z"/><path fill="#FFFFFF" d="M95.4,51l-9.4-36.8h5l4.4,18.6c1.1,4.6,2.1,9.2,2.7,12.7h0.1c0.6-3.7,1.8-8,3-12.8l4.9-18.5h5l4.5,18.7 c1,4.4,2,8.7,2.6,12.6h0.1c0.8-4,1.8-8.1,3-12.7l4.9-18.5h4.9L120.6,51h-5L111,31.9c-1.1-4.7-1.9-8.3-2.4-12h-0.1 c-0.7,3.7-1.5,7.3-2.8,12L100.4,51H95.4z"/><path fill="#FFFFFF" d="M154.9,37.6c0,9.8-6.8,14-13.2,14c-7.2,0-12.7-5.2-12.7-13.6c0-8.8,5.8-14,13.1-14 C149.8,24,154.9,29.5,154.9,37.6z M133.9,37.9c0,5.8,3.3,10.1,8,10.1c4.6,0,8-4.3,8-10.3c0-4.5-2.2-10.1-7.9-10.1 C136.3,27.6,133.9,32.8,133.9,37.9z"/><path fill="#FFFFFF" d="M158.2,32.8c0-3.1-0.1-5.8-0.2-8.2h4.2l0.2,5.2h0.2c1.2-3.5,4.1-5.8,7.3-5.8c0.5,0,0.9,0.1,1.4,0.2v4.5 c-0.5-0.1-1-0.2-1.6-0.2c-3.4,0-5.8,2.6-6.5,6.2c-0.1,0.7-0.2,1.4-0.2,2.2V51h-4.8V32.8z"/><path fill="#FFFFFF" d="M173.5,12.3h4.8V51h-4.8V12.3z"/><path fill="#FFFFFF" d="M206.5,12.3v31.9c0,2.3,0.1,5,0.2,6.8h-4.3l-0.2-4.6H202c-1.5,2.9-4.7,5.2-9,5.2 c-6.4,0-11.3-5.4-11.3-13.4c-0.1-8.8,5.4-14.2,11.9-14.2c4,0,6.8,1.9,8,4h0.1V12.3H206.5z M201.7,35.4c0-0.6-0.1-1.4-0.2-2 c-0.7-3.1-3.3-5.6-6.9-5.6c-5,0-7.9,4.4-7.9,10.2c0,5.3,2.6,9.8,7.8,9.8c3.2,0,6.2-2.1,7.1-5.7c0.2-0.7,0.2-1.3,0.2-2.1V35.4z"/><path fill="#FFFFFF" d="M42.8,64c0.1,1.6-1.1,2.9-3.1,2.9c-1.7,0-2.9-1.3-2.9-2.9c0-1.7,1.3-3,3-3C41.7,61,42.8,62.3,42.8,64z M37.4,97.8V71.4h4.8v26.4H37.4z"/><path fill="#FFFFFF" d="M47.5,78.6c0-2.7-0.1-5-0.2-7.1h4.3l0.3,4.4h0.1c1.3-2.5,4.4-5,8.8-5c3.7,0,9.4,2.2,9.4,11.2v15.8h-4.8 V82.6c0-4.3-1.6-7.8-6.1-7.8c-3.2,0-5.6,2.2-6.5,4.9c-0.2,0.6-0.3,1.4-0.3,2.2v15.9h-4.8V78.6z"/><path fill="#FFFFFF" d="M84,61.6c2.9-0.4,6.3-0.8,10.1-0.8c6.8,0,11.7,1.6,14.9,4.6c3.3,3,5.2,7.3,5.2,13.2c0,6-1.9,10.9-5.3,14.3 c-3.4,3.4-9.1,5.3-16.3,5.3c-3.4,0-6.2-0.2-8.6-0.4V61.6z M88.8,94.1c1.2,0.2,3,0.3,4.8,0.3c10.2,0,15.7-5.7,15.7-15.6 c0.1-8.7-4.9-14.2-14.9-14.2c-2.5,0-4.3,0.2-5.6,0.5V94.1z"/><path fill="#FFFFFF" d="M132.1,97.8l-0.4-3.3h-0.2c-1.5,2.1-4.3,3.9-8.1,3.9c-5.4,0-8.1-3.8-8.1-7.6c0-6.4,5.7-9.9,15.9-9.8v-0.5 c0-2.2-0.6-6.1-6-6.1c-2.5,0-5,0.8-6.9,2l-1.1-3.2c2.2-1.4,5.4-2.3,8.7-2.3c8.1,0,10.1,5.5,10.1,10.8v9.9c0,2.3,0.1,4.5,0.4,6.3 H132.1z M131.4,84.4c-5.3-0.1-11.2,0.8-11.2,5.9c0,3.1,2.1,4.6,4.5,4.6c3.4,0,5.6-2.2,6.4-4.4c0.2-0.5,0.3-1,0.3-1.5V84.4z"/><path fill="#FFFFFF" d="M146.6,63.9v7.6h6.9v3.7h-6.9v14.2c0,3.3,0.9,5.1,3.6,5.1c1.3,0,2.2-0.2,2.8-0.3l0.2,3.6 c-0.9,0.4-2.4,0.7-4.3,0.7c-2.2,0-4-0.7-5.2-2c-1.4-1.4-1.9-3.8-1.9-6.9V75.1h-4.1v-3.7h4.1v-6.3L146.6,63.9z"/><path fill="#FFFFFF" d="M171.4,97.8l-0.4-3.3h-0.2c-1.5,2.1-4.3,3.9-8.1,3.9c-5.4,0-8.1-3.8-8.1-7.6c0-6.4,5.7-9.9,15.9-9.8v-0.5 c0-2.2-0.6-6.1-6-6.1c-2.5,0-5,0.8-6.9,2l-1.1-3.2c2.2-1.4,5.4-2.3,8.7-2.3c8.1,0,10.1,5.5,10.1,10.8v9.9c0,2.3,0.1,4.5,0.4,6.3 H171.4z M170.7,84.4c-5.3-0.1-11.2,0.8-11.2,5.9c0,3.1,2.1,4.6,4.5,4.6c3.4,0,5.6-2.2,6.4-4.4c0.2-0.5,0.3-1,0.3-1.5V84.4z"/></g></g></a></g><a href="https://ourworldindata.org/grapher/the-number-of-cases-of-infectious-diseases" target="_blank"><text font-size="25.20" x="15.0" y="35.2" fill="#555"><tspan x="15" y="35.160000000000004">The number of cases of infectious diseases, World</tspan></text></a><text font-size="14.40" x="15.0" y="53.7" fill="#666"><tspan x="15" y="53.72">Smallpox was declared eradicated in 1977, and Guinea worm and polio are on their way to be eradicated. While yaws</tspan><tspan x="15" y="69.56">and dog-transmitted rabies could be eradicated, it is currently impossible for Malaria, Tuberculosis, and HIV/AIDS.</tspan></text></g><g class="LineChart"><defs><clipPath id="boundsClip-789"><rect x="87.598" y="0" width="830" height="928.8"></rect></clipPath></defs><g class="AxisBoxView"><g class="HorizontalAxis"><text x="97.6" y="556.5" fill="#666" text-anchor="middle" font-size="16.2">1920</text><text x="225.1" y="556.5" fill="#666" text-anchor="middle" font-size="16.2">1940</text><text x="352.5" y="556.5" fill="#666" text-anchor="middle" font-size="16.2">1960</text><text x="480" y="556.5" fill="#666" text-anchor="middle" font-size="16.2">1980</text><text x="607.4" y="556.5" fill="#666" text-anchor="middle" font-size="16.2">2000</text><text x="715.8" y="556.5" fill="#666" text-anchor="middle" font-size="16.2">2017</text></g><g class="VerticalAxis"><text x="92.60" y="497.1" fill="#666" dominant-baseline="middle" text-anchor="end" font-size="16.2">10</text><text x="92.60" y="442.5" fill="#666" dominant-baseline="middle" text-anchor="end" font-size="16.2">100</text><text x="92.60" y="387.9" fill="#666" dominant-baseline="middle" text-anchor="end" font-size="16.2">1,000</text><text x="92.60" y="333.3" fill="#666" dominant-baseline="middle" text-anchor="end" font-size="16.2">10,000</text><text x="92.60" y="278.7" fill="#666" dominant-baseline="middle" text-anchor="end" font-size="16.2">100,000</text><text x="92.60" y="224.1" fill="#666" dominant-baseline="middle" text-anchor="end" font-size="16.2">1 million</text><text x="92.60" y="169.5" fill="#666" dominant-baseline="middle" text-anchor="end" font-size="16.2">10 million</text><text x="92.60" y="114.9" fill="#666" dominant-baseline="middle" text-anchor="end" font-size="16.2">100 million</text></g><g class="AxisGridLines"><line x1="97.60" y1="497.1" x2="715.76" y2="497.1" stroke="#ddd" stroke-dasharray="3,2"></line><line x1="97.60" y1="442.5" x2="715.76" y2="442.5" stroke="#ddd" stroke-dasharray="3,2"></line><line x1="97.60" y1="387.9" x2="715.76" y2="387.9" stroke="#ddd" stroke-dasharray="3,2"></line><line x1="97.60" y1="333.3" x2="715.76" y2="333.3" stroke="#ddd" stroke-dasharray="3,2"></line><line x1="97.60" y1="278.7" x2="715.76" y2="278.7" stroke="#ddd" stroke-dasharray="3,2"></line><line x1="97.60" y1="224.1" x2="715.76" y2="224.1" stroke="#ddd" stroke-dasharray="3,2"></line><line x1="97.60" y1="169.5" x2="715.76" y2="169.5" stroke="#ddd" stroke-dasharray="3,2"></line><line x1="97.60" y1="114.9" x2="715.76" y2="114.9" stroke="#ddd" stroke-dasharray="3,2"></line></g></g><g clip-path="url(#boundsClip-789)"><g class="HeightedLegend clickable"><g class="legendMark"><rect x="715.76" y="90.75" width="79.28" height="13.5" fill="#fff" opacity="0"></rect><text font-size="13.50" x="720.8" y="101.5" fill="#9ecc8a"><tspan x="720.76" y="101.55">Malaria</tspan></text></g><g class="legendMark"><rect x="715.76" y="165.35" width="111.68" height="13.5" fill="#fff" opacity="0"></rect><text font-size="13.50" x="720.8" y="176.2" fill="#e6332e"><tspan x="720.76" y="176.15">Tuberculosis</tspan></text></g><g class="legendMark"><rect x="715.76" y="201.65" width="92.915" height="13.5" fill="#fff" opacity="0"></rect><text font-size="13.50" x="720.8" y="212.5" fill="#2a939b"><tspan x="720.76" y="212.45000000000002">HIV/AIDS</tspan></text></g><g class="legendMark"><rect x="715.76" y="284.35" width="68.075" height="13.5" fill="#fff" opacity="0"></rect><text font-size="13.50" x="720.8" y="295.2" fill="#a652ba"><tspan x="720.76" y="295.15000000000003">Yaws</tspan></text></g><g class="legendMark"><rect x="715.76" y="319.65" width="77.12" height="13.5" fill="#fff" opacity="0"></rect><text font-size="13.50" x="720.8" y="330.4" fill="#f6a324"><tspan x="720.76" y="330.45">Rabies</tspan></text></g><g class="legendMark"><rect x="715.76" y="453.85" width="119.24000000000001" height="13.5" fill="#fff" opacity="0"></rect><text font-size="13.50" x="720.8" y="464.7" fill="#34983f"><tspan x="720.76" y="464.65000000000003">Paralytic polio</tspan></text></g><g class="legendMark"><rect x="715.76" y="468.65" width="115.46000000000001" height="13.5" fill="#fff" opacity="0"></rect><text font-size="13.50" x="720.8" y="479.4" fill="#ca2628"><tspan x="720.76" y="479.45">Guinea worm</tspan></text></g><g class="legendMark"><rect x="715.76" y="528.55" width="90.62" height="13.5" fill="#fff" opacity="0"></rect><text font-size="13.50" x="720.8" y="539.3" fill="#3360a9"><tspan x="720.76" y="539.3499999999999">Smallpox</tspan></text></g></g><g class="Lines"><rect x="98" y="92" width="618" height="443" fill="rgba(255,255,255,0)" opacity="0"></rect><g class="key-World_0"><path stroke="#ca2628" stroke-linecap="round" d="M518 304L525 258L531 233L537 227L544 235L550 239L556 247L563 259L569 260L576 263L582 255L588 274L595 273L601 267L607 273L614 276L620 280L627 294L633 313L639 322L646 311L652 334L658 352L665 360L671 374L678 387L684 403L690 433L697 437L703 478L709 475L716 475" fill="none" stroke-width="1.5"></path><g fill="#ca2628"><circle cx="518" cy="304" r="2"></circle><circle cx="525" cy="258" r="2"></circle><circle cx="531" cy="233" r="2"></circle><circle cx="537" cy="227" r="2"></circle><circle cx="544" cy="235" r="2"></circle><circle cx="550" cy="239" r="2"></circle><circle cx="556" cy="247" r="2"></circle><circle cx="563" cy="259" r="2"></circle><circle cx="569" cy="260" r="2"></circle><circle cx="576" cy="263" r="2"></circle><circle cx="582" cy="255" r="2"></circle><circle cx="588" cy="274" r="2"></circle><circle cx="595" cy="273" r="2"></circle><circle cx="601" cy="267" r="2"></circle><circle cx="607" cy="273" r="2"></circle><circle cx="614" cy="276" r="2"></circle><circle cx="620" cy="280" r="2"></circle><circle cx="627" cy="294" r="2"></circle><circle cx="633" cy="313" r="2"></circle><circle cx="639" cy="322" r="2"></circle><circle cx="646" cy="311" r="2"></circle><circle cx="652" cy="334" r="2"></circle><circle cx="658" cy="352" r="2"></circle><circle cx="665" cy="360" r="2"></circle><circle cx="671" cy="374" r="2"></circle><circle cx="678" cy="387" r="2"></circle><circle cx="684" cy="403" r="2"></circle><circle cx="690" cy="433" r="2"></circle><circle cx="697" cy="437" r="2"></circle><circle cx="703" cy="478" r="2"></circle><circle cx="709" cy="475" r="2"></circle><circle cx="716" cy="475" r="2"></circle></g></g><g class="key-World_1"><path stroke="#34983f" stroke-linecap="round" d="M480 248L486 243L493 248L499 254L506 257L512 255L518 259L525 255L531 258L537 268L544 272L550 284L556 279L563 286L569 291L576 296L582 309L588 303L595 298L601 295L607 333L614 392L620 358L627 386L633 379L639 369L646 369L652 378L658 372L665 372L671 378L678 393L684 415L690 402L697 406L703 439L709 461" fill="none" stroke-width="1.5"></path><g fill="#34983f"><circle cx="480" cy="248" r="2"></circle><circle cx="486" cy="243" r="2"></circle><circle cx="493" cy="248" r="2"></circle><circle cx="499" cy="254" r="2"></circle><circle cx="506" cy="257" r="2"></circle><circle cx="512" cy="255" r="2"></circle><circle cx="518" cy="259" r="2"></circle><circle cx="525" cy="255" r="2"></circle><circle cx="531" cy="258" r="2"></circle><circle cx="537" cy="268" r="2"></circle><circle cx="544" cy="272" r="2"></circle><circle cx="550" cy="284" r="2"></circle><circle cx="556" cy="279" r="2"></circle><circle cx="563" cy="286" r="2"></circle><circle cx="569" cy="291" r="2"></circle><circle cx="576" cy="296" r="2"></circle><circle cx="582" cy="309" r="2"></circle><circle cx="588" cy="303" r="2"></circle><circle cx="595" cy="298" r="2"></circle><circle cx="601" cy="295" r="2"></circle><circle cx="607" cy="333" r="2"></circle><circle cx="614" cy="392" r="2"></circle><circle cx="620" cy="358" r="2"></circle><circle cx="627" cy="386" r="2"></circle><circle cx="633" cy="379" r="2"></circle><circle cx="639" cy="369" r="2"></circle><circle cx="646" cy="369" r="2"></circle><circle cx="652" cy="378" r="2"></circle><circle cx="658" cy="372" r="2"></circle><circle cx="665" cy="372" r="2"></circle><circle cx="671" cy="378" r="2"></circle><circle cx="678" cy="393" r="2"></circle><circle cx="684" cy="415" r="2"></circle><circle cx="690" cy="402" r="2"></circle><circle cx="697" cy="406" r="2"></circle><circle cx="703" cy="439" r="2"></circle><circle cx="709" cy="461" r="2"></circle></g></g><g class="key-World_2"><path stroke="#3360a9" stroke-linecap="round" d="M98 246L104 252L110 264L117 266L123 264L130 254L136 251L142 251L149 255L155 255L161 248L168 264L174 261L180 251L187 251L193 250L200 256L206 269L212 270L219 264L225 258L231 263L238 274L244 261L251 245L257 246L263 253L270 267L276 267L282 235L289 244L295 238L302 267L308 280L314 279L321 281L327 280L333 268L340 254L346 280L353 288L359 281L365 279L372 272L378 285L384 276L391 281L397 272L404 284L410 293L416 305L423 294L429 289L435 272L442 260L448 318L455 389L461 360L467 535" fill="none" stroke-width="1.5"></path><g fill="#3360a9"><circle cx="98" cy="246" r="2"></circle><circle cx="104" cy="252" r="2"></circle><circle cx="110" cy="264" r="2"></circle><circle cx="117" cy="266" r="2"></circle><circle cx="123" cy="264" r="2"></circle><circle cx="130" cy="254" r="2"></circle><circle cx="136" cy="251" r="2"></circle><circle cx="142" cy="251" r="2"></circle><circle cx="149" cy="255" r="2"></circle><circle cx="155" cy="255" r="2"></circle><circle cx="161" cy="248" r="2"></circle><circle cx="168" cy="264" r="2"></circle><circle cx="174" cy="261" r="2"></circle><circle cx="180" cy="251" r="2"></circle><circle cx="187" cy="251" r="2"></circle><circle cx="193" cy="250" r="2"></circle><circle cx="200" cy="256" r="2"></circle><circle cx="206" cy="269" r="2"></circle><circle cx="212" cy="270" r="2"></circle><circle cx="219" cy="264" r="2"></circle><circle cx="225" cy="258" r="2"></circle><circle cx="231" cy="263" r="2"></circle><circle cx="238" cy="274" r="2"></circle><circle cx="244" cy="261" r="2"></circle><circle cx="251" cy="245" r="2"></circle><circle cx="257" cy="246" r="2"></circle><circle cx="263" cy="253" r="2"></circle><circle cx="270" cy="267" r="2"></circle><circle cx="276" cy="267" r="2"></circle><circle cx="282" cy="235" r="2"></circle><circle cx="289" cy="244" r="2"></circle><circle cx="295" cy="238" r="2"></circle><circle cx="302" cy="267" r="2"></circle><circle cx="308" cy="280" r="2"></circle><circle cx="314" cy="279" r="2"></circle><circle cx="321" cy="281" r="2"></circle><circle cx="327" cy="280" r="2"></circle><circle cx="333" cy="268" r="2"></circle><circle cx="340" cy="254" r="2"></circle><circle cx="346" cy="280" r="2"></circle><circle cx="353" cy="288" r="2"></circle><circle cx="359" cy="281" r="2"></circle><circle cx="365" cy="279" r="2"></circle><circle cx="372" cy="272" r="2"></circle><circle cx="378" cy="285" r="2"></circle><circle cx="384" cy="276" r="2"></circle><circle cx="391" cy="281" r="2"></circle><circle cx="397" cy="272" r="2"></circle><circle cx="404" cy="284" r="2"></circle><circle cx="410" cy="293" r="2"></circle><circle cx="416" cy="305" r="2"></circle><circle cx="423" cy="294" r="2"></circle><circle cx="429" cy="289" r="2"></circle><circle cx="435" cy="272" r="2"></circle><circle cx="442" cy="260" r="2"></circle><circle cx="448" cy="318" r="2"></circle><circle cx="455" cy="389" r="2"></circle><circle cx="461" cy="360" r="2"></circle><circle cx="467" cy="535" r="2"></circle></g></g><g class="key-World_3"><path stroke="#a652ba" stroke-linecap="round" d="M658 292L665 287L671 284L678 295L684 296L690 291L697 295L703 297L709 291" fill="none" stroke-width="1.5"></path><g fill="#a652ba"><circle cx="658" cy="292" r="2"></circle><circle cx="665" cy="287" r="2"></circle><circle cx="671" cy="284" r="2"></circle><circle cx="678" cy="295" r="2"></circle><circle cx="684" cy="296" r="2"></circle><circle cx="690" cy="291" r="2"></circle><circle cx="697" cy="295" r="2"></circle><circle cx="703" cy="297" r="2"></circle><circle cx="709" cy="291" r="2"></circle></g></g><g class="key-World_4"><path stroke="#f6a324" stroke-linecap="round" d="M544 301L550 301L556 302L563 302L569 303L576 303L582 304L588 305L595 306L601 307L607 308L614 309L620 310L627 311L633 312L639 313L646 315L652 316L658 318L665 319L671 320L678 321L684 322L690 323L697 324L703 325L709 326L716 326" fill="none" stroke-width="1.5"></path><g fill="#f6a324"><circle cx="544" cy="301" r="2"></circle><circle cx="550" cy="301" r="2"></circle><circle cx="556" cy="302" r="2"></circle><circle cx="563" cy="302" r="2"></circle><circle cx="569" cy="303" r="2"></circle><circle cx="576" cy="303" r="2"></circle><circle cx="582" cy="304" r="2"></circle><circle cx="588" cy="305" r="2"></circle><circle cx="595" cy="306" r="2"></circle><circle cx="601" cy="307" r="2"></circle><circle cx="607" cy="308" r="2"></circle><circle cx="614" cy="309" r="2"></circle><circle cx="620" cy="310" r="2"></circle><circle cx="627" cy="311" r="2"></circle><circle cx="633" cy="312" r="2"></circle><circle cx="639" cy="313" r="2"></circle><circle cx="646" cy="315" r="2"></circle><circle cx="652" cy="316" r="2"></circle><circle cx="658" cy="318" r="2"></circle><circle cx="665" cy="319" r="2"></circle><circle cx="671" cy="320" r="2"></circle><circle cx="678" cy="321" r="2"></circle><circle cx="684" cy="322" r="2"></circle><circle cx="690" cy="323" r="2"></circle><circle cx="697" cy="324" r="2"></circle><circle cx="703" cy="325" r="2"></circle><circle cx="709" cy="326" r="2"></circle><circle cx="716" cy="326" r="2"></circle></g></g><g class="key-World_5"><path stroke="#9ecc8a" stroke-linecap="round" d="M544 97L550 97L556 97L563 96L569 96L576 96L582 96L588 95L595 95L601 95L607 94L614 94L620 93L627 93L633 93L639 92L646 92L652 93L658 93L665 94L671 94L678 94L684 94L690 95L697 95L703 96L709 97L716 98" fill="none" stroke-width="1.5"></path><g fill="#9ecc8a"><circle cx="544" cy="97" r="2"></circle><circle cx="550" cy="97" r="2"></circle><circle cx="556" cy="97" r="2"></circle><circle cx="563" cy="96" r="2"></circle><circle cx="569" cy="96" r="2"></circle><circle cx="576" cy="96" r="2"></circle><circle cx="582" cy="96" r="2"></circle><circle cx="588" cy="95" r="2"></circle><circle cx="595" cy="95" r="2"></circle><circle cx="601" cy="95" r="2"></circle><circle cx="607" cy="94" r="2"></circle><circle cx="614" cy="94" r="2"></circle><circle cx="620" cy="93" r="2"></circle><circle cx="627" cy="93" r="2"></circle><circle cx="633" cy="93" r="2"></circle><circle cx="639" cy="92" r="2"></circle><circle cx="646" cy="92" r="2"></circle><circle cx="652" cy="93" r="2"></circle><circle cx="658" cy="93" r="2"></circle><circle cx="665" cy="94" r="2"></circle><circle cx="671" cy="94" r="2"></circle><circle cx="678" cy="94" r="2"></circle><circle cx="684" cy="94" r="2"></circle><circle cx="690" cy="95" r="2"></circle><circle cx="697" cy="95" r="2"></circle><circle cx="703" cy="96" r="2"></circle><circle cx="709" cy="97" r="2"></circle><circle cx="716" cy="98" r="2"></circle></g></g><g class="key-World_6"><path stroke="#2a939b" stroke-linecap="round" d="M544 207L550 205L556 202L563 201L569 199L576 198L582 198L588 197L595 197L601 197L607 197L614 197L620 199L627 200L633 202L639 203L646 203L652 204L658 205L665 205L671 205L678 205L684 206L690 206L697 207L703 207L709 208L716 208" fill="none" stroke-width="1.5"></path><g fill="#2a939b"><circle cx="544" cy="207" r="2"></circle><circle cx="550" cy="205" r="2"></circle><circle cx="556" cy="202" r="2"></circle><circle cx="563" cy="201" r="2"></circle><circle cx="569" cy="199" r="2"></circle><circle cx="576" cy="198" r="2"></circle><circle cx="582" cy="198" r="2"></circle><circle cx="588" cy="197" r="2"></circle><circle cx="595" cy="197" r="2"></circle><circle cx="601" cy="197" r="2"></circle><circle cx="607" cy="197" r="2"></circle><circle cx="614" cy="197" r="2"></circle><circle cx="620" cy="199" r="2"></circle><circle cx="627" cy="200" r="2"></circle><circle cx="633" cy="202" r="2"></circle><circle cx="639" cy="203" r="2"></circle><circle cx="646" cy="203" r="2"></circle><circle cx="652" cy="204" r="2"></circle><circle cx="658" cy="205" r="2"></circle><circle cx="665" cy="205" r="2"></circle><circle cx="671" cy="205" r="2"></circle><circle cx="678" cy="205" r="2"></circle><circle cx="684" cy="206" r="2"></circle><circle cx="690" cy="206" r="2"></circle><circle cx="697" cy="207" r="2"></circle><circle cx="703" cy="207" r="2"></circle><circle cx="709" cy="208" r="2"></circle><circle cx="716" cy="208" r="2"></circle></g></g><g class="key-World_7"><path stroke="#e6332e" stroke-linecap="round" d="M544 174L550 174L556 174L563 174L569 173L576 173L582 173L588 173L595 173L601 173L607 172L614 172L620 172L627 172L633 172L639 172L646 172L652 172L658 172L665 172L671 172L678 172L684 172L690 172L697 172L703 172L709 172L716 172" fill="none" stroke-width="1.5"></path><g fill="#e6332e"><circle cx="544" cy="174" r="2"></circle><circle cx="550" cy="174" r="2"></circle><circle cx="556" cy="174" r="2"></circle><circle cx="563" cy="174" r="2"></circle><circle cx="569" cy="173" r="2"></circle><circle cx="576" cy="173" r="2"></circle><circle cx="582" cy="173" r="2"></circle><circle cx="588" cy="173" r="2"></circle><circle cx="595" cy="173" r="2"></circle><circle cx="601" cy="173" r="2"></circle><circle cx="607" cy="172" r="2"></circle><circle cx="614" cy="172" r="2"></circle><circle cx="620" cy="172" r="2"></circle><circle cx="627" cy="172" r="2"></circle><circle cx="633" cy="172" r="2"></circle><circle cx="639" cy="172" r="2"></circle><circle cx="646" cy="172" r="2"></circle><circle cx="652" cy="172" r="2"></circle><circle cx="658" cy="172" r="2"></circle><circle cx="665" cy="172" r="2"></circle><circle cx="671" cy="172" r="2"></circle><circle cx="678" cy="172" r="2"></circle><circle cx="684" cy="172" r="2"></circle><circle cx="690" cy="172" r="2"></circle><circle cx="697" cy="172" r="2"></circle><circle cx="703" cy="172" r="2"></circle><circle cx="709" cy="172" r="2"></circle><circle cx="716" cy="172" r="2"></circle></g></g></g></g></g><g style="fill: #777;" class="SourcesFooter"><g style="fill: #777;" class="clickable"><text font-size="12.60" x="15.0" y="581.6"><tspan x="15" y="581.58">Source: WHO (2018), Tebbens et al. (2011), IHME (2016)</tspan></text></g><text font-size="12.60" x="775.4" y="581.6"><tspan x="775.402" y="581.58"><a style="fill: #777;" class="cclogo" href="http://creativecommons.org/licenses/by-sa/4.0/deed.en_US" target="_blank">CC BY-SA</a></tspan></text></g></g></svg>