<svg xmlns="http://www.w3.org/2000/svg" version="1.1" style="font-family: 'Helvetica Neue', Helvetica, Arial, sans-serif; font-size: 18px; background-color: white; text-rendering: optimizeLegibility; -webkit-font-smoothing: antialiased;" width="850" height="600"><g class="ChartTab"><g class="HeaderView"><g opacity="0.8" transform="translate(778, 15) scale(0.27)"><a xmlns:xlink="http://www.w3.org/1999/xlink" xlink:href="https://ourworldindata.org" target="_blank"><g><rect x="0" y="0" fill="#1B2543" width="211.2" height="130.1"/><rect x="0" y="112.2" fill="#E63912" width="211.2" height="17.9"/><g><rect x="1.2" y="12.3" fill="none" width="210.2" height="99.2"/><path fill="#FFFFFF" d="M37.8,32.2c0,12.7-7.7,19.4-17.1,19.4c-9.7,0-16.6-7.5-16.6-18.7c0-11.7,7.3-19.3,17.1-19.3 C31.3,13.7,37.8,21.3,37.8,32.2z M9.2,32.8c0,7.9,4.3,14.9,11.8,14.9c7.5,0,11.8-6.9,11.8-15.3c0-7.3-3.8-14.9-11.8-14.9 C13.1,17.5,9.2,24.8,9.2,32.8z"/><path fill="#FFFFFF" d="M62.7,43.8c0,2.7,0.1,5.1,0.2,7.2h-4.3l-0.3-4.3h-0.1c-1.3,2.1-4,4.9-8.8,4.9c-4.2,0-9.1-2.3-9.1-11.6 V24.6h4.8v14.6c0,5,1.5,8.4,5.9,8.4c3.2,0,5.5-2.2,6.3-4.4c0.3-0.7,0.4-1.6,0.4-2.5V24.6h4.8V43.8z"/><path fill="#FFFFFF" d="M67.3,32.8c0-3.1-0.1-5.8-0.2-8.2h4.2l0.2,5.2h0.2c1.2-3.5,4.1-5.8,7.3-5.8c0.5,0,0.9,0.1,1.4,0.2v4.5 c-0.5-0.1-1-0.2-1.6-0.2c-3.4,0-5.8,2.6-6.5,6.2c-0.1,0.7-0.2,1.4-0.2,2.2V51h-4.8V32.8z"/><path fill="#FFFFFF" d="M95.4,51l-9.4-36.8h5l4.4,18.6c1.1,4.6,2.1,9.2,2.7,12.7h0.1c0.6-3.7,1.8-8,3-12.8l4.9-18.5h5l4.5,18.7 c1,4.4,2,8.7,2.6,12.6h0.1c0.8-4,1.8-8.1,3-12.7l4.9-18.5h4.9L120.6,51h-5L111,31.9c-1.1-4.7-1.9-8.3-2.4-12h-0.1 c-0.7,3.7-1.5,7.3-2.8,12L100.4,51H95.4z"/><path fill="#FFFFFF" d="M154.9,37.6c0,9.8-6.8,14-13.2,14c-7.2,0-12.7-5.2-12.7-13.6c0-8.8,5.8-14,13.1-14 C149.8,24,154.9,29.5,154.9,37.6z M133.9,37.9c0,5.8,3.3,10.1,8,10.1c4.6,0,8-4.3,8-10.3c0-4.5-2.2-10.1-7.9-10.1 C136.3,27.6,133.9,32.8,133.9,37.9z"/><path fill="#FFFFFF" d="M158.2,32.8c0-3.1-0.1-5.8-0.2-8.2h4.2l0.2,5.2h0.2c1.2-3.5,4.1-5.8,7.3-5.8c0.5,0,0.9,0.1,1.4,0.2v4.5 c-0.5-0.1-1-0.2-1.6-0.2c-3.4,0-5.8,2.6-6.5,6.2c-0.1,0.7-0.2,1.4-0.2,2.2V51h-4.8V32.8z"/><path fill="#FFFFFF" d="M173.5,12.3h4.8V51h-4.8V12.3z"/><path fill="#FFFFFF" d="M206.5,12.3v31.9c0,2.3,0.1,5,0.2,6.8h-4.3l-0.2-4.6H202c-1.5,2.9-4.7,5.2-9,5.2 c-6.4,0-11.3-5.4-11.3-13.4c-0.1-8.8,5.4-14.2,11.9-14.2c4,0,6.8,1.9,8,4h0.1V12.3H206.5z M201.7,35.4c0-0.6-0.1-1.4-0.2-2 c-0.7-3.1-3.3-5.6-6.9-5.6c-5,0-7.9,4.4-7.9,10.2c0,5.3,2.6,9.8,7.8,9.8c3.2,0,6.2-2.1,7.1-5.7c0.2-0.7,0.2-1.3,0.2-2.1V35.4z"/><path fill="#FFFFFF" d="M42.8,64c0.1,1.6-1.1,2.9-3.1,2.9c-1.7,0-2.9-1.3-2.9-2.9c0-1.7,1.3-3,3-3C41.7,61,42.8,62.3,42.8,64z M37.4,97.8V71.4h4.8v26.4H37.4z"/><path fill="#FFFFFF" d="M47.5,78.6c0-2.7-0.1-5-0.2-7.1h4.3l0.3,4.4h0.1c1.3-2.5,4.4-5,8.8-5c3.7,0,9.4,2.2,9.4,11.2v15.8h-4.8 V82.6c0-4.3-1.6-7.8-6.1-7.8c-3.2,0-5.6,2.2-6.5,4.9c-0.2,0.6-0.3,1.4-0.3,2.2v15.9h-4.8V78.6z"/><path fill="#FFFFFF" d="M84,61.6c2.9-0.4,6.3-0.8,10.1-0.8c6.8,0,11.7,1.6,14.9,4.6c3.3,3,5.2,7.3,5.2,13.2c0,6-1.9,10.9-5.3,14.3 c-3.4,3.4-9.1,5.3-16.3,5.3c-3.4,0-6.2-0.2-8.6-0.4V61.6z M88.8,94.1c1.2,0.2,3,0.3,4.8,0.3c10.2,0,15.7-5.7,15.7-15.6 c0.1-8.7-4.9-14.2-14.9-14.2c-2.5,0-4.3,0.2-5.6,0.5V94.1z"/><path fill="#FFFFFF" d="M132.1,97.8l-0.4-3.3h-0.2c-1.5,2.1-4.3,3.9-8.1,3.9c-5.4,0-8.1-3.8-8.1-7.6c0-6.4,5.7-9.9,15.9-9.8v-0.5 c0-2.2-0.6-6.1-6-6.1c-2.5,0-5,0.8-6.9,2l-1.1-3.2c2.2-1.4,5.4-2.3,8.7-2.3c8.1,0,10.1,5.5,10.1,10.8v9.9c0,2.3,0.1,4.5,0.4,6.3 H132.1z M131.4,84.4c-5.3-0.1-11.2,0.8-11.2,5.9c0,3.1,2.1,4.6,4.5,4.6c3.4,0,5.6-2.2,6.4-4.4c0.2-0.5,0.3-1,0.3-1.5V84.4z"/><path fill="#FFFFFF" d="M146.6,63.9v7.6h6.9v3.7h-6.9v14.2c0,3.3,0.9,5.1,3.6,5.1c1.3,0,2.2-0.2,2.8-0.3l0.2,3.6 c-0.9,0.4-2.4,0.7-4.3,0.7c-2.2,0-4-0.7-5.2-2c-1.4-1.4-1.9-3.8-1.9-6.9V75.1h-4.1v-3.7h4.1v-6.3L146.6,63.9z"/><path fill="#FFFFFF" d="M171.4,97.8l-0.4-3.3h-0.2c-1.5,2.1-4.3,3.9-8.1,3.9c-5.4,0-8.1-3.8-8.1-7.6c0-6.4,5.7-9.9,15.9-9.8v-0.5 c0-2.2-0.6-6.1-6-6.1c-2.5,0-5,0.8-6.9,2l-1.1-3.2c2.2-1.4,5.4-2.3,8.7-2.3c8.1,0,10.1,5.5,10.1,10.8v9.9c0,2.3,0.1,4.5,0.4,6.3 H171.4z M170.7,84.4c-5.3-0.1-11.2,0.8-11.2,5.9c0,3.1,2.1,4.6,4.5,4.6c3.4,0,5.6-2.2,6.4-4.4c0.2-0.5,0.3-1,0.3-1.5V84.4z"/></g></g></a></g><a href="https://ourworldindata.org/grapher/the-number-of-deaths-from-tetanus-by-world-region" target="_blank"><text font-size="25.20" x="15.0" y="35.2" fill="#555"><tspan x="15" y="35.160000000000004">The number of deaths from tetanus by world region</tspan></text></a><text font-size="14.40" x="15.0" y="53.7" fill="#666"><tspan x="15" y="53.72">These include deaths at any age and of both sexes.</tspan></text></g><g class="StackedArea"><defs><clipPath id="boundsClip-779"><rect x="78.968" y="0" width="820" height="959.8"></rect></clipPath></defs><g class="AxisBoxView"><g class="HorizontalAxis"><text x="79" y="556.5" fill="#666" text-anchor="middle" font-size="16.2">1990</text><text x="192.3" y="556.5" fill="#666" text-anchor="middle" font-size="16.2">1995</text><text x="305.6" y="556.5" fill="#666" text-anchor="middle" font-size="16.2">2000</text><text x="418.9" y="556.5" fill="#666" text-anchor="middle" font-size="16.2">2005</text><text x="532.2" y="556.5" fill="#666" text-anchor="middle" font-size="16.2">2010</text><text x="645.5" y="556.5" fill="#666" text-anchor="middle" font-size="16.2">2015</text><text x="690.8" y="556.5" fill="#666" text-anchor="middle" font-size="16.2">2017</text></g><g class="VerticalAxis"><text x="73.97" y="535.3" fill="#666" dominant-baseline="middle" text-anchor="end" font-size="16.2">0</text><text x="73.97" y="462.4" fill="#666" dominant-baseline="middle" text-anchor="end" font-size="16.2">50,000</text><text x="73.97" y="389.5" fill="#666" dominant-baseline="middle" text-anchor="end" font-size="16.2">100,000</text><text x="73.97" y="316.6" fill="#666" dominant-baseline="middle" text-anchor="end" font-size="16.2">150,000</text><text x="73.97" y="243.7" fill="#666" dominant-baseline="middle" text-anchor="end" font-size="16.2">200,000</text><text x="73.97" y="170.7" fill="#666" dominant-baseline="middle" text-anchor="end" font-size="16.2">250,000</text><text x="73.97" y="97.8" fill="#666" dominant-baseline="middle" text-anchor="end" font-size="16.2">300,000</text></g><g class="AxisGridLines"><line x1="78.97" y1="535.3" x2="690.78" y2="535.3" stroke="#ccc"></line><line x1="78.97" y1="462.4" x2="690.78" y2="462.4" stroke="#ddd" stroke-dasharray="3,2"></line><line x1="78.97" y1="389.5" x2="690.78" y2="389.5" stroke="#ddd" stroke-dasharray="3,2"></line><line x1="78.97" y1="316.6" x2="690.78" y2="316.6" stroke="#ddd" stroke-dasharray="3,2"></line><line x1="78.97" y1="243.7" x2="690.78" y2="243.7" stroke="#ddd" stroke-dasharray="3,2"></line><line x1="78.97" y1="170.7" x2="690.78" y2="170.7" stroke="#ddd" stroke-dasharray="3,2"></line><line x1="78.97" y1="97.8" x2="690.78" y2="97.8" stroke="#ddd" stroke-dasharray="3,2"></line></g></g><g clip-path="url(#boundsClip-779)"><g class="HeightedLegend clickable"><g class="legendMark"><g class="indicator"><line x1="695.785" y1="531.3" x2="718.285" y2="531.3" stroke="#666" stroke-width="0.5"></line><line x1="718.285" y1="531.3" x2="718.285" y2="528.55" stroke="#666" stroke-width="0.5"></line><line x1="718.285" y1="528.55" x2="720.785" y2="528.55" stroke="#666" stroke-width="0.5"></line></g><rect x="690.785" y="521.8" width="126.26" height="13.5" fill="#fff" opacity="0"></rect><text font-size="13.50" x="725.8" y="532.6" fill="#3360a9"><tspan x="725.785" y="532.5999999999999">Southeast Asia</tspan></text></g><g class="legendMark"><g class="indicator"><line x1="695.785" y1="517.8" x2="716.6183333333333" y2="517.8" stroke="#666" stroke-width="0.5"></line><line x1="716.6183333333333" y1="517.8" x2="716.6183333333333" y2="513.05" stroke="#666" stroke-width="0.5"></line><line x1="716.6183333333333" y1="513.05" x2="720.785" y2="513.05" stroke="#666" stroke-width="0.5"></line></g><rect x="690.785" y="506.29999999999995" width="100.61" height="13.5" fill="#fff" opacity="0"></rect><text font-size="13.50" x="725.8" y="517.1" fill="#ca2628"><tspan x="725.785" y="517.0999999999999">South Asia</tspan></text></g><g class="legendMark"><g class="indicator"><line x1="695.785" y1="508.3" x2="714.9516666666666" y2="508.3" stroke="#666" stroke-width="0.5"></line><line x1="714.9516666666666" y1="508.3" x2="714.9516666666666" y2="497.55" stroke="#666" stroke-width="0.5"></line><line x1="714.9516666666666" y1="497.55" x2="720.785" y2="497.55" stroke="#666" stroke-width="0.5"></line></g><rect x="690.785" y="490.8" width="108.71000000000001" height="13.5" fill="#fff" opacity="0"></rect><text font-size="13.50" x="725.8" y="501.6" fill="#34983f"><tspan x="725.785" y="501.6">Central Asia</tspan></text></g><g class="legendMark"><g class="indicator"><line x1="695.785" y1="507.8" x2="713.285" y2="507.8" stroke="#666" stroke-width="0.5"></line><line x1="713.285" y1="507.8" x2="713.285" y2="482.05" stroke="#666" stroke-width="0.5"></line><line x1="713.285" y1="482.05" x2="720.785" y2="482.05" stroke="#666" stroke-width="0.5"></line></g><rect x="690.785" y="475.3" width="92.24000000000001" height="13.5" fill="#fff" opacity="0"></rect><text font-size="13.50" x="725.8" y="486.1" fill="#f6a324"><tspan x="725.785" y="486.1">East Asia</tspan></text></g><g class="legendMark"><g class="indicator"><line x1="695.785" y1="507" x2="711.6183333333333" y2="507" stroke="#666" stroke-width="0.5"></line><line x1="711.6183333333333" y1="507" x2="711.6183333333333" y2="459.25" stroke="#666" stroke-width="0.5"></line><line x1="711.6183333333333" y1="459.25" x2="720.785" y2="459.25" stroke="#666" stroke-width="0.5"></line></g><rect x="690.785" y="445.2" width="144.215" height="28.1" fill="#fff" opacity="0"></rect><text font-size="13.50" x="725.8" y="456.0" fill="#a652ba"><tspan x="725.785" y="456">Latin America and</tspan><tspan x="725.785" y="470.85">Caribbean</tspan></text></g><g class="legendMark"><g class="indicator"><line x1="695.785" y1="494.6" x2="709.9516666666666" y2="494.6" stroke="#666" stroke-width="0.5"></line><line x1="709.9516666666666" y1="494.6" x2="709.9516666666666" y2="429.15" stroke="#666" stroke-width="0.5"></line><line x1="709.9516666666666" y1="429.15" x2="720.785" y2="429.15" stroke="#666" stroke-width="0.5"></line></g><rect x="690.785" y="415.09999999999997" width="114.92" height="28.1" fill="#fff" opacity="0"></rect><text font-size="13.50" x="725.8" y="425.9" fill="#2a939b"><tspan x="725.785" y="425.9">Sub-Saharan</tspan><tspan x="725.785" y="440.75">Africa</tspan></text></g><g class="legendMark"><g class="indicator"><line x1="695.785" y1="482.6" x2="708.285" y2="482.6" stroke="#666" stroke-width="0.5"></line><line x1="708.285" y1="482.6" x2="708.285" y2="406.34999999999997" stroke="#666" stroke-width="0.5"></line><line x1="708.285" y1="406.34999999999997" x2="720.785" y2="406.34999999999997" stroke="#666" stroke-width="0.5"></line></g><rect x="690.785" y="399.59999999999997" width="129.23000000000002" height="13.5" fill="#fff" opacity="0"></rect><text font-size="13.50" x="725.8" y="410.4" fill="#e6332e"><tspan x="725.785" y="410.4">Eastern Europe</tspan></text></g><g class="legendMark"><g class="indicator"><line x1="695.785" y1="482.6" x2="706.6183333333333" y2="482.6" stroke="#666" stroke-width="0.5"></line><line x1="706.6183333333333" y1="482.6" x2="706.6183333333333" y2="390.84999999999997" stroke="#666" stroke-width="0.5"></line><line x1="706.6183333333333" y1="390.84999999999997" x2="720.785" y2="390.84999999999997" stroke="#666" stroke-width="0.5"></line></g><rect x="690.785" y="384.09999999999997" width="126.125" height="13.5" fill="#fff" opacity="0"></rect><text font-size="13.50" x="725.8" y="394.9" fill="#9ecc8a"><tspan x="725.785" y="394.9">Central Europe</tspan></text></g><g class="legendMark"><g class="indicator"><line x1="695.785" y1="482.5" x2="704.9516666666666" y2="482.5" stroke="#666" stroke-width="0.5"></line><line x1="704.9516666666666" y1="482.5" x2="704.9516666666666" y2="375.34999999999997" stroke="#666" stroke-width="0.5"></line><line x1="704.9516666666666" y1="375.34999999999997" x2="720.785" y2="375.34999999999997" stroke="#666" stroke-width="0.5"></line></g><rect x="690.785" y="368.59999999999997" width="132.875" height="13.5" fill="#fff" opacity="0"></rect><text font-size="13.50" x="725.8" y="379.4" fill="#ffd53e"><tspan x="725.785" y="379.4">Western Europe</tspan></text></g><g class="legendMark"><g class="indicator"><line x1="695.785" y1="482.5" x2="703.285" y2="482.5" stroke="#666" stroke-width="0.5"></line><line x1="703.285" y1="482.5" x2="703.285" y2="359.84999999999997" stroke="#666" stroke-width="0.5"></line><line x1="703.285" y1="359.84999999999997" x2="720.785" y2="359.84999999999997" stroke="#666" stroke-width="0.5"></line></g><rect x="690.785" y="353.09999999999997" width="121.4" height="13.5" fill="#fff" opacity="0"></rect><text font-size="13.50" x="725.8" y="363.9" fill="#b077b1"><tspan x="725.785" y="363.9">North America</tspan></text></g><g class="legendMark"><g class="indicator"><line x1="695.785" y1="481.1" x2="701.6183333333333" y2="481.1" stroke="#666" stroke-width="0.5"></line><line x1="701.6183333333333" y1="481.1" x2="701.6183333333333" y2="337.04999999999995" stroke="#666" stroke-width="0.5"></line><line x1="701.6183333333333" y1="337.04999999999995" x2="720.785" y2="337.04999999999995" stroke="#666" stroke-width="0.5"></line></g><rect x="690.785" y="322.99999999999994" width="132.875" height="28.1" fill="#fff" opacity="0"></rect><text font-size="13.50" x="725.8" y="333.8" fill="#7ec7ce"><tspan x="725.785" y="333.79999999999995">North Africa and</tspan><tspan x="725.785" y="348.65">Middle East</tspan></text></g><g class="legendMark"><g class="indicator"><line x1="695.785" y1="479.7" x2="699.9516666666666" y2="479.7" stroke="#666" stroke-width="0.5"></line><line x1="699.9516666666666" y1="479.7" x2="699.9516666666666" y2="314.24999999999994" stroke="#666" stroke-width="0.5"></line><line x1="699.9516666666666" y1="314.24999999999994" x2="720.785" y2="314.24999999999994" stroke="#666" stroke-width="0.5"></line></g><rect x="690.785" y="307.49999999999994" width="85.49000000000001" height="13.5" fill="#fff" opacity="0"></rect><text font-size="13.50" x="725.8" y="318.3" fill="#e6332e"><tspan x="725.785" y="318.29999999999995">Oceania</tspan></text></g></g><g class="Areas"><rect x="78.968" y="76.6" width="611.817" height="458.69999999999993" opacity="0" fill="rgba(255,255,255,0)"></rect><path stroke-linecap="round" d="M79 483.3L101.6 488.7L124.3 492.7L146.9 495.8L169.6 498.7L192.3 501.7L214.9 504.4L237.6 506.4L260.2 507.7L282.9 508.7L305.6 510.6L328.2 512.3L350.9 513.7L373.5 515L396.2 516.1L418.9 517.5L441.5 518.7L464.2 520.1L486.8 521.4L509.5 522.6L532.2 523.6L554.8 524.5L577.5 525L600.1 525.7L622.8 526.3L645.5 526.5L668.1 526.9L690.8 527.3L690.785 535.3L78.968 535.3" fill="#3360a9" fill-opacity="0.7" class="Southeast-Asia_0-area"></path><path stroke-linecap="round" d="M79 198.3L101.6 232.5L124.3 253L146.9 268.7L169.6 286.9L192.3 307.6L214.9 330.6L237.6 347.8L260.2 361.5L282.9 375L305.6 388.7L328.2 401L350.9 411.8L373.5 421.4L396.2 430.7L418.9 440.5L441.5 449.1L464.2 458.2L486.8 467.3L509.5 476.3L532.2 483.4L554.8 488.9L577.5 492.5L600.1 496.2L622.8 500.2L645.5 503.1L668.1 505.8L690.8 508.3L690.8 527.3L668.1 526.9L645.5 526.5L622.8 526.3L600.1 525.7L577.5 525L554.8 524.5L532.2 523.6L509.5 522.6L486.8 521.4L464.2 520.1L441.5 518.7L418.9 517.5L396.2 516.1L373.5 515L350.9 513.7L328.2 512.3L305.6 510.6L282.9 508.7L260.2 507.7L237.6 506.4L214.9 504.4L192.3 501.7L169.6 498.7L146.9 495.8L124.3 492.7L101.6 488.7L79 483.3" fill="#ca2628" fill-opacity="0.7" class="South-Asia_0-area"></path><path stroke-linecap="round" d="M79 198.2L101.6 232.5L124.3 253L146.9 268.7L169.6 286.8L192.3 307.6L214.9 330.5L237.6 347.8L260.2 361.4L282.9 375L305.6 388.7L328.2 401L350.9 411.8L373.5 421.4L396.2 430.7L418.9 440.5L441.5 449.1L464.2 458.2L486.8 467.3L509.5 476.3L532.2 483.4L554.8 488.9L577.5 492.5L600.1 496.2L622.8 500.2L645.5 503.1L668.1 505.8L690.8 508.3L690.8 508.3L668.1 505.8L645.5 503.1L622.8 500.2L600.1 496.2L577.5 492.5L554.8 488.9L532.2 483.4L509.5 476.3L486.8 467.3L464.2 458.2L441.5 449.1L418.9 440.5L396.2 430.7L373.5 421.4L350.9 411.8L328.2 401L305.6 388.7L282.9 375L260.2 361.5L237.6 347.8L214.9 330.6L192.3 307.6L169.6 286.9L146.9 268.7L124.3 253L101.6 232.5L79 198.3" fill="#34983f" fill-opacity="0.7" class="Central-Asia_0-area"></path><path stroke-linecap="round" d="M79 165.3L101.6 203.9L124.3 228L146.9 247.6L169.6 269L192.3 292.8L214.9 318.5L237.6 337.8L260.2 353.2L282.9 368L305.6 382.8L328.2 395.9L350.9 407.4L373.5 417.5L396.2 427.3L418.9 437.4L441.5 446.6L464.2 456.1L486.8 465.6L509.5 474.9L532.2 482.1L554.8 487.8L577.5 491.4L600.1 495.2L622.8 499.2L645.5 502.2L668.1 504.9L690.8 507.4L690.8 508.3L668.1 505.8L645.5 503.1L622.8 500.2L600.1 496.2L577.5 492.5L554.8 488.9L532.2 483.4L509.5 476.3L486.8 467.3L464.2 458.2L441.5 449.1L418.9 440.5L396.2 430.7L373.5 421.4L350.9 411.8L328.2 401L305.6 388.7L282.9 375L260.2 361.4L237.6 347.8L214.9 330.5L192.3 307.6L169.6 286.8L146.9 268.7L124.3 253L101.6 232.5L79 198.2" fill="#f6a324" fill-opacity="0.7" class="East-Asia_0-area"></path><path stroke-linecap="round" d="M79 159.8L101.6 198.9L124.3 223.6L146.9 243.7L169.6 265.4L192.3 289.7L214.9 315.7L237.6 335.2L260.2 350.8L282.9 365.8L305.6 380.9L328.2 394.1L350.9 405.7L373.5 416L396.2 425.9L418.9 436.2L441.5 445.4L464.2 455L486.8 464.5L509.5 473.9L532.2 481.2L554.8 486.9L577.5 490.6L600.1 494.4L622.8 498.4L645.5 501.4L668.1 504.1L690.8 506.6L690.8 507.4L668.1 504.9L645.5 502.2L622.8 499.2L600.1 495.2L577.5 491.4L554.8 487.8L532.2 482.1L509.5 474.9L486.8 465.6L464.2 456.1L441.5 446.6L418.9 437.4L396.2 427.3L373.5 417.5L350.9 407.4L328.2 395.9L305.6 382.8L282.9 368L260.2 353.2L237.6 337.8L214.9 318.5L192.3 292.8L169.6 269L146.9 247.6L124.3 228L101.6 203.9L79 165.3" fill="#a652ba" fill-opacity="0.7" class="Latin-America-and-Caribbean_0-area"></path><path stroke-linecap="round" d="M79 88.3L101.6 129.6L124.3 156L146.9 177L169.6 199.2L192.3 224.8L214.9 249.4L237.6 267.8L260.2 283.8L282.9 298.8L305.6 317.1L328.2 337.4L350.9 352.3L373.5 365.7L396.2 379.7L418.9 394L441.5 405.6L464.2 417.2L486.8 428.7L509.5 439.9L532.2 449.7L554.8 457.3L577.5 462.1L600.1 466.5L622.8 471.1L645.5 475.5L668.1 479.2L690.8 482.6L690.8 506.6L668.1 504.1L645.5 501.4L622.8 498.4L600.1 494.4L577.5 490.6L554.8 486.9L532.2 481.2L509.5 473.9L486.8 464.5L464.2 455L441.5 445.4L418.9 436.2L396.2 425.9L373.5 416L350.9 405.7L328.2 394.1L305.6 380.9L282.9 365.8L260.2 350.8L237.6 335.2L214.9 315.7L192.3 289.7L169.6 265.4L146.9 243.7L124.3 223.6L101.6 198.9L79 159.8" fill="#2a939b" fill-opacity="0.7" class="Sub__002dSaharan-Africa_0-area"></path><path stroke-linecap="round" d="M79 88.2L101.6 129.5L124.3 155.9L146.9 176.8L169.6 199.1L192.3 224.7L214.9 249.3L237.6 267.7L260.2 283.7L282.9 298.7L305.6 317.1L328.2 337.4L350.9 352.2L373.5 365.7L396.2 379.7L418.9 394L441.5 405.6L464.2 417.2L486.8 428.7L509.5 439.9L532.2 449.7L554.8 457.3L577.5 462.1L600.1 466.5L622.8 471.1L645.5 475.5L668.1 479.2L690.8 482.6L690.8 482.6L668.1 479.2L645.5 475.5L622.8 471.1L600.1 466.5L577.5 462.1L554.8 457.3L532.2 449.7L509.5 439.9L486.8 428.7L464.2 417.2L441.5 405.6L418.9 394L396.2 379.7L373.5 365.7L350.9 352.3L328.2 337.4L305.6 317.1L282.9 298.8L260.2 283.8L237.6 267.8L214.9 249.4L192.3 224.8L169.6 199.2L146.9 177L124.3 156L101.6 129.6L79 88.3" fill="#e6332e" fill-opacity="0.7" class="Eastern-Europe_0-area"></path><path stroke-linecap="round" d="M79 88.1L101.6 129.4L124.3 155.8L146.9 176.7L169.6 199L192.3 224.6L214.9 249.3L237.6 267.7L260.2 283.7L282.9 298.7L305.6 317L328.2 337.3L350.9 352.2L373.5 365.6L396.2 379.7L418.9 393.9L441.5 405.6L464.2 417.2L486.8 428.6L509.5 439.9L532.2 449.7L554.8 457.3L577.5 462.1L600.1 466.5L622.8 471.1L645.5 475.4L668.1 479.1L690.8 482.6L690.8 482.6L668.1 479.2L645.5 475.5L622.8 471.1L600.1 466.5L577.5 462.1L554.8 457.3L532.2 449.7L509.5 439.9L486.8 428.7L464.2 417.2L441.5 405.6L418.9 394L396.2 379.7L373.5 365.7L350.9 352.2L328.2 337.4L305.6 317.1L282.9 298.7L260.2 283.7L237.6 267.7L214.9 249.3L192.3 224.7L169.6 199.1L146.9 176.8L124.3 155.9L101.6 129.5L79 88.2" fill="#9ecc8a" fill-opacity="0.7" class="Central-Europe_0-area"></path><path stroke-linecap="round" d="M79 87.8L101.6 129.2L124.3 155.6L146.9 176.5L169.6 198.8L192.3 224.5L214.9 249.1L237.6 267.5L260.2 283.6L282.9 298.5L305.6 316.9L328.2 337.2L350.9 352.1L373.5 365.6L396.2 379.6L418.9 393.9L441.5 405.5L464.2 417.1L486.8 428.6L509.5 439.8L532.2 449.7L554.8 457.2L577.5 462L600.1 466.4L622.8 471.1L645.5 475.4L668.1 479.1L690.8 482.5L690.8 482.6L668.1 479.1L645.5 475.4L622.8 471.1L600.1 466.5L577.5 462.1L554.8 457.3L532.2 449.7L509.5 439.9L486.8 428.6L464.2 417.2L441.5 405.6L418.9 393.9L396.2 379.7L373.5 365.6L350.9 352.2L328.2 337.3L305.6 317L282.9 298.7L260.2 283.7L237.6 267.7L214.9 249.3L192.3 224.6L169.6 199L146.9 176.7L124.3 155.8L101.6 129.4L79 88.1" fill="#ffd53e" fill-opacity="0.7" class="Western-Europe_0-area"></path><path stroke-linecap="round" d="M79 87.8L101.6 129.1L124.3 155.6L146.9 176.5L169.6 198.8L192.3 224.4L214.9 249.1L237.6 267.5L260.2 283.5L282.9 298.5L305.6 316.9L328.2 337.2L350.9 352.1L373.5 365.6L396.2 379.6L418.9 393.9L441.5 405.5L464.2 417.1L486.8 428.6L509.5 439.8L532.2 449.6L554.8 457.2L577.5 462L600.1 466.4L622.8 471.1L645.5 475.4L668.1 479.1L690.8 482.5L690.8 482.5L668.1 479.1L645.5 475.4L622.8 471.1L600.1 466.4L577.5 462L554.8 457.2L532.2 449.7L509.5 439.8L486.8 428.6L464.2 417.1L441.5 405.5L418.9 393.9L396.2 379.6L373.5 365.6L350.9 352.1L328.2 337.2L305.6 316.9L282.9 298.5L260.2 283.6L237.6 267.5L214.9 249.1L192.3 224.5L169.6 198.8L146.9 176.5L124.3 155.6L101.6 129.2L79 87.8" fill="#b077b1" fill-opacity="0.7" class="North-America_0-area"></path><path stroke-linecap="round" d="M79 76.6L101.6 118.2L124.3 144.3L146.9 163.3L169.6 184.4L192.3 210.4L214.9 235.5L237.6 254L260.2 270.4L282.9 286.6L305.6 306.5L328.2 327.8L350.9 344.2L373.5 358.1L396.2 372.9L418.9 387.8L441.5 399.8L464.2 412L486.8 423.9L509.5 435.4L532.2 445.5L554.8 453.2L577.5 458.2L600.1 462.8L622.8 467.6L645.5 472.1L668.1 475.9L690.8 479.7L690.8 482.5L668.1 479.1L645.5 475.4L622.8 471.1L600.1 466.4L577.5 462L554.8 457.2L532.2 449.6L509.5 439.8L486.8 428.6L464.2 417.1L441.5 405.5L418.9 393.9L396.2 379.6L373.5 365.6L350.9 352.1L328.2 337.2L305.6 316.9L282.9 298.5L260.2 283.5L237.6 267.5L214.9 249.1L192.3 224.4L169.6 198.8L146.9 176.5L124.3 155.6L101.6 129.1L79 87.8" fill="#7ec7ce" fill-opacity="0.7" class="North-Africa-and-Middle-East_0-area"></path><path stroke-linecap="round" d="M79 76.6L101.6 118.1L124.3 144.3L146.9 163.3L169.6 184.4L192.3 210.4L214.9 235.5L237.6 254L260.2 270.3L282.9 286.6L305.6 306.5L328.2 327.8L350.9 344.2L373.5 358.1L396.2 372.9L418.9 387.7L441.5 399.8L464.2 412L486.8 423.9L509.5 435.4L532.2 445.5L554.8 453.2L577.5 458.2L600.1 462.8L622.8 467.6L645.5 472.1L668.1 475.9L690.8 479.7L690.8 479.7L668.1 475.9L645.5 472.1L622.8 467.6L600.1 462.8L577.5 458.2L554.8 453.2L532.2 445.5L509.5 435.4L486.8 423.9L464.2 412L441.5 399.8L418.9 387.8L396.2 372.9L373.5 358.1L350.9 344.2L328.2 327.8L305.6 306.5L282.9 286.6L260.2 270.4L237.6 254L214.9 235.5L192.3 210.4L169.6 184.4L146.9 163.3L124.3 144.3L101.6 118.2L79 76.6" fill="#e6332e" fill-opacity="0.7" class="Oceania_0-area"></path><path stroke-linecap="round" d="M79 483.3L101.6 488.7L124.3 492.7L146.9 495.8L169.6 498.7L192.3 501.7L214.9 504.4L237.6 506.4L260.2 507.7L282.9 508.7L305.6 510.6L328.2 512.3L350.9 513.7L373.5 515L396.2 516.1L418.9 517.5L441.5 518.7L464.2 520.1L486.8 521.4L509.5 522.6L532.2 523.6L554.8 524.5L577.5 525L600.1 525.7L622.8 526.3L645.5 526.5L668.1 526.9L690.8 527.3" stroke="rgb(43, 80, 141)" stroke-opacity="0.7" stroke-width="0.5" fill="none" class="Southeast-Asia_0-border"></path><path stroke-linecap="round" d="M79 198.3L101.6 232.5L124.3 253L146.9 268.7L169.6 286.9L192.3 307.6L214.9 330.6L237.6 347.8L260.2 361.5L282.9 375L305.6 388.7L328.2 401L350.9 411.8L373.5 421.4L396.2 430.7L418.9 440.5L441.5 449.1L464.2 458.2L486.8 467.3L509.5 476.3L532.2 483.4L554.8 488.9L577.5 492.5L600.1 496.2L622.8 500.2L645.5 503.1L668.1 505.8L690.8 508.3" stroke="rgb(169, 32, 33)" stroke-opacity="0.7" stroke-width="0.5" fill="none" class="South-Asia_0-border"></path><path stroke-linecap="round" d="M79 198.2L101.6 232.5L124.3 253L146.9 268.7L169.6 286.8L192.3 307.6L214.9 330.5L237.6 347.8L260.2 361.4L282.9 375L305.6 388.7L328.2 401L350.9 411.8L373.5 421.4L396.2 430.7L418.9 440.5L441.5 449.1L464.2 458.2L486.8 467.3L509.5 476.3L532.2 483.4L554.8 488.9L577.5 492.5L600.1 496.2L622.8 500.2L645.5 503.1L668.1 505.8L690.8 508.3" stroke="rgb(44, 127, 53)" stroke-opacity="0.7" stroke-width="0.5" fill="none" class="Central-Asia_0-border"></path><path stroke-linecap="round" d="M79 165.3L101.6 203.9L124.3 228L146.9 247.6L169.6 269L192.3 292.8L214.9 318.5L237.6 337.8L260.2 353.2L282.9 368L305.6 382.8L328.2 395.9L350.9 407.4L373.5 417.5L396.2 427.3L418.9 437.4L441.5 446.6L464.2 456.1L486.8 465.6L509.5 474.9L532.2 482.1L554.8 487.8L577.5 491.4L600.1 495.2L622.8 499.2L645.5 502.2L668.1 504.9L690.8 507.4" stroke="rgb(206, 136, 30)" stroke-opacity="0.7" stroke-width="0.5" fill="none" class="East-Asia_0-border"></path><path stroke-linecap="round" d="M79 159.8L101.6 198.9L124.3 223.6L146.9 243.7L169.6 265.4L192.3 289.7L214.9 315.7L237.6 335.2L260.2 350.8L282.9 365.8L305.6 380.9L328.2 394.1L350.9 405.7L373.5 416L396.2 425.9L418.9 436.2L441.5 445.4L464.2 455L486.8 464.5L509.5 473.9L532.2 481.2L554.8 486.9L577.5 490.6L600.1 494.4L622.8 498.4L645.5 501.4L668.1 504.1L690.8 506.6" stroke="rgb(139, 69, 156)" stroke-opacity="0.7" stroke-width="0.5" fill="none" class="Latin-America-and-Caribbean_0-border"></path><path stroke-linecap="round" d="M79 88.3L101.6 129.6L124.3 156L146.9 177L169.6 199.2L192.3 224.8L214.9 249.4L237.6 267.8L260.2 283.8L282.9 298.8L305.6 317.1L328.2 337.4L350.9 352.3L373.5 365.7L396.2 379.7L418.9 394L441.5 405.6L464.2 417.2L486.8 428.7L509.5 439.9L532.2 449.7L554.8 457.3L577.5 462.1L600.1 466.5L622.8 471.1L645.5 475.5L668.1 479.2L690.8 482.6" stroke="rgb(35, 123, 130)" stroke-opacity="0.7" stroke-width="0.5" fill="none" class="Sub__002dSaharan-Africa_0-border"></path><path stroke-linecap="round" d="M79 88.2L101.6 129.5L124.3 155.9L146.9 176.8L169.6 199.1L192.3 224.7L214.9 249.3L237.6 267.7L260.2 283.7L282.9 298.7L305.6 317.1L328.2 337.4L350.9 352.2L373.5 365.7L396.2 379.7L418.9 394L441.5 405.6L464.2 417.2L486.8 428.7L509.5 439.9L532.2 449.7L554.8 457.3L577.5 462.1L600.1 466.5L622.8 471.1L645.5 475.5L668.1 479.2L690.8 482.6" stroke="rgb(192, 43, 38)" stroke-opacity="0.7" stroke-width="0.5" fill="none" class="Eastern-Europe_0-border"></path><path stroke-linecap="round" d="M79 88.1L101.6 129.4L124.3 155.8L146.9 176.7L169.6 199L192.3 224.6L214.9 249.3L237.6 267.7L260.2 283.7L282.9 298.7L305.6 317L328.2 337.3L350.9 352.2L373.5 365.6L396.2 379.7L418.9 393.9L441.5 405.6L464.2 417.2L486.8 428.6L509.5 439.9L532.2 449.7L554.8 457.3L577.5 462.1L600.1 466.5L622.8 471.1L645.5 475.4L668.1 479.1L690.8 482.6" stroke="rgb(132, 171, 115)" stroke-opacity="0.7" stroke-width="0.5" fill="none" class="Central-Europe_0-border"></path><path stroke-linecap="round" d="M79 87.8L101.6 129.2L124.3 155.6L146.9 176.5L169.6 198.8L192.3 224.5L214.9 249.1L237.6 267.5L260.2 283.6L282.9 298.5L305.6 316.9L328.2 337.2L350.9 352.1L373.5 365.6L396.2 379.6L418.9 393.9L441.5 405.5L464.2 417.1L486.8 428.6L509.5 439.8L532.2 449.7L554.8 457.2L577.5 462L600.1 466.4L622.8 471.1L645.5 475.4L668.1 479.1L690.8 482.5" stroke="rgb(213, 178, 52)" stroke-opacity="0.7" stroke-width="0.5" fill="none" class="Western-Europe_0-border"></path><path stroke-linecap="round" d="M79 87.8L101.6 129.1L124.3 155.6L146.9 176.5L169.6 198.8L192.3 224.4L214.9 249.1L237.6 267.5L260.2 283.5L282.9 298.5L305.6 316.9L328.2 337.2L350.9 352.1L373.5 365.6L396.2 379.6L418.9 393.9L441.5 405.5L464.2 417.1L486.8 428.6L509.5 439.8L532.2 449.6L554.8 457.2L577.5 462L600.1 466.4L622.8 471.1L645.5 475.4L668.1 479.1L690.8 482.5" stroke="rgb(147, 100, 148)" stroke-opacity="0.7" stroke-width="0.5" fill="none" class="North-America_0-border"></path><path stroke-linecap="round" d="M79 76.6L101.6 118.2L124.3 144.3L146.9 163.3L169.6 184.4L192.3 210.4L214.9 235.5L237.6 254L260.2 270.4L282.9 286.6L305.6 306.5L328.2 327.8L350.9 344.2L373.5 358.1L396.2 372.9L418.9 387.8L441.5 399.8L464.2 412L486.8 423.9L509.5 435.4L532.2 445.5L554.8 453.2L577.5 458.2L600.1 462.8L622.8 467.6L645.5 472.1L668.1 475.9L690.8 479.7" stroke="rgb(105, 166, 172)" stroke-opacity="0.7" stroke-width="0.5" fill="none" class="North-Africa-and-Middle-East_0-border"></path><path stroke-linecap="round" d="M79 76.6L101.6 118.1L124.3 144.3L146.9 163.3L169.6 184.4L192.3 210.4L214.9 235.5L237.6 254L260.2 270.3L282.9 286.6L305.6 306.5L328.2 327.8L350.9 344.2L373.5 358.1L396.2 372.9L418.9 387.7L441.5 399.8L464.2 412L486.8 423.9L509.5 435.4L532.2 445.5L554.8 453.2L577.5 458.2L600.1 462.8L622.8 467.6L645.5 472.1L668.1 475.9L690.8 479.7" stroke="rgb(192, 43, 38)" stroke-opacity="0.7" stroke-width="0.5" fill="none" class="Oceania_0-border"></path></g></g></g><g style="fill: #777;" class="SourcesFooter"><g style="fill: #777;" class="clickable"><text font-size="12.60" x="15.0" y="581.6"><tspan x="15" y="581.58">Source: Tetanus</tspan></text></g><text font-size="12.60" x="775.4" y="581.6"><tspan x="775.402" y="581.58"><a style="fill: #777;" class="cclogo" href="http://creativecommons.org/licenses/by-sa/4.0/deed.en_US" target="_blank">CC BY-SA</a></tspan></text></g></g></svg>