<svg xmlns="http://www.w3.org/2000/svg" version="1.1" style="font-family: 'Helvetica Neue', Helvetica, Arial, sans-serif; font-size: 18px; background-color: white; text-rendering: optimizeLegibility; -webkit-font-smoothing: antialiased;" width="850" height="600"><g class="ChartTab"><g class="HeaderView"><g opacity="0.8" transform="translate(778, 15) scale(0.27)"><a xmlns:xlink="http://www.w3.org/1999/xlink" xlink:href="https://ourworldindata.org" target="_blank"><g><rect x="0" y="0" fill="#1B2543" width="211.2" height="130.1"/><rect x="0" y="112.2" fill="#E63912" width="211.2" height="17.9"/><g><rect x="1.2" y="12.3" fill="none" width="210.2" height="99.2"/><path fill="#FFFFFF" d="M37.8,32.2c0,12.7-7.7,19.4-17.1,19.4c-9.7,0-16.6-7.5-16.6-18.7c0-11.7,7.3-19.3,17.1-19.3 C31.3,13.7,37.8,21.3,37.8,32.2z M9.2,32.8c0,7.9,4.3,14.9,11.8,14.9c7.5,0,11.8-6.9,11.8-15.3c0-7.3-3.8-14.9-11.8-14.9 C13.1,17.5,9.2,24.8,9.2,32.8z"/><path fill="#FFFFFF" d="M62.7,43.8c0,2.7,0.1,5.1,0.2,7.2h-4.3l-0.3-4.3h-0.1c-1.3,2.1-4,4.9-8.8,4.9c-4.2,0-9.1-2.3-9.1-11.6 V24.6h4.8v14.6c0,5,1.5,8.4,5.9,8.4c3.2,0,5.5-2.2,6.3-4.4c0.3-0.7,0.4-1.6,0.4-2.5V24.6h4.8V43.8z"/><path fill="#FFFFFF" d="M67.3,32.8c0-3.1-0.1-5.8-0.2-8.2h4.2l0.2,5.2h0.2c1.2-3.5,4.1-5.8,7.3-5.8c0.5,0,0.9,0.1,1.4,0.2v4.5 c-0.5-0.1-1-0.2-1.6-0.2c-3.4,0-5.8,2.6-6.5,6.2c-0.1,0.7-0.2,1.4-0.2,2.2V51h-4.8V32.8z"/><path fill="#FFFFFF" d="M95.4,51l-9.4-36.8h5l4.4,18.6c1.1,4.6,2.1,9.2,2.7,12.7h0.1c0.6-3.7,1.8-8,3-12.8l4.9-18.5h5l4.5,18.7 c1,4.4,2,8.7,2.6,12.6h0.1c0.8-4,1.8-8.1,3-12.7l4.9-18.5h4.9L120.6,51h-5L111,31.9c-1.1-4.7-1.9-8.3-2.4-12h-0.1 c-0.7,3.7-1.5,7.3-2.8,12L100.4,51H95.4z"/><path fill="#FFFFFF" d="M154.9,37.6c0,9.8-6.8,14-13.2,14c-7.2,0-12.7-5.2-12.7-13.6c0-8.8,5.8-14,13.1-14 C149.8,24,154.9,29.5,154.9,37.6z M133.9,37.9c0,5.8,3.3,10.1,8,10.1c4.6,0,8-4.3,8-10.3c0-4.5-2.2-10.1-7.9-10.1 C136.3,27.6,133.9,32.8,133.9,37.9z"/><path fill="#FFFFFF" d="M158.2,32.8c0-3.1-0.1-5.8-0.2-8.2h4.2l0.2,5.2h0.2c1.2-3.5,4.1-5.8,7.3-5.8c0.5,0,0.9,0.1,1.4,0.2v4.5 c-0.5-0.1-1-0.2-1.6-0.2c-3.4,0-5.8,2.6-6.5,6.2c-0.1,0.7-0.2,1.4-0.2,2.2V51h-4.8V32.8z"/><path fill="#FFFFFF" d="M173.5,12.3h4.8V51h-4.8V12.3z"/><path fill="#FFFFFF" d="M206.5,12.3v31.9c0,2.3,0.1,5,0.2,6.8h-4.3l-0.2-4.6H202c-1.5,2.9-4.7,5.2-9,5.2 c-6.4,0-11.3-5.4-11.3-13.4c-0.1-8.8,5.4-14.2,11.9-14.2c4,0,6.8,1.9,8,4h0.1V12.3H206.5z M201.7,35.4c0-0.6-0.1-1.4-0.2-2 c-0.7-3.1-3.3-5.6-6.9-5.6c-5,0-7.9,4.4-7.9,10.2c0,5.3,2.6,9.8,7.8,9.8c3.2,0,6.2-2.1,7.1-5.7c0.2-0.7,0.2-1.3,0.2-2.1V35.4z"/><path fill="#FFFFFF" d="M42.8,64c0.1,1.6-1.1,2.9-3.1,2.9c-1.7,0-2.9-1.3-2.9-2.9c0-1.7,1.3-3,3-3C41.7,61,42.8,62.3,42.8,64z M37.4,97.8V71.4h4.8v26.4H37.4z"/><path fill="#FFFFFF" d="M47.5,78.6c0-2.7-0.1-5-0.2-7.1h4.3l0.3,4.4h0.1c1.3-2.5,4.4-5,8.8-5c3.7,0,9.4,2.2,9.4,11.2v15.8h-4.8 V82.6c0-4.3-1.6-7.8-6.1-7.8c-3.2,0-5.6,2.2-6.5,4.9c-0.2,0.6-0.3,1.4-0.3,2.2v15.9h-4.8V78.6z"/><path fill="#FFFFFF" d="M84,61.6c2.9-0.4,6.3-0.8,10.1-0.8c6.8,0,11.7,1.6,14.9,4.6c3.3,3,5.2,7.3,5.2,13.2c0,6-1.9,10.9-5.3,14.3 c-3.4,3.4-9.1,5.3-16.3,5.3c-3.4,0-6.2-0.2-8.6-0.4V61.6z M88.8,94.1c1.2,0.2,3,0.3,4.8,0.3c10.2,0,15.7-5.7,15.7-15.6 c0.1-8.7-4.9-14.2-14.9-14.2c-2.5,0-4.3,0.2-5.6,0.5V94.1z"/><path fill="#FFFFFF" d="M132.1,97.8l-0.4-3.3h-0.2c-1.5,2.1-4.3,3.9-8.1,3.9c-5.4,0-8.1-3.8-8.1-7.6c0-6.4,5.7-9.9,15.9-9.8v-0.5 c0-2.2-0.6-6.1-6-6.1c-2.5,0-5,0.8-6.9,2l-1.1-3.2c2.2-1.4,5.4-2.3,8.7-2.3c8.1,0,10.1,5.5,10.1,10.8v9.9c0,2.3,0.1,4.5,0.4,6.3 H132.1z M131.4,84.4c-5.3-0.1-11.2,0.8-11.2,5.9c0,3.1,2.1,4.6,4.5,4.6c3.4,0,5.6-2.2,6.4-4.4c0.2-0.5,0.3-1,0.3-1.5V84.4z"/><path fill="#FFFFFF" d="M146.6,63.9v7.6h6.9v3.7h-6.9v14.2c0,3.3,0.9,5.1,3.6,5.1c1.3,0,2.2-0.2,2.8-0.3l0.2,3.6 c-0.9,0.4-2.4,0.7-4.3,0.7c-2.2,0-4-0.7-5.2-2c-1.4-1.4-1.9-3.8-1.9-6.9V75.1h-4.1v-3.7h4.1v-6.3L146.6,63.9z"/><path fill="#FFFFFF" d="M171.4,97.8l-0.4-3.3h-0.2c-1.5,2.1-4.3,3.9-8.1,3.9c-5.4,0-8.1-3.8-8.1-7.6c0-6.4,5.7-9.9,15.9-9.8v-0.5 c0-2.2-0.6-6.1-6-6.1c-2.5,0-5,0.8-6.9,2l-1.1-3.2c2.2-1.4,5.4-2.3,8.7-2.3c8.1,0,10.1,5.5,10.1,10.8v9.9c0,2.3,0.1,4.5,0.4,6.3 H171.4z M170.7,84.4c-5.3-0.1-11.2,0.8-11.2,5.9c0,3.1,2.1,4.6,4.5,4.6c3.4,0,5.6-2.2,6.4-4.4c0.2-0.5,0.3-1,0.3-1.5V84.4z"/></g></g></a></g><a href="https://ourworldindata.org/grapher/total-disease-burden-by-cause" target="_blank"><text font-size="25.20" x="15.0" y="35.2" fill="#555"><tspan x="15" y="35.160000000000004">Total disease burden by cause, World</tspan></text></a><text font-size="14.40" x="15.0" y="53.7" fill="#666"><tspan x="15" y="53.72">Total disease burden measured as the number of DALYs (Disability-Adjusted Life Years) per year. DALYs are used to</tspan><tspan x="15" y="69.56">measure total burden of disease - both from years of life lost and years lived with a disability. One DALY equals one</tspan><tspan x="15" y="85.4">lost year of healthy life.</tspan></text></g><g class="StackedArea"><defs><clipPath id="boundsClip-837"><rect x="97.598" y="0" width="820" height="897.8"></rect></clipPath></defs><g class="AxisBoxView"><g class="HorizontalAxis"><text x="97.6" y="556.5" fill="#666" text-anchor="middle" font-size="16.2">1990</text><text x="206.1" y="556.5" fill="#666" text-anchor="middle" font-size="16.2">1995</text><text x="314.6" y="556.5" fill="#666" text-anchor="middle" font-size="16.2">2000</text><text x="423.1" y="556.5" fill="#666" text-anchor="middle" font-size="16.2">2005</text><text x="531.6" y="556.5" fill="#666" text-anchor="middle" font-size="16.2">2010</text><text x="640.1" y="556.5" fill="#666" text-anchor="middle" font-size="16.2">2015</text><text x="683.5" y="556.5" fill="#666" text-anchor="middle" font-size="16.2">2017</text></g><g class="VerticalAxis"><text x="92.60" y="535.3" fill="#666" dominant-baseline="middle" text-anchor="end" font-size="16.2">0</text><text x="92.60" y="454.2" fill="#666" dominant-baseline="middle" text-anchor="end" font-size="16.2">500 million</text><text x="92.60" y="373" fill="#666" dominant-baseline="middle" text-anchor="end" font-size="16.2">1 billion</text><text x="92.60" y="291.9" fill="#666" dominant-baseline="middle" text-anchor="end" font-size="16.2">1.5 billion</text><text x="92.60" y="210.7" fill="#666" dominant-baseline="middle" text-anchor="end" font-size="16.2">2 billion</text><text x="92.60" y="129.6" fill="#666" dominant-baseline="middle" text-anchor="end" font-size="16.2">2.5 billion</text></g><g class="AxisGridLines"><line x1="97.60" y1="535.3" x2="683.50" y2="535.3" stroke="#ccc"></line><line x1="97.60" y1="454.2" x2="683.50" y2="454.2" stroke="#ddd" stroke-dasharray="3,2"></line><line x1="97.60" y1="373" x2="683.50" y2="373" stroke="#ddd" stroke-dasharray="3,2"></line><line x1="97.60" y1="291.9" x2="683.50" y2="291.9" stroke="#ddd" stroke-dasharray="3,2"></line><line x1="97.60" y1="210.7" x2="683.50" y2="210.7" stroke="#ddd" stroke-dasharray="3,2"></line><line x1="97.60" y1="129.6" x2="683.50" y2="129.6" stroke="#ddd" stroke-dasharray="3,2"></line></g></g><g clip-path="url(#boundsClip-837)"><g class="HeightedLegend clickable"><g class="legendMark"><rect x="683.495" y="143.45" width="78.605" height="13.5" fill="#fff" opacity="0"></rect><text font-size="13.50" x="688.5" y="154.3" fill="#818282"><tspan x="688.495" y="154.25">Injuries</tspan></text></g><g class="legendMark"><rect x="683.495" y="191.14999999999998" width="128.96" height="71.9" fill="#fff" opacity="0"></rect><text font-size="13.50" x="688.5" y="201.9" fill="#e6332e"><tspan x="688.495" y="201.95">Communicable,</tspan><tspan x="688.495" y="216.79999999999998">maternal,</tspan><tspan x="688.495" y="231.64999999999998">neonatal, and</tspan><tspan x="688.495" y="246.5">nutritional</tspan><tspan x="688.495" y="261.35">diseases</tspan></text></g><g class="legendMark"><rect x="683.495" y="395.45" width="151.505" height="28.1" fill="#fff" opacity="0"></rect><text font-size="13.50" x="688.5" y="406.3" fill="#3360a9"><tspan x="688.495" y="406.25">Non-communicable</tspan><tspan x="688.495" y="421.1">diseases (NCDs)</tspan></text></g></g><g class="Areas"><rect x="97.598" y="107.60000000000001" width="585.897" height="427.69999999999993" opacity="0" fill="rgba(255,255,255,0)"></rect><path stroke-linecap="round" d="M97.6 355.6L119.3 352.8L141 349.7L162.7 346.3L184.4 343.7L206.1 341.6L227.8 340.1L249.5 338.1L271.2 336.3L292.9 334L314.6 331.8L336.3 330.1L358 327.8L379.7 325.7L401.4 324.3L423.1 321.8L444.8 320.6L466.5 318.4L488.2 315L509.9 312L531.6 308.6L553.3 305.6L575 302.4L596.7 299.4L618.4 295.2L640.1 290.4L661.8 286.3L683.5 283.6L683.495 535.3L97.598 535.3" fill="#3360a9" fill-opacity="0.7" class="World_0-area"></path><path stroke-linecap="round" d="M97.6 163.3L119.3 161.8L141 160.3L162.7 158.8L184.4 158.1L206.1 157L227.8 157.6L249.5 157.2L271.2 156.8L292.9 156.2L314.6 155.7L336.3 156.5L358 157.1L379.7 158.4L401.4 160.1L423.1 160.6L444.8 163.2L466.5 164.9L488.2 165.4L509.9 166.3L531.6 166.7L553.3 167.9L575 169.4L596.7 170.8L618.4 170.7L640.1 170L661.8 170.1L683.5 170.6L683.5 283.6L661.8 286.3L640.1 290.4L618.4 295.2L596.7 299.4L575 302.4L553.3 305.6L531.6 308.6L509.9 312L488.2 315L466.5 318.4L444.8 320.6L423.1 321.8L401.4 324.3L379.7 325.7L358 327.8L336.3 330.1L314.6 331.8L292.9 334L271.2 336.3L249.5 338.1L227.8 340.1L206.1 341.6L184.4 343.7L162.7 346.3L141 349.7L119.3 352.8L97.6 355.6" fill="#e6332e" fill-opacity="0.7" class="World_1-area"></path><path stroke-linecap="round" d="M97.6 119.5L119.3 116.7L141 116.2L162.7 113.8L184.4 107.6L206.1 111.6L227.8 112.5L249.5 111.9L271.2 111.7L292.9 110.5L314.6 111L336.3 113.1L358 114.3L379.7 116.1L401.4 116.1L423.1 118L444.8 121.6L466.5 123.5L488.2 121.9L509.9 124.6L531.6 122.6L553.3 125.9L575 127.6L596.7 129.2L618.4 128.8L640.1 128.6L661.8 128.8L683.5 129.7L683.5 170.6L661.8 170.1L640.1 170L618.4 170.7L596.7 170.8L575 169.4L553.3 167.9L531.6 166.7L509.9 166.3L488.2 165.4L466.5 164.9L444.8 163.2L423.1 160.6L401.4 160.1L379.7 158.4L358 157.1L336.3 156.5L314.6 155.7L292.9 156.2L271.2 156.8L249.5 157.2L227.8 157.6L206.1 157L184.4 158.1L162.7 158.8L141 160.3L119.3 161.8L97.6 163.3" fill="#818282" fill-opacity="0.7" class="World_2-area"></path><path stroke-linecap="round" d="M97.6 355.6L119.3 352.8L141 349.7L162.7 346.3L184.4 343.7L206.1 341.6L227.8 340.1L249.5 338.1L271.2 336.3L292.9 334L314.6 331.8L336.3 330.1L358 327.8L379.7 325.7L401.4 324.3L423.1 321.8L444.8 320.6L466.5 318.4L488.2 315L509.9 312L531.6 308.6L553.3 305.6L575 302.4L596.7 299.4L618.4 295.2L640.1 290.4L661.8 286.3L683.5 283.6" stroke="rgb(43, 80, 141)" stroke-opacity="0.7" stroke-width="0.5" fill="none" class="World_0-border"></path><path stroke-linecap="round" d="M97.6 163.3L119.3 161.8L141 160.3L162.7 158.8L184.4 158.1L206.1 157L227.8 157.6L249.5 157.2L271.2 156.8L292.9 156.2L314.6 155.7L336.3 156.5L358 157.1L379.7 158.4L401.4 160.1L423.1 160.6L444.8 163.2L466.5 164.9L488.2 165.4L509.9 166.3L531.6 166.7L553.3 167.9L575 169.4L596.7 170.8L618.4 170.7L640.1 170L661.8 170.1L683.5 170.6" stroke="rgb(192, 43, 38)" stroke-opacity="0.7" stroke-width="0.5" fill="none" class="World_1-border"></path><path stroke-linecap="round" d="M97.6 119.5L119.3 116.7L141 116.2L162.7 113.8L184.4 107.6L206.1 111.6L227.8 112.5L249.5 111.9L271.2 111.7L292.9 110.5L314.6 111L336.3 113.1L358 114.3L379.7 116.1L401.4 116.1L423.1 118L444.8 121.6L466.5 123.5L488.2 121.9L509.9 124.6L531.6 122.6L553.3 125.9L575 127.6L596.7 129.2L618.4 128.8L640.1 128.6L661.8 128.8L683.5 129.7" stroke="rgb(108, 109, 109)" stroke-opacity="0.7" stroke-width="0.5" fill="none" class="World_2-border"></path></g></g></g><g style="fill: #777;" class="SourcesFooter"><g style="fill: #777;" class="clickable"><text font-size="12.60" x="15.0" y="581.6"><tspan x="15" y="581.58">Source: IHME, Global Burden of Disease</tspan></text></g><text font-size="12.60" x="775.4" y="581.6"><tspan x="775.402" y="581.58"><a style="fill: #777;" class="cclogo" href="http://creativecommons.org/licenses/by-sa/4.0/deed.en_US" target="_blank">CC BY-SA</a></tspan></text></g></g></svg>