<svg xmlns="http://www.w3.org/2000/svg" version="1.1" style="font-family: 'Helvetica Neue', Helvetica, Arial, sans-serif; font-size: 18px; background-color: white; text-rendering: optimizeLegibility; -webkit-font-smoothing: antialiased;" width="850" height="600"><g class="ChartTab"><g class="HeaderView"><g opacity="0.8" transform="translate(778, 15) scale(0.27)"><a xmlns:xlink="http://www.w3.org/1999/xlink" xlink:href="https://ourworldindata.org" target="_blank"><g><rect x="0" y="0" fill="#1B2543" width="211.2" height="130.1"/><rect x="0" y="112.2" fill="#E63912" width="211.2" height="17.9"/><g><rect x="1.2" y="12.3" fill="none" width="210.2" height="99.2"/><path fill="#FFFFFF" d="M37.8,32.2c0,12.7-7.7,19.4-17.1,19.4c-9.7,0-16.6-7.5-16.6-18.7c0-11.7,7.3-19.3,17.1-19.3 C31.3,13.7,37.8,21.3,37.8,32.2z M9.2,32.8c0,7.9,4.3,14.9,11.8,14.9c7.5,0,11.8-6.9,11.8-15.3c0-7.3-3.8-14.9-11.8-14.9 C13.1,17.5,9.2,24.8,9.2,32.8z"/><path fill="#FFFFFF" d="M62.7,43.8c0,2.7,0.1,5.1,0.2,7.2h-4.3l-0.3-4.3h-0.1c-1.3,2.1-4,4.9-8.8,4.9c-4.2,0-9.1-2.3-9.1-11.6 V24.6h4.8v14.6c0,5,1.5,8.4,5.9,8.4c3.2,0,5.5-2.2,6.3-4.4c0.3-0.7,0.4-1.6,0.4-2.5V24.6h4.8V43.8z"/><path fill="#FFFFFF" d="M67.3,32.8c0-3.1-0.1-5.8-0.2-8.2h4.2l0.2,5.2h0.2c1.2-3.5,4.1-5.8,7.3-5.8c0.5,0,0.9,0.1,1.4,0.2v4.5 c-0.5-0.1-1-0.2-1.6-0.2c-3.4,0-5.8,2.6-6.5,6.2c-0.1,0.7-0.2,1.4-0.2,2.2V51h-4.8V32.8z"/><path fill="#FFFFFF" d="M95.4,51l-9.4-36.8h5l4.4,18.6c1.1,4.6,2.1,9.2,2.7,12.7h0.1c0.6-3.7,1.8-8,3-12.8l4.9-18.5h5l4.5,18.7 c1,4.4,2,8.7,2.6,12.6h0.1c0.8-4,1.8-8.1,3-12.7l4.9-18.5h4.9L120.6,51h-5L111,31.9c-1.1-4.7-1.9-8.3-2.4-12h-0.1 c-0.7,3.7-1.5,7.3-2.8,12L100.4,51H95.4z"/><path fill="#FFFFFF" d="M154.9,37.6c0,9.8-6.8,14-13.2,14c-7.2,0-12.7-5.2-12.7-13.6c0-8.8,5.8-14,13.1-14 C149.8,24,154.9,29.5,154.9,37.6z M133.9,37.9c0,5.8,3.3,10.1,8,10.1c4.6,0,8-4.3,8-10.3c0-4.5-2.2-10.1-7.9-10.1 C136.3,27.6,133.9,32.8,133.9,37.9z"/><path fill="#FFFFFF" d="M158.2,32.8c0-3.1-0.1-5.8-0.2-8.2h4.2l0.2,5.2h0.2c1.2-3.5,4.1-5.8,7.3-5.8c0.5,0,0.9,0.1,1.4,0.2v4.5 c-0.5-0.1-1-0.2-1.6-0.2c-3.4,0-5.8,2.6-6.5,6.2c-0.1,0.7-0.2,1.4-0.2,2.2V51h-4.8V32.8z"/><path fill="#FFFFFF" d="M173.5,12.3h4.8V51h-4.8V12.3z"/><path fill="#FFFFFF" d="M206.5,12.3v31.9c0,2.3,0.1,5,0.2,6.8h-4.3l-0.2-4.6H202c-1.5,2.9-4.7,5.2-9,5.2 c-6.4,0-11.3-5.4-11.3-13.4c-0.1-8.8,5.4-14.2,11.9-14.2c4,0,6.8,1.9,8,4h0.1V12.3H206.5z M201.7,35.4c0-0.6-0.1-1.4-0.2-2 c-0.7-3.1-3.3-5.6-6.9-5.6c-5,0-7.9,4.4-7.9,10.2c0,5.3,2.6,9.8,7.8,9.8c3.2,0,6.2-2.1,7.1-5.7c0.2-0.7,0.2-1.3,0.2-2.1V35.4z"/><path fill="#FFFFFF" d="M42.8,64c0.1,1.6-1.1,2.9-3.1,2.9c-1.7,0-2.9-1.3-2.9-2.9c0-1.7,1.3-3,3-3C41.7,61,42.8,62.3,42.8,64z M37.4,97.8V71.4h4.8v26.4H37.4z"/><path fill="#FFFFFF" d="M47.5,78.6c0-2.7-0.1-5-0.2-7.1h4.3l0.3,4.4h0.1c1.3-2.5,4.4-5,8.8-5c3.7,0,9.4,2.2,9.4,11.2v15.8h-4.8 V82.6c0-4.3-1.6-7.8-6.1-7.8c-3.2,0-5.6,2.2-6.5,4.9c-0.2,0.6-0.3,1.4-0.3,2.2v15.9h-4.8V78.6z"/><path fill="#FFFFFF" d="M84,61.6c2.9-0.4,6.3-0.8,10.1-0.8c6.8,0,11.7,1.6,14.9,4.6c3.3,3,5.2,7.3,5.2,13.2c0,6-1.9,10.9-5.3,14.3 c-3.4,3.4-9.1,5.3-16.3,5.3c-3.4,0-6.2-0.2-8.6-0.4V61.6z M88.8,94.1c1.2,0.2,3,0.3,4.8,0.3c10.2,0,15.7-5.7,15.7-15.6 c0.1-8.7-4.9-14.2-14.9-14.2c-2.5,0-4.3,0.2-5.6,0.5V94.1z"/><path fill="#FFFFFF" d="M132.1,97.8l-0.4-3.3h-0.2c-1.5,2.1-4.3,3.9-8.1,3.9c-5.4,0-8.1-3.8-8.1-7.6c0-6.4,5.7-9.9,15.9-9.8v-0.5 c0-2.2-0.6-6.1-6-6.1c-2.5,0-5,0.8-6.9,2l-1.1-3.2c2.2-1.4,5.4-2.3,8.7-2.3c8.1,0,10.1,5.5,10.1,10.8v9.9c0,2.3,0.1,4.5,0.4,6.3 H132.1z M131.4,84.4c-5.3-0.1-11.2,0.8-11.2,5.9c0,3.1,2.1,4.6,4.5,4.6c3.4,0,5.6-2.2,6.4-4.4c0.2-0.5,0.3-1,0.3-1.5V84.4z"/><path fill="#FFFFFF" d="M146.6,63.9v7.6h6.9v3.7h-6.9v14.2c0,3.3,0.9,5.1,3.6,5.1c1.3,0,2.2-0.2,2.8-0.3l0.2,3.6 c-0.9,0.4-2.4,0.7-4.3,0.7c-2.2,0-4-0.7-5.2-2c-1.4-1.4-1.9-3.8-1.9-6.9V75.1h-4.1v-3.7h4.1v-6.3L146.6,63.9z"/><path fill="#FFFFFF" d="M171.4,97.8l-0.4-3.3h-0.2c-1.5,2.1-4.3,3.9-8.1,3.9c-5.4,0-8.1-3.8-8.1-7.6c0-6.4,5.7-9.9,15.9-9.8v-0.5 c0-2.2-0.6-6.1-6-6.1c-2.5,0-5,0.8-6.9,2l-1.1-3.2c2.2-1.4,5.4-2.3,8.7-2.3c8.1,0,10.1,5.5,10.1,10.8v9.9c0,2.3,0.1,4.5,0.4,6.3 H171.4z M170.7,84.4c-5.3-0.1-11.2,0.8-11.2,5.9c0,3.1,2.1,4.6,4.5,4.6c3.4,0,5.6-2.2,6.4-4.4c0.2-0.5,0.3-1,0.3-1.5V84.4z"/></g></g></a></g><a href="https://ourworldindata.org/grapher/total-number-of-deaths-by-cause" target="_blank"><text font-size="25.20" x="15.0" y="35.2" fill="#555"><tspan x="15" y="35.160000000000004">Total number of deaths by cause, World</tspan></text></a><text font-size="14.40" x="15.0" y="53.7" fill="#666"><tspan x="15" y="53.72">Total annual number of deaths by high-level cause category. Non-communicable diseases (NCDs) include</tspan><tspan x="15" y="69.56">cardiovascular disease, cancers, diabetes and respiratory disease. Injuries include road accidents, homicides and</tspan><tspan x="15" y="85.4">conflict, drowning, fire-related accidents, natural disasters and self-harm. </tspan></text></g><g class="StackedArea"><defs><clipPath id="boundsClip-835"><rect x="88.526" y="0" width="820" height="897.8"></rect></clipPath></defs><g class="AxisBoxView"><g class="HorizontalAxis"><text x="88.5" y="556.5" fill="#666" text-anchor="middle" font-size="16.2">1990</text><text x="198.7" y="556.5" fill="#666" text-anchor="middle" font-size="16.2">1995</text><text x="308.9" y="556.5" fill="#666" text-anchor="middle" font-size="16.2">2000</text><text x="419.1" y="556.5" fill="#666" text-anchor="middle" font-size="16.2">2005</text><text x="529.2" y="556.5" fill="#666" text-anchor="middle" font-size="16.2">2010</text><text x="639.4" y="556.5" fill="#666" text-anchor="middle" font-size="16.2">2015</text><text x="683.5" y="556.5" fill="#666" text-anchor="middle" font-size="16.2">2017</text></g><g class="VerticalAxis"><text x="83.53" y="535.3" fill="#666" dominant-baseline="middle" text-anchor="end" font-size="16.2">0</text><text x="83.53" y="458.9" fill="#666" dominant-baseline="middle" text-anchor="end" font-size="16.2">10 million</text><text x="83.53" y="382.4" fill="#666" dominant-baseline="middle" text-anchor="end" font-size="16.2">20 million</text><text x="83.53" y="306" fill="#666" dominant-baseline="middle" text-anchor="end" font-size="16.2">30 million</text><text x="83.53" y="229.5" fill="#666" dominant-baseline="middle" text-anchor="end" font-size="16.2">40 million</text><text x="83.53" y="153.1" fill="#666" dominant-baseline="middle" text-anchor="end" font-size="16.2">50 million</text></g><g class="AxisGridLines"><line x1="88.53" y1="535.3" x2="683.50" y2="535.3" stroke="#ccc"></line><line x1="88.53" y1="458.9" x2="683.50" y2="458.9" stroke="#ddd" stroke-dasharray="3,2"></line><line x1="88.53" y1="382.4" x2="683.50" y2="382.4" stroke="#ddd" stroke-dasharray="3,2"></line><line x1="88.53" y1="306" x2="683.50" y2="306" stroke="#ddd" stroke-dasharray="3,2"></line><line x1="88.53" y1="229.5" x2="683.50" y2="229.5" stroke="#ddd" stroke-dasharray="3,2"></line><line x1="88.53" y1="153.1" x2="683.50" y2="153.1" stroke="#ddd" stroke-dasharray="3,2"></line></g></g><g clip-path="url(#boundsClip-835)"><g class="HeightedLegend clickable"><g class="legendMark"><rect x="683.495" y="117.95" width="78.605" height="13.5" fill="#fff" opacity="0"></rect><text font-size="13.50" x="688.5" y="128.8" fill="#ffd53e"><tspan x="688.495" y="128.75">Injuries</tspan></text></g><g class="legendMark"><rect x="683.495" y="145.64999999999998" width="128.96" height="71.9" fill="#fff" opacity="0"></rect><text font-size="13.50" x="688.5" y="156.4" fill="#ca2628"><tspan x="688.495" y="156.45">Communicable,</tspan><tspan x="688.495" y="171.29999999999998">maternal,</tspan><tspan x="688.495" y="186.14999999999998">neonatal, and</tspan><tspan x="688.495" y="201">nutritional</tspan><tspan x="688.495" y="215.85">diseases</tspan></text></g><g class="legendMark"><rect x="683.495" y="364.25" width="151.505" height="28.1" fill="#fff" opacity="0"></rect><text font-size="13.50" x="688.5" y="375.1" fill="#3360a9"><tspan x="688.495" y="375.05">Non-communicable</tspan><tspan x="688.495" y="389.90000000000003">diseases (NCDs)</tspan></text></g></g><g class="Areas"><rect x="88.526" y="107.60000000000001" width="594.969" height="427.69999999999993" opacity="0" fill="rgba(255,255,255,0)"></rect><path stroke-linecap="round" d="M88.5 330.2L110.6 326.4L132.6 322.3L154.6 316.9L176.7 313.1L198.7 310.5L220.7 308.8L242.8 306.2L264.8 303.6L286.8 300.3L308.9 297.3L330.9 294.6L353 290.5L375 286.8L397 286.1L419.1 282.9L441.1 282.5L463.1 279.5L485.2 274L507.2 269L529.2 263.2L551.3 258.4L573.3 253.7L595.4 249.7L617.4 242.8L639.4 233.7L661.5 226.4L683.5 221.3L683.495 535.3L88.526 535.3" fill="#3360a9" fill-opacity="0.7" class="World_0-area"></path><path stroke-linecap="round" d="M88.5 212.5L110.6 209.1L132.6 205.3L154.6 200.6L176.7 197.5L198.7 194.8L220.7 193.9L242.8 191.6L264.8 189.2L286.8 186.4L308.9 183.8L330.9 182.2L353 179.3L375 177.4L397 178.4L419.1 176.6L441.1 178.2L463.1 177.3L485.2 173.9L507.2 171L529.2 167.4L551.3 165.2L573.3 163.5L595.4 162.1L617.4 157.4L639.4 150.5L661.5 145.4L683.5 141.9L683.5 221.3L661.5 226.4L639.4 233.7L617.4 242.8L595.4 249.7L573.3 253.7L551.3 258.4L529.2 263.2L507.2 269L485.2 274L463.1 279.5L441.1 282.5L419.1 282.9L397 286.1L375 286.8L353 290.5L330.9 294.6L308.9 297.3L286.8 300.3L264.8 303.6L242.8 306.2L220.7 308.8L198.7 310.5L176.7 313.1L154.6 316.9L132.6 322.3L110.6 326.4L88.5 330.2" fill="#ca2628" fill-opacity="0.7" class="World_1-area"></path><path stroke-linecap="round" d="M88.5 180L110.6 175.4L132.6 172.2L154.6 166.5L176.7 159.2L198.7 160.1L220.7 159.3L242.8 156.8L264.8 154.3L286.8 150.9L308.9 148.9L330.9 148L353 145.4L375 143.5L397 142.9L419.1 142.2L441.1 144.6L463.1 143.8L485.2 138.5L507.2 137.2L529.2 131.4L551.3 130.9L573.3 129.3L595.4 128L617.4 123L639.4 116.2L661.5 110.9L683.5 107.6L683.5 141.9L661.5 145.4L639.4 150.5L617.4 157.4L595.4 162.1L573.3 163.5L551.3 165.2L529.2 167.4L507.2 171L485.2 173.9L463.1 177.3L441.1 178.2L419.1 176.6L397 178.4L375 177.4L353 179.3L330.9 182.2L308.9 183.8L286.8 186.4L264.8 189.2L242.8 191.6L220.7 193.9L198.7 194.8L176.7 197.5L154.6 200.6L132.6 205.3L110.6 209.1L88.5 212.5" fill="#ffd53e" fill-opacity="0.7" class="World_2-area"></path><path stroke-linecap="round" d="M88.5 330.2L110.6 326.4L132.6 322.3L154.6 316.9L176.7 313.1L198.7 310.5L220.7 308.8L242.8 306.2L264.8 303.6L286.8 300.3L308.9 297.3L330.9 294.6L353 290.5L375 286.8L397 286.1L419.1 282.9L441.1 282.5L463.1 279.5L485.2 274L507.2 269L529.2 263.2L551.3 258.4L573.3 253.7L595.4 249.7L617.4 242.8L639.4 233.7L661.5 226.4L683.5 221.3" stroke="rgb(43, 80, 141)" stroke-opacity="0.7" stroke-width="0.5" fill="none" class="World_0-border"></path><path stroke-linecap="round" d="M88.5 212.5L110.6 209.1L132.6 205.3L154.6 200.6L176.7 197.5L198.7 194.8L220.7 193.9L242.8 191.6L264.8 189.2L286.8 186.4L308.9 183.8L330.9 182.2L353 179.3L375 177.4L397 178.4L419.1 176.6L441.1 178.2L463.1 177.3L485.2 173.9L507.2 171L529.2 167.4L551.3 165.2L573.3 163.5L595.4 162.1L617.4 157.4L639.4 150.5L661.5 145.4L683.5 141.9" stroke="rgb(169, 32, 33)" stroke-opacity="0.7" stroke-width="0.5" fill="none" class="World_1-border"></path><path stroke-linecap="round" d="M88.5 180L110.6 175.4L132.6 172.2L154.6 166.5L176.7 159.2L198.7 160.1L220.7 159.3L242.8 156.8L264.8 154.3L286.8 150.9L308.9 148.9L330.9 148L353 145.4L375 143.5L397 142.9L419.1 142.2L441.1 144.6L463.1 143.8L485.2 138.5L507.2 137.2L529.2 131.4L551.3 130.9L573.3 129.3L595.4 128L617.4 123L639.4 116.2L661.5 110.9L683.5 107.6" stroke="rgb(213, 178, 52)" stroke-opacity="0.7" stroke-width="0.5" fill="none" class="World_2-border"></path></g></g></g><g style="fill: #777;" class="SourcesFooter"><g style="fill: #777;" class="clickable"><text font-size="12.60" x="15.0" y="581.6"><tspan x="15" y="581.58">Source: IHME, Global Burden of Disease</tspan></text></g><text font-size="12.60" x="551.2" y="581.6"><tspan x="551.248" y="581.58"><a target='_blank' style='fill: #777;' href='https://ourworldindata.org/causes-of-death/'>OurWorldInData.org/causes-of-death/</a> • <a style="fill: #777;" class="cclogo" href="http://creativecommons.org/licenses/by-sa/4.0/deed.en_US" target="_blank">CC BY-SA</a></tspan></text></g></g></svg>