<svg xmlns="http://www.w3.org/2000/svg" version="1.1" style="font-family: 'Helvetica Neue', Helvetica, Arial, sans-serif; font-size: 18px; background-color: white; text-rendering: optimizeLegibility; -webkit-font-smoothing: antialiased;" width="850" height="600"><g class="ChartTab"><g class="HeaderView"><g opacity="0.8" transform="translate(778, 15) scale(0.27)"><a xmlns:xlink="http://www.w3.org/1999/xlink" xlink:href="https://ourworldindata.org" target="_blank"><g><rect x="0" y="0" fill="#1B2543" width="211.2" height="130.1"/><rect x="0" y="112.2" fill="#E63912" width="211.2" height="17.9"/><g><rect x="1.2" y="12.3" fill="none" width="210.2" height="99.2"/><path fill="#FFFFFF" d="M37.8,32.2c0,12.7-7.7,19.4-17.1,19.4c-9.7,0-16.6-7.5-16.6-18.7c0-11.7,7.3-19.3,17.1-19.3 C31.3,13.7,37.8,21.3,37.8,32.2z M9.2,32.8c0,7.9,4.3,14.9,11.8,14.9c7.5,0,11.8-6.9,11.8-15.3c0-7.3-3.8-14.9-11.8-14.9 C13.1,17.5,9.2,24.8,9.2,32.8z"/><path fill="#FFFFFF" d="M62.7,43.8c0,2.7,0.1,5.1,0.2,7.2h-4.3l-0.3-4.3h-0.1c-1.3,2.1-4,4.9-8.8,4.9c-4.2,0-9.1-2.3-9.1-11.6 V24.6h4.8v14.6c0,5,1.5,8.4,5.9,8.4c3.2,0,5.5-2.2,6.3-4.4c0.3-0.7,0.4-1.6,0.4-2.5V24.6h4.8V43.8z"/><path fill="#FFFFFF" d="M67.3,32.8c0-3.1-0.1-5.8-0.2-8.2h4.2l0.2,5.2h0.2c1.2-3.5,4.1-5.8,7.3-5.8c0.5,0,0.9,0.1,1.4,0.2v4.5 c-0.5-0.1-1-0.2-1.6-0.2c-3.4,0-5.8,2.6-6.5,6.2c-0.1,0.7-0.2,1.4-0.2,2.2V51h-4.8V32.8z"/><path fill="#FFFFFF" d="M95.4,51l-9.4-36.8h5l4.4,18.6c1.1,4.6,2.1,9.2,2.7,12.7h0.1c0.6-3.7,1.8-8,3-12.8l4.9-18.5h5l4.5,18.7 c1,4.4,2,8.7,2.6,12.6h0.1c0.8-4,1.8-8.1,3-12.7l4.9-18.5h4.9L120.6,51h-5L111,31.9c-1.1-4.7-1.9-8.3-2.4-12h-0.1 c-0.7,3.7-1.5,7.3-2.8,12L100.4,51H95.4z"/><path fill="#FFFFFF" d="M154.9,37.6c0,9.8-6.8,14-13.2,14c-7.2,0-12.7-5.2-12.7-13.6c0-8.8,5.8-14,13.1-14 C149.8,24,154.9,29.5,154.9,37.6z M133.9,37.9c0,5.8,3.3,10.1,8,10.1c4.6,0,8-4.3,8-10.3c0-4.5-2.2-10.1-7.9-10.1 C136.3,27.6,133.9,32.8,133.9,37.9z"/><path fill="#FFFFFF" d="M158.2,32.8c0-3.1-0.1-5.8-0.2-8.2h4.2l0.2,5.2h0.2c1.2-3.5,4.1-5.8,7.3-5.8c0.5,0,0.9,0.1,1.4,0.2v4.5 c-0.5-0.1-1-0.2-1.6-0.2c-3.4,0-5.8,2.6-6.5,6.2c-0.1,0.7-0.2,1.4-0.2,2.2V51h-4.8V32.8z"/><path fill="#FFFFFF" d="M173.5,12.3h4.8V51h-4.8V12.3z"/><path fill="#FFFFFF" d="M206.5,12.3v31.9c0,2.3,0.1,5,0.2,6.8h-4.3l-0.2-4.6H202c-1.5,2.9-4.7,5.2-9,5.2 c-6.4,0-11.3-5.4-11.3-13.4c-0.1-8.8,5.4-14.2,11.9-14.2c4,0,6.8,1.9,8,4h0.1V12.3H206.5z M201.7,35.4c0-0.6-0.1-1.4-0.2-2 c-0.7-3.1-3.3-5.6-6.9-5.6c-5,0-7.9,4.4-7.9,10.2c0,5.3,2.6,9.8,7.8,9.8c3.2,0,6.2-2.1,7.1-5.7c0.2-0.7,0.2-1.3,0.2-2.1V35.4z"/><path fill="#FFFFFF" d="M42.8,64c0.1,1.6-1.1,2.9-3.1,2.9c-1.7,0-2.9-1.3-2.9-2.9c0-1.7,1.3-3,3-3C41.7,61,42.8,62.3,42.8,64z M37.4,97.8V71.4h4.8v26.4H37.4z"/><path fill="#FFFFFF" d="M47.5,78.6c0-2.7-0.1-5-0.2-7.1h4.3l0.3,4.4h0.1c1.3-2.5,4.4-5,8.8-5c3.7,0,9.4,2.2,9.4,11.2v15.8h-4.8 V82.6c0-4.3-1.6-7.8-6.1-7.8c-3.2,0-5.6,2.2-6.5,4.9c-0.2,0.6-0.3,1.4-0.3,2.2v15.9h-4.8V78.6z"/><path fill="#FFFFFF" d="M84,61.6c2.9-0.4,6.3-0.8,10.1-0.8c6.8,0,11.7,1.6,14.9,4.6c3.3,3,5.2,7.3,5.2,13.2c0,6-1.9,10.9-5.3,14.3 c-3.4,3.4-9.1,5.3-16.3,5.3c-3.4,0-6.2-0.2-8.6-0.4V61.6z M88.8,94.1c1.2,0.2,3,0.3,4.8,0.3c10.2,0,15.7-5.7,15.7-15.6 c0.1-8.7-4.9-14.2-14.9-14.2c-2.5,0-4.3,0.2-5.6,0.5V94.1z"/><path fill="#FFFFFF" d="M132.1,97.8l-0.4-3.3h-0.2c-1.5,2.1-4.3,3.9-8.1,3.9c-5.4,0-8.1-3.8-8.1-7.6c0-6.4,5.7-9.9,15.9-9.8v-0.5 c0-2.2-0.6-6.1-6-6.1c-2.5,0-5,0.8-6.9,2l-1.1-3.2c2.2-1.4,5.4-2.3,8.7-2.3c8.1,0,10.1,5.5,10.1,10.8v9.9c0,2.3,0.1,4.5,0.4,6.3 H132.1z M131.4,84.4c-5.3-0.1-11.2,0.8-11.2,5.9c0,3.1,2.1,4.6,4.5,4.6c3.4,0,5.6-2.2,6.4-4.4c0.2-0.5,0.3-1,0.3-1.5V84.4z"/><path fill="#FFFFFF" d="M146.6,63.9v7.6h6.9v3.7h-6.9v14.2c0,3.3,0.9,5.1,3.6,5.1c1.3,0,2.2-0.2,2.8-0.3l0.2,3.6 c-0.9,0.4-2.4,0.7-4.3,0.7c-2.2,0-4-0.7-5.2-2c-1.4-1.4-1.9-3.8-1.9-6.9V75.1h-4.1v-3.7h4.1v-6.3L146.6,63.9z"/><path fill="#FFFFFF" d="M171.4,97.8l-0.4-3.3h-0.2c-1.5,2.1-4.3,3.9-8.1,3.9c-5.4,0-8.1-3.8-8.1-7.6c0-6.4,5.7-9.9,15.9-9.8v-0.5 c0-2.2-0.6-6.1-6-6.1c-2.5,0-5,0.8-6.9,2l-1.1-3.2c2.2-1.4,5.4-2.3,8.7-2.3c8.1,0,10.1,5.5,10.1,10.8v9.9c0,2.3,0.1,4.5,0.4,6.3 H171.4z M170.7,84.4c-5.3-0.1-11.2,0.8-11.2,5.9c0,3.1,2.1,4.6,4.5,4.6c3.4,0,5.6-2.2,6.4-4.4c0.2-0.5,0.3-1,0.3-1.5V84.4z"/></g></g></a></g><a href="https://ourworldindata.org/grapher/tuberculosis-death-rates-by-age" target="_blank"><text font-size="25.20" x="15.0" y="35.2" fill="#555"><tspan x="15" y="35.160000000000004">Tuberculosis death rates by age (per 100,000), World</tspan></text></a><text font-size="14.40" x="15.0" y="53.7" fill="#666"><tspan x="15" y="53.72">Death rates from tuberculosis by age group, measured as the number of deaths per 100,000 individuals.</tspan><tspan x="15" y="69.56">Age-standardization assumes a constant population age &amp; structure to allow for comparisons between countries and</tspan><tspan x="15" y="85.4">with time without the effects of a changing age distribution within a population (e.g. aging).</tspan></text></g><g class="LineChart"><defs><clipPath id="boundsClip-891"><rect x="37.216" y="0" width="830" height="897.8"></rect></clipPath></defs><g class="AxisBoxView"><g class="HorizontalAxis"><text x="47.2" y="556.5" fill="#666" text-anchor="middle" font-size="16.2">1990</text><text x="166.9" y="556.5" fill="#666" text-anchor="middle" font-size="16.2">1995</text><text x="286.7" y="556.5" fill="#666" text-anchor="middle" font-size="16.2">2000</text><text x="406.4" y="556.5" fill="#666" text-anchor="middle" font-size="16.2">2005</text><text x="526.1" y="556.5" fill="#666" text-anchor="middle" font-size="16.2">2010</text><text x="645.9" y="556.5" fill="#666" text-anchor="middle" font-size="16.2">2015</text><text x="693.8" y="556.5" fill="#666" text-anchor="middle" font-size="16.2">2017</text></g><g class="VerticalAxis"><text x="42.22" y="485.8" fill="#666" dominant-baseline="middle" text-anchor="end" font-size="16.2">20</text><text x="42.22" y="433.5" fill="#666" dominant-baseline="middle" text-anchor="end" font-size="16.2">40</text><text x="42.22" y="381.2" fill="#666" dominant-baseline="middle" text-anchor="end" font-size="16.2">60</text><text x="42.22" y="328.9" fill="#666" dominant-baseline="middle" text-anchor="end" font-size="16.2">80</text><text x="42.22" y="276.6" fill="#666" dominant-baseline="middle" text-anchor="end" font-size="16.2">100</text><text x="42.22" y="224.3" fill="#666" dominant-baseline="middle" text-anchor="end" font-size="16.2">120</text><text x="42.22" y="172" fill="#666" dominant-baseline="middle" text-anchor="end" font-size="16.2">140</text><text x="42.22" y="119.7" fill="#666" dominant-baseline="middle" text-anchor="end" font-size="16.2">160</text></g><g class="AxisGridLines"><line x1="47.22" y1="485.8" x2="693.75" y2="485.8" stroke="#ddd" stroke-dasharray="3,2"></line><line x1="47.22" y1="433.5" x2="693.75" y2="433.5" stroke="#ddd" stroke-dasharray="3,2"></line><line x1="47.22" y1="381.2" x2="693.75" y2="381.2" stroke="#ddd" stroke-dasharray="3,2"></line><line x1="47.22" y1="328.9" x2="693.75" y2="328.9" stroke="#ddd" stroke-dasharray="3,2"></line><line x1="47.22" y1="276.6" x2="693.75" y2="276.6" stroke="#ddd" stroke-dasharray="3,2"></line><line x1="47.22" y1="224.3" x2="693.75" y2="224.3" stroke="#ddd" stroke-dasharray="3,2"></line><line x1="47.22" y1="172" x2="693.75" y2="172" stroke="#ddd" stroke-dasharray="3,2"></line><line x1="47.22" y1="119.7" x2="693.75" y2="119.7" stroke="#ddd" stroke-dasharray="3,2"></line></g></g><g clip-path="url(#boundsClip-891)"><g class="HeightedLegend clickable"><g class="legendMark"><g class="indicator"><line x1="698.755" y1="535.3" x2="719.255" y2="535.3" stroke="#666" stroke-width="0.5"></line><line x1="719.255" y1="535.3" x2="719.255" y2="528.55" stroke="#666" stroke-width="0.5"></line><line x1="719.255" y1="528.55" x2="723.755" y2="528.55" stroke="#666" stroke-width="0.5"></line></g><rect x="693.755" y="521.8" width="120.86" height="13.5" fill="#fff" opacity="0"></rect><text font-size="13.50" x="728.8" y="532.6" fill="#3360a9"><tspan x="728.755" y="532.5999999999999">5-14 years old</tspan></text></g><g class="legendMark"><g class="indicator"><line x1="698.755" y1="516" x2="715.255" y2="516" stroke="#666" stroke-width="0.5"></line><line x1="715.255" y1="516" x2="715.255" y2="513.05" stroke="#666" stroke-width="0.5"></line><line x1="715.255" y1="513.05" x2="723.755" y2="513.05" stroke="#666" stroke-width="0.5"></line></g><rect x="693.755" y="506.29999999999995" width="90.62" height="13.5" fill="#fff" opacity="0"></rect><text font-size="13.50" x="728.8" y="517.1" fill="#ca2628"><tspan x="728.755" y="517.0999999999999">Under-5s</tspan></text></g><g class="legendMark"><g class="indicator"><line x1="698.755" y1="513.2" x2="711.255" y2="513.2" stroke="#666" stroke-width="0.5"></line><line x1="711.255" y1="513.2" x2="711.255" y2="497.54999999999995" stroke="#666" stroke-width="0.5"></line><line x1="711.255" y1="497.54999999999995" x2="723.755" y2="497.54999999999995" stroke="#666" stroke-width="0.5"></line></g><rect x="693.755" y="490.79999999999995" width="128.42000000000002" height="13.5" fill="#fff" opacity="0"></rect><text font-size="13.50" x="728.8" y="501.6" fill="#34983f"><tspan x="728.755" y="501.59999999999997">15-49 years old</tspan></text></g><g class="legendMark"><g class="indicator"><line x1="698.755" y1="499" x2="707.255" y2="499" stroke="#666" stroke-width="0.5"></line><line x1="707.255" y1="499" x2="707.255" y2="482.04999999999995" stroke="#666" stroke-width="0.5"></line><line x1="707.255" y1="482.04999999999995" x2="723.755" y2="482.04999999999995" stroke="#666" stroke-width="0.5"></line></g><rect x="693.755" y="475.29999999999995" width="141.245" height="13.5" fill="#fff" opacity="0"></rect><text font-size="13.50" x="728.8" y="486.1" fill="#f6a324"><tspan x="728.755" y="486.09999999999997">Age-standardized</tspan></text></g><g class="legendMark"><g class="indicator"><line x1="698.755" y1="497.5" x2="703.255" y2="497.5" stroke="#666" stroke-width="0.5"></line><line x1="703.255" y1="497.5" x2="703.255" y2="466.54999999999995" stroke="#666" stroke-width="0.5"></line><line x1="703.255" y1="466.54999999999995" x2="723.755" y2="466.54999999999995" stroke="#666" stroke-width="0.5"></line></g><rect x="693.755" y="459.79999999999995" width="83.195" height="13.5" fill="#fff" opacity="0"></rect><text font-size="13.50" x="728.8" y="470.6" fill="#a652ba"><tspan x="728.755" y="470.59999999999997">All ages</tspan></text></g><g class="legendMark"><g class="indicator"><line x1="698.755" y1="452.8" x2="711.255" y2="452.8" stroke="#666" stroke-width="0.5"></line><line x1="711.255" y1="452.8" x2="711.255" y2="452.8" stroke="#666" stroke-width="0.5"></line><line x1="711.255" y1="452.8" x2="723.755" y2="452.8" stroke="#666" stroke-width="0.5"></line></g><rect x="693.755" y="446.05" width="128.42000000000002" height="13.5" fill="#fff" opacity="0"></rect><text font-size="13.50" x="728.8" y="456.9" fill="#2a939b"><tspan x="728.755" y="456.85">50-69 years old</tspan></text></g><g class="legendMark"><g class="indicator"><line x1="698.755" y1="350" x2="711.255" y2="350" stroke="#666" stroke-width="0.5"></line><line x1="711.255" y1="350" x2="711.255" y2="350" stroke="#666" stroke-width="0.5"></line><line x1="711.255" y1="350" x2="723.755" y2="350" stroke="#666" stroke-width="0.5"></line></g><rect x="693.755" y="343.25" width="116.67500000000001" height="13.5" fill="#fff" opacity="0"></rect><text font-size="13.50" x="728.8" y="354.1" fill="#e6332e"><tspan x="728.755" y="354.05">70+ years old</tspan></text></g></g><g class="Lines"><rect x="47" y="108" width="647" height="428" fill="rgba(255,255,255,0)" opacity="0"></rect><g class="key-World_0"><path stroke="#ca2628" stroke-linecap="round" d="M47 468L71 470L95 471L119 472L143 473L167 474L191 476L215 477L239 479L263 481L287 483L311 485L335 488L359 490L383 493L406 495L430 497L454 499L478 502L502 504L526 506L550 507L574 509L598 510L622 512L646 513L670 514L694 516" fill="none" stroke-width="1.5"></path><g fill="#ca2628"><circle cx="47" cy="468" r="2"></circle><circle cx="71" cy="470" r="2"></circle><circle cx="95" cy="471" r="2"></circle><circle cx="119" cy="472" r="2"></circle><circle cx="143" cy="473" r="2"></circle><circle cx="167" cy="474" r="2"></circle><circle cx="191" cy="476" r="2"></circle><circle cx="215" cy="477" r="2"></circle><circle cx="239" cy="479" r="2"></circle><circle cx="263" cy="481" r="2"></circle><circle cx="287" cy="483" r="2"></circle><circle cx="311" cy="485" r="2"></circle><circle cx="335" cy="488" r="2"></circle><circle cx="359" cy="490" r="2"></circle><circle cx="383" cy="493" r="2"></circle><circle cx="406" cy="495" r="2"></circle><circle cx="430" cy="497" r="2"></circle><circle cx="454" cy="499" r="2"></circle><circle cx="478" cy="502" r="2"></circle><circle cx="502" cy="504" r="2"></circle><circle cx="526" cy="506" r="2"></circle><circle cx="550" cy="507" r="2"></circle><circle cx="574" cy="509" r="2"></circle><circle cx="598" cy="510" r="2"></circle><circle cx="622" cy="512" r="2"></circle><circle cx="646" cy="513" r="2"></circle><circle cx="670" cy="514" r="2"></circle><circle cx="694" cy="516" r="2"></circle></g></g><g class="key-World_1"><path stroke="#a652ba" stroke-linecap="round" d="M47 460L71 461L95 462L119 463L143 464L167 465L191 467L215 467L239 468L263 469L287 470L311 472L335 474L359 476L383 479L406 480L430 483L454 484L478 486L502 488L526 489L550 491L574 492L598 494L622 495L646 496L670 497L694 498" fill="none" stroke-width="1.5"></path><g fill="#a652ba"><circle cx="47" cy="460" r="2"></circle><circle cx="71" cy="461" r="2"></circle><circle cx="95" cy="462" r="2"></circle><circle cx="119" cy="463" r="2"></circle><circle cx="143" cy="464" r="2"></circle><circle cx="167" cy="465" r="2"></circle><circle cx="191" cy="467" r="2"></circle><circle cx="215" cy="467" r="2"></circle><circle cx="239" cy="468" r="2"></circle><circle cx="263" cy="469" r="2"></circle><circle cx="287" cy="470" r="2"></circle><circle cx="311" cy="472" r="2"></circle><circle cx="335" cy="474" r="2"></circle><circle cx="359" cy="476" r="2"></circle><circle cx="383" cy="479" r="2"></circle><circle cx="406" cy="480" r="2"></circle><circle cx="430" cy="483" r="2"></circle><circle cx="454" cy="484" r="2"></circle><circle cx="478" cy="486" r="2"></circle><circle cx="502" cy="488" r="2"></circle><circle cx="526" cy="489" r="2"></circle><circle cx="550" cy="491" r="2"></circle><circle cx="574" cy="492" r="2"></circle><circle cx="598" cy="494" r="2"></circle><circle cx="622" cy="495" r="2"></circle><circle cx="646" cy="496" r="2"></circle><circle cx="670" cy="497" r="2"></circle><circle cx="694" cy="498" r="2"></circle></g></g><g class="key-World_2"><path stroke="#e6332e" stroke-linecap="round" d="M47 108L71 115L95 121L119 131L143 142L167 153L191 165L215 169L239 174L263 185L287 192L311 202L335 212L359 224L383 241L406 251L430 264L454 276L478 285L502 294L526 302L550 311L574 319L598 326L622 332L646 338L670 343L694 350" fill="none" stroke-width="1.5"></path><g fill="#e6332e"><circle cx="47" cy="108" r="2"></circle><circle cx="71" cy="115" r="2"></circle><circle cx="95" cy="121" r="2"></circle><circle cx="119" cy="131" r="2"></circle><circle cx="143" cy="142" r="2"></circle><circle cx="167" cy="153" r="2"></circle><circle cx="191" cy="165" r="2"></circle><circle cx="215" cy="169" r="2"></circle><circle cx="239" cy="174" r="2"></circle><circle cx="263" cy="185" r="2"></circle><circle cx="287" cy="192" r="2"></circle><circle cx="311" cy="202" r="2"></circle><circle cx="335" cy="212" r="2"></circle><circle cx="359" cy="224" r="2"></circle><circle cx="383" cy="241" r="2"></circle><circle cx="406" cy="251" r="2"></circle><circle cx="430" cy="264" r="2"></circle><circle cx="454" cy="276" r="2"></circle><circle cx="478" cy="285" r="2"></circle><circle cx="502" cy="294" r="2"></circle><circle cx="526" cy="302" r="2"></circle><circle cx="550" cy="311" r="2"></circle><circle cx="574" cy="319" r="2"></circle><circle cx="598" cy="326" r="2"></circle><circle cx="622" cy="332" r="2"></circle><circle cx="646" cy="338" r="2"></circle><circle cx="670" cy="343" r="2"></circle><circle cx="694" cy="350" r="2"></circle></g></g><g class="key-World_3"><path stroke="#3360a9" stroke-linecap="round" d="M47 530L71 530L95 530L119 530L143 530L167 531L191 531L215 531L239 531L263 531L287 531L311 532L335 532L359 533L383 533L406 533L430 533L454 533L478 534L502 534L526 534L550 534L574 534L598 535L622 535L646 535L670 535L694 535" fill="none" stroke-width="1.5"></path><g fill="#3360a9"><circle cx="47" cy="530" r="2"></circle><circle cx="71" cy="530" r="2"></circle><circle cx="95" cy="530" r="2"></circle><circle cx="119" cy="530" r="2"></circle><circle cx="143" cy="530" r="2"></circle><circle cx="167" cy="531" r="2"></circle><circle cx="191" cy="531" r="2"></circle><circle cx="215" cy="531" r="2"></circle><circle cx="239" cy="531" r="2"></circle><circle cx="263" cy="531" r="2"></circle><circle cx="287" cy="531" r="2"></circle><circle cx="311" cy="532" r="2"></circle><circle cx="335" cy="532" r="2"></circle><circle cx="359" cy="533" r="2"></circle><circle cx="383" cy="533" r="2"></circle><circle cx="406" cy="533" r="2"></circle><circle cx="430" cy="533" r="2"></circle><circle cx="454" cy="533" r="2"></circle><circle cx="478" cy="534" r="2"></circle><circle cx="502" cy="534" r="2"></circle><circle cx="526" cy="534" r="2"></circle><circle cx="550" cy="534" r="2"></circle><circle cx="574" cy="534" r="2"></circle><circle cx="598" cy="535" r="2"></circle><circle cx="622" cy="535" r="2"></circle><circle cx="646" cy="535" r="2"></circle><circle cx="670" cy="535" r="2"></circle><circle cx="694" cy="535" r="2"></circle></g></g><g class="key-World_4"><path stroke="#34983f" stroke-linecap="round" d="M47 488L71 489L95 489L119 490L143 490L167 491L191 492L215 492L239 492L263 492L287 492L311 494L335 495L359 497L383 499L406 500L430 501L454 503L478 504L502 505L526 506L550 508L574 509L598 510L622 511L646 512L670 513L694 513" fill="none" stroke-width="1.5"></path><g fill="#34983f"><circle cx="47" cy="488" r="2"></circle><circle cx="71" cy="489" r="2"></circle><circle cx="95" cy="489" r="2"></circle><circle cx="119" cy="490" r="2"></circle><circle cx="143" cy="490" r="2"></circle><circle cx="167" cy="491" r="2"></circle><circle cx="191" cy="492" r="2"></circle><circle cx="215" cy="492" r="2"></circle><circle cx="239" cy="492" r="2"></circle><circle cx="263" cy="492" r="2"></circle><circle cx="287" cy="492" r="2"></circle><circle cx="311" cy="494" r="2"></circle><circle cx="335" cy="495" r="2"></circle><circle cx="359" cy="497" r="2"></circle><circle cx="383" cy="499" r="2"></circle><circle cx="406" cy="500" r="2"></circle><circle cx="430" cy="501" r="2"></circle><circle cx="454" cy="503" r="2"></circle><circle cx="478" cy="504" r="2"></circle><circle cx="502" cy="505" r="2"></circle><circle cx="526" cy="506" r="2"></circle><circle cx="550" cy="508" r="2"></circle><circle cx="574" cy="509" r="2"></circle><circle cx="598" cy="510" r="2"></circle><circle cx="622" cy="511" r="2"></circle><circle cx="646" cy="512" r="2"></circle><circle cx="670" cy="513" r="2"></circle><circle cx="694" cy="513" r="2"></circle></g></g><g class="key-World_5"><path stroke="#2a939b" stroke-linecap="round" d="M47 331L71 334L95 336L119 340L143 343L167 347L191 351L215 352L239 357L263 365L287 371L311 377L335 383L359 390L383 400L406 407L430 413L454 418L478 423L502 427L526 431L550 434L574 438L598 441L622 444L646 447L670 450L694 453" fill="none" stroke-width="1.5"></path><g fill="#2a939b"><circle cx="47" cy="331" r="2"></circle><circle cx="71" cy="334" r="2"></circle><circle cx="95" cy="336" r="2"></circle><circle cx="119" cy="340" r="2"></circle><circle cx="143" cy="343" r="2"></circle><circle cx="167" cy="347" r="2"></circle><circle cx="191" cy="351" r="2"></circle><circle cx="215" cy="352" r="2"></circle><circle cx="239" cy="357" r="2"></circle><circle cx="263" cy="365" r="2"></circle><circle cx="287" cy="371" r="2"></circle><circle cx="311" cy="377" r="2"></circle><circle cx="335" cy="383" r="2"></circle><circle cx="359" cy="390" r="2"></circle><circle cx="383" cy="400" r="2"></circle><circle cx="406" cy="407" r="2"></circle><circle cx="430" cy="413" r="2"></circle><circle cx="454" cy="418" r="2"></circle><circle cx="478" cy="423" r="2"></circle><circle cx="502" cy="427" r="2"></circle><circle cx="526" cy="431" r="2"></circle><circle cx="550" cy="434" r="2"></circle><circle cx="574" cy="438" r="2"></circle><circle cx="598" cy="441" r="2"></circle><circle cx="622" cy="444" r="2"></circle><circle cx="646" cy="447" r="2"></circle><circle cx="670" cy="450" r="2"></circle><circle cx="694" cy="453" r="2"></circle></g></g><g class="key-World_6"><path stroke="#f6a324" stroke-linecap="round" d="M47 446L71 447L95 448L119 450L143 452L167 454L191 456L215 456L239 458L263 460L287 462L311 464L335 467L359 470L383 474L406 476L430 479L454 481L478 483L502 485L526 488L550 490L574 492L598 493L622 495L646 496L670 498L694 499" fill="none" stroke-width="1.5"></path><g fill="#f6a324"><circle cx="47" cy="446" r="2"></circle><circle cx="71" cy="447" r="2"></circle><circle cx="95" cy="448" r="2"></circle><circle cx="119" cy="450" r="2"></circle><circle cx="143" cy="452" r="2"></circle><circle cx="167" cy="454" r="2"></circle><circle cx="191" cy="456" r="2"></circle><circle cx="215" cy="456" r="2"></circle><circle cx="239" cy="458" r="2"></circle><circle cx="263" cy="460" r="2"></circle><circle cx="287" cy="462" r="2"></circle><circle cx="311" cy="464" r="2"></circle><circle cx="335" cy="467" r="2"></circle><circle cx="359" cy="470" r="2"></circle><circle cx="383" cy="474" r="2"></circle><circle cx="406" cy="476" r="2"></circle><circle cx="430" cy="479" r="2"></circle><circle cx="454" cy="481" r="2"></circle><circle cx="478" cy="483" r="2"></circle><circle cx="502" cy="485" r="2"></circle><circle cx="526" cy="488" r="2"></circle><circle cx="550" cy="490" r="2"></circle><circle cx="574" cy="492" r="2"></circle><circle cx="598" cy="493" r="2"></circle><circle cx="622" cy="495" r="2"></circle><circle cx="646" cy="496" r="2"></circle><circle cx="670" cy="498" r="2"></circle><circle cx="694" cy="499" r="2"></circle></g></g></g></g></g><g style="fill: #777;" class="SourcesFooter"><g style="fill: #777;" class="clickable"><text font-size="12.60" x="15.0" y="581.6"><tspan x="15" y="581.58">Source: IHME, Global Burden of Disease (GBD)</tspan></text></g><text font-size="12.60" x="775.4" y="581.6"><tspan x="775.402" y="581.58"><a style="fill: #777;" class="cclogo" href="http://creativecommons.org/licenses/by-sa/4.0/deed.en_US" target="_blank">CC BY-SA</a></tspan></text></g></g></svg>