<svg xmlns="http://www.w3.org/2000/svg" version="1.1" style="font-family: 'Helvetica Neue', Helvetica, Arial, sans-serif; font-size: 18px; background-color: white; text-rendering: optimizeLegibility; -webkit-font-smoothing: antialiased;" width="850" height="600"><g class="ChartTab"><g class="HeaderView"><g opacity="0.8" transform="translate(778, 15) scale(0.27)"><a xmlns:xlink="http://www.w3.org/1999/xlink" xlink:href="https://ourworldindata.org" target="_blank"><g><rect x="0" y="0" fill="#1B2543" width="211.2" height="130.1"/><rect x="0" y="112.2" fill="#E63912" width="211.2" height="17.9"/><g><rect x="1.2" y="12.3" fill="none" width="210.2" height="99.2"/><path fill="#FFFFFF" d="M37.8,32.2c0,12.7-7.7,19.4-17.1,19.4c-9.7,0-16.6-7.5-16.6-18.7c0-11.7,7.3-19.3,17.1-19.3 C31.3,13.7,37.8,21.3,37.8,32.2z M9.2,32.8c0,7.9,4.3,14.9,11.8,14.9c7.5,0,11.8-6.9,11.8-15.3c0-7.3-3.8-14.9-11.8-14.9 C13.1,17.5,9.2,24.8,9.2,32.8z"/><path fill="#FFFFFF" d="M62.7,43.8c0,2.7,0.1,5.1,0.2,7.2h-4.3l-0.3-4.3h-0.1c-1.3,2.1-4,4.9-8.8,4.9c-4.2,0-9.1-2.3-9.1-11.6 V24.6h4.8v14.6c0,5,1.5,8.4,5.9,8.4c3.2,0,5.5-2.2,6.3-4.4c0.3-0.7,0.4-1.6,0.4-2.5V24.6h4.8V43.8z"/><path fill="#FFFFFF" d="M67.3,32.8c0-3.1-0.1-5.8-0.2-8.2h4.2l0.2,5.2h0.2c1.2-3.5,4.1-5.8,7.3-5.8c0.5,0,0.9,0.1,1.4,0.2v4.5 c-0.5-0.1-1-0.2-1.6-0.2c-3.4,0-5.8,2.6-6.5,6.2c-0.1,0.7-0.2,1.4-0.2,2.2V51h-4.8V32.8z"/><path fill="#FFFFFF" d="M95.4,51l-9.4-36.8h5l4.4,18.6c1.1,4.6,2.1,9.2,2.7,12.7h0.1c0.6-3.7,1.8-8,3-12.8l4.9-18.5h5l4.5,18.7 c1,4.4,2,8.7,2.6,12.6h0.1c0.8-4,1.8-8.1,3-12.7l4.9-18.5h4.9L120.6,51h-5L111,31.9c-1.1-4.7-1.9-8.3-2.4-12h-0.1 c-0.7,3.7-1.5,7.3-2.8,12L100.4,51H95.4z"/><path fill="#FFFFFF" d="M154.9,37.6c0,9.8-6.8,14-13.2,14c-7.2,0-12.7-5.2-12.7-13.6c0-8.8,5.8-14,13.1-14 C149.8,24,154.9,29.5,154.9,37.6z M133.9,37.9c0,5.8,3.3,10.1,8,10.1c4.6,0,8-4.3,8-10.3c0-4.5-2.2-10.1-7.9-10.1 C136.3,27.6,133.9,32.8,133.9,37.9z"/><path fill="#FFFFFF" d="M158.2,32.8c0-3.1-0.1-5.8-0.2-8.2h4.2l0.2,5.2h0.2c1.2-3.5,4.1-5.8,7.3-5.8c0.5,0,0.9,0.1,1.4,0.2v4.5 c-0.5-0.1-1-0.2-1.6-0.2c-3.4,0-5.8,2.6-6.5,6.2c-0.1,0.7-0.2,1.4-0.2,2.2V51h-4.8V32.8z"/><path fill="#FFFFFF" d="M173.5,12.3h4.8V51h-4.8V12.3z"/><path fill="#FFFFFF" d="M206.5,12.3v31.9c0,2.3,0.1,5,0.2,6.8h-4.3l-0.2-4.6H202c-1.5,2.9-4.7,5.2-9,5.2 c-6.4,0-11.3-5.4-11.3-13.4c-0.1-8.8,5.4-14.2,11.9-14.2c4,0,6.8,1.9,8,4h0.1V12.3H206.5z M201.7,35.4c0-0.6-0.1-1.4-0.2-2 c-0.7-3.1-3.3-5.6-6.9-5.6c-5,0-7.9,4.4-7.9,10.2c0,5.3,2.6,9.8,7.8,9.8c3.2,0,6.2-2.1,7.1-5.7c0.2-0.7,0.2-1.3,0.2-2.1V35.4z"/><path fill="#FFFFFF" d="M42.8,64c0.1,1.6-1.1,2.9-3.1,2.9c-1.7,0-2.9-1.3-2.9-2.9c0-1.7,1.3-3,3-3C41.7,61,42.8,62.3,42.8,64z M37.4,97.8V71.4h4.8v26.4H37.4z"/><path fill="#FFFFFF" d="M47.5,78.6c0-2.7-0.1-5-0.2-7.1h4.3l0.3,4.4h0.1c1.3-2.5,4.4-5,8.8-5c3.7,0,9.4,2.2,9.4,11.2v15.8h-4.8 V82.6c0-4.3-1.6-7.8-6.1-7.8c-3.2,0-5.6,2.2-6.5,4.9c-0.2,0.6-0.3,1.4-0.3,2.2v15.9h-4.8V78.6z"/><path fill="#FFFFFF" d="M84,61.6c2.9-0.4,6.3-0.8,10.1-0.8c6.8,0,11.7,1.6,14.9,4.6c3.3,3,5.2,7.3,5.2,13.2c0,6-1.9,10.9-5.3,14.3 c-3.4,3.4-9.1,5.3-16.3,5.3c-3.4,0-6.2-0.2-8.6-0.4V61.6z M88.8,94.1c1.2,0.2,3,0.3,4.8,0.3c10.2,0,15.7-5.7,15.7-15.6 c0.1-8.7-4.9-14.2-14.9-14.2c-2.5,0-4.3,0.2-5.6,0.5V94.1z"/><path fill="#FFFFFF" d="M132.1,97.8l-0.4-3.3h-0.2c-1.5,2.1-4.3,3.9-8.1,3.9c-5.4,0-8.1-3.8-8.1-7.6c0-6.4,5.7-9.9,15.9-9.8v-0.5 c0-2.2-0.6-6.1-6-6.1c-2.5,0-5,0.8-6.9,2l-1.1-3.2c2.2-1.4,5.4-2.3,8.7-2.3c8.1,0,10.1,5.5,10.1,10.8v9.9c0,2.3,0.1,4.5,0.4,6.3 H132.1z M131.4,84.4c-5.3-0.1-11.2,0.8-11.2,5.9c0,3.1,2.1,4.6,4.5,4.6c3.4,0,5.6-2.2,6.4-4.4c0.2-0.5,0.3-1,0.3-1.5V84.4z"/><path fill="#FFFFFF" d="M146.6,63.9v7.6h6.9v3.7h-6.9v14.2c0,3.3,0.9,5.1,3.6,5.1c1.3,0,2.2-0.2,2.8-0.3l0.2,3.6 c-0.9,0.4-2.4,0.7-4.3,0.7c-2.2,0-4-0.7-5.2-2c-1.4-1.4-1.9-3.8-1.9-6.9V75.1h-4.1v-3.7h4.1v-6.3L146.6,63.9z"/><path fill="#FFFFFF" d="M171.4,97.8l-0.4-3.3h-0.2c-1.5,2.1-4.3,3.9-8.1,3.9c-5.4,0-8.1-3.8-8.1-7.6c0-6.4,5.7-9.9,15.9-9.8v-0.5 c0-2.2-0.6-6.1-6-6.1c-2.5,0-5,0.8-6.9,2l-1.1-3.2c2.2-1.4,5.4-2.3,8.7-2.3c8.1,0,10.1,5.5,10.1,10.8v9.9c0,2.3,0.1,4.5,0.4,6.3 H171.4z M170.7,84.4c-5.3-0.1-11.2,0.8-11.2,5.9c0,3.1,2.1,4.6,4.5,4.6c3.4,0,5.6-2.2,6.4-4.4c0.2-0.5,0.3-1,0.3-1.5V84.4z"/></g></g></a></g><a href="https://ourworldindata.org/grapher/tuberculosis-deaths-by-age" target="_blank"><text font-size="25.20" x="15.0" y="35.2" fill="#555"><tspan x="15" y="35.160000000000004">Tuberculosis deaths by age, World</tspan></text></a><text font-size="14.40" x="15.0" y="53.7" fill="#666"><tspan x="15" y="53.72">Annual number of deaths from tuberculosis, differentiated by age category.</tspan></text></g><g class="StackedArea"><defs><clipPath id="boundsClip-889"><rect x="93.062" y="0" width="820" height="959.8"></rect></clipPath></defs><g class="AxisBoxView"><g class="HorizontalAxis"><text x="93.1" y="556.5" fill="#666" text-anchor="middle" font-size="16.2">1990</text><text x="206.7" y="556.5" fill="#666" text-anchor="middle" font-size="16.2">1995</text><text x="320.3" y="556.5" fill="#666" text-anchor="middle" font-size="16.2">2000</text><text x="433.9" y="556.5" fill="#666" text-anchor="middle" font-size="16.2">2005</text><text x="547.5" y="556.5" fill="#666" text-anchor="middle" font-size="16.2">2010</text><text x="661.1" y="556.5" fill="#666" text-anchor="middle" font-size="16.2">2015</text><text x="706.6" y="556.5" fill="#666" text-anchor="middle" font-size="16.2">2017</text></g><g class="VerticalAxis"><text x="88.06" y="535.3" fill="#666" dominant-baseline="middle" text-anchor="end" font-size="16.2">0</text><text x="88.06" y="478.8" fill="#666" dominant-baseline="middle" text-anchor="end" font-size="16.2">200,000</text><text x="88.06" y="422.4" fill="#666" dominant-baseline="middle" text-anchor="end" font-size="16.2">400,000</text><text x="88.06" y="365.9" fill="#666" dominant-baseline="middle" text-anchor="end" font-size="16.2">600,000</text><text x="88.06" y="309.4" fill="#666" dominant-baseline="middle" text-anchor="end" font-size="16.2">800,000</text><text x="88.06" y="253" fill="#666" dominant-baseline="middle" text-anchor="end" font-size="16.2">1 million</text><text x="88.06" y="196.5" fill="#666" dominant-baseline="middle" text-anchor="end" font-size="16.2">1.2 million</text><text x="88.06" y="140" fill="#666" dominant-baseline="middle" text-anchor="end" font-size="16.2">1.4 million</text><text x="88.06" y="83.6" fill="#666" dominant-baseline="middle" text-anchor="end" font-size="16.2">1.6 million</text></g><g class="AxisGridLines"><line x1="93.06" y1="535.3" x2="706.58" y2="535.3" stroke="#ccc"></line><line x1="93.06" y1="478.8" x2="706.58" y2="478.8" stroke="#ddd" stroke-dasharray="3,2"></line><line x1="93.06" y1="422.4" x2="706.58" y2="422.4" stroke="#ddd" stroke-dasharray="3,2"></line><line x1="93.06" y1="365.9" x2="706.58" y2="365.9" stroke="#ddd" stroke-dasharray="3,2"></line><line x1="93.06" y1="309.4" x2="706.58" y2="309.4" stroke="#ddd" stroke-dasharray="3,2"></line><line x1="93.06" y1="253" x2="706.58" y2="253" stroke="#ddd" stroke-dasharray="3,2"></line><line x1="93.06" y1="196.5" x2="706.58" y2="196.5" stroke="#ddd" stroke-dasharray="3,2"></line><line x1="93.06" y1="140" x2="706.58" y2="140" stroke="#ddd" stroke-dasharray="3,2"></line><line x1="93.06" y1="83.6" x2="706.58" y2="83.6" stroke="#ddd" stroke-dasharray="3,2"></line></g></g><g clip-path="url(#boundsClip-889)"><g class="HeightedLegend clickable"><g class="legendMark"><g class="indicator"><line x1="711.5799999999999" y1="527.2" x2="734.0799999999999" y2="527.2" stroke="#666" stroke-width="0.5"></line><line x1="734.0799999999999" y1="527.2" x2="734.0799999999999" y2="527.2" stroke="#666" stroke-width="0.5"></line><line x1="734.0799999999999" y1="527.2" x2="736.5799999999999" y2="527.2" stroke="#666" stroke-width="0.5"></line></g><rect x="706.5799999999999" y="520.45" width="90.62" height="13.5" fill="#fff" opacity="0"></rect><text font-size="13.50" x="741.6" y="531.3" fill="#3360a9"><tspan x="741.5799999999999" y="531.25">Under-5s</tspan></text></g><g class="legendMark"><g class="indicator"><line x1="711.5799999999999" y1="517.2" x2="724.0799999999999" y2="517.2" stroke="#666" stroke-width="0.5"></line><line x1="724.0799999999999" y1="517.2" x2="724.0799999999999" y2="511.70000000000005" stroke="#666" stroke-width="0.5"></line><line x1="724.0799999999999" y1="511.70000000000005" x2="736.5799999999999" y2="511.70000000000005" stroke="#666" stroke-width="0.5"></line></g><rect x="706.5799999999999" y="504.95000000000005" width="120.86" height="13.5" fill="#fff" opacity="0"></rect><text font-size="13.50" x="741.6" y="515.8" fill="#ca2628"><tspan x="741.5799999999999" y="515.75">5-14 years old</tspan></text></g><g class="legendMark"><g class="indicator"><line x1="711.5799999999999" y1="462.8" x2="724.0799999999999" y2="462.8" stroke="#666" stroke-width="0.5"></line><line x1="724.0799999999999" y1="462.8" x2="724.0799999999999" y2="462.8" stroke="#666" stroke-width="0.5"></line><line x1="724.0799999999999" y1="462.8" x2="736.5799999999999" y2="462.8" stroke="#666" stroke-width="0.5"></line></g><rect x="706.5799999999999" y="456.05" width="128.42000000000002" height="13.5" fill="#fff" opacity="0"></rect><text font-size="13.50" x="741.6" y="466.9" fill="#ffd53e"><tspan x="741.5799999999999" y="466.85">15-49 years old</tspan></text></g><g class="legendMark"><g class="indicator"><line x1="711.5799999999999" y1="349.6" x2="724.0799999999999" y2="349.6" stroke="#666" stroke-width="0.5"></line><line x1="724.0799999999999" y1="349.6" x2="724.0799999999999" y2="349.6" stroke="#666" stroke-width="0.5"></line><line x1="724.0799999999999" y1="349.6" x2="736.5799999999999" y2="349.6" stroke="#666" stroke-width="0.5"></line></g><rect x="706.5799999999999" y="342.85" width="128.42000000000002" height="13.5" fill="#fff" opacity="0"></rect><text font-size="13.50" x="741.6" y="353.7" fill="#9ecc8a"><tspan x="741.5799999999999" y="353.65000000000003">50-69 years old</tspan></text></g><g class="legendMark"><g class="indicator"><line x1="711.5799999999999" y1="245.1" x2="724.0799999999999" y2="245.1" stroke="#666" stroke-width="0.5"></line><line x1="724.0799999999999" y1="245.1" x2="724.0799999999999" y2="245.1" stroke="#666" stroke-width="0.5"></line><line x1="724.0799999999999" y1="245.1" x2="736.5799999999999" y2="245.1" stroke="#666" stroke-width="0.5"></line></g><rect x="706.5799999999999" y="238.35" width="116.67500000000001" height="13.5" fill="#fff" opacity="0"></rect><text font-size="13.50" x="741.6" y="249.2" fill="#34983f"><tspan x="741.5799999999999" y="249.15">70+ years old</tspan></text></g></g><g class="Areas"><rect x="93.062" y="76.6" width="613.5179999999999" height="458.69999999999993" opacity="0" fill="rgba(255,255,255,0)"></rect><path stroke-linecap="round" d="M93.1 486.6L115.8 487.5L138.5 488.5L161.2 489.5L184 490.5L206.7 491.6L229.4 493L252.1 494.2L274.8 495.4L297.6 496.8L320.3 498L343 499.5L365.7 501.1L388.5 502.8L411.2 504.3L433.9 505.8L456.6 507.1L479.4 508.4L502.1 509.8L524.8 511L547.5 512.4L570.2 513.3L593 514.1L615.7 515L638.4 516L661.1 516.9L683.9 517.9L706.6 519.1L706.5799999999999 535.3L93.062 535.3" fill="#3360a9" fill-opacity="0.7" class="World_0-area"></path><path stroke-linecap="round" d="M93.1 476.3L115.8 477L138.5 477.8L161.2 478.9L184 480.4L206.7 481.8L229.4 483.5L252.1 485L274.8 486.3L297.6 487.8L320.3 489.1L343 490.9L365.7 493.3L388.5 495.6L411.2 497L433.9 498.6L456.6 500.4L479.4 502.1L502.1 503.8L524.8 505.2L547.5 506.7L570.2 507.8L593 508.9L615.7 510.1L638.4 511.4L661.1 512.6L683.9 513.8L706.6 515.2L706.6 519.1L683.9 517.9L661.1 516.9L638.4 516L615.7 515L593 514.1L570.2 513.3L547.5 512.4L524.8 511L502.1 509.8L479.4 508.4L456.6 507.1L433.9 505.8L411.2 504.3L388.5 502.8L365.7 501.1L343 499.5L320.3 498L297.6 496.8L274.8 495.4L252.1 494.2L229.4 493L206.7 491.6L184 490.5L161.2 489.5L138.5 488.5L115.8 487.5L93.1 486.6" fill="#ca2628" fill-opacity="0.7" class="World_4-area"></path><path stroke-linecap="round" d="M93.1 329.6L115.8 329.5L138.5 327.7L161.2 328.4L184 328.8L206.7 329.5L229.4 331.4L252.1 330.3L274.8 329.6L297.6 327.9L320.3 328.3L343 333.6L365.7 339.1L388.5 345.7L411.2 351.4L433.9 354.7L456.6 359.9L479.4 365.2L502.1 369L524.8 373.9L547.5 379.6L570.2 384.8L593 391L615.7 396.3L638.4 400.6L661.1 404.6L683.9 407.4L706.6 410.3L706.6 515.2L683.9 513.8L661.1 512.6L638.4 511.4L615.7 510.1L593 508.9L570.2 507.8L547.5 506.7L524.8 505.2L502.1 503.8L479.4 502.1L456.6 500.4L433.9 498.6L411.2 497L388.5 495.6L365.7 493.3L343 490.9L320.3 489.1L297.6 487.8L274.8 486.3L252.1 485L229.4 483.5L206.7 481.8L184 480.4L161.2 478.9L138.5 477.8L115.8 477L93.1 476.3" fill="#ffd53e" fill-opacity="0.7" class="World_2-area"></path><path stroke-linecap="round" d="M93.1 175.9L115.8 175.8L138.5 173L161.2 174.3L184 175.2L206.7 177.4L229.4 179.9L252.1 177.1L274.8 177.6L297.6 179.4L320.3 181.2L343 188.3L365.7 195.8L388.5 205.2L411.2 216.1L433.9 222.1L456.6 230.3L479.4 237.1L502.1 242.3L524.8 248.9L547.5 255.6L570.2 261.6L593 268.1L615.7 273.6L638.4 278L661.1 281.6L683.9 284.6L706.6 289L706.6 410.3L683.9 407.4L661.1 404.6L638.4 400.6L615.7 396.3L593 391L570.2 384.8L547.5 379.6L524.8 373.9L502.1 369L479.4 365.2L456.6 359.9L433.9 354.7L411.2 351.4L388.5 345.7L365.7 339.1L343 333.6L320.3 328.3L297.6 327.9L274.8 329.6L252.1 330.3L229.4 331.4L206.7 329.5L184 328.8L161.2 328.4L138.5 327.7L115.8 329.5L93.1 329.6" fill="#9ecc8a" fill-opacity="0.7" class="World_3-area"></path><path stroke-linecap="round" d="M93.1 81.4L115.8 80.4L138.5 76.6L161.2 77.6L184 78.2L206.7 80.5L229.4 83.2L252.1 78.2L274.8 77L297.6 78.6L320.3 79.3L343 86.2L365.7 93.9L388.5 104.4L411.2 118L433.9 124.7L456.6 134.4L479.4 142.7L502.1 148.6L524.8 155.8L547.5 163.3L570.2 170.2L593 178L615.7 184.3L638.4 189.3L661.1 193.3L683.9 196.4L706.6 201.1L706.6 289L683.9 284.6L661.1 281.6L638.4 278L615.7 273.6L593 268.1L570.2 261.6L547.5 255.6L524.8 248.9L502.1 242.3L479.4 237.1L456.6 230.3L433.9 222.1L411.2 216.1L388.5 205.2L365.7 195.8L343 188.3L320.3 181.2L297.6 179.4L274.8 177.6L252.1 177.1L229.4 179.9L206.7 177.4L184 175.2L161.2 174.3L138.5 173L115.8 175.8L93.1 175.9" fill="#34983f" fill-opacity="0.7" class="World_1-area"></path><path stroke-linecap="round" d="M93.1 486.6L115.8 487.5L138.5 488.5L161.2 489.5L184 490.5L206.7 491.6L229.4 493L252.1 494.2L274.8 495.4L297.6 496.8L320.3 498L343 499.5L365.7 501.1L388.5 502.8L411.2 504.3L433.9 505.8L456.6 507.1L479.4 508.4L502.1 509.8L524.8 511L547.5 512.4L570.2 513.3L593 514.1L615.7 515L638.4 516L661.1 516.9L683.9 517.9L706.6 519.1" stroke="rgb(43, 80, 141)" stroke-opacity="0.7" stroke-width="0.5" fill="none" class="World_0-border"></path><path stroke-linecap="round" d="M93.1 476.3L115.8 477L138.5 477.8L161.2 478.9L184 480.4L206.7 481.8L229.4 483.5L252.1 485L274.8 486.3L297.6 487.8L320.3 489.1L343 490.9L365.7 493.3L388.5 495.6L411.2 497L433.9 498.6L456.6 500.4L479.4 502.1L502.1 503.8L524.8 505.2L547.5 506.7L570.2 507.8L593 508.9L615.7 510.1L638.4 511.4L661.1 512.6L683.9 513.8L706.6 515.2" stroke="rgb(169, 32, 33)" stroke-opacity="0.7" stroke-width="0.5" fill="none" class="World_4-border"></path><path stroke-linecap="round" d="M93.1 329.6L115.8 329.5L138.5 327.7L161.2 328.4L184 328.8L206.7 329.5L229.4 331.4L252.1 330.3L274.8 329.6L297.6 327.9L320.3 328.3L343 333.6L365.7 339.1L388.5 345.7L411.2 351.4L433.9 354.7L456.6 359.9L479.4 365.2L502.1 369L524.8 373.9L547.5 379.6L570.2 384.8L593 391L615.7 396.3L638.4 400.6L661.1 404.6L683.9 407.4L706.6 410.3" stroke="rgb(213, 178, 52)" stroke-opacity="0.7" stroke-width="0.5" fill="none" class="World_2-border"></path><path stroke-linecap="round" d="M93.1 175.9L115.8 175.8L138.5 173L161.2 174.3L184 175.2L206.7 177.4L229.4 179.9L252.1 177.1L274.8 177.6L297.6 179.4L320.3 181.2L343 188.3L365.7 195.8L388.5 205.2L411.2 216.1L433.9 222.1L456.6 230.3L479.4 237.1L502.1 242.3L524.8 248.9L547.5 255.6L570.2 261.6L593 268.1L615.7 273.6L638.4 278L661.1 281.6L683.9 284.6L706.6 289" stroke="rgb(132, 171, 115)" stroke-opacity="0.7" stroke-width="0.5" fill="none" class="World_3-border"></path><path stroke-linecap="round" d="M93.1 81.4L115.8 80.4L138.5 76.6L161.2 77.6L184 78.2L206.7 80.5L229.4 83.2L252.1 78.2L274.8 77L297.6 78.6L320.3 79.3L343 86.2L365.7 93.9L388.5 104.4L411.2 118L433.9 124.7L456.6 134.4L479.4 142.7L502.1 148.6L524.8 155.8L547.5 163.3L570.2 170.2L593 178L615.7 184.3L638.4 189.3L661.1 193.3L683.9 196.4L706.6 201.1" stroke="rgb(44, 127, 53)" stroke-opacity="0.7" stroke-width="0.5" fill="none" class="World_1-border"></path></g></g></g><g style="fill: #777;" class="SourcesFooter"><g style="fill: #777;" class="clickable"><text font-size="12.60" x="15.0" y="581.6"><tspan x="15" y="581.58">Source: IHME, Global Burden of Disease (GBD)</tspan></text></g><text font-size="12.60" x="775.4" y="581.6"><tspan x="775.402" y="581.58"><a style="fill: #777;" class="cclogo" href="http://creativecommons.org/licenses/by-sa/4.0/deed.en_US" target="_blank">CC BY-SA</a></tspan></text></g></g></svg>