<svg xmlns="http://www.w3.org/2000/svg" version="1.1" style="font-family: 'Helvetica Neue', Helvetica, Arial, sans-serif; font-size: 18px; background-color: white; text-rendering: optimizeLegibility; -webkit-font-smoothing: antialiased;" width="850" height="600"><g class="ChartTab"><g class="HeaderView"><g opacity="0.8" transform="translate(778, 15) scale(0.27)"><a xmlns:xlink="http://www.w3.org/1999/xlink" xlink:href="https://ourworldindata.org" target="_blank"><g><rect x="0" y="0" fill="#1B2543" width="211.2" height="130.1"/><rect x="0" y="112.2" fill="#E63912" width="211.2" height="17.9"/><g><rect x="1.2" y="12.3" fill="none" width="210.2" height="99.2"/><path fill="#FFFFFF" d="M37.8,32.2c0,12.7-7.7,19.4-17.1,19.4c-9.7,0-16.6-7.5-16.6-18.7c0-11.7,7.3-19.3,17.1-19.3 C31.3,13.7,37.8,21.3,37.8,32.2z M9.2,32.8c0,7.9,4.3,14.9,11.8,14.9c7.5,0,11.8-6.9,11.8-15.3c0-7.3-3.8-14.9-11.8-14.9 C13.1,17.5,9.2,24.8,9.2,32.8z"/><path fill="#FFFFFF" d="M62.7,43.8c0,2.7,0.1,5.1,0.2,7.2h-4.3l-0.3-4.3h-0.1c-1.3,2.1-4,4.9-8.8,4.9c-4.2,0-9.1-2.3-9.1-11.6 V24.6h4.8v14.6c0,5,1.5,8.4,5.9,8.4c3.2,0,5.5-2.2,6.3-4.4c0.3-0.7,0.4-1.6,0.4-2.5V24.6h4.8V43.8z"/><path fill="#FFFFFF" d="M67.3,32.8c0-3.1-0.1-5.8-0.2-8.2h4.2l0.2,5.2h0.2c1.2-3.5,4.1-5.8,7.3-5.8c0.5,0,0.9,0.1,1.4,0.2v4.5 c-0.5-0.1-1-0.2-1.6-0.2c-3.4,0-5.8,2.6-6.5,6.2c-0.1,0.7-0.2,1.4-0.2,2.2V51h-4.8V32.8z"/><path fill="#FFFFFF" d="M95.4,51l-9.4-36.8h5l4.4,18.6c1.1,4.6,2.1,9.2,2.7,12.7h0.1c0.6-3.7,1.8-8,3-12.8l4.9-18.5h5l4.5,18.7 c1,4.4,2,8.7,2.6,12.6h0.1c0.8-4,1.8-8.1,3-12.7l4.9-18.5h4.9L120.6,51h-5L111,31.9c-1.1-4.7-1.9-8.3-2.4-12h-0.1 c-0.7,3.7-1.5,7.3-2.8,12L100.4,51H95.4z"/><path fill="#FFFFFF" d="M154.9,37.6c0,9.8-6.8,14-13.2,14c-7.2,0-12.7-5.2-12.7-13.6c0-8.8,5.8-14,13.1-14 C149.8,24,154.9,29.5,154.9,37.6z M133.9,37.9c0,5.8,3.3,10.1,8,10.1c4.6,0,8-4.3,8-10.3c0-4.5-2.2-10.1-7.9-10.1 C136.3,27.6,133.9,32.8,133.9,37.9z"/><path fill="#FFFFFF" d="M158.2,32.8c0-3.1-0.1-5.8-0.2-8.2h4.2l0.2,5.2h0.2c1.2-3.5,4.1-5.8,7.3-5.8c0.5,0,0.9,0.1,1.4,0.2v4.5 c-0.5-0.1-1-0.2-1.6-0.2c-3.4,0-5.8,2.6-6.5,6.2c-0.1,0.7-0.2,1.4-0.2,2.2V51h-4.8V32.8z"/><path fill="#FFFFFF" d="M173.5,12.3h4.8V51h-4.8V12.3z"/><path fill="#FFFFFF" d="M206.5,12.3v31.9c0,2.3,0.1,5,0.2,6.8h-4.3l-0.2-4.6H202c-1.5,2.9-4.7,5.2-9,5.2 c-6.4,0-11.3-5.4-11.3-13.4c-0.1-8.8,5.4-14.2,11.9-14.2c4,0,6.8,1.9,8,4h0.1V12.3H206.5z M201.7,35.4c0-0.6-0.1-1.4-0.2-2 c-0.7-3.1-3.3-5.6-6.9-5.6c-5,0-7.9,4.4-7.9,10.2c0,5.3,2.6,9.8,7.8,9.8c3.2,0,6.2-2.1,7.1-5.7c0.2-0.7,0.2-1.3,0.2-2.1V35.4z"/><path fill="#FFFFFF" d="M42.8,64c0.1,1.6-1.1,2.9-3.1,2.9c-1.7,0-2.9-1.3-2.9-2.9c0-1.7,1.3-3,3-3C41.7,61,42.8,62.3,42.8,64z M37.4,97.8V71.4h4.8v26.4H37.4z"/><path fill="#FFFFFF" d="M47.5,78.6c0-2.7-0.1-5-0.2-7.1h4.3l0.3,4.4h0.1c1.3-2.5,4.4-5,8.8-5c3.7,0,9.4,2.2,9.4,11.2v15.8h-4.8 V82.6c0-4.3-1.6-7.8-6.1-7.8c-3.2,0-5.6,2.2-6.5,4.9c-0.2,0.6-0.3,1.4-0.3,2.2v15.9h-4.8V78.6z"/><path fill="#FFFFFF" d="M84,61.6c2.9-0.4,6.3-0.8,10.1-0.8c6.8,0,11.7,1.6,14.9,4.6c3.3,3,5.2,7.3,5.2,13.2c0,6-1.9,10.9-5.3,14.3 c-3.4,3.4-9.1,5.3-16.3,5.3c-3.4,0-6.2-0.2-8.6-0.4V61.6z M88.8,94.1c1.2,0.2,3,0.3,4.8,0.3c10.2,0,15.7-5.7,15.7-15.6 c0.1-8.7-4.9-14.2-14.9-14.2c-2.5,0-4.3,0.2-5.6,0.5V94.1z"/><path fill="#FFFFFF" d="M132.1,97.8l-0.4-3.3h-0.2c-1.5,2.1-4.3,3.9-8.1,3.9c-5.4,0-8.1-3.8-8.1-7.6c0-6.4,5.7-9.9,15.9-9.8v-0.5 c0-2.2-0.6-6.1-6-6.1c-2.5,0-5,0.8-6.9,2l-1.1-3.2c2.2-1.4,5.4-2.3,8.7-2.3c8.1,0,10.1,5.5,10.1,10.8v9.9c0,2.3,0.1,4.5,0.4,6.3 H132.1z M131.4,84.4c-5.3-0.1-11.2,0.8-11.2,5.9c0,3.1,2.1,4.6,4.5,4.6c3.4,0,5.6-2.2,6.4-4.4c0.2-0.5,0.3-1,0.3-1.5V84.4z"/><path fill="#FFFFFF" d="M146.6,63.9v7.6h6.9v3.7h-6.9v14.2c0,3.3,0.9,5.1,3.6,5.1c1.3,0,2.2-0.2,2.8-0.3l0.2,3.6 c-0.9,0.4-2.4,0.7-4.3,0.7c-2.2,0-4-0.7-5.2-2c-1.4-1.4-1.9-3.8-1.9-6.9V75.1h-4.1v-3.7h4.1v-6.3L146.6,63.9z"/><path fill="#FFFFFF" d="M171.4,97.8l-0.4-3.3h-0.2c-1.5,2.1-4.3,3.9-8.1,3.9c-5.4,0-8.1-3.8-8.1-7.6c0-6.4,5.7-9.9,15.9-9.8v-0.5 c0-2.2-0.6-6.1-6-6.1c-2.5,0-5,0.8-6.9,2l-1.1-3.2c2.2-1.4,5.4-2.3,8.7-2.3c8.1,0,10.1,5.5,10.1,10.8v9.9c0,2.3,0.1,4.5,0.4,6.3 H171.4z M170.7,84.4c-5.3-0.1-11.2,0.8-11.2,5.9c0,3.1,2.1,4.6,4.5,4.6c3.4,0,5.6-2.2,6.4-4.4c0.2-0.5,0.3-1,0.3-1.5V84.4z"/></g></g></a></g><a href="https://ourworldindata.org/grapher/who-vs-gbd-incidence-of-tetanus" target="_blank"><text font-size="25.20" x="15.0" y="35.2" fill="#555"><tspan x="15" y="35.160000000000004">WHO vs. GBD incidence of tetanus</tspan></text></a><text font-size="14.40" x="15.0" y="53.7" fill="#666"><tspan x="15" y="53.72">The WHO reports the number of confirmed cases, while the IHME (GBD project) corrects for unreported cases in their</tspan><tspan x="15" y="69.56">estimates.</tspan></text></g><g class="LineChart"><defs><clipPath id="boundsClip-965"><rect x="115.94800000000001" y="0" width="830" height="928.8"></rect></clipPath></defs><g class="AxisBoxView"><g class="HorizontalAxis"><text x="125.9" y="556.5" fill="#666" text-anchor="middle" font-size="16.2">1980</text><text x="187" y="556.5" fill="#666" text-anchor="middle" font-size="16.2">1985</text><text x="248.1" y="556.5" fill="#666" text-anchor="middle" font-size="16.2">1990</text><text x="309.2" y="556.5" fill="#666" text-anchor="middle" font-size="16.2">1995</text><text x="370.3" y="556.5" fill="#666" text-anchor="middle" font-size="16.2">2000</text><text x="431.4" y="556.5" fill="#666" text-anchor="middle" font-size="16.2">2005</text><text x="492.5" y="556.5" fill="#666" text-anchor="middle" font-size="16.2">2010</text><text x="578.1" y="556.5" fill="#666" text-anchor="middle" font-size="16.2">2017</text></g><g class="VerticalAxis"><text x="120.95" y="535.3" fill="#666" dominant-baseline="middle" text-anchor="end" font-size="16.2">0 cases</text><text x="120.95" y="471" fill="#666" dominant-baseline="middle" text-anchor="end" font-size="16.2">100,000 cases</text><text x="120.95" y="406.8" fill="#666" dominant-baseline="middle" text-anchor="end" font-size="16.2">200,000 cases</text><text x="120.95" y="342.5" fill="#666" dominant-baseline="middle" text-anchor="end" font-size="16.2">300,000 cases</text><text x="120.95" y="278.3" fill="#666" dominant-baseline="middle" text-anchor="end" font-size="16.2">400,000 cases</text><text x="120.95" y="214" fill="#666" dominant-baseline="middle" text-anchor="end" font-size="16.2">500,000 cases</text><text x="120.95" y="149.7" fill="#666" dominant-baseline="middle" text-anchor="end" font-size="16.2">600,000 cases</text></g><g class="AxisGridLines"><line x1="125.95" y1="535.3" x2="578.06" y2="535.3" stroke="#ccc"></line><line x1="125.95" y1="471" x2="578.06" y2="471" stroke="#ddd" stroke-dasharray="3,2"></line><line x1="125.95" y1="406.8" x2="578.06" y2="406.8" stroke="#ddd" stroke-dasharray="3,2"></line><line x1="125.95" y1="342.5" x2="578.06" y2="342.5" stroke="#ddd" stroke-dasharray="3,2"></line><line x1="125.95" y1="278.3" x2="578.06" y2="278.3" stroke="#ddd" stroke-dasharray="3,2"></line><line x1="125.95" y1="214" x2="578.06" y2="214" stroke="#ddd" stroke-dasharray="3,2"></line><line x1="125.95" y1="149.7" x2="578.06" y2="149.7" stroke="#ddd" stroke-dasharray="3,2"></line></g></g><g clip-path="url(#boundsClip-965)"><g class="HeightedLegend clickable"><g class="legendMark"><rect x="578.06" y="470.34999999999997" width="249.51500000000001" height="28.1" fill="#fff" opacity="0"></rect><text font-size="13.50" x="583.1" y="481.1" fill="#ca2628"><tspan x="583.06" y="481.15">World - Incidence of Tetanus (GBD,</tspan><tspan x="583.06" y="496">2016)</tspan></text></g><g class="legendMark"><rect x="578.06" y="514.6500000000001" width="256.94000000000005" height="28.1" fill="#fff" opacity="0"></rect><text font-size="13.50" x="583.1" y="525.5" fill="#3360a9"><tspan x="583.06" y="525.45">World - Number of confirmed tetanus</tspan><tspan x="583.06" y="540.3000000000001">cases (WHO 2017)</tspan></text></g></g><g class="Lines"><rect x="126" y="92" width="452" height="443" fill="rgba(255,255,255,0)" opacity="0"></rect><g class="key-World_0"><path stroke="#3360a9" stroke-linecap="round" d="M126 462L138 467L150 461L163 471L175 478L187 468L199 480L212 486L224 488L236 485L248 494L260 506L273 510L285 508L297 504L309 527L322 527L334 520L346 522L358 525L370 520L383 522L395 515L407 526L419 526L431 525L444 526L456 522L468 525L480 528L493 528L505 527L517 529L529 527L541 527L554 529" fill="none" stroke-width="1.5"></path><g fill="#3360a9"><circle cx="126" cy="462" r="2"></circle><circle cx="138" cy="467" r="2"></circle><circle cx="150" cy="461" r="2"></circle><circle cx="163" cy="471" r="2"></circle><circle cx="175" cy="478" r="2"></circle><circle cx="187" cy="468" r="2"></circle><circle cx="199" cy="480" r="2"></circle><circle cx="212" cy="486" r="2"></circle><circle cx="224" cy="488" r="2"></circle><circle cx="236" cy="485" r="2"></circle><circle cx="248" cy="494" r="2"></circle><circle cx="260" cy="506" r="2"></circle><circle cx="273" cy="510" r="2"></circle><circle cx="285" cy="508" r="2"></circle><circle cx="297" cy="504" r="2"></circle><circle cx="309" cy="527" r="2"></circle><circle cx="322" cy="527" r="2"></circle><circle cx="334" cy="520" r="2"></circle><circle cx="346" cy="522" r="2"></circle><circle cx="358" cy="525" r="2"></circle><circle cx="370" cy="520" r="2"></circle><circle cx="383" cy="522" r="2"></circle><circle cx="395" cy="515" r="2"></circle><circle cx="407" cy="526" r="2"></circle><circle cx="419" cy="526" r="2"></circle><circle cx="431" cy="525" r="2"></circle><circle cx="444" cy="526" r="2"></circle><circle cx="456" cy="522" r="2"></circle><circle cx="468" cy="525" r="2"></circle><circle cx="480" cy="528" r="2"></circle><circle cx="493" cy="528" r="2"></circle><circle cx="505" cy="527" r="2"></circle><circle cx="517" cy="529" r="2"></circle><circle cx="529" cy="527" r="2"></circle><circle cx="541" cy="527" r="2"></circle><circle cx="554" cy="529" r="2"></circle></g></g><g class="key-World_1"><path stroke="#ca2628" stroke-linecap="round" d="M248 92L260 119L273 144L285 168L297 193L309 213L322 234L334 254L346 273L358 291L370 307L383 323L395 341L407 359L419 376L431 390L444 403L456 416L468 429L480 441L493 449L505 455L517 461L529 467L541 473L554 478L566 482L578 484" fill="none" stroke-width="1.5"></path><g fill="#ca2628"><circle cx="248" cy="92" r="2"></circle><circle cx="260" cy="119" r="2"></circle><circle cx="273" cy="144" r="2"></circle><circle cx="285" cy="168" r="2"></circle><circle cx="297" cy="193" r="2"></circle><circle cx="309" cy="213" r="2"></circle><circle cx="322" cy="234" r="2"></circle><circle cx="334" cy="254" r="2"></circle><circle cx="346" cy="273" r="2"></circle><circle cx="358" cy="291" r="2"></circle><circle cx="370" cy="307" r="2"></circle><circle cx="383" cy="323" r="2"></circle><circle cx="395" cy="341" r="2"></circle><circle cx="407" cy="359" r="2"></circle><circle cx="419" cy="376" r="2"></circle><circle cx="431" cy="390" r="2"></circle><circle cx="444" cy="403" r="2"></circle><circle cx="456" cy="416" r="2"></circle><circle cx="468" cy="429" r="2"></circle><circle cx="480" cy="441" r="2"></circle><circle cx="493" cy="449" r="2"></circle><circle cx="505" cy="455" r="2"></circle><circle cx="517" cy="461" r="2"></circle><circle cx="529" cy="467" r="2"></circle><circle cx="541" cy="473" r="2"></circle><circle cx="554" cy="478" r="2"></circle><circle cx="566" cy="482" r="2"></circle><circle cx="578" cy="484" r="2"></circle></g></g></g></g></g><g style="fill: #777;" class="SourcesFooter"><g style="fill: #777;" class="clickable"><text font-size="12.60" x="15.0" y="581.6"><tspan x="15" y="581.58">Source: Global Health Observatory Data Repository (2017), Tetanus</tspan></text></g><text font-size="12.60" x="775.4" y="581.6"><tspan x="775.402" y="581.58"><a style="fill: #777;" class="cclogo" href="http://creativecommons.org/licenses/by-sa/4.0/deed.en_US" target="_blank">CC BY-SA</a></tspan></text></g></g></svg>