<svg xmlns="http://www.w3.org/2000/svg" version="1.1" style="font-family: 'Helvetica Neue', Helvetica, Arial, sans-serif; font-size: 18px; background-color: white; text-rendering: optimizeLegibility; -webkit-font-smoothing: antialiased;" width="850" height="600"><g class="ChartTab"><g class="HeaderView"><g opacity="0.8" transform="translate(778, 15) scale(0.27)"><a xmlns:xlink="http://www.w3.org/1999/xlink" xlink:href="https://ourworldindata.org" target="_blank"><g><rect x="0" y="0" fill="#1B2543" width="211.2" height="130.1"/><rect x="0" y="112.2" fill="#E63912" width="211.2" height="17.9"/><g><rect x="1.2" y="12.3" fill="none" width="210.2" height="99.2"/><path fill="#FFFFFF" d="M37.8,32.2c0,12.7-7.7,19.4-17.1,19.4c-9.7,0-16.6-7.5-16.6-18.7c0-11.7,7.3-19.3,17.1-19.3 C31.3,13.7,37.8,21.3,37.8,32.2z M9.2,32.8c0,7.9,4.3,14.9,11.8,14.9c7.5,0,11.8-6.9,11.8-15.3c0-7.3-3.8-14.9-11.8-14.9 C13.1,17.5,9.2,24.8,9.2,32.8z"/><path fill="#FFFFFF" d="M62.7,43.8c0,2.7,0.1,5.1,0.2,7.2h-4.3l-0.3-4.3h-0.1c-1.3,2.1-4,4.9-8.8,4.9c-4.2,0-9.1-2.3-9.1-11.6 V24.6h4.8v14.6c0,5,1.5,8.4,5.9,8.4c3.2,0,5.5-2.2,6.3-4.4c0.3-0.7,0.4-1.6,0.4-2.5V24.6h4.8V43.8z"/><path fill="#FFFFFF" d="M67.3,32.8c0-3.1-0.1-5.8-0.2-8.2h4.2l0.2,5.2h0.2c1.2-3.5,4.1-5.8,7.3-5.8c0.5,0,0.9,0.1,1.4,0.2v4.5 c-0.5-0.1-1-0.2-1.6-0.2c-3.4,0-5.8,2.6-6.5,6.2c-0.1,0.7-0.2,1.4-0.2,2.2V51h-4.8V32.8z"/><path fill="#FFFFFF" d="M95.4,51l-9.4-36.8h5l4.4,18.6c1.1,4.6,2.1,9.2,2.7,12.7h0.1c0.6-3.7,1.8-8,3-12.8l4.9-18.5h5l4.5,18.7 c1,4.4,2,8.7,2.6,12.6h0.1c0.8-4,1.8-8.1,3-12.7l4.9-18.5h4.9L120.6,51h-5L111,31.9c-1.1-4.7-1.9-8.3-2.4-12h-0.1 c-0.7,3.7-1.5,7.3-2.8,12L100.4,51H95.4z"/><path fill="#FFFFFF" d="M154.9,37.6c0,9.8-6.8,14-13.2,14c-7.2,0-12.7-5.2-12.7-13.6c0-8.8,5.8-14,13.1-14 C149.8,24,154.9,29.5,154.9,37.6z M133.9,37.9c0,5.8,3.3,10.1,8,10.1c4.6,0,8-4.3,8-10.3c0-4.5-2.2-10.1-7.9-10.1 C136.3,27.6,133.9,32.8,133.9,37.9z"/><path fill="#FFFFFF" d="M158.2,32.8c0-3.1-0.1-5.8-0.2-8.2h4.2l0.2,5.2h0.2c1.2-3.5,4.1-5.8,7.3-5.8c0.5,0,0.9,0.1,1.4,0.2v4.5 c-0.5-0.1-1-0.2-1.6-0.2c-3.4,0-5.8,2.6-6.5,6.2c-0.1,0.7-0.2,1.4-0.2,2.2V51h-4.8V32.8z"/><path fill="#FFFFFF" d="M173.5,12.3h4.8V51h-4.8V12.3z"/><path fill="#FFFFFF" d="M206.5,12.3v31.9c0,2.3,0.1,5,0.2,6.8h-4.3l-0.2-4.6H202c-1.5,2.9-4.7,5.2-9,5.2 c-6.4,0-11.3-5.4-11.3-13.4c-0.1-8.8,5.4-14.2,11.9-14.2c4,0,6.8,1.9,8,4h0.1V12.3H206.5z M201.7,35.4c0-0.6-0.1-1.4-0.2-2 c-0.7-3.1-3.3-5.6-6.9-5.6c-5,0-7.9,4.4-7.9,10.2c0,5.3,2.6,9.8,7.8,9.8c3.2,0,6.2-2.1,7.1-5.7c0.2-0.7,0.2-1.3,0.2-2.1V35.4z"/><path fill="#FFFFFF" d="M42.8,64c0.1,1.6-1.1,2.9-3.1,2.9c-1.7,0-2.9-1.3-2.9-2.9c0-1.7,1.3-3,3-3C41.7,61,42.8,62.3,42.8,64z M37.4,97.8V71.4h4.8v26.4H37.4z"/><path fill="#FFFFFF" d="M47.5,78.6c0-2.7-0.1-5-0.2-7.1h4.3l0.3,4.4h0.1c1.3-2.5,4.4-5,8.8-5c3.7,0,9.4,2.2,9.4,11.2v15.8h-4.8 V82.6c0-4.3-1.6-7.8-6.1-7.8c-3.2,0-5.6,2.2-6.5,4.9c-0.2,0.6-0.3,1.4-0.3,2.2v15.9h-4.8V78.6z"/><path fill="#FFFFFF" d="M84,61.6c2.9-0.4,6.3-0.8,10.1-0.8c6.8,0,11.7,1.6,14.9,4.6c3.3,3,5.2,7.3,5.2,13.2c0,6-1.9,10.9-5.3,14.3 c-3.4,3.4-9.1,5.3-16.3,5.3c-3.4,0-6.2-0.2-8.6-0.4V61.6z M88.8,94.1c1.2,0.2,3,0.3,4.8,0.3c10.2,0,15.7-5.7,15.7-15.6 c0.1-8.7-4.9-14.2-14.9-14.2c-2.5,0-4.3,0.2-5.6,0.5V94.1z"/><path fill="#FFFFFF" d="M132.1,97.8l-0.4-3.3h-0.2c-1.5,2.1-4.3,3.9-8.1,3.9c-5.4,0-8.1-3.8-8.1-7.6c0-6.4,5.7-9.9,15.9-9.8v-0.5 c0-2.2-0.6-6.1-6-6.1c-2.5,0-5,0.8-6.9,2l-1.1-3.2c2.2-1.4,5.4-2.3,8.7-2.3c8.1,0,10.1,5.5,10.1,10.8v9.9c0,2.3,0.1,4.5,0.4,6.3 H132.1z M131.4,84.4c-5.3-0.1-11.2,0.8-11.2,5.9c0,3.1,2.1,4.6,4.5,4.6c3.4,0,5.6-2.2,6.4-4.4c0.2-0.5,0.3-1,0.3-1.5V84.4z"/><path fill="#FFFFFF" d="M146.6,63.9v7.6h6.9v3.7h-6.9v14.2c0,3.3,0.9,5.1,3.6,5.1c1.3,0,2.2-0.2,2.8-0.3l0.2,3.6 c-0.9,0.4-2.4,0.7-4.3,0.7c-2.2,0-4-0.7-5.2-2c-1.4-1.4-1.9-3.8-1.9-6.9V75.1h-4.1v-3.7h4.1v-6.3L146.6,63.9z"/><path fill="#FFFFFF" d="M171.4,97.8l-0.4-3.3h-0.2c-1.5,2.1-4.3,3.9-8.1,3.9c-5.4,0-8.1-3.8-8.1-7.6c0-6.4,5.7-9.9,15.9-9.8v-0.5 c0-2.2-0.6-6.1-6-6.1c-2.5,0-5,0.8-6.9,2l-1.1-3.2c2.2-1.4,5.4-2.3,8.7-2.3c8.1,0,10.1,5.5,10.1,10.8v9.9c0,2.3,0.1,4.5,0.4,6.3 H171.4z M170.7,84.4c-5.3-0.1-11.2,0.8-11.2,5.9c0,3.1,2.1,4.6,4.5,4.6c3.4,0,5.6-2.2,6.4-4.4c0.2-0.5,0.3-1,0.3-1.5V84.4z"/></g></g></a></g><a href="https://ourworldindata.org/grapher/wind-energy-consumption-terawatt-hours-twh" target="_blank"><text font-size="25.20" x="15.0" y="35.2" fill="#555"><tspan x="15" y="35.160000000000004">Wind energy consumption, terawatt-hours (TWh)</tspan></text></a><text font-size="14.40" x="15.0" y="53.7" fill="#666"><tspan x="15" y="53.72">Annual wind energy consumption by country or region, measured in terawatt-hours (TWh) per year. Data includes</tspan><tspan x="15" y="69.56">both onshore and offshore wind sources.</tspan></text></g><g class="LineChart"><defs><clipPath id="boundsClip-959"><rect x="75.934" y="0" width="830" height="928.8"></rect></clipPath></defs><g class="AxisBoxView"><g class="HorizontalAxis"><text x="85.9" y="556.5" fill="#666" text-anchor="middle" font-size="16.2">1965</text><text x="146.5" y="556.5" fill="#666" text-anchor="middle" font-size="16.2">1970</text><text x="267.6" y="556.5" fill="#666" text-anchor="middle" font-size="16.2">1980</text><text x="388.7" y="556.5" fill="#666" text-anchor="middle" font-size="16.2">1990</text><text x="509.8" y="556.5" fill="#666" text-anchor="middle" font-size="16.2">2000</text><text x="630.9" y="556.5" fill="#666" text-anchor="middle" font-size="16.2">2010</text><text x="703.6" y="556.5" fill="#666" text-anchor="middle" font-size="16.2">2016</text></g><g class="VerticalAxis"><text x="80.93" y="535.3" fill="#666" dominant-baseline="middle" text-anchor="end" font-size="16.2">0 TWh</text><text x="80.93" y="443.3" fill="#666" dominant-baseline="middle" text-anchor="end" font-size="16.2">50 TWh</text><text x="80.93" y="351.4" fill="#666" dominant-baseline="middle" text-anchor="end" font-size="16.2">100 TWh</text><text x="80.93" y="259.4" fill="#666" dominant-baseline="middle" text-anchor="end" font-size="16.2">150 TWh</text><text x="80.93" y="167.5" fill="#666" dominant-baseline="middle" text-anchor="end" font-size="16.2">200 TWh</text></g><g class="AxisGridLines"><line x1="85.93" y1="535.3" x2="703.61" y2="535.3" stroke="#ccc"></line><line x1="85.93" y1="443.3" x2="703.61" y2="443.3" stroke="#ddd" stroke-dasharray="3,2"></line><line x1="85.93" y1="351.4" x2="703.61" y2="351.4" stroke="#ddd" stroke-dasharray="3,2"></line><line x1="85.93" y1="259.4" x2="703.61" y2="259.4" stroke="#ddd" stroke-dasharray="3,2"></line><line x1="85.93" y1="167.5" x2="703.61" y2="167.5" stroke="#ddd" stroke-dasharray="3,2"></line></g></g><g clip-path="url(#boundsClip-959)"><g class="HeightedLegend clickable"><g class="legendMark"><g class="indicator"><line x1="708.61" y1="92.1" x2="721.11" y2="92.1" stroke="#666" stroke-width="0.5"></line><line x1="721.11" y1="92.1" x2="721.11" y2="92.1" stroke="#666" stroke-width="0.5"></line><line x1="721.11" y1="92.1" x2="733.61" y2="92.1" stroke="#666" stroke-width="0.5"></line></g><rect x="703.61" y="85.35" width="70.37" height="13.5" fill="#fff" opacity="0"></rect><text font-size="13.50" x="738.6" y="96.1" fill="#e6332e"><tspan x="738.61" y="96.14999999999999">China</tspan></text></g><g class="legendMark"><g class="indicator"><line x1="708.61" y1="114.6" x2="721.11" y2="114.6" stroke="#666" stroke-width="0.5"></line><line x1="721.11" y1="114.6" x2="721.11" y2="114.6" stroke="#666" stroke-width="0.5"></line><line x1="721.11" y1="114.6" x2="733.61" y2="114.6" stroke="#666" stroke-width="0.5"></line></g><rect x="703.61" y="107.85" width="116.405" height="13.5" fill="#fff" opacity="0"></rect><text font-size="13.50" x="738.6" y="118.6" fill="#2a939b"><tspan x="738.61" y="118.64999999999999">United States</tspan></text></g><g class="legendMark"><g class="indicator"><line x1="708.61" y1="452.9" x2="731.11" y2="452.9" stroke="#666" stroke-width="0.5"></line><line x1="731.11" y1="452.9" x2="731.11" y2="452.9" stroke="#666" stroke-width="0.5"></line><line x1="731.11" y1="452.9" x2="733.61" y2="452.9" stroke="#666" stroke-width="0.5"></line></g><rect x="703.61" y="446.15" width="64.43" height="13.5" fill="#fff" opacity="0"></rect><text font-size="13.50" x="738.6" y="456.9" fill="#a652ba"><tspan x="738.61" y="456.95">India</tspan></text></g><g class="legendMark"><g class="indicator"><line x1="708.61" y1="466.3" x2="726.11" y2="466.3" stroke="#666" stroke-width="0.5"></line><line x1="726.11" y1="466.3" x2="726.11" y2="468.4" stroke="#666" stroke-width="0.5"></line><line x1="726.11" y1="468.4" x2="733.61" y2="468.4" stroke="#666" stroke-width="0.5"></line></g><rect x="703.61" y="461.65" width="131.39" height="13.5" fill="#fff" opacity="0"></rect><text font-size="13.50" x="738.6" y="472.4" fill="#f6a324"><tspan x="738.61" y="472.45">United Kingdom</tspan></text></g><g class="legendMark"><g class="indicator"><line x1="708.61" y1="474.8" x2="721.11" y2="474.8" stroke="#666" stroke-width="0.5"></line><line x1="721.11" y1="474.8" x2="721.11" y2="483.9" stroke="#666" stroke-width="0.5"></line><line x1="721.11" y1="483.9" x2="733.61" y2="483.9" stroke="#666" stroke-width="0.5"></line></g><rect x="703.61" y="477.15" width="68.75" height="13.5" fill="#fff" opacity="0"></rect><text font-size="13.50" x="738.6" y="487.9" fill="#34983f"><tspan x="738.61" y="487.95">Brazil</tspan></text></g><g class="legendMark"><g class="indicator"><line x1="708.61" y1="485.2" x2="716.11" y2="485.2" stroke="#666" stroke-width="0.5"></line><line x1="716.11" y1="485.2" x2="716.11" y2="499.4" stroke="#666" stroke-width="0.5"></line><line x1="716.11" y1="499.4" x2="733.61" y2="499.4" stroke="#666" stroke-width="0.5"></line></g><rect x="703.61" y="492.65" width="82.52000000000001" height="13.5" fill="#fff" opacity="0"></rect><text font-size="13.50" x="738.6" y="503.4" fill="#ca2628"><tspan x="738.61" y="503.45">Canada</tspan></text></g><g class="legendMark"><g class="indicator"><line x1="708.61" y1="534.3" x2="721.11" y2="534.3" stroke="#666" stroke-width="0.5"></line><line x1="721.11" y1="534.3" x2="721.11" y2="534.3" stroke="#666" stroke-width="0.5"></line><line x1="721.11" y1="534.3" x2="733.61" y2="534.3" stroke="#666" stroke-width="0.5"></line></g><rect x="703.61" y="527.55" width="93.05000000000001" height="13.5" fill="#fff" opacity="0"></rect><text font-size="13.50" x="738.6" y="538.3" fill="#3360a9"><tspan x="738.61" y="538.3499999999999">Argentina</tspan></text></g></g><g class="Lines"><rect x="86" y="92" width="618" height="443" fill="rgba(255,255,255,0)" opacity="0"></rect><g class="key-Brazil_0"><path stroke="#34983f" stroke-linecap="round" d="M86 535L98 535L110 535L122 535L134 535L147 535L159 535L171 535L183 535L195 535L207 535L219 535L231 535L243 535L256 535L268 535L280 535L292 535L304 535L316 535L328 535L340 535L352 535L365 535L377 535L389 535L401 535L413 535L425 535L437 535L449 535L461 535L474 535L486 535L498 535L510 535L522 535L534 535L546 535L558 535L570 535L583 535L595 534L607 533L619 533L631 531L643 530L655 526L667 523L679 513L692 496L704 475" fill="none" stroke-width="1.5"></path><g fill="#34983f"><circle cx="86" cy="535" r="2"></circle><circle cx="98" cy="535" r="2"></circle><circle cx="110" cy="535" r="2"></circle><circle cx="122" cy="535" r="2"></circle><circle cx="134" cy="535" r="2"></circle><circle cx="147" cy="535" r="2"></circle><circle cx="159" cy="535" r="2"></circle><circle cx="171" cy="535" r="2"></circle><circle cx="183" cy="535" r="2"></circle><circle cx="195" cy="535" r="2"></circle><circle cx="207" cy="535" r="2"></circle><circle cx="219" cy="535" r="2"></circle><circle cx="231" cy="535" r="2"></circle><circle cx="243" cy="535" r="2"></circle><circle cx="256" cy="535" r="2"></circle><circle cx="268" cy="535" r="2"></circle><circle cx="280" cy="535" r="2"></circle><circle cx="292" cy="535" r="2"></circle><circle cx="304" cy="535" r="2"></circle><circle cx="316" cy="535" r="2"></circle><circle cx="328" cy="535" r="2"></circle><circle cx="340" cy="535" r="2"></circle><circle cx="352" cy="535" r="2"></circle><circle cx="365" cy="535" r="2"></circle><circle cx="377" cy="535" r="2"></circle><circle cx="389" cy="535" r="2"></circle><circle cx="401" cy="535" r="2"></circle><circle cx="413" cy="535" r="2"></circle><circle cx="425" cy="535" r="2"></circle><circle cx="437" cy="535" r="2"></circle><circle cx="449" cy="535" r="2"></circle><circle cx="461" cy="535" r="2"></circle><circle cx="474" cy="535" r="2"></circle><circle cx="486" cy="535" r="2"></circle><circle cx="498" cy="535" r="2"></circle><circle cx="510" cy="535" r="2"></circle><circle cx="522" cy="535" r="2"></circle><circle cx="534" cy="535" r="2"></circle><circle cx="546" cy="535" r="2"></circle><circle cx="558" cy="535" r="2"></circle><circle cx="570" cy="535" r="2"></circle><circle cx="583" cy="535" r="2"></circle><circle cx="595" cy="534" r="2"></circle><circle cx="607" cy="533" r="2"></circle><circle cx="619" cy="533" r="2"></circle><circle cx="631" cy="531" r="2"></circle><circle cx="643" cy="530" r="2"></circle><circle cx="655" cy="526" r="2"></circle><circle cx="667" cy="523" r="2"></circle><circle cx="679" cy="513" r="2"></circle><circle cx="692" cy="496" r="2"></circle><circle cx="704" cy="475" r="2"></circle></g></g><g class="key-Argentina_0"><path stroke="#3360a9" stroke-linecap="round" d="M86 535L98 535L110 535L122 535L134 535L147 535L159 535L171 535L183 535L195 535L207 535L219 535L231 535L243 535L256 535L268 535L280 535L292 535L304 535L316 535L328 535L340 535L352 535L365 535L377 535L389 535L401 535L413 535L425 535L437 535L449 535L461 535L474 535L486 535L498 535L510 535L522 535L534 535L546 535L558 535L570 535L583 535L595 535L607 535L619 535L631 535L643 535L655 535L667 535L679 534L692 534L704 534" fill="none" stroke-width="1.5"></path><g fill="#3360a9"><circle cx="86" cy="535" r="2"></circle><circle cx="98" cy="535" r="2"></circle><circle cx="110" cy="535" r="2"></circle><circle cx="122" cy="535" r="2"></circle><circle cx="134" cy="535" r="2"></circle><circle cx="147" cy="535" r="2"></circle><circle cx="159" cy="535" r="2"></circle><circle cx="171" cy="535" r="2"></circle><circle cx="183" cy="535" r="2"></circle><circle cx="195" cy="535" r="2"></circle><circle cx="207" cy="535" r="2"></circle><circle cx="219" cy="535" r="2"></circle><circle cx="231" cy="535" r="2"></circle><circle cx="243" cy="535" r="2"></circle><circle cx="256" cy="535" r="2"></circle><circle cx="268" cy="535" r="2"></circle><circle cx="280" cy="535" r="2"></circle><circle cx="292" cy="535" r="2"></circle><circle cx="304" cy="535" r="2"></circle><circle cx="316" cy="535" r="2"></circle><circle cx="328" cy="535" r="2"></circle><circle cx="340" cy="535" r="2"></circle><circle cx="352" cy="535" r="2"></circle><circle cx="365" cy="535" r="2"></circle><circle cx="377" cy="535" r="2"></circle><circle cx="389" cy="535" r="2"></circle><circle cx="401" cy="535" r="2"></circle><circle cx="413" cy="535" r="2"></circle><circle cx="425" cy="535" r="2"></circle><circle cx="437" cy="535" r="2"></circle><circle cx="449" cy="535" r="2"></circle><circle cx="461" cy="535" r="2"></circle><circle cx="474" cy="535" r="2"></circle><circle cx="486" cy="535" r="2"></circle><circle cx="498" cy="535" r="2"></circle><circle cx="510" cy="535" r="2"></circle><circle cx="522" cy="535" r="2"></circle><circle cx="534" cy="535" r="2"></circle><circle cx="546" cy="535" r="2"></circle><circle cx="558" cy="535" r="2"></circle><circle cx="570" cy="535" r="2"></circle><circle cx="583" cy="535" r="2"></circle><circle cx="595" cy="535" r="2"></circle><circle cx="607" cy="535" r="2"></circle><circle cx="619" cy="535" r="2"></circle><circle cx="631" cy="535" r="2"></circle><circle cx="643" cy="535" r="2"></circle><circle cx="655" cy="535" r="2"></circle><circle cx="667" cy="535" r="2"></circle><circle cx="679" cy="534" r="2"></circle><circle cx="692" cy="534" r="2"></circle><circle cx="704" cy="534" r="2"></circle></g></g><g class="key-Canada_0"><path stroke="#ca2628" stroke-linecap="round" d="M86 535L98 535L110 535L122 535L134 535L147 535L159 535L171 535L183 535L195 535L207 535L219 535L231 535L243 535L256 535L268 535L280 535L292 535L304 535L316 535L328 535L340 535L352 535L365 535L377 535L389 535L401 535L413 535L425 535L437 535L449 535L461 535L474 535L486 535L498 535L510 535L522 535L534 535L546 534L558 534L570 532L583 531L595 530L607 528L619 523L631 519L643 515L655 510L667 505L679 497L692 490L704 485" fill="none" stroke-width="1.5"></path><g fill="#ca2628"><circle cx="86" cy="535" r="2"></circle><circle cx="98" cy="535" r="2"></circle><circle cx="110" cy="535" r="2"></circle><circle cx="122" cy="535" r="2"></circle><circle cx="134" cy="535" r="2"></circle><circle cx="147" cy="535" r="2"></circle><circle cx="159" cy="535" r="2"></circle><circle cx="171" cy="535" r="2"></circle><circle cx="183" cy="535" r="2"></circle><circle cx="195" cy="535" r="2"></circle><circle cx="207" cy="535" r="2"></circle><circle cx="219" cy="535" r="2"></circle><circle cx="231" cy="535" r="2"></circle><circle cx="243" cy="535" r="2"></circle><circle cx="256" cy="535" r="2"></circle><circle cx="268" cy="535" r="2"></circle><circle cx="280" cy="535" r="2"></circle><circle cx="292" cy="535" r="2"></circle><circle cx="304" cy="535" r="2"></circle><circle cx="316" cy="535" r="2"></circle><circle cx="328" cy="535" r="2"></circle><circle cx="340" cy="535" r="2"></circle><circle cx="352" cy="535" r="2"></circle><circle cx="365" cy="535" r="2"></circle><circle cx="377" cy="535" r="2"></circle><circle cx="389" cy="535" r="2"></circle><circle cx="401" cy="535" r="2"></circle><circle cx="413" cy="535" r="2"></circle><circle cx="425" cy="535" r="2"></circle><circle cx="437" cy="535" r="2"></circle><circle cx="449" cy="535" r="2"></circle><circle cx="461" cy="535" r="2"></circle><circle cx="474" cy="535" r="2"></circle><circle cx="486" cy="535" r="2"></circle><circle cx="498" cy="535" r="2"></circle><circle cx="510" cy="535" r="2"></circle><circle cx="522" cy="535" r="2"></circle><circle cx="534" cy="535" r="2"></circle><circle cx="546" cy="534" r="2"></circle><circle cx="558" cy="534" r="2"></circle><circle cx="570" cy="532" r="2"></circle><circle cx="583" cy="531" r="2"></circle><circle cx="595" cy="530" r="2"></circle><circle cx="607" cy="528" r="2"></circle><circle cx="619" cy="523" r="2"></circle><circle cx="631" cy="519" r="2"></circle><circle cx="643" cy="515" r="2"></circle><circle cx="655" cy="510" r="2"></circle><circle cx="667" cy="505" r="2"></circle><circle cx="679" cy="497" r="2"></circle><circle cx="692" cy="490" r="2"></circle><circle cx="704" cy="485" r="2"></circle></g></g><g class="key-China_0"><path stroke="#e6332e" stroke-linecap="round" d="M86 535L98 535L110 535L122 535L134 535L147 535L159 535L171 535L183 535L195 535L207 535L219 535L231 535L243 535L256 535L268 535L280 535L292 535L304 535L316 535L328 535L340 535L352 535L365 535L377 535L389 535L401 535L413 535L425 535L437 535L449 534L461 535L474 535L486 535L498 534L510 534L522 534L534 534L546 534L558 533L570 532L583 529L595 525L607 511L619 485L631 453L643 406L655 359L667 276L679 248L692 194L704 92" fill="none" stroke-width="1.5"></path><g fill="#e6332e"><circle cx="86" cy="535" r="2"></circle><circle cx="98" cy="535" r="2"></circle><circle cx="110" cy="535" r="2"></circle><circle cx="122" cy="535" r="2"></circle><circle cx="134" cy="535" r="2"></circle><circle cx="147" cy="535" r="2"></circle><circle cx="159" cy="535" r="2"></circle><circle cx="171" cy="535" r="2"></circle><circle cx="183" cy="535" r="2"></circle><circle cx="195" cy="535" r="2"></circle><circle cx="207" cy="535" r="2"></circle><circle cx="219" cy="535" r="2"></circle><circle cx="231" cy="535" r="2"></circle><circle cx="243" cy="535" r="2"></circle><circle cx="256" cy="535" r="2"></circle><circle cx="268" cy="535" r="2"></circle><circle cx="280" cy="535" r="2"></circle><circle cx="292" cy="535" r="2"></circle><circle cx="304" cy="535" r="2"></circle><circle cx="316" cy="535" r="2"></circle><circle cx="328" cy="535" r="2"></circle><circle cx="340" cy="535" r="2"></circle><circle cx="352" cy="535" r="2"></circle><circle cx="365" cy="535" r="2"></circle><circle cx="377" cy="535" r="2"></circle><circle cx="389" cy="535" r="2"></circle><circle cx="401" cy="535" r="2"></circle><circle cx="413" cy="535" r="2"></circle><circle cx="425" cy="535" r="2"></circle><circle cx="437" cy="535" r="2"></circle><circle cx="449" cy="534" r="2"></circle><circle cx="461" cy="535" r="2"></circle><circle cx="474" cy="535" r="2"></circle><circle cx="486" cy="535" r="2"></circle><circle cx="498" cy="534" r="2"></circle><circle cx="510" cy="534" r="2"></circle><circle cx="522" cy="534" r="2"></circle><circle cx="534" cy="534" r="2"></circle><circle cx="546" cy="534" r="2"></circle><circle cx="558" cy="533" r="2"></circle><circle cx="570" cy="532" r="2"></circle><circle cx="583" cy="529" r="2"></circle><circle cx="595" cy="525" r="2"></circle><circle cx="607" cy="511" r="2"></circle><circle cx="619" cy="485" r="2"></circle><circle cx="631" cy="453" r="2"></circle><circle cx="643" cy="406" r="2"></circle><circle cx="655" cy="359" r="2"></circle><circle cx="667" cy="276" r="2"></circle><circle cx="679" cy="248" r="2"></circle><circle cx="692" cy="194" r="2"></circle><circle cx="704" cy="92" r="2"></circle></g></g><g class="key-India_0"><path stroke="#a652ba" stroke-linecap="round" d="M86 535L98 535L110 535L122 535L134 535L147 535L159 535L171 535L183 535L195 535L207 535L219 535L231 535L243 535L256 535L268 535L280 535L292 535L304 535L316 535L328 535L340 535L352 535L365 535L377 535L389 535L401 535L413 535L425 535L437 535L449 534L461 534L474 534L486 533L498 533L510 532L522 532L534 532L546 531L558 526L570 524L583 518L595 514L607 511L619 502L631 499L643 490L655 480L667 474L679 474L692 475L704 453" fill="none" stroke-width="1.5"></path><g fill="#a652ba"><circle cx="86" cy="535" r="2"></circle><circle cx="98" cy="535" r="2"></circle><circle cx="110" cy="535" r="2"></circle><circle cx="122" cy="535" r="2"></circle><circle cx="134" cy="535" r="2"></circle><circle cx="147" cy="535" r="2"></circle><circle cx="159" cy="535" r="2"></circle><circle cx="171" cy="535" r="2"></circle><circle cx="183" cy="535" r="2"></circle><circle cx="195" cy="535" r="2"></circle><circle cx="207" cy="535" r="2"></circle><circle cx="219" cy="535" r="2"></circle><circle cx="231" cy="535" r="2"></circle><circle cx="243" cy="535" r="2"></circle><circle cx="256" cy="535" r="2"></circle><circle cx="268" cy="535" r="2"></circle><circle cx="280" cy="535" r="2"></circle><circle cx="292" cy="535" r="2"></circle><circle cx="304" cy="535" r="2"></circle><circle cx="316" cy="535" r="2"></circle><circle cx="328" cy="535" r="2"></circle><circle cx="340" cy="535" r="2"></circle><circle cx="352" cy="535" r="2"></circle><circle cx="365" cy="535" r="2"></circle><circle cx="377" cy="535" r="2"></circle><circle cx="389" cy="535" r="2"></circle><circle cx="401" cy="535" r="2"></circle><circle cx="413" cy="535" r="2"></circle><circle cx="425" cy="535" r="2"></circle><circle cx="437" cy="535" r="2"></circle><circle cx="449" cy="534" r="2"></circle><circle cx="461" cy="534" r="2"></circle><circle cx="474" cy="534" r="2"></circle><circle cx="486" cy="533" r="2"></circle><circle cx="498" cy="533" r="2"></circle><circle cx="510" cy="532" r="2"></circle><circle cx="522" cy="532" r="2"></circle><circle cx="534" cy="532" r="2"></circle><circle cx="546" cy="531" r="2"></circle><circle cx="558" cy="526" r="2"></circle><circle cx="570" cy="524" r="2"></circle><circle cx="583" cy="518" r="2"></circle><circle cx="595" cy="514" r="2"></circle><circle cx="607" cy="511" r="2"></circle><circle cx="619" cy="502" r="2"></circle><circle cx="631" cy="499" r="2"></circle><circle cx="643" cy="490" r="2"></circle><circle cx="655" cy="480" r="2"></circle><circle cx="667" cy="474" r="2"></circle><circle cx="679" cy="474" r="2"></circle><circle cx="692" cy="475" r="2"></circle><circle cx="704" cy="453" r="2"></circle></g></g><g class="key-United-States_0"><path stroke="#2a939b" stroke-linecap="round" d="M86 535L98 535L110 535L122 535L134 535L147 535L159 535L171 535L183 535L195 535L207 535L219 535L231 535L243 535L256 535L268 535L280 535L292 535L304 535L316 535L328 535L340 535L352 535L365 535L377 531L389 530L401 530L413 530L425 530L437 529L449 529L461 529L474 529L486 530L498 527L510 525L522 523L534 516L546 515L558 509L570 502L583 486L595 471L607 433L619 398L631 360L643 312L655 274L667 224L679 198L692 181L704 115" fill="none" stroke-width="1.5"></path><g fill="#2a939b"><circle cx="86" cy="535" r="2"></circle><circle cx="98" cy="535" r="2"></circle><circle cx="110" cy="535" r="2"></circle><circle cx="122" cy="535" r="2"></circle><circle cx="134" cy="535" r="2"></circle><circle cx="147" cy="535" r="2"></circle><circle cx="159" cy="535" r="2"></circle><circle cx="171" cy="535" r="2"></circle><circle cx="183" cy="535" r="2"></circle><circle cx="195" cy="535" r="2"></circle><circle cx="207" cy="535" r="2"></circle><circle cx="219" cy="535" r="2"></circle><circle cx="231" cy="535" r="2"></circle><circle cx="243" cy="535" r="2"></circle><circle cx="256" cy="535" r="2"></circle><circle cx="268" cy="535" r="2"></circle><circle cx="280" cy="535" r="2"></circle><circle cx="292" cy="535" r="2"></circle><circle cx="304" cy="535" r="2"></circle><circle cx="316" cy="535" r="2"></circle><circle cx="328" cy="535" r="2"></circle><circle cx="340" cy="535" r="2"></circle><circle cx="352" cy="535" r="2"></circle><circle cx="365" cy="535" r="2"></circle><circle cx="377" cy="531" r="2"></circle><circle cx="389" cy="530" r="2"></circle><circle cx="401" cy="530" r="2"></circle><circle cx="413" cy="530" r="2"></circle><circle cx="425" cy="530" r="2"></circle><circle cx="437" cy="529" r="2"></circle><circle cx="449" cy="529" r="2"></circle><circle cx="461" cy="529" r="2"></circle><circle cx="474" cy="529" r="2"></circle><circle cx="486" cy="530" r="2"></circle><circle cx="498" cy="527" r="2"></circle><circle cx="510" cy="525" r="2"></circle><circle cx="522" cy="523" r="2"></circle><circle cx="534" cy="516" r="2"></circle><circle cx="546" cy="515" r="2"></circle><circle cx="558" cy="509" r="2"></circle><circle cx="570" cy="502" r="2"></circle><circle cx="583" cy="486" r="2"></circle><circle cx="595" cy="471" r="2"></circle><circle cx="607" cy="433" r="2"></circle><circle cx="619" cy="398" r="2"></circle><circle cx="631" cy="360" r="2"></circle><circle cx="643" cy="312" r="2"></circle><circle cx="655" cy="274" r="2"></circle><circle cx="667" cy="224" r="2"></circle><circle cx="679" cy="198" r="2"></circle><circle cx="692" cy="181" r="2"></circle><circle cx="704" cy="115" r="2"></circle></g></g><g class="key-United-Kingdom_0"><path stroke="#f6a324" stroke-linecap="round" d="M86 535L98 535L110 535L122 535L134 535L147 535L159 535L171 535L183 535L195 535L207 535L219 535L231 535L243 535L256 535L268 535L280 535L292 535L304 535L316 535L328 535L340 535L352 535L365 535L377 535L389 535L401 535L413 535L425 535L437 535L449 535L461 534L474 534L486 534L498 534L510 534L522 534L534 533L546 533L558 532L570 530L583 528L595 526L607 522L619 518L631 516L643 507L655 499L667 483L679 477L692 461L704 466" fill="none" stroke-width="1.5"></path><g fill="#f6a324"><circle cx="86" cy="535" r="2"></circle><circle cx="98" cy="535" r="2"></circle><circle cx="110" cy="535" r="2"></circle><circle cx="122" cy="535" r="2"></circle><circle cx="134" cy="535" r="2"></circle><circle cx="147" cy="535" r="2"></circle><circle cx="159" cy="535" r="2"></circle><circle cx="171" cy="535" r="2"></circle><circle cx="183" cy="535" r="2"></circle><circle cx="195" cy="535" r="2"></circle><circle cx="207" cy="535" r="2"></circle><circle cx="219" cy="535" r="2"></circle><circle cx="231" cy="535" r="2"></circle><circle cx="243" cy="535" r="2"></circle><circle cx="256" cy="535" r="2"></circle><circle cx="268" cy="535" r="2"></circle><circle cx="280" cy="535" r="2"></circle><circle cx="292" cy="535" r="2"></circle><circle cx="304" cy="535" r="2"></circle><circle cx="316" cy="535" r="2"></circle><circle cx="328" cy="535" r="2"></circle><circle cx="340" cy="535" r="2"></circle><circle cx="352" cy="535" r="2"></circle><circle cx="365" cy="535" r="2"></circle><circle cx="377" cy="535" r="2"></circle><circle cx="389" cy="535" r="2"></circle><circle cx="401" cy="535" r="2"></circle><circle cx="413" cy="535" r="2"></circle><circle cx="425" cy="535" r="2"></circle><circle cx="437" cy="535" r="2"></circle><circle cx="449" cy="535" r="2"></circle><circle cx="461" cy="534" r="2"></circle><circle cx="474" cy="534" r="2"></circle><circle cx="486" cy="534" r="2"></circle><circle cx="498" cy="534" r="2"></circle><circle cx="510" cy="534" r="2"></circle><circle cx="522" cy="534" r="2"></circle><circle cx="534" cy="533" r="2"></circle><circle cx="546" cy="533" r="2"></circle><circle cx="558" cy="532" r="2"></circle><circle cx="570" cy="530" r="2"></circle><circle cx="583" cy="528" r="2"></circle><circle cx="595" cy="526" r="2"></circle><circle cx="607" cy="522" r="2"></circle><circle cx="619" cy="518" r="2"></circle><circle cx="631" cy="516" r="2"></circle><circle cx="643" cy="507" r="2"></circle><circle cx="655" cy="499" r="2"></circle><circle cx="667" cy="483" r="2"></circle><circle cx="679" cy="477" r="2"></circle><circle cx="692" cy="461" r="2"></circle><circle cx="704" cy="466" r="2"></circle></g></g></g></g></g><g style="fill: #777;" class="SourcesFooter"><g style="fill: #777;" class="clickable"><text font-size="12.60" x="15.0" y="581.6"><tspan x="15" y="581.58">Source: BP Statistical Review of Global Energy</tspan></text></g><text font-size="12.60" x="775.4" y="581.6"><tspan x="775.402" y="581.58"><a style="fill: #777;" class="cclogo" href="http://creativecommons.org/licenses/by-sa/4.0/deed.en_US" target="_blank">CC BY-SA</a></tspan></text></g></g></svg>